<?xml version="1.0" encoding="utf-8"?>
<!-- Generator: Adobe Illustrator 21.1.0, SVG Export Plug-In . SVG Version: 6.00 Build 0)  -->
<svg version="1.1" id="Layer_1" xmlns="http://www.w3.org/2000/svg" xmlns:xlink="http://www.w3.org/1999/xlink" x="0px" y="0px"
	 viewBox="0 0 100 100" style="enable-background:new 0 0 100 100;" xml:space="preserve">
<style type="text/css">
	.st0{fill:#EC2227;}
	.st1{fill:#29AFE5;}
</style>
<g>
	<g>
		<circle class="st0" cx="60.9" cy="11.8" r="0.2"/>
		<circle class="st0" cx="66.4" cy="11.8" r="0.2"/>
		<circle class="st0" cx="71.8" cy="11.8" r="0.2"/>
		<circle class="st0" cx="49.9" cy="17.3" r="0.2"/>
		<circle class="st0" cx="55.4" cy="17.3" r="0.2"/>
		<circle class="st0" cx="60.9" cy="17.3" r="0.7"/>
		<circle class="st0" cx="66.4" cy="17.3" r="0.9"/>
		<circle class="st0" cx="71.8" cy="17.3" r="0.9"/>
		<circle class="st0" cx="77.3" cy="17.3" r="0.2"/>
		<circle class="st0" cx="82.8" cy="17.3" r="0.2"/>
		<circle class="st0" cx="49.9" cy="22.8" r="1"/>
		<circle class="st0" cx="55.4" cy="22.8" r="1"/>
		<circle class="st0" cx="60.9" cy="22.8" r="2"/>
		<circle class="st0" cx="66.4" cy="22.8" r="2.3"/>
		<circle class="st0" cx="71.8" cy="22.8" r="2.3"/>
		<circle class="st0" cx="77.3" cy="22.8" r="1.6"/>
		<circle class="st0" cx="82.8" cy="22.8" r="0.7"/>
		<circle class="st0" cx="88.3" cy="22.8" r="0.2"/>
		<circle class="st0" cx="49.9" cy="28.3" r="1.8"/>
		<circle class="st0" cx="55.4" cy="28.3" r="2.3"/>
		<circle class="st0" cx="60.9" cy="28.3" r="2.3"/>
		<circle class="st0" cx="66.4" cy="28.3" r="2.3"/>
		<circle class="st0" cx="71.8" cy="28.3" r="2.5"/>
		<circle class="st0" cx="77.3" cy="28.3" r="2.3"/>
		<circle class="st0" cx="82.8" cy="28.3" r="2"/>
		<circle class="st0" cx="88.3" cy="28.3" r="0.7"/>
		<circle class="st0" cx="93.8" cy="28.3" r="0.2"/>
		<circle class="st0" cx="49.9" cy="33.7" r="2.3"/>
		<circle class="st0" cx="55.4" cy="33.7" r="2.6"/>
		<circle class="st0" cx="60.9" cy="33.7" r="2.5"/>
		<circle class="st0" cx="66.4" cy="33.7" r="2.3"/>
		<circle class="st0" cx="71.8" cy="33.7" r="2.3"/>
		<circle class="st0" cx="77.3" cy="33.7" r="2.5"/>
		<circle class="st0" cx="82.8" cy="33.7" r="2.3"/>
		<circle class="st0" cx="88.3" cy="33.7" r="1.6"/>
		<circle class="st0" cx="93.8" cy="33.7" r="0.7"/>
		<circle class="st0" cx="49.9" cy="39.3" r="3.3"/>
		<circle class="st0" cx="55.4" cy="39.3" r="3.4"/>
		<circle class="st0" cx="60.9" cy="39.3" r="3.2"/>
		<circle class="st0" cx="66.4" cy="39.3" r="3.1"/>
		<circle class="st0" cx="71.8" cy="39.3" r="2.8"/>
		<circle class="st0" cx="77.3" cy="39.3" r="2.5"/>
		<circle class="st0" cx="82.8" cy="39.3" r="2.3"/>
		<circle class="st0" cx="88.3" cy="39.3" r="2.3"/>
		<circle class="st0" cx="93.8" cy="39.3" r="0.7"/>
		<circle class="st0" cx="99.3" cy="39.3" r="0.2"/>
		<circle class="st0" cx="49.9" cy="44.8" r="3.4"/>
		<circle class="st0" cx="55.4" cy="44.8" r="3.1"/>
		<circle class="st0" cx="60.9" cy="44.8" r="3.1"/>
		<circle class="st0" cx="66.4" cy="44.8" r="2.9"/>
		<circle class="st0" cx="71.8" cy="44.8" r="2.7"/>
		<circle class="st0" cx="77.3" cy="44.8" r="2.5"/>
		<circle class="st0" cx="82.8" cy="44.8" r="2.3"/>
		<circle class="st0" cx="88.3" cy="44.8" r="2.3"/>
		<circle class="st0" cx="93.8" cy="44.8" r="0.9"/>
		<circle class="st0" cx="99.3" cy="44.8" r="0.2"/>
		<circle class="st0" cx="49.9" cy="50.2" r="3.1"/>
		<circle class="st0" cx="55.4" cy="50.2" r="3.2"/>
		<circle class="st0" cx="60.9" cy="50.2" r="3.1"/>
		<circle class="st0" cx="66.4" cy="50.2" r="2.9"/>
		<circle class="st0" cx="71.8" cy="50.2" r="2.6"/>
		<circle class="st0" cx="77.3" cy="50.2" r="2.5"/>
		<circle class="st0" cx="82.8" cy="50.2" r="2.3"/>
		<circle class="st0" cx="88.3" cy="50.2" r="1.8"/>
		<circle class="st0" cx="93.8" cy="50.2" r="0.7"/>
		<circle class="st0" cx="49.9" cy="55.7" r="3.4"/>
		<circle class="st0" cx="55.4" cy="55.7" r="3.3"/>
		<circle class="st0" cx="60.9" cy="55.7" r="3.1"/>
		<circle class="st0" cx="66.4" cy="55.7" r="2.9"/>
		<circle class="st0" cx="71.8" cy="55.7" r="2.6"/>
		<circle class="st0" cx="77.3" cy="55.7" r="2.4"/>
		<circle class="st0" cx="82.8" cy="55.7" r="2.3"/>
		<circle class="st0" cx="88.3" cy="55.7" r="0.9"/>
		<circle class="st0" cx="93.8" cy="55.7" r="0.2"/>
		<circle class="st0" cx="49.9" cy="61.2" r="3.1"/>
		<circle class="st0" cx="55.4" cy="61.2" r="3.2"/>
		<circle class="st0" cx="60.9" cy="61.2" r="3.1"/>
		<circle class="st0" cx="66.4" cy="61.2" r="2.6"/>
		<circle class="st1" cx="66.4" cy="61.2" r="0.6"/>
		<circle class="st0" cx="71.8" cy="61.2" r="2.5"/>
		<circle class="st1" cx="71.8" cy="61.2" r="1.2"/>
		<circle class="st0" cx="77.3" cy="61.2" r="2.3"/>
		<circle class="st0" cx="82.8" cy="61.2" r="1.8"/>
		<circle class="st0" cx="88.3" cy="61.2" r="0.2"/>
		<circle class="st0" cx="93.8" cy="61.2" r="0.2"/>
		<circle class="st0" cx="49.9" cy="66.7" r="2.9"/>
		<circle class="st0" cx="55.4" cy="66.7" r="3.1"/>
		<circle class="st0" cx="60.9" cy="66.7" r="2.9"/>
		<circle class="st1" cx="60.9" cy="66.7" r="0.7"/>
		<circle class="st0" cx="66.4" cy="66.7" r="2.3"/>
		<circle class="st1" cx="66.4" cy="66.7" r="1.2"/>
		<circle class="st0" cx="71.8" cy="66.7" r="2.3"/>
		<circle class="st1" cx="71.8" cy="66.7" r="1.8"/>
		<circle class="st0" cx="77.3" cy="66.7" r="2.3"/>
		<circle class="st1" cx="77.3" cy="66.7" r="1.3"/>
		<circle class="st0" cx="82.8" cy="66.7" r="0.5"/>
		<circle class="st0" cx="88.3" cy="66.7" r="0.2"/>
		<circle class="st0" cx="49.9" cy="72.2" r="2.5"/>
		<circle class="st0" cx="55.4" cy="72.2" r="2.9"/>
		<circle class="st0" cx="60.9" cy="72.2" r="2.6"/>
		<circle class="st0" cx="66.4" cy="72.2" r="2.3"/>
		<circle class="st1" cx="66.4" cy="72.2" r="0.8"/>
		<circle class="st0" cx="71.8" cy="72.2" r="1.8"/>
		<circle class="st1" cx="71.8" cy="72.2" r="1"/>
		<circle class="st0" cx="77.3" cy="72.2" r="0.5"/>
		<circle class="st0" cx="82.8" cy="72.2" r="0.2"/>
		<circle class="st0" cx="49.9" cy="77.7" r="2.3"/>
		<circle class="st0" cx="55.4" cy="77.7" r="2.6"/>
		<circle class="st0" cx="60.9" cy="77.7" r="2.3"/>
		<circle class="st0" cx="66.4" cy="77.7" r="1.4"/>
		<circle class="st0" cx="71.8" cy="77.7" r="0.5"/>
		<circle class="st0" cx="77.3" cy="77.7" r="0.2"/>
		<circle class="st0" cx="49.9" cy="83.2" r="2.3"/>
		<circle class="st0" cx="55.4" cy="83.2" r="1.8"/>
		<circle class="st0" cx="60.9" cy="83.2" r="0.5"/>
		<circle class="st0" cx="66.4" cy="83.2" r="0.2"/>
		<circle class="st0" cx="49.9" cy="88.7" r="0.2"/>
		<circle class="st0" cx="55.4" cy="88.7" r="0.2"/>
	</g>
	<g>
		<circle class="st0" cx="38.9" cy="11.8" r="0.2"/>
		<circle class="st0" cx="33.4" cy="11.8" r="0.2"/>
		<circle class="st0" cx="27.9" cy="11.8" r="0.2"/>
		<circle class="st0" cx="44.4" cy="17.3" r="0.2"/>
		<circle class="st0" cx="38.9" cy="17.3" r="0.7"/>
		<circle class="st0" cx="33.4" cy="17.3" r="0.9"/>
		<circle class="st0" cx="27.9" cy="17.3" r="0.9"/>
		<circle class="st0" cx="22.4" cy="17.3" r="0.2"/>
		<circle class="st0" cx="17" cy="17.3" r="0.2"/>
		<circle class="st0" cx="44.4" cy="22.8" r="1"/>
		<circle class="st0" cx="38.9" cy="22.8" r="2"/>
		<circle class="st0" cx="33.4" cy="22.8" r="2.3"/>
		<circle class="st0" cx="27.9" cy="22.8" r="2.3"/>
		<circle class="st0" cx="22.4" cy="22.8" r="1.6"/>
		<circle class="st0" cx="17" cy="22.8" r="0.7"/>
		<circle class="st0" cx="11.5" cy="22.8" r="0.2"/>
		<circle class="st0" cx="44.4" cy="28.3" r="2.3"/>
		<circle class="st0" cx="38.9" cy="28.3" r="2.3"/>
		<circle class="st0" cx="33.4" cy="28.3" r="2.3"/>
		<circle class="st0" cx="27.9" cy="28.3" r="2.5"/>
		<circle class="st0" cx="22.4" cy="28.3" r="2.3"/>
		<circle class="st0" cx="17" cy="28.3" r="2"/>
		<circle class="st0" cx="11.5" cy="28.3" r="0.7"/>
		<circle class="st0" cx="5.9" cy="28.3" r="0.2"/>
		<circle class="st0" cx="44.4" cy="33.7" r="2.6"/>
		<circle class="st0" cx="38.9" cy="33.7" r="2.5"/>
		<circle class="st0" cx="33.4" cy="33.7" r="2.3"/>
		<circle class="st0" cx="27.9" cy="33.7" r="2.3"/>
		<circle class="st0" cx="22.4" cy="33.7" r="2.5"/>
		<circle class="st0" cx="17" cy="33.7" r="2.3"/>
		<circle class="st0" cx="11.5" cy="33.7" r="1.6"/>
		<circle class="st0" cx="5.9" cy="33.7" r="0.7"/>
		<circle class="st0" cx="44.4" cy="39.3" r="3.4"/>
		<circle class="st0" cx="38.9" cy="39.3" r="3.2"/>
		<circle class="st0" cx="33.4" cy="39.3" r="3.1"/>
		<circle class="st0" cx="27.9" cy="39.3" r="2.8"/>
		<circle class="st0" cx="22.4" cy="39.3" r="2.5"/>
		<circle class="st0" cx="17" cy="39.3" r="2.3"/>
		<circle class="st0" cx="11.5" cy="39.3" r="2.3"/>
		<circle class="st0" cx="5.9" cy="39.3" r="0.7"/>
		<circle class="st0" cx="0.5" cy="39.3" r="0.2"/>
		<circle class="st0" cx="44.4" cy="44.8" r="3.1"/>
		<circle class="st0" cx="38.9" cy="44.8" r="3.1"/>
		<circle class="st0" cx="33.4" cy="44.8" r="2.9"/>
		<circle class="st0" cx="27.9" cy="44.8" r="2.7"/>
		<circle class="st0" cx="22.4" cy="44.8" r="2.5"/>
		<circle class="st0" cx="17" cy="44.8" r="2.3"/>
		<circle class="st0" cx="11.5" cy="44.8" r="2.3"/>
		<circle class="st0" cx="5.9" cy="44.8" r="0.9"/>
		<circle class="st0" cx="0.5" cy="44.8" r="0.2"/>
		<circle class="st0" cx="44.4" cy="50.2" r="3.2"/>
		<circle class="st0" cx="38.9" cy="50.2" r="3.1"/>
		<circle class="st0" cx="33.4" cy="50.2" r="2.9"/>
		<circle class="st0" cx="27.9" cy="50.2" r="2.6"/>
		<circle class="st0" cx="22.4" cy="50.2" r="2.5"/>
		<circle class="st0" cx="17" cy="50.2" r="2.3"/>
		<circle class="st0" cx="11.5" cy="50.2" r="1.8"/>
		<circle class="st0" cx="5.9" cy="50.2" r="0.7"/>
		<circle class="st0" cx="44.4" cy="55.7" r="3.3"/>
		<circle class="st0" cx="38.9" cy="55.7" r="3.1"/>
		<circle class="st0" cx="33.4" cy="55.7" r="2.9"/>
		<circle class="st0" cx="27.9" cy="55.7" r="2.6"/>
		<circle class="st0" cx="22.4" cy="55.7" r="2.4"/>
		<circle class="st0" cx="17" cy="55.7" r="2.3"/>
		<circle class="st0" cx="11.5" cy="55.7" r="0.9"/>
		<circle class="st0" cx="5.9" cy="55.7" r="0.2"/>
		<circle class="st0" cx="44.4" cy="61.2" r="3.2"/>
		<circle class="st0" cx="38.9" cy="61.2" r="3.1"/>
		<circle class="st0" cx="33.4" cy="61.2" r="2.6"/>
		<circle class="st0" cx="27.9" cy="61.2" r="2.5"/>
		<circle class="st0" cx="22.4" cy="61.2" r="2.3"/>
		<circle class="st0" cx="17" cy="61.2" r="1.8"/>
		<circle class="st0" cx="11.5" cy="61.2" r="0.2"/>
		<circle class="st0" cx="5.9" cy="61.2" r="0.2"/>
		<circle class="st0" cx="44.4" cy="66.7" r="3.1"/>
		<circle class="st0" cx="38.9" cy="66.7" r="2.9"/>
		<circle class="st0" cx="33.4" cy="66.7" r="2.3"/>
		<circle class="st0" cx="27.9" cy="66.7" r="2.3"/>
		<circle class="st0" cx="22.4" cy="66.7" r="2.3"/>
		<circle class="st0" cx="17" cy="66.7" r="0.5"/>
		<circle class="st0" cx="11.5" cy="66.7" r="0.2"/>
		<circle class="st0" cx="44.4" cy="72.2" r="2.9"/>
		<circle class="st0" cx="38.9" cy="72.2" r="2.6"/>
		<circle class="st0" cx="33.4" cy="72.2" r="2.3"/>
		<circle class="st0" cx="27.9" cy="72.2" r="1.8"/>
		<circle class="st0" cx="22.4" cy="72.2" r="0.5"/>
		<circle class="st0" cx="17" cy="72.2" r="0.2"/>
		<circle class="st0" cx="44.4" cy="77.7" r="2.6"/>
		<circle class="st0" cx="38.9" cy="77.7" r="2.3"/>
		<circle class="st0" cx="33.4" cy="77.7" r="1.4"/>
		<circle class="st0" cx="27.9" cy="77.7" r="0.5"/>
		<circle class="st0" cx="22.4" cy="77.7" r="0.2"/>
		<circle class="st0" cx="44.4" cy="83.2" r="1.8"/>
		<circle class="st0" cx="38.9" cy="83.2" r="0.5"/>
		<circle class="st0" cx="33.4" cy="83.2" r="0.2"/>
		<circle class="st0" cx="44.4" cy="88.7" r="0.2"/>
	</g>
</g>
</svg>
