<?xml version="1.0" encoding="utf-8"?>
<!-- Generator: Adobe Illustrator 24.1.0, SVG Export Plug-In . SVG Version: 6.00 Build 0)  -->
<svg version="1.1" id="Layer_1" xmlns="http://www.w3.org/2000/svg" xmlns:xlink="http://www.w3.org/1999/xlink" x="0px" y="0px"
	 viewBox="0 0 108.6 108.6" style="enable-background:new 0 0 108.6 108.6;" xml:space="preserve">
<style type="text/css">
	.st0{fill:#AFABD4;}
	.st1{fill:#D3D0E8;}
	.st2{fill:none;stroke:#AFABD4;stroke-width:3.0706;stroke-linejoin:round;stroke-miterlimit:10;}
</style>
<g>
	<circle class="st0" cx="54.1" cy="28.4" r="6.3"/>
	<path class="st1" d="M95.8,24.9c-0.5-1.5-2.2-2.3-3.7-1.8l-38,13.3l-38-13.3c-1.5-0.5-3.1,0.3-3.7,1.8c-0.5,1.5,0.3,3.1,1.8,3.7
		l31.5,11v25.5L33.6,98.3c-0.7,1.9,0.3,4,2.2,4.7c1.9,0.7,4-0.3,4.7-2.2l11.6-31.8h3.9l11.6,31.8c0.7,1.9,2.8,2.9,4.7,2.2
		s2.9-2.8,2.2-4.7L62.6,65.5V39.5L94,28.6C95.5,28.1,96.3,26.4,95.8,24.9z"/>
	<path class="st0" d="M93,37H15.2c-1.6,0-2.9,1.3-2.9,2.9s1.3,2.9,2.9,2.9h30.5v17.8v8.4V102c0,2,1.7,3.7,3.7,3.7s3.7-1.7,3.7-3.7
		V68.9h2.2V102c0,2,1.7,3.7,3.7,3.7s3.7-1.7,3.7-3.7V68.9v-8.4V42.8H93c1.6,0,2.9-1.3,2.9-2.9S94.6,37,93,37z"/>
	<circle class="st2" cx="54.1" cy="54.2" r="51.7"/>
	<g>
		<path class="st1" d="M29.2,40.8H15.8c-0.4,0-0.8-0.4-0.8-0.8l0,0c0-0.4,0.4-0.8,0.8-0.8h13.5c0.4,0,0.8,0.4,0.8,0.8l0,0
			C30,40.5,29.6,40.8,29.2,40.8z"/>
		<path class="st1" d="M45.9,40.8H32.4c-0.4,0-0.8-0.4-0.8-0.8l0,0c0-0.4,0.4-0.8,0.8-0.8h13.5c0.4,0,0.8,0.4,0.8,0.8l0,0
			C46.7,40.5,46.3,40.8,45.9,40.8z"/>
		<path class="st1" d="M75.8,40.8H62.3c-0.4,0-0.8-0.4-0.8-0.8l0,0c0-0.4,0.4-0.8,0.8-0.8h13.5c0.4,0,0.8,0.4,0.8,0.8l0,0
			C76.6,40.5,76.2,40.8,75.8,40.8z"/>
		<path class="st1" d="M92.4,40.8H79c-0.4,0-0.8-0.4-0.8-0.8l0,0c0-0.4,0.4-0.8,0.8-0.8h13.5c0.4,0,0.8,0.4,0.8,0.8l0,0
			C93.2,40.5,92.9,40.8,92.4,40.8z"/>
		<path class="st1" d="M48.4,82.8V66.5c0-0.5,0.4-1,1-1l0,0c0.5,0,1,0.4,1,1v16.3c0,0.5-0.4,1-1,1l0,0
			C48.8,83.7,48.4,83.3,48.4,82.8z"/>
		<path class="st1" d="M48.4,102.8V86.5c0-0.5,0.4-1,1-1l0,0c0.5,0,1,0.4,1,1v16.3c0,0.5-0.4,1-1,1l0,0
			C48.8,103.7,48.4,103.3,48.4,102.8z"/>
		<path class="st1" d="M57.9,82.8V66.5c0-0.5,0.4-1,1-1h0c0.5,0,1,0.4,1,1v16.3c0,0.5-0.4,1-1,1h0C58.3,83.7,57.9,83.3,57.9,82.8z"
			/>
		<path class="st1" d="M57.9,102.8V86.5c0-0.5,0.4-1,1-1h0c0.5,0,1,0.4,1,1v16.3c0,0.5-0.4,1-1,1h0
			C58.3,103.7,57.9,103.3,57.9,102.8z"/>
		<circle class="st1" cx="54.1" cy="28.4" r="4"/>
		<path class="st1" d="M54.1,43.8L54.1,43.8c-0.7,0-1.3-0.6-1.3-1.3v-1.4c0-0.7,0.6-1.3,1.3-1.3h0c0.7,0,1.3,0.6,1.3,1.3v1.4
			C55.4,43.2,54.8,43.8,54.1,43.8z"/>
		<path class="st1" d="M54.1,48.9L54.1,48.9c-0.7,0-1.3-0.6-1.3-1.3v-1.4c0-0.7,0.6-1.3,1.3-1.3h0c0.7,0,1.3,0.6,1.3,1.3v1.4
			C55.4,48.3,54.8,48.9,54.1,48.9z"/>
		<path class="st1" d="M54.1,54L54.1,54c-0.7,0-1.3-0.6-1.3-1.3v-1.4c0-0.7,0.6-1.3,1.3-1.3h0c0.7,0,1.3,0.6,1.3,1.3v1.4
			C55.4,53.4,54.8,54,54.1,54z"/>
		<path class="st1" d="M54.1,59L54.1,59c-0.7,0-1.3-0.6-1.3-1.3v-1.4c0-0.7,0.6-1.3,1.3-1.3h0c0.7,0,1.3,0.6,1.3,1.3v1.4
			C55.4,58.4,54.8,59,54.1,59z"/>
		<path class="st1" d="M54.1,64.1L54.1,64.1c-0.7,0-1.3-0.6-1.3-1.3v-1.4c0-0.7,0.6-1.3,1.3-1.3h0c0.7,0,1.3,0.6,1.3,1.3v1.4
			C55.4,63.5,54.8,64.1,54.1,64.1z"/>
	</g>
</g>
</svg>
