<?xml version="1.0" encoding="utf-8"?>
<!-- Generator: Adobe Illustrator 22.1.0, SVG Export Plug-In . SVG Version: 6.00 Build 0)  -->
<svg version="1.1" id="Layer_1" xmlns="http://www.w3.org/2000/svg" xmlns:xlink="http://www.w3.org/1999/xlink" x="0px" y="0px"
	 viewBox="0 0 100 100" style="enable-background:new 0 0 100 100;" xml:space="preserve">
<style type="text/css">
	.st0{fill:#F2F2F2;}
	.st1{fill:#D3D9EE;}
	.st2{fill:#ABB8DE;}
	.st3{fill:#8197CC;}
	.st4{fill:none;stroke:#ABB8DE;stroke-width:1.1425;stroke-miterlimit:10;}
	.st5{fill:none;stroke:#8197CC;stroke-miterlimit:10;}
</style>
<g>
	<g>
		<path class="st0" d="M93.3,54C95.5,30.1,77.9,8.9,54,6.7S8.9,22.1,6.7,46c-0.2,2.1-0.2,4.3-0.1,6.4c6.2-2.5,13.2-3.7,20.3-3
			c21.8,2,38.3,19.8,39.4,41C80.9,84.4,91.8,70.8,93.3,54z"/>
		<path class="st1" d="M26.9,49.3c-7.2-0.7-14.1,0.5-20.3,3c1.1,21.2,17.6,39,39.4,41c7.2,0.7,14.1-0.5,20.3-3
			C65.2,69.1,48.7,51.4,26.9,49.3z"/>
	</g>
	<g>
		<g>
			<path class="st2" d="M61.3,41.2C72.1,51.9,72.9,72.5,68,77.4c-4.9,4.9-25.5,4.1-36.3-6.7s-13.3-21.6-2.6-32.2
				S50.6,30.4,61.3,41.2z"/>
			<g>
				<path class="st3" d="M60.4,70.4c-1.4,0.1-1.8,0.9-3.1,1c-3.4,0.4-5.3-8.7-10.2-11.6c-5.5-3.2-15.2,0.5-18.9,7
					c1,1.3,2.2,2.6,3.5,3.9C42.5,81.5,63.1,82.4,68,77.4c0.1-0.1,0.1-0.1,0.2-0.2C67.3,73.7,62.9,70.2,60.4,70.4z"/>
			</g>
		</g>
		<path class="st4" d="M45.9,63.8c0,4.3-3.4,7.7-7.7,7.7"/>
		<path class="st5" d="M59.6,50.1c0,4.3-3.4,7.7-7.7,7.7"/>
	</g>
</g>
</svg>
