<?xml version="1.0" encoding="utf-8"?>
<!-- Generator: Adobe Illustrator 21.1.0, SVG Export Plug-In . SVG Version: 6.00 Build 0)  -->
<svg version="1.1" id="Layer_1" xmlns="http://www.w3.org/2000/svg" xmlns:xlink="http://www.w3.org/1999/xlink" x="0px" y="0px"
	 viewBox="0 0 100 100" style="enable-background:new 0 0 100 100;" xml:space="preserve">
<style type="text/css">
	.st0{fill:url(#SVGID_1_);}
	.st1{fill:#FFFFFF;}
	.st2{fill:#249248;}
	.st3{fill:#94C940;}
	.st4{fill:#929390;}
	.st5{fill:#55B748;}
	.st6{fill:#EDE80C;}
	.st7{fill:#F69320;}
	.st8{fill:#FFC113;}
	.st9{fill:#BED530;}
	.st10{fill:#EB2227;}
	.st11{fill:#BDD96D;}
</style>
<g>
	<g>
		<linearGradient id="SVGID_1_" gradientUnits="userSpaceOnUse" x1="49.9291" y1="0.9641" x2="49.9291" y2="99.4857">
			<stop  offset="0" style="stop-color:#B2D236"/>
			<stop  offset="0.6687" style="stop-color:#D7DE27"/>
		</linearGradient>
		<path class="st0" d="M96.6,1H3.3C1.8,1,0.7,2.1,0.7,3.6v93.3c0,1.4,1.2,2.6,2.6,2.6h42.5c-0.7-5.7-1.5-15.2-8.1-13.7
			c-1.6,0.1-5.3,1.3-7.1,1.6c-3.5,0.5-7.3,0.3-9.4-2.5c-2-2.9-3.5-16.4-3.9-16.8c-0.4-0.4-7.5-0.9-8.5-1.6c-2-1.4-0.5-3.8-0.5-3.8
			s6.5-9.3,7.7-13.3c0.3-1-0.1-1.7-0.6-3.9c-0.3-1.9-1.5-4.1-1.2-6C16.7,18.2,31.8,4.8,52.7,4.8c20.9,0,37.8,15.6,37.8,34.8
			c0,7.2-2.4,13.8-6.4,19.4c0,0-2.7,4.8-8.5,13.5c-2.5,3.7,5.2,23.2,6.7,27h14.2c1.4,0,2.6-1.2,2.6-2.6V3.6C99.2,2.1,98,1,96.6,1z"
			/>
		<path class="st1" d="M75.6,72.5c5.8-8.7,8.5-13.5,8.5-13.5c4-5.5,6.4-12.2,6.4-19.4c0-19.2-16.9-34.8-37.8-34.8
			c-20.9,0-36,13.5-38.5,34.6c-0.2,2,0.9,4.1,1.2,6c0.5,2.1,0.9,2.8,0.6,3.9c-1.2,4-7.7,13.3-7.7,13.3S6.9,65,8.9,66.4
			c0.9,0.7,8.1,1.2,8.5,1.6c0.4,0.4,1.9,13.9,3.9,16.8c2,2.9,5.9,3.1,9.4,2.5c1.7-0.3,5.5-1.5,7.1-1.6c6.6-1.4,7.5,8,8.1,13.7h36.5
			C80.8,95.7,73.2,76.2,75.6,72.5z"/>
	</g>
	<path class="st2" d="M22.9,32.1c0.3-0.8,1.2-0.7,1.2-0.7s0.8,0.5,0.5,1.3c-0.3,0.8-1.5,1.6-1.5,1.6S22.6,32.9,22.9,32.1z"/>
	<path class="st3" d="M24.4,37.7c0.5-0.6,1.3-0.2,1.3-0.2s0.5,0.7-0.1,1.3c-0.5,0.6-1.9,0.8-1.9,0.8S23.8,38.3,24.4,37.7z"/>
	<path class="st3" d="M26.2,39.4c0.6-0.7,1.5-0.3,1.5-0.3s0.6,0.8,0,1.5c-0.6,0.7-2.2,1-2.2,1S25.6,40.1,26.2,39.4z"/>
	<path class="st4" d="M83.1,36.7c-1.4,1.6-2.9,2-5.2,2.6c-1.2,0.3-3.4,0.3-5.5,1.5c-0.2,0.1-0.4,0.3-0.6,0.4c0.1-0.9,0.3-2,1.1-3.1
		c1.6-2.3,4.3-2.5,5.9-3.5c1.6-0.9,2.6-2.5,2.9-4.6c0,0-0.8,3.4-4.6,4.4c-2.2,0.6-4.6,1.8-5.7,3.9c-0.9,1.5-1.1,3.2-1.1,4
		c-1.3,1-1.9,2-2.2,2.5c0,0-0.9-1.3-2.7-2.8c0-0.1,0-0.1-0.1-0.2c-3.8-7.2-3.8-9.8-2.5-11.6c2.1-3,6.6-2,11.1-5.4
		c3.9-3,3.9-6.9,3.9-6.9s-0.7,3.8-4.1,6.2c-3.8,2.7-6.5,2.3-9.2,3.4c-0.1,0-0.1,0.1-0.2,0.1c0.1-0.2,0.1-0.4,0.2-0.6
		c0.4-1.7-0.4-3.5-1.2-5c-2-3.5,0.5-7,0.5-7c-0.9,1.3-2.2,3.2-1.4,6.3c0.3,1.3,1.8,2.7,1.5,4.8c-0.1,1-0.8,2.1-1.2,2.6l0,0
		c-1.4,1.1-2.1,2.6-2.1,3.9c-0.1,2.5,0.6,4.7,2,7.5c-1.3-0.6-2.8-1.2-4.4-1.4c-0.8-0.8-2.9-2.8-2.6-5.2c0.3-3,1-5.2,0.1-7.8
		c-1-3-3.7-4.4-5.5-5c-4.2-4.7-2.8-10.1-2.8-10.1s-2.2,5.1,1.1,9.8c-0.1,0-0.2,0-0.2,0c-1.3,0-7.2-1.6-10.1-5.4c0,0,3,4.9,9.4,6.2
		c3.5,0.7,4.7,1.5,6,3.4c1.3,2,0.9,4.1,0.3,8.2c-0.4,2.6,0.2,4.3,1.1,5.9c-1.3,0.1-2.7,0.3-4.2,0.8c-0.4,0.1-0.8,0.3-1.2,0.4
		c0-0.7-0.2-2.7-2-4.5l-0.1-0.2c-0.3-1.1-0.9-2.3-0.6-3.2c0.3-1.2,1.1-1.5,1.6-3.1c0.5-1.6-0.3-3.3-1.6-4.7c0,0,2.8,3.1,0.5,5.9
		c-1.4,1.7-1.3,2.9-0.9,4.4c-2.1-1.6-4.2-2-5.8-4.1c-2.1-2.8,0.1-7.4,0.1-7.4s-1.3,1.8-1.5,4.4c-0.2,2,1,3.5,1.6,4.4
		c1.5,2,3.9,2.3,6,4.4c1.7,1.7,1.1,3.3,1.1,4.3c-4.6,0.7-8.5-0.5-11.3-3.7c-5.4-6.5-0.5-21-0.5-21s-3.8,6.9-2.9,15.9
		C28,26,22.6,29,22.6,29s6.6-2.4,10.3,4.8c0.2,1.1,0.6,2.1,1.2,3.1c0,0,0,0,0,0l0,0c1,1.8,2.7,3.4,5.1,4.5c-0.8,0.4-2.6,1.2-3.8,0.9
		c-1.3-0.3-1.5-1.7-3.3-2.3c-1-0.3-1.7-0.3-2.4-0.5c-0.6-0.2-0.8-1.8-1.7-2.3c-0.3-0.2-1.2-0.3-1.8-0.4c-0.6-0.1-1.2-0.5-1.2-0.5
		c0.2,0.5,1.3,1.1,1.8,1.2c0.5,0.1,0.9,0.2,1.5,1.5c0.6,1.4,1.1,1.4,2.8,1.9c1.7,0.5,1.5,2,3.3,2.8c1.8,0.8,4.2,0,6.5-0.7
		c0.5-0.2,1.1-0.3,1.6-0.4c6,1.4,9-1.5,14-0.4c8.1,1.6,8.3,6.8,8.6,10.8c0,0.5,0,1.1-0.1,1.8c-0.2-0.2-0.3-0.3-0.5-0.5
		c-0.9-1.2-0.6-3.5-2.2-5.5c-0.8-1-2.1-2.3-4.7-2c-2.8,0.4-4.1,2.8-8.8,2.6c-4.1-0.2-7.3-3.1-7.3-3.1s2.1,3.3,6.9,3.8
		c7,0.7,7.6-3.4,11.3-1.7c2.1,0.9,1.8,3.1,2.6,6.1c0.4,1.2,1.1,2.3,1.9,3.1c-2.2,10-4.1,28.1,4,42l8.6,0c0,0-13.4-19.9-7.2-43.4
		c0,0,0.6-4.2-0.1-6.7c-0.3-1.2,1-4.9,3.6-6.6c3.3-2.3,8.1-1.9,10.2-4.9c1.4-2,1.7-6.8,1.7-6.8S84.4,35.2,83.1,36.7z"/>
	<path class="st2" d="M61.2,12.8c-0.3,0.7-1.1,0.5-1.1,0.5s-0.6-0.5-0.3-1.2c0.3-0.7,1.5-1.3,1.5-1.3S61.5,12.1,61.2,12.8z"/>
	<path class="st5" d="M39.7,14.3C39.5,15,38.6,15,38.6,15s-0.8-0.4-0.6-1.2c0.2-0.8,1.3-1.6,1.3-1.6S39.9,13.5,39.7,14.3z"/>
	<path class="st5" d="M41.7,15.9c-0.4,0.8-1.4,0.6-1.4,0.6S39.5,15.9,40,15c0.4-0.8,1.8-1.5,1.8-1.5S42.1,15.1,41.7,15.9z"/>
	<path class="st5" d="M43.4,17.5c-0.6,0.7-1.5,0.1-1.5,0.1s-0.5-0.9,0.1-1.5c0.6-0.7,2.2-0.9,2.2-0.9S44,16.8,43.4,17.5z"/>
	<path class="st2" d="M45.4,18.5c-0.6,0.7-1.5,0.1-1.5,0.1s-0.5-0.9,0.1-1.5c0.6-0.7,2.2-0.9,2.2-0.9S46,17.8,45.4,18.5z"/>
	<path class="st3" d="M35.8,32.6c-0.6,0.4-1.2-0.2-1.2-0.2s-0.2-0.8,0.4-1.2c0.6-0.4,1.9-0.3,1.9-0.3S36.4,32.2,35.8,32.6z"/>
	<path class="st3" d="M35.3,30.2c-0.6,0.4-1.2-0.2-1.2-0.2s-0.2-0.8,0.4-1.2c0.6-0.4,1.9-0.3,1.9-0.3S35.9,29.8,35.3,30.2z"/>
	<path class="st3" d="M34.9,28.2c-0.6,0.4-1.2-0.2-1.2-0.2s-0.2-0.8,0.4-1.2c0.6-0.4,1.9-0.3,1.9-0.3S35.5,27.8,34.9,28.2z"/>
	<path class="st3" d="M34.9,26c-0.7,0.1-1-0.7-1-0.7s0.1-0.8,0.9-0.9c0.7-0.1,1.8,0.6,1.8,0.6S35.7,26,34.9,26z"/>
	<path class="st3" d="M35,24.1c-0.7,0.1-1-0.6-1-0.6s0.1-0.8,0.8-0.9c0.7-0.1,1.7,0.5,1.7,0.5S35.7,24,35,24.1z"/>
	<path class="st5" d="M35.1,14.4c0.2,0.7-0.5,1.1-0.5,1.1s-0.8,0-1-0.7c-0.2-0.7,0.3-1.9,0.3-1.9S34.9,13.7,35.1,14.4z"/>
	<path class="st3" d="M27.9,41.5c0.4-0.8,1.4-0.6,1.4-0.6s0.8,0.7,0.4,1.5c-0.4,0.8-1.8,1.5-1.8,1.5S27.5,42.3,27.9,41.5z"/>
	<path class="st3" d="M29.6,32.4c0.4-0.8,1.3-0.5,1.3-0.5s0.7,0.6,0.3,1.4c-0.4,0.8-1.8,1.3-1.8,1.3S29.2,33.1,29.6,32.4z"/>
	<path class="st3" d="M27.3,30.5c0.4-0.7,1.3-0.4,1.3-0.4s0.6,0.7,0.2,1.4c-0.4,0.7-1.8,1.2-1.8,1.2S26.9,31.2,27.3,30.5z"/>
	<path class="st5" d="M31.5,20.4c0.9,0.1,1.1,1,1.1,1s-0.3,0.9-1.2,0.9c-0.9-0.1-2-1.1-2-1.1S30.6,20.4,31.5,20.4z"/>
	<path class="st5" d="M32.4,17.8c0.9,0.2,0.9,1.3,0.9,1.3s-0.5,0.9-1.4,0.6C31,19.5,30,18.2,30,18.2S31.5,17.6,32.4,17.8z"/>
	<path class="st5" d="M33.5,15.8c0.6,0.5,0.3,1.2,0.3,1.2s-0.7,0.5-1.3,0.1c-0.6-0.5-1-1.7-1-1.7S32.9,15.3,33.5,15.8z"/>
	<path class="st3" d="M36.2,15.4c-0.5,0.3-0.3,0.9-0.3,0.9s0.4,0.4,0.9,0.1c0.5-0.3,0.8-1.2,0.8-1.2S36.6,15.1,36.2,15.4z"/>
	<path class="st3" d="M35.2,20.7c-0.7,0-0.8,0.8-0.8,0.8s0.2,0.7,0.9,0.7c0.7,0,1.6-0.8,1.6-0.8S35.9,20.7,35.2,20.7z"/>
	<path class="st3" d="M35.7,18.9c-0.6-0.1-0.9,0.6-0.9,0.6s0.1,0.7,0.7,0.8c0.6,0.1,1.6-0.5,1.6-0.5S36.3,19,35.7,18.9z"/>
	<path class="st3" d="M36.1,17.1c-0.6,0-0.8,0.7-0.8,0.7s0.2,0.7,0.8,0.7c0.6,0,1.5-0.7,1.5-0.7S36.7,17.1,36.1,17.1z"/>
	<path class="st5" d="M26.6,26.3c0.1,0.8-0.7,1.2-0.7,1.2s-0.9-0.1-1.1-0.9c-0.1-0.8,0.5-2.1,0.5-2.1S26.5,25.5,26.6,26.3z"/>
	<path class="st5" d="M29.1,26.9c-0.2,0.8-1.1,0.8-1.1,0.8s-0.8-0.4-0.6-1.2c0.2-0.8,1.3-1.7,1.3-1.7S29.3,26.1,29.1,26.9z"/>
	<path class="st2" d="M27.8,24.9c-0.1,0.6-0.8,0.6-0.8,0.6s-0.6-0.3-0.4-0.9c0.1-0.6,1-1.2,1-1.2S28,24.3,27.8,24.9z"/>
	<path class="st5" d="M23.9,26.6c0.5,0.6-0.1,1.3-0.1,1.3s-0.8,0.3-1.3-0.3c-0.5-0.6-0.5-2-0.5-2S23.5,26,23.9,26.6z"/>
	<path class="st5" d="M30.9,22.7c0.8-0.3,1.3,0.4,1.3,0.4s0.1,0.9-0.6,1.2c-0.8,0.3-2.1-0.1-2.1-0.1S30.1,23,30.9,22.7z"/>
	<path class="st3" d="M24.5,30c0.2-0.8,1.1-0.9,1.1-0.9s0.8,0.4,0.7,1.2c-0.2,0.8-1.2,1.7-1.2,1.7S24.4,30.8,24.5,30z"/>
	<path class="st3" d="M22.1,29.8c0.4-0.7,1.3-0.5,1.3-0.5s0.6,0.6,0.2,1.3c-0.4,0.7-1.7,1.2-1.7,1.2S21.7,30.5,22.1,29.8z"/>
	<path class="st5" d="M31,28.4c-0.6,0.5-1.3,0-1.3,0s-0.4-0.8,0.2-1.3c0.6-0.5,2-0.6,2-0.6S31.6,27.9,31,28.4z"/>
	<path class="st2" d="M24.6,24.7c0.2,0.8-0.6,1.2-0.6,1.2s-0.9,0-1.1-0.8c-0.2-0.8,0.4-2,0.4-2S24.4,24,24.6,24.7z"/>
	<path class="st2" d="M26.2,22.8c0.3,0.6-0.2,1.1-0.2,1.1s-0.7,0.2-1.1-0.4c-0.3-0.6-0.2-1.7-0.2-1.7S25.8,22.2,26.2,22.8z"/>
	<path class="st5" d="M31,24.8c0.7-0.1,0.9,0.6,0.9,0.6s-0.1,0.7-0.8,0.8c-0.7,0.1-1.7-0.6-1.7-0.6S30.4,24.8,31,24.8z"/>
	<path class="st2" d="M31.2,16.3c0.7,0.2,0.7,0.9,0.7,0.9s-0.4,0.7-1,0.5c-0.7-0.2-1.4-1.1-1.4-1.1S30.6,16.1,31.2,16.3z"/>
	<path class="st2" d="M29,22c0.7,0,0.8,0.8,0.8,0.8s-0.2,0.7-0.9,0.7c-0.7,0-1.5-0.8-1.5-0.8S28.3,22,29,22z"/>
	<path class="st2" d="M25.2,32.9c0-0.8,0.9-1,0.9-1s0.8,0.3,0.8,1.1c0,0.8-0.9,1.8-0.9,1.8S25.1,33.7,25.2,32.9z"/>
	<path class="st2" d="M27.6,33.3c0.4-0.7,1.2-0.5,1.2-0.5s0.6,0.6,0.2,1.3c-0.4,0.7-1.7,1.2-1.7,1.2S27.2,34,27.6,33.3z"/>
	<path class="st2" d="M31.1,34.4c0.4-0.7,1.2-0.5,1.2-0.5s0.6,0.6,0.2,1.3c-0.4,0.7-1.7,1.2-1.7,1.2S30.7,35.1,31.1,34.4z"/>
	<path class="st3" d="M23.8,35.5c0.8,0.1,0.9,1,0.9,1s-0.3,0.8-1.1,0.7C22.7,37,21.8,36,21.8,36S23,35.4,23.8,35.5z"/>
	<path class="st2" d="M27.9,20.2c0.8,0.1,1,0.9,1,0.9s-0.3,0.8-1.1,0.8c-0.8-0.1-1.8-1-1.8-1S27.1,20.1,27.9,20.2z"/>
	<path class="st2" d="M29.5,18.4c0.8,0.2,0.8,1.1,0.8,1.1s-0.4,0.8-1.2,0.6c-0.8-0.2-1.6-1.3-1.6-1.3S28.7,18.2,29.5,18.4z"/>
	<path class="st3" d="M45.5,10.4c0.7,0.4,0.4,1.2,0.4,1.2s-0.6,0.6-1.2,0.2c-0.7-0.4-1.1-1.6-1.1-1.6S44.8,10,45.5,10.4z"/>
	<path class="st2" d="M52.5,12.5c-0.6,0.2-0.9-0.4-0.9-0.4s0-0.6,0.5-0.8c0.6-0.2,1.5,0.2,1.5,0.2S53.1,12.3,52.5,12.5z"/>
	<path class="st2" d="M53.9,14.4c-0.5,0.1-0.8-0.4-0.8-0.4s0-0.6,0.5-0.7c0.5-0.1,1.3,0.2,1.3,0.2S54.4,14.3,53.9,14.4z"/>
	<path class="st2" d="M55,18.8c-0.7,0.2-1.1-0.5-1.1-0.5s0-0.8,0.7-1c0.7-0.2,1.9,0.3,1.9,0.3S55.7,18.6,55,18.8z"/>
	<path class="st5" d="M48.5,13.8c-0.9,0.2-1.3-0.7-1.3-0.7s0-1,0.9-1.2c0.9-0.2,2.3,0.4,2.3,0.4S49.4,13.6,48.5,13.8z"/>
	<path class="st3" d="M44.4,14.8c0.9-0.1,1.3,0.7,1.3,0.7s-0.1,1-1,1.1c-0.9,0.1-2.2-0.6-2.2-0.6S43.5,14.9,44.4,14.8z"/>
	<path class="st3" d="M45.2,17.2c0.9-0.1,1.3,0.7,1.3,0.7s-0.1,1-1,1.1c-0.9,0.1-2.2-0.6-2.2-0.6S44.3,17.4,45.2,17.2z"/>
	<path class="st5" d="M48.7,16.1c-0.9,0-1.2-0.9-1.2-0.9s0.2-1,1.1-1c0.9,0,2.2,0.9,2.2,0.9S49.6,16,48.7,16.1z"/>
	<path class="st5" d="M49.8,18.5c-0.9,0.3-1.4-0.5-1.4-0.5s-0.1-1,0.8-1.3c0.9-0.3,2.4,0.2,2.4,0.2S50.7,18.2,49.8,18.5z"/>
	<path class="st5" d="M51.4,20.3c-0.9,0.3-1.4-0.5-1.4-0.5s-0.1-1,0.8-1.3c0.9-0.3,2.4,0.2,2.4,0.2S52.3,20,51.4,20.3z"/>
	<path class="st3" d="M46.7,8.9c0.4,0.7-0.2,1.3-0.2,1.3s-0.8,0.2-1.2-0.5c-0.4-0.7-0.2-2-0.2-2S46.3,8.2,46.7,8.9z"/>
	<path class="st5" d="M48.7,11.3c-0.6,0.5-1.4,0-1.4,0s-0.4-0.8,0.3-1.3c0.6-0.5,2.1-0.5,2.1-0.5S49.3,10.7,48.7,11.3z"/>
	<path class="st2" d="M50.8,11.8c-0.8,0.3-1.3-0.4-1.3-0.4s-0.1-0.9,0.6-1.2c0.8-0.3,2.1,0,2.1,0S51.5,11.5,50.8,11.8z"/>
	<path class="st2" d="M51.2,14.4c-0.8,0.1-1.2-0.7-1.2-0.7s0.1-0.9,0.9-1c0.8-0.1,2.1,0.6,2.1,0.6S52,14.3,51.2,14.4z"/>
	<path class="st2" d="M52.1,16.3c-0.8,0.2-1.2-0.7-1.2-0.7s0.1-0.9,0.9-1.1c0.8-0.2,2.1,0.5,2.1,0.5S52.9,16.1,52.1,16.3z"/>
	<path class="st2" d="M53.1,18c-0.7,0.4-1.3-0.3-1.3-0.3s-0.2-0.9,0.6-1.2c0.7-0.4,2.1,0,2.1,0S53.9,17.7,53.1,18z"/>
	<path class="st5" d="M53.8,21.2c-0.5,0.6-1.3,0.3-1.3,0.3s-0.5-0.7,0-1.4c0.5-0.6,1.9-1,1.9-1S54.3,20.6,53.8,21.2z"/>
	<path class="st5" d="M38.2,23.4c0.5,0.2,0.5,0.8,0.5,0.8s-0.3,0.5-0.9,0.4c-0.5-0.2-1.1-1-1.1-1S37.6,23.2,38.2,23.4z"/>
	<path class="st5" d="M37.5,25c0.6,0.1,0.7,0.8,0.7,0.8s-0.3,0.6-0.9,0.5c-0.6-0.1-1.3-0.9-1.3-0.9S36.9,24.9,37.5,25z"/>
	<path class="st5" d="M37,26.8c0.7-0.2,1,0.5,1,0.5s0,0.7-0.6,0.9c-0.6,0.2-1.7-0.3-1.7-0.3S36.3,27,37,26.8z"/>
	<path class="st5" d="M37.3,28.8c0.7-0.2,1.1,0.5,1.1,0.5s0,0.8-0.7,1c-0.7,0.2-1.9-0.3-1.9-0.3S36.5,28.9,37.3,28.8z"/>
	<path class="st5" d="M38,30.9c0.7-0.4,1.2,0.3,1.2,0.3s0.2,0.8-0.5,1.2c-0.7,0.4-2,0.1-2,0.1S37.3,31.3,38,30.9z"/>
	<path class="st5" d="M39.1,32.9c0.5-0.6,1.2-0.3,1.2-0.3s0.5,0.6,0.1,1.3c-0.5,0.6-1.7,1-1.7,1S38.6,33.5,39.1,32.9z"/>
	<path class="st5" d="M41,29.6c-0.6,0.2-0.9-0.4-0.9-0.4s0-0.7,0.5-0.8c0.6-0.2,1.5,0.2,1.5,0.2S41.6,29.5,41,29.6z"/>
	<path class="st5" d="M42.4,31c-0.5,0.4-1,0-1,0s-0.3-0.6,0.2-1c0.5-0.4,1.5-0.4,1.5-0.4S42.9,30.6,42.4,31z"/>
	<path class="st5" d="M40.6,28c-0.5,0.3-1-0.2-1-0.2s-0.2-0.6,0.4-0.9c0.5-0.3,1.6-0.1,1.6-0.1S41.2,27.7,40.6,28z"/>
	<path class="st5" d="M33,39.3c-0.5,0.6-1.2,0.2-1.2,0.2s-0.5-0.7,0-1.3c0.5-0.6,1.8-0.8,1.8-0.8S33.5,38.7,33,39.3z"/>
	<path class="st5" d="M34.8,40.2c-0.3,0.6-1,0.4-1,0.4s-0.5-0.5-0.2-1.1c0.3-0.6,1.4-1,1.4-1S35.1,39.6,34.8,40.2z"/>
	<path class="st5" d="M36.2,41.6c-0.3,0.6-0.9,0.4-0.9,0.4s-0.5-0.4-0.3-1c0.3-0.6,1.2-1.1,1.2-1.1S36.4,41,36.2,41.6z"/>
	<path class="st5" d="M40.1,26.5c-0.6,0-0.8-0.6-0.8-0.6s0.2-0.6,0.8-0.7c0.6,0,1.4,0.6,1.4,0.6S40.7,26.5,40.1,26.5z"/>
	<path class="st3" d="M30.3,42.5c0.4-0.8,1.3-0.5,1.3-0.5s0.7,0.6,0.3,1.4c-0.4,0.8-1.8,1.4-1.8,1.4S29.9,43.2,30.3,42.5z"/>
	<path class="st3" d="M32.2,44.1c0.2-0.7,1.1-0.7,1.1-0.7s0.7,0.4,0.5,1.2c-0.2,0.7-1.3,1.5-1.3,1.5S32,44.8,32.2,44.1z"/>
	<path class="st5" d="M40.3,24.8c-0.6-0.2-0.6-0.8-0.6-0.8s0.3-0.6,0.9-0.4c0.6,0.2,1.2,1,1.2,1S40.9,25,40.3,24.8z"/>
	<path class="st3" d="M45.9,25.4c0.6,0,0.7,0.7,0.7,0.7s-0.2,0.6-0.8,0.6c-0.6,0-1.4-0.7-1.4-0.7S45.3,25.4,45.9,25.4z"/>
	<path class="st3" d="M45,23.9c0.6-0.2,0.9,0.4,0.9,0.4s0.1,0.7-0.5,0.9c-0.6,0.2-1.6-0.1-1.6-0.1S44.4,24.1,45,23.9z"/>
	<path class="st5" d="M44.2,26.3c0.6,0,0.8,0.6,0.8,0.6s-0.1,0.7-0.7,0.7c-0.6,0-1.5-0.5-1.5-0.5S43.6,26.4,44.2,26.3z"/>
	<path class="st3" d="M46.1,27.2c0.6,0,0.7,0.7,0.7,0.7s-0.2,0.6-0.8,0.6c-0.6,0-1.4-0.7-1.4-0.7S45.5,27.2,46.1,27.2z"/>
	<path class="st3" d="M45.6,28.6c0.6,0.2,0.5,0.8,0.5,0.8s-0.4,0.6-0.9,0.4c-0.6-0.2-1.2-1-1.2-1S45.1,28.5,45.6,28.6z"/>
	<path class="st3" d="M44.9,30.2c0.5,0.4,0.3,1,0.3,1s-0.5,0.4-1,0.1c-0.5-0.4-0.8-1.3-0.8-1.3S44.4,29.8,44.9,30.2z"/>
	<path class="st5" d="M43.6,27.9c0.5,0.4,0.3,1,0.3,1s-0.5,0.4-1,0.1c-0.5-0.4-0.8-1.3-0.8-1.3S43.1,27.6,43.6,27.9z"/>
	<path class="st5" d="M41.5,23c-0.4,0.5-1,0.2-1,0.2s-0.4-0.5,0-1c0.4-0.5,1.4-0.7,1.4-0.7S41.9,22.6,41.5,23z"/>
	<path class="st5" d="M39.3,22.2c0.3,0.5-0.1,0.9-0.1,0.9s-0.6,0.2-0.9-0.3C38,22.4,38,21.4,38,21.4S39,21.7,39.3,22.2z"/>
	<path class="st2" d="M37.4,16.6c0.5-0.5,1.1,0,1.1,0s0.4,0.7-0.2,1.1c-0.5,0.5-1.7,0.5-1.7,0.5S36.9,17,37.4,16.6z"/>
	<path class="st2" d="M42.4,21c0.4-0.8,1.3-0.7,1.3-0.7s0.8,0.6,0.4,1.4c-0.4,0.8-1.7,1.6-1.7,1.6S42,21.8,42.4,21z"/>
	<path class="st2" d="M40.2,19.7c0.5-0.8,1.5-0.4,1.5-0.4s0.7,0.8,0.1,1.5c-0.5,0.8-2.1,1.2-2.1,1.2S39.7,20.4,40.2,19.7z"/>
	<path class="st2" d="M38.7,18.1c0.5-0.6,1.3-0.2,1.3-0.2s0.5,0.7-0.1,1.3c-0.5,0.6-1.8,0.8-1.8,0.8S38.2,18.6,38.7,18.1z"/>
	<path class="st2" d="M44.4,22.1c0.1-0.8,1-0.9,1-0.9s0.8,0.4,0.7,1.2C46,23.2,45,24.1,45,24.1S44.3,22.9,44.4,22.1z"/>
	<path class="st5" d="M40.1,45.4c0.6,0,0.8,0.6,0.8,0.6s-0.1,0.7-0.8,0.7c-0.6,0-1.5-0.6-1.5-0.6S39.5,45.4,40.1,45.4z"/>
	<path class="st3" d="M40.4,47.4c0.5-0.4,1.1,0,1.1,0s0.3,0.7-0.2,1.1C40.9,49,39.7,49,39.7,49S39.9,47.9,40.4,47.4z"/>
	<path class="st5" d="M40.5,49.1c0.5-0.3,0.9,0.2,0.9,0.2s0.2,0.6-0.3,0.9c-0.5,0.3-1.4,0.1-1.4,0.1S40,49.4,40.5,49.1z"/>
	<path class="st5" d="M39.2,46.9c0.4-0.2,0.8,0.1,0.8,0.1s0.1,0.5-0.3,0.7c-0.4,0.2-1.2,0.1-1.2,0.1S38.8,47.2,39.2,46.9z"/>
	<path class="st5" d="M42.3,50.9c0.4-0.4,0.9,0,0.9,0s0.3,0.5-0.1,0.9c-0.4,0.4-1.4,0.4-1.4,0.4S41.9,51.2,42.3,50.9z"/>
	<path class="st3" d="M42,49c0.5-0.6,1.2-0.3,1.2-0.3s0.5,0.6,0.1,1.2c-0.5,0.6-1.7,0.9-1.7,0.9S41.6,49.6,42,49z"/>
	<path class="st3" d="M43.7,50.5c0.2-0.8,1.1-0.7,1.1-0.7s0.7,0.5,0.5,1.2c-0.2,0.8-1.4,1.6-1.4,1.6S43.5,51.2,43.7,50.5z"/>
	<path class="st3" d="M45.8,51.3c0.1-0.7,0.9-0.8,0.9-0.8s0.7,0.3,0.7,1c-0.1,0.7-0.9,1.6-0.9,1.6S45.8,52,45.8,51.3z"/>
	<path class="st5" d="M47.9,51.6c0-0.7,0.7-1,0.7-1s0.8,0.1,0.8,0.9c0,0.7-0.7,1.8-0.7,1.8S48,52.3,47.9,51.6z"/>
	<path class="st5" d="M50.1,51.4c0-0.6,0.6-0.8,0.6-0.8s0.7,0.1,0.7,0.7c0,0.6-0.5,1.5-0.5,1.5S50.1,52,50.1,51.4z"/>
	<path class="st5" d="M50.6,48.4C50.5,49,49.8,49,49.8,49s-0.6-0.2-0.5-0.8c0.1-0.6,0.8-1.3,0.8-1.3S50.7,47.8,50.6,48.4z"/>
	<path class="st5" d="M52.1,48.5C52,48.9,51.5,49,51.5,49s-0.5-0.2-0.4-0.6c0.1-0.5,0.6-1,0.6-1S52.1,48,52.1,48.5z"/>
	<path class="st5" d="M48.2,46.1c-0.1,0.5-0.6,0.5-0.6,0.5s-0.5-0.2-0.4-0.6c0.1-0.5,0.6-1,0.6-1S48.3,45.7,48.2,46.1z"/>
	<path class="st5" d="M49.8,46.7c0,0.4-0.4,0.4-0.4,0.4S49,47,49,46.6c0-0.4,0.5-0.8,0.5-0.8S49.8,46.3,49.8,46.7z"/>
	<path class="st5" d="M42.2,44.7c0,0.6-0.6,0.8-0.6,0.8s-0.7-0.1-0.7-0.8c0-0.6,0.6-1.5,0.6-1.5S42.1,44.1,42.2,44.7z"/>
	<path class="st5" d="M43.5,46.2c-0.3,0.5-1,0.3-1,0.3s-0.5-0.5-0.2-1c0.3-0.5,1.3-0.9,1.3-0.9S43.9,45.7,43.5,46.2z"/>
	<path class="st5" d="M45.1,47.1c-0.3,0.6-1,0.4-1,0.4s-0.5-0.5-0.2-1.1c0.3-0.6,1.4-1,1.4-1S45.4,46.5,45.1,47.1z"/>
	<path class="st2" d="M46.9,47.7c-0.2,0.7-1,0.6-1,0.6s-0.6-0.4-0.4-1.1c0.2-0.7,1.3-1.3,1.3-1.3S47.1,47.1,46.9,47.7z"/>
	<path class="st2" d="M45.1,44.8c-0.2,0.5-0.7,0.4-0.7,0.4s-0.5-0.3-0.3-0.8c0.2-0.5,0.9-0.9,0.9-0.9S45.3,44.4,45.1,44.8z"/>
	<path class="st2" d="M46.7,45.5C46.5,46,45.9,46,45.9,46s-0.5-0.3-0.3-0.9c0.2-0.5,1-1,1-1S46.9,45,46.7,45.5z"/>
	<path class="st2" d="M43.1,44.6c-0.3,0.3-0.7,0-0.7,0s-0.2-0.4,0.1-0.7c0.3-0.3,1.1-0.3,1.1-0.3S43.5,44.3,43.1,44.6z"/>
	<path class="st2" d="M48.8,48.2c-0.2,0.7-1,0.6-1,0.6s-0.6-0.4-0.4-1.1c0.2-0.7,1.3-1.3,1.3-1.3S49,47.6,48.8,48.2z"/>
	<path class="st5" d="M64.7,13.8c-0.2,0.8-1.1,0.8-1.1,0.8s-0.8-0.4-0.6-1.2c0.2-0.8,1.3-1.6,1.3-1.6S64.9,13,64.7,13.8z"/>
	<path class="st3" d="M66.2,26.7c-0.6,0.4-1.2-0.2-1.2-0.2s-0.2-0.8,0.4-1.2c0.6-0.4,1.9-0.3,1.9-0.3S66.8,26.3,66.2,26.7z"/>
	<path class="st3" d="M65.5,24.8c-0.7,0.1-1-0.7-1-0.7s0.1-0.8,0.9-0.9c0.7-0.1,1.8,0.6,1.8,0.6S66.3,24.7,65.5,24.8z"/>
	<path class="st3" d="M65,23c-0.7,0.2-1.1-0.4-1.1-0.4s-0.1-0.8,0.6-1c0.7-0.2,1.8,0.2,1.8,0.2S65.6,22.8,65,23z"/>
	<path class="st5" d="M62.8,14.4c0.3,0.7-0.4,1.2-0.4,1.2s-0.8,0.1-1.1-0.6c-0.3-0.7,0.1-1.9,0.1-1.9S62.6,13.7,62.8,14.4z"/>
	<path class="st5" d="M60.2,20.5c0.9,0,1.1,0.9,1.1,0.9s-0.2,1-1.1,1c-0.9,0-2.1-0.9-2.1-0.9S59.3,20.6,60.2,20.5z"/>
	<path class="st5" d="M60.3,18c0.9,0.2,1,1.2,1,1.2s-0.4,0.9-1.3,0.7C59,19.8,58,18.6,58,18.6S59.4,17.8,60.3,18z"/>
	<path class="st5" d="M61.3,15.9c0.6,0.4,0.4,1.2,0.4,1.2s-0.6,0.6-1.3,0.2c-0.6-0.4-1.1-1.7-1.1-1.7S60.7,15.5,61.3,15.9z"/>
	<path class="st3" d="M64.2,15c-0.5,0.3-0.3,0.9-0.3,0.9s0.4,0.4,0.9,0.1c0.5-0.3,0.8-1.2,0.8-1.2S64.7,14.7,64.2,15z"/>
	<path class="st5" d="M65.7,20.5c-0.4,0.2-0.2,0.7-0.2,0.7s0.4,0.3,0.7,0.1c0.4-0.2,0.6-1,0.6-1S66.1,20.3,65.7,20.5z"/>
	<path class="st3" d="M63.8,19.9c-0.7,0-0.8,0.8-0.8,0.8s0.2,0.7,0.9,0.7c0.7,0,1.6-0.8,1.6-0.8S64.5,19.8,63.8,19.9z"/>
	<path class="st3" d="M63.6,18.2c-0.6-0.1-0.9,0.6-0.9,0.6s0.1,0.7,0.7,0.8c0.6,0.1,1.6-0.5,1.6-0.5S64.3,18.3,63.6,18.2z"/>
	<path class="st3" d="M63.8,16.4c-0.6,0-0.8,0.7-0.8,0.7s0.2,0.7,0.8,0.7c0.6,0,1.5-0.7,1.5-0.7S64.4,16.4,63.8,16.4z"/>
	<path class="st5" d="M86.1,34c-0.5,0-0.6-0.5-0.6-0.5s0.2-0.5,0.6-0.5c0.5,0,1.1,0.6,1.1,0.6S86.6,34,86.1,34z"/>
	<path class="st5" d="M86,32.5c-0.4,0-0.5-0.4-0.5-0.4s0.1-0.4,0.5-0.4c0.4,0,0.9,0.5,0.9,0.5S86.4,32.5,86,32.5z"/>
	<path class="st5" d="M86.1,31c-0.4,0.1-0.6-0.2-0.6-0.2s0-0.4,0.3-0.5c0.4-0.1,1,0.1,1,0.1S86.5,30.9,86.1,31z"/>
	<path class="st5" d="M85.9,35.7c-0.6-0.2-0.5-0.9-0.5-0.9s0.4-0.6,1-0.4c0.6,0.2,1.2,1.1,1.2,1.1S86.5,35.9,85.9,35.7z"/>
	<path class="st5" d="M60.9,22.8c0.7-0.4,1.3,0.3,1.3,0.3s0.2,0.9-0.6,1.2c-0.7,0.4-2.1,0.1-2.1,0.1S60.1,23.2,60.9,22.8z"/>
	<path class="st5" d="M85.2,37.3c-0.5-0.3-0.3-1-0.3-1s0.5-0.5,1-0.1c0.5,0.3,0.9,1.3,0.9,1.3S85.7,37.7,85.2,37.3z"/>
	<path class="st5" d="M84.2,38.9c-0.5-0.4-0.1-1-0.1-1s0.6-0.4,1,0.1c0.5,0.4,0.6,1.5,0.6,1.5S84.7,39.3,84.2,38.9z"/>
	<path class="st5" d="M82.9,40.3c-0.3-0.5,0.1-1,0.1-1s0.6-0.2,1,0.3c0.3,0.5,0.2,1.6,0.2,1.6S83.2,40.9,82.9,40.3z"/>
	<path class="st3" d="M36.9,14.2c-0.3,0.6-1.1,0.4-1.1,0.4s-0.5-0.5-0.2-1.1c0.3-0.6,1.4-1,1.4-1S37.2,13.6,36.9,14.2z"/>
	<path class="st5" d="M61.9,24.7c0.7-0.1,1,0.6,1,0.6s-0.1,0.7-0.7,0.8c-0.7,0.1-1.7-0.5-1.7-0.5S61.2,24.9,61.9,24.7z"/>
	<path class="st2" d="M59.1,16.5c0.7,0.1,0.7,0.9,0.7,0.9s-0.3,0.7-1,0.6c-0.7-0.1-1.4-1-1.4-1S58.4,16.4,59.1,16.5z"/>
	<path class="st2" d="M58.9,22.4c0.7,0,0.9,0.7,0.9,0.7s-0.2,0.7-0.9,0.7c-0.7,0-1.6-0.7-1.6-0.7S58.2,22.4,58.9,22.4z"/>
	<path class="st2" d="M56.6,20.8c0.8,0,1,0.8,1,0.8s-0.2,0.8-1,0.8c-0.8,0-1.9-0.9-1.9-0.9S55.8,20.8,56.6,20.8z"/>
	<path class="st2" d="M58.2,19.3c0.8,0.1,0.8,1,0.8,1s-0.4,0.8-1.1,0.7c-0.8-0.1-1.7-1.2-1.7-1.2S57.4,19.2,58.2,19.3z"/>
	<path class="st6" d="M78.6,19.2c-0.6,0-0.8,0.6-0.8,0.6s0.1,0.6,0.7,0.7c0.6,0,1.4-0.6,1.4-0.6S79.2,19.3,78.6,19.2z"/>
	<path class="st7" d="M74.7,20.1c0.6,0.7,1.5,0.2,1.5,0.2s0.5-0.8-0.1-1.5c-0.6-0.7-2.1-0.9-2.1-0.9S74.1,19.4,74.7,20.1z"/>
	<path class="st8" d="M78.2,21.2c-0.7-0.3-1.3,0.3-1.3,0.3s-0.2,0.8,0.5,1.2c0.7,0.3,2,0.1,2,0.1S78.9,21.5,78.2,21.2z"/>
	<path class="st7" d="M77.1,23.4c-0.6-0.6-1.3-0.1-1.3-0.1s-0.4,0.8,0.2,1.3c0.6,0.6,2,0.7,2,0.7S77.7,23.9,77.1,23.4z"/>
	<path class="st8" d="M75.3,25.1c-0.6-0.5-1.3-0.1-1.3-0.1s-0.4,0.8,0.2,1.3C74.7,26.9,76,27,76,27S75.8,25.7,75.3,25.1z"/>
	<path class="st6" d="M73.6,26.7c-0.4-0.7-1.2-0.5-1.2-0.5s-0.6,0.6-0.2,1.3c0.4,0.7,1.7,1.2,1.7,1.2S73.9,27.4,73.6,26.7z"/>
	<path class="st9" d="M71.7,27.8c-0.2-0.8-1.1-0.7-1.1-0.7s-0.7,0.4-0.5,1.2c0.2,0.8,1.3,1.6,1.3,1.6S71.9,28.6,71.7,27.8z"/>
	<path class="st2" d="M77.3,25.6c-0.4-0.4-1-0.1-1-0.1s-0.3,0.6,0.1,1c0.4,0.4,1.4,0.5,1.4,0.5S77.7,26,77.3,25.6z"/>
	<path class="st2" d="M78.9,23.2c-0.6-0.3-1,0.3-1,0.3s-0.1,0.7,0.5,1c0.6,0.3,1.7,0,1.7,0S79.5,23.5,78.9,23.2z"/>
	<path class="st2" d="M79.1,25.6c-0.4-0.3-0.8,0-0.8,0s-0.2,0.5,0.1,0.8c0.4,0.3,1.2,0.3,1.2,0.3S79.5,25.9,79.1,25.6z"/>
	<path class="st2" d="M75.4,27.3c-0.5-0.4-1.1-0.1-1.1-0.1s-0.3,0.6,0.1,1.1c0.5,0.4,1.6,0.6,1.6,0.6S75.9,27.7,75.4,27.3z"/>
	<path class="st2" d="M79.9,20.8c-0.5-0.2-0.8,0.3-0.8,0.3s-0.1,0.5,0.4,0.7c0.5,0.2,1.3-0.1,1.3-0.1S80.4,21,79.9,20.8z"/>
	<path class="st10" d="M73.6,22.2c0.8,0.5,1.5-0.1,1.5-0.1s0.4-0.9-0.4-1.5c-0.8-0.5-2.3-0.5-2.3-0.5S72.8,21.6,73.6,22.2z"/>
	<path class="st7" d="M71.5,23.6c0.7,0.7,1.5,0.1,1.5,0.1s0.5-0.9-0.1-1.5c-0.7-0.7-2.2-0.8-2.2-0.8S70.8,23,71.5,23.6z"/>
	<path class="st8" d="M69.2,24.6c0.3,0.8,1.2,0.7,1.2,0.7s0.7-0.5,0.4-1.3c-0.3-0.8-1.6-1.5-1.6-1.5S68.9,23.8,69.2,24.6z"/>
	<path class="st6" d="M67.2,25.3c0.1,0.7,1,0.8,1,0.8s0.7-0.4,0.6-1.1c-0.1-0.7-1.1-1.5-1.1-1.5S67.1,24.6,67.2,25.3z"/>
	<path class="st8" d="M75.5,17.7c0.4,0.7,1.3,0.5,1.3,0.5s0.6-0.6,0.2-1.3c-0.4-0.7-1.7-1.2-1.7-1.2S75.1,17,75.5,17.7z"/>
	<path class="st3" d="M80.3,30.3c0.5,0.3,0.2,0.9,0.2,0.9s-0.5,0.4-0.9,0.1C79.2,31,78.9,30,78.9,30S79.9,30,80.3,30.3z"/>
	<path class="st3" d="M79.3,31.6c0.3,0.6-0.2,1-0.2,1s-0.7,0.2-1-0.4c-0.3-0.6-0.1-1.6-0.1-1.6S79.1,31,79.3,31.6z"/>
	<path class="st3" d="M77.9,32.7c0.1,0.7-0.6,0.9-0.6,0.9s-0.7-0.1-0.8-0.8c-0.1-0.7,0.6-1.6,0.6-1.6S77.9,32,77.9,32.7z"/>
	<path class="st3" d="M76,33c0.2,0.7-0.5,1.2-0.5,1.2s-0.8,0-1.1-0.7c-0.2-0.7,0.3-1.9,0.3-1.9S75.7,32.3,76,33z"/>
	<path class="st5" d="M74,33.9c0.3,0.7-0.4,1.2-0.4,1.2s-0.8,0.1-1.1-0.6c-0.3-0.7,0-2,0-2S73.7,33.2,74,33.9z"/>
	<path class="st2" d="M63,12.2c-0.2,0.5-0.8,0.4-0.8,0.4s-0.5-0.3-0.3-0.8c0.2-0.5,1-1,1-1S63.1,11.7,63,12.2z"/>
	<path class="st2" d="M66.5,13c0,0.5-0.5,0.7-0.5,0.7s-0.6-0.1-0.6-0.7c0-0.5,0.5-1.3,0.5-1.3S66.5,12.5,66.5,13z"/>
	<path class="st2" d="M67.8,11.8c0.3,0.4-0.1,0.9-0.1,0.9s-0.6,0.2-0.9-0.2c-0.3-0.4-0.2-1.4-0.2-1.4S67.5,11.3,67.8,11.8z"/>
	<path class="st2" d="M60.1,11c-0.2,0.5-0.8,0.4-0.8,0.4s-0.4-0.4-0.2-0.9c0.2-0.5,1.1-0.9,1.1-0.9S60.3,10.5,60.1,11z"/>
	<path class="st3" d="M81.4,29.1c0.3,0.5-0.2,0.9-0.2,0.9s-0.6,0.2-0.9-0.3c-0.3-0.5-0.1-1.5-0.1-1.5S81.1,28.6,81.4,29.1z"/>
	<path class="st2" d="M43.7,14.7c-0.4,0.6-1.2,0.4-1.2,0.4s-0.6-0.6-0.2-1.2c0.4-0.6,1.6-1.1,1.6-1.1S44.2,14,43.7,14.7z"/>
	<path class="st5" d="M47.8,23.8c-0.5,0.2-0.5,0.8-0.5,0.8s0.3,0.5,0.9,0.4c0.5-0.2,1.1-1,1.1-1S48.4,23.7,47.8,23.8z"/>
	<path class="st5" d="M48.7,25.3c-0.6,0.1-0.7,0.8-0.7,0.8s0.3,0.6,0.9,0.5c0.6-0.1,1.3-0.9,1.3-0.9S49.3,25.1,48.7,25.3z"/>
	<path class="st5" d="M49.4,27c-0.7-0.2-1,0.5-1,0.5s0,0.7,0.6,0.9c0.6,0.2,1.7-0.3,1.7-0.3S50.1,27.2,49.4,27z"/>
	<path class="st5" d="M49.1,28.8c-0.7-0.2-1.1,0.5-1.1,0.5s0,0.8,0.7,1c0.7,0.2,1.9-0.3,1.9-0.3S49.8,28.9,49.1,28.8z"/>
	<path class="st5" d="M48.5,30.8c-0.7-0.4-1.2,0.3-1.2,0.3s-0.2,0.8,0.5,1.2c0.7,0.4,2,0.1,2,0.1S49.2,31.2,48.5,30.8z"/>
	<path class="st5" d="M48.2,33c-0.6-0.4-1.3,0.1-1.3,0.1s-0.3,0.8,0.3,1.2c0.6,0.4,1.9,0.3,1.9,0.3S48.8,33.4,48.2,33z"/>
	<path class="st5" d="M46.4,22.7c-0.3,0.5,0.1,0.9,0.1,0.9s0.6,0.2,0.9-0.3c0.3-0.5,0.3-1.5,0.3-1.5S46.8,22.2,46.4,22.7z"/>
	<path class="st5" d="M68.7,21.9c0.3,0.7-0.4,1.2-0.4,1.2s-0.8,0.1-1.1-0.6c-0.3-0.7,0.1-1.9,0.1-1.9S68.4,21.2,68.7,21.9z"/>
	<path class="st6" d="M70,20.5c0.4,0.6-0.1,1.2-0.1,1.2s-0.8,0.3-1.2-0.3c-0.4-0.6-0.3-1.9-0.3-1.9S69.6,19.9,70,20.5z"/>
	<path class="st2" d="M71,17.3c0.4,0.4,0.1,0.9,0.1,0.9s-0.5,0.3-0.9-0.1c-0.4-0.4-0.5-1.3-0.5-1.3S70.6,16.9,71,17.3z"/>
	<path class="st2" d="M69.5,18.5c0.2,0.5-0.3,0.9-0.3,0.9s-0.6,0.1-0.8-0.4c-0.2-0.5,0-1.4,0-1.4S69.3,18,69.5,18.5z"/>
	<path class="st5" d="M65.6,18.7c-0.6,0.1-0.8-0.5-0.8-0.5s0.1-0.6,0.7-0.7c0.6-0.1,1.4,0.5,1.4,0.5S66.2,18.7,65.6,18.7z"/>
	<path class="st5" d="M65.9,16.9c-0.6,0.1-0.8-0.5-0.8-0.5s0.1-0.6,0.7-0.7c0.6-0.1,1.4,0.5,1.4,0.5S66.5,16.9,65.9,16.9z"/>
	<path class="st5" d="M66,20.2c-0.6,0.1-0.8-0.5-0.8-0.5s0.1-0.6,0.7-0.7c0.6-0.1,1.4,0.5,1.4,0.5S66.5,20.2,66,20.2z"/>
	<path class="st8" d="M71.7,19.5c0.5,0.6,0,1.4,0,1.4s-0.8,0.4-1.3-0.3c-0.5-0.6-0.5-2.1-0.5-2.1S71.2,18.9,71.7,19.5z"/>
	<path class="st8" d="M73.4,18.2c0.5,0.6,0,1.4,0,1.4s-0.8,0.4-1.3-0.2c-0.5-0.6-0.6-2-0.6-2S72.9,17.6,73.4,18.2z"/>
	<path class="st6" d="M74.6,16.3c0.5,0.5,0.1,1.1,0.1,1.1s-0.6,0.4-1.1-0.1c-0.5-0.5-0.7-1.6-0.7-1.6S74.1,15.8,74.6,16.3z"/>
	<path class="st2" d="M81.4,33.6c-0.5-0.2-0.4-0.8-0.4-0.8s0.3-0.5,0.8-0.3c0.5,0.2,1,1,1,1S81.9,33.8,81.4,33.6z"/>
	<path class="st2" d="M81.9,32.1c-0.5-0.2-0.4-0.7-0.4-0.7s0.3-0.4,0.8-0.3c0.5,0.2,0.9,0.9,0.9,0.9S82.3,32.2,81.9,32.1z"/>
	<path class="st5" d="M82.3,30.6c-0.5,0-0.6-0.5-0.6-0.5s0.1-0.5,0.6-0.5c0.5,0,1.1,0.5,1.1,0.5S82.8,30.6,82.3,30.6z"/>
	<path class="st2" d="M80.4,35c-0.5-0.4-0.3-1-0.3-1s0.5-0.5,1-0.1c0.5,0.4,0.8,1.4,0.8,1.4S80.9,35.3,80.4,35z"/>
	<path class="st2" d="M79.1,35.9c-0.4-0.4-0.1-1-0.1-1s0.6-0.3,1,0.1c0.4,0.4,0.5,1.5,0.5,1.5S79.5,36.4,79.1,35.9z"/>
	<path class="st2" d="M77.5,36.6c-0.3-0.5,0.1-1,0.1-1s0.6-0.2,1,0.3c0.3,0.5,0.2,1.6,0.2,1.6S77.9,37.1,77.5,36.6z"/>
	<path class="st2" d="M75.9,36.9c-0.2-0.6,0.4-0.9,0.4-0.9s0.7,0,0.8,0.6c0.2,0.6-0.2,1.6-0.2,1.6S76.1,37.5,75.9,36.9z"/>
	<path class="st5" d="M79.3,28.8c0.3,0.4-0.1,0.8-0.1,0.8s-0.5,0.2-0.8-0.2c-0.3-0.4-0.3-1.3-0.3-1.3S79,28.4,79.3,28.8z"/>
	<path class="st5" d="M78,29.5c0.2,0.6-0.3,1-0.3,1S77,30.6,76.8,30c-0.2-0.6,0.1-1.6,0.1-1.6S77.7,28.9,78,29.5z"/>
	<path class="st3" d="M82.7,28.4C82.6,29,82,29,82,29s-0.6-0.3-0.4-0.8c0.1-0.6,0.9-1.2,0.9-1.2S82.9,27.9,82.7,28.4z"/>
	<path class="st3" d="M85.9,29.7c-0.1,0.4-0.6,0.4-0.6,0.4s-0.4-0.2-0.3-0.6c0.1-0.4,0.7-0.9,0.7-0.9S86,29.3,85.9,29.7z"/>
	<path class="st5" d="M76.5,30.7c0.1,0.7-0.6,1-0.6,1s-0.8,0-0.9-0.7c-0.1-0.7,0.4-1.8,0.4-1.8S76.4,30,76.5,30.7z"/>
	<path class="st3" d="M84.2,31.2c0.5,0.1,0.5,0.6,0.5,0.6s-0.2,0.5-0.7,0.4c-0.5-0.1-1-0.7-1-0.7S83.7,31.1,84.2,31.2z"/>
	<path class="st3" d="M83.8,32.6c0.5,0.1,0.5,0.7,0.5,0.7s-0.3,0.5-0.8,0.3c-0.5-0.1-1-0.8-1-0.8S83.3,32.4,83.8,32.6z"/>
	<path class="st3" d="M82.7,31.6c0.4,0.1,0.4,0.6,0.4,0.6s-0.2,0.4-0.6,0.3c-0.4-0.1-0.8-0.7-0.8-0.7S82.3,31.5,82.7,31.6z"/>
	<path class="st3" d="M81.9,32.5c0.4,0.1,0.4,0.6,0.4,0.6s-0.2,0.4-0.6,0.3c-0.4-0.1-0.8-0.7-0.8-0.7S81.5,32.4,81.9,32.5z"/>
	<path class="st3" d="M81.2,33.4c0.4,0.1,0.4,0.6,0.4,0.6s-0.2,0.4-0.6,0.3c-0.4-0.1-0.8-0.7-0.8-0.7S80.8,33.3,81.2,33.4z"/>
	<path class="st3" d="M83.4,30.2c0.4,0.1,0.4,0.6,0.4,0.6s-0.2,0.4-0.6,0.3c-0.4-0.1-0.8-0.7-0.8-0.7S83,30.1,83.4,30.2z"/>
	<path class="st3" d="M82.6,35.5c0.3,0.5-0.2,1-0.2,1s-0.7,0.2-1-0.4c-0.3-0.5-0.1-1.6-0.1-1.6S82.3,35,82.6,35.5z"/>
	<path class="st3" d="M81.2,36.5c0.4,0.5,0,1,0,1s-0.6,0.3-1-0.2c-0.4-0.5-0.5-1.5-0.5-1.5S80.8,36,81.2,36.5z"/>
	<path class="st3" d="M79.7,37.4c0.2,0.6-0.4,1-0.4,1s-0.7,0.1-0.9-0.5c-0.2-0.6,0.2-1.6,0.2-1.6S79.5,36.8,79.7,37.4z"/>
	<path class="st3" d="M83.3,33.9c0.5,0.3,0.3,0.9,0.3,0.9s-0.4,0.4-0.9,0.2c-0.5-0.3-0.9-1.2-0.9-1.2S82.8,33.6,83.3,33.9z"/>
	<path class="st3" d="M84.9,30c0.4,0.3,0.2,0.7,0.2,0.7s-0.4,0.3-0.8,0.1c-0.4-0.3-0.6-1-0.6-1S84.5,29.7,84.9,30z"/>
	<path class="st3" d="M44.7,12.4c0.9,0.1,1,1.1,1,1.1s-0.4,0.9-1.3,0.8c-0.9-0.1-2-1.2-2-1.2S43.8,12.3,44.7,12.4z"/>
	<path class="st5" d="M42.8,10.7c0.8,0.2,0.8,1.1,0.8,1.1s-0.5,0.8-1.2,0.6c-0.8-0.2-1.6-1.4-1.6-1.4S42.1,10.4,42.8,10.7z"/>
	<g>
		<path class="st5" d="M71,14.3c-0.5,0-0.7-0.6-0.7-0.6s0.2-0.6,0.7-0.5c0.5,0,1.2,0.6,1.2,0.6S71.5,14.3,71,14.3z"/>
		<path class="st5" d="M70,15.6c-0.5-0.2-0.4-0.8-0.4-0.8s0.3-0.5,0.8-0.3c0.5,0.2,1,1,1,1S70.5,15.8,70,15.6z"/>
		<path class="st4" d="M67.6,18.5l-0.3-0.6c0,0,0.6-3.1,2.9-4.6c0,0-2.2,2.3-2.3,4.6L67.6,18.5z"/>
		<path class="st3" d="M68.4,13.7c0.4,0.4,0,0.9,0,0.9s-0.5,0.3-0.9-0.1c-0.4-0.4-0.4-1.3-0.4-1.3S68.1,13.3,68.4,13.7z"/>
		<path class="st3" d="M69.5,12.6c0.3,0.5-0.2,0.9-0.2,0.9s-0.6,0.2-0.8-0.3c-0.3-0.5-0.1-1.4-0.1-1.4S69.3,12.1,69.5,12.6z"/>
		<path class="st3" d="M67.6,15c0.5,0.6,0.1,1.2,0.1,1.2s-0.7,0.4-1.2-0.2c-0.5-0.6-0.6-1.8-0.6-1.8S67.1,14.5,67.6,15z"/>
		<path class="st5" d="M69.3,17.3c-0.6-0.2-0.6-1-0.6-1s0.4-0.6,1.1-0.4c0.6,0.2,1.3,1.3,1.3,1.3S70,17.5,69.3,17.3z"/>
	</g>
	<g>
		<path class="st5" d="M80.6,23.5c0.3,0.3,0.7,0,0.7,0s0.2-0.4-0.1-0.6c-0.3-0.3-1-0.3-1-0.3S80.3,23.2,80.6,23.5z"/>
		<path class="st5" d="M80.5,24.7c0.4,0.2,0.6-0.2,0.6-0.2s0.1-0.4-0.3-0.6c-0.4-0.2-1,0-1,0S80.1,24.5,80.5,24.7z"/>
		<path class="st4" d="M80.3,27.4l0.4-0.2c0,0,1.3-1.9,0.8-4c0,0,0,2.3-1.2,3.6L80.3,27.4z"/>
		<path class="st3" d="M82.3,24.5c-0.4,0-0.5,0.5-0.5,0.5s0.1,0.4,0.5,0.4c0.4,0,0.9-0.5,0.9-0.5S82.7,24.5,82.3,24.5z"/>
		<path class="st3" d="M82.3,23.3c-0.4,0.1-0.4,0.5-0.4,0.5s0.2,0.4,0.6,0.3c0.4-0.1,0.8-0.7,0.8-0.7S82.6,23.2,82.3,23.3z"/>
		<path class="st3" d="M82.1,25.6c-0.6,0-0.7,0.6-0.7,0.6s0.2,0.6,0.7,0.5c0.6,0,1.3-0.7,1.3-0.7S82.6,25.6,82.1,25.6z"/>
		<path class="st5" d="M80,25.9c0.5,0.2,0.8-0.2,0.8-0.2s0.1-0.6-0.4-0.8c-0.5-0.2-1.3,0-1.3,0S79.5,25.7,80,25.9z"/>
	</g>
	<path class="st11" d="M74.9,15.9c0.2,0.6-0.4,0.9-0.4,0.9s-0.6,0-0.8-0.5c-0.2-0.6,0.2-1.5,0.2-1.5S74.7,15.4,74.9,15.9z"/>
	<path class="st5" d="M55.3,10.6c0.4,0.3,0.8-0.1,0.8-0.1s0.2-0.5-0.2-0.8c-0.4-0.3-1.2-0.2-1.2-0.2S54.9,10.4,55.3,10.6z"/>
	<path class="st2" d="M53.2,10.5c0.4,0.3,0.8-0.1,0.8-0.1s0.2-0.5-0.2-0.8c-0.4-0.3-1.2-0.2-1.2-0.2S52.9,10.3,53.2,10.5z"/>
	<path class="st5" d="M55.1,12.5c0.6,0.2,1-0.4,1-0.4s0-0.7-0.6-0.9c-0.6-0.2-1.6,0.2-1.6,0.2S54.5,12.3,55.1,12.5z"/>
	<path class="st4" d="M55.3,16.9l0.7-0.4c0,0,1.6-3.3,0.5-6.4c0,0,0.5,3.6-1,6L55.3,16.9z"/>
	<path class="st3" d="M57.9,11.8c-0.6,0.1-0.6,0.8-0.6,0.8s0.3,0.6,0.9,0.5c0.6-0.1,1.3-1,1.3-1S58.5,11.7,57.9,11.8z"/>
	<path class="st3" d="M57.5,10.1c-0.5,0.2-0.4,0.8-0.4,0.8s0.4,0.5,0.8,0.2c0.5-0.2,0.9-1,0.9-1S58,9.9,57.5,10.1z"/>
	<path class="st3" d="M57.8,13.7c-0.9,0.2-0.9,1.1-0.9,1.1s0.4,0.9,1.3,0.7c0.9-0.2,1.9-1.3,1.9-1.3S58.6,13.5,57.8,13.7z"/>
	<path class="st5" d="M54.6,14.6c0.8,0.2,1.2-0.5,1.2-0.5s0-0.9-0.8-1.1c-0.8-0.2-2.1,0.3-2.1,0.3S53.8,14.3,54.6,14.6z"/>
	<g>
		<path class="st5" d="M68.4,34.4c-0.3-0.5,0.1-1,0.1-1s0.6-0.2,1,0.3c0.4,0.5,0.3,1.6,0.3,1.6S68.7,34.9,68.4,34.4z"/>
		<path class="st5" d="M66.5,34.4c-0.2-0.6,0.4-0.9,0.4-0.9s0.7,0,0.9,0.6c0.2,0.6-0.3,1.6-0.3,1.6S66.7,35,66.5,34.4z"/>
		<path class="st4" d="M60.4,34.8l0.4-0.6c0,0,3.5-2.2,8.2-1.1c0,0-5.1-0.5-8.4,2L60.4,34.8z"/>
		<path class="st3" d="M67.2,31.6c-0.1,0.6-0.8,0.6-0.8,0.6s-0.6-0.3-0.5-0.9c0.1-0.6,1-1.3,1-1.3S67.4,31,67.2,31.6z"/>
		<path class="st3" d="M69,31.9c-0.3,0.6-0.9,0.4-0.9,0.4s-0.5-0.4-0.3-1c0.3-0.6,1.2-1.1,1.2-1.1S69.3,31.3,69,31.9z"/>
		<path class="st3" d="M70.3,33.1c-0.6,0.3-1-0.3-1-0.3s-0.1-0.7,0.4-0.9c0.6-0.3,1.6,0,1.6,0S70.8,32.8,70.3,33.1z"/>
		<path class="st3" d="M65.4,31.7c-0.2,0.9-1.1,0.9-1.1,0.9s-0.9-0.4-0.7-1.3c0.2-0.9,1.3-1.8,1.3-1.8S65.6,30.8,65.4,31.7z"/>
		<path class="st5" d="M64.5,34.8c-0.2-0.8,0.6-1.2,0.6-1.2s0.9,0,1.1,0.8c0.2,0.8-0.3,2.1-0.3,2.1S64.7,35.6,64.5,34.8z"/>
	</g>
	<g>
		<path class="st5" d="M81.1,45.3c-0.3-0.5,0.1-0.9,0.1-0.9s0.6-0.2,0.8,0.3c0.3,0.5,0.2,1.4,0.2,1.4S81.4,45.7,81.1,45.3z"/>
		<path class="st5" d="M79.5,45.1c-0.1-0.5,0.4-0.8,0.4-0.8s0.6,0,0.7,0.6c0.1,0.5-0.3,1.4-0.3,1.4S79.6,45.7,79.5,45.1z"/>
		<path class="st2" d="M79.3,46.7c-0.1-0.4,0.3-0.5,0.3-0.5s0.4,0,0.5,0.4c0.1,0.4-0.2,0.9-0.2,0.9S79.4,47.1,79.3,46.7z"/>
		<path class="st2" d="M77.8,47.4c-0.3-0.3,0-0.7,0-0.7s0.4-0.2,0.7,0.1c0.3,0.3,0.3,1,0.3,1S78,47.7,77.8,47.4z"/>
		<path class="st4" d="M69.2,48.4v-0.3c-0.4,0.3,6.4-5.9,12.4-3.9c0,0-5.7-1.5-12,5.2L69.2,48.4z"/>
		<path class="st3" d="M80.2,42.8c-0.1,0.5-0.7,0.5-0.7,0.5S79,43,79.1,42.5c0.1-0.5,0.9-1.1,0.9-1.1S80.4,42.3,80.2,42.8z"/>
		<path class="st5" d="M77.5,41.2c-0.1,0.5-0.7,0.5-0.7,0.5s-0.5-0.3-0.4-0.8c0.1-0.5,0.9-1.1,0.9-1.1S77.6,40.6,77.5,41.2z"/>
		<path class="st5" d="M79.7,41.1c-0.1,0.4-0.5,0.4-0.5,0.4s-0.4-0.2-0.3-0.6c0.1-0.4,0.7-0.8,0.7-0.8S79.8,40.7,79.7,41.1z"/>
		<path class="st5" d="M81.2,41.6c-0.1,0.3-0.4,0.3-0.4,0.3s-0.3-0.2-0.2-0.5c0.1-0.3,0.5-0.6,0.5-0.6S81.3,41.3,81.2,41.6z"/>
		<path class="st3" d="M81.8,43.1c-0.3,0.5-0.8,0.3-0.8,0.3s-0.4-0.4-0.2-0.9c0.3-0.5,1.1-0.8,1.1-0.8S82,42.7,81.8,43.1z"/>
		<path class="st3" d="M78.7,42.8c-0.2,0.7-1,0.7-1,0.7s-0.7-0.4-0.5-1.1c0.2-0.7,1.2-1.5,1.2-1.5S78.8,42.1,78.7,42.8z"/>
		<path class="st3" d="M76.6,42.9c0,0.8-0.8,1-0.8,1S75,43.7,75,42.9c0-0.8,0.8-1.8,0.8-1.8S76.6,42.1,76.6,42.9z"/>
		<path class="st3" d="M74.6,43.5c0.3,0.7-0.4,1.2-0.4,1.2s-0.8,0.1-1.1-0.6c-0.3-0.7,0.1-1.9,0.1-1.9S74.3,42.8,74.6,43.5z"/>
		<path class="st5" d="M77.7,45.5c-0.1-0.7,0.5-1,0.5-1s0.8,0,0.9,0.7c0.1,0.7-0.4,1.7-0.4,1.7S77.9,46.1,77.7,45.5z"/>
		<path class="st5" d="M75.9,46.1c-0.2-0.7,0.4-1.1,0.4-1.1s0.8-0.1,1,0.6c0.2,0.7-0.2,1.8-0.2,1.8S76.1,46.8,75.9,46.1z"/>
		<path class="st5" d="M74.2,46.9c-0.1-0.7,0.5-1,0.5-1s0.8,0,0.9,0.7c0.1,0.7-0.4,1.7-0.4,1.7S74.4,47.6,74.2,46.9z"/>
	</g>
	<path class="st5" d="M26.8,35.3c-0.1,0.8-1,0.9-1,0.9s-0.8-0.3-0.7-1.1c0.1-0.8,1.1-1.7,1.1-1.7S26.9,34.5,26.8,35.3z"/>
	<path class="st5" d="M29.1,36.1c-0.2,0.8-1.1,0.8-1.1,0.8s-0.8-0.4-0.6-1.2c0.2-0.8,1.3-1.6,1.3-1.6S29.3,35.3,29.1,36.1z"/>
	<path class="st5" d="M31,38.1c-0.7,0.6-1.5,0-1.5,0s-0.4-0.9,0.3-1.5c0.7-0.6,2.2-0.6,2.2-0.6S31.7,37.5,31,38.1z"/>
	<g>
		<path class="st5" d="M52.2,28.3c0.3-0.5-0.1-0.9-0.1-0.9s-0.6-0.2-0.8,0.3c-0.3,0.5-0.2,1.4-0.2,1.4S52,28.8,52.2,28.3z"/>
		<path class="st5" d="M53.8,28.2c0.1-0.5-0.4-0.8-0.4-0.8s-0.6,0-0.7,0.6c-0.1,0.5,0.3,1.4,0.3,1.4S53.7,28.8,53.8,28.2z"/>
		<path class="st2" d="M54,29.8c0.1-0.4-0.3-0.5-0.3-0.5s-0.4,0-0.5,0.4c-0.1,0.4,0.2,0.9,0.2,0.9S53.9,30.1,54,29.8z"/>
		<path class="st2" d="M55.6,30.5c0.3-0.3,0-0.7,0-0.7s-0.4-0.2-0.7,0.1c-0.3,0.3-0.3,1-0.3,1S55.3,30.8,55.6,30.5z"/>
		<path class="st4" d="M62,30.4v-0.3c0.4,0.3-4.9-4.6-10.3-2.9c0,0,4.7-1.5,9.9,4.1L62,30.4z"/>
		<path class="st3" d="M53.1,25.9c0.1,0.5,0.7,0.5,0.7,0.5s0.5-0.3,0.4-0.8c-0.1-0.5-0.9-1.1-0.9-1.1S52.9,25.4,53.1,25.9z"/>
		<path class="st5" d="M55.9,24.2c0.1,0.5,0.7,0.5,0.7,0.5s0.5-0.3,0.4-0.8c-0.1-0.5-0.9-1.1-0.9-1.1S55.7,23.7,55.9,24.2z"/>
		<path class="st5" d="M53.6,24.2c0.1,0.4,0.5,0.4,0.5,0.4s0.4-0.2,0.3-0.6c-0.1-0.4-0.7-0.8-0.7-0.8S53.5,23.8,53.6,24.2z"/>
		<path class="st5" d="M52.1,24.7c0.1,0.3,0.4,0.3,0.4,0.3s0.3-0.2,0.2-0.5c-0.1-0.3-0.5-0.6-0.5-0.6S52.1,24.4,52.1,24.7z"/>
		<path class="st3" d="M51.6,26.2c0.3,0.5,0.8,0.3,0.8,0.3s0.4-0.4,0.2-0.9c-0.3-0.5-1.1-0.8-1.1-0.8S51.3,25.8,51.6,26.2z"/>
		<path class="st3" d="M54.7,25.9c0.2,0.7,1,0.7,1,0.7s0.7-0.4,0.5-1.1C56,24.7,55,24,55,24S54.5,25.1,54.7,25.9z"/>
		<path class="st3" d="M56.7,26c0,0.8,0.8,1,0.8,1s0.8-0.2,0.8-0.9c0-0.8-0.8-1.8-0.8-1.8S56.8,25.2,56.7,26z"/>
		<path class="st3" d="M58.7,26.5c-0.3,0.7,0.4,1.2,0.4,1.2s0.8,0.1,1.1-0.6c0.3-0.7-0.1-1.9-0.1-1.9S59,25.8,58.7,26.5z"/>
		<path class="st5" d="M55.6,28.5c0.1-0.7-0.5-1-0.5-1s-0.8,0-0.9,0.7C54,28.9,54.5,30,54.5,30S55.5,29.2,55.6,28.5z"/>
		<path class="st5" d="M57.4,29.2c0.2-0.7-0.4-1.1-0.4-1.1s-0.8-0.1-1,0.6c-0.2,0.7,0.2,1.8,0.2,1.8S57.2,29.8,57.4,29.2z"/>
		<path class="st5" d="M59.1,30c0.1-0.7-0.5-1-0.5-1s-0.8,0-0.9,0.7c-0.1,0.7,0.4,1.7,0.4,1.7S58.9,30.6,59.1,30z"/>
	</g>
	<g>
		<path class="st3" d="M54.2,32.1c-0.3,0.5-0.8,0.3-0.8,0.3s-0.4-0.4-0.1-0.9c0.3-0.5,1.2-0.8,1.2-0.8S54.5,31.7,54.2,32.1z"/>
		<path class="st3" d="M54.8,33.6c-0.4,0.3-0.9,0-0.9,0s-0.2-0.5,0.2-0.9c0.4-0.3,1.3-0.3,1.3-0.3S55.3,33.2,54.8,33.6z"/>
		<path class="st5" d="M56.3,33c-0.3,0.2-0.6,0-0.6,0s-0.2-0.4,0.1-0.6c0.3-0.2,0.9-0.2,0.9-0.2S56.6,32.8,56.3,33z"/>
		<path class="st5" d="M57.6,34.1c-0.2,0.4-0.6,0.3-0.6,0.3s-0.4-0.3-0.2-0.6c0.2-0.4,0.8-0.7,0.8-0.7S57.8,33.7,57.6,34.1z"/>
		<path class="st4" d="M62.4,41.3l-0.3,0.2c0.4,0.2-8.2-3-9.1-9.3c0,0,1.3,5.7,10.1,8.4L62.4,41.3z"/>
		<path class="st3" d="M52.4,34c0.5-0.1,0.8,0.4,0.8,0.4s0,0.6-0.6,0.7c-0.5,0.1-1.3-0.3-1.3-0.3S51.9,34.1,52.4,34z"/>
		<path class="st5" d="M52.2,37.2c0.5-0.1,0.8,0.4,0.8,0.4s0,0.6-0.6,0.7c-0.5,0.1-1.3-0.3-1.3-0.3S51.7,37.3,52.2,37.2z"/>
		<path class="st5" d="M51.1,35.2c0.4-0.1,0.6,0.3,0.6,0.3s0,0.4-0.4,0.5c-0.4,0.1-1-0.2-1-0.2S50.7,35.3,51.1,35.2z"/>
		<path class="st5" d="M50.9,33.7c0.3-0.1,0.5,0.2,0.5,0.2s0,0.3-0.3,0.4c-0.3,0.1-0.8-0.2-0.8-0.2S50.6,33.7,50.9,33.7z"/>
		<path class="st3" d="M52,32.5c0.5,0,0.7,0.6,0.7,0.6s-0.2,0.6-0.7,0.6c-0.5,0-1.2-0.6-1.2-0.6S51.5,32.4,52,32.5z"/>
		<path class="st3" d="M53.1,35.4c0.7-0.2,1.1,0.6,1.1,0.6s0,0.8-0.8,1c-0.7,0.2-1.9-0.4-1.9-0.4S52.4,35.5,53.1,35.4z"/>
		<path class="st3" d="M54.2,37.2c0.7-0.4,1.2,0.2,1.2,0.2s0.2,0.8-0.5,1.2c-0.7,0.4-1.9,0.1-1.9,0.1S53.5,37.5,54.2,37.2z"/>
		<path class="st3" d="M55.6,38.7c0.5-0.6,1.2-0.2,1.2-0.2s0.5,0.7,0,1.2c-0.5,0.6-1.8,0.8-1.8,0.8S55.1,39.3,55.6,38.7z"/>
		<path class="st3" d="M55.9,35c-0.5,0.4-1.1,0-1.1,0s-0.3-0.7,0.2-1.1c0.5-0.4,1.7-0.4,1.7-0.4S56.5,34.6,55.9,35z"/>
		<path class="st3" d="M57.3,36.3c-0.5,0.5-1.1,0.1-1.1,0.1s-0.4-0.6,0.1-1.1c0.5-0.5,1.7-0.7,1.7-0.7S57.8,35.8,57.3,36.3z"/>
		<path class="st3" d="M58.8,37.5c-0.5,0.4-1.1,0-1.1,0s-0.3-0.7,0.2-1.1c0.5-0.4,1.7-0.4,1.7-0.4S59.3,37,58.8,37.5z"/>
	</g>
	<g>
		<path class="st5" d="M39.1,38.7c0.2-0.4-0.1-0.8-0.1-0.8s-0.5-0.1-0.7,0.3c-0.2,0.4-0.1,1.2-0.1,1.2S38.9,39.1,39.1,38.7z"/>
		<path class="st5" d="M40.5,38.6c0.1-0.5-0.4-0.7-0.4-0.7s-0.5,0-0.6,0.5c-0.1,0.5,0.3,1.2,0.3,1.2S40.4,39,40.5,38.6z"/>
		<path class="st2" d="M40.6,39.9c0.1-0.3-0.2-0.5-0.2-0.5s-0.4,0-0.4,0.3c-0.1,0.3,0.2,0.8,0.2,0.8S40.6,40.2,40.6,39.9z"/>
		<path class="st2" d="M42,40.5c0.2-0.3,0-0.6,0-0.6s-0.3-0.2-0.6,0.1c-0.2,0.3-0.2,0.9-0.2,0.9S41.8,40.8,42,40.5z"/>
		<path class="st4" d="M49.3,41.4v-0.3c0.3,0.2-5.5-5.1-10.6-3.4c0,0,4.9-1.3,10.3,4.5L49.3,41.4z"/>
		<path class="st3" d="M39.9,36.6C40,37,40.5,37,40.5,37s0.4-0.3,0.3-0.7c-0.1-0.4-0.8-0.9-0.8-0.9S39.7,36.1,39.9,36.6z"/>
		<path class="st5" d="M42.2,35.1c0.1,0.4,0.6,0.4,0.6,0.4s0.4-0.3,0.3-0.7c-0.1-0.4-0.8-0.9-0.8-0.9S42.1,34.7,42.2,35.1z"/>
		<path class="st5" d="M40.3,35.1c0.1,0.3,0.5,0.3,0.5,0.3s0.3-0.2,0.2-0.5c-0.1-0.3-0.6-0.7-0.6-0.7S40.2,34.8,40.3,35.1z"/>
		<path class="st5" d="M39,35.5c0.1,0.3,0.4,0.3,0.4,0.3s0.3-0.1,0.2-0.4c-0.1-0.3-0.4-0.5-0.4-0.5S39,35.3,39,35.5z"/>
		<path class="st3" d="M38.5,36.9c0.2,0.4,0.7,0.3,0.7,0.3s0.4-0.3,0.2-0.7c-0.2-0.4-0.9-0.7-0.9-0.7S38.3,36.4,38.5,36.9z"/>
		<path class="st3" d="M41.2,36.5c0.2,0.6,0.9,0.6,0.9,0.6s0.6-0.3,0.4-1c-0.2-0.6-1.1-1.3-1.1-1.3S41,35.9,41.2,36.5z"/>
		<path class="st3" d="M43,36.6c0,0.6,0.7,0.8,0.7,0.8s0.7-0.2,0.7-0.8c0-0.6-0.6-1.5-0.6-1.5S43,36,43,36.6z"/>
		<path class="st3" d="M44.7,37.1c-0.2,0.6,0.3,1,0.3,1s0.7,0.1,0.9-0.5c0.2-0.6-0.1-1.7-0.1-1.7S44.9,36.5,44.7,37.1z"/>
		<path class="st5" d="M42,38.8c0.1-0.6-0.5-0.9-0.5-0.9s-0.7,0-0.8,0.6c-0.1,0.6,0.3,1.5,0.3,1.5S41.9,39.4,42,38.8z"/>
		<path class="st5" d="M43.6,39.4c0.2-0.6-0.3-0.9-0.3-0.9s-0.6-0.1-0.8,0.5c-0.2,0.6,0.1,1.5,0.1,1.5S43.4,40,43.6,39.4z"/>
		<path class="st5" d="M45,40.1c0.1-0.6-0.5-0.9-0.5-0.9s-0.7,0-0.8,0.6c-0.1,0.6,0.3,1.5,0.3,1.5S44.9,40.6,45,40.1z"/>
	</g>
	<g>
		<path class="st5" d="M70.2,38.7c-0.5,0-0.7-0.6-0.7-0.6s0.1-0.6,0.7-0.6c0.5,0,1.3,0.6,1.3,0.6S70.7,38.7,70.2,38.7z"/>
		<path class="st5" d="M69.3,40c-0.5-0.2-0.5-0.8-0.5-0.8s0.3-0.5,0.8-0.3c0.5,0.2,1,1,1,1S69.8,40.2,69.3,40z"/>
		<path class="st2" d="M70.5,41c-0.4-0.1-0.3-0.5-0.3-0.5s0.2-0.3,0.6-0.2c0.4,0.1,0.7,0.7,0.7,0.7S70.9,41.1,70.5,41z"/>
		<path class="st2" d="M70.3,42.7c-0.4,0.1-0.6-0.4-0.6-0.4s0-0.4,0.4-0.5c0.4-0.1,1,0.3,1,0.3S70.7,42.6,70.3,42.7z"/>
		<path class="st4" d="M66.8,50.5l-0.3-0.2c0,0.5-1.8-8.5,3-12.7c0,0-4.2,4.1-1.7,13L66.8,50.5z"/>
		<path class="st3" d="M67.6,38.2c0.4,0.4,0.1,0.9,0.1,0.9s-0.5,0.3-0.9-0.1c-0.4-0.4-0.5-1.3-0.5-1.3S67.3,37.8,67.6,38.2z"/>
		<path class="st5" d="M64.8,39.7c0.4,0.4,0.1,0.9,0.1,0.9s-0.5,0.3-0.9-0.1c-0.4-0.4-0.5-1.3-0.5-1.3S64.5,39.3,64.8,39.7z"/>
		<path class="st5" d="M65.9,37.8c0.3,0.3,0,0.7,0,0.7s-0.4,0.2-0.7-0.1c-0.3-0.3-0.3-1-0.3-1S65.6,37.5,65.9,37.8z"/>
		<path class="st5" d="M67.1,36.8c0.2,0.2,0,0.5,0,0.5s-0.3,0.2-0.5-0.1c-0.2-0.2-0.3-0.8-0.3-0.8S66.9,36.5,67.1,36.8z"/>
		<path class="st3" d="M68.7,37c0.3,0.5-0.1,0.9-0.1,0.9s-0.6,0.2-0.8-0.3c-0.3-0.5-0.2-1.4-0.2-1.4S68.5,36.6,68.7,37z"/>
		<path class="st3" d="M66.8,39.5c0.5,0.5,0.1,1.2,0.1,1.2s-0.7,0.4-1.2-0.1c-0.5-0.5-0.7-1.8-0.7-1.8S66.3,39,66.8,39.5z"/>
		<path class="st3" d="M65.9,41.4c0.7,0.4,0.4,1.2,0.4,1.2s-0.6,0.6-1.2,0.2c-0.7-0.4-1.2-1.6-1.2-1.6S65.2,41,65.9,41.4z"/>
		<path class="st3" d="M65.3,43.4c0.7,0.1,0.8,0.9,0.8,0.9s-0.3,0.8-1.1,0.6c-0.7-0.1-1.6-1.1-1.6-1.1S64.6,43.2,65.3,43.4z"/>
		<path class="st5" d="M68.6,41.7c-0.7-0.2-0.6-1-0.6-1s0.4-0.6,1.1-0.4c0.7,0.2,1.3,1.2,1.3,1.2S69.3,41.9,68.6,41.7z"/>
		<path class="st5" d="M68.3,43.6c-0.7-0.1-0.7-0.9-0.7-0.9s0.3-0.7,1-0.5c0.7,0.1,1.4,1.1,1.4,1.1S68.9,43.7,68.3,43.6z"/>
		<path class="st5" d="M68.1,45.4c-0.7-0.2-0.6-1-0.6-1s0.4-0.6,1.1-0.4c0.7,0.2,1.3,1.2,1.3,1.2S68.7,45.7,68.1,45.4z"/>
	</g>
	<g>
		<path class="st5" d="M59.2,48.7c-0.2,0.6-0.9,0.5-0.9,0.5s-0.5-0.4-0.3-1c0.2-0.6,1.2-1.1,1.2-1.1S59.4,48.1,59.2,48.7z"/>
		<path class="st5" d="M60.2,50.2c-0.4,0.5-1,0.2-1,0.2s-0.4-0.6,0-1c0.4-0.5,1.5-0.7,1.5-0.7S60.6,49.8,60.2,50.2z"/>
		<path class="st4" d="M64.5,55.5l-0.7,0.1c0,0-4.4-2.1-6-6.6c0,0,2.4,4.6,6.3,5.9L64.5,55.5z"/>
		<path class="st3" d="M57.5,51.2c0.6-0.2,1,0.3,1,0.3s0.1,0.7-0.5,0.9c-0.6,0.2-1.6-0.1-1.6-0.1S56.9,51.4,57.5,51.2z"/>
		<path class="st3" d="M56.7,49.5c0.6-0.1,0.9,0.5,0.9,0.5s-0.1,0.7-0.7,0.8c-0.6,0.1-1.6-0.4-1.6-0.4S56.1,49.6,56.7,49.5z"/>
		<path class="st3" d="M57.1,47.8c0.5,0.3,0.3,1,0.3,1s-0.5,0.5-1,0.2c-0.5-0.3-0.9-1.3-0.9-1.3S56.5,47.5,57.1,47.8z"/>
		<path class="st3" d="M58.6,52.7c0.8-0.3,1.4,0.5,1.4,0.5s0.1,1-0.7,1.3c-0.8,0.3-2.3-0.1-2.3-0.1S57.8,53,58.6,52.7z"/>
		<path class="st5" d="M61.7,51.7c-0.5,0.6-1.3,0.2-1.3,0.2s-0.5-0.7,0-1.3c0.5-0.6,1.9-0.9,1.9-0.9S62.3,51.1,61.7,51.7z"/>
	</g>
	<g>
		<path class="st5" d="M78.5,50.3c-0.6,0-0.8,0.6-0.8,0.6s0.1,0.7,0.8,0.7c0.6,0,1.5-0.6,1.5-0.6S79.1,50.3,78.5,50.3z"/>
		<path class="st3" d="M78.2,52.4c-0.5-0.4-1.1,0-1.1,0s-0.3,0.7,0.2,1.1c0.5,0.4,1.7,0.5,1.7,0.5S78.7,52.8,78.2,52.4z"/>
		<path class="st5" d="M78.1,54.1c-0.5-0.3-0.9,0.2-0.9,0.2s-0.2,0.6,0.3,0.9c0.5,0.3,1.4,0.1,1.4,0.1S78.6,54.3,78.1,54.1z"/>
		<path class="st5" d="M79.4,51.9C79,51.6,78.6,52,78.6,52s-0.1,0.5,0.3,0.7c0.4,0.2,1.2,0.1,1.2,0.1S79.8,52.1,79.4,51.9z"/>
		<path class="st5" d="M76.3,55.8c-0.4-0.4-0.9,0-0.9,0s-0.3,0.5,0.1,0.9c0.4,0.4,1.4,0.4,1.4,0.4S76.7,56.2,76.3,55.8z"/>
		<path class="st3" d="M76.6,54c-0.5-0.6-1.2-0.3-1.2-0.3s-0.5,0.6-0.1,1.2c0.5,0.6,1.7,0.9,1.7,0.9S77.1,54.6,76.6,54z"/>
		<path class="st3" d="M74.9,55.4c-0.2-0.8-1.1-0.7-1.1-0.7s-0.7,0.5-0.5,1.2c0.2,0.8,1.4,1.6,1.4,1.6S75.1,56.2,74.9,55.4z"/>
		<path class="st3" d="M72.8,56.2c-0.1-0.7-0.9-0.8-0.9-0.8s-0.7,0.3-0.7,1c0.1,0.7,0.9,1.6,0.9,1.6S72.8,57,72.8,56.2z"/>
		<path class="st5" d="M70.7,56.5c0-0.7-0.7-1-0.7-1s-0.8,0.1-0.8,0.9c0,0.7,0.7,1.8,0.7,1.8S70.7,57.2,70.7,56.5z"/>
		<path class="st5" d="M68.5,56.4c0-0.6-0.6-0.8-0.6-0.8s-0.7,0.1-0.7,0.7c0,0.6,0.5,1.5,0.5,1.5S68.5,57,68.5,56.4z"/>
		<path class="st5" d="M68,53.3c0.1,0.6,0.7,0.7,0.7,0.7s0.6-0.2,0.5-0.8c-0.1-0.6-0.8-1.3-0.8-1.3S68,52.7,68,53.3z"/>
		<path class="st5" d="M70.4,51.1c0.1,0.5,0.6,0.5,0.6,0.5s0.5-0.2,0.4-0.6c-0.1-0.5-0.6-1-0.6-1S70.3,50.6,70.4,51.1z"/>
		<path class="st5" d="M68.8,51.6c0,0.4,0.4,0.4,0.4,0.4s0.4-0.2,0.3-0.5c0-0.4-0.5-0.8-0.5-0.8S68.8,51.3,68.8,51.6z"/>
		<path class="st5" d="M76.4,49.7c0,0.6,0.6,0.8,0.6,0.8s0.7-0.1,0.7-0.8c0-0.6-0.6-1.5-0.6-1.5S76.5,49,76.4,49.7z"/>
		<path class="st5" d="M75.1,51.1c0.3,0.5,1,0.3,1,0.3s0.5-0.5,0.2-1c-0.3-0.5-1.3-0.9-1.3-0.9S74.8,50.6,75.1,51.1z"/>
		<path class="st5" d="M73.5,52c0.3,0.6,1,0.4,1,0.4s0.5-0.5,0.2-1.1c-0.3-0.6-1.4-1-1.4-1S73.2,51.4,73.5,52z"/>
		<path class="st2" d="M71.7,52.7c0.2,0.7,1,0.6,1,0.6s0.6-0.4,0.4-1.1c-0.2-0.7-1.3-1.3-1.3-1.3S71.5,52,71.7,52.7z"/>
		<path class="st2" d="M73.5,49.8c0.2,0.5,0.7,0.4,0.7,0.4s0.5-0.3,0.3-0.8c-0.2-0.5-0.9-0.9-0.9-0.9S73.3,49.3,73.5,49.8z"/>
		<path class="st2" d="M71.9,50.4c0.2,0.5,0.8,0.5,0.8,0.5s0.5-0.3,0.3-0.9c-0.2-0.5-1-1-1-1S71.7,49.9,71.9,50.4z"/>
		<path class="st2" d="M75.5,49.5c0.3,0.3,0.7,0,0.7,0s0.2-0.4-0.1-0.7c-0.3-0.3-1.1-0.3-1.1-0.3S75.1,49.2,75.5,49.5z"/>
		<path class="st2" d="M69.8,53.2c0.2,0.7,1,0.6,1,0.6s0.6-0.4,0.4-1.1C71,52,70,51.4,70,51.4S69.6,52.5,69.8,53.2z"/>
	</g>
	<path class="st4" d="M66.2,55.2l0.2,0.3c-0.5,0.1,8.7,0.2,11.9-5.2c0,0-3.3,4.8-12.5,4L66.2,55.2z"/>
</g>
</svg>
