<?xml version="1.0" encoding="utf-8"?>
<!-- Generator: Adobe Illustrator 21.0.2, SVG Export Plug-In . SVG Version: 6.00 Build 0)  -->
<svg version="1.1" id="Layer_1" xmlns="http://www.w3.org/2000/svg" xmlns:xlink="http://www.w3.org/1999/xlink" x="0px" y="0px"
	 viewBox="0 0 400 183" style="enable-background:new 0 0 400 183;" xml:space="preserve">
<style type="text/css">
	.st0{fill:#FFFFFF;}
	.st1{fill:#F68920;}
	.st2{fill:#7FC343;}
	.st3{fill:#D2BC2C;}
</style>
<g>
	<g>
		<path class="st0" d="M2.8,118.4h6.9c2.1,0,5.5,0.3,5.5,6.1c0,5-1.6,7.3-5.9,7.3H5.1v11.6H2.8V118.4z M5.1,129.9h4.1
			c2.3,0,3.8-1.1,3.8-5c0-4.3-1.8-4.6-3.8-4.6H5.1V129.9z"/>
		<path class="st0" d="M25.6,117.9c7.5,0,7.6,6.2,7.6,13c0,6.8-0.1,13-7.6,13c-7.5,0-7.6-6.2-7.6-13
			C18.1,124.1,18.2,117.9,25.6,117.9z M25.6,142c5.3,0,5.3-4.5,5.3-11.1s-0.1-11.1-5.3-11.1c-5.3,0-5.3,4.5-5.3,11.1
			S20.4,142,25.6,142z"/>
		<path class="st0" d="M39.8,131.3v12.1h-2.2v-25h6.9c4.8,0,6,1.6,6,6c0,3.1-0.5,5.2-3.9,6v0.1c3.5,0.7,3.7,1.1,3.7,10.1
			c0,1,0.2,1.9,0.2,2.9h-2.1c-0.2-0.7-0.3-4.9-0.3-6.2c0-1.1,0.7-5.9-4.1-5.9H39.8z M39.8,129.4h3.6c3.3,0,4.9-0.9,4.9-5.1
			c0-3.4-1.4-4.1-3.9-4.1h-4.5V129.4z"/>
		<path class="st0" d="M59.2,120.2h-6.1v-1.9h14.4v1.9h-6.1v23.1h-2.2V120.2z"/>
		<path class="st0" d="M77.2,118.4l7.8,25h-2.3l-2-6.6h-9.8l-2,6.6h-2.2l7.9-25H77.2z M80.1,134.9l-4.3-14.1h-0.1l-4.2,14.1H80.1z"
			/>
		<path class="st0" d="M87.8,143.4v-25H90v23.1h8.3v1.9H87.8z"/>
		<path class="st0" d="M109.2,118.4h6.6c7,0,7.9,4.1,7.9,12.6c0,8.3-1.2,12.4-8.8,12.4h-5.7V118.4z M111.5,141.5h2.7
			c6.7,0,7.3-1.8,7.3-12c0-7.2-1-9.2-7.1-9.2h-2.9V141.5z"/>
		<path class="st0" d="M139.8,118.4v1.9h-9.1v9.4h8.7v1.9h-8.7v10h9.4v1.9h-11.6v-25H139.8z"/>
		<path class="st0" d="M150.9,130.9c0-6.8,0.1-13,7.6-13c6.1,0,6.2,5,6.2,7.2h-2.2c0-2.8-0.8-5.4-3.9-5.4c-5.3,0-5.3,4.5-5.3,11.1
			s0.1,11.1,5.3,11.1c2.9,0,3.9-2.6,4-5.8h2.4c0,1.8-0.4,7.7-6.3,7.7C151,143.9,150.9,137.6,150.9,130.9z"/>
		<path class="st0" d="M175.9,117.9c7.5,0,7.6,6.2,7.6,13c0,6.8-0.1,13-7.6,13c-7.5,0-7.6-6.2-7.6-13
			C168.4,124.1,168.4,117.9,175.9,117.9z M175.9,142c5.3,0,5.3-4.5,5.3-11.1s-0.1-11.1-5.3-11.1c-5.3,0-5.3,4.5-5.3,11.1
			S170.7,142,175.9,142z"/>
		<path class="st0" d="M188.2,143.4v-25h3.4l10.1,22l0.1-0.1v-21.9h2.2v25h-3.4l-10.2-22.2l-0.1,0.1v22.1H188.2z"/>
		<path class="st0" d="M216.3,117.9c7.5,0,7.6,6.2,7.6,13c0,6.8-0.1,13-7.6,13c-7.5,0-7.6-6.2-7.6-13
			C208.8,124.1,208.9,117.9,216.3,117.9z M216.3,142c5.3,0,5.3-4.5,5.3-11.1s-0.1-11.1-5.3-11.1c-5.3,0-5.3,4.5-5.3,11.1
			S211.1,142,216.3,142z"/>
		<path class="st0" d="M227.9,130.9c0-6.8,0.1-13,7.6-13c6.1,0,6.2,5,6.2,7.2h-2.2c0-2.8-0.8-5.4-3.9-5.4c-5.3,0-5.3,4.5-5.3,11.1
			s0.1,11.1,5.3,11.1c2.9,0,3.9-2.6,4-5.8h2.4c0,1.8-0.4,7.7-6.3,7.7C228,143.9,227.9,137.6,227.9,130.9z"/>
		<path class="st0" d="M248.2,118.4v25H246v-25H248.2z"/>
		<path class="st0" d="M253.4,143.4v-25h3.8l7.4,22.6h0.1l7.3-22.6h3.5v25h-2.2v-22.9h-0.1l-7.3,22.9h-2.6l-7.6-22.9h-0.1v22.9
			H253.4z"/>
		<path class="st0" d="M282.9,118.4v25h-2.2v-25H282.9z"/>
		<path class="st0" d="M299.5,118.4v1.9h-9.1v9.4h8.7v1.9h-8.7v10h9.4v1.9h-11.6v-25H299.5z"/>
		<path class="st0" d="M303.7,143.4v-25h3.4l10.1,22l0.1-0.1v-21.9h2.2v25h-3.4l-10.2-22.2l-0.1,0.1v22.1H303.7z"/>
		<path class="st0" d="M328.7,120.2h-6.1v-1.9H337v1.9h-6.1v23.1h-2.2V120.2z"/>
		<path class="st0" d="M347.2,117.9c7.5,0,7.6,6.2,7.6,13c0,6.8-0.1,13-7.6,13c-7.5,0-7.6-6.2-7.6-13
			C339.6,124.1,339.7,117.9,347.2,117.9z M347.2,142c5.3,0,5.3-4.5,5.3-11.1s-0.1-11.1-5.3-11.1c-5.3,0-5.3,4.5-5.3,11.1
			S341.9,142,347.2,142z"/>
		<path class="st0" d="M367.1,118.4h6.6c7,0,7.9,4.1,7.9,12.6c0,8.3-1.2,12.4-8.8,12.4h-5.7V118.4z M369.3,141.5h2.7
			c6.7,0,7.3-1.8,7.3-12c0-7.2-1-9.2-7.1-9.2h-2.9V141.5z"/>
		<path class="st0" d="M397.7,118.4v1.9h-9.1v9.4h8.7v1.9h-8.7v10h9.4v1.9h-11.6v-25H397.7z"/>
		<path class="st0" d="M2.8,180.4v-25h5.2v20.9h7.8v4.2H2.8z"/>
		<path class="st0" d="M16.3,180.4l6.9-25h6.9l6.8,25h-5.5l-1.4-5.5h-7.1l-1.4,5.5H16.3z M26.4,160.2L26.4,160.2L23.9,171h5
			L26.4,160.2z"/>
		<path class="st0" d="M47.1,155.4h8.7c6.9,0,8.1,4.6,8.1,12.4c0,3.8,0.6,12.6-8.3,12.6h-8.5V155.4z M52.4,176.5h2.5
			c3.2,0,3.8-2.4,3.8-8.7c0-4.6,0-8.7-3.6-8.7h-2.7V176.5z"/>
		<path class="st0" d="M68.2,180.4v-25h5.2v25H68.2z"/>
		<path class="st0" d="M75.9,180.4l6.9-25h6.9l6.8,25H91l-1.4-5.5h-7.1l-1.4,5.5H75.9z M86,160.2L86,160.2L83.5,171h5L86,160.2z"/>
		<path class="st0" d="M99.1,180.4v-25h9.3c4,0,7.3,1.1,7.3,6.5c0,2.9-1.4,5-4.3,5.5v0.1c3.7,0.5,4.7,2.9,4.7,6.3
			c0,6.3-5.5,6.6-7.7,6.6H99.1z M104.3,165.6h3.5c1.1,0,2.7-0.8,2.7-3.2c0-1.8-1.2-3.2-3-3.2h-3.2V165.6z M104.3,176.5h2.9
			c1.1,0,3.6,0,3.6-3.5c0-2.2-0.8-3.6-3.5-3.6h-3V176.5z"/>
		<path class="st0" d="M120.2,180.4v-25h13.6v3.8h-8.4v6.2h7.8v3.8h-7.8v7.3h8.7v3.8H120.2z"/>
		<path class="st0" d="M152.4,155.4v4.2h-5.8v20.9h-5.2v-20.9h-5.8v-4.2H152.4z"/>
		<path class="st0" d="M154.8,180.4v-25h13.6v3.8H160v6.2h7.8v3.8H160v7.3h8.7v3.8H154.8z"/>
		<path class="st0" d="M178.9,180.8c-6.5,0-7.7-3.8-7.4-8.1h5.2c0,2.4,0.1,4.4,3,4.4c1.8,0,2.6-1.1,2.6-2.8
			c0-4.5-10.5-4.8-10.5-12.2c0-3.9,1.9-7,8.2-7c5.1,0,7.6,2.3,7.3,7.5h-5.1c0-1.9-0.3-3.8-2.4-3.8c-1.7,0-2.7,0.9-2.7,2.7
			c0,4.7,10.5,4.3,10.5,12.2C187.6,180,182.9,180.8,178.9,180.8z"/>
		<path class="st0" d="M213.9,155.4v4.2h-5.8v20.9h-5.2v-20.9h-5.8v-4.2H213.9z"/>
		<path class="st0" d="M216.4,180.4v-25h5.2v25H216.4z"/>
		<path class="st0" d="M226,155.4h9.4c4.8,0,6.7,2.9,6.7,7.5c0,2.8-0.8,7.3-7,7.3h-3.9v10.2H226V155.4z M231.3,166.4h2.9
			c1.6,0,2.6-1.7,2.6-3.4c0-2-0.6-3.8-2.9-3.8h-2.6V166.4z"/>
		<path class="st0" d="M245,167.9c0-6.6,0-12.9,8.6-12.9c8.6,0,8.6,6.3,8.6,12.9c0,6.5,0,12.9-8.6,12.9
			C245,180.8,245,174.4,245,167.9z M257,167.9c0-6.4-0.4-9.2-3.3-9.2c-2.9,0-3.3,2.8-3.3,9.2c0,6.4,0.4,9.2,3.3,9.2
			C256.6,177.1,257,174.3,257,167.9z"/>
		<path class="st0" d="M272.3,180.4v-4.3c7.6-10.1,9.2-11.3,9.2-14.3c0-1.2-0.5-2.4-1.8-2.4c-2,0-2.1,1.9-2.1,3.5h-4.9
			c-0.3-4.5,2.2-7,6.7-7c4.2,0,7.1,1.7,7.1,6.2c0,5.4-6.3,11.6-9,14.5h9.2v3.7H272.3z"/>
	</g>
	<g>
		<path class="st0" d="M92.5,99.6H8c-4.1,0-7.4-3.3-7.4-7.4V7.7c0-4.1,3.3-7.4,7.4-7.4h84.5c4.1,0,7.4,3.3,7.4,7.4v84.5
			C99.9,96.3,96.6,99.6,92.5,99.6z"/>
		<g>
			<path class="st1" d="M50.3,21.4c-3.3,0-5.9,2.6-5.9,5.9c0,0.9,0.2,1.8,0.6,2.6L28.3,58.7c-1.3-0.4-2.7-0.6-4.2-0.6
				c-8,0-14.5,6.5-14.5,14.5c0,8,6.5,14.5,14.5,14.5c4,0,7.6-1.6,10.2-4.3l-3.6-3.6c-1.7,1.7-4,2.7-6.5,2.7c-5.1,0-9.3-4.2-9.3-9.3
				c0-5.1,4.2-9.3,9.3-9.3c2.9,0,5.5,1.3,7.2,3.4l2.7-4.7l16.7-28.9c3-0.3,5.4-2.8,5.4-5.9C56.2,24,53.5,21.4,50.3,21.4z"/>
			<path class="st2" d="M76.9,66.7L60.2,37.8c2.8-2.6,4.6-6.4,4.6-10.5c0-8-6.5-14.5-14.5-14.5c-8,0-14.5,6.5-14.5,14.5
				c0,1.3,0.2,2.6,0.5,3.8l5.1-1.4c-0.2-0.8-0.3-1.6-0.3-2.4c0-5.1,4.2-9.3,9.3-9.3c5.1,0,9.3,4.2,9.3,9.3c0,4.7-3.5,8.5-8,9.2
				l2.7,4.7l16.7,28.9c-0.4,0.8-0.6,1.6-0.6,2.5c0,3.3,2.6,5.9,5.9,5.9c3.3,0,5.9-2.7,5.9-5.9C82.4,69.5,79.9,66.9,76.9,66.7z"/>
			<path class="st3" d="M80.2,58.6l-1.4,5c3.9,1.1,6.8,4.7,6.8,8.9c0,5.1-4.2,9.3-9.3,9.3c-5.1,0-9.3-4.2-9.3-9.3
				c0-1.2,0.2-2.3,0.6-3.4h-5.4H29c-1.1-1.6-2.9-2.6-4.9-2.6c-3.3,0-5.9,2.6-5.9,5.9c0,3.3,2.6,5.9,5.9,5.9c2,0,3.8-1,4.9-2.6h33.4
				c1.5,6.4,7.2,11.1,14.1,11.1c8,0,14.5-6.5,14.5-14.5C90.9,65.9,86.4,60.3,80.2,58.6z"/>
		</g>
	</g>
</g>
</svg>
