<?xml version="1.0" encoding="utf-8"?>
<!-- Generator: Adobe Illustrator 21.0.2, SVG Export Plug-In . SVG Version: 6.00 Build 0)  -->
<svg version="1.1" id="Layer_1" xmlns="http://www.w3.org/2000/svg" xmlns:xlink="http://www.w3.org/1999/xlink" x="0px" y="0px"
	 viewBox="0 0 529.1 149.1" style="enable-background:new 0 0 529.1 149.1;" xml:space="preserve">
<style type="text/css">
	.st0{fill:#FFFFFF;}
	.st1{fill:#F68920;}
	.st2{fill:#7FC343;}
	.st3{fill:#D2BC2C;}
</style>
<g>
	<g>
		<path class="st0" d="M18.7,120.3v4.2h-5.8v20.9H7.6v-20.9H1.8v-4.2H18.7z"/>
		<path class="st0" d="M27.6,136.7l-6.6-16.4h5.7l3.7,10.6l4-10.6h5.3l-7,16.4v8.7h-5.2V136.7z"/>
		<path class="st0" d="M43.2,120.3h9.4c4.8,0,6.7,2.9,6.7,7.5c0,2.8-0.8,7.3-7,7.3h-3.9v10.2h-5.2V120.3z M48.5,131.3h2.9
			c1.6,0,2.6-1.7,2.6-3.4c0-2-0.6-3.8-2.9-3.8h-2.6V131.3z"/>
		<path class="st0" d="M63,145.3v-25h13.7v3.8h-8.4v6.2H76v3.8h-7.8v7.3H77v3.8H63z"/>
		<path class="st0" d="M87,145.3v-4.6c8.2-10.9,9.9-12.2,9.9-15.4c0-1.3-0.5-2.5-2-2.5c-2.2,0-2.3,2-2.3,3.7h-5.3
			c-0.4-4.8,2.3-7.5,7.2-7.5c4.5,0,7.6,1.8,7.6,6.7c0,5.8-6.8,12.5-9.7,15.6h9.9v4H87z"/>
		<path class="st0" d="M111.7,120.3h8.7c6.9,0,8.1,4.6,8.1,12.4c0,3.8,0.6,12.7-8.4,12.7h-8.5V120.3z M117,141.5h2.5
			c3.2,0,3.8-2.4,3.8-8.7c0-4.6,0-8.7-3.6-8.7H117V141.5z"/>
		<path class="st0" d="M132.9,145.3v-25h5.2v25H132.9z"/>
		<path class="st0" d="M141.5,145.3l6.9-25h6.9l6.8,25h-5.5l-1.4-5.5h-7.1l-1.4,5.5H141.5z M151.6,125.1L151.6,125.1l-2.5,10.8h5
			L151.6,125.1z"/>
		<path class="st0" d="M165.5,145.3v-25h9.3c4,0,7.3,1.1,7.3,6.5c0,2.9-1.4,5-4.3,5.5v0.1c3.7,0.5,4.7,2.9,4.7,6.3
			c0,6.3-5.5,6.6-7.7,6.6H165.5z M170.7,130.5h3.5c1.1,0,2.7-0.8,2.7-3.2c0-1.8-1.2-3.2-3-3.2h-3.2V130.5z M170.7,141.5h2.9
			c1.1,0,3.6,0,3.6-3.5c0-2.2-0.8-3.6-3.5-3.6h-3.1V141.5z"/>
		<path class="st0" d="M186.7,145.3v-25h13.7v3.8H192v6.2h7.8v3.8H192v7.3h8.7v3.8H186.7z"/>
		<path class="st0" d="M220.3,120.3v4.2h-5.8v20.9h-5.2v-20.9h-5.8v-4.2H220.3z"/>
		<path class="st0" d="M223.6,145.3v-25h13.7v3.8h-8.4v6.2h7.8v3.8h-7.8v7.3h8.7v3.8H223.6z"/>
		<path class="st0" d="M248.4,145.7c-6.5,0-7.7-3.8-7.4-8.1h5.2c0,2.4,0.1,4.4,3,4.4c1.8,0,2.6-1.1,2.6-2.8
			c0-4.5-10.5-4.8-10.5-12.2c0-3.9,1.9-7,8.3-7c5.1,0,7.6,2.3,7.3,7.5h-5.1c0-1.9-0.3-3.8-2.4-3.8c-1.7,0-2.7,0.9-2.7,2.7
			c0,4.7,10.5,4.3,10.5,12.2C257.2,145,252.4,145.7,248.4,145.7z"/>
	</g>
	<g>
		<path class="st0" d="M267.3,144v-23.4h2.1v10.7h0.1l8.3-10.7h2.5l-8.7,10.9l9,12.5h-2.6l-8.4-12h-0.1v12H267.3z"/>
		<path class="st0" d="M283.8,144v-23.4h3.2l9.5,20.5l0.1-0.1v-20.4h2.1V144h-3.1l-9.5-20.7l-0.1,0.1V144H283.8z"/>
		<path class="st0" d="M309.8,120.2c7,0,7.1,5.8,7.1,12.1c0,6.3-0.1,12.1-7.1,12.1c-7,0-7.1-5.8-7.1-12.1
			C302.7,126.1,302.8,120.2,309.8,120.2z M309.8,142.7c4.9,0,5-4.2,5-10.4c0-6.2-0.1-10.4-5-10.4c-4.9,0-5,4.2-5,10.4
			C304.8,138.6,304.8,142.7,309.8,142.7z"/>
		<path class="st0" d="M330.8,120.7h2.8l4.7,20.5h0.1l5-20.5h2l-5.8,23.4h-2.7l-4.7-20.8h-0.1l-4.8,20.8h-2.6l-5.6-23.4h2.2
			l4.7,20.6h0.1L330.8,120.7z"/>
		<path class="st0" d="M348.4,144v-23.4h2.1v21.6h7.7v1.7H348.4z"/>
		<path class="st0" d="M372.1,120.7v1.7h-8.5v8.7h8.1v1.7h-8.1v9.4h8.7v1.7h-10.8v-23.4H372.1z"/>
		<path class="st0" d="M375.8,120.7h6.2c6.5,0,7.3,3.8,7.3,11.8c0,7.8-1.1,11.6-8.2,11.6h-5.3V120.7z M377.9,142.3h2.5
			c6.2,0,6.9-1.7,6.9-11.2c0-6.7-0.9-8.6-6.7-8.6h-2.7V142.3z"/>
		<path class="st0" d="M404.6,133.6h-4.7v-1.7h6.8v11.7c-2.1,0.6-4.2,1-6.4,1c-7.6,0-7.1-7.6-7.1-12.1c0-4.5-0.5-12.1,7.1-12.1
			c4.5,0,6.8,1.9,6.7,6.4h-2.1c0-3.1-1.3-4.7-4.6-4.7c-5,0-5,4.5-5,10.4c0,5.9-0.1,10.4,5,10.4c1.8,0,3.3-0.3,4.4-0.7V133.6z"/>
		<path class="st0" d="M421.7,120.7v1.7h-8.5v8.7h8.1v1.7h-8.1v9.4h8.7v1.7h-10.8v-23.4H421.7z"/>
		<path class="st0" d="M432.3,120.7h6.4c1.9,0,5.1,0.3,5.1,5.7c0,4.7-1.5,6.8-5.5,6.8h-3.9V144h-2.1V120.7z M434.4,131.4h3.8
			c2.2,0,3.6-1,3.6-4.7c0-4-1.7-4.3-3.6-4.3h-3.8V131.4z"/>
		<path class="st0" d="M454,120.2c7,0,7,5.8,7,12.1c0,6.3-0.1,12.1-7,12.1c-7,0-7.1-5.8-7.1-12.1C446.9,126.1,447,120.2,454,120.2z
			 M454,142.7c4.9,0,5-4.2,5-10.4c0-6.2-0.1-10.4-5-10.4c-4.9,0-5,4.2-5,10.4C449,138.6,449.1,142.7,454,142.7z"/>
		<path class="st0" d="M467.1,132.7V144H465v-23.4h6.4c4.5,0,5.6,1.5,5.6,5.6c0,2.9-0.5,4.9-3.6,5.6v0.1c3.3,0.7,3.5,1.1,3.5,9.4
			c0,0.9,0.2,1.8,0.2,2.7h-2c-0.2-0.7-0.3-4.6-0.3-5.8c0-1,0.6-5.5-3.8-5.5H467.1z M467.1,131h3.4c3.1,0,4.6-0.8,4.6-4.7
			c0-3.2-1.3-3.8-3.7-3.8h-4.2V131z"/>
		<path class="st0" d="M485.5,122.4h-5.7v-1.7h13.5v1.7h-5.7V144h-2.1V122.4z"/>
		<path class="st0" d="M502.4,120.7l7.3,23.4h-2.2l-1.9-6.1h-9.2l-1.8,6.1h-2.1l7.4-23.4H502.4z M505.1,136.1l-4-13.2H501l-3.9,13.2
			H505.1z"/>
		<path class="st0" d="M512.8,144v-23.4h2.1v21.6h7.7v1.7H512.8z"/>
	</g>
</g>
<g>
	<path class="st0" d="M93.7,100.4H9.2c-4.1,0-7.4-3.3-7.4-7.4V8.4c0-4.1,3.3-7.4,7.4-7.4h84.5c4.1,0,7.4,3.3,7.4,7.4V93
		C101.1,97.1,97.8,100.4,93.7,100.4z"/>
	<g>
		<path class="st1" d="M51.4,22.1c-3.3,0-5.9,2.6-5.9,5.9c0,0.9,0.2,1.8,0.6,2.6L29.4,59.5c-1.3-0.4-2.7-0.6-4.2-0.6
			c-8,0-14.5,6.5-14.5,14.5c0,8,6.5,14.5,14.5,14.5c4,0,7.6-1.6,10.2-4.3L31.9,80c-1.7,1.7-4,2.7-6.5,2.7c-5.1,0-9.3-4.2-9.3-9.3
			c0-5.1,4.2-9.3,9.3-9.3c2.9,0,5.5,1.3,7.2,3.4l2.7-4.7l16.7-28.9c3-0.3,5.4-2.8,5.4-5.9C57.3,24.8,54.7,22.1,51.4,22.1z"/>
		<path class="st2" d="M78,67.5L61.3,38.6c2.8-2.6,4.6-6.4,4.6-10.5c0-8-6.5-14.5-14.5-14.5c-8,0-14.5,6.5-14.5,14.5
			c0,1.3,0.2,2.6,0.5,3.8l5.1-1.4c-0.2-0.8-0.3-1.6-0.3-2.4c0-5.1,4.2-9.3,9.3-9.3c5.1,0,9.3,4.2,9.3,9.3c0,4.7-3.5,8.5-8,9.2
			l2.7,4.7l16.7,28.9c-0.4,0.8-0.6,1.6-0.6,2.5c0,3.3,2.6,5.9,5.9,5.9c3.3,0,5.9-2.7,5.9-5.9C83.5,70.2,81.1,67.7,78,67.5z"/>
		<path class="st3" d="M81.3,59.4l-1.4,5c3.9,1.1,6.8,4.7,6.8,8.9c0,5.1-4.2,9.3-9.3,9.3c-5.1,0-9.3-4.2-9.3-9.3
			c0-1.2,0.2-2.3,0.6-3.4h-5.4H30.1c-1.1-1.6-2.9-2.6-4.9-2.6c-3.3,0-5.9,2.6-5.9,5.9c0,3.3,2.6,5.9,5.9,5.9c2,0,3.8-1,4.9-2.6h33.4
			c1.5,6.4,7.2,11.1,14.1,11.1c8,0,14.5-6.5,14.5-14.5C92.1,66.7,87.5,61,81.3,59.4z"/>
	</g>
</g>
</svg>
