<?xml version="1.0" encoding="utf-8"?>
<!-- Generator: Adobe Illustrator 21.1.0, SVG Export Plug-In . SVG Version: 6.00 Build 0)  -->
<svg version="1.1" id="Layer_1" xmlns="http://www.w3.org/2000/svg" xmlns:xlink="http://www.w3.org/1999/xlink" x="0px" y="0px"
	 viewBox="0 0 100 100" style="enable-background:new 0 0 100 100;" xml:space="preserve">
<style type="text/css">
	.st0{fill:#F58821;}
	.st1{fill:#7FC142;}
	.st2{fill:#D1BB2C;}
</style>
<g>
	<g>
		<g>
			<path class="st0" d="M49.8,15.4c-4,0-7.2,3.2-7.2,7.2c0,1.1,0.3,2.2,0.7,3.1l-20.3,35c-1.6-0.5-3.3-0.7-5-0.7
				C8.3,60,0.5,67.9,0.5,77.6c0,9.7,7.9,17.6,17.6,17.6c4.9,0,9.3-2,12.4-5.2l-4.4-4.4c-2,2-4.8,3.3-8,3.3c-6.2,0-11.3-5-11.3-11.3
				c0-6.2,5-11.3,11.3-11.3c3.5,0,6.7,1.6,8.7,4.2l3.3-5.7l20.3-35.1c3.7-0.3,6.6-3.4,6.6-7.2C57,18.6,53.8,15.4,49.8,15.4z"/>
			<path class="st1" d="M82.1,70.5L61.9,35.4c3.4-3.2,5.6-7.7,5.6-12.8C67.4,12.9,59.5,5,49.8,5c-9.7,0-17.6,7.9-17.6,17.6
				c0,1.6,0.2,3.1,0.6,4.6l6.2-1.7c-0.3-0.9-0.4-1.9-0.4-2.9c0-6.2,5-11.3,11.3-11.3c6.2,0,11.3,5,11.3,11.3
				c0,5.7-4.2,10.4-9.7,11.1l3.3,5.7l20.3,35.1c-0.4,0.9-0.7,2-0.7,3.1c0,4,3.2,7.2,7.2,7.2c4,0,7.2-3.2,7.2-7.2
				C88.8,73.8,85.9,70.7,82.1,70.5z"/>
			<path class="st2" d="M86.1,60.7l-1.6,6.1c4.8,1.3,8.3,5.7,8.3,10.9c0,6.2-5,11.3-11.3,11.3c-6.2,0-11.3-5-11.3-11.3
				c0-1.4,0.3-2.8,0.8-4.1h-6.6H24c-1.3-1.9-3.5-3.1-5.9-3.1c-4,0-7.2,3.2-7.2,7.2c0,4,3.2,7.2,7.2,7.2c2.5,0,4.6-1.2,5.9-3.1h40.5
				c1.8,7.8,8.8,13.5,17.1,13.5c9.7,0,17.6-7.9,17.6-17.6C99.2,69.5,93.7,62.7,86.1,60.7z"/>
		</g>
	</g>
</g>
</svg>
