<?xml version="1.0" encoding="utf-8"?>
<!-- Generator: Adobe Illustrator 24.1.0, SVG Export Plug-In . SVG Version: 6.00 Build 0)  -->
<svg version="1.1" id="Layer_1" xmlns="http://www.w3.org/2000/svg" xmlns:xlink="http://www.w3.org/1999/xlink" x="0px" y="0px"
	 viewBox="0 0 100 100" style="enable-background:new 0 0 100 100;" xml:space="preserve">
<style type="text/css">
	.st0{fill:#F399C0;stroke:#DDDDDD;stroke-width:1.805;stroke-miterlimit:10;}
	.st1{fill:#6DCEF5;stroke:#DDDDDD;stroke-width:1.805;stroke-miterlimit:10;}
	.st2{fill:#BED630;stroke:#DDDDDD;stroke-width:1.805;stroke-miterlimit:10;}
	.st3{fill:#D9B989;stroke:#DDDDDD;stroke-width:1.805;stroke-miterlimit:10;}
	.st4{fill:#9CD19B;stroke:#DDDDDD;stroke-width:1.805;stroke-miterlimit:10;}
	.st5{fill:#BAB6DB;stroke:#DDDDDD;stroke-width:1.805;stroke-miterlimit:10;}
</style>
<g>
	<polygon class="st0" points="34.9,15.3 5.8,65.7 49.6,57.3 	"/>
	<polygon class="st1" points="64.1,15.3 49.4,57.3 93.2,65.7 	"/>
	<polygon class="st2" points="49.5,57.1 20.4,90.7 78.6,90.7 	"/>
	<path class="st3" d="M49.5,57.2c0,0-27.9-0.1-29-0.1c-9.3,0-16.8,7.5-16.8,16.8c0,9.3,7.5,16.8,16.8,16.8c6.1,0,11.3-3.2,14.3-8
		L49.5,57.2z"/>
	<path class="st4" d="M49.5,57.2c0,0,28-0.1,29-0.1c9.3,0,16.8,7.5,16.8,16.8c0,9.3-7.5,16.8-16.8,16.8c-6.1,0-11.3-3.2-14.3-8
		L49.5,57.2z"/>
	<path class="st5" d="M49.5,57.2c0,0-14.1-24.2-14.6-25.1c-4.6-8-1.9-18.3,6.1-22.9c8-4.6,18.3-1.9,22.9,6.1
		c3,5.2,2.9,11.4,0.2,16.4L49.5,57.2z"/>
</g>
</svg>
