<?xml version="1.0" encoding="utf-8"?>
<!-- Generator: Adobe Illustrator 21.1.0, SVG Export Plug-In . SVG Version: 6.00 Build 0)  -->
<svg version="1.1" id="Layer_1" xmlns="http://www.w3.org/2000/svg" xmlns:xlink="http://www.w3.org/1999/xlink" x="0px" y="0px"
	 viewBox="0 0 282.7 59.7" style="enable-background:new 0 0 282.7 59.7;" xml:space="preserve">
<style type="text/css">
	.st0{fill:#010101;}
	.st1{fill:none;stroke:#010101;stroke-miterlimit:10;}
	.st2{fill:#EB2027;}
	.st3{fill:#27ADE4;}
</style>
<g>
	<path class="st0" d="M75.5,40.6h1.2v6.8l3.5-6.8h1.2l-2.7,5.6l3.2,7.4h-1.2L77.8,47l-1.2,2.1v4.4h-1.2L75.5,40.6L75.5,40.6z"/>
	<path class="st0" d="M82.8,44.3H84v1c0.3-0.3,0.7-0.6,1-0.8c0.4-0.2,0.8-0.3,1.2-0.3c0.5,0,0.8,0.2,1.1,0.5
		c0.2,0.3,0.4,0.8,0.4,1.5v7.4h-1.2v-7.2c0-0.5-0.1-0.8-0.2-1s-0.4-0.3-0.7-0.3c-0.3,0-0.5,0.1-0.8,0.2c-0.3,0.2-0.5,0.4-0.8,0.6
		v7.6h-1.2V44.3z"/>
	<path class="st0" d="M89.7,52.8c-0.4-0.6-0.5-1.4-0.5-2.6v-2.6c0-1.2,0.2-2.1,0.5-2.6c0.4-0.6,1-0.9,1.9-0.9s1.6,0.3,1.9,0.9
		c0.4,0.6,0.5,1.4,0.5,2.6v2.6c0,1.2-0.2,2.1-0.5,2.6c-0.4,0.6-1,0.9-1.9,0.9S90.1,53.4,89.7,52.8z M92.5,52.5
		c0.2-0.2,0.3-0.5,0.4-0.8c0.1-0.4,0.1-0.8,0.1-1.4v-2.7c0-0.6,0-1.1-0.1-1.4s-0.2-0.6-0.4-0.8C92.3,45.1,92,45,91.6,45
		s-0.7,0.1-0.9,0.3c-0.2,0.2-0.3,0.5-0.4,0.8s-0.1,0.8-0.1,1.4v2.7c0,0.6,0,1.1,0.1,1.4c0.1,0.3,0.2,0.6,0.4,0.8
		c0.2,0.2,0.5,0.3,0.9,0.3C92,52.8,92.3,52.7,92.5,52.5z"/>
	<path class="st0" d="M95.3,44.3h1l1.2,7.7l1.5-7.7h1l1.5,7.7l1.1-7.7h1l-1.6,9.2h-1.1L99.4,46L98,53.5h-1.2L95.3,44.3z"/>
	<path class="st0" d="M105,40.6h1.2v13H105V40.6z"/>
	<path class="st0" d="M108.9,53.3c-0.4-0.2-0.6-0.6-0.8-1.1c-0.2-0.5-0.3-1.2-0.3-2.1v-2.3c0-0.9,0.1-1.6,0.3-2.1
		c0.2-0.5,0.4-0.9,0.8-1.1c0.4-0.2,0.8-0.3,1.4-0.3s1.1,0.1,1.5,0.4c0.3,0.3,0.6,0.7,0.7,1.2s0.2,1.3,0.2,2.2v0.8H109v1.4
		c0,0.7,0,1.2,0.1,1.5c0.1,0.4,0.2,0.6,0.4,0.8s0.5,0.3,0.8,0.3c0.4,0,0.7-0.1,0.9-0.4s0.3-0.7,0.3-1.4v-0.6h1.1V51
		c0,0.9-0.2,1.6-0.6,2.1s-1,0.7-1.8,0.7C109.8,53.7,109.3,53.5,108.9,53.3z M111.7,48.1v-0.8c0-0.6,0-1-0.1-1.3s-0.2-0.6-0.4-0.8
		c-0.2-0.1-0.4-0.2-0.8-0.2c-0.3,0-0.6,0.1-0.8,0.2c-0.2,0.1-0.3,0.4-0.4,0.8c-0.1,0.4-0.1,0.9-0.1,1.5v0.6H111.7z"/>
	<path class="st0" d="M114.7,52.8c-0.3-0.6-0.5-1.6-0.5-3v-1.7c0-1.3,0.2-2.3,0.5-3s0.9-1,1.7-1c0.6,0,1.1,0.3,1.6,0.8v-4.4h1.2v13
		H118v-0.7c-0.5,0.5-1,0.8-1.6,0.8C115.6,53.7,115.1,53.4,114.7,52.8z M118,52.1v-6.4c-0.5-0.4-0.9-0.7-1.4-0.7s-0.8,0.2-1,0.6
		c-0.2,0.4-0.3,1.1-0.3,2v2.2c0,1,0.1,1.7,0.3,2.2c0.2,0.4,0.5,0.7,1,0.7C117.1,52.7,117.6,52.5,118,52.1z"/>
	<path class="st0" d="M121.2,56.2c-0.5-0.2-0.8-0.6-0.8-1.2c0-0.4,0.1-0.9,0.4-1.2s0.7-0.7,1.1-0.9c-0.3-0.1-0.5-0.2-0.7-0.3
		s-0.3-0.3-0.3-0.5c0-0.3,0.1-0.6,0.3-0.9s0.5-0.6,0.8-1c-0.4-0.3-0.7-0.7-0.9-1.1s-0.3-1-0.3-1.7c0-0.9,0.2-1.7,0.7-2.3
		c0.4-0.6,1.1-0.9,1.9-0.9c0.9,0,1.6,0.4,2,1.2c0.1-0.2,0.3-0.3,0.5-0.6s0.5-0.4,0.8-0.5l0.2-0.1l0.3,0.8c-0.3,0-0.5,0.1-0.9,0.3
		c-0.3,0.2-0.5,0.3-0.7,0.5c0.1,0.2,0.1,0.5,0.2,0.8s0.1,0.6,0.1,0.8c0,1-0.2,1.8-0.6,2.4c-0.4,0.6-1.1,0.9-1.9,0.9
		c-0.2,0-0.3,0-0.5,0s-0.3-0.1-0.4-0.1c0,0.1-0.1,0.2-0.2,0.3c-0.1,0.2-0.2,0.3-0.3,0.5s-0.1,0.3-0.1,0.4c0,0.2,0.3,0.3,0.8,0.4
		c0.1,0,0.3,0.1,0.5,0.1s0.5,0.1,0.6,0.1c0.2,0,0.3,0,0.3,0c0.8,0.1,1.3,0.4,1.7,0.7c0.4,0.3,0.6,0.8,0.6,1.4c0,0.7-0.3,1.3-0.8,1.6
		s-1.2,0.5-2.1,0.5C122.5,56.6,121.7,56.4,121.2,56.2z M124.9,55.3c0.4-0.2,0.5-0.5,0.5-0.9c0-0.3-0.1-0.6-0.4-0.8
		c-0.2-0.2-0.7-0.3-1.4-0.5l-1.2-0.2c-0.8,0.5-1.2,1-1.2,1.6c0,0.4,0.2,0.6,0.5,0.8s0.9,0.2,1.6,0.2
		C124.1,55.6,124.6,55.5,124.9,55.3z M124.6,49.1c0.2-0.4,0.3-1,0.3-1.7c0-1.6-0.5-2.4-1.5-2.4c-0.6,0-1,0.2-1.2,0.7s-0.3,1-0.3,1.7
		c0,1.6,0.5,2.4,1.6,2.4C124,49.8,124.4,49.5,124.6,49.1z"/>
	<path class="st0" d="M128.8,53.3c-0.4-0.2-0.6-0.6-0.8-1.1c-0.2-0.5-0.3-1.2-0.3-2.1v-2.3c0-0.9,0.1-1.6,0.3-2.1
		c0.2-0.5,0.4-0.9,0.8-1.1c0.4-0.2,0.8-0.3,1.4-0.3c0.6,0,1.1,0.1,1.5,0.4c0.3,0.3,0.6,0.7,0.7,1.2c0.1,0.5,0.2,1.3,0.2,2.2v0.8
		h-3.7v1.4c0,0.7,0,1.2,0.1,1.5c0.1,0.4,0.2,0.6,0.4,0.8c0.2,0.2,0.5,0.3,0.8,0.3c0.4,0,0.7-0.1,0.9-0.4s0.3-0.7,0.3-1.4v-0.6h1.1
		V51c0,0.9-0.2,1.6-0.6,2.1s-1,0.7-1.8,0.7C129.6,53.7,129.1,53.5,128.8,53.3z M131.5,48.1v-0.8c0-0.6,0-1-0.1-1.3
		c-0.1-0.3-0.2-0.6-0.4-0.8c-0.2-0.2-0.5-0.3-0.8-0.3s-0.6,0.1-0.8,0.2c-0.2,0.1-0.3,0.4-0.4,0.8c-0.1,0.4-0.1,0.9-0.1,1.5V48
		L131.5,48.1L131.5,48.1z"/>
	<path class="st0" d="M137.7,40.6h3.1c1.1,0,1.9,0.3,2.4,0.9c0.5,0.6,0.7,1.4,0.7,2.5c0,1-0.2,1.8-0.7,2.4c-0.5,0.6-1.3,0.9-2.3,0.9
		H139v6.1h-1.2L137.7,40.6L137.7,40.6z M140.5,46.5c0.8,0,1.4-0.2,1.7-0.6c0.3-0.4,0.5-1,0.5-1.9c0-0.7-0.1-1.2-0.2-1.5
		c-0.1-0.4-0.3-0.6-0.7-0.8c-0.3-0.1-0.8-0.2-1.3-0.2h-1.6v5H140.5z"/>
	<path class="st0" d="M145.4,52.8c-0.4-0.6-0.5-1.4-0.5-2.6v-2.6c0-1.2,0.2-2.1,0.5-2.6c0.4-0.6,1-0.9,1.9-0.9s1.6,0.3,1.9,0.9
		c0.4,0.6,0.5,1.4,0.5,2.6v2.6c0,1.2-0.2,2.1-0.5,2.6c-0.4,0.6-1,0.9-1.9,0.9S145.8,53.4,145.4,52.8z M148.2,52.5
		c0.2-0.2,0.3-0.5,0.4-0.8c0.1-0.4,0.1-0.8,0.1-1.4v-2.7c0-0.6,0-1.1-0.1-1.4c-0.1-0.4-0.2-0.6-0.4-0.8s-0.5-0.3-0.9-0.3
		s-0.7,0.1-0.9,0.3s-0.3,0.5-0.4,0.8s-0.1,0.8-0.1,1.4v2.7c0,0.6,0,1.1,0.1,1.4s0.2,0.6,0.4,0.8s0.5,0.3,0.9,0.3
		S148,52.7,148.2,52.5z"/>
	<path class="st0" d="M151.5,44.3h1.2v1.3c0.3-0.5,0.6-0.8,1-1s0.8-0.3,1.1-0.3c0.1,0,0.2,0,0.2,0v1.2c-0.2-0.1-0.4-0.1-0.6-0.1
		c-0.7,0-1.3,0.4-1.8,1.1v7.1h-1.2v-9.3H151.5z"/>
	<path class="st0" d="M157.1,53.1c-0.2-0.3-0.4-0.9-0.4-1.5V45h-1.1v-0.8h1.1v-2.9h1.2v2.9h1.5V45h-1.5v6.4c0,0.5,0.1,0.8,0.2,1
		c0.1,0.2,0.3,0.3,0.7,0.3c0.2,0,0.4,0,0.7-0.1v0.9c-0.3,0.1-0.7,0.1-1,0.1C157.7,53.6,157.3,53.5,157.1,53.1z"/>
	<path class="st0" d="M160.9,53.1c-0.3-0.4-0.5-0.9-0.5-1.5s0.1-1.1,0.4-1.5c0.2-0.4,0.6-0.7,1.1-1s1.3-0.7,2.3-1.2v-0.7
		c0-0.6,0-1-0.1-1.3s-0.2-0.5-0.4-0.7c-0.2-0.1-0.4-0.2-0.7-0.2c-0.9,0-1.3,0.5-1.3,1.6v0.3h-1.2v-0.3c0-0.9,0.3-1.5,0.7-1.9
		s1-0.6,1.8-0.6s1.4,0.2,1.7,0.7s0.5,1.3,0.5,2.3v4.5c0,0.3,0,0.6,0,1s0,0.7,0.1,0.8h-1l-0.2-1.3c-0.1,0.4-0.4,0.7-0.7,1
		s-0.7,0.4-1.2,0.4C161.7,53.7,161.3,53.5,160.9,53.1z M163.5,52.3c0.3-0.2,0.5-0.5,0.6-0.8v-2.9c-0.7,0.4-1.3,0.7-1.6,0.9
		s-0.5,0.4-0.7,0.7s-0.3,0.6-0.3,1c0,0.5,0.1,0.8,0.3,1s0.5,0.3,0.8,0.3C163,52.7,163.3,52.6,163.5,52.3z"/>
	<path class="st0" d="M167.2,40.6h1.2v13h-1.2V40.6z"/>
	<g>
		<path class="st0" d="M75,29.1c0-3.4,0-6.7,4.5-6.7c2.8,0,3.9,1.5,3.8,4.3h-2.6c0-1.7-0.3-2.4-1.1-2.4c-1.5,0-1.7,1.4-1.7,4.7
			c0,3.3,0.2,4.7,1.7,4.7c1.3,0,1.2-1.6,1.2-2.6h2.7c0,3.5-1.4,4.6-3.9,4.6C75,35.8,75,32.5,75,29.1z"/>
		<path class="st0" d="M91.2,33.9c0,0.6,0.1,1.1,0.1,1.7H89l-0.1-1.2h0c-0.5,0.9-1.3,1.4-2.4,1.4c-1.8,0-2.4-1.3-2.4-2.9
			c0-3,2.3-3.1,4.6-3.1v-0.7c0-0.8-0.1-1.3-1-1.3c-0.9,0-0.9,0.7-0.9,1.4h-2.5c0-1.1,0.3-1.8,0.9-2.2c0.6-0.4,1.4-0.6,2.4-0.6
			c3.2,0,3.6,1.4,3.6,3V33.9z M86.5,32.7c0,0.6,0.1,1.4,0.9,1.4c1.5,0,1.3-2,1.3-3C87.5,31.2,86.5,31.1,86.5,32.7z"/>
		<path class="st0" d="M95.1,26.5v1.2h0c0.5-1,1.3-1.3,2.3-1.3v2.3c-2.2-0.1-2.3,1.1-2.3,2v4.9h-2.5v-9H95.1z"/>
		<path class="st0" d="M102.6,35.5v-1h0c-0.5,0.9-1.2,1.2-2.1,1.2c-2.6,0-2.5-2.9-2.5-4.8c0-1.8-0.1-4.6,2.5-4.6
			c0.9,0,1.5,0.3,2.1,1h0v-4.7h2.5v12.9H102.6z M102.5,30.9c0-1.8,0-3.1-1-3.1c-1.1,0-1.1,1.3-1.1,3.1c0,2.3,0.2,3.2,1.1,3.2
			C102.3,34.2,102.5,33.2,102.5,30.9z"/>
		<path class="st0" d="M109.2,22.6v2h-2.5v-2H109.2z M109.2,35.5h-2.5v-9h2.5V35.5z"/>
		<path class="st0" d="M110.6,30.9c0-2.5,0.4-4.6,3.7-4.6s3.7,2.1,3.7,4.6c0,2.8-0.4,4.8-3.7,4.8S110.6,33.7,110.6,30.9z
			 M115.5,30.8c0-1.9-0.1-2.8-1.2-2.8c-1.1,0-1.2,0.9-1.2,2.8c0,2.8,0.2,3.3,1.2,3.3C115.3,34.1,115.5,33.5,115.5,30.8z"/>
		<path class="st0" d="M118.4,26.5h2.6l1.3,6.8h0l1.3-6.8h2.5l-2.5,9h-2.8L118.4,26.5z"/>
		<path class="st0" d="M133.4,33.9c0,0.6,0.1,1.1,0.1,1.7h-2.3l-0.1-1.2h0c-0.5,0.9-1.3,1.4-2.4,1.4c-1.8,0-2.4-1.3-2.4-2.9
			c0-3,2.3-3.1,4.6-3.1v-0.7c0-0.8-0.1-1.3-1-1.3c-0.9,0-0.9,0.7-0.9,1.4h-2.5c0-1.1,0.3-1.8,0.9-2.2c0.6-0.4,1.4-0.6,2.4-0.6
			c3.2,0,3.6,1.4,3.6,3V33.9z M128.8,32.7c0,0.6,0.1,1.4,0.9,1.4c1.5,0,1.3-2,1.3-3C129.7,31.2,128.8,31.1,128.8,32.7z"/>
		<path class="st0" d="M136.9,32.6c0,0.4,0,0.8,0.1,1.1c0.1,0.3,0.4,0.4,0.9,0.4c0.5,0,0.9-0.3,0.9-0.9c0-1.9-4.4-1.5-4.4-4.4
			c0-1.9,1.9-2.5,3.6-2.5c1.7,0,3.3,0.8,3.1,2.8h-2.5c0-0.6-0.1-1-0.3-1.2c-0.2-0.2-0.4-0.2-0.6-0.2c-0.6,0-0.9,0.4-0.9,1
			c0,1.4,4.4,1.4,4.4,4.3c0,1.6-1.3,2.8-3.4,2.8c-2.2,0-3.7-0.6-3.5-3.1H136.9z"/>
		<path class="st0" d="M146.9,29.7c0-1.3-0.3-1.8-1.1-1.8c-1.1,0-1.2,0.9-1.2,2.8c0,2.8,0.2,3.3,1.2,3.3c0.8,0,1.2-0.7,1.2-1.9h2.5
			c0,2.5-1.3,3.5-3.7,3.5c-3.3,0-3.7-2-3.7-4.8c0-2.5,0.4-4.6,3.7-4.6c2.3,0,3.6,1,3.6,3.4H146.9z"/>
		<path class="st0" d="M155.1,34.6L155.1,34.6c-0.3,0.4-0.6,0.7-0.9,0.8c-0.4,0.2-0.8,0.2-1.2,0.2c-1.2,0-2.3-0.7-2.3-2v-7.2h2.5
			v6.3c0,0.8,0.1,1.4,0.9,1.4s0.9-0.6,0.9-1.4v-6.3h2.5v7.2c0,0.6,0,1.2,0.1,1.8h-2.6V34.6z"/>
		<path class="st0" d="M161.8,22.6v12.9h-2.5V22.6H161.8z"/>
		<path class="st0" d="M170.3,33.9c0,0.6,0.1,1.1,0.1,1.7h-2.3l-0.1-1.2h0c-0.5,0.9-1.3,1.4-2.4,1.4c-1.8,0-2.4-1.3-2.4-2.9
			c0-3,2.3-3.1,4.6-3.1v-0.7c0-0.8-0.1-1.3-1-1.3c-0.9,0-0.9,0.7-0.9,1.4h-2.5c0-1.1,0.3-1.8,0.9-2.2c0.6-0.4,1.4-0.6,2.4-0.6
			c3.2,0,3.6,1.4,3.6,3V33.9z M165.7,32.7c0,0.6,0.1,1.4,0.9,1.4c1.5,0,1.3-2,1.3-3C166.6,31.2,165.7,31.1,165.7,32.7z"/>
		<path class="st0" d="M174.2,26.5v1.2h0c0.5-1,1.3-1.3,2.3-1.3v2.3c-2.2-0.1-2.3,1.1-2.3,2v4.9h-2.5v-9H174.2z"/>
		<path class="st0" d="M180.8,22.6h4.5c3.5,0,4.2,2.4,4.2,6.4c0,2,0.3,6.5-4.3,6.5h-4.4V22.6z M183.5,33.5h1.3c1.6,0,2-1.2,2-4.5
			c0-2.4,0-4.5-1.9-4.5h-1.4V33.5z"/>
		<path class="st0" d="M193.7,22.6v2h-2.5v-2H193.7z M193.7,35.5h-2.5v-9h2.5V35.5z"/>
		<path class="st0" d="M197.4,32.6c0,0.4,0,0.8,0.1,1.1c0.1,0.3,0.4,0.4,0.9,0.4c0.5,0,0.9-0.3,0.9-0.9c0-1.9-4.4-1.5-4.4-4.4
			c0-1.9,1.9-2.5,3.6-2.5c1.7,0,3.3,0.8,3.1,2.8h-2.5c0-0.6-0.1-1-0.3-1.2c-0.2-0.2-0.4-0.2-0.6-0.2c-0.6,0-0.9,0.4-0.9,1
			c0,1.4,4.4,1.4,4.4,4.3c0,1.6-1.3,2.8-3.4,2.8c-2.2,0-3.7-0.6-3.5-3.1H197.4z"/>
		<path class="st0" d="M205.1,31.4c0,1.1,0,2.7,1.1,2.7c0.9,0,1.1-0.9,1.1-1.6h2.6c0,1-0.4,1.8-1,2.3c-0.6,0.6-1.5,0.9-2.7,0.9
			c-3.3,0-3.7-2-3.7-4.8c0-2.5,0.4-4.6,3.7-4.6c3.4,0,3.8,2.2,3.7,5.1H205.1z M207.4,30c0-0.9,0-2.1-1.2-2.1c-1.2,0-1.1,1.4-1.1,2.1
			H207.4z"/>
		<path class="st0" d="M218,33.9c0,0.6,0.1,1.1,0.1,1.7h-2.3l-0.1-1.2h0c-0.5,0.9-1.3,1.4-2.4,1.4c-1.8,0-2.4-1.3-2.4-2.9
			c0-3,2.3-3.1,4.6-3.1v-0.7c0-0.8-0.1-1.3-1-1.3c-0.9,0-0.9,0.7-0.9,1.4h-2.5c0-1.1,0.3-1.8,0.9-2.2c0.6-0.4,1.4-0.6,2.4-0.6
			c3.2,0,3.6,1.4,3.6,3V33.9z M213.3,32.7c0,0.6,0.1,1.4,0.9,1.4c1.5,0,1.3-2,1.3-3C214.2,31.2,213.3,31.1,213.3,32.7z"/>
		<path class="st0" d="M221.5,32.6c0,0.4,0,0.8,0.1,1.1c0.1,0.3,0.4,0.4,0.9,0.4c0.5,0,0.9-0.3,0.9-0.9c0-1.9-4.4-1.5-4.4-4.4
			c0-1.9,1.9-2.5,3.6-2.5c1.7,0,3.3,0.8,3.1,2.8h-2.5c0-0.6-0.1-1-0.3-1.2c-0.2-0.2-0.4-0.2-0.6-0.2c-0.6,0-0.9,0.4-0.9,1
			c0,1.4,4.4,1.4,4.4,4.3c0,1.6-1.3,2.8-3.4,2.8c-2.2,0-3.7-0.6-3.5-3.1H221.5z"/>
		<path class="st0" d="M229.2,31.4c0,1.1,0,2.7,1.1,2.7c0.9,0,1.1-0.9,1.1-1.6h2.6c0,1-0.4,1.8-1,2.3c-0.6,0.6-1.5,0.9-2.7,0.9
			c-3.3,0-3.7-2-3.7-4.8c0-2.5,0.4-4.6,3.7-4.6c3.4,0,3.8,2.2,3.7,5.1H229.2z M231.5,30c0-0.9,0-2.1-1.2-2.1c-1.2,0-1.1,1.4-1.1,2.1
			H231.5z"/>
	</g>
</g>
<g>
	<polyline class="st1" points="257.9,21.9 273.4,37.4 257.9,52.9 	"/>
	<g>
		<path class="st0" d="M252.2,40.6c0.2,0,0.4,0,0.6,0c0.2,0,0.4-0.1,0.5-0.1s0.3-0.1,0.5-0.2c0.2-0.1,0.3-0.1,0.5-0.2v-1.9H253
			c-0.1,0-0.1,0-0.2-0.1c0,0-0.1-0.1-0.1-0.2v-0.7h2.6v3.3c-0.2,0.2-0.4,0.3-0.7,0.4c-0.2,0.1-0.5,0.2-0.8,0.3s-0.6,0.1-0.9,0.2
			c-0.3,0-0.6,0.1-1,0.1c-0.6,0-1.2-0.1-1.7-0.3s-1-0.5-1.3-0.9s-0.7-0.8-0.9-1.4s-0.3-1.1-0.3-1.8s0.1-1.3,0.3-1.8s0.5-1,0.9-1.4
			s0.8-0.7,1.4-0.9c0.5-0.2,1.1-0.3,1.8-0.3c0.3,0,0.7,0,0.9,0.1c0.3,0,0.6,0.1,0.8,0.2c0.2,0.1,0.5,0.2,0.7,0.3s0.4,0.3,0.6,0.5
			l-0.3,0.5c-0.1,0.1-0.2,0.2-0.3,0.2s-0.1,0-0.2-0.1c-0.1-0.1-0.2-0.1-0.3-0.2c-0.1-0.1-0.3-0.2-0.5-0.2c-0.2-0.1-0.4-0.1-0.6-0.2
			c-0.2-0.1-0.5-0.1-0.9-0.1c-0.5,0-0.9,0.1-1.3,0.2s-0.7,0.4-1,0.7s-0.5,0.7-0.6,1.1c-0.1,0.4-0.2,0.9-0.2,1.4s0.1,1,0.2,1.5
			s0.4,0.8,0.7,1.1s0.6,0.5,1,0.7C251.3,40.6,251.8,40.6,252.2,40.6z"/>
		<path class="st0" d="M265.2,37.2c0,0.6-0.1,1.2-0.3,1.8c-0.2,0.5-0.5,1-0.9,1.4s-0.8,0.7-1.3,0.9s-1.1,0.3-1.7,0.3
			c-0.6,0-1.2-0.1-1.7-0.3s-1-0.5-1.3-0.9s-0.7-0.9-0.9-1.4s-0.3-1.1-0.3-1.8c0-0.6,0.1-1.2,0.3-1.8s0.5-1,0.9-1.4s0.8-0.7,1.3-0.9
			s1.1-0.3,1.7-0.3c0.6,0,1.2,0.1,1.7,0.3s1,0.5,1.3,0.9s0.7,0.9,0.9,1.4S265.2,36.6,265.2,37.2z M264,37.2c0-0.5-0.1-1-0.2-1.4
			c-0.1-0.4-0.3-0.8-0.6-1.1c-0.3-0.3-0.6-0.5-1-0.7c-0.4-0.2-0.8-0.2-1.3-0.2s-0.9,0.1-1.3,0.2c-0.4,0.1-0.7,0.4-1,0.7
			c-0.3,0.3-0.5,0.6-0.6,1.1c-0.1,0.5-0.2,0.9-0.2,1.4s0.1,1,0.2,1.4c0.1,0.4,0.3,0.8,0.6,1.1c0.3,0.3,0.6,0.5,1,0.7
			c0.4,0.2,0.8,0.2,1.3,0.2s0.9-0.1,1.3-0.2c0.4-0.2,0.7-0.4,1-0.7c0.3-0.3,0.5-0.6,0.6-1.1C263.9,38.1,264,37.7,264,37.2z"/>
	</g>
</g>
<g>
	<g>
		<g>
			<circle class="st2" cx="42.1" cy="3.4" r="0.1"/>
			<circle class="st2" cx="45.8" cy="3.4" r="0.1"/>
			<circle class="st2" cx="49.5" cy="3.4" r="0.1"/>
			<circle class="st2" cx="34.6" cy="7.1" r="0.1"/>
			<circle class="st2" cx="38.3" cy="7.1" r="0.1"/>
			<circle class="st2" cx="42.1" cy="7.1" r="0.5"/>
			<circle class="st2" cx="45.8" cy="7.1" r="0.6"/>
			<circle class="st2" cx="49.5" cy="7.1" r="0.6"/>
			<circle class="st2" cx="53.2" cy="7.1" r="0.1"/>
			<circle class="st2" cx="56.9" cy="7.1" r="0.1"/>
			<circle class="st2" cx="34.6" cy="10.9" r="0.7"/>
			<circle class="st2" cx="38.3" cy="10.9" r="0.7"/>
			<circle class="st2" cx="42.1" cy="10.9" r="1.4"/>
			<circle class="st2" cx="45.8" cy="10.9" r="1.6"/>
			<circle class="st2" cx="49.5" cy="10.9" r="1.6"/>
			<circle class="st2" cx="53.2" cy="10.9" r="1.1"/>
			<circle class="st2" cx="56.9" cy="10.9" r="0.5"/>
			<circle class="st2" cx="60.7" cy="10.9" r="0.1"/>
			<circle class="st2" cx="34.6" cy="14.6" r="1.2"/>
			<circle class="st2" cx="38.3" cy="14.6" r="1.6"/>
			<circle class="st2" cx="42.1" cy="14.6" r="1.6"/>
			<circle class="st2" cx="45.8" cy="14.6" r="1.6"/>
			<circle class="st2" cx="49.5" cy="14.6" r="1.7"/>
			<circle class="st2" cx="53.2" cy="14.6" r="1.6"/>
			<circle class="st2" cx="56.9" cy="14.6" r="1.4"/>
			<circle class="st2" cx="60.7" cy="14.6" r="0.5"/>
			<circle class="st2" cx="64.4" cy="14.6" r="0.1"/>
			<circle class="st2" cx="34.6" cy="18.3" r="1.6"/>
			<circle class="st2" cx="38.3" cy="18.3" r="1.8"/>
			<circle class="st2" cx="42.1" cy="18.3" r="1.7"/>
			<circle class="st2" cx="45.8" cy="18.3" r="1.6"/>
			<circle class="st2" cx="49.5" cy="18.3" r="1.6"/>
			<circle class="st2" cx="53.2" cy="18.3" r="1.7"/>
			<circle class="st2" cx="56.9" cy="18.3" r="1.6"/>
			<circle class="st2" cx="60.7" cy="18.3" r="1.1"/>
			<circle class="st2" cx="64.4" cy="18.3" r="0.5"/>
			<circle class="st2" cx="34.6" cy="22" r="2.3"/>
			<circle class="st2" cx="38.3" cy="22" r="2.3"/>
			<circle class="st2" cx="42.1" cy="22" r="2.2"/>
			<circle class="st2" cx="45.8" cy="22" r="2.1"/>
			<circle class="st2" cx="49.5" cy="22" r="1.9"/>
			<circle class="st2" cx="53.2" cy="22" r="1.7"/>
			<circle class="st2" cx="56.9" cy="22" r="1.6"/>
			<circle class="st2" cx="60.7" cy="22" r="1.6"/>
			<circle class="st2" cx="64.4" cy="22" r="0.5"/>
			<circle class="st2" cx="68.1" cy="22" r="0.1"/>
			<circle class="st2" cx="34.6" cy="25.8" r="2.3"/>
			<circle class="st2" cx="38.3" cy="25.8" r="2.1"/>
			<circle class="st2" cx="42.1" cy="25.8" r="2.1"/>
			<circle class="st2" cx="45.8" cy="25.8" r="2"/>
			<circle class="st2" cx="49.5" cy="25.8" r="1.8"/>
			<circle class="st2" cx="53.2" cy="25.8" r="1.7"/>
			<circle class="st2" cx="56.9" cy="25.8" r="1.6"/>
			<circle class="st2" cx="60.7" cy="25.8" r="1.6"/>
			<circle class="st2" cx="64.4" cy="25.8" r="0.6"/>
			<circle class="st2" cx="68.1" cy="25.8" r="0.1"/>
			<circle class="st2" cx="34.6" cy="29.5" r="2.1"/>
			<circle class="st2" cx="38.3" cy="29.5" r="2.2"/>
			<circle class="st2" cx="42.1" cy="29.5" r="2.1"/>
			<circle class="st2" cx="45.8" cy="29.5" r="1.9"/>
			<circle class="st2" cx="49.5" cy="29.5" r="1.8"/>
			<circle class="st2" cx="53.2" cy="29.5" r="1.7"/>
			<circle class="st2" cx="56.9" cy="29.5" r="1.6"/>
			<circle class="st2" cx="60.7" cy="29.5" r="1.2"/>
			<circle class="st2" cx="64.4" cy="29.5" r="0.5"/>
			<circle class="st2" cx="34.6" cy="33.2" r="2.3"/>
			<circle class="st2" cx="38.3" cy="33.2" r="2.2"/>
			<circle class="st2" cx="42.1" cy="33.2" r="2.1"/>
			<circle class="st2" cx="45.8" cy="33.2" r="1.9"/>
			<circle class="st2" cx="49.5" cy="33.2" r="1.8"/>
			<circle class="st2" cx="53.2" cy="33.2" r="1.6"/>
			<circle class="st2" cx="56.9" cy="33.2" r="1.6"/>
			<circle class="st2" cx="60.7" cy="33.2" r="0.6"/>
			<circle class="st2" cx="64.4" cy="33.2" r="0.1"/>
			<circle class="st2" cx="34.6" cy="36.9" r="2.1"/>
			<circle class="st2" cx="38.3" cy="36.9" r="2.2"/>
			<circle class="st2" cx="42.1" cy="36.9" r="2.1"/>
			<circle class="st2" cx="45.8" cy="36.9" r="1.8"/>
			<circle class="st3" cx="45.8" cy="36.9" r="1.2"/>
			<circle class="st2" cx="49.5" cy="36.9" r="1.7"/>
			<circle class="st3" cx="49.5" cy="36.9" r="1.3"/>
			<circle class="st2" cx="53.2" cy="36.9" r="1.6"/>
			<circle class="st2" cx="56.9" cy="36.9" r="1.2"/>
			<circle class="st2" cx="60.7" cy="36.9" r="0.1"/>
			<circle class="st2" cx="64.4" cy="36.9" r="0.1"/>
			<circle class="st2" cx="34.6" cy="40.6" r="1.9"/>
			<circle class="st2" cx="38.3" cy="40.6" r="2.1"/>
			<circle class="st2" cx="42.1" cy="40.6" r="1.9"/>
			<circle class="st3" cx="42.1" cy="40.6" r="1.3"/>
			<circle class="st2" cx="45.8" cy="40.6" r="1.6"/>
			<circle class="st3" cx="45.8" cy="40.6" r="1.3"/>
			<circle class="st2" cx="49.5" cy="40.6" r="1.6"/>
			<circle class="st3" cx="49.5" cy="40.6" r="1.6"/>
			<circle class="st2" cx="53.2" cy="40.6" r="1.6"/>
			<circle class="st3" cx="53.2" cy="40.6" r="1.2"/>
			<circle class="st2" cx="56.9" cy="40.6" r="0.3"/>
			<circle class="st2" cx="60.7" cy="40.6" r="0.1"/>
			<circle class="st2" cx="34.6" cy="44.4" r="1.7"/>
			<circle class="st2" cx="38.3" cy="44.4" r="1.9"/>
			<circle class="st2" cx="42.1" cy="44.4" r="1.8"/>
			<circle class="st2" cx="45.8" cy="44.4" r="1.6"/>
			<circle class="st3" cx="45.8" cy="44.4" r="1.1"/>
			<circle class="st2" cx="49.5" cy="44.4" r="1.2"/>
			<circle class="st3" cx="49.5" cy="44.4" r="1"/>
			<circle class="st2" cx="53.2" cy="44.4" r="0.3"/>
			<circle class="st2" cx="56.9" cy="44.4" r="0.1"/>
			<circle class="st2" cx="34.6" cy="48.1" r="1.6"/>
			<circle class="st2" cx="38.3" cy="48.1" r="1.8"/>
			<circle class="st2" cx="42.1" cy="48.1" r="1.6"/>
			<circle class="st2" cx="45.8" cy="48.1" r="0.9"/>
			<circle class="st2" cx="49.5" cy="48.1" r="0.3"/>
			<circle class="st2" cx="53.2" cy="48.1" r="0.1"/>
			<circle class="st2" cx="34.6" cy="51.8" r="1.6"/>
			<circle class="st2" cx="38.3" cy="51.8" r="1.2"/>
			<circle class="st2" cx="42.1" cy="51.8" r="0.3"/>
			<circle class="st2" cx="45.8" cy="51.8" r="0.1"/>
			<circle class="st2" cx="34.6" cy="55.5" r="0.1"/>
			<circle class="st2" cx="38.3" cy="55.5" r="0.1"/>
		</g>
		<g>
			<circle class="st2" cx="27.2" cy="3.4" r="0.1"/>
			<circle class="st2" cx="23.5" cy="3.4" r="0.1"/>
			<circle class="st2" cx="19.7" cy="3.4" r="0.1"/>
			<circle class="st2" cx="30.9" cy="7.1" r="0.1"/>
			<circle class="st2" cx="27.2" cy="7.1" r="0.5"/>
			<circle class="st2" cx="23.5" cy="7.1" r="0.6"/>
			<circle class="st2" cx="19.7" cy="7.1" r="0.6"/>
			<circle class="st2" cx="16" cy="7.1" r="0.1"/>
			<circle class="st2" cx="12.3" cy="7.1" r="0.1"/>
			<circle class="st2" cx="30.9" cy="10.9" r="0.7"/>
			<circle class="st2" cx="27.2" cy="10.9" r="1.4"/>
			<circle class="st2" cx="23.5" cy="10.9" r="1.6"/>
			<circle class="st2" cx="19.7" cy="10.9" r="1.6"/>
			<circle class="st2" cx="16" cy="10.9" r="1.1"/>
			<circle class="st2" cx="12.3" cy="10.9" r="0.5"/>
			<circle class="st2" cx="8.6" cy="10.9" r="0.1"/>
			<circle class="st2" cx="30.9" cy="14.6" r="1.6"/>
			<circle class="st2" cx="27.2" cy="14.6" r="1.6"/>
			<circle class="st2" cx="23.5" cy="14.6" r="1.6"/>
			<circle class="st2" cx="19.7" cy="14.6" r="1.7"/>
			<circle class="st2" cx="16" cy="14.6" r="1.6"/>
			<circle class="st2" cx="12.3" cy="14.6" r="1.4"/>
			<circle class="st2" cx="8.6" cy="14.6" r="0.5"/>
			<circle class="st2" cx="4.8" cy="14.6" r="0.1"/>
			<circle class="st2" cx="30.9" cy="18.3" r="1.8"/>
			<circle class="st2" cx="27.2" cy="18.3" r="1.7"/>
			<circle class="st2" cx="23.5" cy="18.3" r="1.6"/>
			<circle class="st2" cx="19.7" cy="18.3" r="1.6"/>
			<circle class="st2" cx="16" cy="18.3" r="1.7"/>
			<circle class="st2" cx="12.3" cy="18.3" r="1.6"/>
			<circle class="st2" cx="8.6" cy="18.3" r="1.1"/>
			<circle class="st2" cx="4.8" cy="18.3" r="0.5"/>
			<circle class="st2" cx="30.9" cy="22" r="2.3"/>
			<circle class="st2" cx="27.2" cy="22" r="2.2"/>
			<circle class="st2" cx="23.5" cy="22" r="2.1"/>
			<circle class="st2" cx="19.7" cy="22" r="1.9"/>
			<circle class="st2" cx="16" cy="22" r="1.7"/>
			<circle class="st2" cx="12.3" cy="22" r="1.6"/>
			<circle class="st2" cx="8.6" cy="22" r="1.6"/>
			<circle class="st2" cx="4.8" cy="22" r="0.5"/>
			<circle class="st2" cx="1.1" cy="22" r="0.1"/>
			<circle class="st2" cx="30.9" cy="25.8" r="2.1"/>
			<circle class="st2" cx="27.2" cy="25.8" r="2.1"/>
			<circle class="st2" cx="23.5" cy="25.8" r="2"/>
			<circle class="st2" cx="19.7" cy="25.8" r="1.8"/>
			<circle class="st2" cx="16" cy="25.8" r="1.7"/>
			<circle class="st2" cx="12.3" cy="25.8" r="1.6"/>
			<circle class="st2" cx="8.6" cy="25.8" r="1.6"/>
			<circle class="st2" cx="4.8" cy="25.8" r="0.6"/>
			<circle class="st2" cx="1.1" cy="25.8" r="0.1"/>
			<circle class="st2" cx="30.9" cy="29.5" r="2.2"/>
			<circle class="st2" cx="27.2" cy="29.5" r="2.1"/>
			<circle class="st2" cx="23.5" cy="29.5" r="1.9"/>
			<circle class="st2" cx="19.7" cy="29.5" r="1.8"/>
			<circle class="st2" cx="16" cy="29.5" r="1.7"/>
			<circle class="st2" cx="12.3" cy="29.5" r="1.6"/>
			<circle class="st2" cx="8.6" cy="29.5" r="1.2"/>
			<circle class="st2" cx="4.8" cy="29.5" r="0.5"/>
			<circle class="st2" cx="30.9" cy="33.2" r="2.2"/>
			<circle class="st2" cx="27.2" cy="33.2" r="2.1"/>
			<circle class="st2" cx="23.5" cy="33.2" r="1.9"/>
			<circle class="st2" cx="19.7" cy="33.2" r="1.8"/>
			<circle class="st2" cx="16" cy="33.2" r="1.6"/>
			<circle class="st2" cx="12.3" cy="33.2" r="1.6"/>
			<circle class="st2" cx="8.6" cy="33.2" r="0.6"/>
			<circle class="st2" cx="4.8" cy="33.2" r="0.1"/>
			<circle class="st2" cx="30.9" cy="36.9" r="2.2"/>
			<circle class="st2" cx="27.2" cy="36.9" r="2.1"/>
			<circle class="st2" cx="23.5" cy="36.9" r="1.8"/>
			<circle class="st2" cx="19.7" cy="36.9" r="1.7"/>
			<circle class="st2" cx="16" cy="36.9" r="1.6"/>
			<circle class="st2" cx="12.3" cy="36.9" r="1.2"/>
			<circle class="st2" cx="8.6" cy="36.9" r="0.1"/>
			<circle class="st2" cx="4.8" cy="36.9" r="0.1"/>
			<circle class="st2" cx="30.9" cy="40.6" r="2.1"/>
			<circle class="st2" cx="27.2" cy="40.6" r="1.9"/>
			<circle class="st2" cx="23.5" cy="40.6" r="1.6"/>
			<circle class="st2" cx="19.7" cy="40.6" r="1.6"/>
			<circle class="st2" cx="16" cy="40.6" r="1.6"/>
			<circle class="st2" cx="12.3" cy="40.6" r="0.3"/>
			<circle class="st2" cx="8.6" cy="40.6" r="0.1"/>
			<circle class="st2" cx="30.9" cy="44.4" r="1.9"/>
			<circle class="st2" cx="27.2" cy="44.4" r="1.8"/>
			<circle class="st2" cx="23.5" cy="44.4" r="1.6"/>
			<circle class="st2" cx="19.7" cy="44.4" r="1.2"/>
			<circle class="st2" cx="16" cy="44.4" r="0.3"/>
			<circle class="st2" cx="12.3" cy="44.4" r="0.1"/>
			<circle class="st2" cx="30.9" cy="48.1" r="1.8"/>
			<circle class="st2" cx="27.2" cy="48.1" r="1.6"/>
			<circle class="st2" cx="23.5" cy="48.1" r="0.9"/>
			<circle class="st2" cx="19.7" cy="48.1" r="0.3"/>
			<circle class="st2" cx="16" cy="48.1" r="0.1"/>
			<circle class="st2" cx="30.9" cy="51.8" r="1.2"/>
			<circle class="st2" cx="27.2" cy="51.8" r="0.3"/>
			<circle class="st2" cx="23.5" cy="51.8" r="0.1"/>
			<circle class="st2" cx="30.9" cy="55.5" r="0.1"/>
		</g>
	</g>
</g>
</svg>
