<?xml version="1.0" encoding="utf-8"?>
<!-- Generator: Adobe Illustrator 21.1.0, SVG Export Plug-In . SVG Version: 6.00 Build 0)  -->
<svg version="1.1" id="Layer_1" xmlns="http://www.w3.org/2000/svg" xmlns:xlink="http://www.w3.org/1999/xlink" x="0px" y="0px"
	 viewBox="0 0 267.4 59.7" style="enable-background:new 0 0 267.4 59.7;" xml:space="preserve">
<style type="text/css">
	.st0{fill:#010101;}
	.st1{fill:url(#SVGID_1_);}
	.st2{fill:#FFFFFF;}
	.st3{fill:#249248;}
	.st4{fill:#94C940;}
	.st5{fill:#929390;}
	.st6{fill:#55B748;}
	.st7{fill:#EDE80C;}
	.st8{fill:#F69320;}
	.st9{fill:#FFC113;}
	.st10{fill:#BED530;}
	.st11{fill:#EB2227;}
	.st12{fill:#BDD96D;}
	.st13{fill:none;stroke:#010101;stroke-miterlimit:10;}
</style>
<g>
	<path class="st0" d="M63.5,40.6h1.2v6.8l3.5-6.8h1.2l-2.7,5.6l3.2,7.4h-1.2L65.8,47l-1.2,2.1v4.4h-1.2L63.5,40.6L63.5,40.6z"/>
	<path class="st0" d="M70.8,44.3H72v1c0.3-0.3,0.7-0.6,1-0.8c0.4-0.2,0.8-0.3,1.2-0.3c0.5,0,0.8,0.2,1.1,0.5
		c0.2,0.3,0.4,0.8,0.4,1.5v7.4h-1.2v-7.2c0-0.5-0.1-0.8-0.2-1s-0.4-0.3-0.7-0.3c-0.3,0-0.5,0.1-0.8,0.2c-0.3,0.2-0.5,0.4-0.8,0.6
		v7.6h-1.2V44.3z"/>
	<path class="st0" d="M77.7,52.8c-0.4-0.6-0.5-1.4-0.5-2.6v-2.6c0-1.2,0.2-2.1,0.5-2.6c0.4-0.6,1-0.9,1.9-0.9s1.6,0.3,1.9,0.9
		c0.4,0.6,0.5,1.4,0.5,2.6v2.6c0,1.2-0.2,2.1-0.5,2.6c-0.4,0.6-1,0.9-1.9,0.9S78.1,53.4,77.7,52.8z M80.5,52.5
		c0.2-0.2,0.3-0.5,0.4-0.8c0.1-0.4,0.1-0.8,0.1-1.4v-2.7c0-0.6,0-1.1-0.1-1.4s-0.2-0.6-0.4-0.8C80.3,45.1,80,45,79.6,45
		s-0.7,0.1-0.9,0.3c-0.2,0.2-0.3,0.5-0.4,0.8s-0.1,0.8-0.1,1.4v2.7c0,0.6,0,1.1,0.1,1.4c0.1,0.3,0.2,0.6,0.4,0.8
		c0.2,0.2,0.5,0.3,0.9,0.3C80,52.8,80.3,52.7,80.5,52.5z"/>
	<path class="st0" d="M83.3,44.3h1l1.2,7.7l1.5-7.7h1l1.5,7.7l1.1-7.7h1L90,53.5h-1.1L87.4,46L86,53.5h-1.2L83.3,44.3z"/>
	<path class="st0" d="M93,40.6h1.2v13H93V40.6z"/>
	<path class="st0" d="M96.9,53.3c-0.4-0.2-0.6-0.6-0.8-1.1c-0.2-0.5-0.3-1.2-0.3-2.1v-2.3c0-0.9,0.1-1.6,0.3-2.1
		c0.2-0.5,0.4-0.9,0.8-1.1c0.4-0.2,0.8-0.3,1.4-0.3s1.1,0.1,1.5,0.4c0.3,0.3,0.6,0.7,0.7,1.2s0.2,1.3,0.2,2.2v0.8H97v1.4
		c0,0.7,0,1.2,0.1,1.5c0.1,0.4,0.2,0.6,0.4,0.8s0.5,0.3,0.8,0.3c0.4,0,0.7-0.1,0.9-0.4s0.3-0.7,0.3-1.4v-0.6h1.1V51
		c0,0.9-0.2,1.6-0.6,2.1s-1,0.7-1.8,0.7C97.8,53.7,97.3,53.5,96.9,53.3z M99.7,48.1v-0.8c0-0.6,0-1-0.1-1.3s-0.2-0.6-0.4-0.8
		C99,45.1,98.8,45,98.4,45c-0.3,0-0.6,0.1-0.8,0.2c-0.2,0.1-0.3,0.4-0.4,0.8c-0.1,0.4-0.1,0.9-0.1,1.5v0.6H99.7z"/>
	<path class="st0" d="M102.7,52.8c-0.3-0.6-0.5-1.6-0.5-3v-1.7c0-1.3,0.2-2.3,0.5-3s0.9-1,1.7-1c0.6,0,1.1,0.3,1.6,0.8v-4.4h1.2v13
		H106v-0.7c-0.5,0.5-1,0.8-1.6,0.8C103.6,53.7,103.1,53.4,102.7,52.8z M106,52.1v-6.4c-0.5-0.4-0.9-0.7-1.4-0.7s-0.8,0.2-1,0.6
		c-0.2,0.4-0.3,1.1-0.3,2v2.2c0,1,0.1,1.7,0.3,2.2c0.2,0.4,0.5,0.7,1,0.7C105.1,52.7,105.6,52.5,106,52.1z"/>
	<path class="st0" d="M109.2,56.2c-0.5-0.2-0.8-0.6-0.8-1.2c0-0.4,0.1-0.9,0.4-1.2s0.7-0.7,1.1-0.9c-0.3-0.1-0.5-0.2-0.7-0.3
		s-0.3-0.3-0.3-0.5c0-0.3,0.1-0.6,0.3-0.9s0.5-0.6,0.8-1c-0.4-0.3-0.7-0.7-0.9-1.1s-0.3-1-0.3-1.7c0-0.9,0.2-1.7,0.7-2.3
		c0.4-0.6,1.1-0.9,1.9-0.9c0.9,0,1.6,0.4,2,1.2c0.1-0.2,0.3-0.3,0.5-0.6s0.5-0.4,0.8-0.5l0.2-0.1l0.3,0.8c-0.3,0-0.5,0.1-0.9,0.3
		c-0.3,0.2-0.5,0.3-0.7,0.5c0.1,0.2,0.1,0.5,0.2,0.8s0.1,0.6,0.1,0.8c0,1-0.2,1.8-0.6,2.4c-0.4,0.6-1.1,0.9-1.9,0.9
		c-0.2,0-0.3,0-0.5,0s-0.3-0.1-0.4-0.1c0,0.1-0.1,0.2-0.2,0.3c-0.1,0.2-0.2,0.3-0.3,0.5s-0.1,0.3-0.1,0.4c0,0.2,0.3,0.3,0.8,0.4
		c0.1,0,0.3,0.1,0.5,0.1s0.5,0.1,0.6,0.1c0.2,0,0.3,0,0.3,0c0.8,0.1,1.3,0.4,1.7,0.7c0.4,0.3,0.6,0.8,0.6,1.4c0,0.7-0.3,1.3-0.8,1.6
		s-1.2,0.5-2.1,0.5C110.5,56.6,109.7,56.4,109.2,56.2z M112.9,55.3c0.4-0.2,0.5-0.5,0.5-0.9c0-0.3-0.1-0.6-0.4-0.8
		c-0.2-0.2-0.7-0.3-1.4-0.5l-1.2-0.2c-0.8,0.5-1.2,1-1.2,1.6c0,0.4,0.2,0.6,0.5,0.8s0.9,0.2,1.6,0.2
		C112.1,55.6,112.6,55.5,112.9,55.3z M112.6,49.1c0.2-0.4,0.3-1,0.3-1.7c0-1.6-0.5-2.4-1.5-2.4c-0.6,0-1,0.2-1.2,0.7s-0.3,1-0.3,1.7
		c0,1.6,0.5,2.4,1.6,2.4C112,49.8,112.4,49.5,112.6,49.1z"/>
	<path class="st0" d="M116.8,53.3c-0.4-0.2-0.6-0.6-0.8-1.1c-0.2-0.5-0.3-1.2-0.3-2.1v-2.3c0-0.9,0.1-1.6,0.3-2.1
		c0.2-0.5,0.4-0.9,0.8-1.1c0.4-0.2,0.8-0.3,1.4-0.3s1.1,0.1,1.5,0.4c0.3,0.3,0.6,0.7,0.7,1.2s0.2,1.3,0.2,2.2v0.8h-3.7v1.4
		c0,0.7,0,1.2,0.1,1.5c0.1,0.4,0.2,0.6,0.4,0.8s0.5,0.3,0.8,0.3c0.4,0,0.7-0.1,0.9-0.4s0.3-0.7,0.3-1.4v-0.6h1.1V51
		c0,0.9-0.2,1.6-0.6,2.1s-1,0.7-1.8,0.7C117.6,53.7,117.1,53.5,116.8,53.3z M119.5,48.1v-0.8c0-0.6,0-1-0.1-1.3s-0.2-0.6-0.4-0.8
		c-0.2-0.2-0.5-0.3-0.8-0.3s-0.6,0.1-0.8,0.2c-0.2,0.1-0.3,0.4-0.4,0.8c-0.1,0.4-0.1,0.9-0.1,1.5V48L119.5,48.1L119.5,48.1z"/>
	<path class="st0" d="M125.7,40.6h3.1c1.1,0,1.9,0.3,2.4,0.9c0.5,0.6,0.7,1.4,0.7,2.5c0,1-0.2,1.8-0.7,2.4c-0.5,0.6-1.3,0.9-2.3,0.9
		H127v6.1h-1.2L125.7,40.6L125.7,40.6z M128.5,46.5c0.8,0,1.4-0.2,1.7-0.6c0.3-0.4,0.5-1,0.5-1.9c0-0.7-0.1-1.2-0.2-1.5
		c-0.1-0.4-0.3-0.6-0.7-0.8c-0.3-0.1-0.8-0.2-1.3-0.2h-1.6v5H128.5z"/>
	<path class="st0" d="M133.4,52.8c-0.4-0.6-0.5-1.4-0.5-2.6v-2.6c0-1.2,0.2-2.1,0.5-2.6c0.4-0.6,1-0.9,1.9-0.9s1.6,0.3,1.9,0.9
		c0.4,0.6,0.5,1.4,0.5,2.6v2.6c0,1.2-0.2,2.1-0.5,2.6c-0.4,0.6-1,0.9-1.9,0.9S133.8,53.4,133.4,52.8z M136.2,52.5
		c0.2-0.2,0.3-0.5,0.4-0.8c0.1-0.4,0.1-0.8,0.1-1.4v-2.7c0-0.6,0-1.1-0.1-1.4c-0.1-0.4-0.2-0.6-0.4-0.8c-0.2-0.2-0.5-0.3-0.9-0.3
		s-0.7,0.1-0.9,0.3c-0.2,0.2-0.3,0.5-0.4,0.8c-0.1,0.3-0.1,0.8-0.1,1.4v2.7c0,0.6,0,1.1,0.1,1.4s0.2,0.6,0.4,0.8
		c0.2,0.2,0.5,0.3,0.9,0.3S136,52.7,136.2,52.5z"/>
	<path class="st0" d="M139.5,44.3h1.2v1.3c0.3-0.5,0.6-0.8,1-1s0.8-0.3,1.1-0.3c0.1,0,0.2,0,0.2,0v1.2c-0.2-0.1-0.4-0.1-0.6-0.1
		c-0.7,0-1.3,0.4-1.8,1.1v7.1h-1.2v-9.3H139.5z"/>
	<path class="st0" d="M145.1,53.1c-0.2-0.3-0.4-0.9-0.4-1.5V45h-1.1v-0.8h1.1v-2.9h1.2v2.9h1.5V45h-1.5v6.4c0,0.5,0.1,0.8,0.2,1
		c0.1,0.2,0.3,0.3,0.7,0.3c0.2,0,0.4,0,0.7-0.1v0.9c-0.3,0.1-0.7,0.1-1,0.1C145.7,53.6,145.3,53.5,145.1,53.1z"/>
	<path class="st0" d="M148.9,53.1c-0.3-0.4-0.5-0.9-0.5-1.5s0.1-1.1,0.4-1.5c0.2-0.4,0.6-0.7,1.1-1s1.3-0.7,2.3-1.2v-0.7
		c0-0.6,0-1-0.1-1.3s-0.2-0.5-0.4-0.7c-0.2-0.1-0.4-0.2-0.7-0.2c-0.9,0-1.3,0.5-1.3,1.6v0.3h-1.2v-0.3c0-0.9,0.3-1.5,0.7-1.9
		s1-0.6,1.8-0.6c0.8,0,1.4,0.2,1.7,0.7c0.3,0.5,0.5,1.3,0.5,2.3v4.5c0,0.3,0,0.6,0,1s0,0.7,0.1,0.8h-1l-0.2-1.3
		c-0.1,0.4-0.4,0.7-0.7,1c-0.3,0.3-0.7,0.4-1.2,0.4C149.7,53.7,149.3,53.5,148.9,53.1z M151.5,52.3c0.3-0.2,0.5-0.5,0.6-0.8v-2.9
		c-0.7,0.4-1.3,0.7-1.6,0.9c-0.3,0.2-0.5,0.4-0.7,0.7c-0.2,0.3-0.3,0.6-0.3,1c0,0.5,0.1,0.8,0.3,1c0.2,0.2,0.5,0.3,0.8,0.3
		C151,52.7,151.3,52.6,151.5,52.3z"/>
	<path class="st0" d="M155.2,40.6h1.2v13h-1.2V40.6z"/>
	<g>
		<path d="M63.1,28.9c0-3.3,0-6.5,4.3-6.5c2.7,0,3.8,1.5,3.7,4.2h-2.6c0-1.7-0.3-2.3-1.1-2.3c-1.5,0-1.7,1.4-1.7,4.6
			c0,3.2,0.2,4.6,1.7,4.6c1.2,0,1.2-1.6,1.2-2.6h2.6c0,3.4-1.3,4.4-3.8,4.4C63.1,35.4,63.1,32.2,63.1,28.9z"/>
		<path d="M74.5,31.2c0,1,0,2.6,1.1,2.6c0.9,0,1-0.8,1-1.6h2.5c0,1-0.3,1.7-0.9,2.3c-0.6,0.5-1.4,0.9-2.6,0.9
			c-3.2,0-3.6-1.9-3.6-4.7c0-2.4,0.3-4.5,3.6-4.5c3.3,0,3.7,2.1,3.6,5H74.5z M76.7,29.8c0-0.9,0-2.1-1.1-2.1c-1.1,0-1.1,1.3-1.1,2.1
			H76.7z"/>
		<path d="M82.7,26.4v1.1h0c0.5-1,1.3-1.3,2.3-1.3v2.2c-2.2-0.1-2.2,1.1-2.2,2v4.8h-2.5v-8.8H82.7z"/>
		<path d="M87.9,31.2c0,1,0,2.6,1.1,2.6c0.9,0,1-0.8,1-1.6h2.5c0,1-0.3,1.7-0.9,2.3C91,35,90.1,35.4,89,35.4c-3.2,0-3.6-1.9-3.6-4.7
			c0-2.4,0.3-4.5,3.6-4.5c3.3,0,3.7,2.1,3.6,5H87.9z M90.1,29.8c0-0.9,0-2.1-1.1-2.1c-1.1,0-1.1,1.3-1.1,2.1H90.1z"/>
		<path d="M93.8,22.6h2.5v4.6h0c0.5-0.7,1.1-1,2-1c2.5,0,2.4,2.7,2.4,4.5c0,1.8,0.1,4.6-2.5,4.6c-0.9,0-1.6-0.3-2.1-1.1h0v1h-2.3
			V22.6z M98.2,30.7c0-1.8,0-3-1-3c-1,0-1,1.2-1,3c0,2.2,0.2,3.1,1,3.1C98.1,33.8,98.2,32.9,98.2,30.7z"/>
		<path d="M104.2,26.4v1.1h0c0.5-1,1.3-1.3,2.3-1.3v2.2c-2.2-0.1-2.2,1.1-2.2,2v4.8h-2.5v-8.8H104.2z"/>
		<path d="M106.9,30.7c0-2.4,0.3-4.5,3.6-4.5s3.6,2.1,3.6,4.5c0,2.7-0.4,4.7-3.6,4.7S106.9,33.4,106.9,30.7z M111.7,30.5
			c0-1.8-0.1-2.8-1.1-2.8s-1.1,0.9-1.1,2.8c0,2.7,0.2,3.3,1.1,3.3S111.7,33.2,111.7,30.5z"/>
		<path d="M117.2,32.4c0,0.4,0,0.8,0.1,1.1c0.1,0.3,0.4,0.4,0.9,0.4c0.5,0,0.9-0.3,0.9-0.9c0-1.9-4.3-1.4-4.3-4.2
			c0-1.9,1.9-2.5,3.5-2.5c1.7,0,3.2,0.8,3,2.7h-2.4c0-0.6-0.1-1-0.2-1.1c-0.2-0.2-0.4-0.2-0.6-0.2c-0.5,0-0.8,0.3-0.8,0.9
			c0,1.4,4.3,1.3,4.3,4.1c0,1.5-1.3,2.7-3.3,2.7c-2.1,0-3.6-0.5-3.4-3H117.2z"/>
		<path d="M126.9,29.5c0-1.3-0.3-1.7-1.1-1.7c-1,0-1.1,0.9-1.1,2.8c0,2.7,0.2,3.3,1.1,3.3c0.8,0,1.1-0.7,1.1-1.8h2.5
			c0,2.4-1.3,3.4-3.6,3.4c-3.2,0-3.6-1.9-3.6-4.7c0-2.4,0.3-4.5,3.6-4.5c2.3,0,3.6,1,3.6,3.3H126.9z"/>
		<path d="M134.9,34.3L134.9,34.3c-0.3,0.4-0.6,0.7-0.9,0.8c-0.3,0.2-0.7,0.2-1.2,0.2c-1.2,0-2.2-0.7-2.2-1.9v-7.1h2.5v6.1
			c0,0.8,0.1,1.4,0.9,1.4s0.9-0.6,0.9-1.4v-6.1h2.5v7.1c0,0.6,0,1.2,0.1,1.7h-2.5V34.3z"/>
		<path d="M141.4,22.6v12.6H139V22.6H141.4z"/>
		<path d="M149.7,33.5c0,0.5,0.1,1.1,0.1,1.6h-2.3l-0.1-1.2h0c-0.5,0.9-1.2,1.3-2.3,1.3c-1.7,0-2.3-1.3-2.3-2.8c0-2.9,2.2-3,4.5-3
			v-0.7c0-0.7-0.1-1.3-1-1.3c-0.9,0-0.9,0.6-0.9,1.3H143c0-1.1,0.3-1.7,0.9-2.1c0.6-0.4,1.4-0.6,2.3-0.6c3.1,0,3.5,1.3,3.5,2.9V33.5
			z M145.2,32.4c0,0.6,0.1,1.4,0.9,1.4c1.4,0,1.2-2,1.2-2.9C146.1,31,145.2,30.9,145.2,32.4z"/>
		<path d="M153.5,26.4v1.1h0c0.5-1,1.3-1.3,2.3-1.3v2.2c-2.2-0.1-2.2,1.1-2.2,2v4.8h-2.5v-8.8H153.5z"/>
		<path d="M159.9,22.6h4.4c3.4,0,4.1,2.3,4.1,6.2c0,1.9,0.3,6.4-4.2,6.4h-4.3V22.6z M162.6,33.2h1.3c1.6,0,1.9-1.2,1.9-4.4
			c0-2.3,0-4.4-1.8-4.4h-1.4V33.2z"/>
		<path d="M172.5,22.6v1.9H170v-1.9H172.5z M172.5,35.2H170v-8.8h2.5V35.2z"/>
		<path d="M176.1,32.4c0,0.4,0,0.8,0.1,1.1c0.1,0.3,0.4,0.4,0.9,0.4c0.5,0,0.9-0.3,0.9-0.9c0-1.9-4.3-1.4-4.3-4.2
			c0-1.9,1.9-2.5,3.5-2.5c1.7,0,3.2,0.8,3,2.7h-2.4c0-0.6-0.1-1-0.2-1.1c-0.2-0.2-0.4-0.2-0.6-0.2c-0.5,0-0.8,0.3-0.8,0.9
			c0,1.4,4.3,1.3,4.3,4.1c0,1.5-1.3,2.7-3.3,2.7c-2.1,0-3.6-0.5-3.4-3H176.1z"/>
		<path d="M183.6,31.2c0,1,0,2.6,1.1,2.6c0.9,0,1-0.8,1-1.6h2.5c0,1-0.3,1.7-0.9,2.3c-0.6,0.5-1.4,0.9-2.6,0.9
			c-3.2,0-3.6-1.9-3.6-4.7c0-2.4,0.3-4.5,3.6-4.5c3.3,0,3.7,2.1,3.6,5H183.6z M185.8,29.8c0-0.9,0-2.1-1.1-2.1
			c-1.1,0-1.1,1.3-1.1,2.1H185.8z"/>
		<path d="M196.1,33.5c0,0.5,0.1,1.1,0.1,1.6H194l-0.1-1.2h0c-0.5,0.9-1.2,1.3-2.3,1.3c-1.7,0-2.3-1.3-2.3-2.8c0-2.9,2.2-3,4.5-3
			v-0.7c0-0.7-0.1-1.3-1-1.3c-0.9,0-0.9,0.6-0.9,1.3h-2.4c0-1.1,0.3-1.7,0.9-2.1c0.6-0.4,1.4-0.6,2.3-0.6c3.1,0,3.5,1.3,3.5,2.9
			V33.5z M191.6,32.4c0,0.6,0.1,1.4,0.9,1.4c1.4,0,1.2-2,1.2-2.9C192.5,31,191.6,30.9,191.6,32.4z"/>
		<path d="M199.5,32.4c0,0.4,0,0.8,0.1,1.1c0.1,0.3,0.4,0.4,0.9,0.4c0.5,0,0.9-0.3,0.9-0.9c0-1.9-4.3-1.4-4.3-4.2
			c0-1.9,1.9-2.5,3.5-2.5c1.7,0,3.2,0.8,3,2.7h-2.4c0-0.6-0.1-1-0.2-1.1c-0.2-0.2-0.4-0.2-0.6-0.2c-0.5,0-0.8,0.3-0.8,0.9
			c0,1.4,4.3,1.3,4.3,4.1c0,1.5-1.3,2.7-3.3,2.7c-2.1,0-3.6-0.5-3.4-3H199.5z"/>
		<path d="M207,31.2c0,1,0,2.6,1.1,2.6c0.9,0,1-0.8,1-1.6h2.5c0,1-0.3,1.7-0.9,2.3c-0.6,0.5-1.4,0.9-2.6,0.9c-3.2,0-3.6-1.9-3.6-4.7
			c0-2.4,0.3-4.5,3.6-4.5c3.3,0,3.7,2.1,3.6,5H207z M209.3,29.8c0-0.9,0-2.1-1.1-2.1c-1.1,0-1.1,1.3-1.1,2.1H209.3z"/>
	</g>
</g>
<g>
	
		<linearGradient id="SVGID_1_" gradientUnits="userSpaceOnUse" x1="27.3" y1="61.7" x2="27.3" y2="8.1" gradientTransform="matrix(1 0 0 -1 0 62)">
		<stop  offset="0" style="stop-color:#B2D236"/>
		<stop  offset="0.6687" style="stop-color:#D7DE27"/>
	</linearGradient>
	<path class="st1" d="M54.1,52.5c0,0.8-0.6,1.4-1.4,1.4H1.9c-0.8,0-1.4-0.6-1.4-1.4V1.7c0-0.8,0.6-1.4,1.4-1.4h50.8
		c0.8,0,1.4,0.6,1.4,1.4C54.1,1.7,54.1,52.5,54.1,52.5z"/>
	<path class="st2" d="M49.4,21.3c0-10.5-9.2-19-20.6-19S9.2,9.6,7.8,21.2c-0.1,1.1,0.5,2.3,0.7,3.3C8.8,25.7,9,26,8.9,26.6
		c-0.7,2.2-4.2,7.2-4.2,7.2S3.9,35.2,5,35.9c0.5,0.4,4.4,0.6,4.6,0.9c0.2,0.2,1,7.6,2.1,9.2c1.1,1.6,3.2,1.7,5.1,1.4
		c0.9-0.1,3-0.8,3.8-0.8c5.2-1.1,3.8,10.2,5.1,9.7l14.5,0.1c0.8-0.4,5-1.4,4.8-2c-0.2-0.5-5.3-12.8-3.8-15c3.1-4.7,4.6-7.4,4.6-7.4
		C48.1,28.9,49.4,25.2,49.4,21.3z"/>
	<path class="st3" d="M12.6,17.2c0.1-0.4,0.7-0.4,0.7-0.4s0.4,0.3,0.3,0.7c-0.1,0.4-0.8,0.9-0.8,0.9S12.4,17.7,12.6,17.2z"/>
	<path class="st4" d="M13.4,20.3c0.3-0.3,0.7-0.1,0.7-0.1s0.3,0.4,0,0.7c-0.3,0.3-1,0.4-1,0.4S13.1,20.6,13.4,20.3z"/>
	<path class="st4" d="M14.4,21.2c0.3-0.4,0.8-0.1,0.8-0.1s0.3,0.4,0,0.8S14,22.5,14,22.5S14,21.6,14.4,21.2z"/>
	<path class="st5" d="M45.3,19.8c-0.8,0.9-1.6,1.1-2.9,1.4c-0.7,0.2-1.9,0.2-3,0.8c-0.1,0.1-0.2,0.1-0.4,0.2c0-0.5,0.2-1.1,0.6-1.7
		c0.9-1.3,2.4-1.4,3.2-1.9c0.9-0.5,1.4-1.3,1.6-2.5c0,0-0.5,1.9-2.5,2.4c-1.2,0.3-2.5,1-3.1,2.1c-0.5,0.8-0.6,1.8-0.6,2.2
		c-0.7,0.6-1,1.1-1.2,1.4c0,0-0.5-0.7-1.5-1.5v-0.1c-2.1-3.9-2.1-5.3-1.4-6.3c1.2-1.6,3.6-1.1,6-2.9c2.1-1.6,2.1-3.8,2.1-3.8
		S41.8,11.7,40,13c-2.1,1.5-3.6,1.3-5,1.8c0,0-0.1,0-0.1,0.1c0-0.1,0.1-0.2,0.1-0.3c0.2-0.9-0.2-1.9-0.7-2.7c-1-2,0.4-3.9,0.4-3.9
		c-0.5,0.7-1.2,1.7-0.8,3.4c0.2,0.7,1,1.5,0.8,2.6c-0.1,0.5-0.4,1.1-0.7,1.4l0,0c-0.7,0.6-1.1,1.4-1.2,2.1c-0.1,1.4,0.3,2.6,1.1,4.1
		c-0.7-0.4-1.5-0.6-2.4-0.8c-0.5-0.4-1.6-1.5-1.4-2.8c0.2-1.6,0.5-2.9,0-4.2c-0.6-1.7-2-2.4-3-2.7c-2.3-2.6-1.5-5.5-1.5-5.5
		s-1.2,2.8,0.6,5.3h-0.1c-0.7,0-3.9-0.9-5.5-2.9c0,0,1.6,2.6,5.1,3.4c1.9,0.4,2.6,0.8,3.3,1.8c0.7,1.1,0.5,2.2,0.1,4.5
		c-0.2,1.4,0.1,2.3,0.6,3.2c-0.7,0-1.5,0.2-2.3,0.4c-0.2,0.1-0.5,0.1-0.7,0.2c0-0.4-0.1-1.4-1.1-2.4V19c-0.2-0.6-0.5-1.2-0.3-1.8
		c0.2-0.6,0.6-0.8,0.9-1.7c0.3-0.9-0.1-1.8-0.9-2.6c0,0,1.5,1.7,0.3,3.2c-0.8,0.9-0.7,1.6-0.5,2.4c-1.2-0.9-2.3-1.1-3.2-2.2
		c-1.2-1.5,0.1-4,0.1-4s-0.7,1-0.8,2.4c-0.1,1.1,0.5,1.9,0.9,2.4c0.8,1.1,2.1,1.3,3.2,2.4c0.9,0.9,0.6,1.8,0.6,2.4
		c-2.5,0.4-4.7-0.3-6.1-2c-3-3.5-0.3-11.4-0.3-11.4s-2.1,3.7-1.6,8.6c-2.5-2.9-5.4-1.2-5.4-1.2s3.6-1.3,5.6,2.6
		c0.1,0.6,0.4,1.1,0.7,1.7l0,0l0,0c0.6,1,1.5,1.8,2.8,2.5c-0.4,0.2-1.4,0.6-2.1,0.5s-0.8-0.9-1.8-1.2c-0.6-0.2-0.9-0.2-1.3-0.3
		c-0.3-0.1-0.4-1-0.9-1.3c-0.2-0.1-0.7-0.2-1-0.2s-0.7-0.3-0.7-0.3c0.1,0.3,0.7,0.6,1,0.6s0.5,0.1,0.8,0.8c0.3,0.8,0.6,0.7,1.5,1
		s0.8,1.1,1.8,1.5s2.3,0,3.5-0.4c0.3-0.1,0.6-0.2,0.9-0.2c3.3,0.8,4.9-0.8,7.6-0.2c4.4,0.9,4.5,3.7,4.7,5.9c0,0.3,0,0.6-0.1,1
		c-0.1-0.1-0.2-0.2-0.3-0.3c-0.5-0.6-0.3-1.9-1.2-3c-0.4-0.5-1.2-1.3-2.6-1.1c-1.5,0.2-2.3,1.6-4.8,1.4c-2.2-0.1-4-1.7-4-1.7
		s1.1,1.8,3.8,2.1c3.8,0.4,4.1-1.8,6.2-1c1.1,0.5,1,1.7,1.4,3.3c0.2,0.7,0.6,1.2,1.1,1.7c-1.2,5.4-2.3,15.3,2.2,22.8H42
		c0,0-7.3-10.8-3.9-23.6c0,0,0.3-2.3-0.1-3.7C37.9,26,38.6,24,40,23c1.8-1.2,4.4-1,5.6-2.7c0.7-1.1,0.9-3.7,0.9-3.7
		S46.1,18.9,45.3,19.8z"/>
	<path class="st3" d="M33.4,6.7C33.3,7.1,32.8,7,32.8,7s-0.3-0.3-0.2-0.7c0.2-0.4,0.8-0.7,0.8-0.7S33.6,6.4,33.4,6.7z"/>
	<path class="st6" d="M21.7,7.5c-0.1,0.4-0.6,0.4-0.6,0.4s-0.4-0.2-0.3-0.6s0.7-0.9,0.7-0.9S21.8,7.1,21.7,7.5z"/>
	<path class="st6" d="M22.8,8.4C22.6,8.8,22,8.7,22,8.7S21.7,8.4,21.9,8c0.2-0.4,1-0.8,1-0.8S23,8,22.8,8.4z"/>
	<path class="st6" d="M23.7,9.3c-0.3,0.4-0.8,0.1-0.8,0.1S22.6,8.9,23,8.5C23.3,8.1,24.2,8,24.2,8S24.1,8.9,23.7,9.3z"/>
	<path class="st3" d="M24.8,9.8C24.5,10.2,24,9.9,24,9.9s-0.3-0.5,0.1-0.8c0.3-0.4,1.2-0.5,1.2-0.5S25.2,9.5,24.8,9.8z"/>
	<path class="st4" d="M19.6,17.5c-0.3,0.2-0.7-0.1-0.7-0.1s-0.1-0.4,0.2-0.6c0.3-0.2,1-0.1,1-0.1S19.9,17.3,19.6,17.5z"/>
	<path class="st4" d="M19.3,16.2c-0.3,0.2-0.7-0.1-0.7-0.1s-0.1-0.4,0.2-0.6c0.3-0.2,1-0.1,1-0.1S19.7,16,19.3,16.2z"/>
	<path class="st4" d="M19.1,15.1c-0.3,0.2-0.7-0.1-0.7-0.1s-0.1-0.4,0.2-0.6c0.3-0.2,1-0.1,1-0.1S19.5,14.9,19.1,15.1z"/>
	<path class="st4" d="M19.1,13.9c-0.4,0-0.5-0.4-0.5-0.4s0.1-0.4,0.5-0.5c0.4,0,1,0.3,1,0.3S19.5,13.9,19.1,13.9z"/>
	<path class="st4" d="M19.2,12.9c-0.4,0.1-0.5-0.3-0.5-0.3s0-0.4,0.4-0.5s0.9,0.3,0.9,0.3S19.5,12.8,19.2,12.9z"/>
	<path class="st6" d="M19.2,7.6C19.4,8,19,8.2,19,8.2s-0.4,0-0.6-0.4c-0.1-0.4,0.1-1,0.1-1S19.1,7.2,19.2,7.6z"/>
	<path class="st4" d="M15.3,22.3c0.2-0.5,0.8-0.3,0.8-0.3s0.4,0.4,0.2,0.8c-0.2,0.5-1,0.8-1,0.8S15.1,22.8,15.3,22.3z"/>
	<path class="st4" d="M16.3,17.4c0.2-0.4,0.7-0.3,0.7-0.3s0.4,0.3,0.2,0.8c-0.2,0.4-1,0.7-1,0.7S16,17.8,16.3,17.4z"/>
	<path class="st4" d="M15,16.4c0.2-0.4,0.7-0.2,0.7-0.2s0.3,0.4,0.1,0.7c-0.2,0.4-1,0.7-1,0.7S14.8,16.8,15,16.4z"/>
	<path class="st6" d="M17.3,10.9c0.5,0,0.6,0.6,0.6,0.6S17.7,12,17.3,12c-0.5,0-1.1-0.6-1.1-0.6S16.8,10.9,17.3,10.9z"/>
	<path class="st6" d="M17.8,9.5c0.5,0.1,0.5,0.7,0.5,0.7s-0.3,0.5-0.8,0.4s-1-0.8-1-0.8S17.3,9.3,17.8,9.5z"/>
	<path class="st6" d="M18.4,8.4C18.7,8.6,18.5,9,18.5,9s-0.4,0.3-0.7,0c-0.3-0.2-0.5-0.9-0.5-0.9S18,8.1,18.4,8.4z"/>
	<path class="st4" d="M19.8,8.1c-0.3,0.2-0.2,0.5-0.2,0.5s0.2,0.2,0.5,0.1C20.4,8.5,20.6,8,20.6,8S20.1,8,19.8,8.1z"/>
	<path class="st4" d="M19.3,11c-0.4,0-0.4,0.4-0.4,0.4s0.1,0.4,0.5,0.4s0.8-0.5,0.8-0.5S19.7,11,19.3,11z"/>
	<path class="st4" d="M19.6,10.1c-0.3,0-0.5,0.3-0.5,0.3s0,0.4,0.4,0.4c0.3,0,0.9-0.3,0.9-0.3S19.9,10.1,19.6,10.1z"/>
	<path class="st4" d="M19.8,9.1c-0.3,0-0.4,0.4-0.4,0.4s0.1,0.4,0.4,0.4s0.8-0.4,0.8-0.4S20.1,9.1,19.8,9.1z"/>
	<path class="st6" d="M14.6,14.1c0.1,0.4-0.4,0.6-0.4,0.6s-0.5,0-0.6-0.5c-0.1-0.4,0.3-1.1,0.3-1.1S14.5,13.7,14.6,14.1z"/>
	<path class="st6" d="M16,14.4c-0.1,0.4-0.6,0.4-0.6,0.4s-0.4-0.2-0.3-0.7c0.1-0.4,0.7-0.9,0.7-0.9S16.1,14,16,14.4z"/>
	<path class="st3" d="M15.3,13.3c-0.1,0.3-0.4,0.3-0.4,0.3s-0.3-0.2-0.2-0.5s0.5-0.6,0.5-0.6S15.4,13,15.3,13.3z"/>
	<path class="st6" d="M13.2,14.3c0.3,0.3,0,0.7,0,0.7s-0.4,0.2-0.7-0.2c-0.3-0.3-0.2-1.1-0.2-1.1S12.9,13.9,13.2,14.3z"/>
	<path class="st6" d="M16.9,12.1c0.4-0.2,0.7,0.2,0.7,0.2s0.1,0.5-0.3,0.7s-1.2,0-1.2,0S16.5,12.3,16.9,12.1z"/>
	<path class="st4" d="M13.5,16.1c0.1-0.4,0.6-0.5,0.6-0.5s0.4,0.2,0.4,0.7c-0.1,0.4-0.7,0.9-0.7,0.9S13.4,16.5,13.5,16.1z"/>
	<path class="st4" d="M12.2,16c0.2-0.4,0.7-0.2,0.7-0.2s0.3,0.3,0.1,0.7s-0.9,0.7-0.9,0.7S11.9,16.4,12.2,16z"/>
	<path class="st6" d="M17,15.2c-0.3,0.3-0.7,0-0.7,0s-0.2-0.4,0.1-0.7c0.3-0.3,1.1-0.3,1.1-0.3S17.3,15,17,15.2z"/>
	<path class="st3" d="M13.5,13.2c0.1,0.4-0.3,0.6-0.3,0.6s-0.5,0-0.6-0.4s0.2-1.1,0.2-1.1S13.4,12.8,13.5,13.2z"/>
	<path class="st3" d="M14.4,12.2c0.2,0.3-0.1,0.6-0.1,0.6s-0.4,0.1-0.6-0.2c-0.2-0.3-0.1-0.9-0.1-0.9S14.2,11.9,14.4,12.2z"/>
	<path class="st6" d="M17,13.2c0.4,0,0.5,0.3,0.5,0.3s0,0.5-0.4,0.5s-0.9-0.3-0.9-0.3S16.7,13.3,17,13.2z"/>
	<path class="st3" d="M17.1,8.6c0.4,0.1,0.4,0.5,0.4,0.5s-0.2,0.4-0.6,0.3c-0.4-0.1-0.7-0.6-0.7-0.6S16.8,8.5,17.1,8.6z"/>
	<path class="st3" d="M15.9,11.8c0.4,0,0.4,0.4,0.4,0.4s-0.1,0.4-0.5,0.4S15,12.1,15,12.1S15.5,11.7,15.9,11.8z"/>
	<path class="st3" d="M13.8,17.7c0-0.4,0.5-0.5,0.5-0.5s0.5,0.1,0.4,0.6c0,0.4-0.5,1-0.5,1S13.8,18.1,13.8,17.7z"/>
	<path class="st3" d="M15.1,17.9c0.2-0.4,0.7-0.3,0.7-0.3s0.3,0.3,0.1,0.7C15.7,18.7,15,19,15,19S14.9,18.2,15.1,17.9z"/>
	<path class="st3" d="M17,18.5c0.2-0.4,0.7-0.3,0.7-0.3s0.3,0.3,0.1,0.7c-0.2,0.4-0.9,0.7-0.9,0.7S16.8,18.9,17,18.5z"/>
	<path class="st4" d="M13.1,19.1c0.4,0.1,0.5,0.5,0.5,0.5S13.4,20,12.9,20c-0.4-0.1-0.9-0.6-0.9-0.6S12.6,19,13.1,19.1z"/>
	<path class="st3" d="M15.3,10.8c0.4,0,0.5,0.5,0.5,0.5s-0.1,0.5-0.6,0.4c-0.4,0-1-0.5-1-0.5S14.9,10.7,15.3,10.8z"/>
	<path class="st3" d="M16.2,9.8c0.4,0.1,0.4,0.6,0.4,0.6s-0.2,0.4-0.6,0.3c-0.4-0.1-0.9-0.7-0.9-0.7S15.7,9.7,16.2,9.8z"/>
	<path class="st4" d="M24.9,5.4C25.3,5.6,25.1,6,25.1,6s-0.3,0.3-0.7,0.1c-0.4-0.2-0.6-0.9-0.6-0.9S24.5,5.2,24.9,5.4z"/>
	<path class="st3" d="M28.7,6.6c-0.3,0.1-0.5-0.2-0.5-0.2s0-0.3,0.3-0.4c0.3-0.2,0.8,0,0.8,0S29,6.5,28.7,6.6z"/>
	<path class="st3" d="M29.5,7.6C29.2,7.7,29,7.4,29,7.4s0-0.3,0.3-0.4C29.6,7,30,7.1,30,7.1S29.7,7.5,29.5,7.6z"/>
	<path class="st3" d="M30.1,10c-0.4,0.1-0.6-0.3-0.6-0.3s0-0.4,0.4-0.6c0.4-0.1,1,0.2,1,0.2S30.5,9.9,30.1,10z"/>
	<path class="st6" d="M26.5,7.3c-0.5,0.1-0.7-0.4-0.7-0.4s0-0.5,0.5-0.6s1.2,0.2,1.2,0.2S27,7.2,26.5,7.3z"/>
	<path class="st4" d="M24.3,7.8C24.8,7.7,25,8.2,25,8.2s0,0.5-0.5,0.6s-1.2-0.3-1.2-0.3S23.8,7.9,24.3,7.8z"/>
	<path class="st4" d="M24.7,9.1c0.5-0.1,0.7,0.4,0.7,0.4s0,0.5-0.5,0.6s-1.2-0.3-1.2-0.3S24.3,9.2,24.7,9.1z"/>
	<path class="st6" d="M26.6,8.5C26.1,8.5,26,8,26,8s0.1-0.5,0.6-0.6c0.5,0,1.2,0.5,1.2,0.5S27.1,8.5,26.6,8.5z"/>
	<path class="st6" d="M27.2,9.8c-0.5,0.2-0.8-0.3-0.8-0.3s0-0.5,0.5-0.7s1.3,0.1,1.3,0.1S27.7,9.7,27.2,9.8z"/>
	<path class="st6" d="M28.1,10.8c-0.5,0.2-0.8-0.3-0.8-0.3s-0.1-0.5,0.4-0.7S29,9.9,29,9.9S28.6,10.6,28.1,10.8z"/>
	<path class="st4" d="M25.6,4.6c0.2,0.4-0.1,0.7-0.1,0.7S25,5.4,24.8,5c-0.2-0.3-0.1-1-0.1-1S25.4,4.2,25.6,4.6z"/>
	<path class="st6" d="M26.6,5.9c-0.3,0.3-0.7,0-0.7,0S25.7,5.4,26,5.2c0.3-0.3,1.1-0.3,1.1-0.3S27,5.6,26.6,5.9z"/>
	<path class="st3" d="M27.8,6.2C27.4,6.4,27.1,6,27.1,6S27,5.5,27.4,5.3s1.2,0,1.2,0S28.2,6,27.8,6.2z"/>
	<path class="st3" d="M28,7.6c-0.4,0.1-0.6-0.4-0.6-0.4s0-0.5,0.5-0.6C28.3,6.6,29,7,29,7S28.5,7.5,28,7.6z"/>
	<path class="st3" d="M28.5,8.6c-0.4,0.1-0.6-0.4-0.6-0.4s0-0.5,0.5-0.6c0.4-0.1,1.1,0.3,1.1,0.3S28.9,8.5,28.5,8.6z"/>
	<path class="st3" d="M29,9.6c-0.4,0.2-0.7-0.2-0.7-0.2s-0.1-0.5,0.3-0.7s1.2,0,1.2,0S29.5,9.4,29,9.6z"/>
	<path class="st6" d="M29.4,11.3c-0.3,0.4-0.7,0.2-0.7,0.2s-0.3-0.4,0-0.7c0.3-0.4,1-0.5,1-0.5S29.7,11,29.4,11.3z"/>
	<path class="st6" d="M20.9,12.5c0.3,0.1,0.3,0.4,0.3,0.4s-0.2,0.3-0.5,0.2s-0.6-0.5-0.6-0.5S20.6,12.4,20.9,12.5z"/>
	<path class="st6" d="M20.5,13.4c0.3,0.1,0.4,0.4,0.4,0.4s-0.2,0.3-0.5,0.3c-0.3-0.1-0.7-0.5-0.7-0.5S20.2,13.3,20.5,13.4z"/>
	<path class="st6" d="M20.3,14.4c0.4-0.1,0.5,0.3,0.5,0.3s0,0.4-0.4,0.5S19.5,15,19.5,15S19.9,14.5,20.3,14.4z"/>
	<path class="st6" d="M20.4,15.4c0.4-0.1,0.6,0.3,0.6,0.3s0,0.5-0.4,0.6c-0.4,0.1-1.1-0.2-1.1-0.2S20,15.5,20.4,15.4z"/>
	<path class="st6" d="M20.8,16.6c0.4-0.2,0.7,0.1,0.7,0.1s0.1,0.4-0.3,0.6s-1.1,0.1-1.1,0.1S20.5,16.8,20.8,16.6z"/>
	<path class="st6" d="M21.4,17.7c0.2-0.3,0.7-0.2,0.7-0.2s0.3,0.4,0,0.7c-0.2,0.3-0.9,0.5-0.9,0.5S21.2,18,21.4,17.7z"/>
	<path class="st6" d="M22.5,15.9C22.1,16,22,15.7,22,15.7s0-0.4,0.3-0.5s0.8,0.1,0.8,0.1S22.8,15.8,22.5,15.9z"/>
	<path class="st6" d="M23.2,16.6c-0.3,0.2-0.5,0-0.5,0s-0.1-0.3,0.1-0.5c0.3-0.2,0.8-0.2,0.8-0.2S23.5,16.4,23.2,16.6z"/>
	<path class="st6" d="M22.2,15c-0.3,0.2-0.5-0.1-0.5-0.1s-0.1-0.4,0.2-0.5c0.3-0.2,0.8-0.1,0.8-0.1S22.5,14.9,22.2,15z"/>
	<path class="st6" d="M18.1,21.2c-0.3,0.3-0.7,0.1-0.7,0.1s-0.3-0.4,0-0.7c0.3-0.3,1-0.5,1-0.5S18.4,20.8,18.1,21.2z"/>
	<path class="st6" d="M19.1,21.7c-0.2,0.3-0.6,0.2-0.6,0.2s-0.3-0.3-0.1-0.6c0.2-0.3,0.8-0.5,0.8-0.5S19.3,21.3,19.1,21.7z"/>
	<path class="st6" d="M19.8,22.4c-0.1,0.3-0.5,0.2-0.5,0.2S19,22.4,19.2,22c0.1-0.3,0.7-0.6,0.7-0.6S20,22.1,19.8,22.4z"/>
	<path class="st6" d="M21.9,14.2c-0.3,0-0.4-0.3-0.4-0.3s0.1-0.4,0.4-0.4s0.8,0.3,0.8,0.3S22.3,14.2,21.9,14.2z"/>
	<path class="st4" d="M16.6,22.9c0.2-0.4,0.7-0.3,0.7-0.3s0.4,0.3,0.2,0.8c-0.2,0.4-1,0.7-1,0.7S16.4,23.3,16.6,22.9z"/>
	<path class="st4" d="M17.6,23.8c0.1-0.4,0.6-0.4,0.6-0.4s0.4,0.2,0.3,0.6s-0.7,0.8-0.7,0.8S17.5,24.2,17.6,23.8z"/>
	<path class="st6" d="M22.1,13.3c-0.3-0.1-0.3-0.5-0.3-0.5s0.2-0.3,0.5-0.2s0.6,0.6,0.6,0.6S22.4,13.4,22.1,13.3z"/>
	<path class="st4" d="M25.1,13.6c0.3,0,0.4,0.4,0.4,0.4s-0.1,0.3-0.4,0.3s-0.8-0.4-0.8-0.4S24.8,13.6,25.1,13.6z"/>
	<path class="st4" d="M24.6,12.8c0.3-0.1,0.5,0.2,0.5,0.2s0,0.4-0.3,0.5S24,13.4,24,13.4S24.3,12.9,24.6,12.8z"/>
	<path class="st6" d="M24.2,14.1c0.3,0,0.4,0.3,0.4,0.3s-0.1,0.4-0.4,0.4s-0.8-0.3-0.8-0.3S23.9,14.1,24.2,14.1z"/>
	<path class="st4" d="M25.2,14.6c0.3,0,0.4,0.4,0.4,0.4s-0.1,0.3-0.4,0.3s-0.8-0.4-0.8-0.4S24.9,14.6,25.2,14.6z"/>
	<path class="st4" d="M25,15.4c0.3,0.1,0.3,0.5,0.3,0.5s-0.2,0.3-0.5,0.2c-0.3-0.1-0.6-0.6-0.6-0.6S24.7,15.3,25,15.4z"/>
	<path class="st4" d="M24.6,16.2c0.3,0.2,0.1,0.5,0.1,0.5s-0.3,0.2-0.5,0c-0.3-0.2-0.4-0.7-0.4-0.7S24.3,16,24.6,16.2z"/>
	<path class="st6" d="M23.9,15c0.3,0.2,0.1,0.5,0.1,0.5s-0.3,0.2-0.5,0c-0.3-0.2-0.4-0.7-0.4-0.7S23.6,14.8,23.9,15z"/>
	<path class="st6" d="M22.7,12.3c-0.2,0.2-0.5,0.1-0.5,0.1s-0.2-0.3,0-0.5s0.8-0.4,0.8-0.4S22.9,12,22.7,12.3z"/>
	<path class="st6" d="M21.5,11.8c0.2,0.3-0.1,0.5-0.1,0.5s-0.3,0.1-0.5-0.1c-0.2-0.3-0.1-0.8-0.1-0.8S21.4,11.6,21.5,11.8z"/>
	<path class="st3" d="M20.5,8.8c0.3-0.2,0.6,0,0.6,0s0.2,0.4-0.1,0.6c-0.3,0.2-0.9,0.3-0.9,0.3S20.2,9,20.5,8.8z"/>
	<path class="st3" d="M23.2,11.2c0.2-0.4,0.7-0.4,0.7-0.4s0.4,0.3,0.2,0.8c-0.2,0.4-0.9,0.8-0.9,0.8S23,11.6,23.2,11.2z"/>
	<path class="st3" d="M22,10.5c0.3-0.4,0.8-0.2,0.8-0.2s0.4,0.4,0.1,0.8c-0.3,0.4-1.1,0.7-1.1,0.7S21.7,10.9,22,10.5z"/>
	<path class="st3" d="M21.2,9.6c0.3-0.3,0.7-0.1,0.7-0.1s0.3,0.4,0,0.7s-1,0.4-1,0.4S20.9,9.9,21.2,9.6z"/>
	<path class="st3" d="M24.3,11.8c0.1-0.4,0.6-0.5,0.6-0.5s0.5,0.2,0.4,0.6c-0.1,0.4-0.6,1-0.6,1S24.2,12.2,24.3,11.8z"/>
	<path class="st6" d="M22,24.5c0.3,0,0.5,0.3,0.5,0.3s-0.1,0.4-0.4,0.4s-0.8-0.3-0.8-0.3S21.6,24.5,22,24.5z"/>
	<path class="st4" d="M22.1,25.6c0.3-0.2,0.6,0,0.6,0s0.2,0.4-0.1,0.6c-0.3,0.2-0.9,0.3-0.9,0.3S21.9,25.8,22.1,25.6z"/>
	<path class="st6" d="M22.2,26.5c0.3-0.1,0.5,0.1,0.5,0.1s0.1,0.3-0.2,0.5c-0.3,0.1-0.8,0.1-0.8,0.1S21.9,26.7,22.2,26.5z"/>
	<path class="st6" d="M21.5,25.3c0.2-0.1,0.4,0.1,0.4,0.1s0.1,0.3-0.2,0.4c-0.2,0.1-0.7,0.1-0.7,0.1S21.2,25.4,21.5,25.3z"/>
	<path class="st6" d="M23.2,27.4c0.2-0.2,0.5,0,0.5,0s0.1,0.3-0.1,0.5s-0.7,0.2-0.7,0.2S22.9,27.6,23.2,27.4z"/>
	<path class="st4" d="M23,26.4c0.2-0.3,0.7-0.1,0.7-0.1s0.3,0.3,0,0.7c-0.2,0.3-0.9,0.5-0.9,0.5S22.8,26.8,23,26.4z"/>
	<path class="st4" d="M23.9,27.2c0.1-0.4,0.6-0.4,0.6-0.4s0.4,0.2,0.3,0.7c-0.1,0.4-0.7,0.8-0.7,0.8S23.8,27.7,23.9,27.2z"/>
	<path class="st4" d="M25.1,27.7c0-0.4,0.5-0.5,0.5-0.5s0.4,0.2,0.4,0.5c0,0.4-0.5,0.9-0.5,0.9S25,28.1,25.1,27.7z"/>
	<path class="st6" d="M26.2,27.8c0-0.4,0.4-0.5,0.4-0.5s0.4,0.1,0.5,0.5c0,0.4-0.4,1-0.4,1S26.2,28.2,26.2,27.8z"/>
	<path class="st6" d="M27.4,27.8c0-0.3,0.3-0.4,0.3-0.4s0.4,0.1,0.4,0.4s-0.3,0.8-0.3,0.8S27.4,28.1,27.4,27.8z"/>
	<path class="st6" d="M27.7,26.1c0,0.3-0.4,0.4-0.4,0.4S26.9,26.3,27,26c0-0.3,0.4-0.7,0.4-0.7S27.7,25.8,27.7,26.1z"/>
	<path class="st6" d="M28.5,26.1c0,0.2-0.3,0.3-0.3,0.3s-0.3-0.1-0.2-0.3c0-0.2,0.3-0.5,0.3-0.5S28.5,25.9,28.5,26.1z"/>
	<path class="st6" d="M26.4,24.9c0,0.2-0.3,0.3-0.3,0.3s-0.3-0.1-0.2-0.3c0-0.2,0.3-0.5,0.3-0.5S26.4,24.6,26.4,24.9z"/>
	<path class="st6" d="M27.2,25.2c0,0.2-0.2,0.2-0.2,0.2s-0.2-0.1-0.2-0.3c0-0.2,0.3-0.4,0.3-0.4S27.3,25,27.2,25.2z"/>
	<path class="st6" d="M23.1,24.1c0,0.3-0.3,0.4-0.3,0.4s-0.4-0.1-0.4-0.4s0.3-0.8,0.3-0.8S23.1,23.8,23.1,24.1z"/>
	<path class="st6" d="M23.8,24.9c-0.2,0.3-0.5,0.2-0.5,0.2s-0.3-0.3-0.1-0.6c0.2-0.3,0.7-0.5,0.7-0.5S24,24.6,23.8,24.9z"/>
	<path class="st6" d="M24.7,25.4c-0.2,0.3-0.6,0.2-0.6,0.2S23.8,25.3,24,25s0.8-0.5,0.8-0.5S24.9,25.1,24.7,25.4z"/>
	<path class="st3" d="M25.6,25.7c-0.1,0.4-0.5,0.3-0.5,0.3s-0.3-0.2-0.2-0.6c0.1-0.4,0.7-0.7,0.7-0.7S25.8,25.4,25.6,25.7z"/>
	<path class="st3" d="M24.7,24.2c-0.1,0.3-0.4,0.2-0.4,0.2s-0.2-0.2-0.2-0.4c0.1-0.3,0.5-0.5,0.5-0.5S24.8,23.9,24.7,24.2z"/>
	<path class="st3" d="M25.5,24.5c-0.1,0.3-0.4,0.3-0.4,0.3s-0.3-0.2-0.2-0.5c0.1-0.3,0.5-0.6,0.5-0.6S25.6,24.3,25.5,24.5z"/>
	<path class="st3" d="M23.6,24c-0.2,0.1-0.4,0-0.4,0s-0.1-0.2,0.1-0.4c0.2-0.1,0.6-0.1,0.6-0.1S23.8,23.9,23.6,24z"/>
	<path class="st3" d="M26.7,26c-0.1,0.4-0.5,0.3-0.5,0.3s-0.3-0.2-0.2-0.6c0.1-0.4,0.7-0.7,0.7-0.7S26.8,25.7,26.7,26z"/>
	<path class="st6" d="M35.3,7.3c-0.1,0.4-0.6,0.4-0.6,0.4S34.3,7.4,34.5,7c0.1-0.4,0.7-0.9,0.7-0.9S35.4,6.8,35.3,7.3z"/>
	<path class="st4" d="M36.2,14.3c-0.3,0.2-0.7-0.1-0.7-0.1s-0.1-0.4,0.2-0.6c0.3-0.2,1-0.1,1-0.1S36.5,14.1,36.2,14.3z"/>
	<path class="st4" d="M35.8,13.3c-0.4,0-0.5-0.4-0.5-0.4s0.1-0.4,0.5-0.5c0.4,0,1,0.3,1,0.3S36.2,13.2,35.8,13.3z"/>
	<path class="st4" d="M35.5,12.3c-0.4,0.1-0.6-0.2-0.6-0.2s0-0.4,0.3-0.5c0.4-0.1,1,0.1,1,0.1S35.9,12.2,35.5,12.3z"/>
	<path class="st6" d="M34.3,7.6c0.1,0.4-0.2,0.6-0.2,0.6s-0.4,0-0.6-0.3c-0.1-0.4,0.1-1.1,0.1-1.1S34.2,7.2,34.3,7.6z"/>
	<path class="st6" d="M32.9,10.9c0.5,0,0.6,0.5,0.6,0.5S33.4,12,32.9,12s-1.1-0.5-1.1-0.5S32.4,11,32.9,10.9z"/>
	<path class="st6" d="M33,9.6c0.5,0.1,0.5,0.6,0.5,0.6s-0.2,0.5-0.7,0.4s-1.1-0.8-1.1-0.8S32.5,9.5,33,9.6z"/>
	<path class="st6" d="M33.5,8.4c0.4,0.2,0.2,0.7,0.2,0.7S33.4,9.4,33,9.2s-0.6-0.9-0.6-0.9S33.2,8.2,33.5,8.4z"/>
	<path class="st4" d="M35.1,7.9c-0.3,0.2-0.2,0.5-0.2,0.5s0.2,0.2,0.5,0.1c0.3-0.2,0.4-0.6,0.4-0.6S35.3,7.8,35.1,7.9z"/>
	<path class="st6" d="M35.9,10.9c-0.2,0.1-0.1,0.4-0.1,0.4s0.2,0.2,0.4,0.1c0.2-0.1,0.3-0.5,0.3-0.5S36.1,10.8,35.9,10.9z"/>
	<path class="st4" d="M34.9,10.6c-0.4,0-0.4,0.4-0.4,0.4s0.1,0.4,0.5,0.4s0.8-0.5,0.8-0.5S35.2,10.5,34.9,10.6z"/>
	<path class="st4" d="M34.8,9.7c-0.3,0-0.5,0.3-0.5,0.3s0,0.4,0.4,0.4c0.3,0,0.9-0.3,0.9-0.3S35.1,9.7,34.8,9.7z"/>
	<path class="st4" d="M34.9,8.7c-0.3,0-0.4,0.4-0.4,0.4s0.1,0.4,0.4,0.4c0.3,0,0.8-0.4,0.8-0.4S35.2,8.7,34.9,8.7z"/>
	<path class="st6" d="M47,18.3c-0.3,0-0.3-0.3-0.3-0.3s0.1-0.3,0.3-0.2c0.3,0,0.6,0.3,0.6,0.3S47.3,18.3,47,18.3z"/>
	<path class="st6" d="M47,17.5c-0.2,0-0.2-0.2-0.2-0.2s0-0.3,0.2-0.3s0.5,0.3,0.5,0.3S47.2,17.5,47,17.5z"/>
	<path class="st6" d="M47,16.7c-0.2,0.1-0.3-0.1-0.3-0.1s0-0.2,0.2-0.3c0.2-0.1,0.5,0.1,0.5,0.1S47.2,16.6,47,16.7z"/>
	<path class="st6" d="M46.9,19.2c-0.3-0.1-0.3-0.5-0.3-0.5s0.2-0.3,0.5-0.2c0.3,0.1,0.6,0.6,0.6,0.6S47.2,19.3,46.9,19.2z"/>
	<path class="st6" d="M33.3,12.2c0.4-0.2,0.7,0.2,0.7,0.2s0.1,0.5-0.3,0.7c-0.4,0.2-1.2,0-1.2,0S32.9,12.4,33.3,12.2z"/>
	<path class="st6" d="M46.5,20.1c-0.3-0.2-0.2-0.5-0.2-0.5s0.3-0.3,0.5-0.1c0.3,0.2,0.5,0.7,0.5,0.7S46.8,20.3,46.5,20.1z"/>
	<path class="st6" d="M46,20.9c-0.2-0.2-0.1-0.5-0.1-0.5s0.3-0.2,0.6,0c0.2,0.2,0.3,0.8,0.3,0.8S46.2,21.1,46,20.9z"/>
	<path class="st6" d="M45.2,21.7c-0.2-0.3,0.1-0.5,0.1-0.5s0.3-0.1,0.5,0.2c0.2,0.3,0.1,0.9,0.1,0.9S45.4,22,45.2,21.7z"/>
	<path class="st4" d="M20.2,7.5c-0.2,0.3-0.6,0.2-0.6,0.2s-0.3-0.3-0.1-0.6c0.2-0.3,0.8-0.6,0.8-0.6S20.4,7.2,20.2,7.5z"/>
	<path class="st6" d="M33.8,13.2c0.4-0.1,0.5,0.3,0.5,0.3s0,0.4-0.4,0.5S33,13.7,33,13.7S33.5,13.3,33.8,13.2z"/>
	<path class="st3" d="M32.3,8.8c0.4,0.1,0.4,0.5,0.4,0.5s-0.2,0.4-0.5,0.3C31.8,9.5,31.4,9,31.4,9S31.9,8.7,32.3,8.8z"/>
	<path class="st3" d="M32.2,12c0.4,0,0.5,0.4,0.5,0.4s-0.1,0.4-0.5,0.4c-0.4,0-0.9-0.4-0.9-0.4S31.8,12,32.2,12z"/>
	<path class="st3" d="M30.9,11.1c0.4,0,0.6,0.5,0.6,0.5S31.4,12,30.9,12c-0.4,0-1-0.5-1-0.5S30.5,11.1,30.9,11.1z"/>
	<path class="st3" d="M31.8,10.3c0.4,0.1,0.5,0.6,0.5,0.6s-0.2,0.4-0.6,0.4c-0.4-0.1-0.9-0.6-0.9-0.6S31.4,10.2,31.8,10.3z"/>
	<path class="st7" d="M42.9,10.2c-0.3,0-0.4,0.3-0.4,0.3s0.1,0.4,0.4,0.4c0.3,0,0.8-0.3,0.8-0.3S43.2,10.2,42.9,10.2z"/>
	<path class="st8" d="M40.8,10.7c0.3,0.4,0.8,0.1,0.8,0.1s0.3-0.4,0-0.8c-0.3-0.4-1.2-0.5-1.2-0.5S40.5,10.3,40.8,10.7z"/>
	<path class="st9" d="M42.7,11.3c-0.4-0.2-0.7,0.2-0.7,0.2s-0.1,0.5,0.3,0.6c0.4,0.2,1.1,0,1.1,0S43.1,11.5,42.7,11.3z"/>
	<path class="st8" d="M42.1,12.5c-0.3-0.3-0.7,0-0.7,0s-0.2,0.4,0.1,0.7s1.1,0.4,1.1,0.4S42.4,12.8,42.1,12.5z"/>
	<path class="st9" d="M41.1,13.5c-0.3-0.3-0.7,0-0.7,0s-0.2,0.4,0.1,0.7s1.1,0.4,1.1,0.4S41.4,13.7,41.1,13.5z"/>
	<path class="st7" d="M40.2,14.3c-0.2-0.4-0.7-0.2-0.7-0.2s-0.3,0.3-0.1,0.7s0.9,0.7,0.9,0.7S40.4,14.7,40.2,14.3z"/>
	<path class="st10" d="M39.2,14.9c-0.1-0.4-0.6-0.4-0.6-0.4s-0.4,0.2-0.3,0.7C38.4,15.6,39,16,39,16S39.3,15.3,39.2,14.9z"/>
	<path class="st3" d="M42.2,13.7c-0.2-0.2-0.5,0-0.5,0s-0.2,0.3,0.1,0.5c0.2,0.2,0.8,0.3,0.8,0.3S42.4,13.9,42.2,13.7z"/>
	<path class="st3" d="M43.1,12.4c-0.3-0.1-0.6,0.2-0.6,0.2s-0.1,0.4,0.3,0.5c0.3,0.1,0.9,0,0.9,0S43.4,12.5,43.1,12.4z"/>
	<path class="st3" d="M43.2,13.7c-0.2-0.2-0.4,0-0.4,0s-0.1,0.3,0.1,0.4c0.2,0.2,0.7,0.2,0.7,0.2S43.4,13.9,43.2,13.7z"/>
	<path class="st3" d="M41.2,14.6c-0.3-0.2-0.6,0-0.6,0s-0.2,0.3,0.1,0.6c0.3,0.2,0.8,0.3,0.8,0.3S41.4,14.9,41.2,14.6z"/>
	<path class="st3" d="M43.6,11.1c-0.2-0.1-0.4,0.1-0.4,0.1s0,0.3,0.2,0.4c0.2,0.1,0.7,0,0.7,0S43.9,11.2,43.6,11.1z"/>
	<path class="st11" d="M40.2,11.8c0.4,0.3,0.8-0.1,0.8-0.1s0.2-0.5-0.2-0.8s-1.3-0.3-1.3-0.3S39.8,11.5,40.2,11.8z"/>
	<path class="st8" d="M39.1,12.6c0.4,0.4,0.8,0.1,0.8,0.1s0.3-0.5-0.1-0.8c-0.4-0.4-1.2-0.5-1.2-0.5S38.7,12.3,39.1,12.6z"/>
	<path class="st9" d="M37.8,13.2c0.2,0.4,0.7,0.4,0.7,0.4s0.4-0.3,0.2-0.7s-0.9-0.8-0.9-0.8S37.6,12.7,37.8,13.2z"/>
	<path class="st7" d="M36.7,13.6c0.1,0.4,0.5,0.4,0.5,0.4s0.4-0.2,0.3-0.6c-0.1-0.4-0.6-0.8-0.6-0.8S36.6,13.2,36.7,13.6z"/>
	<path class="st9" d="M41.2,9.4c0.2,0.4,0.7,0.3,0.7,0.3S42.3,9.4,42,9c-0.2-0.4-0.9-0.7-0.9-0.7S41,9,41.2,9.4z"/>
	<path class="st4" d="M43.9,16.3c0.3,0.2,0.1,0.5,0.1,0.5s-0.3,0.2-0.5,0c-0.3-0.2-0.4-0.7-0.4-0.7S43.6,16.1,43.9,16.3z"/>
	<path class="st4" d="M43.3,16.9c0.2,0.3-0.1,0.6-0.1,0.6s-0.4,0.1-0.5-0.2c-0.2-0.3-0.1-0.9-0.1-0.9S43.2,16.6,43.3,16.9z"/>
	<path class="st4" d="M42.5,17.5c0,0.4-0.4,0.5-0.4,0.5s-0.4-0.1-0.4-0.4c0-0.4,0.3-0.9,0.3-0.9S42.5,17.2,42.5,17.5z"/>
	<path class="st4" d="M41.5,17.8c0.1,0.4-0.3,0.6-0.3,0.6s-0.5,0-0.6-0.4s0.1-1.1,0.1-1.1S41.4,17.4,41.5,17.8z"/>
	<path class="st6" d="M40.4,18.2c0.2,0.4-0.2,0.7-0.2,0.7s-0.4,0.1-0.6-0.3c-0.2-0.4,0-1.1,0-1.1S40.2,17.8,40.4,18.2z"/>
	<path class="st3" d="M34.4,6.4C34.3,6.7,34,6.7,34,6.7s-0.3-0.2-0.2-0.5s0.5-0.5,0.5-0.5S34.5,6.1,34.4,6.4z"/>
	<path class="st3" d="M36.3,6.9c0,0.3-0.3,0.4-0.3,0.4s-0.3-0.1-0.3-0.4S36,6.2,36,6.2S36.3,6.6,36.3,6.9z"/>
	<path class="st3" d="M37,6.2c0.2,0.2,0,0.5,0,0.5s-0.3,0.1-0.5-0.1s-0.1-0.7-0.1-0.7S36.9,5.9,37,6.2z"/>
	<path class="st3" d="M32.8,5.7c-0.1,0.3-0.4,0.2-0.4,0.2s-0.2-0.2-0.1-0.5C32.4,5.2,32.9,5,32.9,5S33,5.5,32.8,5.7z"/>
	<path class="st4" d="M44.4,15.6c0.2,0.3-0.1,0.5-0.1,0.5s-0.3,0.1-0.5-0.2s-0.1-0.8-0.1-0.8S44.3,15.3,44.4,15.6z"/>
	<path class="st3" d="M23.9,7.7c-0.2,0.3-0.6,0.2-0.6,0.2S23,7.6,23.2,7.3c0.2-0.3,0.9-0.6,0.9-0.6S24.2,7.4,23.9,7.7z"/>
	<path class="st6" d="M26.2,12.7c-0.3,0.1-0.3,0.4-0.3,0.4s0.2,0.3,0.5,0.2s0.6-0.5,0.6-0.5S26.5,12.6,26.2,12.7z"/>
	<path class="st6" d="M26.6,13.5c-0.3,0.1-0.4,0.4-0.4,0.4s0.2,0.3,0.5,0.3c0.3-0.1,0.7-0.5,0.7-0.5S27,13.5,26.6,13.5z"/>
	<path class="st6" d="M27,14.5c-0.4-0.1-0.5,0.3-0.5,0.3s0,0.4,0.4,0.5s0.9-0.2,0.9-0.2S27.4,14.6,27,14.5z"/>
	<path class="st6" d="M26.9,15.4c-0.4-0.1-0.6,0.3-0.6,0.3s0,0.5,0.4,0.6c0.4,0.1,1.1-0.2,1.1-0.2S27.3,15.5,26.9,15.4z"/>
	<path class="st6" d="M26.6,16.6c-0.4-0.2-0.7,0.1-0.7,0.1s-0.1,0.4,0.3,0.6s1.1,0.1,1.1,0.1S26.9,16.8,26.6,16.6z"/>
	<path class="st6" d="M26.4,17.7c-0.3-0.2-0.7,0.1-0.7,0.1s-0.2,0.4,0.2,0.7c0.3,0.2,1.1,0.2,1.1,0.2S26.7,17.9,26.4,17.7z"/>
	<path class="st6" d="M25.4,12.1c-0.2,0.3,0.1,0.5,0.1,0.5s0.3,0.1,0.5-0.1c0.2-0.3,0.1-0.8,0.1-0.8S25.6,11.9,25.4,12.1z"/>
	<path class="st6" d="M37.5,11.7c0.1,0.4-0.2,0.6-0.2,0.6s-0.4,0.1-0.6-0.3c-0.1-0.4,0.1-1.1,0.1-1.1S37.4,11.3,37.5,11.7z"/>
	<path class="st7" d="M38.2,10.9c0.2,0.3-0.1,0.7-0.1,0.7s-0.4,0.2-0.7-0.2c-0.2-0.3-0.2-1-0.2-1S38,10.6,38.2,10.9z"/>
	<path class="st3" d="M38.8,9.2c0.2,0.2,0.1,0.5,0.1,0.5s-0.3,0.2-0.5,0S38.1,9,38.1,9S38.6,9,38.8,9.2z"/>
	<path class="st3" d="M38,9.8c0.1,0.3-0.1,0.5-0.1,0.5s-0.3,0-0.4-0.2c-0.1-0.3,0-0.8,0-0.8S37.9,9.6,38,9.8z"/>
	<path class="st6" d="M35.8,10c-0.3,0-0.4-0.3-0.4-0.3s0.1-0.3,0.4-0.4c0.3,0,0.8,0.3,0.8,0.3S36.1,9.9,35.8,10z"/>
	<path class="st6" d="M36,9c-0.3,0-0.4-0.3-0.4-0.3s0.1-0.3,0.4-0.4c0.3,0,0.8,0.3,0.8,0.3S36.3,8.9,36,9z"/>
	<path class="st6" d="M36,10.8c-0.3,0-0.4-0.3-0.4-0.3s0.1-0.3,0.4-0.4c0.3,0,0.8,0.3,0.8,0.3S36.4,10.7,36,10.8z"/>
	<path class="st9" d="M39.2,10.4c0.3,0.4,0,0.7,0,0.7s-0.4,0.2-0.7-0.1c-0.3-0.4-0.3-1.1-0.3-1.1S38.9,10,39.2,10.4z"/>
	<path class="st9" d="M40.1,9.7c0.3,0.3,0,0.7,0,0.7s-0.4,0.2-0.7-0.1s-0.3-1.1-0.3-1.1S39.8,9.4,40.1,9.7z"/>
	<path class="st7" d="M40.7,8.6c0.3,0.3,0.1,0.6,0.1,0.6s-0.3,0.2-0.6,0c-0.3-0.3-0.4-0.9-0.4-0.9S40.4,8.4,40.7,8.6z"/>
	<path class="st3" d="M44.5,18.1c-0.3-0.1-0.2-0.4-0.2-0.4s0.2-0.3,0.5-0.2c0.3,0.1,0.5,0.5,0.5,0.5S44.7,18.2,44.5,18.1z"/>
	<path class="st3" d="M44.7,17.2c-0.2-0.1-0.2-0.4-0.2-0.4s0.2-0.2,0.4-0.1s0.5,0.5,0.5,0.5S44.9,17.3,44.7,17.2z"/>
	<path class="st6" d="M45,16.4c-0.3,0-0.3-0.3-0.3-0.3s0.1-0.3,0.3-0.3c0.3,0,0.6,0.3,0.6,0.3S45.2,16.4,45,16.4z"/>
	<path class="st3" d="M43.9,18.8c-0.3-0.2-0.2-0.6-0.2-0.6s0.3-0.2,0.6-0.1c0.3,0.2,0.5,0.8,0.5,0.8S44.2,19,43.9,18.8z"/>
	<path class="st3" d="M43.2,19.3c-0.2-0.2,0-0.6,0-0.6s0.3-0.2,0.5,0.1c0.2,0.2,0.3,0.8,0.3,0.8S43.4,19.6,43.2,19.3z"/>
	<path class="st3" d="M42.3,19.7c-0.2-0.3,0.1-0.5,0.1-0.5s0.3-0.1,0.5,0.2c0.2,0.3,0.1,0.9,0.1,0.9S42.5,20,42.3,19.7z"/>
	<path class="st3" d="M41.5,19.9c-0.1-0.3,0.2-0.5,0.2-0.5s0.4,0,0.5,0.3s-0.1,0.9-0.1,0.9S41.5,20.2,41.5,19.9z"/>
	<path class="st6" d="M43.3,15.5c0.2,0.2,0,0.5,0,0.5s-0.3,0-0.5-0.2s-0.1-0.7-0.1-0.7S43.1,15.2,43.3,15.5z"/>
	<path class="st6" d="M42.6,15.8c0.1,0.3-0.2,0.5-0.2,0.5S42,16.4,41.9,16c-0.1-0.3,0-0.9,0-0.9S42.5,15.5,42.6,15.8z"/>
	<path class="st4" d="M45.2,15.2c-0.1,0.3-0.4,0.3-0.4,0.3s-0.3-0.2-0.2-0.5s0.5-0.6,0.5-0.6S45.2,14.9,45.2,15.2z"/>
	<path class="st4" d="M46.9,15.9c-0.1,0.2-0.3,0.2-0.3,0.2s-0.2-0.1-0.2-0.3c0.1-0.2,0.4-0.5,0.4-0.5S47,15.7,46.9,15.9z"/>
	<path class="st6" d="M41.8,16.5c0.1,0.4-0.3,0.6-0.3,0.6S41,17,41,16.6c-0.1-0.4,0.2-1,0.2-1S41.7,16.1,41.8,16.5z"/>
	<path class="st4" d="M45.9,16.7c0.3,0.1,0.3,0.3,0.3,0.3s-0.1,0.3-0.4,0.2c-0.3-0.1-0.6-0.4-0.6-0.4S45.7,16.7,45.9,16.7z"/>
	<path class="st4" d="M45.7,17.5c0.3,0.1,0.2,0.4,0.2,0.4s-0.2,0.3-0.4,0.2C45.3,18,45,17.6,45,17.6S45.5,17.4,45.7,17.5z"/>
	<path class="st4" d="M45.1,17c0.2,0.1,0.2,0.3,0.2,0.3s-0.1,0.2-0.3,0.1S44.6,17,44.6,17S44.9,16.9,45.1,17z"/>
	<path class="st4" d="M44.7,17.5c0.2,0.1,0.2,0.3,0.2,0.3s-0.1,0.2-0.3,0.1s-0.4-0.4-0.4-0.4S44.5,17.4,44.7,17.5z"/>
	<path class="st4" d="M44.3,18c0.2,0.1,0.2,0.3,0.2,0.3s-0.1,0.2-0.3,0.1S43.8,18,43.8,18S44.1,17.9,44.3,18z"/>
	<path class="st4" d="M45.5,16.2c0.2,0.1,0.2,0.3,0.2,0.3s-0.1,0.2-0.3,0.1S45,16.2,45,16.2S45.3,16.1,45.5,16.2z"/>
	<path class="st4" d="M45.1,19.1c0.2,0.3-0.1,0.5-0.1,0.5s-0.4,0.1-0.5-0.2c-0.2-0.3-0.1-0.9-0.1-0.9S44.9,18.8,45.1,19.1z"/>
	<path class="st4" d="M44.3,19.6c0.2,0.3,0,0.6,0,0.6s-0.3,0.2-0.5-0.1c-0.2-0.3-0.3-0.8-0.3-0.8S44.1,19.4,44.3,19.6z"/>
	<path class="st4" d="M43.5,20.1c0.1,0.3-0.2,0.5-0.2,0.5s-0.4,0-0.5-0.3s0.1-0.9,0.1-0.9S43.4,19.8,43.5,20.1z"/>
	<path class="st4" d="M45.5,18.2c0.3,0.2,0.2,0.5,0.2,0.5s-0.2,0.2-0.5,0.1c-0.3-0.2-0.5-0.6-0.5-0.6S45.2,18.1,45.5,18.2z"/>
	<path class="st4" d="M46.3,16.1c0.2,0.1,0.1,0.4,0.1,0.4s-0.2,0.2-0.4,0c-0.2-0.1-0.3-0.6-0.3-0.6S46.1,15.9,46.3,16.1z"/>
	<path class="st4" d="M24.5,6.5C25,6.6,25,7.1,25,7.1s-0.2,0.5-0.7,0.4s-1.1-0.7-1.1-0.7S24,6.4,24.5,6.5z"/>
	<path class="st6" d="M23.5,5.6c0.4,0.1,0.4,0.6,0.4,0.6s-0.2,0.4-0.7,0.3c-0.4-0.1-0.9-0.7-0.9-0.7S23,5.4,23.5,5.6z"/>
	<g>
		<path class="st6" d="M38.8,7.5c-0.3,0-0.4-0.3-0.4-0.3s0.1-0.3,0.4-0.3c0.3,0,0.7,0.3,0.7,0.3S39.1,7.6,38.8,7.5z"/>
		<path class="st6" d="M38.2,8.2C38,8.1,38,7.8,38,7.8s0.2-0.3,0.5-0.2C38.7,7.8,39,8.2,39,8.2S38.5,8.3,38.2,8.2z"/>
		<path class="st5" d="M37,9.8l-0.1-0.3c0,0,0.3-1.7,1.6-2.5c0,0-1.2,1.2-1.2,2.5L37,9.8z"/>
		<path class="st4" d="M37.4,7.2c0.2,0.2,0,0.5,0,0.5s-0.3,0.1-0.5-0.1s-0.2-0.7-0.2-0.7S37.2,7,37.4,7.2z"/>
		<path class="st4" d="M38,6.6c0.1,0.3-0.1,0.5-0.1,0.5s-0.3,0.1-0.5-0.2c-0.1-0.3-0.1-0.8-0.1-0.8S37.8,6.4,38,6.6z"/>
		<path class="st4" d="M36.9,8c0.3,0.3,0,0.7,0,0.7s-0.4,0.2-0.7-0.1s-0.3-1-0.3-1S36.6,7.7,36.9,8z"/>
		<path class="st6" d="M37.9,9.2c-0.4-0.1-0.3-0.5-0.3-0.5s0.2-0.3,0.6-0.2c0.4,0.1,0.7,0.7,0.7,0.7S38.2,9.3,37.9,9.2z"/>
	</g>
	<g>
		<path class="st6" d="M44,12.6c0.2,0.1,0.4,0,0.4,0s0.1-0.2,0-0.4c-0.2-0.1-0.5-0.2-0.5-0.2S43.9,12.4,44,12.6z"/>
		<path class="st6" d="M43.9,13.2c0.2,0.1,0.3-0.1,0.3-0.1s0-0.2-0.2-0.3s-0.6,0-0.6,0S43.7,13.1,43.9,13.2z"/>
		<path class="st5" d="M43.8,14.7l0.2-0.1c0,0,0.7-1.1,0.5-2.2c0,0,0,1.3-0.6,2L43.8,14.7z"/>
		<path class="st4" d="M44.9,13.1c-0.2,0-0.3,0.2-0.3,0.2s0.1,0.2,0.3,0.2s0.5-0.3,0.5-0.3S45.1,13.1,44.9,13.1z"/>
		<path class="st4" d="M44.9,12.5c-0.2,0.1-0.2,0.3-0.2,0.3s0.1,0.2,0.3,0.1c0.2-0.1,0.4-0.4,0.4-0.4S45.1,12.4,44.9,12.5z"/>
		<path class="st4" d="M44.8,13.7c-0.3,0-0.4,0.3-0.4,0.3s0.1,0.3,0.4,0.3c0.3,0,0.7-0.4,0.7-0.4S45.1,13.7,44.8,13.7z"/>
		<path class="st6" d="M43.7,13.9c0.3,0.1,0.4-0.1,0.4-0.1s0-0.3-0.2-0.4c-0.3-0.1-0.7,0-0.7,0S43.4,13.8,43.7,13.9z"/>
	</g>
	<path class="st12" d="M40.9,8.4c0.1,0.3-0.2,0.5-0.2,0.5s-0.3,0-0.4-0.3c-0.1-0.3,0.1-0.8,0.1-0.8S40.8,8.1,40.9,8.4z"/>
	<path class="st6" d="M30.2,5.5c0.2,0.1,0.4,0,0.4,0s0.1-0.3-0.1-0.4C30.3,4.9,29.9,5,29.9,5S30,5.4,30.2,5.5z"/>
	<path class="st3" d="M29.1,5.5c0.2,0.1,0.4,0,0.4,0s0.1-0.3-0.1-0.4S28.7,5,28.7,5S28.9,5.4,29.1,5.5z"/>
	<path class="st6" d="M30.1,6.6c0.3,0.1,0.5-0.2,0.5-0.2s0-0.4-0.3-0.5C30,5.8,29.4,6,29.4,6S29.8,6.5,30.1,6.6z"/>
	<path class="st5" d="M30.3,8.9l0.4-0.2c0,0,0.9-1.8,0.2-3.5c0,0,0.3,2-0.6,3.3V8.9z"/>
	<path class="st4" d="M31.6,6.2c-0.3,0.1-0.4,0.4-0.4,0.4s0.2,0.3,0.5,0.3c0.3-0.1,0.7-0.5,0.7-0.5S32,6.1,31.6,6.2z"/>
	<path class="st4" d="M31.4,5.3c-0.3,0.1-0.2,0.4-0.2,0.4s0.2,0.2,0.5,0.1s0.5-0.6,0.5-0.6S31.7,5.1,31.4,5.3z"/>
	<path class="st4" d="M31.6,7.2c-0.5,0.1-0.5,0.6-0.5,0.6s0.2,0.5,0.7,0.4c0.5-0.1,1-0.7,1-0.7S32,7.1,31.6,7.2z"/>
	<path class="st6" d="M29.8,7.7c0.4,0.1,0.7-0.3,0.7-0.3s0-0.5-0.4-0.6S29,7,29,7S29.4,7.6,29.8,7.7z"/>
	<g>
		<path class="st6" d="M37.4,18.5c-0.2-0.3,0.1-0.6,0.1-0.6s0.4-0.1,0.5,0.2c0.2,0.3,0.1,0.9,0.1,0.9S37.5,18.8,37.4,18.5z"/>
		<path class="st6" d="M36.4,18.5c-0.1-0.3,0.2-0.5,0.2-0.5s0.4,0,0.5,0.3S37,19.2,37,19.2S36.4,18.8,36.4,18.5z"/>
		<path class="st5" d="M33,18.7l0.2-0.4c0,0,1.9-1.2,4.5-0.6c0,0-2.8-0.3-4.6,1.1L33,18.7z"/>
		<path class="st4" d="M36.7,17c-0.1,0.3-0.4,0.3-0.4,0.3S36,17.1,36,16.8c0.1-0.3,0.5-0.7,0.5-0.7S36.8,16.6,36.7,17z"/>
		<path class="st4" d="M37.7,17.1c-0.1,0.3-0.5,0.2-0.5,0.2s-0.3-0.2-0.1-0.5c0.1-0.3,0.7-0.6,0.7-0.6S37.9,16.8,37.7,17.1z"/>
		<path class="st4" d="M38.4,17.8c-0.3,0.1-0.5-0.1-0.5-0.1s-0.1-0.4,0.2-0.5s0.9,0,0.9,0S38.7,17.6,38.4,17.8z"/>
		<path class="st4" d="M35.7,17c-0.1,0.5-0.6,0.5-0.6,0.5s-0.5-0.2-0.4-0.7s0.7-1,0.7-1S35.8,16.5,35.7,17z"/>
		<path class="st6" d="M35.2,18.7c-0.1-0.4,0.3-0.7,0.3-0.7s0.5,0,0.6,0.4s-0.2,1.1-0.2,1.1S35.3,19.2,35.2,18.7z"/>
	</g>
	<g>
		<path class="st6" d="M44.3,24.4c-0.1-0.3,0.1-0.5,0.1-0.5s0.3-0.1,0.5,0.2c0.1,0.3,0.1,0.8,0.1,0.8S44.4,24.7,44.3,24.4z"/>
		<path class="st6" d="M43.4,24.3c-0.1-0.3,0.2-0.4,0.2-0.4s0.3,0,0.4,0.3c0.1,0.3-0.2,0.7-0.2,0.7S43.5,24.6,43.4,24.3z"/>
		<path class="st3" d="M43.3,25.2c0-0.2,0.2-0.3,0.2-0.3s0.2,0,0.3,0.2c0,0.2-0.1,0.5-0.1,0.5S43.4,25.4,43.3,25.2z"/>
		<path class="st3" d="M42.5,25.6c-0.1-0.2,0-0.4,0-0.4s0.2-0.1,0.4,0.1c0.1,0.2,0.1,0.6,0.1,0.6S42.6,25.7,42.5,25.6z"/>
		<path class="st5" d="M37.8,26.1v-0.2c-0.2,0.2,3.5-3.2,6.8-2.1c0,0-3.1-0.8-6.6,2.8L37.8,26.1z"/>
		<path class="st4" d="M43.8,23.1c-0.1,0.3-0.4,0.3-0.4,0.3s-0.3-0.2-0.2-0.4c0.1-0.3,0.5-0.6,0.5-0.6S43.9,22.8,43.8,23.1z"/>
		<path class="st6" d="M42.3,22.2c-0.1,0.3-0.4,0.3-0.4,0.3s-0.3-0.2-0.2-0.4c0.1-0.3,0.5-0.6,0.5-0.6S42.4,21.9,42.3,22.2z"/>
		<path class="st6" d="M43.5,22.1c-0.1,0.2-0.3,0.2-0.3,0.2S43,22.2,43.1,22s0.4-0.4,0.4-0.4S43.6,21.9,43.5,22.1z"/>
		<path class="st6" d="M44.3,22.4c0,0.2-0.2,0.2-0.2,0.2s-0.2-0.1-0.1-0.3c0-0.2,0.3-0.3,0.3-0.3S44.4,22.2,44.3,22.4z"/>
		<path class="st4" d="M44.6,23.3c-0.1,0.3-0.4,0.2-0.4,0.2S44,23.2,44.1,23c0.1-0.3,0.6-0.5,0.6-0.5S44.8,23,44.6,23.3z"/>
		<path class="st4" d="M42.9,23.1c-0.1,0.4-0.6,0.4-0.6,0.4s-0.4-0.2-0.3-0.6c0.1-0.4,0.7-0.8,0.7-0.8S43.1,22.7,42.9,23.1z"/>
		<path class="st4" d="M41.8,23.1c0,0.4-0.4,0.5-0.4,0.5s-0.4,0-0.4-0.5c0-0.4,0.4-1,0.4-1S41.8,22.7,41.8,23.1z"/>
		<path class="st4" d="M40.7,23.4c0.2,0.4-0.2,0.6-0.2,0.6s-0.4,0.1-0.6-0.3c-0.2-0.4,0-1.1,0-1.1S40.6,23,40.7,23.4z"/>
		<path class="st6" d="M42.4,24.5c-0.1-0.4,0.3-0.6,0.3-0.6s0.4,0,0.5,0.4s-0.2,1-0.2,1S42.5,24.9,42.4,24.5z"/>
		<path class="st6" d="M41.4,24.9c-0.1-0.4,0.2-0.6,0.2-0.6s0.4,0,0.5,0.3c0.1,0.4-0.1,1-0.1,1S41.6,25.2,41.4,24.9z"/>
		<path class="st6" d="M40.5,25.3c-0.1-0.4,0.3-0.6,0.3-0.6s0.4,0,0.5,0.4s-0.2,1-0.2,1S40.6,25.6,40.5,25.3z"/>
	</g>
	<path class="st6" d="M14.7,19c-0.1,0.4-0.5,0.5-0.5,0.5s-0.4-0.2-0.4-0.6c0.1-0.4,0.6-0.9,0.6-0.9S14.8,18.5,14.7,19z"/>
	<path class="st6" d="M16,19.4c-0.1,0.4-0.6,0.4-0.6,0.4s-0.4-0.2-0.3-0.6c0.1-0.4,0.7-0.9,0.7-0.9S16.1,19,16,19.4z"/>
	<path class="st6" d="M17,20.5c-0.4,0.3-0.8,0-0.8,0S16,20,16.4,19.7s1.2-0.3,1.2-0.3S17.4,20.2,17,20.5z"/>
	<g>
		<path class="st6" d="M28.6,15.2c0.1-0.3-0.1-0.5-0.1-0.5s-0.3-0.1-0.5,0.2c-0.1,0.3-0.1,0.8-0.1,0.8S28.4,15.4,28.6,15.2z"/>
		<path class="st6" d="M29.4,15.1c0.1-0.3-0.2-0.4-0.2-0.4s-0.3,0-0.4,0.3s0.2,0.7,0.2,0.7S29.4,15.4,29.4,15.1z"/>
		<path class="st3" d="M29.5,16c0-0.2-0.2-0.3-0.2-0.3s-0.2,0-0.3,0.2c0,0.2,0.1,0.5,0.1,0.5S29.5,16.2,29.5,16z"/>
		<path class="st3" d="M30.4,16.4c0.1-0.2,0-0.4,0-0.4s-0.2-0.1-0.4,0.1c-0.1,0.2-0.1,0.6-0.1,0.6S30.2,16.5,30.4,16.4z"/>
		<path class="st5" d="M33.9,16.3v-0.2c0.2,0.2-2.7-2.5-5.6-1.6c0,0,2.6-0.8,5.4,2.3L33.9,16.3z"/>
		<path class="st4" d="M29,13.8c0.1,0.3,0.4,0.3,0.4,0.3s0.3-0.2,0.2-0.4c-0.1-0.3-0.5-0.6-0.5-0.6S29,13.6,29,13.8z"/>
		<path class="st6" d="M30.5,13c0.1,0.3,0.4,0.3,0.4,0.3s0.3-0.2,0.2-0.4c-0.1-0.3-0.5-0.6-0.5-0.6S30.5,12.7,30.5,13z"/>
		<path class="st6" d="M29.3,12.9c0.1,0.2,0.3,0.2,0.3,0.2s0.2-0.1,0.1-0.3s-0.4-0.4-0.4-0.4S29.3,12.7,29.3,12.9z"/>
		<path class="st6" d="M28.5,13.2c0,0.2,0.2,0.2,0.2,0.2s0.2-0.1,0.1-0.3c0-0.2-0.3-0.3-0.3-0.3S28.5,13,28.5,13.2z"/>
		<path class="st4" d="M28.2,14c0.1,0.3,0.4,0.2,0.4,0.2s0.2-0.2,0.1-0.5s-0.6-0.5-0.6-0.5S28.1,13.8,28.2,14z"/>
		<path class="st4" d="M29.9,13.8c0.1,0.4,0.6,0.4,0.6,0.4s0.4-0.2,0.3-0.6c-0.1-0.4-0.7-0.8-0.7-0.8S29.8,13.5,29.9,13.8z"/>
		<path class="st4" d="M31,13.9c0,0.4,0.4,0.5,0.4,0.5s0.4-0.1,0.4-0.5s-0.4-1-0.4-1S31,13.5,31,13.9z"/>
		<path class="st4" d="M32.1,14.2c-0.2,0.4,0.2,0.6,0.2,0.6s0.4,0.1,0.6-0.3c0.2-0.4,0-1.1,0-1.1S32.2,13.8,32.1,14.2z"/>
		<path class="st6" d="M30.4,15.3c0.1-0.4-0.3-0.6-0.3-0.6s-0.4,0-0.5,0.4s0.2,1,0.2,1S30.3,15.7,30.4,15.3z"/>
		<path class="st6" d="M31.4,15.7c0.1-0.4-0.2-0.6-0.2-0.6s-0.4,0-0.5,0.3c-0.1,0.4,0.1,1,0.1,1S31.3,16,31.4,15.7z"/>
		<path class="st6" d="M32.3,16.1c0.1-0.4-0.3-0.6-0.3-0.6s-0.4,0-0.5,0.4s0.2,1,0.2,1S32.2,16.4,32.3,16.1z"/>
	</g>
	<g>
		<path class="st4" d="M29.6,17.2c-0.2,0.2-0.5,0.1-0.5,0.1s-0.2-0.2-0.1-0.5c0.2-0.2,0.6-0.4,0.6-0.4S29.8,17,29.6,17.2z"/>
		<path class="st4" d="M30,18c-0.2,0.2-0.5,0-0.5,0s-0.1-0.3,0.1-0.5s0.7-0.2,0.7-0.2S30.2,17.9,30,18z"/>
		<path class="st6" d="M30.8,17.7c-0.2,0.1-0.3,0-0.3,0s-0.1-0.2,0.1-0.3c0.2-0.1,0.5-0.1,0.5-0.1S30.9,17.6,30.8,17.7z"/>
		<path class="st6" d="M31.5,18.3c-0.1,0.2-0.3,0.2-0.3,0.2s-0.2-0.1-0.1-0.4c0.1-0.2,0.4-0.4,0.4-0.4S31.6,18.1,31.5,18.3z"/>
		<path class="st5" d="M34.1,22.2l-0.2,0.1c0.2,0.1-4.4-1.6-5-5c0,0,0.7,3.1,5.5,4.6L34.1,22.2z"/>
		<path class="st4" d="M28.7,18.3c0.3-0.1,0.4,0.2,0.4,0.2s0,0.3-0.3,0.4s-0.7-0.2-0.7-0.2S28.4,18.3,28.7,18.3z"/>
		<path class="st6" d="M28.6,20c0.3-0.1,0.4,0.2,0.4,0.2s0,0.3-0.3,0.4S28,20.4,28,20.4S28.3,20.1,28.6,20z"/>
		<path class="st6" d="M28,18.9c0.2,0,0.3,0.2,0.3,0.2s0,0.2-0.2,0.3c-0.2,0-0.5-0.1-0.5-0.1S27.8,19,28,18.9z"/>
		<path class="st6" d="M27.8,18.1c0.2,0,0.2,0.1,0.2,0.1s0,0.2-0.2,0.2s-0.4-0.1-0.4-0.1S27.7,18.1,27.8,18.1z"/>
		<path class="st4" d="M28.5,17.4c0.3,0,0.4,0.3,0.4,0.3S28.8,18,28.5,18s-0.7-0.3-0.7-0.3S28.2,17.4,28.5,17.4z"/>
		<path class="st4" d="M29.1,19c0.4-0.1,0.6,0.3,0.6,0.3s0,0.4-0.4,0.5s-1-0.2-1-0.2S28.7,19.1,29.1,19z"/>
		<path class="st4" d="M29.6,20c0.4-0.2,0.7,0.1,0.7,0.1s0.1,0.4-0.3,0.6c-0.3,0.3-1,0.1-1,0.1S29.3,20.2,29.6,20z"/>
		<path class="st4" d="M30.4,20.8c0.3-0.3,0.7-0.1,0.7-0.1s0.3,0.4,0,0.7c-0.3,0.3-1,0.4-1,0.4S30.1,21.1,30.4,20.8z"/>
		<path class="st4" d="M30.6,18.8c-0.3,0.2-0.6,0-0.6,0s-0.2-0.4,0.1-0.6C30.4,18,31,18,31,18S30.9,18.6,30.6,18.8z"/>
		<path class="st4" d="M31.3,19.6c-0.3,0.3-0.6,0.1-0.6,0.1s-0.2-0.4,0-0.6c0.3-0.3,0.9-0.4,0.9-0.4S31.6,19.3,31.3,19.6z"/>
		<path class="st4" d="M32.1,20.2c-0.3,0.2-0.6,0-0.6,0s-0.2-0.4,0.1-0.6c0.3-0.2,0.9-0.2,0.9-0.2S32.4,19.9,32.1,20.2z"/>
	</g>
	<g>
		<path class="st6" d="M21.4,20.8c0.1-0.2-0.1-0.4-0.1-0.4s-0.3-0.1-0.4,0.1s-0.1,0.6-0.1,0.6S21.3,21,21.4,20.8z"/>
		<path class="st6" d="M22.2,20.8c0.1-0.2-0.2-0.4-0.2-0.4s-0.3,0-0.3,0.3c-0.1,0.2,0.1,0.6,0.1,0.6S22.1,21,22.2,20.8z"/>
		<path class="st3" d="M22.3,21.5c0-0.2-0.1-0.3-0.1-0.3s-0.2,0-0.2,0.2s0.1,0.4,0.1,0.4S22.2,21.7,22.3,21.5z"/>
		<path class="st3" d="M23,21.8c0.1-0.1,0-0.3,0-0.3s-0.2-0.1-0.3,0.1c-0.1,0.1-0.1,0.5-0.1,0.5S22.9,22,23,21.8z"/>
		<path class="st5" d="M27,22.3v-0.2c0.2,0.1-3-2.8-5.8-1.8c0,0,2.6-0.7,5.6,2.4L27,22.3z"/>
		<path class="st4" d="M21.8,19.7c0.1,0.2,0.3,0.2,0.3,0.2s0.2-0.1,0.2-0.4c-0.1-0.2-0.4-0.5-0.4-0.5S21.8,19.4,21.8,19.7z"/>
		<path class="st6" d="M23.1,18.9c0.1,0.2,0.3,0.2,0.3,0.2s0.2-0.1,0.2-0.4c-0.1-0.2-0.4-0.5-0.4-0.5S23.1,18.7,23.1,18.9z"/>
		<path class="st6" d="M22.1,18.9c0.1,0.2,0.3,0.2,0.3,0.2s0.2-0.1,0.1-0.3c-0.1-0.2-0.3-0.4-0.3-0.4S22,18.7,22.1,18.9z"/>
		<path class="st6" d="M21.4,19.1c0,0.1,0.2,0.1,0.2,0.1s0.1-0.1,0.1-0.2s-0.2-0.3-0.2-0.3S21.3,19,21.4,19.1z"/>
		<path class="st4" d="M21.1,19.8c0.1,0.2,0.4,0.2,0.4,0.2s0.2-0.2,0.1-0.4c-0.1-0.2-0.5-0.4-0.5-0.4S21,19.6,21.1,19.8z"/>
		<path class="st4" d="M22.6,19.7C22.7,20,23,20,23,20s0.3-0.2,0.2-0.5c-0.1-0.3-0.6-0.7-0.6-0.7S22.5,19.3,22.6,19.7z"/>
		<path class="st4" d="M23.5,19.7c0,0.4,0.4,0.5,0.4,0.5s0.4-0.1,0.4-0.4c0-0.4-0.4-0.8-0.4-0.8S23.5,19.4,23.5,19.7z"/>
		<path class="st4" d="M24.5,20c-0.1,0.3,0.2,0.6,0.2,0.6s0.4,0,0.5-0.3s0-0.9,0-0.9S24.6,19.7,24.5,20z"/>
		<path class="st6" d="M23,20.9c0.1-0.3-0.3-0.5-0.3-0.5s-0.4,0-0.4,0.3c-0.1,0.3,0.2,0.8,0.2,0.8S22.9,21.2,23,20.9z"/>
		<path class="st6" d="M23.9,21.2c0.1-0.3-0.2-0.5-0.2-0.5s-0.4,0-0.5,0.3s0.1,0.8,0.1,0.8S23.7,21.5,23.9,21.2z"/>
		<path class="st6" d="M24.6,21.6c0.1-0.3-0.3-0.5-0.3-0.5s-0.4,0-0.4,0.3c-0.1,0.3,0.2,0.8,0.2,0.8S24.6,21.9,24.6,21.6z"/>
	</g>
	<g>
		<path class="st6" d="M38.3,20.8c-0.3,0-0.4-0.3-0.4-0.3s0.1-0.3,0.4-0.3c0.3,0,0.7,0.3,0.7,0.3S38.6,20.8,38.3,20.8z"/>
		<path class="st6" d="M37.9,21.5c-0.3-0.1-0.3-0.4-0.3-0.4s0.2-0.3,0.5-0.2c0.3,0.1,0.6,0.5,0.6,0.5S38.1,21.6,37.9,21.5z"/>
		<path class="st3" d="M38.5,22.1c-0.2-0.1-0.2-0.3-0.2-0.3s0.1-0.2,0.3-0.1c0.3,0,0.4,0.3,0.4,0.3S38.7,22.1,38.5,22.1z"/>
		<path class="st3" d="M38.4,23c-0.2,0-0.3-0.2-0.3-0.2s0-0.2,0.2-0.3c0.2,0,0.6,0.2,0.6,0.2S38.6,23,38.4,23z"/>
		<path class="st5" d="M36.5,27.3l-0.2-0.1c0,0.3-1-4.6,1.6-6.9c0,0-2.3,2.2-0.9,7.1L36.5,27.3z"/>
		<path class="st4" d="M37,20.6c0.2,0.2,0,0.5,0,0.5s-0.3,0.2-0.5-0.1c-0.2-0.2-0.2-0.7-0.2-0.7S36.8,20.3,37,20.6z"/>
		<path class="st6" d="M35.4,21.4c0.2,0.2,0,0.5,0,0.5S35.2,22,35,21.8s-0.2-0.7-0.2-0.7S35.2,21.2,35.4,21.4z"/>
		<path class="st6" d="M36,20.3c0.2,0.2,0,0.4,0,0.4s-0.2,0.1-0.4,0c-0.2-0.2-0.2-0.5-0.2-0.5S35.9,20.2,36,20.3z"/>
		<path class="st6" d="M36.7,19.8c0.1,0.1,0,0.3,0,0.3s-0.2,0.1-0.3,0s-0.1-0.4-0.1-0.4S36.5,19.7,36.7,19.8z"/>
		<path class="st4" d="M37.5,19.9c0.1,0.3-0.1,0.5-0.1,0.5s-0.3,0.1-0.5-0.2c-0.2-0.3-0.1-0.7-0.1-0.7S37.4,19.7,37.5,19.9z"/>
		<path class="st4" d="M36.5,21.3c0.3,0.3,0,0.7,0,0.7s-0.4,0.2-0.7-0.1c-0.3-0.3-0.4-1-0.4-1S36.2,21,36.5,21.3z"/>
		<path class="st4" d="M36,22.3c0.4,0.2,0.2,0.6,0.2,0.6s-0.3,0.3-0.7,0.1c-0.4-0.2-0.6-0.9-0.6-0.9S35.6,22.1,36,22.3z"/>
		<path class="st4" d="M35.7,23.4c0.4,0.1,0.4,0.5,0.4,0.5s-0.2,0.4-0.6,0.3c-0.4-0.1-0.9-0.6-0.9-0.6S35.3,23.3,35.7,23.4z"/>
		<path class="st6" d="M37.5,22.5c-0.4-0.1-0.3-0.5-0.3-0.5s0.2-0.3,0.6-0.2c0.4,0.1,0.7,0.7,0.7,0.7S37.9,22.6,37.5,22.5z"/>
		<path class="st6" d="M37.3,23.5c-0.4-0.1-0.4-0.5-0.4-0.5s0.2-0.4,0.5-0.3c0.4,0.1,0.8,0.6,0.8,0.6S37.7,23.6,37.3,23.5z"/>
		<path class="st6" d="M37.2,24.5c-0.4-0.1-0.3-0.5-0.3-0.5s0.2-0.3,0.6-0.2c0.4,0.1,0.7,0.7,0.7,0.7S37.5,24.6,37.2,24.5z"/>
	</g>
	<g>
		<path class="st6" d="M32.3,26.3c-0.1,0.3-0.5,0.3-0.5,0.3s-0.3-0.2-0.2-0.5c0.1-0.3,0.6-0.6,0.6-0.6S32.5,25.9,32.3,26.3z"/>
		<path class="st6" d="M32.9,27.1c-0.2,0.3-0.6,0.1-0.6,0.1s-0.2-0.3,0-0.6c0.2-0.3,0.8-0.4,0.8-0.4S33.1,26.8,32.9,27.1z"/>
		<path class="st5" d="M35.2,30h-0.4c0,0-2.4-1.1-3.3-3.6c0,0,1.3,2.5,3.4,3.2L35.2,30z"/>
		<path class="st4" d="M31.4,27.6c0.3-0.1,0.5,0.2,0.5,0.2s0,0.4-0.3,0.5s-0.9,0-0.9,0S31.1,27.7,31.4,27.6z"/>
		<path class="st4" d="M31,26.7c0.3,0,0.5,0.3,0.5,0.3s0,0.4-0.4,0.4c-0.3,0.1-0.8-0.2-0.8-0.2S30.7,26.8,31,26.7z"/>
		<path class="st4" d="M31.2,25.8c0.3,0.2,0.2,0.5,0.2,0.5s-0.3,0.3-0.6,0.1c-0.3-0.2-0.5-0.7-0.5-0.7S30.9,25.6,31.2,25.8z"/>
		<path class="st4" d="M32,28.4c0.4-0.2,0.8,0.2,0.8,0.2s0.1,0.5-0.4,0.7c-0.4,0.2-1.2-0.1-1.2-0.1S31.6,28.6,32,28.4z"/>
		<path class="st6" d="M33.7,27.9C33.4,28.2,33,28,33,28s-0.3-0.4,0-0.7c0.3-0.3,1-0.5,1-0.5S34,27.6,33.7,27.9z"/>
	</g>
	<g>
		<path class="st6" d="M42.9,27.2c-0.3,0-0.5,0.3-0.5,0.3s0.1,0.4,0.4,0.4c0.3,0,0.8-0.3,0.8-0.3S43.2,27.2,42.9,27.2z"/>
		<path class="st4" d="M42.7,28.3c-0.3-0.2-0.6,0-0.6,0s-0.2,0.4,0.1,0.6s0.9,0.3,0.9,0.3S43,28.5,42.7,28.3z"/>
		<path class="st6" d="M42.6,29.2c-0.3-0.1-0.5,0.1-0.5,0.1s-0.1,0.3,0.2,0.5c0.3,0.1,0.8,0.1,0.8,0.1S42.9,29.3,42.6,29.2z"/>
		<path class="st6" d="M43.4,28c-0.2-0.1-0.4,0.1-0.4,0.1s-0.1,0.3,0.2,0.4c0.2,0.1,0.7,0.1,0.7,0.1S43.6,28.1,43.4,28z"/>
		<path class="st6" d="M41.7,30.1c-0.2-0.2-0.5,0-0.5,0s-0.1,0.3,0.1,0.5c0.2,0.2,0.7,0.2,0.7,0.2S41.9,30.3,41.7,30.1z"/>
		<path class="st4" d="M41.8,29.1c-0.2-0.3-0.7-0.1-0.7-0.1s-0.3,0.3,0,0.7c0.2,0.3,0.9,0.5,0.9,0.5S42.1,29.5,41.8,29.1z"/>
		<path class="st4" d="M40.9,29.9c-0.1-0.4-0.6-0.4-0.6-0.4s-0.4,0.2-0.3,0.7c0.1,0.4,0.7,0.8,0.7,0.8S41,30.3,40.9,29.9z"/>
		<path class="st4" d="M39.7,30.4c0-0.4-0.5-0.5-0.5-0.5s-0.4,0.2-0.4,0.5c0,0.4,0.5,0.9,0.5,0.9S39.8,30.8,39.7,30.4z"/>
		<path class="st6" d="M38.6,30.5c0-0.4-0.4-0.5-0.4-0.5s-0.4,0.1-0.5,0.5c0,0.4,0.4,1,0.4,1S38.6,30.9,38.6,30.5z"/>
		<path class="st6" d="M37.4,30.5c0-0.3-0.3-0.4-0.3-0.4s-0.4,0.1-0.4,0.4s0.3,0.8,0.3,0.8S37.4,30.8,37.4,30.5z"/>
		<path class="st6" d="M37.2,28.8c0,0.3,0.4,0.4,0.4,0.4s0.3-0.1,0.3-0.5c0-0.3-0.4-0.7-0.4-0.7S37.1,28.5,37.2,28.8z"/>
		<path class="st6" d="M38.5,27.6c0,0.2,0.3,0.3,0.3,0.3s0.3-0.1,0.2-0.3c0-0.2-0.3-0.5-0.3-0.5S38.4,27.3,38.5,27.6z"/>
		<path class="st6" d="M37.6,27.9c0,0.2,0.2,0.2,0.2,0.2S38,28,38,27.8s-0.3-0.4-0.3-0.4S37.6,27.7,37.6,27.9z"/>
		<path class="st6" d="M41.7,26.8c0,0.3,0.3,0.4,0.3,0.4s0.4-0.1,0.4-0.4S42.1,26,42.1,26S41.8,26.5,41.7,26.8z"/>
		<path class="st6" d="M41,27.6c0.2,0.3,0.5,0.2,0.5,0.2s0.3-0.3,0.1-0.6c-0.2-0.3-0.7-0.5-0.7-0.5S40.8,27.3,41,27.6z"/>
		<path class="st6" d="M40.2,28.1c0.2,0.3,0.6,0.2,0.6,0.2s0.3-0.3,0.1-0.6c-0.2-0.3-0.8-0.5-0.8-0.5S40,27.8,40.2,28.1z"/>
		<path class="st3" d="M39.2,28.4c0.1,0.4,0.5,0.3,0.5,0.3s0.3-0.2,0.2-0.6s-0.7-0.7-0.7-0.7S39.1,28.1,39.2,28.4z"/>
		<path class="st3" d="M40.1,26.9c0.1,0.3,0.4,0.2,0.4,0.2s0.2-0.2,0.2-0.4c-0.1-0.3-0.5-0.5-0.5-0.5S40.1,26.6,40.1,26.9z"/>
		<path class="st3" d="M39.3,27.2c0.1,0.3,0.4,0.3,0.4,0.3s0.3-0.2,0.2-0.5s-0.5-0.6-0.5-0.6S39.2,26.9,39.3,27.2z"/>
		<path class="st3" d="M41.2,26.7c0.2,0.1,0.4,0,0.4,0s0.1-0.2-0.1-0.4c-0.2-0.1-0.6-0.1-0.6-0.1S41,26.6,41.2,26.7z"/>
		<path class="st3" d="M38.1,28.7c0.1,0.4,0.5,0.3,0.5,0.3s0.3-0.2,0.2-0.6s-0.7-0.7-0.7-0.7S38,28.3,38.1,28.7z"/>
	</g>
	<path class="st5" d="M36.2,29.8l0.1,0.1c-0.3,0,4.7,0.1,6.5-2.8c0,0-1.8,2.6-6.8,2.2L36.2,29.8z"/>
</g>
<g>
	<polyline class="st13" points="244.9,21.9 260.4,37.4 244.9,52.9 	"/>
	<g>
		<path class="st0" d="M239.2,40.6c0.2,0,0.4,0,0.6,0c0.2,0,0.4-0.1,0.5-0.1s0.3-0.1,0.5-0.2c0.2-0.1,0.3-0.1,0.5-0.2v-1.9H240
			c-0.1,0-0.1,0-0.2-0.1c0,0-0.1-0.1-0.1-0.2v-0.7h2.6v3.3c-0.2,0.2-0.4,0.3-0.7,0.4c-0.2,0.1-0.5,0.2-0.8,0.3s-0.6,0.1-0.9,0.2
			c-0.3,0-0.6,0.1-1,0.1c-0.6,0-1.2-0.1-1.7-0.3s-1-0.5-1.3-0.9s-0.7-0.8-0.9-1.4s-0.3-1.1-0.3-1.8s0.1-1.3,0.3-1.8s0.5-1,0.9-1.4
			s0.8-0.7,1.4-0.9c0.5-0.2,1.1-0.3,1.8-0.3c0.3,0,0.7,0,0.9,0.1c0.3,0,0.6,0.1,0.8,0.2c0.2,0.1,0.5,0.2,0.7,0.3s0.4,0.3,0.6,0.5
			l-0.3,0.5c-0.1,0.1-0.2,0.2-0.3,0.2s-0.1,0-0.2-0.1c-0.1-0.1-0.2-0.1-0.3-0.2c-0.1-0.1-0.3-0.2-0.5-0.2c-0.2-0.1-0.4-0.1-0.6-0.2
			c-0.2-0.1-0.5-0.1-0.9-0.1c-0.5,0-0.9,0.1-1.3,0.2s-0.7,0.4-1,0.7s-0.5,0.7-0.6,1.1c-0.1,0.4-0.2,0.9-0.2,1.4s0.1,1,0.2,1.5
			s0.4,0.8,0.7,1.1s0.6,0.5,1,0.7C238.3,40.6,238.8,40.6,239.2,40.6z"/>
		<path class="st0" d="M252.2,37.2c0,0.6-0.1,1.2-0.3,1.8c-0.2,0.5-0.5,1-0.9,1.4s-0.8,0.7-1.3,0.9s-1.1,0.3-1.7,0.3
			c-0.6,0-1.2-0.1-1.7-0.3s-1-0.5-1.3-0.9s-0.7-0.9-0.9-1.4s-0.3-1.1-0.3-1.8c0-0.6,0.1-1.2,0.3-1.8s0.5-1,0.9-1.4s0.8-0.7,1.3-0.9
			s1.1-0.3,1.7-0.3c0.6,0,1.2,0.1,1.7,0.3s1,0.5,1.3,0.9s0.7,0.9,0.9,1.4S252.2,36.6,252.2,37.2z M251,37.2c0-0.5-0.1-1-0.2-1.4
			s-0.3-0.8-0.6-1.1s-0.6-0.5-1-0.7s-0.8-0.2-1.3-0.2s-0.9,0.1-1.3,0.2s-0.7,0.4-1,0.7s-0.5,0.6-0.6,1.1s-0.2,0.9-0.2,1.4
			s0.1,1,0.2,1.4s0.3,0.8,0.6,1.1s0.6,0.5,1,0.7s0.8,0.2,1.3,0.2s0.9-0.1,1.3-0.2c0.4-0.2,0.7-0.4,1-0.7s0.5-0.6,0.6-1.1
			S251,37.7,251,37.2z"/>
	</g>
</g>
</svg>
