<?xml version="1.0" encoding="utf-8"?>
<!-- Generator: Adobe Illustrator 22.1.0, SVG Export Plug-In . SVG Version: 6.00 Build 0)  -->
<svg version="1.1" id="Layer_1" xmlns="http://www.w3.org/2000/svg" xmlns:xlink="http://www.w3.org/1999/xlink" x="0px" y="0px"
	 viewBox="0 0 499.9 129" style="enable-background:new 0 0 499.9 129;" xml:space="preserve">
<style type="text/css">
	.st0{fill:#FFFFFF;}
	.st1{fill:#D4D9EE;}
	.st2{fill:#ACB9DF;}
	.st3{fill:#8298CD;}
	.st4{fill:none;stroke:#ACB9DF;stroke-width:1.1425;stroke-miterlimit:10;}
	.st5{fill:none;stroke:#8298CD;stroke-miterlimit:10;}
</style>
<g>
	<g>
		<path class="st0" d="M127.4,69.7C130.6,34.8,105,3.8,70,0.6S4.2,23,0.9,57.9c-0.3,3.1-0.3,6.2-0.2,9.3c9.1-3.7,19.2-5.3,29.7-4.4
			c31.8,3,55.9,28.9,57.5,59.8C109.3,114.1,125.1,94.2,127.4,69.7z"/>
		<path class="st1" d="M30.4,62.9c-10.5-1-20.6,0.7-29.7,4.4c1.6,31,25.7,56.9,57.5,59.8c10.5,1,20.6-0.7,29.7-4.4
			C86.3,91.7,62.2,65.8,30.4,62.9z"/>
	</g>
	<g>
		<g>
			<path class="st0" d="M135.7,120.6V93.8h2.4v12.3h0.1l9.5-12.3h2.9l-10,12.5l10.3,14.3h-3l-9.7-13.8h-0.1v13.8H135.7z"/>
			<path class="st0" d="M154.3,120.6V93.8h3.6l10.9,23.6l0.1-0.1V93.8h2.4v26.9h-3.6l-10.9-23.9l-0.1,0.1v23.8H154.3z"/>
			<path class="st0" d="M184.5,93.3c8,0,8.1,6.7,8.1,14c0,7.3-0.1,14-8.1,14s-8.1-6.7-8.1-14C176.4,100,176.5,93.3,184.5,93.3z
				 M184.5,119.2c5.7,0,5.7-4.8,5.7-11.9s-0.1-11.9-5.7-11.9s-5.7,4.8-5.7,11.9S178.9,119.2,184.5,119.2z"/>
			<path class="st0" d="M208.8,93.8h3.2l5.4,23.6h0.1l5.7-23.6h2.3l-6.7,26.9h-3.1l-5.4-23.9h-0.1l-5.5,23.9h-3l-6.5-26.9h2.5
				l5.4,23.7h0.1L208.8,93.8z"/>
			<path class="st0" d="M228.4,120.6V93.8h2.4v24.9h8.9v2H228.4z"/>
			<path class="st0" d="M255.3,93.8v2h-9.8v10h9.3v2h-9.3v10.8h10v2h-12.4V93.8H255.3z"/>
			<path class="st0" d="M259.7,93.8h7.1c7.5,0,8.4,4.4,8.4,13.5c0,8.9-1.3,13.3-9.4,13.3h-6.1V93.8z M262.1,118.6h2.9
				c7.2,0,7.9-1.9,7.9-12.9c0-7.7-1-9.9-7.7-9.9h-3.1V118.6z"/>
			<path class="st0" d="M292.9,108.6h-5.4v-2h7.8v13.4c-2.4,0.7-4.9,1.1-7.4,1.1c-8.7,0-8.1-8.7-8.1-14c0-5.2-0.6-14,8.1-14
				c5.1,0,7.8,2.2,7.7,7.4h-2.4c0-3.5-1.5-5.4-5.3-5.4c-5.8,0-5.7,5.2-5.7,11.9c0,6.8-0.1,11.9,5.7,11.9c2,0,3.8-0.3,5-0.8V108.6z"
				/>
			<path class="st0" d="M313.2,93.8v2h-9.8v10h9.3v2h-9.3v10.8h10v2h-12.4V93.8H313.2z"/>
			<path class="st0" d="M325.4,93.8h7.4c2.2,0,5.9,0.3,5.9,6.5c0,5.4-1.7,7.9-6.4,7.9h-4.5v12.5h-2.4V93.8z M327.8,106.1h4.4
				c2.5,0,4.1-1.2,4.1-5.4c0-4.6-2-5-4.1-5h-4.4V106.1z"/>
			<path class="st0" d="M349.9,93.3c8,0,8.1,6.7,8.1,14c0,7.3-0.1,14-8.1,14c-8,0-8.1-6.7-8.1-14C341.8,100,341.9,93.3,349.9,93.3z
				 M349.9,119.2c5.7,0,5.7-4.8,5.7-11.9s-0.1-11.9-5.7-11.9c-5.7,0-5.7,4.8-5.7,11.9S344.3,119.2,349.9,119.2z"/>
			<path class="st0" d="M365.2,107.6v13h-2.4V93.8h7.4c5.2,0,6.5,1.7,6.5,6.4c0,3.3-0.6,5.6-4.2,6.4v0.1c3.8,0.8,4,1.2,4,10.8
				c0,1,0.2,2.1,0.3,3.1h-2.3c-0.2-0.8-0.3-5.2-0.4-6.7c0-1.2,0.7-6.3-4.4-6.3H365.2z M365.2,105.6h3.9c3.6,0,5.2-0.9,5.2-5.4
				c0-3.7-1.4-4.4-4.2-4.4h-4.9V105.6z"/>
			<path class="st0" d="M385.9,95.8h-6.6v-2h15.5v2h-6.6v24.9h-2.4V95.8z"/>
			<path class="st0" d="M405.3,93.8l8.4,26.9h-2.5l-2.2-7.1h-10.5l-2.1,7.1H394l8.5-26.9H405.3z M408.4,111.6l-4.6-15.2h-0.1
				l-4.5,15.2H408.4z"/>
			<path class="st0" d="M416.7,120.6V93.8h2.4v24.9h8.9v2H416.7z"/>
		</g>
	</g>
	<g>
		<path class="st0" d="M144.6,81.5c-7.7,0-9.1-4.5-8.8-9.7h6.2c0,2.8,0.1,5.2,3.5,5.2c2.1,0,3.1-1.4,3.1-3.4
			c0-5.4-12.5-5.7-12.5-14.5c0-4.7,2.2-8.4,9.8-8.4c6.1,0,9.1,2.7,8.7,8.9h-6.1c0-2.2-0.4-4.5-2.9-4.5c-2,0-3.2,1.1-3.2,3.2
			c0,5.6,12.5,5.2,12.5,14.5C155,80.5,149.3,81.5,144.6,81.5z"/>
		<path class="st0" d="M159.5,81V51.2h6.2V76h9.3V81H159.5z"/>
		<path class="st0" d="M177.7,81V51.2H194v4.6h-10v7.3h9.2v4.6H184v8.7h10.3V81H177.7z"/>
		<path class="st0" d="M198.4,81V51.2h16.2v4.6h-10v7.3h9.2v4.6h-9.2v8.7h10.3V81H198.4z"/>
		<path class="st0" d="M219,51.2h11.2c5.7,0,7.9,3.5,7.9,8.9c0,3.4-1,8.7-8.3,8.7h-4.6V81H219V51.2z M225.2,64.3h3.5
			c1.9,0,3.1-2,3.1-4c0-2.4-0.7-4.5-3.5-4.5h-3.1V64.3z"/>
		<path class="st0" d="M251.2,51.2h10.4c8.2,0,9.7,5.4,9.7,14.7c0,4.6,0.7,15-9.9,15h-10.1V51.2z M257.4,76.4h3
			c3.8,0,4.5-2.8,4.5-10.3c0-5.5,0-10.3-4.3-10.3h-3.2V76.4z"/>
		<path class="st0" d="M276.2,81V51.2h6.2V81H276.2z"/>
		<path class="st0" d="M295.8,81.5c-7.7,0-9.1-4.5-8.8-9.7h6.2c0,2.8,0.1,5.2,3.5,5.2c2.1,0,3.1-1.4,3.1-3.4
			c0-5.4-12.5-5.7-12.5-14.5c0-4.7,2.2-8.4,9.8-8.4c6.1,0,9.1,2.7,8.7,8.9h-6.1c0-2.2-0.4-4.5-2.9-4.5c-2,0-3.2,1.1-3.2,3.2
			c0,5.6,12.5,5.2,12.5,14.5C306.1,80.5,300.5,81.5,295.8,81.5z"/>
		<path class="st0" d="M310.3,66.1c0-7.9,0-15.4,10.3-15.4c10.3,0,10.3,7.5,10.3,15.4c0,7.8,0,15.4-10.3,15.4
			C310.3,81.5,310.3,73.9,310.3,66.1z M324.5,66.1c0-7.6-0.5-10.9-4-10.9c-3.5,0-4,3.3-4,10.9c0,7.6,0.5,10.9,4,10.9
			C324.1,77,324.5,73.7,324.5,66.1z"/>
		<path class="st0" d="M341.9,81h-6.2V51.2h11.5c4.2,0,7,2.7,7,7.8c0,3.8-1.5,6.6-5.5,7.3v0.1c1.4,0.2,5.4,0.5,5.4,5.9
			c0,1.9,0.1,7.5,0.7,8.7h-6.1c-0.8-1.8-0.7-3.8-0.7-5.8c0-3.5,0.3-6.6-4.5-6.6h-1.6V81z M341.9,64.1h2.8c2.5,0,3.2-2.5,3.2-4.4
			c0-2.8-1.2-3.9-3.2-3.9h-2.8V64.1z"/>
		<path class="st0" d="M358.8,51.2h10.4c8.2,0,9.7,5.4,9.7,14.7c0,4.6,0.7,15-9.9,15h-10.1V51.2z M365,76.4h3
			c3.8,0,4.5-2.8,4.5-10.3c0-5.5,0-10.3-4.3-10.3H365V76.4z"/>
		<path class="st0" d="M383.9,81V51.2h16.2v4.6h-10v7.3h9.2v4.6h-9.2v8.7h10.3V81H383.9z"/>
		<path class="st0" d="M410.6,81h-6.2V51.2h11.5c4.2,0,7,2.7,7,7.8c0,3.8-1.5,6.6-5.5,7.3v0.1c1.4,0.2,5.4,0.5,5.4,5.9
			c0,1.9,0.1,7.5,0.7,8.7h-6.1c-0.8-1.8-0.7-3.8-0.7-5.8c0-3.5,0.3-6.6-4.5-6.6h-1.6V81z M410.6,64.1h2.8c2.5,0,3.2-2.5,3.2-4.4
			c0-2.8-1.2-3.9-3.2-3.9h-2.8V64.1z"/>
	</g>
	<g>
		<g>
			<path class="st2" d="M80.7,50.9c15.7,15.7,17,45.7,9.7,52.9c-7.2,7.2-37.3,5.9-52.9-9.7s-19.4-31.5-3.9-47.1S65,35.2,80.7,50.9z"
				/>
			<g>
				<path class="st3" d="M79.4,93.6c-2,0.2-2.7,1.3-4.5,1.5C69.9,95.7,67,82.4,60,78.3c-8-4.7-22.2,0.7-27.6,10.2
					c1.5,1.9,3.2,3.8,5.1,5.7c15.7,15.7,45.7,17,52.9,9.7c0.1-0.1,0.1-0.2,0.2-0.3C89.4,98.4,83.1,93.3,79.4,93.6z"/>
			</g>
		</g>
		<path class="st4" d="M58.1,84c0,6.2-5,11.2-11.2,11.2"/>
		<path class="st5" d="M78.2,64c0,6.2-5,11.2-11.2,11.2"/>
	</g>
</g>
</svg>
