<?xml version="1.0" encoding="utf-8"?>
<!-- Generator: Adobe Illustrator 23.0.4, SVG Export Plug-In . SVG Version: 6.00 Build 0)  -->
<svg version="1.1" id="Layer_1" xmlns="http://www.w3.org/2000/svg" xmlns:xlink="http://www.w3.org/1999/xlink" x="0px" y="0px"
	 viewBox="0 0 239.5 46.8" style="enable-background:new 0 0 239.5 46.8;" xml:space="preserve">
<style type="text/css">
	.st0{fill:#FFFFFF;stroke:#FFFFFF;stroke-width:1.1797;stroke-miterlimit:10;}
	.st1{fill:#D3D9EE;stroke:#D3D9EE;stroke-width:1.1797;stroke-miterlimit:10;}
	.st2{fill:#ABB8DE;}
	.st3{fill:#8197CC;}
	.st4{fill:none;stroke:#ABB8DE;stroke-width:0.3579;stroke-miterlimit:10;}
	.st5{fill:none;stroke:#8197CC;stroke-width:0.3133;stroke-miterlimit:10;}
	.st6{fill:#FFFFFF;}
</style>
<g>
	<g>
		<g>
			<path class="st0" d="M44.4,25.4c1-10.9-7-20.6-18-21.7s-20.6,7-21.7,18c-0.1,1-0.1,2-0.1,2.9c2.9-1.2,6-1.7,9.3-1.4
				c10,0.9,17.5,9,18,18.7C38.8,39.3,43.7,33.1,44.4,25.4z"/>
			<path class="st1" d="M14.1,23.3c-3.3-0.3-6.4,0.2-9.3,1.4c0.5,9.7,8.1,17.8,18,18.7c3.3,0.3,6.4-0.2,9.3-1.4
				C31.6,32.3,24,24.2,14.1,23.3z"/>
		</g>
		<g>
			<g>
				<path class="st2" d="M29.8,19.5c4.9,4.9,5.3,14.3,3.1,16.6S21.2,38,16.3,33.1s-6.1-9.9-1.2-14.7S24.9,14.6,29.8,19.5z"/>
				<g>
					<path class="st3" d="M29.4,32.9c-0.6,0.1-0.8,0.4-1.4,0.5c-1.5,0.2-2.4-4-4.7-5.3c-2.5-1.5-6.9,0.2-8.6,3.2
						c0.5,0.6,1,1.2,1.6,1.8c4.9,4.9,14.3,5.3,16.6,3.1c0,0,0-0.1,0.1-0.1C32.5,34.4,30.6,32.8,29.4,32.9z"/>
				</g>
			</g>
			<path class="st4" d="M22.8,29.9c0,1.9-1.6,3.5-3.5,3.5"/>
			<path class="st5" d="M29,23.6c0,1.9-1.6,3.5-3.5,3.5"/>
		</g>
	</g>
	<g>
		<path class="st6" d="M230.5,19.7c-0.2-0.2-0.5-0.3-0.8-0.3c-0.3-0.1-0.6-0.1-0.9-0.1c-0.2,0-0.5,0-0.7,0c-0.2,0-0.4,0-0.5,0.1v4.1
			c0,0,0.1,0,0.2,0c0.1,0,0.2,0,0.3,0c0.1,0,0.2,0,0.3,0s0.2,0,0.2,0c0.3,0,0.6,0,1-0.1c0.3-0.1,0.6-0.2,0.9-0.3
			c0.3-0.2,0.5-0.4,0.6-0.7c0.2-0.3,0.2-0.7,0.2-1.1c0-0.4-0.1-0.7-0.2-1C231,20.1,230.8,19.9,230.5,19.7z"/>
		<path class="st6" d="M229.2,15.7C229.2,15.7,229.2,15.7,229.2,15.7L229.2,15.7h-16.6v3.8v11.8l0,0h16.6v0c0,0,0,0,0,0
			c4.3,0,7.8-3.5,7.8-7.8S233.5,15.7,229.2,15.7z M221.6,30l-3.7-5.4h-0.6V30h-2.5V17.3h2.5v5.6l0.6-0.3l3.5-5.3h2.8l-3.7,5.3
			l-1,0.7l1,0.7l4.2,5.9H221.6z M233.5,23.4c-0.3,0.5-0.6,1-1.1,1.3c-0.5,0.3-1,0.6-1.6,0.8c-0.6,0.2-1.2,0.2-1.8,0.2
			c-0.1,0-0.2,0-0.3,0c-0.1,0-0.3,0-0.4,0c-0.1,0-0.3,0-0.4,0c-0.1,0-0.2,0-0.3,0V30h-2.5V17.5c0.5-0.1,1.1-0.2,1.7-0.2
			c0.6-0.1,1.2-0.1,1.8-0.1c0.6,0,1.3,0.1,1.9,0.2c0.6,0.1,1.2,0.3,1.7,0.6c0.5,0.3,0.9,0.7,1.2,1.3c0.3,0.5,0.5,1.3,0.5,2.1
			C233.9,22.1,233.8,22.8,233.5,23.4z"/>
	</g>
	<g>
		<path class="st6" d="M63,27.4c0-0.6-0.2-1.1-0.6-1.5c-0.4-0.4-0.8-0.7-1.4-1.1s-1.2-0.6-1.8-0.9s-1.3-0.6-1.8-1s-1-0.9-1.4-1.4
			c-0.4-0.6-0.6-1.3-0.6-2.1c0-1.2,0.4-2.2,1.3-2.9c0.9-0.7,2.1-1.1,3.6-1.1c0.9,0,1.7,0.1,2.5,0.2c0.8,0.1,1.3,0.3,1.8,0.5L64,17.8
			c-0.3-0.2-0.9-0.3-1.5-0.5c-0.7-0.2-1.4-0.2-2.3-0.2c-1,0-1.7,0.2-2.2,0.7c-0.5,0.4-0.7,1-0.7,1.6c0,0.6,0.2,1.1,0.6,1.5
			c0.4,0.4,0.8,0.7,1.4,1c0.6,0.3,1.2,0.6,1.8,0.9c0.7,0.3,1.3,0.6,1.8,1s1,0.9,1.4,1.4c0.4,0.6,0.6,1.2,0.6,2.1
			c0,0.7-0.1,1.3-0.4,1.8c-0.2,0.5-0.6,1-1.1,1.4s-1,0.7-1.7,0.9s-1.4,0.3-2.2,0.3c-1.1,0-2.1-0.1-2.8-0.3c-0.7-0.2-1.3-0.4-1.7-0.6
			l0.6-1.7c0.3,0.2,0.9,0.4,1.5,0.6c0.7,0.2,1.4,0.3,2.3,0.3c0.5,0,1,0,1.4-0.1c0.4-0.1,0.8-0.3,1.1-0.5c0.3-0.2,0.6-0.5,0.8-0.8
			C62.9,28.3,63,27.9,63,27.4z"/>
		<path class="st6" d="M76.1,31.4h-9.3V15.7h1.9v14.1h7.4V31.4z"/>
		<path class="st6" d="M77.7,15.7h8.6v1.7h-6.7v5.2h6.1v1.7h-6.1v5.6h6.8v1.7h-8.7V15.7z"/>
		<path class="st6" d="M88.5,15.7h8.6v1.7h-6.7v5.2h6.1v1.7h-6.1v5.6h6.8v1.7h-8.7V15.7z"/>
		<path class="st6" d="M99.3,15.9c0.6-0.1,1.2-0.2,1.8-0.3c0.7,0,1.3-0.1,2-0.1c0.7,0,1.4,0.1,2.1,0.2c0.7,0.1,1.4,0.4,1.9,0.7
			c0.6,0.4,1.1,0.9,1.4,1.5c0.4,0.6,0.6,1.4,0.6,2.4c0,1-0.2,1.8-0.5,2.4c-0.3,0.7-0.8,1.2-1.4,1.6c-0.6,0.4-1.2,0.7-2,0.9
			c-0.7,0.2-1.5,0.3-2.3,0.3c-0.1,0-0.2,0-0.4,0c-0.2,0-0.4,0-0.5,0c-0.2,0-0.4,0-0.6,0c-0.2,0-0.3,0-0.4,0v6h-1.9V15.9z
			 M103.2,17.1c-0.4,0-0.8,0-1.1,0c-0.4,0-0.6,0.1-0.9,0.1v6.5c0.1,0,0.2,0,0.4,0.1c0.2,0,0.3,0,0.5,0c0.2,0,0.4,0,0.5,0
			s0.3,0,0.4,0c0.5,0,1,0,1.5-0.1c0.5-0.1,1-0.3,1.4-0.5s0.7-0.6,1-1.1c0.2-0.5,0.4-1.1,0.4-1.8c0-0.6-0.1-1.1-0.3-1.5
			c-0.2-0.4-0.5-0.7-0.9-1c-0.4-0.2-0.8-0.4-1.3-0.5C104.1,17.2,103.6,17.1,103.2,17.1z"/>
		<path class="st6" d="M116.4,15.7c0.3,0,0.6-0.1,1-0.1c0.4,0,0.7,0,1.1,0c0.4,0,0.8,0,1.1,0c0.4,0,0.7,0,1,0c1.3,0,2.4,0.2,3.3,0.6
			c0.9,0.4,1.7,0.9,2.3,1.6c0.6,0.7,1,1.5,1.3,2.5c0.3,1,0.4,2,0.4,3.2c0,1.1-0.1,2.1-0.4,3.1c-0.3,1-0.7,1.9-1.3,2.6
			c-0.6,0.8-1.4,1.4-2.3,1.8c-1,0.5-2.1,0.7-3.5,0.7c-0.2,0-0.6,0-0.9,0c-0.4,0-0.8,0-1.2,0c-0.4,0-0.8,0-1.1-0.1
			c-0.3,0-0.6,0-0.7-0.1V15.7z M120.7,17.2c-0.2,0-0.4,0-0.6,0s-0.5,0-0.7,0c-0.2,0-0.4,0-0.6,0c-0.2,0-0.3,0-0.4,0v12.6
			c0.1,0,0.2,0,0.4,0c0.2,0,0.4,0,0.7,0c0.2,0,0.4,0,0.7,0c0.2,0,0.4,0,0.4,0c1,0,1.9-0.2,2.6-0.5c0.7-0.4,1.3-0.8,1.7-1.5
			s0.7-1.3,0.9-2.1s0.3-1.6,0.3-2.4c0-0.7-0.1-1.5-0.2-2.2c-0.2-0.7-0.5-1.4-0.9-2c-0.4-0.6-0.9-1.1-1.6-1.5
			C122.6,17.4,121.7,17.2,120.7,17.2z"/>
		<path class="st6" d="M130.4,15.7h1.9v15.8h-1.9V15.7z"/>
		<path class="st6" d="M142.4,27.4c0-0.6-0.2-1.1-0.6-1.5c-0.4-0.4-0.8-0.7-1.4-1.1s-1.2-0.6-1.8-0.9s-1.3-0.6-1.8-1s-1-0.9-1.4-1.4
			c-0.4-0.6-0.6-1.3-0.6-2.1c0-1.2,0.4-2.2,1.3-2.9c0.9-0.7,2.1-1.1,3.6-1.1c0.9,0,1.7,0.1,2.5,0.2c0.8,0.1,1.3,0.3,1.8,0.5
			l-0.6,1.7c-0.3-0.2-0.9-0.3-1.5-0.5c-0.7-0.2-1.4-0.2-2.3-0.2c-1,0-1.7,0.2-2.2,0.7c-0.5,0.4-0.7,1-0.7,1.6c0,0.6,0.2,1.1,0.6,1.5
			c0.4,0.4,0.8,0.7,1.4,1c0.6,0.3,1.2,0.6,1.8,0.9c0.7,0.3,1.3,0.6,1.8,1s1,0.9,1.4,1.4c0.4,0.6,0.6,1.2,0.6,2.1
			c0,0.7-0.1,1.3-0.4,1.8c-0.2,0.5-0.6,1-1.1,1.4s-1,0.7-1.7,0.9s-1.4,0.3-2.2,0.3c-1.1,0-2.1-0.1-2.8-0.3c-0.7-0.2-1.3-0.4-1.7-0.6
			l0.6-1.7c0.3,0.2,0.9,0.4,1.5,0.6c0.7,0.2,1.4,0.3,2.3,0.3c0.5,0,1,0,1.4-0.1c0.4-0.1,0.8-0.3,1.1-0.5c0.3-0.2,0.6-0.5,0.8-0.8
			C142.3,28.3,142.4,27.9,142.4,27.4z"/>
		<path class="st6" d="M145.7,23.6c0-2.6,0.6-4.6,1.7-6c1.1-1.4,2.7-2.1,4.7-2.1c1.1,0,2.1,0.2,2.9,0.6c0.8,0.4,1.5,0.9,2,1.7
			c0.5,0.7,0.9,1.6,1.2,2.6s0.4,2.1,0.4,3.3c0,2.6-0.6,4.6-1.7,6c-1.1,1.4-2.7,2.1-4.8,2.1c-1.1,0-2-0.2-2.8-0.6
			c-0.8-0.4-1.5-0.9-2-1.7c-0.5-0.7-0.9-1.6-1.2-2.6S145.7,24.8,145.7,23.6z M147.7,23.6c0,0.9,0.1,1.7,0.3,2.5
			c0.2,0.8,0.4,1.5,0.8,2.1c0.4,0.6,0.8,1.1,1.4,1.4c0.6,0.4,1.2,0.5,2,0.5c1.4,0,2.5-0.5,3.3-1.6c0.8-1.1,1.2-2.7,1.2-4.9
			c0-0.9-0.1-1.7-0.3-2.5c-0.2-0.8-0.4-1.5-0.8-2.1c-0.4-0.6-0.8-1.1-1.4-1.4s-1.2-0.5-2-0.5c-1.4,0-2.5,0.5-3.3,1.6
			C148.1,19.7,147.7,21.4,147.7,23.6z"/>
		<path class="st6" d="M160.9,15.9c0.6-0.1,1.2-0.2,2-0.2c0.7-0.1,1.4-0.1,2-0.1c0.7,0,1.3,0.1,2,0.2c0.6,0.2,1.2,0.4,1.6,0.7
			c0.5,0.3,0.9,0.8,1.1,1.4c0.3,0.6,0.4,1.2,0.4,2c0,1.2-0.3,2.2-1,3c-0.7,0.8-1.5,1.3-2.6,1.5l1.1,0.8l3.9,6.2h-2.2l-4.3-6.8
			l-2.2-0.3v7.1h-1.9V15.9z M165,17.1c-0.2,0-0.4,0-0.6,0c-0.2,0-0.4,0-0.6,0c-0.2,0-0.4,0-0.6,0c-0.2,0-0.3,0-0.4,0.1v5.8h1.8
			c1,0,1.9-0.3,2.6-0.8c0.7-0.5,1-1.3,1-2.4c0-0.8-0.3-1.5-0.8-2C166.7,17.4,165.9,17.1,165,17.1z"/>
		<path class="st6" d="M173.3,15.7c0.3,0,0.6-0.1,1-0.1c0.4,0,0.7,0,1.1,0c0.4,0,0.8,0,1.1,0c0.4,0,0.7,0,1,0c1.3,0,2.4,0.2,3.3,0.6
			c0.9,0.4,1.7,0.9,2.3,1.6c0.6,0.7,1,1.5,1.3,2.5c0.3,1,0.4,2,0.4,3.2c0,1.1-0.1,2.1-0.4,3.1c-0.3,1-0.7,1.9-1.3,2.6
			c-0.6,0.8-1.4,1.4-2.3,1.8c-1,0.5-2.1,0.7-3.5,0.7c-0.2,0-0.6,0-0.9,0c-0.4,0-0.8,0-1.2,0c-0.4,0-0.8,0-1.1-0.1
			c-0.3,0-0.6,0-0.7-0.1V15.7z M177.6,17.2c-0.2,0-0.4,0-0.6,0s-0.5,0-0.7,0c-0.2,0-0.4,0-0.6,0c-0.2,0-0.3,0-0.4,0v12.6
			c0.1,0,0.2,0,0.4,0c0.2,0,0.4,0,0.7,0c0.2,0,0.4,0,0.7,0c0.2,0,0.4,0,0.4,0c1,0,1.9-0.2,2.6-0.5c0.7-0.4,1.3-0.8,1.7-1.5
			s0.7-1.3,0.9-2.1s0.3-1.6,0.3-2.4c0-0.7-0.1-1.5-0.2-2.2c-0.2-0.7-0.5-1.4-0.9-2c-0.4-0.6-0.9-1.1-1.6-1.5
			C179.5,17.4,178.6,17.2,177.6,17.2z"/>
		<path class="st6" d="M187.1,15.7h8.6v1.7H189v5.2h6.1v1.7H189v5.6h6.8v1.7h-8.7V15.7z"/>
		<path class="st6" d="M197.9,15.9c0.6-0.1,1.2-0.2,2-0.2c0.7-0.1,1.4-0.1,2-0.1c0.7,0,1.3,0.1,2,0.2c0.6,0.2,1.2,0.4,1.6,0.7
			c0.5,0.3,0.9,0.8,1.1,1.4c0.3,0.6,0.4,1.2,0.4,2c0,1.2-0.3,2.2-1,3c-0.7,0.8-1.5,1.3-2.6,1.5l1.1,0.8l3.9,6.2h-2.2l-4.3-6.8
			l-2.2-0.3v7.1h-1.9V15.9z M202,17.1c-0.2,0-0.4,0-0.6,0c-0.2,0-0.4,0-0.6,0c-0.2,0-0.4,0-0.6,0c-0.2,0-0.3,0-0.4,0.1v5.8h1.8
			c1,0,1.9-0.3,2.6-0.8c0.7-0.5,1-1.3,1-2.4c0-0.8-0.3-1.5-0.8-2C203.7,17.4,203,17.1,202,17.1z"/>
	</g>
</g>
</svg>
