<?xml version="1.0" encoding="utf-8"?>
<!-- Generator: Adobe Illustrator 22.1.0, SVG Export Plug-In . SVG Version: 6.00 Build 0)  -->
<svg version="1.1" id="Layer_1" xmlns="http://www.w3.org/2000/svg" xmlns:xlink="http://www.w3.org/1999/xlink" x="0px" y="0px"
	 viewBox="0 0 400 23" style="enable-background:new 0 0 400 23;" xml:space="preserve">
<style type="text/css">
	.st0{fill:#FFFFFF;}
</style>
<g>
	<g>
		<g>
			<path class="st0" d="M201.7,21.1V2.9h1.6v8.3h0l6.4-8.3h1.9l-6.8,8.5l7,9.7h-2l-6.6-9.3h0v9.3H201.7z"/>
			<path class="st0" d="M214.3,21.1V2.9h2.5l7.4,15.9l0.1-0.1V2.9h1.6v18.2h-2.4L216,4.9l0,0.1v16.1H214.3z"/>
			<path class="st0" d="M234.7,2.6c5.4,0,5.5,4.5,5.5,9.4c0,4.9-0.1,9.4-5.5,9.4s-5.5-4.5-5.5-9.4C229.2,7.1,229.3,2.6,234.7,2.6z
				 M234.7,20.1c3.8,0,3.9-3.2,3.9-8.1s-0.1-8.1-3.9-8.1c-3.8,0-3.9,3.2-3.9,8.1S230.9,20.1,234.7,20.1z"/>
			<path class="st0" d="M251.1,2.9h2.2l3.6,15.9h0.1l3.9-15.9h1.6l-4.5,18.2h-2.1l-3.6-16.1h0l-3.7,16.1h-2L242,2.9h1.7l3.7,16h0.1
				L251.1,2.9z"/>
			<path class="st0" d="M264.3,21.1V2.9h1.6v16.8h6v1.4H264.3z"/>
			<path class="st0" d="M282.6,2.9v1.4h-6.6v6.8h6.3v1.4h-6.3v7.3h6.8v1.4h-8.4V2.9H282.6z"/>
			<path class="st0" d="M285.5,2.9h4.8c5.1,0,5.7,3,5.7,9.2c0,6-0.9,9-6.4,9h-4.1V2.9z M287.1,19.7h2c4.9,0,5.3-1.3,5.3-8.7
				c0-5.2-0.7-6.7-5.2-6.7h-2.1V19.7z"/>
			<path class="st0" d="M308,12.9h-3.7v-1.4h5.3v9.1c-1.6,0.5-3.3,0.8-5,0.8c-5.9,0-5.5-5.9-5.5-9.4c0-3.5-0.4-9.4,5.5-9.4
				c3.5,0,5.3,1.5,5.2,5h-1.6c0-2.4-1-3.6-3.6-3.6c-3.9,0-3.9,3.5-3.9,8.1c0,4.6,0,8.1,3.9,8.1c1.4,0,2.5-0.2,3.4-0.5V12.9z"/>
			<path class="st0" d="M321.7,2.9v1.4h-6.6v6.8h6.3v1.4h-6.3v7.3h6.8v1.4h-8.4V2.9H321.7z"/>
			<path class="st0" d="M329.9,2.9h5c1.5,0,4,0.2,4,4.4c0,3.6-1.2,5.3-4.3,5.3h-3.1v8.5h-1.6V2.9z M331.5,11.3h3
				c1.7,0,2.8-0.8,2.8-3.6c0-3.1-1.3-3.3-2.8-3.3h-3V11.3z"/>
			<path class="st0" d="M346.5,2.6c5.4,0,5.5,4.5,5.5,9.4c0,4.9,0,9.4-5.5,9.4c-5.4,0-5.5-4.5-5.5-9.4C341,7.1,341.1,2.6,346.5,2.6z
				 M346.5,20.1c3.8,0,3.9-3.2,3.9-8.1s0-8.1-3.9-8.1c-3.8,0-3.9,3.2-3.9,8.1S342.7,20.1,346.5,20.1z"/>
			<path class="st0" d="M356.8,12.3v8.8h-1.6V2.9h5c3.5,0,4.4,1.2,4.4,4.4c0,2.3-0.4,3.8-2.8,4.3v0.1c2.5,0.5,2.7,0.8,2.7,7.3
				c0,0.7,0.1,1.4,0.2,2.1h-1.5c-0.1-0.5-0.2-3.5-0.3-4.5c0-0.8,0.5-4.3-3-4.3H356.8z M356.8,10.9h2.6c2.4,0,3.5-0.6,3.5-3.7
				c0-2.5-1-3-2.9-3h-3.3V10.9z"/>
			<path class="st0" d="M370.8,4.3h-4.4V2.9h10.5v1.4h-4.4v16.8h-1.6V4.3z"/>
			<path class="st0" d="M383.9,2.9l5.7,18.2h-1.7l-1.5-4.8h-7.1l-1.4,4.8h-1.6L382,2.9H383.9z M386,14.9l-3.1-10.3h-0.1l-3.1,10.3
				H386z"/>
			<path class="st0" d="M391.6,21.1V2.9h1.6v16.8h6v1.4H391.6z"/>
		</g>
	</g>
	<g>
		<path class="st0" d="M6.3,22c-5.2,0-6.2-3.1-6-6.5h4.2C4.6,17.4,4.6,19,7,19c1.4,0,2.1-0.9,2.1-2.3c0-3.6-8.5-3.8-8.5-9.8
			c0-3.1,1.5-5.7,6.6-5.7c4.1,0,6.1,1.8,5.8,6H9c0-1.5-0.3-3-1.9-3C5.7,4.2,4.9,5,4.9,6.4c0,3.8,8.5,3.5,8.5,9.8
			C13.3,21.4,9.5,22,6.3,22z"/>
		<path class="st0" d="M16.4,21.7V1.5h4.2v16.8h6.3v3.3H16.4z"/>
		<path class="st0" d="M28.7,21.7V1.5h11v3.1h-6.8v5h6.2v3.1h-6.2v5.9h7v3.1H28.7z"/>
		<path class="st0" d="M42.6,21.7V1.5h11v3.1h-6.8v5h6.2v3.1h-6.2v5.9h7v3.1H42.6z"/>
		<path class="st0" d="M56.6,1.5h7.6c3.8,0,5.3,2.3,5.3,6c0,2.3-0.7,5.9-5.6,5.9h-3.1v8.2h-4.2V1.5z M60.8,10.4h2.3
			c1.3,0,2.1-1.4,2.1-2.7c0-1.6-0.4-3-2.3-3h-2.1V10.4z"/>
		<path class="st0" d="M76.3,1.5h7c5.5,0,6.5,3.7,6.5,9.9c0,3.1,0.5,10.2-6.7,10.2h-6.9V1.5z M80.5,18.6h2c2.6,0,3.1-1.9,3.1-7
			c0-3.7,0-7-2.9-7h-2.2V18.6z"/>
		<path class="st0" d="M93.2,21.7V1.5h4.2v20.1H93.2z"/>
		<path class="st0" d="M106.4,22c-5.2,0-6.2-3.1-6-6.5h4.2c0,1.9,0.1,3.5,2.4,3.5c1.4,0,2.1-0.9,2.1-2.3c0-3.6-8.5-3.8-8.5-9.8
			c0-3.1,1.5-5.7,6.6-5.7c4.1,0,6.1,1.8,5.8,6h-4.1c0-1.5-0.3-3-1.9-3c-1.4,0-2.2,0.8-2.2,2.1c0,3.8,8.5,3.5,8.5,9.8
			C113.5,21.4,109.6,22,106.4,22z"/>
		<path class="st0" d="M116.3,11.6c0-5.3,0-10.4,6.9-10.4c6.9,0,6.9,5.1,6.9,10.4c0,5.3,0,10.4-6.9,10.4
			C116.3,22,116.3,16.9,116.3,11.6z M125.9,11.6c0-5.2-0.3-7.4-2.7-7.4s-2.7,2.2-2.7,7.4c0,5.2,0.3,7.4,2.7,7.4
			S125.9,16.7,125.9,11.6z"/>
		<path class="st0" d="M137.6,21.7h-4.2V1.5h7.8c2.9,0,4.7,1.8,4.7,5.3c0,2.6-1,4.5-3.7,4.9v0.1c0.9,0.1,3.6,0.3,3.6,4
			c0,1.3,0.1,5.1,0.5,5.9h-4.1c-0.6-1.2-0.4-2.6-0.4-3.9c0-2.4,0.2-4.4-3-4.4h-1.1V21.7z M137.6,10.2h1.9c1.7,0,2.1-1.7,2.1-3
			c0-1.9-0.8-2.6-2.1-2.6h-1.9V10.2z"/>
		<path class="st0" d="M149.1,1.5h7c5.5,0,6.5,3.7,6.5,9.9c0,3.1,0.5,10.2-6.7,10.2h-6.9V1.5z M153.3,18.6h2c2.6,0,3.1-1.9,3.1-7
			c0-3.7,0-7-2.9-7h-2.2V18.6z"/>
		<path class="st0" d="M166,21.7V1.5h11v3.1h-6.8v5h6.2v3.1h-6.2v5.9h7v3.1H166z"/>
		<path class="st0" d="M184,21.7h-4.2V1.5h7.8c2.9,0,4.7,1.8,4.7,5.3c0,2.6-1,4.5-3.7,4.9v0.1c0.9,0.1,3.6,0.3,3.6,4
			c0,1.3,0.1,5.1,0.5,5.9h-4.1c-0.6-1.2-0.4-2.6-0.4-3.9c0-2.4,0.2-4.4-3-4.4H184V21.7z M184,10.2h1.9c1.7,0,2.1-1.7,2.1-3
			c0-1.9-0.8-2.6-2.1-2.6H184V10.2z"/>
	</g>
</g>
</svg>
