<?xml version="1.0" encoding="utf-8"?>
<!-- Generator: Adobe Illustrator 15.0.2, SVG Export Plug-In . SVG Version: 6.00 Build 0)  -->
<!DOCTYPE svg PUBLIC "-//W3C//DTD SVG 1.1//EN" "http://www.w3.org/Graphics/SVG/1.1/DTD/svg11.dtd">
<svg version="1.1" id="Layer_1" xmlns="http://www.w3.org/2000/svg" xmlns:xlink="http://www.w3.org/1999/xlink" x="0px" y="0px"
	 width="800px" height="800px" viewBox="0 0 800 800" enable-background="new 0 0 800 800" xml:space="preserve">
<path opacity="0.5" fill="#FFDE17" enable-background="new    " d="M589.559,72.898c-63.082-6.575-127.852,19.73-167.812,74.73
	c-39.959,55-44.963,124.73-19.216,182.691c63.081,6.576,127.85-19.73,167.811-74.73C610.302,200.589,615.305,130.859,589.559,72.898
	z"/>
<path opacity="0.5" fill="#FBAD18" enable-background="new    " d="M402.531,12.13c-54.9,31.757-91.837,91.109-91.836,159.094
	c0,67.984,36.937,127.338,91.836,159.096c54.897-31.758,91.838-91.111,91.836-159.096C494.368,103.241,457.43,43.887,402.531,12.13z
	"/>
<path opacity="0.5" fill="#F15A29" enable-background="new    " d="M215.504,72.9c-25.749,57.961-20.745,127.689,19.217,182.69
	c39.958,55,104.729,81.307,167.81,74.729c25.746-57.961,20.744-127.69-19.218-182.69C343.355,92.629,278.584,66.324,215.504,72.9z"
	/>
<path opacity="0.5" fill="#BE1E2D" enable-background="new    " d="M99.915,231.995c13.238,62.026,58.272,115.498,122.93,136.503
	c64.655,21.01,132.519,4.221,179.687-38.178c-13.238-62.023-58.272-115.496-122.93-136.503
	C214.946,172.808,147.083,189.597,99.915,231.995z"/>
<path opacity="0.5" fill="#9E1F63" enable-background="new    " d="M99.915,428.648c47.169,42.397,115.031,59.186,179.688,38.176
	c64.656-21.006,109.69-74.479,122.928-136.504c-47.167-42.396-115.031-59.187-179.688-38.176
	C158.188,313.15,113.155,366.623,99.915,428.648z"/>
<path opacity="0.5" fill="#92278F" enable-background="new    " d="M215.505,587.742c63.082,6.576,127.853-19.73,167.812-74.732
	c39.96-54.996,44.963-124.727,19.215-182.689c-63.079-6.574-127.85,19.732-167.809,74.732
	C194.762,460.051,189.759,529.781,215.505,587.742z"/>
<path opacity="0.5" fill="#2E3192" enable-background="new    " d="M402.535,648.512c54.896-31.76,91.835-91.112,91.834-159.098
	c0.001-67.982-36.939-127.336-91.838-159.094c-54.897,31.76-91.834,91.113-91.833,159.098
	C310.697,557.398,347.634,616.754,402.535,648.512z"/>
<path opacity="0.5" fill="#1C75BC" enable-background="new    " d="M589.561,587.74c25.748-57.961,20.744-127.691-19.218-182.691
	c-39.958-54.998-104.729-81.304-167.812-74.729c-25.745,57.961-20.742,127.691,19.22,182.691
	C461.709,568.012,526.48,594.318,589.561,587.74z"/>
<path opacity="0.5" fill="#00A651" enable-background="new    " d="M705.15,428.645c-13.24-62.024-58.274-115.497-122.934-136.503
	c-64.652-21.008-132.519-4.218-179.687,38.18c13.239,62.025,58.274,115.497,122.933,136.504
	C590.119,487.832,657.98,471.043,705.15,428.645z"/>
<path opacity="0.5" fill="#8DC63F" enable-background="new    " d="M705.148,231.992c-47.168-42.396-115.032-59.187-179.689-38.177
	c-64.652,21.007-109.688,74.479-122.928,136.505c47.17,42.396,115.033,59.186,179.688,38.176
	C646.876,347.49,691.91,294.018,705.148,231.992z"/>
<text transform="matrix(1 0 0 1 104.5 760.5)" fill="#2A1F6D" stroke="#363795" stroke-miterlimit="10" font-family="'Lato-Light'" font-size="110">T2D-GENES</text>
</svg>
