<?xml version="1.0" encoding="utf-8"?>
<!-- Generator: Adobe Illustrator 21.1.0, SVG Export Plug-In . SVG Version: 6.00 Build 0)  -->
<svg version="1.1" id="Layer_1" xmlns="http://www.w3.org/2000/svg" xmlns:xlink="http://www.w3.org/1999/xlink" x="0px" y="0px"
	 viewBox="0 0 30.1 30.1" style="enable-background:new 0 0 30.1 30.1;" xml:space="preserve">
<style type="text/css">
	.st0{fill:#FFFFFF;}
</style>
<g>
	<g>
		<path class="st0" d="M15.4,16l-1.1,1.1c-0.4,0.4-0.4,1.1,0.1,1.7l1.1-1.1C15.9,17.2,15.8,16.5,15.4,16z"/>
		<path class="st0" d="M13.8,16.6l1.1-1.1c-0.5-0.3-1.1-0.3-1.5,0.1L10.9,18c-0.5,0.5-0.4,1.3,0.2,1.9c0.6,0.6,1.4,0.7,1.9,0.2
			l0.8-0.8l0,0C13,18.5,13,17.3,13.8,16.6z"/>
		<path class="st0" d="M16.7,14.6l-0.8,0.8l0,0c0.7,0.7,0.7,2,0,2.7l-1.1,1.1c0.5,0.3,1.1,0.3,1.5-0.1l2.5-2.5
			c0.5-0.5,0.4-1.3-0.2-1.9C18,14.3,17.1,14.2,16.7,14.6z"/>
		<path class="st0" d="M20.4,8.5h-0.8c0,0,0,0,0,0v0.8c0,1.1-0.9,2-2,2h-5.3c-1.1,0-2-0.9-2-2V8.5c0,0,0,0,0,0H9.5
			c-0.8,0-1.4,0.6-1.4,1.4v12.8c0,0.8,0.6,1.4,1.4,1.4h10.9c0.8,0,1.4-0.6,1.4-1.4V9.9C21.8,9.1,21.2,8.5,20.4,8.5z M19.2,17.2
			l-2.4,2.4c-0.7,0.7-1.8,0.7-2.5,0.1l-0.8,0.8c-0.7,0.7-2,0.7-2.7,0l-0.4-0.4c-0.7-0.7-0.7-2,0-2.7l2.4-2.4
			c0.7-0.7,1.8-0.7,2.5-0.1l0.8-0.8c0.7-0.7,2-0.7,2.7,0l0.4,0.4C20,15.3,20,16.5,19.2,17.2z"/>
	</g>
	<path class="st0" d="M17.2,7.3h-0.7c0-0.9-0.7-1.6-1.6-1.6c-0.9,0-1.6,0.7-1.6,1.6h-0.5c-0.8,0-1.5,0.7-1.5,1.5v0.3
		c0,0.8,0.7,1.5,1.5,1.5h4.5c0.8,0,1.5-0.7,1.5-1.5V8.8C18.7,8,18,7.3,17.2,7.3z M14.9,8.1c-0.4,0-0.7-0.3-0.7-0.7
		c0-0.4,0.3-0.7,0.7-0.7c0.4,0,0.7,0.3,0.7,0.7C15.6,7.7,15.3,8.1,14.9,8.1z"/>
</g>
</svg>
