<?xml version="1.0" encoding="utf-8"?>
<!-- Generator: Adobe Illustrator 21.1.0, SVG Export Plug-In . SVG Version: 6.00 Build 0)  -->
<svg version="1.1" id="Layer_1" xmlns="http://www.w3.org/2000/svg" xmlns:xlink="http://www.w3.org/1999/xlink" x="0px" y="0px"
	 viewBox="0 0 30.1 30.1" style="enable-background:new 0 0 30.1 30.1;" xml:space="preserve">
<style type="text/css">
	.st0{fill:#FFFFFF;}
</style>
<g>
	<path class="st0" d="M22.8,19.9c0.2-0.3,0.3-0.7,0.3-1.1v-7.5c0-0.4-0.1-0.8-0.3-1.1L18,15L22.8,19.9z"/>
	<path class="st0" d="M15.3,15.9l6.6-6.6c-0.4-0.2-0.8-0.4-1.3-0.4H9.9C9.5,8.9,9.1,9,8.7,9.3L15.3,15.9z"/>
	<path class="st0" d="M17.1,15.9l-1.8,1.8l-1.8-1.8l-4.9,4.9C9,21,9.5,21.2,9.9,21.2h10.7c0.5,0,0.9-0.1,1.3-0.4L17.1,15.9z"/>
	<path class="st0" d="M7.8,10.2c-0.2,0.3-0.3,0.7-0.3,1.1v7.5c0,0.4,0.1,0.8,0.3,1.1l4.8-4.8L7.8,10.2z"/>
</g>
</svg>
