<?xml version="1.0" encoding="utf-8"?>
<!-- Generator: Adobe Illustrator 21.1.0, SVG Export Plug-In . SVG Version: 6.00 Build 0)  -->
<svg version="1.1" id="Layer_1" xmlns="http://www.w3.org/2000/svg" xmlns:xlink="http://www.w3.org/1999/xlink" x="0px" y="0px"
	 viewBox="0 0 30.1 30.1" style="enable-background:new 0 0 30.1 30.1;" xml:space="preserve">
<style type="text/css">
	.st0{fill:#FFFFFF;}
</style>
<g>
	<path class="st0" d="M18.1,12.7c-0.8,0-1.5-0.7-1.5-1.5V7H9.7C9,7,8.3,7.6,8.3,8.3v14.2c0,0.8,0.6,1.4,1.4,1.4h11
		c0.8,0,1.4-0.6,1.4-1.4v-9.8H18.1z M12.5,17.1c-1.6,0-2.9-1.3-2.9-2.9c0-1.6,1.3-2.9,2.9-2.9s2.9,1.3,2.9,2.9
		C15.4,15.8,14.1,17.1,12.5,17.1z M17.7,21.6c-1.6,0-2.9-1.3-2.9-2.9c0-1.6,1.3-2.9,2.9-2.9s2.9,1.3,2.9,2.9
		C20.5,20.3,19.2,21.6,17.7,21.6z"/>
	<path class="st0" d="M17.6,6.8v4.5c0,0.2,0.1,0.3,0.3,0.3h4L17.6,6.8z"/>
	<path class="st0" d="M14.5,14.8H13v1.5h-1v-1.5h-1.5v-1H12v-1.5h1v1.5h1.5V14.8z"/>
	<path class="st0" d="M19.7,19.2h-4.1v-1h4.1V19.2z"/>
</g>
</svg>
