<?xml version="1.0" encoding="utf-8"?>
<!-- Generator: Adobe Illustrator 21.1.0, SVG Export Plug-In . SVG Version: 6.00 Build 0)  -->
<svg version="1.1" id="Layer_1" xmlns="http://www.w3.org/2000/svg" xmlns:xlink="http://www.w3.org/1999/xlink" x="0px" y="0px"
	 viewBox="0 0 30.1 30.1" style="enable-background:new 0 0 30.1 30.1;" xml:space="preserve">
<style type="text/css">
	.st0{fill:#FFFFFF;}
</style>
<g>
	<path class="st0" d="M18.5,22.9c-1.3,0.7-2.7,1-4.4,1c-4,0-7.4-2.9-7.4-7.7c0-5,3.5-9.4,8.9-9.4c4.3,0,7.1,3,7.1,7.1
		c0,3.7-2.1,5.8-4.3,5.8c-1,0-1.9-0.6-1.8-2.2h-0.1c-0.9,1.4-2,2.2-3.4,2.2c-1.4,0-2.6-1.1-2.6-3.1c0-3,2.4-5.8,5.8-5.8
		c1,0,2,0.2,2.6,0.5L18,15.7c-0.4,1.9-0.1,2.7,0.7,2.7c1.2,0,2.6-1.6,2.6-4.4c0-3.6-2.1-6.1-5.9-6.1c-4,0-7.3,3.2-7.3,8.1
		c0,4.1,2.7,6.6,6.3,6.6c1.4,0,2.7-0.3,3.7-0.9L18.5,22.9z M17.1,12.3c-0.2-0.1-0.7-0.2-1.2-0.2c-2.2,0-3.9,2-3.9,4.4
		c0,1.1,0.5,1.9,1.6,1.9c1.4,0,2.7-1.8,3-3.3L17.1,12.3z"/>
</g>
</svg>
