<?xml version="1.0" encoding="utf-8"?>
<!-- Generator: Adobe Illustrator 21.0.2, SVG Export Plug-In . SVG Version: 6.00 Build 0)  -->
<svg version="1.1" id="Layer_1" xmlns="http://www.w3.org/2000/svg" xmlns:xlink="http://www.w3.org/1999/xlink" x="0px" y="0px"
	 viewBox="0 0 30 30" style="enable-background:new 0 0 30 30;" xml:space="preserve">
<style type="text/css">
	.st0{fill:#A49666;}
	.st1{fill:#706744;}
	.st2{fill:#FFFFFF;}
</style>
<g>
	<g>
		<path class="st0" d="M22.8,9.2l7.1,7.1c0-0.4,0.1-0.9,0.1-1.3c0-8.3-6.7-15-15-15S0,6.7,0,15c0,8.3,6.7,15,15,15
			c0.4,0,0.9,0,1.3-0.1L7,20.6L22.8,9.2z"/>
		<path class="st1" d="M29.9,16.3l-7.1-7.1L7,20.6l9.3,9.3C23.5,29.3,29.3,23.5,29.9,16.3z"/>
	</g>
	<g>
		<path class="st2" d="M23.5,10.8c0-1.2-1-2.2-2.3-2.2H8.7c-1.2,0-2.2,1-2.3,2.2l8.5,4.6L23.5,10.8z"/>
		<path class="st2" d="M6.4,12.4v6.7c0,1.3,1,2.3,2.3,2.3h12.6c1.3,0,2.3-1,2.3-2.3v-6.7L15,17L6.4,12.4z"/>
		<path class="st0" d="M23.5,10.8L15,15.3l-8.5-4.6c0,0,0,0.1,0,0.1v1.6L15,17l8.5-4.6L23.5,10.8C23.5,10.8,23.5,10.8,23.5,10.8z"/>
	</g>
</g>
</svg>
