<?xml version="1.0" encoding="utf-8"?>
<!-- Generator: Adobe Illustrator 21.1.0, SVG Export Plug-In . SVG Version: 6.00 Build 0)  -->
<svg version="1.1" id="Layer_1" xmlns="http://www.w3.org/2000/svg" xmlns:xlink="http://www.w3.org/1999/xlink" x="0px" y="0px"
	 viewBox="0 0 30.1 30.1" style="enable-background:new 0 0 30.1 30.1;" xml:space="preserve">
<style type="text/css">
	.st0{fill:#FFFFFF;}
</style>
<path class="st0" d="M24.8,15.3c0-2.2-1.3-4.1-3.3-5.2c0.4,0.8,0.6,1.8,0.6,2.7c0,4.2-4.1,7.6-9.1,7.6c-0.1,0-0.2,0-0.3,0
	c1.3,0.8,2.8,1.2,4.5,1.2c1,0,1.9-0.2,2.8-0.5l4.5,3.3l-1.9-4.8C24,18.6,24.8,17,24.8,15.3z"/>
<path class="st0" d="M13,6.4c-4.2,0-7.6,2.8-7.6,6.3c0,1.7,0.8,3.3,2.1,4.4l-1.9,4.8l4.5-3.3C11.1,18.8,12,19,13,19
	c4.2,0,7.6-2.8,7.6-6.3C20.6,9.2,17.2,6.4,13,6.4z M9.4,13.7c-0.5,0-0.9-0.4-0.9-0.9c0-0.5,0.4-0.9,0.9-0.9s0.9,0.4,0.9,0.9
	C10.3,13.3,9.9,13.7,9.4,13.7z M12.9,13.7c-0.5,0-0.9-0.4-0.9-0.9c0-0.5,0.4-0.9,0.9-0.9s0.9,0.4,0.9,0.9
	C13.8,13.3,13.4,13.7,12.9,13.7z M16.3,13.7c-0.5,0-0.9-0.4-0.9-0.9c0-0.5,0.4-0.9,0.9-0.9s0.9,0.4,0.9,0.9
	C17.2,13.3,16.8,13.7,16.3,13.7z"/>
</svg>
