<?xml version="1.0" encoding="utf-8"?>
<!-- Generator: Adobe Illustrator 21.1.0, SVG Export Plug-In . SVG Version: 6.00 Build 0)  -->
<svg version="1.1" id="Layer_1" xmlns="http://www.w3.org/2000/svg" xmlns:xlink="http://www.w3.org/1999/xlink" x="0px" y="0px"
	 viewBox="0 0 30.1 30.1" style="enable-background:new 0 0 30.1 30.1;" xml:space="preserve">
<style type="text/css">
	.st0{fill:#FFFFFF;}
</style>
<g>
	<path class="st0" d="M14.8,10.3c-0.4-0.4-0.9-0.4-1.3,0l0,0c-0.4,0.4-0.4,0.9,0,1.3L16,14h-5c-0.6,0-1,0.5-1,1v0c0,0.6,0.5,1,1,1h5
		l-2.4,2.4c-0.4,0.4-0.4,0.9,0,1.3l0,0c0.4,0.4,0.9,0.4,1.3,0l4.1-4.1l0,0c0.4-0.4,0.4-0.9,0-1.3L14.8,10.3z"/>
	<path class="st0" d="M14.6,5.1c-5.5,0-10,4.5-10,10c0,5.5,4.5,10,10,10s10-4.5,10-10C24.5,9.6,20.1,5.1,14.6,5.1z M14.6,23.8
		c-4.8,0-8.7-3.9-8.7-8.7c0-4.8,3.9-8.7,8.7-8.7c4.8,0,8.7,3.9,8.7,8.7C23.3,19.9,19.4,23.8,14.6,23.8z"/>
</g>
</svg>
