<?xml version="1.0" encoding="utf-8"?>
<!-- Generator: Adobe Illustrator 21.0.2, SVG Export Plug-In . SVG Version: 6.00 Build 0)  -->
<svg version="1.1" id="Layer_1" xmlns="http://www.w3.org/2000/svg" xmlns:xlink="http://www.w3.org/1999/xlink" x="0px" y="0px"
	 viewBox="0 0 30 30" style="enable-background:new 0 0 30 30;" xml:space="preserve">
<style type="text/css">
	.st0{fill:#1387C8;}
	.st1{fill:#10689A;}
	.st2{fill:#FFFFFF;}
</style>
<g>
	<g>
		<path class="st0" d="M9.6,11.9L8,10.3l2.7-2.2l4.1,4.1l1.1-0.3l1.5,1.5l4-0.6l7.6,7.6c0.6-1.7,1-3.5,1-5.4c0-8.3-6.7-15-15-15
			C6.7,0,0,6.7,0,15c0,8.3,6.7,15,15,15c0.5,0,1.1,0,1.6-0.1l-8.7-8.7L9.6,11.9z"/>
		<path class="st1" d="M29,20.4l-7.6-7.6l-4,0.6l-1.5-1.5l-1.1,0.3l-4.1-4.1L8,10.3l1.6,1.6l-1.8,9.3l8.7,8.7
			C22.3,29.3,27,25.5,29,20.4z"/>
	</g>
	<path class="st2" d="M10.8,21.3H7.9v-9.4h2.9V21.3z M9.3,10.7L9.3,10.7c-1.1,0-1.8-0.7-1.8-1.6c0-0.9,0.7-1.6,1.8-1.6
		c1.1,0,1.7,0.7,1.8,1.6C11,10,10.4,10.7,9.3,10.7z M22.5,21.3h-3.3v-4.8c0-1.3-0.5-2.1-1.7-2.1c-0.9,0-1.4,0.6-1.6,1.1
		c-0.1,0.2-0.1,0.5-0.1,0.8v5.1h-3.3c0,0,0-8.6,0-9.4h3.3v1.5c0.2-0.6,1.2-1.6,2.9-1.6c2.1,0,3.7,1.3,3.7,4.2V21.3z"/>
</g>
</svg>
