<?xml version="1.0" encoding="utf-8"?>
<!-- Generator: Adobe Illustrator 21.1.0, SVG Export Plug-In . SVG Version: 6.00 Build 0)  -->
<svg version="1.1" id="Layer_1" xmlns="http://www.w3.org/2000/svg" xmlns:xlink="http://www.w3.org/1999/xlink" x="0px" y="0px"
	 viewBox="0 0 30.1 30.1" style="enable-background:new 0 0 30.1 30.1;" xml:space="preserve">
<style type="text/css">
	.st0{fill:#FFFFFF;}
</style>
<g>
	<path class="st0" d="M13,13.1L13,13.1c-0.1,0.3-0.2,0.7-0.3,1.1l-0.4,1.4h1.5l-0.4-1.4C13.2,13.8,13.1,13.4,13,13.1z"/>
	<path class="st0" d="M20.9,9.3L20.9,9.3C20.9,9.3,20.9,9.3,20.9,9.3L10,9.3c-0.5,0-0.9-0.4-0.9-0.9v0c0-0.5,0.4-0.9,0.9-0.9h10.4
		c-0.2-0.6-0.7-1-1.4-1H9.3C8.5,6.5,7.9,7.2,7.9,8v13.8c0,1.3,1.1,2.4,2.4,2.4h0.7h8.1h1.9c0.7,0,1.3-0.6,1.3-1.3V10.6
		C22.3,9.9,21.7,9.3,20.9,9.3z M13.9,16.3h-1.8l-0.5,1.6h-1.1l1.8-5.7h1.3l1.8,5.7h-1.1L13.9,16.3z M19.5,21.2h-4.3v-0.6l2.9-4.2v0
		h-2.6v-0.9h4v0.6l-2.9,4.2v0h2.9V21.2z"/>
</g>
</svg>
