<?xml version="1.0" encoding="utf-8"?>
<!-- Generator: Adobe Illustrator 21.1.0, SVG Export Plug-In . SVG Version: 6.00 Build 0)  -->
<svg version="1.1" id="Layer_1" xmlns="http://www.w3.org/2000/svg" xmlns:xlink="http://www.w3.org/1999/xlink" x="0px" y="0px"
	 viewBox="0 0 30.1 30.1" style="enable-background:new 0 0 30.1 30.1;" xml:space="preserve">
<style type="text/css">
	.st0{fill:#FFFFFF;}
</style>
<path class="st0" d="M23.1,21.2L19,17.1c1.5-2.6,1.2-6.1-1.1-8.3c-2.7-2.7-7-2.7-9.7,0c-2.7,2.7-2.7,7,0,9.7
	c2.3,2.3,5.7,2.6,8.3,1.1l4.1,4.1c0.7,0.7,1.8,0.7,2.5,0C23.8,23,23.8,21.9,23.1,21.2z M16.6,17.2c-2,2-5.2,2-7.2,0s-2-5.2,0-7.2
	s5.2-2,7.2,0S18.6,15.2,16.6,17.2z"/>
</svg>
