<?xml version="1.0" encoding="utf-8"?>
<!-- Generator: Adobe Illustrator 21.1.0, SVG Export Plug-In . SVG Version: 6.00 Build 0)  -->
<svg version="1.1" id="Layer_1" xmlns="http://www.w3.org/2000/svg" xmlns:xlink="http://www.w3.org/1999/xlink" x="0px" y="0px"
	 viewBox="0 0 30.1 30.1" style="enable-background:new 0 0 30.1 30.1;" xml:space="preserve">
<style type="text/css">
	.st0{fill:#62B4C5;}
	.st1{fill:#3F7A86;}
	.st2{fill:#FFFFFF;}
</style>
<rect x="0" y="0" class="st0" width="30" height="30"/>
<g>
	<g>
		<polygon class="st1" points="30,16.2 20.5,6.7 19.6,12.8 14.1,7.6 14.4,10.8 9.5,6.9 9.9,23.4 16.5,30 30,30 		"/>
	</g>
	<g>
		<path class="st2" d="M15.2,10.3c0-1.5-0.8-2.7-2-3.4v3.4c0,1-0.8,1-1.8,1c-1,0-1.8,0-1.8-1V6.9c-1.2,0.6-2,1.9-2,3.4
			c0,1.5,0.9,2.8,2.1,3.4L9.3,22c0,1,0.8,1.8,1.8,1.8h0.6c1,0,1.8-0.8,1.8-1.8l-0.3-8.2C14.3,13.1,15.2,11.8,15.2,10.3z M11.3,22.8
			c-0.6,0-1.1-0.5-1.1-1.1c0-0.6,0.5-1.1,1.1-1.1c0.6,0,1.1,0.5,1.1,1.1C12.5,22.3,12,22.8,11.3,22.8z"/>
		<path class="st2" d="M20.2,16.1c0.6-0.2,1.1-0.7,1.1-1.2h-1.2v-4.2l0.7-2h0v0v0h0l-0.3-2h-2.3l-0.3,2h0l0,0l0,0h0l0.7,2v4.2h-1.2
			c0,0.5,0.4,1,1.1,1.2c-0.6,0.1-1.1,0.3-1.1,0.8v5.7c0,0.7,0.9,1.3,1.9,1.3c1.1,0,1.9-0.6,1.9-1.3V17
			C21.3,16.4,20.9,16.2,20.2,16.1z"/>
	</g>
</g>
</svg>
