<?xml version="1.0" encoding="utf-8"?>
<!-- Generator: Adobe Illustrator 21.0.2, SVG Export Plug-In . SVG Version: 6.00 Build 0)  -->
<svg version="1.1" id="Layer_1" xmlns="http://www.w3.org/2000/svg" xmlns:xlink="http://www.w3.org/1999/xlink" x="0px" y="0px"
	 viewBox="0 0 30 30" style="enable-background:new 0 0 30 30;" xml:space="preserve">
<style type="text/css">
	.st0{fill:#66CBEE;}
	.st1{fill:#4A9BB6;}
	.st2{fill:#FFFFFF;}
</style>
<g>
	<g>
		<path class="st0" d="M12.9,21.3l4.7-7.6l4.5-3.7l7.7,7.5c0.1-0.8,0.2-1.6,0.2-2.5c0-8.3-6.7-15-15-15C6.7,0,0,6.7,0,15
			c0,8.3,6.7,15,15,15c0.7,0,1.3-0.1,1.9-0.1l-9.4-9.4L12.9,21.3z"/>
		<path class="st1" d="M29.8,17.4l-7.7-7.5l-4.5,3.7l-4.7,7.6l-5.3-0.8l9.4,9.4C23.5,29,28.7,23.9,29.8,17.4z"/>
	</g>
	<path class="st2" d="M22.5,11.1c-0.6,0.2-1.1,0.4-1.8,0.5c0.6-0.4,1.1-1,1.4-1.7c-0.6,0.4-1.3,0.6-2,0.7c-0.6-0.6-1.4-1-2.2-1
		c-1.7,0-3.1,1.4-3.1,3.1c0,0.2,0,0.5,0.1,0.7c-2.6-0.1-4.8-1.4-6.4-3.2c-0.3,0.5-0.4,1-0.4,1.6c0,1.1,0.5,2,1.4,2.6
		c-0.5,0-1-0.2-1.4-0.4v0c0,1.5,1.1,2.7,2.5,3c-0.3,0.1-0.5,0.1-0.8,0.1c-0.2,0-0.4,0-0.6-0.1c0.4,1.2,1.5,2.1,2.9,2.1
		C11,20,9.7,20.5,8.2,20.5c-0.2,0-0.5,0-0.7,0c1.4,0.9,3,1.4,4.7,1.4c5.7,0,8.8-4.7,8.8-8.8c0-0.1,0-0.3,0-0.4
		C21.6,12.2,22.1,11.7,22.5,11.1"/>
</g>
</svg>
