<?xml version="1.0" encoding="utf-8"?>
<!-- Generator: Adobe Illustrator 21.1.0, SVG Export Plug-In . SVG Version: 6.00 Build 0)  -->
<svg version="1.1" id="Layer_1" xmlns="http://www.w3.org/2000/svg" xmlns:xlink="http://www.w3.org/1999/xlink" x="0px" y="0px"
	 viewBox="0 0 30.1 30.1" style="enable-background:new 0 0 30.1 30.1;" xml:space="preserve">
<style type="text/css">
	.st0{fill:#FFFFFF;}
</style>
<g>
	<path class="st0" d="M14.8,5.2c-5.5,0-10,4.5-10,10c0,5.5,4.5,10,10,10s10-4.5,10-10C24.7,9.7,20.3,5.2,14.8,5.2z M14.8,23.9
		C9.9,23.9,6,20,6,15.2c0-4.8,3.9-8.7,8.7-8.7c4.8,0,8.7,3.9,8.7,8.7C23.5,20,19.6,23.9,14.8,23.9z"/>
</g>
<path class="st0" d="M19.5,14.5l-6.7-3.9c-0.5-0.3-1.1,0.1-1.1,0.6V19c0,0.6,0.6,0.9,1.1,0.6l6.7-3.9C19.9,15.5,19.9,14.8,19.5,14.5
	z"/>
</svg>
