<?xml version="1.0" encoding="utf-8"?>
<!-- Generator: Adobe Illustrator 23.0.4, SVG Export Plug-In . SVG Version: 6.00 Build 0)  -->
<svg version="1.1" id="Layer_1" xmlns="http://www.w3.org/2000/svg" xmlns:xlink="http://www.w3.org/1999/xlink" x="0px" y="0px"
	 viewBox="0 0 403.8 147.4" style="enable-background:new 0 0 403.8 147.4;" xml:space="preserve">
<style type="text/css">
	.st0{fill:#FFFFFF;}
	.st1{fill:none;stroke:#FFFFFF;stroke-width:3.4;stroke-linecap:round;stroke-linejoin:round;stroke-miterlimit:10;}
</style>
<g>
	<path class="st0" d="M160.7,116.8h-1v8.1H156V106h3.7v8.4l0.9-0.4l5.2-8h4.2l-5.5,7.9l-1.5,1l1.5,1.1l6.3,8.9h-4.6L160.7,116.8z"/>
	<path class="st0" d="M177.1,115l-1.5-3h-0.1l0.4,3v9.9h-3.5v-19h2.7l7.2,10.1l1.4,2.9h0.1l-0.4-2.9V106h3.5v19h-2.7L177.1,115z"/>
	<path class="st0" d="M189.3,115.4c0-3.1,0.7-5.6,2.1-7.3c1.4-1.7,3.4-2.6,5.9-2.6c1.3,0,2.5,0.2,3.5,0.7c1,0.5,1.8,1.1,2.5,2
		c0.7,0.9,1.2,1.9,1.5,3.1c0.3,1.2,0.5,2.5,0.5,4c0,3.2-0.7,5.6-2.1,7.3c-1.4,1.7-3.4,2.6-5.9,2.6c-1.4,0-2.6-0.2-3.6-0.7
		c-1-0.5-1.8-1.1-2.5-2c-0.7-0.9-1.1-1.9-1.5-3.1C189.4,118.3,189.3,116.9,189.3,115.4z M193.2,115.4c0,1,0.1,1.8,0.2,2.6
		s0.4,1.5,0.7,2.1c0.3,0.6,0.8,1,1.3,1.4c0.5,0.3,1.1,0.5,1.9,0.5c1.3,0,2.3-0.5,3.1-1.5s1.1-2.7,1.1-5c0-0.9-0.1-1.8-0.2-2.6
		c-0.2-0.8-0.4-1.5-0.7-2.1c-0.3-0.6-0.7-1.1-1.3-1.4c-0.5-0.3-1.2-0.5-1.9-0.5c-1.3,0-2.3,0.5-3.1,1.6
		C193.5,111.5,193.2,113.2,193.2,115.4z"/>
	<path class="st0" d="M212.1,116.6l0.4,3.3h0.1l0.4-3.4l3.3-10.5h2.4l3.2,10.6l0.4,3.3h0.1l0.4-3.4l2.3-10.5h3.8l-5.2,19h-2.5
		l-3.4-10.5l-0.5-2.9h-0.1l-0.5,2.9l-3.3,10.5h-2.6l-5.2-19h4L212.1,116.6z"/>
	<path class="st0" d="M242.2,124.9h-12V106h3.7v15.6h8.3V124.9z"/>
	<path class="st0" d="M243.8,106h11.2v3.3h-7.5v4.4h6.8v3.3h-6.8v4.6h7.6v3.3h-11.3V106z"/>
	<path class="st0" d="M257.7,106c0.4-0.1,0.8-0.1,1.3-0.1c0.5,0,1-0.1,1.5-0.1c0.5,0,1,0,1.5,0c0.5,0,0.9,0,1.3,0
		c1.7,0,3.1,0.2,4.3,0.7c1.2,0.5,2.2,1.1,2.9,2c0.7,0.8,1.3,1.9,1.6,3c0.3,1.2,0.5,2.5,0.5,3.9c0,1.3-0.2,2.5-0.5,3.7
		s-0.9,2.2-1.6,3.2s-1.8,1.7-3,2.2c-1.2,0.6-2.8,0.8-4.6,0.8c-0.3,0-0.7,0-1.1,0c-0.5,0-1,0-1.5-0.1c-0.5,0-1-0.1-1.5-0.1
		s-0.8-0.1-1.1-0.1V106z M263.5,109c-0.4,0-0.8,0-1.2,0c-0.4,0-0.7,0-0.9,0.1v12.7c0.1,0,0.2,0,0.4,0c0.2,0,0.4,0,0.6,0
		c0.2,0,0.4,0,0.6,0c0.2,0,0.3,0,0.4,0c1,0,1.9-0.2,2.6-0.6c0.7-0.4,1.2-0.9,1.6-1.5c0.4-0.6,0.7-1.3,0.8-2.1
		c0.2-0.8,0.2-1.6,0.2-2.5c0-0.7-0.1-1.5-0.2-2.2c-0.1-0.7-0.4-1.4-0.8-2c-0.4-0.6-0.9-1.1-1.6-1.5S264.5,109,263.5,109z"/>
	<path class="st0" d="M281.4,115h7v8.4c-0.8,0.6-1.7,1.1-2.7,1.4c-1.1,0.3-2.1,0.4-3.1,0.4c-1.2,0-2.3-0.2-3.4-0.6s-1.9-1-2.7-1.8
		c-0.8-0.8-1.3-1.8-1.8-3.1c-0.4-1.2-0.6-2.7-0.6-4.4c0-1.8,0.3-3.3,0.8-4.5c0.5-1.3,1.2-2.3,2-3.1c0.8-0.8,1.8-1.4,2.8-1.7
		s2.1-0.5,3.2-0.5s2,0.1,2.8,0.2c0.8,0.2,1.5,0.3,2,0.5l-0.8,3.1c-0.5-0.2-1-0.3-1.5-0.4c-0.6-0.1-1.3-0.1-2.1-0.1
		c-0.8,0-1.5,0.1-2.1,0.4c-0.6,0.2-1.2,0.6-1.7,1.1c-0.5,0.5-0.8,1.2-1.1,2c-0.3,0.8-0.4,1.8-0.4,3c0,1.1,0.1,2.1,0.4,2.9
		c0.3,0.8,0.6,1.5,1.1,2s1,0.9,1.6,1.2c0.6,0.3,1.2,0.4,1.9,0.4c0.5,0,0.9-0.1,1.4-0.2c0.4-0.1,0.8-0.3,1.1-0.5v-3.6l-4.1-0.4V115z"
		/>
	<path class="st0" d="M291,106h11.2v3.3h-7.5v4.4h6.8v3.3h-6.8v4.6h7.6v3.3H291V106z"/>
	<path class="st0" d="M311.4,106.2c0.8-0.1,1.6-0.3,2.5-0.3s1.8-0.1,2.7-0.1c0.9,0,1.9,0.1,2.8,0.2s1.8,0.5,2.6,0.9s1.4,1.1,1.8,1.9
		c0.5,0.8,0.7,1.9,0.7,3.2c0,1.2-0.2,2.2-0.6,3c-0.4,0.8-1,1.5-1.6,2c-0.7,0.5-1.5,0.9-2.3,1.1c-0.9,0.2-1.8,0.4-2.7,0.4
		c-0.1,0-0.2,0-0.4,0s-0.4,0-0.6,0c-0.2,0-0.4,0-0.6,0c-0.2,0-0.4,0-0.4-0.1v6.5h-3.7V106.2z M316.9,108.9c-0.4,0-0.7,0-1,0
		c-0.3,0-0.6,0.1-0.8,0.1v6.1c0.1,0,0.2,0,0.3,0.1c0.1,0,0.3,0,0.5,0c0.2,0,0.3,0,0.5,0s0.3,0,0.3,0c0.5,0,1,0,1.4-0.1
		c0.5-0.1,0.9-0.3,1.3-0.5c0.4-0.2,0.7-0.6,0.9-1c0.2-0.4,0.3-1,0.3-1.7c0-0.6-0.1-1.1-0.3-1.5c-0.2-0.4-0.5-0.7-0.9-0.9
		c-0.4-0.2-0.8-0.4-1.2-0.5C317.8,109,317.3,108.9,316.9,108.9z"/>
	<path class="st0" d="M325.9,115.4c0-3.1,0.7-5.6,2.1-7.3c1.4-1.7,3.4-2.6,5.9-2.6c1.3,0,2.5,0.2,3.5,0.7c1,0.5,1.8,1.1,2.5,2
		c0.7,0.9,1.2,1.9,1.5,3.1c0.3,1.2,0.5,2.5,0.5,4c0,3.2-0.7,5.6-2.1,7.3c-1.4,1.7-3.4,2.6-5.9,2.6c-1.4,0-2.6-0.2-3.6-0.7
		c-1-0.5-1.8-1.1-2.5-2c-0.7-0.9-1.1-1.9-1.5-3.1C326.1,118.3,325.9,116.9,325.9,115.4z M329.8,115.4c0,1,0.1,1.8,0.2,2.6
		s0.4,1.5,0.7,2.1c0.3,0.6,0.8,1,1.3,1.4c0.5,0.3,1.1,0.5,1.9,0.5c1.3,0,2.3-0.5,3.1-1.5s1.1-2.7,1.1-5c0-0.9-0.1-1.8-0.2-2.6
		c-0.2-0.8-0.4-1.5-0.7-2.1c-0.3-0.6-0.7-1.1-1.3-1.4c-0.5-0.3-1.2-0.5-1.9-0.5c-1.3,0-2.3,0.5-3.1,1.6
		C330.2,111.5,329.8,113.2,329.8,115.4z"/>
	<path class="st0" d="M344.3,106.2c0.4-0.1,0.9-0.1,1.3-0.2c0.5-0.1,1-0.1,1.4-0.1c0.5,0,0.9-0.1,1.4-0.1c0.4,0,0.9,0,1.2,0
		c0.9,0,1.8,0.1,2.6,0.2c0.9,0.2,1.6,0.4,2.3,0.8c0.7,0.4,1.2,0.9,1.6,1.6c0.4,0.7,0.6,1.6,0.6,2.6c0,1.5-0.4,2.8-1.1,3.8
		c-0.7,1-1.7,1.6-2.9,2l1.3,0.8l4.3,7.2h-4.3l-4.3-7.4l-1.9-0.4v7.7h-3.7V106.2z M350,109c-0.4,0-0.8,0-1.1,0
		c-0.4,0-0.7,0.1-0.9,0.1v5.5h1.6c1,0,1.8-0.2,2.5-0.7c0.6-0.5,0.9-1.2,0.9-2.3c0-0.8-0.3-1.4-0.8-1.9S350.9,109,350,109z"/>
	<path class="st0" d="M373.3,109.3h-5.5v15.6h-3.7v-15.6h-5.5V106h14.7V109.3z"/>
	<path class="st0" d="M382.3,120.7h-5.8l-1.4,4.2h-3.7l6.8-19h2.7l6.8,19h-3.9L382.3,120.7z M377.5,117.7h4l-1.4-4.2l-0.6-3h-0.1
		l-0.6,3L377.5,117.7z"/>
	<path class="st0" d="M401.1,124.9h-12V106h3.7v15.6h8.3V124.9z"/>
	<g>
		<path class="st0" d="M156.5,69.6H172v3h-12.1v9.7h11.3v3h-11.3v12.7h-3.4V69.6z"/>
		<path class="st0" d="M193,69.6h3.2v18.9c0,1.7-0.2,3.2-0.7,4.4c-0.4,1.2-1.1,2.3-1.9,3.1c-0.8,0.8-1.8,1.4-3,1.8
			c-1.2,0.4-2.4,0.6-3.8,0.6c-3.3,0-5.9-0.8-7.6-2.3c-1.7-1.5-2.6-3.8-2.6-6.9V69.6h3.4v18c0,1.4,0.1,2.6,0.4,3.6
			c0.3,1,0.7,1.8,1.3,2.4c0.6,0.6,1.3,1,2.1,1.3c0.9,0.3,1.8,0.4,3,0.4c2.2,0,3.8-0.6,4.7-1.8c0.9-1.2,1.4-3.2,1.4-5.9V69.6z"/>
		<path class="st0" d="M207,79.4l-2.2-4.1h-0.2l0.4,4.1v18.5h-3.2V69.2h1.8l13.6,18.9l2.1,3.9h0.2l-0.4-3.9V69.6h3.2v28.8h-1.8
			L207,79.4z"/>
		<path class="st0" d="M246.9,96.8c-0.8,0.6-1.8,1.1-3.1,1.3c-1.2,0.2-2.6,0.4-4,0.4c-1.7,0-3.3-0.3-4.8-0.9
			c-1.5-0.6-2.8-1.5-3.9-2.7c-1.1-1.2-2-2.7-2.6-4.6c-0.6-1.8-1-4-1-6.6c0-2.6,0.4-4.9,1.1-6.7c0.7-1.8,1.7-3.4,2.8-4.5
			s2.5-2,3.9-2.6c1.5-0.5,2.9-0.8,4.5-0.8c1.6,0,2.9,0.1,4,0.3c1,0.2,1.9,0.4,2.6,0.7l-0.8,3c-1.3-0.6-3.1-1-5.5-1
			c-1.1,0-2.2,0.2-3.3,0.6c-1.1,0.4-2,1.1-2.9,2c-0.9,0.9-1.5,2.1-2,3.6c-0.5,1.5-0.8,3.3-0.8,5.5c0,1.9,0.2,3.6,0.7,5.1
			c0.5,1.5,1.2,2.7,2,3.6c0.9,1,1.8,1.7,3,2.2c1.1,0.5,2.4,0.7,3.7,0.7c1.2,0,2.3-0.1,3.2-0.4c0.9-0.2,1.7-0.6,2.3-0.9L246.9,96.8z"
			/>
		<path class="st0" d="M270.9,72.6h-8.8v25.3h-3.4V72.6h-8.8v-3h21V72.6z"/>
		<path class="st0" d="M275.4,69.6h3.4v28.3h-3.4V69.6z"/>
		<path class="st0" d="M282.7,83.8c0-4.7,1-8.3,3-10.9c2-2.5,4.8-3.8,8.5-3.8c2,0,3.7,0.4,5.2,1.1c1.5,0.7,2.7,1.7,3.6,3
			c1,1.3,1.7,2.8,2.1,4.6c0.5,1.8,0.7,3.8,0.7,6c0,4.7-1,8.3-3,10.9c-2,2.5-4.9,3.8-8.6,3.8c-2,0-3.7-0.4-5.1-1.1
			c-1.4-0.7-2.6-1.7-3.6-3c-1-1.3-1.7-2.8-2.1-4.6C282.9,88,282.7,86,282.7,83.8z M286.2,83.8c0,1.6,0.2,3.1,0.5,4.5
			c0.3,1.4,0.8,2.6,1.4,3.7c0.6,1.1,1.5,1.9,2.5,2.6c1,0.6,2.2,1,3.6,1c2.5,0,4.5-1,5.9-2.9c1.4-1.9,2.1-4.8,2.1-8.8
			c0-1.5-0.2-3-0.5-4.4c-0.3-1.4-0.8-2.7-1.5-3.7c-0.7-1.1-1.5-1.9-2.5-2.6c-1-0.6-2.2-1-3.6-1c-2.5,0-4.4,1-5.9,2.9
			C286.9,76.9,286.2,79.8,286.2,83.8z"/>
		<path class="st0" d="M315.2,79.4l-2.2-4.1h-0.2l0.4,4.1v18.5h-3.2V69.2h1.8l13.6,18.9l2.1,3.9h0.2l-0.4-3.9V69.6h3.2v28.8h-1.8
			L315.2,79.4z"/>
	</g>
	<g>
		<path class="st0" d="M163.3,52l1,4.3h0l1.1-4.4l6.8-19.4h3.4l-10.7,28.8h-1.5l-10.9-28.8h3.7L163.3,52z"/>
		<path class="st0" d="M190.2,53.1h-10.4l-2.8,7.9h-3.4l10.7-28.8h1.5l10.8,28.8h-3.6L190.2,53.1z M180.9,50.1h8.3l-3.1-8.6l-1-4.3
			h0l-1,4.4L180.9,50.1z"/>
		<path class="st0" d="M199,32.8c1-0.2,2.2-0.3,3.5-0.4c1.3-0.1,2.6-0.2,3.7-0.2c1.2,0,2.4,0.1,3.5,0.4c1.1,0.3,2.1,0.7,3,1.3
			c0.9,0.6,1.5,1.4,2,2.4c0.5,1,0.8,2.2,0.8,3.6c0,2.2-0.6,4-1.8,5.4c-1.2,1.4-2.8,2.3-4.6,2.8l1.9,1.5l7,11.2h-3.9l-7.8-12.2
			l-4-0.6v12.8H199V32.8z M206.2,35.2c-0.4,0-0.7,0-1.1,0c-0.4,0-0.7,0-1.1,0c-0.4,0-0.7,0.1-1,0.1c-0.3,0-0.6,0.1-0.7,0.1v10.4h3.2
			c1.9,0,3.4-0.5,4.6-1.4c1.2-0.9,1.8-2.3,1.8-4.3c0-1.5-0.5-2.7-1.5-3.6C209.4,35.6,208,35.2,206.2,35.2z"/>
		<path class="st0" d="M222.9,32.6h3.4v28.3h-3.4V32.6z"/>
		<path class="st0" d="M244.7,53.1h-10.4l-2.8,7.9h-3.4l10.7-28.8h1.5l10.8,28.8h-3.6L244.7,53.1z M235.4,50.1h8.3l-3.1-8.6l-1-4.3
			h0l-1,4.4L235.4,50.1z"/>
		<path class="st0" d="M259.3,42.4l-2.2-4.1H257l0.4,4.1v18.5h-3.2V32.1h1.8L269.6,51l2.1,3.9h0.2l-0.4-3.9V32.6h3.2v28.8h-1.8
			L259.3,42.4z"/>
		<path class="st0" d="M299.7,35.6h-8.8v25.3h-3.4V35.6h-8.8v-3h21V35.6z"/>
		<g>
			<path class="st0" d="M318.5,46.5h-5.1v14.4H310V46.5h-5.1v-3h13.6V46.5z"/>
			<path class="st0" d="M320.2,52.2c0-2.9,0.6-5.1,1.9-6.7c1.3-1.6,3.1-2.4,5.5-2.4c1.2,0,2.3,0.2,3.3,0.6c0.9,0.4,1.7,1,2.3,1.8
				c0.6,0.8,1.1,1.7,1.4,2.9c0.3,1.1,0.4,2.3,0.4,3.7c0,2.9-0.6,5.1-1.9,6.7c-1.3,1.6-3.1,2.4-5.5,2.4c-1.3,0-2.4-0.2-3.3-0.6
				c-0.9-0.4-1.7-1-2.3-1.8c-0.6-0.8-1.1-1.7-1.4-2.9C320.3,54.8,320.2,53.5,320.2,52.2z M323.8,52.2c0,0.9,0.1,1.7,0.2,2.4
				c0.1,0.7,0.4,1.4,0.7,1.9c0.3,0.5,0.7,0.9,1.2,1.2c0.5,0.3,1.1,0.4,1.7,0.4c1.2,0,2.1-0.5,2.8-1.4c0.7-0.9,1-2.5,1-4.6
				c0-0.8-0.1-1.6-0.2-2.4c-0.1-0.7-0.4-1.4-0.7-1.9c-0.3-0.5-0.7-1-1.2-1.3c-0.5-0.3-1.1-0.5-1.8-0.5c-1.2,0-2.1,0.5-2.8,1.5
				C324.1,48.6,323.8,50.1,323.8,52.2z"/>
		</g>
	</g>
</g>
<g>
	<polyline class="st1" points="15.6,113.1 68.8,143.8 122,113.1 	"/>
	<polyline class="st1" points="122,35.4 68.8,4.6 15.6,35.4 	"/>
	<g>
		<g>
			<path class="st0" d="M17.2,91.3L17.2,91.3c-1.7,0-3.1-1.4-3.1-3.1V64.4c0-1.7,1.4-3.1,3.1-3.1h0c1.7,0,3.1,1.4,3.1,3.1v23.8
				C20.3,89.9,18.9,91.3,17.2,91.3z"/>
			<path class="st0" d="M30.3,93.5L30.3,93.5c-1.7,0-3.1-1.4-3.1-3.1V62.2c0-1.7,1.4-3.1,3.1-3.1h0c1.7,0,3.1,1.4,3.1,3.1v28.1
				C33.4,92.1,32,93.5,30.3,93.5z"/>
			<path class="st0" d="M43.4,91.3L43.4,91.3c-1.7,0-3.1-1.4-3.1-3.1V64.4c0-1.7,1.4-3.1,3.1-3.1h0c1.7,0,3.1,1.4,3.1,3.1v23.8
				C46.5,89.9,45.2,91.3,43.4,91.3z"/>
			<path class="st0" d="M56.6,84.9L56.6,84.9c-1.7,0-3.1-1.4-3.1-3.1v-11c0-1.7,1.4-3.1,3.1-3.1h0c1.7,0,3.1,1.4,3.1,3.1v11
				C59.7,83.5,58.3,84.9,56.6,84.9z"/>
			<path class="st0" d="M69.7,82.8L69.7,82.8c-1.7,0-3.1-1.4-3.1-3.1V73c0-1.7,1.4-3.1,3.1-3.1h0c1.7,0,3.1,1.4,3.1,3.1v6.7
				C72.8,81.4,71.4,82.8,69.7,82.8z"/>
			<path class="st0" d="M82.8,84.9L82.8,84.9c-1.7,0-3.1-1.4-3.1-3.1v-11c0-1.7,1.4-3.1,3.1-3.1h0c1.7,0,3.1,1.4,3.1,3.1v11
				C85.9,83.5,84.5,84.9,82.8,84.9z"/>
			<path class="st0" d="M95.9,91.3L95.9,91.3c-1.7,0-3.1-1.4-3.1-3.1V64.4c0-1.7,1.4-3.1,3.1-3.1h0c1.7,0,3.1,1.4,3.1,3.1v23.8
				C99,89.9,97.6,91.3,95.9,91.3z"/>
			<path class="st0" d="M109,93.5L109,93.5c-1.7,0-3.1-1.4-3.1-3.1V62.2c0-1.7,1.4-3.1,3.1-3.1h0c1.7,0,3.1,1.4,3.1,3.1v28.1
				C112.1,92.1,110.7,93.5,109,93.5z"/>
			<path class="st0" d="M122.1,91.3L122.1,91.3c-1.7,0-3.1-1.4-3.1-3.1V64.4c0-1.7,1.4-3.1,3.1-3.1h0c1.7,0,3.1,1.4,3.1,3.1v23.8
				C125.2,89.9,123.8,91.3,122.1,91.3z"/>
			<path class="st0" d="M19.4,90.4L19.4,90.4c-1.2,1.2-3.2,1.2-4.4,0l-12-12c-1.2-1.2-1.2-3.2,0-4.4h0c1.2-1.2,3.2-1.2,4.4,0l12,12
				C20.6,87.3,20.6,89.2,19.4,90.4z"/>
			<path class="st0" d="M136.2,64.4L136.2,64.4c0,1.7-1.4,3.1-3.1,3.1h-11c-1.7,0-3.1-1.4-3.1-3.1v0c0-1.7,1.4-3.1,3.1-3.1h11
				C134.8,61.3,136.2,62.7,136.2,64.4z"/>
			<path class="st0" d="M134.3,76L134.3,76c0,1.7-1.4,3.1-3.1,3.1h-9.1c-1.7,0-3.1-1.4-3.1-3.1l0,0c0-1.7,1.4-3.1,3.1-3.1h9.1
				C132.9,72.9,134.3,74.3,134.3,76z"/>
		</g>
		<polygon class="st0" points="130,82 130,70.2 135.9,76.1 		"/>
	</g>
</g>
</svg>
