<?xml version="1.0" encoding="utf-8"?>
<!-- Generator: Adobe Illustrator 23.0.4, SVG Export Plug-In . SVG Version: 6.00 Build 0)  -->
<svg version="1.1" id="Layer_1" xmlns="http://www.w3.org/2000/svg" xmlns:xlink="http://www.w3.org/1999/xlink" x="0px" y="0px"
	 viewBox="0 0 280.5 50" style="enable-background:new 0 0 280.5 50;" xml:space="preserve">
<style type="text/css">
	.st0{fill:#FFFFFF;}
	.st1{fill:none;stroke:#FFFFFF;stroke-width:0.9682;stroke-linecap:round;stroke-linejoin:round;stroke-miterlimit:10;}
</style>
<g>
	<g>
		<path class="st0" d="M272.4,23.3c-0.2-0.2-0.5-0.3-0.8-0.3c-0.3-0.1-0.6-0.1-0.9-0.1c-0.2,0-0.5,0-0.7,0c-0.2,0-0.4,0-0.5,0.1V27
			c0,0,0.1,0,0.2,0c0.1,0,0.2,0,0.3,0c0.1,0,0.2,0,0.3,0s0.2,0,0.2,0c0.3,0,0.6,0,1-0.1c0.3-0.1,0.6-0.2,0.9-0.3
			c0.3-0.2,0.5-0.4,0.6-0.7c0.2-0.3,0.2-0.7,0.2-1.1c0-0.4-0.1-0.7-0.2-1C272.8,23.6,272.6,23.4,272.4,23.3z"/>
		<path class="st0" d="M271,19.3C271,19.3,271,19.3,271,19.3L271,19.3h-16.6v3.8V35l0,0H271v0c0,0,0,0,0,0c4.3,0,7.8-3.5,7.8-7.8
			S275.3,19.3,271,19.3z M263.5,33.5l-3.7-5.4h-0.6v5.4h-2.5V20.9h2.5v5.6l0.6-0.3l3.5-5.3h2.8l-3.7,5.3l-1,0.7l1,0.7l4.2,5.9H263.5
			z M275.3,26.9c-0.3,0.5-0.6,1-1.1,1.3c-0.5,0.3-1,0.6-1.6,0.8c-0.6,0.2-1.2,0.2-1.8,0.2c-0.1,0-0.2,0-0.3,0c-0.1,0-0.3,0-0.4,0
			c-0.1,0-0.3,0-0.4,0c-0.1,0-0.2,0-0.3,0v4.3H267V21c0.5-0.1,1.1-0.2,1.7-0.2c0.6-0.1,1.2-0.1,1.8-0.1c0.6,0,1.3,0.1,1.9,0.2
			c0.6,0.1,1.2,0.3,1.7,0.6c0.5,0.3,0.9,0.7,1.2,1.3c0.3,0.5,0.5,1.3,0.5,2.1C275.7,25.7,275.6,26.4,275.3,26.9z"/>
	</g>
	<g>
		<polyline class="st1" points="5.1,36.9 20.3,45.7 35.4,36.9 		"/>
		<polyline class="st1" points="35.4,14.8 20.3,6 5.1,14.8 		"/>
		<g>
			<g>
				<path class="st0" d="M5.6,30.7L5.6,30.7c-0.5,0-0.9-0.4-0.9-0.9v-6.8c0-0.5,0.4-0.9,0.9-0.9h0c0.5,0,0.9,0.4,0.9,0.9v6.8
					C6.5,30.3,6.1,30.7,5.6,30.7z"/>
				<path class="st0" d="M9.3,31.3L9.3,31.3c-0.5,0-0.9-0.4-0.9-0.9v-8c0-0.5,0.4-0.9,0.9-0.9h0c0.5,0,0.9,0.4,0.9,0.9v8
					C10.2,30.9,9.8,31.3,9.3,31.3z"/>
				<path class="st0" d="M13.1,30.7L13.1,30.7c-0.5,0-0.9-0.4-0.9-0.9v-6.8c0-0.5,0.4-0.9,0.9-0.9h0c0.5,0,0.9,0.4,0.9,0.9v6.8
					C13.9,30.3,13.5,30.7,13.1,30.7z"/>
				<path class="st0" d="M16.8,28.9L16.8,28.9c-0.5,0-0.9-0.4-0.9-0.9v-3.1c0-0.5,0.4-0.9,0.9-0.9h0c0.5,0,0.9,0.4,0.9,0.9V28
					C17.7,28.5,17.3,28.9,16.8,28.9z"/>
				<path class="st0" d="M20.5,28.3L20.5,28.3c-0.5,0-0.9-0.4-0.9-0.9v-1.9c0-0.5,0.4-0.9,0.9-0.9h0c0.5,0,0.9,0.4,0.9,0.9v1.9
					C21.4,27.9,21,28.3,20.5,28.3z"/>
				<path class="st0" d="M24.3,28.9L24.3,28.9c-0.5,0-0.9-0.4-0.9-0.9v-3.1c0-0.5,0.4-0.9,0.9-0.9h0c0.5,0,0.9,0.4,0.9,0.9V28
					C25.1,28.5,24.7,28.9,24.3,28.9z"/>
				<path class="st0" d="M28,30.7L28,30.7c-0.5,0-0.9-0.4-0.9-0.9v-6.8c0-0.5,0.4-0.9,0.9-0.9h0c0.5,0,0.9,0.4,0.9,0.9v6.8
					C28.9,30.3,28.5,30.7,28,30.7z"/>
				<path class="st0" d="M31.7,31.3L31.7,31.3c-0.5,0-0.9-0.4-0.9-0.9v-8c0-0.5,0.4-0.9,0.9-0.9h0c0.5,0,0.9,0.4,0.9,0.9v8
					C32.6,30.9,32.2,31.3,31.7,31.3z"/>
				<path class="st0" d="M35.5,30.7L35.5,30.7c-0.5,0-0.9-0.4-0.9-0.9v-6.8c0-0.5,0.4-0.9,0.9-0.9h0c0.5,0,0.9,0.4,0.9,0.9v6.8
					C36.3,30.3,35.9,30.7,35.5,30.7z"/>
				<path class="st0" d="M6.2,30.5L6.2,30.5c-0.3,0.3-0.9,0.3-1.2,0L1.5,27c-0.3-0.3-0.3-0.9,0-1.2h0c0.3-0.3,0.9-0.3,1.2,0l3.4,3.4
					C6.6,29.6,6.6,30.1,6.2,30.5z"/>
				<path class="st0" d="M39.5,23.1L39.5,23.1c0,0.5-0.4,0.9-0.9,0.9h-3.1c-0.5,0-0.9-0.4-0.9-0.9v0c0-0.5,0.4-0.9,0.9-0.9h3.1
					C39.1,22.2,39.5,22.6,39.5,23.1z"/>
				<path class="st0" d="M38.9,26.4L38.9,26.4c0,0.5-0.4,0.9-0.9,0.9h-2.6c-0.5,0-0.9-0.4-0.9-0.9v0c0-0.5,0.4-0.9,0.9-0.9H38
					C38.5,25.5,38.9,25.9,38.9,26.4z"/>
			</g>
			<polygon class="st0" points="37.7,28.1 37.7,24.7 39.4,26.4 			"/>
		</g>
	</g>
	<g>
		<path class="st0" d="M52.9,30.1l0.5,2.4h0l0.6-2.4l3.8-10.8h1.9l-6,16H53l-6.1-16h2L52.9,30.1z"/>
		<path class="st0" d="M67.9,30.7h-5.8L60.6,35h-1.9l6-16h0.9l6,16h-2L67.9,30.7z M62.7,29.1h4.6l-1.7-4.8L65,21.9h0l-0.6,2.4
			L62.7,29.1z"/>
		<path class="st0" d="M72.8,19.4c0.6-0.1,1.2-0.2,2-0.2c0.7-0.1,1.4-0.1,2-0.1c0.7,0,1.3,0.1,2,0.2c0.6,0.2,1.2,0.4,1.6,0.7
			c0.5,0.3,0.9,0.8,1.1,1.4c0.3,0.6,0.4,1.2,0.4,2c0,1.2-0.3,2.2-1,3c-0.7,0.8-1.5,1.3-2.6,1.5l1.1,0.8l3.9,6.2h-2.2l-4.3-6.8
			l-2.2-0.3V35h-1.9V19.4z M76.8,20.7c-0.2,0-0.4,0-0.6,0c-0.2,0-0.4,0-0.6,0c-0.2,0-0.4,0-0.6,0c-0.2,0-0.3,0-0.4,0.1v5.8h1.8
			c1,0,1.9-0.3,2.6-0.8c0.7-0.5,1-1.3,1-2.4c0-0.8-0.3-1.5-0.8-2C78.6,21,77.8,20.7,76.8,20.7z"/>
		<path class="st0" d="M86.1,19.3H88V35h-1.9V19.3z"/>
		<path class="st0" d="M98.2,30.7h-5.8L90.9,35H89l6-16h0.9l6,16h-2L98.2,30.7z M93.1,29.1h4.6l-1.7-4.8l-0.6-2.4h0l-0.6,2.4
			L93.1,29.1z"/>
		<path class="st0" d="M106.4,24.7l-1.2-2.3h-0.1l0.2,2.3V35h-1.8V19h1l7.5,10.5l1.2,2.2h0.1l-0.2-2.2V19.3h1.8v16h-1L106.4,24.7z"
			/>
		<path class="st0" d="M128.9,21H124V35h-1.9V21h-4.9v-1.7h11.7V21z"/>
		<path class="st0" d="M137.4,26.9h-2.9V35h-1.9v-8.1h-2.9v-1.7h7.6V26.9z"/>
		<path class="st0" d="M137.2,30.1c0-1.6,0.4-2.9,1.1-3.8c0.7-0.9,1.7-1.3,3.1-1.3c0.7,0,1.3,0.1,1.8,0.4c0.5,0.2,1,0.6,1.3,1
			c0.3,0.4,0.6,1,0.8,1.6s0.3,1.3,0.3,2.1c0,1.6-0.4,2.9-1.1,3.8c-0.7,0.9-1.7,1.3-3.1,1.3c-0.7,0-1.3-0.1-1.8-0.4s-1-0.6-1.3-1
			c-0.3-0.4-0.6-1-0.8-1.6C137.3,31.6,137.2,30.9,137.2,30.1z M139.2,30.1c0,0.5,0,0.9,0.1,1.4c0.1,0.4,0.2,0.8,0.4,1.1
			s0.4,0.5,0.7,0.7s0.6,0.3,1,0.3c0.7,0,1.2-0.3,1.6-0.8c0.4-0.5,0.6-1.4,0.6-2.6c0-0.5,0-0.9-0.1-1.3s-0.2-0.8-0.4-1.1
			s-0.4-0.5-0.7-0.7c-0.3-0.2-0.6-0.3-1-0.3c-0.7,0-1.2,0.3-1.6,0.8C139.4,28.1,139.2,29,139.2,30.1z"/>
		<path class="st0" d="M149.7,19.3h8.6V21h-6.7v5.4h6.3V28h-6.3v7h-1.9V19.3z"/>
		<path class="st0" d="M170,19.3h1.8v10.5c0,0.9-0.1,1.8-0.4,2.5c-0.2,0.7-0.6,1.3-1.1,1.7c-0.5,0.4-1,0.8-1.7,1
			c-0.6,0.2-1.4,0.3-2.1,0.3c-1.9,0-3.3-0.4-4.2-1.3c-0.9-0.8-1.4-2.1-1.4-3.8V19.3h1.9v10c0,0.8,0.1,1.5,0.2,2
			c0.2,0.5,0.4,1,0.7,1.3c0.3,0.3,0.7,0.6,1.2,0.7s1,0.2,1.7,0.2c1.2,0,2.1-0.3,2.6-1c0.5-0.7,0.8-1.8,0.8-3.3V19.3z"/>
		<path class="st0" d="M177.8,24.7l-1.2-2.3h-0.1l0.2,2.3V35H175V19h1l7.5,10.5l1.2,2.2h0.1l-0.2-2.2V19.3h1.8v16h-1L177.8,24.7z"/>
		<path class="st0" d="M200,34.4c-0.4,0.3-1,0.6-1.7,0.7c-0.7,0.1-1.4,0.2-2.2,0.2c-0.9,0-1.8-0.2-2.7-0.5c-0.8-0.3-1.5-0.8-2.2-1.5
			c-0.6-0.7-1.1-1.5-1.5-2.5c-0.4-1-0.5-2.2-0.5-3.7c0-1.5,0.2-2.7,0.6-3.7s0.9-1.9,1.6-2.5c0.7-0.7,1.4-1.1,2.2-1.4
			s1.6-0.5,2.5-0.5c0.9,0,1.6,0,2.2,0.1s1.1,0.2,1.5,0.4l-0.5,1.7c-0.7-0.4-1.7-0.5-3.1-0.5c-0.6,0-1.2,0.1-1.8,0.3
			c-0.6,0.2-1.1,0.6-1.6,1.1c-0.5,0.5-0.9,1.2-1.1,2c-0.3,0.8-0.4,1.8-0.4,3c0,1.1,0.1,2,0.4,2.8c0.3,0.8,0.6,1.5,1.1,2
			c0.5,0.5,1,0.9,1.7,1.2s1.3,0.4,2.1,0.4c0.7,0,1.3-0.1,1.8-0.2c0.5-0.1,0.9-0.3,1.3-0.5L200,34.4z"/>
		<path class="st0" d="M213.4,21h-4.9V35h-1.9V21h-4.9v-1.7h11.7V21z"/>
		<path class="st0" d="M215.9,19.3h1.9V35h-1.9V19.3z"/>
		<path class="st0" d="M219.3,27.2c0-2.6,0.6-4.6,1.7-6c1.1-1.4,2.7-2.1,4.7-2.1c1.1,0,2.1,0.2,2.9,0.6c0.8,0.4,1.5,0.9,2,1.7
			c0.5,0.7,0.9,1.6,1.2,2.6s0.4,2.1,0.4,3.3c0,2.6-0.6,4.6-1.7,6c-1.1,1.4-2.7,2.1-4.8,2.1c-1.1,0-2-0.2-2.8-0.6
			c-0.8-0.4-1.5-0.9-2-1.7c-0.5-0.7-0.9-1.6-1.2-2.6S219.3,28.4,219.3,27.2z M221.2,27.2c0,0.9,0.1,1.7,0.3,2.5
			c0.2,0.8,0.4,1.5,0.8,2.1c0.4,0.6,0.8,1.1,1.4,1.4c0.6,0.4,1.2,0.5,2,0.5c1.4,0,2.5-0.5,3.3-1.6c0.8-1.1,1.2-2.7,1.2-4.9
			c0-0.9-0.1-1.7-0.3-2.5c-0.2-0.8-0.4-1.5-0.8-2.1c-0.4-0.6-0.8-1.1-1.4-1.4s-1.2-0.5-2-0.5c-1.4,0-2.5,0.5-3.3,1.6
			C221.6,23.3,221.2,25,221.2,27.2z"/>
		<path class="st0" d="M236.6,24.7l-1.2-2.3h-0.1l0.2,2.3V35h-1.8V19h1l7.5,10.5l1.2,2.2h0.1l-0.2-2.2V19.3h1.8v16h-1L236.6,24.7z"
			/>
	</g>
</g>
</svg>
