<?xml version="1.0" encoding="utf-8"?>
<!-- Generator: Adobe Illustrator 21.1.0, SVG Export Plug-In . SVG Version: 6.00 Build 0)  -->
<svg version="1.1" id="Layer_1" xmlns="http://www.w3.org/2000/svg" xmlns:xlink="http://www.w3.org/1999/xlink" x="0px" y="0px"
	 viewBox="0 0 500 200" style="enable-background:new 0 0 500 200;" xml:space="preserve">
<style type="text/css">
	.st0{fill:none;}
	.st1{fill:#FFFFFF;}
	.st2{fill:url(#SVGID_1_);}
	.st3{fill:#BDD96D;}
	.st4{fill:#94C940;}
	.st5{fill:#55B748;}
	.st6{fill:#EDE80C;}
	.st7{fill:#F69320;}
	.st8{fill:#FFC113;}
	.st9{fill:#BED530;}
	.st10{fill:#EB2227;}
</style>
<rect x="0" y="0" class="st0" width="500" height="200"/>
<g>
	<g>
		<g>
			<path class="st1" d="M119.5,0.7H3.8C2,0.7,0.6,2.1,0.6,3.9v115.7c0,1.8,1.5,3.3,3.3,3.3h52.7c-0.8-7.1-1.8-18.8-10.1-17
				c-2,0.1-6.6,1.6-8.8,1.9c-4.3,0.7-9.1,0.4-11.6-3.1c-2.5-3.6-4.4-20.4-4.9-20.8c-0.5-0.5-9.3-1.1-10.5-1.9
				c-2.4-1.7-0.7-4.7-0.7-4.7s8.1-11.5,9.6-16.5c0.4-1.3-0.1-2.2-0.8-4.8c-0.4-2.4-1.8-5-1.5-7.5c3.1-26.3,21.8-43,47.7-43
				C91,5.4,112,24.8,112,48.6c0,8.9-2.9,17.1-7.9,24c0,0-3.4,6-10.5,16.8c-3.1,4.6,6.4,28.8,8.3,33.5h17.6c1.8,0,3.3-1.5,3.3-3.3
				V3.9C122.7,2.1,121.3,0.7,119.5,0.7z"/>
			<linearGradient id="SVGID_1_" gradientUnits="userSpaceOnUse" x1="60.6995" y1="122.373" x2="60.6995" y2="48.2016">
				<stop  offset="0.3231" style="stop-color:#65BF71"/>
				<stop  offset="1" style="stop-color:#009949"/>
			</linearGradient>
			<path class="st2" d="M93.5,89.4c7.2-10.8,10.5-16.8,10.5-16.8c5-6.9,7.9-15.1,7.9-24c0-23.9-21-43.2-46.9-43.2
				c-25.9,0-44.7,16.7-47.7,43c-0.3,2.5,1.1,5.1,1.5,7.5c0.7,2.6,1.2,3.5,0.8,4.8c-1.5,5-9.6,16.5-9.6,16.5s-1.8,3,0.7,4.7
				c1.2,0.8,10,1.5,10.5,1.9c0.5,0.5,2.3,17.3,4.9,20.8c2.5,3.6,7.3,3.8,11.6,3.1c2.2-0.3,6.8-1.8,8.8-1.9c8.2-1.8,9.2,10,10.1,17
				h45.3C99.9,118.2,90.5,94,93.5,89.4z"/>
		</g>
		<path class="st3" d="M28.1,39.3c0.3-1,1.5-0.9,1.5-0.9s1,0.6,0.6,1.6c-0.3,1-1.9,2-1.9,2S27.8,40.3,28.1,39.3z"/>
		<path class="st4" d="M30,46.3c0.7-0.7,1.6-0.2,1.6-0.2s0.6,0.9-0.1,1.6c-0.7,0.7-2.3,1-2.3,1S29.3,47,30,46.3z"/>
		<path class="st4" d="M32.2,48.4c0.7-0.9,1.9-0.3,1.9-0.3s0.7,1,0,1.9c-0.7,0.9-2.7,1.3-2.7,1.3S31.4,49.2,32.2,48.4z"/>
		<path class="st1" d="M102.7,45c-1.8,2-3.5,2.4-6.5,3.2c-1.5,0.4-4.2,0.4-6.9,1.9c-0.3,0.2-0.5,0.3-0.8,0.5
			c0.1-1.1,0.4-2.5,1.3-3.9c2-2.9,5.4-3.1,7.3-4.3c1.9-1.2,3.3-3.1,3.6-5.7c0,0-1.1,4.3-5.6,5.5C92.4,43,89.4,44.5,88,47
			c-1.1,1.9-1.3,4-1.4,4.9c-1.6,1.3-2.4,2.4-2.7,3.1c0,0-1.2-1.7-3.4-3.5c0-0.1-0.1-0.1-0.1-0.2c-4.8-9-4.7-12.2-3.1-14.4
			c2.6-3.7,8.2-2.5,13.7-6.6c4.8-3.7,4.8-8.5,4.8-8.5s-0.8,4.7-5,7.7c-4.8,3.4-8.1,2.9-11.4,4.2c-0.1,0-0.2,0.1-0.3,0.1
			c0.1-0.2,0.2-0.5,0.2-0.8c0.5-2.1-0.5-4.4-1.5-6.2c-2.5-4.3,0.6-8.7,0.6-8.7c-1.1,1.6-2.8,3.9-1.8,7.8c0.4,1.6,2.2,3.4,1.9,6
			c-0.2,1.2-1,2.6-1.5,3.2l0,0c-1.7,1.4-2.6,3.2-2.7,4.8c-0.1,3.1,0.7,5.9,2.4,9.3c-1.6-0.8-3.4-1.5-5.5-1.8c-1-0.9-3.6-3.5-3.3-6.5
			c0.4-3.7,1.2-6.5,0.1-9.7c-1.3-3.8-4.5-5.5-6.9-6.2c-5.2-5.9-3.5-12.6-3.5-12.6s-2.7,6.3,1.4,12.1c-0.1,0-0.2,0-0.3,0
			c-1.7,0-8.9-2-12.5-6.7c0,0,3.7,6,11.6,7.7c4.4,0.9,5.8,1.8,7.4,4.2c1.6,2.5,1.1,5,0.3,10.2c-0.5,3.2,0.3,5.3,1.4,7.3
			c-1.6,0.1-3.3,0.4-5.2,1c-0.5,0.2-1,0.3-1.5,0.4c0-0.9-0.3-3.3-2.5-5.6l-0.1-0.3c-0.4-1.4-1.1-2.8-0.8-4c0.4-1.4,1.4-1.9,2-3.8
			c0.7-2-0.3-4.1-2-5.9c0,0,3.5,3.9,0.7,7.3c-1.7,2.1-1.7,3.6-1.2,5.4c-2.7-2-5.2-2.4-7.2-5.1c-2.7-3.5,0.1-9.1,0.1-9.1
			s-1.6,2.3-1.9,5.4c-0.2,2.5,1.2,4.3,2,5.4c1.8,2.5,4.9,2.9,7.4,5.4c2.1,2.1,1.4,4.1,1.4,5.4c-5.7,0.9-10.6-0.6-14-4.6
			c-6.7-8-0.6-26-0.6-26s-4.7,8.5-3.5,19.7c-5.6-6.5-12.3-2.8-12.3-2.8s8.1-3,12.7,6c0.3,1.3,0.8,2.6,1.5,3.8c0,0,0,0,0,0.1l0,0
			c1.3,2.2,3.3,4.2,6.4,5.6c-0.9,0.5-3.2,1.4-4.7,1.1c-1.7-0.3-1.9-2.1-4-2.8c-1.3-0.4-2.2-0.4-2.9-0.7c-0.8-0.3-1-2.3-2-2.9
			c-0.4-0.2-1.5-0.4-2.3-0.5c-0.7-0.1-1.5-0.6-1.5-0.6c0.3,0.6,1.6,1.3,2.2,1.4c0.6,0.1,1.1,0.2,1.8,1.9c0.7,1.7,1.4,1.7,3.5,2.3
			c2.1,0.7,1.8,2.5,4,3.4c2.3,1,5.3,0,8.1-0.9c0.6-0.2,1.3-0.4,2-0.5c7.4,1.7,11.1-1.8,17.4-0.6c10.1,2,10.3,8.4,10.7,13.4
			c0,0.7,0,1.4-0.2,2.3c-0.2-0.2-0.4-0.4-0.6-0.6C78.6,65.4,79,62.5,77,60c-1-1.2-2.7-2.9-5.8-2.4c-3.5,0.5-5.1,3.5-10.9,3.2
			c-5.1-0.3-9-3.8-9-3.8s2.6,4.1,8.6,4.7c8.7,0.9,9.4-4.2,14-2.2c2.6,1.1,2.2,3.8,3.3,7.6c0.4,1.5,1.4,2.8,2.4,3.8
			c-2.8,12.4-5.1,34.8,5,52l10.7,0c0,0-16.7-24.7-9-53.8c0,0,0.7-5.1-0.2-8.3c-0.4-1.5,1.3-6,4.5-8.2c4.1-2.8,10.1-2.3,12.7-6.1
			c1.7-2.5,2.1-8.5,2.1-8.5S104.5,43.2,102.7,45z"/>
		<path class="st3" d="M75.6,15.4c-0.4,0.8-1.4,0.7-1.4,0.7s-0.8-0.6-0.4-1.5c0.4-0.8,1.8-1.6,1.8-1.6S76,14.5,75.6,15.4z"/>
		<path class="st5" d="M48.9,17.2c-0.2,0.9-1.3,0.9-1.3,0.9s-0.9-0.5-0.7-1.5c0.2-0.9,1.6-2,1.6-2S49.2,16.2,48.9,17.2z"/>
		<path class="st5" d="M51.4,19.2c-0.5,1-1.7,0.7-1.7,0.7s-0.9-0.8-0.4-1.8c0.5-1,2.3-1.8,2.3-1.8S52,18.2,51.4,19.2z"/>
		<path class="st5" d="M53.5,21.1c-0.8,0.8-1.9,0.2-1.9,0.2s-0.6-1.1,0.1-1.9c0.8-0.8,2.7-1.1,2.7-1.1S54.3,20.3,53.5,21.1z"/>
		<path class="st3" d="M56.1,22.4c-0.8,0.8-1.9,0.2-1.9,0.2s-0.6-1.1,0.1-1.9c0.8-0.8,2.7-1.1,2.7-1.1S56.8,21.6,56.1,22.4z"/>
		<path class="st4" d="M44.1,39.9c-0.8,0.5-1.5-0.2-1.5-0.2s-0.3-1,0.5-1.4c0.8-0.5,2.3-0.3,2.3-0.3S44.9,39.4,44.1,39.9z"/>
		<path class="st4" d="M43.5,37c-0.8,0.5-1.5-0.2-1.5-0.2s-0.3-1,0.5-1.4c0.8-0.5,2.3-0.3,2.3-0.3S44.3,36.5,43.5,37z"/>
		<path class="st4" d="M43,34.5c-0.8,0.5-1.5-0.2-1.5-0.2s-0.3-1,0.5-1.4c0.8-0.5,2.3-0.3,2.3-0.3S43.8,34,43,34.5z"/>
		<path class="st4" d="M43.1,31.8c-0.9,0.1-1.3-0.8-1.3-0.8s0.1-1,1.1-1.1c0.9-0.1,2.2,0.7,2.2,0.7S44,31.7,43.1,31.8z"/>
		<path class="st4" d="M43.1,29.4c-0.9,0.1-1.2-0.8-1.2-0.8s0.1-0.9,1-1.1c0.9-0.1,2.1,0.6,2.1,0.6S44,29.2,43.1,29.4z"/>
		<path class="st5" d="M43.3,17.4c0.3,0.9-0.6,1.4-0.6,1.4s-1,0-1.3-0.9c-0.3-0.9,0.3-2.4,0.3-2.4S43,16.5,43.3,17.4z"/>
		<path class="st4" d="M34.3,50.9c0.5-1,1.7-0.8,1.7-0.8s1,0.8,0.5,1.8c-0.5,1-2.3,1.9-2.3,1.9S33.8,52,34.3,50.9z"/>
		<path class="st4" d="M36.5,39.7c0.5-0.9,1.6-0.6,1.6-0.6s0.9,0.8,0.3,1.7c-0.5,0.9-2.2,1.7-2.2,1.7S36,40.6,36.5,39.7z"/>
		<path class="st4" d="M33.6,37.3c0.5-0.9,1.6-0.5,1.6-0.5s0.8,0.8,0.2,1.7C35,39.4,33.3,40,33.3,40S33.1,38.2,33.6,37.3z"/>
		<path class="st5" d="M38.8,24.8c1.1,0.1,1.3,1.3,1.3,1.3s-0.4,1.2-1.5,1.1c-1.1-0.1-2.5-1.3-2.5-1.3S37.7,24.7,38.8,24.8z"/>
		<path class="st5" d="M39.9,21.6c1.1,0.3,1.1,1.6,1.1,1.6s-0.6,1.1-1.7,0.8c-1.1-0.3-2.3-1.9-2.3-1.9S38.8,21.3,39.9,21.6z"/>
		<path class="st5" d="M41.3,19.1c0.8,0.6,0.4,1.5,0.4,1.5s-0.8,0.7-1.6,0.1c-0.8-0.6-1.2-2.1-1.2-2.1S40.6,18.5,41.3,19.1z"/>
		<path class="st4" d="M44.6,18.5c-0.6,0.4-0.4,1.1-0.4,1.1s0.5,0.5,1.1,0.2c0.6-0.4,1-1.5,1-1.5S45.2,18.2,44.6,18.5z"/>
		<path class="st4" d="M43.4,25.2c-0.8,0.1-1,1-1,1s0.3,0.9,1.1,0.8c0.8-0.1,1.9-1,1.9-1S44.2,25.1,43.4,25.2z"/>
		<path class="st4" d="M44,22.9c-0.8-0.1-1.1,0.7-1.1,0.7s0.1,0.9,0.9,1c0.8,0.1,1.9-0.6,1.9-0.6S44.8,23,44,22.9z"/>
		<path class="st4" d="M44.5,20.7c-0.8,0-1,0.8-1,0.8s0.2,0.8,1,0.8c0.8,0,1.8-0.8,1.8-0.8S45.2,20.7,44.5,20.7z"/>
		<path class="st5" d="M32.7,32.2c0.2,1-0.8,1.5-0.8,1.5s-1.1-0.1-1.3-1.1c-0.2-1,0.6-2.6,0.6-2.6S32.6,31.1,32.7,32.2z"/>
		<path class="st5" d="M35.8,32.8c-0.3,1-1.4,1-1.4,1s-1-0.5-0.7-1.5c0.3-1,1.7-2.1,1.7-2.1S36.1,31.8,35.8,32.8z"/>
		<path class="st3" d="M34.3,30.3c-0.2,0.7-1,0.7-1,0.7s-0.7-0.4-0.5-1.1c0.2-0.7,1.2-1.5,1.2-1.5S34.4,29.6,34.3,30.3z"/>
		<path class="st5" d="M29.4,32.5c0.6,0.8-0.1,1.6-0.1,1.6s-1,0.4-1.6-0.4c-0.6-0.8-0.6-2.5-0.6-2.5S28.8,31.7,29.4,32.5z"/>
		<path class="st5" d="M38,27.6c0.9-0.4,1.6,0.5,1.6,0.5s0.2,1.1-0.8,1.5c-0.9,0.4-2.6-0.1-2.6-0.1S37.1,28,38,27.6z"/>
		<path class="st4" d="M30.1,36.7c0.2-1,1.3-1.1,1.3-1.1s1,0.5,0.8,1.5c-0.2,1-1.5,2.2-1.5,2.2S30,37.7,30.1,36.7z"/>
		<path class="st4" d="M27.1,36.4c0.5-0.9,1.6-0.6,1.6-0.6s0.8,0.8,0.3,1.7c-0.5,0.9-2.2,1.5-2.2,1.5S26.6,37.3,27.1,36.4z"/>
		<path class="st5" d="M38.2,34.8c-0.7,0.7-1.6,0-1.6,0s-0.5-1,0.3-1.6c0.7-0.7,2.4-0.7,2.4-0.7S38.9,34.1,38.2,34.8z"/>
		<path class="st3" d="M30.3,30.2c0.2,1-0.7,1.5-0.7,1.5s-1.1,0-1.3-1c-0.2-1,0.4-2.5,0.4-2.5S30,29.2,30.3,30.2z"/>
		<path class="st3" d="M32.2,27.8c0.4,0.7-0.2,1.4-0.2,1.4s-0.9,0.3-1.3-0.5c-0.4-0.7-0.2-2.2-0.2-2.2S31.8,27.1,32.2,27.8z"/>
		<path class="st5" d="M38.2,30.2c0.8-0.1,1.1,0.8,1.1,0.8s-0.1,0.9-1,1c-0.8,0.1-2.1-0.7-2.1-0.7S37.4,30.3,38.2,30.2z"/>
		<path class="st3" d="M38.5,19.7c0.8,0.2,0.8,1.1,0.8,1.1s-0.4,0.8-1.3,0.6c-0.8-0.2-1.7-1.3-1.7-1.3S37.7,19.5,38.5,19.7z"/>
		<path class="st3" d="M35.7,26.8c0.8,0.1,1,1,1,1s-0.3,0.9-1.1,0.8c-0.8-0.1-1.9-1-1.9-1S34.9,26.8,35.7,26.8z"/>
		<path class="st3" d="M30.9,40.3c0-1,1.1-1.2,1.1-1.2s1,0.3,1,1.3c0,1-1.2,2.3-1.2,2.3S30.9,41.3,30.9,40.3z"/>
		<path class="st3" d="M33.9,40.7c0.5-0.9,1.5-0.6,1.5-0.6s0.8,0.8,0.3,1.6c-0.5,0.9-2.1,1.5-2.1,1.5S33.4,41.6,33.9,40.7z"/>
		<path class="st3" d="M38.3,42.2c0.5-0.9,1.5-0.6,1.5-0.6s0.8,0.8,0.3,1.6c-0.5,0.9-2.1,1.5-2.1,1.5S37.8,43.1,38.3,42.2z"/>
		<path class="st4" d="M29.2,43.5c1,0.1,1.1,1.2,1.1,1.2s-0.4,1-1.4,0.9c-1-0.1-2.2-1.4-2.2-1.4S28.2,43.3,29.2,43.5z"/>
		<path class="st3" d="M34.4,24.5c1,0.1,1.2,1.1,1.2,1.1s-0.3,1-1.3,1c-1-0.1-2.2-1.2-2.2-1.2S33.4,24.5,34.4,24.5z"/>
		<path class="st3" d="M36.3,22.4c1,0.2,1,1.3,1,1.3s-0.5,1-1.5,0.7c-1-0.2-2-1.6-2-1.6S35.3,22.1,36.3,22.4z"/>
		<path class="st4" d="M56.1,12.4c0.8,0.5,0.5,1.5,0.5,1.5s-0.7,0.7-1.5,0.3c-0.8-0.5-1.4-2-1.4-2S55.3,11.9,56.1,12.4z"/>
		<path class="st3" d="M64.8,15c-0.7,0.2-1.1-0.5-1.1-0.5s0-0.8,0.7-1c0.7-0.2,1.8,0.3,1.8,0.3S65.5,14.8,64.8,15z"/>
		<path class="st3" d="M66.6,17.3c-0.6,0.2-1-0.4-1-0.4s0-0.7,0.6-0.9c0.6-0.2,1.6,0.3,1.6,0.3S67.2,17.2,66.6,17.3z"/>
		<path class="st3" d="M67.9,22.8c-0.9,0.2-1.4-0.6-1.4-0.6s0-1,0.9-1.3c0.9-0.2,2.4,0.4,2.4,0.4S68.8,22.5,67.9,22.8z"/>
		<path class="st5" d="M59.9,16.6c-1.1,0.3-1.6-0.8-1.6-0.8s0-1.2,1.1-1.5c1.1-0.3,2.8,0.5,2.8,0.5S61,16.4,59.9,16.6z"/>
		<path class="st4" d="M54.8,17.8c1.1-0.2,1.6,0.9,1.6,0.9s-0.1,1.2-1.2,1.4c-1.1,0.2-2.8-0.7-2.8-0.7S53.7,18,54.8,17.8z"/>
		<path class="st4" d="M55.8,20.8c1.1-0.2,1.6,0.9,1.6,0.9s-0.1,1.2-1.2,1.4c-1.1,0.2-2.8-0.7-2.8-0.7S54.7,21,55.8,20.8z"/>
		<path class="st5" d="M60.1,19.4c-1.1,0-1.5-1.2-1.5-1.2S58.9,17,60,17c1.1,0,2.7,1.1,2.7,1.1S61.3,19.4,60.1,19.4z"/>
		<path class="st5" d="M61.5,22.4c-1.1,0.4-1.8-0.6-1.8-0.6s-0.1-1.3,0.9-1.7c1.1-0.4,3,0.2,3,0.2S62.6,22,61.5,22.4z"/>
		<path class="st5" d="M63.5,24.7c-1.1,0.4-1.8-0.6-1.8-0.6s-0.1-1.3,0.9-1.7c1.1-0.4,3,0.2,3,0.2S64.6,24.3,63.5,24.7z"/>
		<path class="st4" d="M57.7,10.5c0.5,0.8-0.3,1.6-0.3,1.6s-1,0.3-1.5-0.6c-0.5-0.8-0.2-2.5-0.2-2.5S57.2,9.7,57.7,10.5z"/>
		<path class="st5" d="M60.1,13.5c-0.8,0.6-1.7,0-1.7,0s-0.5-1,0.3-1.7c0.8-0.6,2.6-0.7,2.6-0.7S60.9,12.8,60.1,13.5z"/>
		<path class="st3" d="M62.7,14.1c-0.9,0.4-1.6-0.5-1.6-0.5s-0.2-1.1,0.8-1.5c0.9-0.4,2.6,0,2.6,0S63.6,13.7,62.7,14.1z"/>
		<path class="st3" d="M63.2,17.3c-1,0.2-1.4-0.9-1.4-0.9s0.1-1.1,1.1-1.3c1-0.2,2.5,0.7,2.5,0.7S64.3,17.2,63.2,17.3z"/>
		<path class="st3" d="M64.4,19.7c-1,0.2-1.5-0.8-1.5-0.8s0.1-1.1,1.1-1.3c1-0.2,2.6,0.6,2.6,0.6S65.4,19.5,64.4,19.7z"/>
		<path class="st3" d="M65.6,21.9c-0.9,0.4-1.6-0.4-1.6-0.4s-0.2-1.1,0.7-1.5c0.9-0.4,2.6-0.1,2.6-0.1S66.5,21.4,65.6,21.9z"/>
		<path class="st5" d="M66.5,25.8c-0.6,0.8-1.7,0.3-1.7,0.3s-0.7-0.9,0-1.7c0.6-0.8,2.3-1.2,2.3-1.2S67.1,25,66.5,25.8z"/>
		<path class="st5" d="M47.1,28.5c0.7,0.2,0.6,1,0.6,1s-0.4,0.7-1.1,0.4c-0.7-0.2-1.4-1.2-1.4-1.2S46.4,28.3,47.1,28.5z"/>
		<path class="st5" d="M46.2,30.5c0.8,0.1,0.8,1,0.8,1s-0.4,0.8-1.1,0.6C45.2,32,44.3,31,44.3,31S45.4,30.4,46.2,30.5z"/>
		<path class="st5" d="M45.6,32.8c0.8-0.2,1.2,0.6,1.2,0.6s0,0.9-0.8,1.1c-0.8,0.2-2.1-0.4-2.1-0.4S44.8,33,45.6,32.8z"/>
		<path class="st5" d="M46,35.2c0.9-0.2,1.4,0.7,1.4,0.7s0,1-0.9,1.3c-0.9,0.2-2.4-0.4-2.4-0.4S45,35.4,46,35.2z"/>
		<path class="st5" d="M46.9,37.8c0.8-0.4,1.5,0.3,1.5,0.3s0.3,1-0.6,1.5c-0.8,0.4-2.4,0.2-2.4,0.2S46,38.3,46.9,37.8z"/>
		<path class="st5" d="M48.2,40.3c0.6-0.8,1.5-0.4,1.5-0.4s0.7,0.8,0.1,1.6c-0.6,0.8-2.1,1.2-2.1,1.2S47.7,41,48.2,40.3z"/>
		<path class="st5" d="M50.6,36.2c-0.7,0.2-1.1-0.5-1.1-0.5s0-0.8,0.7-1c0.7-0.2,1.9,0.2,1.9,0.2S51.3,36,50.6,36.2z"/>
		<path class="st5" d="M52.3,37.9c-0.6,0.5-1.2,0-1.2,0s-0.3-0.8,0.3-1.2c0.6-0.5,1.9-0.5,1.9-0.5S52.9,37.5,52.3,37.9z"/>
		<path class="st5" d="M50.1,34.2c-0.7,0.4-1.2-0.2-1.2-0.2s-0.2-0.8,0.5-1.2c0.7-0.4,1.9-0.1,1.9-0.1S50.8,33.9,50.1,34.2z"/>
		<path class="st5" d="M40.7,48.2c-0.6,0.7-1.5,0.3-1.5,0.3s-0.6-0.8,0-1.6c0.6-0.7,2.2-1.1,2.2-1.1S41.3,47.5,40.7,48.2z"/>
		<path class="st5" d="M42.9,49.4c-0.4,0.7-1.3,0.5-1.3,0.5s-0.6-0.6-0.2-1.4c0.4-0.7,1.8-1.2,1.8-1.2S43.3,48.6,42.9,49.4z"/>
		<path class="st5" d="M44.6,51.1c-0.3,0.7-1.2,0.5-1.2,0.5s-0.7-0.5-0.3-1.3c0.3-0.7,1.5-1.3,1.5-1.3S44.9,50.4,44.6,51.1z"/>
		<path class="st5" d="M49.4,32.3c-0.8,0-1-0.8-1-0.8s0.2-0.8,0.9-0.8c0.8,0,1.8,0.8,1.8,0.8S50.2,32.3,49.4,32.3z"/>
		<path class="st4" d="M37.3,52.1c0.5-1,1.7-0.7,1.7-0.7s0.9,0.8,0.4,1.7c-0.5,1-2.2,1.7-2.2,1.7S36.8,53.1,37.3,52.1z"/>
		<path class="st4" d="M39.6,54.2c0.3-0.9,1.3-0.9,1.3-0.9s0.9,0.5,0.6,1.4c-0.3,0.9-1.6,1.8-1.6,1.8S39.4,55.1,39.6,54.2z"/>
		<path class="st5" d="M49.8,30.3c-0.7-0.2-0.7-1-0.7-1s0.4-0.7,1.1-0.5c0.7,0.2,1.5,1.3,1.5,1.3S50.5,30.5,49.8,30.3z"/>
		<path class="st4" d="M56.7,31c0.8,0,0.9,0.8,0.9,0.8s-0.2,0.8-1,0.8c-0.8,0-1.7-0.8-1.7-0.8S56,31,56.7,31z"/>
		<path class="st4" d="M55.5,29.1c0.7-0.2,1.2,0.4,1.2,0.4s0.1,0.8-0.6,1.1c-0.7,0.2-1.9-0.2-1.9-0.2S54.8,29.3,55.5,29.1z"/>
		<path class="st5" d="M54.6,32.2c0.7-0.1,1,0.7,1,0.7s-0.1,0.8-0.9,0.9c-0.7,0.1-1.8-0.7-1.8-0.7S53.9,32.2,54.6,32.2z"/>
		<path class="st4" d="M56.9,33.2c0.8,0,0.9,0.8,0.9,0.8s-0.2,0.8-1,0.8c-0.8,0-1.7-0.9-1.7-0.9S56.2,33.2,56.9,33.2z"/>
		<path class="st4" d="M56.3,35c0.7,0.2,0.7,1,0.7,1s-0.4,0.7-1.1,0.5c-0.7-0.2-1.4-1.3-1.4-1.3S55.6,34.8,56.3,35z"/>
		<path class="st4" d="M55.4,36.9c0.6,0.4,0.3,1.2,0.3,1.2s-0.6,0.5-1.2,0.1c-0.6-0.4-1-1.7-1-1.7S54.8,36.5,55.4,36.9z"/>
		<path class="st5" d="M53.9,34.1c0.6,0.4,0.3,1.2,0.3,1.2s-0.6,0.5-1.2,0.1c-0.6-0.4-1-1.7-1-1.7S53.2,33.7,53.9,34.1z"/>
		<path class="st5" d="M51.2,28c-0.5,0.6-1.2,0.2-1.2,0.2s-0.5-0.7,0-1.2c0.5-0.6,1.8-0.8,1.8-0.8S51.7,27.5,51.2,28z"/>
		<path class="st5" d="M48.5,27c0.4,0.6-0.1,1.2-0.1,1.2s-0.7,0.3-1.1-0.3c-0.4-0.6-0.3-1.8-0.3-1.8S48.1,26.4,48.5,27z"/>
		<path class="st3" d="M46.1,20c0.6-0.6,1.4-0.1,1.4-0.1s0.4,0.8-0.2,1.4c-0.6,0.6-2.1,0.7-2.1,0.7S45.5,20.6,46.1,20z"/>
		<path class="st3" d="M52.3,25.5c0.4-1,1.6-0.8,1.6-0.8s1,0.7,0.5,1.8c-0.4,1-2.1,1.9-2.1,1.9S51.9,26.6,52.3,25.5z"/>
		<path class="st3" d="M49.6,23.9c0.7-0.9,1.8-0.5,1.8-0.5s0.8,1,0.2,1.9c-0.7,0.9-2.5,1.5-2.5,1.5S49,24.8,49.6,23.9z"/>
		<path class="st3" d="M47.7,21.9c0.6-0.7,1.6-0.2,1.6-0.2s0.6,0.9-0.1,1.6c-0.6,0.7-2.3,1-2.3,1S47.1,22.6,47.7,21.9z"/>
		<path class="st3" d="M54.8,26.9c0.2-1,1.3-1.1,1.3-1.1s1,0.4,0.9,1.5c-0.2,1-1.5,2.2-1.5,2.2S54.7,27.9,54.8,26.9z"/>
		<path class="st5" d="M49.5,55.8c0.8,0,1,0.8,1,0.8s-0.2,0.8-1,0.9c-0.8,0-1.9-0.7-1.9-0.7S48.7,55.8,49.5,55.8z"/>
		<path class="st4" d="M49.9,58.3c0.6-0.6,1.4,0,1.4,0s0.4,0.8-0.2,1.4c-0.6,0.6-2.1,0.6-2.1,0.6S49.3,58.9,49.9,58.3z"/>
		<path class="st5" d="M50,60.4c0.6-0.3,1.1,0.2,1.1,0.2s0.2,0.7-0.4,1.1c-0.6,0.3-1.8,0.1-1.8,0.1S49.4,60.7,50,60.4z"/>
		<path class="st5" d="M48.3,57.7c0.5-0.3,1,0.2,1,0.2s0.2,0.6-0.4,0.9c-0.5,0.3-1.5,0.1-1.5,0.1S47.8,58,48.3,57.7z"/>
		<path class="st5" d="M52.2,62.6c0.5-0.4,1.1,0,1.1,0s0.3,0.7-0.2,1.1c-0.5,0.5-1.7,0.5-1.7,0.5S51.7,63,52.2,62.6z"/>
		<path class="st4" d="M51.8,60.3c0.6-0.7,1.5-0.3,1.5-0.3s0.6,0.8,0.1,1.5c-0.6,0.7-2.1,1.1-2.1,1.1S51.3,61,51.8,60.3z"/>
		<path class="st4" d="M53.9,62.1c0.3-0.9,1.4-0.9,1.4-0.9s0.9,0.6,0.6,1.5c-0.3,0.9-1.7,1.9-1.7,1.9S53.7,63,53.9,62.1z"/>
		<path class="st4" d="M56.6,63.1c0.1-0.9,1.1-1,1.1-1s0.9,0.3,0.8,1.2c-0.1,0.9-1.2,2-1.2,2S56.5,64,56.6,63.1z"/>
		<path class="st5" d="M59.2,63.4c-0.1-0.9,0.9-1.2,0.9-1.2s1,0.2,1,1.1c0.1,0.9-0.8,2.2-0.8,2.2S59.2,64.3,59.2,63.4z"/>
		<path class="st5" d="M61.8,63.3c0-0.7,0.7-1,0.7-1s0.8,0.2,0.9,0.9c0,0.8-0.7,1.8-0.7,1.8S61.9,64,61.8,63.3z"/>
		<path class="st5" d="M62.5,59.5c-0.1,0.7-0.9,0.8-0.9,0.8s-0.8-0.3-0.7-1.1c0.1-0.7,1-1.6,1-1.6S62.6,58.7,62.5,59.5z"/>
		<path class="st5" d="M64.3,59.6c-0.1,0.6-0.7,0.6-0.7,0.6S63,60,63.1,59.4c0.1-0.6,0.8-1.2,0.8-1.2S64.4,59,64.3,59.6z"/>
		<path class="st5" d="M59.5,56.7c-0.1,0.6-0.7,0.6-0.7,0.6s-0.6-0.2-0.5-0.8c0.1-0.6,0.8-1.2,0.8-1.2S59.6,56.2,59.5,56.7z"/>
		<path class="st5" d="M61.5,57.4c-0.1,0.5-0.6,0.5-0.6,0.5s-0.5-0.2-0.4-0.6c0.1-0.5,0.6-1,0.6-1S61.5,56.9,61.5,57.4z"/>
		<path class="st5" d="M52,55c0,0.8-0.8,1-0.8,1s-0.8-0.2-0.9-0.9c0-0.8,0.7-1.8,0.7-1.8S52,54.2,52,55z"/>
		<path class="st5" d="M53.7,56.8c-0.4,0.7-1.2,0.4-1.2,0.4s-0.6-0.6-0.2-1.3c0.4-0.7,1.6-1.1,1.6-1.1S54.1,56.1,53.7,56.8z"/>
		<path class="st5" d="M55.7,57.9c-0.4,0.7-1.3,0.4-1.3,0.4s-0.6-0.6-0.2-1.4c0.4-0.7,1.8-1.2,1.8-1.2S56.1,57.2,55.7,57.9z"/>
		<path class="st3" d="M57.8,58.7c-0.3,0.8-1.2,0.7-1.2,0.7s-0.8-0.5-0.5-1.3c0.3-0.8,1.6-1.6,1.6-1.6S58.1,57.9,57.8,58.7z"/>
		<path class="st3" d="M55.7,55.1c-0.2,0.6-0.9,0.5-0.9,0.5s-0.6-0.4-0.4-1c0.2-0.6,1.1-1.1,1.1-1.1S55.9,54.5,55.7,55.1z"/>
		<path class="st3" d="M57.6,55.9c-0.2,0.6-1,0.6-1,0.6s-0.6-0.4-0.4-1.1c0.2-0.6,1.2-1.3,1.2-1.3S57.9,55.3,57.6,55.9z"/>
		<path class="st3" d="M53.2,54.7c-0.4,0.3-0.9,0-0.9,0s-0.2-0.5,0.2-0.9c0.4-0.3,1.3-0.3,1.3-0.3S53.7,54.4,53.2,54.7z"/>
		<path class="st3" d="M60.2,59.3C59.9,60.1,59,60,59,60s-0.8-0.5-0.5-1.3c0.3-0.8,1.6-1.6,1.6-1.6S60.5,58.5,60.2,59.3z"/>
		<path class="st5" d="M79.9,16.6c-0.2,0.9-1.3,0.9-1.3,0.9S77.7,17,77.9,16c0.2-0.9,1.6-2,1.6-2S80.2,15.6,79.9,16.6z"/>
		<path class="st4" d="M81.8,32.6c-0.8,0.5-1.5-0.2-1.5-0.2s-0.3-1,0.5-1.4c0.8-0.5,2.3-0.3,2.3-0.3S82.6,32.1,81.8,32.6z"/>
		<path class="st4" d="M81,30.2c-0.9,0.1-1.3-0.8-1.3-0.8s0.1-1,1.1-1.1c0.9-0.1,2.2,0.7,2.2,0.7S81.9,30.1,81,30.2z"/>
		<path class="st4" d="M80.3,28c-0.8,0.3-1.3-0.5-1.3-0.5s-0.1-0.9,0.7-1.2c0.8-0.3,2.2,0.2,2.2,0.2S81.1,27.7,80.3,28z"/>
		<path class="st5" d="M77.7,17.4c0.3,0.9-0.5,1.5-0.5,1.5s-1,0.1-1.3-0.8c-0.3-0.9,0.2-2.4,0.2-2.4S77.3,16.5,77.7,17.4z"/>
		<path class="st5" d="M74.4,25c1.1,0,1.4,1.2,1.4,1.2s-0.3,1.2-1.4,1.2c-1.1,0-2.6-1.2-2.6-1.2S73.3,25,74.4,25z"/>
		<path class="st5" d="M74.5,21.8c1.1,0.2,1.2,1.5,1.2,1.5s-0.5,1.1-1.7,0.9c-1.1-0.2-2.4-1.7-2.4-1.7S73.4,21.6,74.5,21.8z"/>
		<path class="st5" d="M75.8,19.2c0.8,0.5,0.5,1.5,0.5,1.5s-0.8,0.7-1.6,0.2c-0.8-0.5-1.3-2.1-1.3-2.1S75,18.7,75.8,19.2z"/>
		<path class="st4" d="M79.4,18.1c-0.6,0.4-0.4,1.1-0.4,1.1s0.5,0.5,1.1,0.2c0.6-0.4,1-1.5,1-1.5S80,17.7,79.4,18.1z"/>
		<path class="st5" d="M81.2,25c-0.5,0.3-0.3,0.9-0.3,0.9s0.4,0.4,0.9,0.1c0.5-0.3,0.8-1.2,0.8-1.2S81.7,24.7,81.2,25z"/>
		<path class="st4" d="M78.9,24.1c-0.8,0.1-1,1-1,1s0.3,0.9,1.1,0.8c0.8-0.1,1.9-1,1.9-1S79.7,24.1,78.9,24.1z"/>
		<path class="st4" d="M78.6,22.1c-0.8-0.1-1.1,0.7-1.1,0.7s0.1,0.9,0.9,1c0.8,0.1,1.9-0.6,1.9-0.6S79.4,22.2,78.6,22.1z"/>
		<path class="st4" d="M78.9,19.9c-0.8,0-1,0.8-1,0.8s0.2,0.8,1,0.8c0.8,0,1.8-0.8,1.8-0.8S79.7,19.9,78.9,19.9z"/>
		<path class="st5" d="M106.5,41.6c-0.6,0-0.7-0.7-0.7-0.7s0.2-0.6,0.8-0.6c0.6,0,1.3,0.7,1.3,0.7S107.1,41.7,106.5,41.6z"/>
		<path class="st5" d="M106.4,39.8c-0.5,0-0.6-0.6-0.6-0.6s0.2-0.5,0.6-0.5c0.5,0,1.1,0.6,1.1,0.6S106.9,39.8,106.4,39.8z"/>
		<path class="st5" d="M106.5,38c-0.4,0.1-0.7-0.3-0.7-0.3s0-0.5,0.4-0.6c0.4-0.1,1.2,0.2,1.2,0.2S107,37.9,106.5,38z"/>
		<path class="st5" d="M106.3,43.8c-0.7-0.3-0.7-1.1-0.7-1.1s0.5-0.7,1.2-0.5c0.7,0.3,1.5,1.4,1.5,1.4S107,44,106.3,43.8z"/>
		<path class="st5" d="M75.2,27.8c0.9-0.4,1.6,0.4,1.6,0.4s0.2,1.1-0.7,1.5c-0.9,0.4-2.6,0.1-2.6,0.1S74.3,28.2,75.2,27.8z"/>
		<path class="st5" d="M105.4,45.8c-0.6-0.4-0.4-1.2-0.4-1.2s0.6-0.6,1.2-0.2c0.6,0.4,1.1,1.6,1.1,1.6S106.1,46.2,105.4,45.8z"/>
		<path class="st5" d="M104.2,47.7c-0.6-0.5-0.2-1.2-0.2-1.2s0.7-0.5,1.3,0.1c0.6,0.5,0.8,1.8,0.8,1.8S104.7,48.2,104.2,47.7z"/>
		<path class="st5" d="M102.5,49.5c-0.4-0.6,0.2-1.2,0.2-1.2s0.8-0.3,1.2,0.4c0.4,0.6,0.3,1.9,0.3,1.9S102.9,50.2,102.5,49.5z"/>
		<path class="st4" d="M45.5,17.1c-0.4,0.7-1.3,0.5-1.3,0.5s-0.7-0.6-0.3-1.4c0.4-0.7,1.7-1.3,1.7-1.3S45.9,16.4,45.5,17.1z"/>
		<path class="st5" d="M76.5,30.2c0.8-0.1,1.2,0.7,1.2,0.7s-0.1,0.9-0.9,1c-0.8,0.1-2.1-0.6-2.1-0.6S75.7,30.3,76.5,30.2z"/>
		<path class="st3" d="M73,20c0.8,0.1,0.9,1.1,0.9,1.1s-0.4,0.8-1.2,0.7c-0.8-0.1-1.8-1.2-1.8-1.2S72.2,19.8,73,20z"/>
		<path class="st3" d="M72.7,27.3c0.8,0,1.1,0.9,1.1,0.9s-0.2,0.9-1.1,0.9c-0.8,0-2-0.9-2-0.9S71.9,27.3,72.7,27.3z"/>
		<path class="st3" d="M69.9,25.3c1,0,1.3,1.1,1.3,1.1s-0.3,1.1-1.3,1c-1,0-2.3-1.1-2.3-1.1S68.9,25.3,69.9,25.3z"/>
		<path class="st3" d="M71.9,23.4c1,0.2,1.1,1.3,1.1,1.3s-0.4,1-1.4,0.8c-1-0.2-2.1-1.4-2.1-1.4S71,23.3,71.9,23.4z"/>
		<path class="st6" d="M97.2,23.3c-0.7,0-1,0.7-1,0.7s0.2,0.8,0.9,0.8c0.7,0,1.8-0.7,1.8-0.7S97.9,23.4,97.2,23.3z"/>
		<path class="st7" d="M92.4,24.4c0.8,0.8,1.8,0.2,1.8,0.2s0.7-1-0.1-1.8c-0.8-0.8-2.6-1.1-2.6-1.1S91.6,23.6,92.4,24.4z"/>
		<path class="st8" d="M96.7,25.8c-0.9-0.4-1.6,0.4-1.6,0.4s-0.2,1,0.7,1.5c0.9,0.4,2.5,0.1,2.5,0.1S97.6,26.2,96.7,25.8z"/>
		<path class="st7" d="M95.4,28.5c-0.7-0.7-1.7-0.1-1.7-0.1s-0.5,1,0.2,1.7c0.7,0.7,2.5,0.8,2.5,0.8S96.1,29.2,95.4,28.5z"/>
		<path class="st8" d="M93.1,30.7c-0.7-0.7-1.6-0.1-1.6-0.1s-0.5,0.9,0.2,1.6C92.4,32.9,94,33,94,33S93.8,31.3,93.1,30.7z"/>
		<path class="st6" d="M91,32.6c-0.5-0.9-1.5-0.6-1.5-0.6s-0.8,0.8-0.3,1.6c0.5,0.9,2.1,1.5,2.1,1.5S91.4,33.5,91,32.6z"/>
		<path class="st9" d="M88.6,34c-0.3-0.9-1.4-0.9-1.4-0.9s-0.9,0.6-0.6,1.5c0.3,0.9,1.7,1.9,1.7,1.9S88.9,34.9,88.6,34z"/>
		<path class="st3" d="M95.6,31.3c-0.5-0.5-1.2-0.1-1.2-0.1s-0.4,0.7,0.1,1.2c0.5,0.5,1.8,0.7,1.8,0.7S96.1,31.8,95.6,31.3z"/>
		<path class="st3" d="M97.6,28.3c-0.7-0.3-1.3,0.4-1.3,0.4s-0.1,0.9,0.6,1.2c0.7,0.3,2.1,0,2.1,0S98.4,28.6,97.6,28.3z"/>
		<path class="st3" d="M97.8,31.2c-0.5-0.4-1,0-1,0s-0.3,0.6,0.2,1c0.5,0.4,1.5,0.4,1.5,0.4S98.3,31.6,97.8,31.2z"/>
		<path class="st3" d="M93.2,33.3c-0.6-0.6-1.3-0.1-1.3-0.1s-0.4,0.8,0.1,1.3c0.6,0.6,1.9,0.7,1.9,0.7S93.8,33.9,93.2,33.3z"/>
		<path class="st3" d="M98.8,25.3c-0.6-0.2-1,0.3-1,0.3s-0.1,0.7,0.5,0.9c0.6,0.2,1.6-0.1,1.6-0.1S99.4,25.5,98.8,25.3z"/>
		<path class="st10" d="M91,27c0.9,0.7,1.9-0.1,1.9-0.1s0.5-1.2-0.5-1.8c-0.9-0.7-2.9-0.6-2.9-0.6S90,26.3,91,27z"/>
		<path class="st7" d="M88.4,28.8c0.8,0.8,1.9,0.2,1.9,0.2s0.6-1.1-0.2-1.9c-0.8-0.8-2.8-1-2.8-1S87.6,28,88.4,28.8z"/>
		<path class="st8" d="M85.6,30c0.4,1,1.5,0.8,1.5,0.8s0.9-0.7,0.5-1.7c-0.4-1-2-1.9-2-1.9S85.2,29,85.6,30z"/>
		<path class="st6" d="M83.1,30.9c0.2,0.9,1.2,0.9,1.2,0.9s0.9-0.4,0.7-1.3c-0.2-0.9-1.4-1.9-1.4-1.9S82.9,30,83.1,30.9z"/>
		<path class="st8" d="M93.4,21.5c0.5,0.9,1.6,0.6,1.6,0.6s0.8-0.8,0.3-1.7c-0.5-0.9-2.1-1.5-2.1-1.5S92.9,20.6,93.4,21.5z"/>
		<path class="st4" d="M99.4,37.1c0.6,0.4,0.3,1.1,0.3,1.1s-0.6,0.5-1.2,0.1c-0.6-0.4-0.9-1.6-0.9-1.6S98.8,36.7,99.4,37.1z"/>
		<path class="st4" d="M98.1,38.6c0.4,0.7-0.3,1.3-0.3,1.3s-0.8,0.2-1.2-0.5c-0.4-0.7-0.1-2-0.1-2S97.8,37.9,98.1,38.6z"/>
		<path class="st4" d="M96.3,40c0.1,0.8-0.8,1.1-0.8,1.1s-0.9-0.2-1-1c-0.1-0.8,0.7-2,0.7-2S96.3,39.2,96.3,40z"/>
		<path class="st4" d="M93.9,40.5c0.3,0.9-0.6,1.4-0.6,1.4s-1,0-1.3-0.9c-0.3-0.9,0.3-2.4,0.3-2.4S93.7,39.6,93.9,40.5z"/>
		<path class="st5" d="M91.5,41.5C91.9,42.3,91,43,91,43s-1,0.2-1.4-0.7c-0.4-0.9,0-2.4,0-2.4S91.1,40.6,91.5,41.5z"/>
		<path class="st3" d="M77.8,14.6c-0.2,0.6-1,0.5-1,0.5s-0.6-0.4-0.4-1c0.2-0.6,1.2-1.2,1.2-1.2S78,14,77.8,14.6z"/>
		<path class="st3" d="M82.2,15.7c0,0.7-0.7,0.9-0.7,0.9s-0.7-0.1-0.8-0.8c0-0.7,0.6-1.6,0.6-1.6S82.2,15,82.2,15.7z"/>
		<path class="st3" d="M83.8,14.1c0.4,0.6-0.1,1.1-0.1,1.1s-0.7,0.2-1.1-0.3c-0.4-0.6-0.3-1.7-0.3-1.7S83.4,13.5,83.8,14.1z"/>
		<path class="st3" d="M74.3,13.1c-0.3,0.6-1,0.4-1,0.4s-0.6-0.5-0.3-1.1c0.3-0.6,1.3-1.1,1.3-1.1S74.6,12.5,74.3,13.1z"/>
		<path class="st4" d="M100.7,35.6c0.4,0.6-0.2,1.2-0.2,1.2s-0.8,0.2-1.1-0.4c-0.4-0.6-0.2-1.8-0.2-1.8S100.3,34.9,100.7,35.6z"/>
		<path class="st3" d="M54,17.7c-0.5,0.8-1.5,0.5-1.5,0.5s-0.7-0.7-0.2-1.5c0.5-0.8,2-1.3,2-1.3S54.5,16.9,54,17.7z"/>
		<path class="st5" d="M59.1,29c-0.7,0.2-0.6,1-0.6,1s0.4,0.7,1.1,0.4c0.7-0.2,1.4-1.2,1.4-1.2S59.7,28.8,59.1,29z"/>
		<path class="st5" d="M60.1,30.8c-0.8,0.1-0.8,1-0.8,1s0.4,0.8,1.1,0.6c0.8-0.1,1.7-1.1,1.7-1.1S60.9,30.7,60.1,30.8z"/>
		<path class="st5" d="M61,33c-0.8-0.2-1.2,0.6-1.2,0.6s0,0.9,0.8,1.1c0.8,0.2,2.1-0.4,2.1-0.4S61.8,33.2,61,33z"/>
		<path class="st5" d="M60.6,35.2c-0.9-0.2-1.4,0.7-1.4,0.7s0,1,0.9,1.3c0.9,0.2,2.4-0.4,2.4-0.4S61.5,35.4,60.6,35.2z"/>
		<path class="st5" d="M59.9,37.7c-0.8-0.4-1.5,0.3-1.5,0.3s-0.3,1,0.6,1.5c0.8,0.5,2.4,0.2,2.4,0.2S60.8,38.2,59.9,37.7z"/>
		<path class="st5" d="M59.5,40.4c-0.8-0.5-1.6,0.2-1.6,0.2s-0.4,1,0.4,1.5c0.8,0.5,2.4,0.4,2.4,0.4S60.3,40.9,59.5,40.4z"/>
		<path class="st5" d="M57.3,27.6c-0.4,0.6,0.1,1.2,0.1,1.2s0.7,0.3,1.1-0.3c0.4-0.6,0.3-1.8,0.3-1.8S57.7,27,57.3,27.6z"/>
		<path class="st5" d="M84.9,26.6c0.3,0.9-0.5,1.5-0.5,1.5s-1,0.1-1.4-0.7c-0.3-0.9,0.1-2.4,0.1-2.4S84.6,25.7,84.9,26.6z"/>
		<path class="st6" d="M86.5,25c0.5,0.8-0.2,1.5-0.2,1.5s-1,0.3-1.5-0.4c-0.5-0.8-0.4-2.4-0.4-2.4S86,24.2,86.5,25z"/>
		<path class="st3" d="M87.8,21c0.5,0.5,0.1,1.1,0.1,1.1s-0.6,0.4-1.1-0.1c-0.5-0.5-0.7-1.6-0.7-1.6S87.3,20.5,87.8,21z"/>
		<path class="st3" d="M86,22.5c0.3,0.6-0.3,1.1-0.3,1.1s-0.7,0.1-1-0.5c-0.3-0.6,0.1-1.7,0.1-1.7S85.7,21.8,86,22.5z"/>
		<path class="st5" d="M81.1,22.7c-0.7,0.1-1-0.7-1-0.7s0.1-0.8,0.8-0.9c0.7-0.1,1.8,0.6,1.8,0.6S81.8,22.6,81.1,22.7z"/>
		<path class="st5" d="M81.5,20.5c-0.7,0.1-1-0.7-1-0.7s0.1-0.8,0.8-0.9c0.7-0.1,1.8,0.6,1.8,0.6S82.2,20.4,81.5,20.5z"/>
		<path class="st5" d="M81.5,24.6c-0.7,0.1-1-0.7-1-0.7s0.1-0.8,0.8-0.9c0.7-0.1,1.8,0.6,1.8,0.6S82.3,24.5,81.5,24.6z"/>
		<path class="st8" d="M88.7,23.7c0.6,0.8,0,1.7,0,1.7s-1,0.5-1.7-0.3c-0.6-0.8-0.6-2.6-0.6-2.6S88,22.9,88.7,23.7z"/>
		<path class="st8" d="M90.8,22.1c0.7,0.8,0,1.7,0,1.7s-1,0.5-1.7-0.3c-0.7-0.8-0.7-2.5-0.7-2.5S90.1,21.3,90.8,22.1z"/>
		<path class="st6" d="M92.2,19.7c0.6,0.6,0.2,1.4,0.2,1.4S91.6,21.6,91,21c-0.6-0.6-0.8-2-0.8-2S91.6,19.1,92.2,19.7z"/>
		<path class="st3" d="M100.7,41.2c-0.6-0.2-0.5-0.9-0.5-0.9s0.4-0.6,1-0.4c0.6,0.2,1.2,1.2,1.2,1.2S101.4,41.4,100.7,41.2z"/>
		<path class="st3" d="M101.2,39.3c-0.6-0.2-0.5-0.9-0.5-0.9s0.4-0.5,0.9-0.3c0.6,0.2,1.1,1.1,1.1,1.1S101.8,39.5,101.2,39.3z"/>
		<path class="st5" d="M101.9,37.5c-0.6,0-0.8-0.6-0.8-0.6s0.1-0.6,0.7-0.6c0.6,0,1.4,0.6,1.4,0.6S102.5,37.5,101.9,37.5z"/>
		<path class="st3" d="M99.5,42.8c-0.6-0.4-0.3-1.3-0.3-1.3s0.6-0.6,1.3-0.1c0.6,0.4,1.1,1.7,1.1,1.7S100.1,43.3,99.5,42.8z"/>
		<path class="st3" d="M97.8,44c-0.5-0.6-0.1-1.3-0.1-1.3s0.7-0.4,1.3,0.2c0.5,0.6,0.6,1.9,0.6,1.9S98.3,44.6,97.8,44z"/>
		<path class="st3" d="M95.9,44.8c-0.4-0.6,0.2-1.2,0.2-1.2s0.8-0.3,1.2,0.4c0.4,0.6,0.3,1.9,0.3,1.9S96.3,45.5,95.9,44.8z"/>
		<path class="st3" d="M93.9,45.3c-0.2-0.7,0.5-1.2,0.5-1.2s0.8,0,1.1,0.7c0.2,0.7-0.3,1.9-0.3,1.9S94.1,46,93.9,45.3z"/>
		<path class="st5" d="M98.1,35.2c0.4,0.5-0.1,1-0.1,1s-0.6,0.3-1-0.3c-0.4-0.5-0.3-1.6-0.3-1.6S97.7,34.7,98.1,35.2z"/>
		<path class="st5" d="M96.4,36c0.3,0.7-0.4,1.2-0.4,1.2s-0.8,0.1-1.1-0.6c-0.3-0.7,0.1-2,0.1-2S96.2,35.3,96.4,36z"/>
		<path class="st4" d="M102.4,34.7c-0.2,0.7-0.9,0.7-0.9,0.7s-0.7-0.4-0.5-1.1c0.2-0.7,1.1-1.5,1.1-1.5S102.5,34.1,102.4,34.7z"/>
		<path class="st4" d="M106.3,36.3c-0.1,0.5-0.7,0.5-0.7,0.5s-0.5-0.3-0.4-0.8c0.1-0.5,0.8-1.1,0.8-1.1S106.4,35.8,106.3,36.3z"/>
		<path class="st5" d="M94.6,37.6c0.2,0.9-0.7,1.3-0.7,1.3s-1-0.1-1.1-0.9c-0.2-0.9,0.5-2.2,0.5-2.2S94.4,36.7,94.6,37.6z"/>
		<path class="st4" d="M104.1,38.2c0.6,0.1,0.6,0.8,0.6,0.8s-0.3,0.6-0.9,0.5c-0.6-0.1-1.3-0.9-1.3-0.9S103.5,38,104.1,38.2z"/>
		<path class="st4" d="M103.6,39.9c0.6,0.2,0.6,0.9,0.6,0.9s-0.3,0.6-0.9,0.4c-0.6-0.2-1.2-1-1.2-1S103,39.7,103.6,39.9z"/>
		<path class="st4" d="M102.2,38.7c0.5,0.1,0.5,0.7,0.5,0.7s-0.3,0.5-0.8,0.3c-0.5-0.1-1-0.9-1-0.9S101.8,38.5,102.2,38.7z"/>
		<path class="st4" d="M101.2,39.8c0.5,0.1,0.5,0.7,0.5,0.7s-0.3,0.5-0.8,0.3c-0.5-0.1-1-0.9-1-0.9S100.8,39.7,101.2,39.8z"/>
		<path class="st4" d="M100.4,40.9c0.5,0.1,0.5,0.7,0.5,0.7s-0.3,0.5-0.8,0.3c-0.5-0.1-1-0.9-1-0.9S99.9,40.8,100.4,40.9z"/>
		<path class="st4" d="M103.1,36.9c0.5,0.1,0.5,0.7,0.5,0.7s-0.3,0.5-0.8,0.3c-0.5-0.1-1-0.9-1-0.9S102.7,36.8,103.1,36.9z"/>
		<path class="st4" d="M102.2,43.5c0.4,0.7-0.2,1.2-0.2,1.2s-0.8,0.2-1.2-0.5c-0.4-0.7-0.2-2-0.2-2S101.8,42.9,102.2,43.5z"/>
		<path class="st4" d="M100.5,44.7c0.5,0.6,0,1.3,0,1.3s-0.7,0.4-1.3-0.2c-0.5-0.6-0.6-1.9-0.6-1.9S100,44.1,100.5,44.7z"/>
		<path class="st4" d="M98.6,45.9c0.2,0.7-0.5,1.2-0.5,1.2s-0.8,0.1-1.1-0.7c-0.2-0.7,0.2-2,0.2-2S98.3,45.1,98.6,45.9z"/>
		<path class="st4" d="M103,41.5c0.6,0.3,0.4,1.1,0.4,1.1s-0.5,0.6-1.1,0.2c-0.6-0.3-1.1-1.5-1.1-1.5S102.4,41.2,103,41.5z"/>
		<path class="st4" d="M105,36.7c0.5,0.3,0.2,0.9,0.2,0.9s-0.5,0.4-1,0.1c-0.5-0.3-0.7-1.3-0.7-1.3S104.6,36.3,105,36.7z"/>
		<path class="st4" d="M55.2,14.8c1.1,0.1,1.2,1.4,1.2,1.4s-0.5,1.1-1.6,1c-1.1-0.1-2.4-1.5-2.4-1.5S54.1,14.7,55.2,14.8z"/>
		<path class="st5" d="M52.9,12.7c1,0.3,1,1.4,1,1.4s-0.6,1-1.5,0.7c-1-0.3-2-1.7-2-1.7S51.9,12.4,52.9,12.7z"/>
		<g>
			<path class="st5" d="M87.7,17.2c-0.7,0-0.8-0.7-0.8-0.7s0.2-0.7,0.9-0.7c0.7,0,1.5,0.8,1.5,0.8S88.4,17.2,87.7,17.2z"/>
			<path class="st5" d="M86.6,18.8c-0.6-0.2-0.5-1-0.5-1s0.4-0.6,1-0.4c0.6,0.2,1.2,1.2,1.2,1.2S87.2,19,86.6,18.8z"/>
			<path class="st1" d="M83.6,22.4l-0.3-0.7c0,0,0.7-3.8,3.6-5.8c0,0-2.7,2.8-2.8,5.8L83.6,22.4z"/>
			<path class="st4" d="M84.6,16.5c0.4,0.5,0,1.1,0,1.1s-0.6,0.3-1.1-0.2c-0.4-0.5-0.5-1.6-0.5-1.6S84.1,16,84.6,16.5z"/>
			<path class="st4" d="M86,15.1c0.3,0.6-0.2,1.1-0.2,1.1s-0.7,0.2-1-0.4c-0.3-0.6-0.2-1.7-0.2-1.7S85.7,14.5,86,15.1z"/>
			<path class="st4" d="M83.5,18.1c0.6,0.7,0.1,1.5,0.1,1.5s-0.9,0.5-1.5-0.2c-0.6-0.7-0.8-2.3-0.8-2.3S82.9,17.5,83.5,18.1z"/>
			<path class="st5" d="M85.7,20.9c-0.8-0.3-0.7-1.2-0.7-1.2s0.5-0.8,1.3-0.5c0.8,0.3,1.6,1.6,1.6,1.6S86.5,21.2,85.7,20.9z"/>
		</g>
		<g>
			<path class="st5" d="M99.7,28.6c0.4,0.3,0.8,0,0.8,0s0.3-0.5-0.1-0.8c-0.4-0.3-1.2-0.4-1.2-0.4S99.4,28.3,99.7,28.6z"/>
			<path class="st5" d="M99.5,30.1c0.5,0.2,0.8-0.2,0.8-0.2s0.1-0.5-0.4-0.7c-0.5-0.2-1.3,0-1.3,0S99.1,29.9,99.5,30.1z"/>
			<path class="st1" d="M99.3,33.5l0.5-0.2c0,0,1.6-2.4,1-4.9c0,0,0,2.9-1.4,4.5L99.3,33.5z"/>
			<path class="st4" d="M101.8,29.9c-0.5,0-0.6,0.6-0.6,0.6s0.2,0.5,0.7,0.5c0.5,0,1.1-0.6,1.1-0.6S102.3,29.8,101.8,29.9z"/>
			<path class="st4" d="M101.8,28.4c-0.5,0.1-0.4,0.7-0.4,0.7s0.3,0.5,0.7,0.3c0.5-0.1,1-0.8,1-0.8S102.2,28.3,101.8,28.4z"/>
			<path class="st4" d="M101.5,31.3c-0.7,0-0.8,0.8-0.8,0.8s0.2,0.7,0.9,0.7c0.7,0,1.6-0.8,1.6-0.8S102.2,31.2,101.5,31.3z"/>
			<path class="st5" d="M98.9,31.6c0.6,0.3,1-0.3,1-0.3s0.1-0.7-0.5-0.9c-0.6-0.3-1.6,0-1.6,0S98.4,31.4,98.9,31.6z"/>
		</g>
		<path class="st3" d="M92.7,19.2c0.2,0.7-0.4,1.1-0.4,1.1s-0.8,0.1-1-0.6c-0.2-0.7,0.2-1.9,0.2-1.9S92.4,18.5,92.7,19.2z"/>
		<path class="st5" d="M68.4,12.7c0.5,0.3,1-0.1,1-0.1s0.2-0.6-0.3-0.9c-0.5-0.3-1.5-0.3-1.5-0.3S67.9,12.3,68.4,12.7z"/>
		<path class="st3" d="M65.8,12.6c0.5,0.3,1-0.1,1-0.1s0.2-0.6-0.3-0.9C66,11.2,65,11.3,65,11.3S65.3,12.2,65.8,12.6z"/>
		<path class="st5" d="M68,15c0.8,0.2,1.2-0.5,1.2-0.5s0-0.9-0.7-1.1c-0.8-0.2-2,0.3-2,0.3S67.3,14.8,68,15z"/>
		<path class="st1" d="M68.4,20.4l0.8-0.4c0,0,2-4.1,0.6-7.9c0,0,0.6,4.5-1.3,7.4L68.4,20.4z"/>
		<path class="st4" d="M71.5,14.2c-0.8,0.2-0.8,1-0.8,1s0.4,0.8,1.1,0.6c0.8-0.2,1.6-1.2,1.6-1.2S72.3,14,71.5,14.2z"/>
		<path class="st4" d="M71.1,12c-0.6,0.3-0.5,1-0.5,1s0.4,0.6,1,0.3c0.6-0.3,1.1-1.3,1.1-1.3S71.7,11.7,71.1,12z"/>
		<path class="st4" d="M71.4,16.5c-1.1,0.2-1.1,1.4-1.1,1.4s0.5,1.1,1.6,0.9c1.1-0.2,2.3-1.6,2.3-1.6S72.5,16.2,71.4,16.5z"/>
		<path class="st5" d="M67.4,17.5c1,0.3,1.5-0.7,1.5-0.7s0-1.1-0.9-1.4c-1-0.3-2.6,0.4-2.6,0.4S66.5,17.3,67.4,17.5z"/>
		<g>
			<path class="st5" d="M84.5,42.1c-0.4-0.6,0.1-1.3,0.1-1.3s0.8-0.3,1.2,0.4c0.4,0.6,0.3,2,0.3,2S85,42.8,84.5,42.1z"/>
			<path class="st5" d="M82.3,42.1c-0.2-0.8,0.5-1.2,0.5-1.2s0.9,0,1.1,0.7c0.2,0.8-0.3,2-0.3,2S82.5,42.9,82.3,42.1z"/>
			<path class="st1" d="M74.6,42.6l0.4-0.8c0,0,4.4-2.8,10.2-1.4c0,0-6.4-0.6-10.4,2.4L74.6,42.6z"/>
			<path class="st4" d="M83.1,38.6c-0.2,0.8-1,0.8-1,0.8s-0.8-0.4-0.6-1.1c0.2-0.8,1.2-1.6,1.2-1.6S83.3,37.9,83.1,38.6z"/>
			<path class="st4" d="M85.4,39c-0.3,0.7-1.2,0.5-1.2,0.5s-0.7-0.5-0.3-1.2c0.3-0.7,1.5-1.3,1.5-1.3S85.7,38.3,85.4,39z"/>
			<path class="st4" d="M86.9,40.5c-0.7,0.3-1.2-0.3-1.2-0.3s-0.2-0.8,0.5-1.2c0.7-0.3,2,0,2,0S87.6,40.2,86.9,40.5z"/>
			<path class="st4" d="M80.8,38.8c-0.2,1.1-1.4,1.1-1.4,1.1s-1.1-0.5-0.8-1.6c0.2-1.1,1.7-2.3,1.7-2.3S81,37.7,80.8,38.8z"/>
			<path class="st5" d="M79.7,42.7c-0.3-1,0.7-1.5,0.7-1.5s1.1,0,1.4,0.9c0.3,1-0.4,2.6-0.4,2.6S80,43.7,79.7,42.7z"/>
		</g>
		<g>
			<path class="st5" d="M100.3,55.6c-0.3-0.6,0.2-1.1,0.2-1.1s0.7-0.2,1,0.4c0.3,0.6,0.2,1.7,0.2,1.7S100.6,56.2,100.3,55.6z"/>
			<path class="st5" d="M98.3,55.5c-0.1-0.7,0.5-1,0.5-1s0.7,0,0.9,0.7c0.1,0.7-0.4,1.7-0.4,1.7S98.5,56.1,98.3,55.5z"/>
			<path class="st3" d="M98.1,57.4c-0.1-0.5,0.4-0.7,0.4-0.7s0.5,0,0.6,0.5c0.1,0.5-0.3,1.2-0.3,1.2S98.2,57.9,98.1,57.4z"/>
			<path class="st3" d="M96.2,58.3c-0.3-0.4,0-0.8,0-0.8s0.5-0.2,0.8,0.2c0.3,0.4,0.3,1.3,0.3,1.3S96.5,58.7,96.2,58.3z"/>
			<path class="st1" d="M85.6,59.5v-0.4c-0.5,0.3,7.9-7.3,15.4-4.9c0,0-7-1.8-14.9,6.5L85.6,59.5z"/>
			<path class="st4" d="M99.2,52.6c-0.2,0.6-0.9,0.6-0.9,0.6s-0.6-0.4-0.5-1c0.2-0.6,1.1-1.3,1.1-1.3S99.4,51.9,99.2,52.6z"/>
			<path class="st5" d="M95.8,50.5c-0.2,0.6-0.9,0.6-0.9,0.6s-0.6-0.4-0.5-1c0.2-0.6,1.1-1.3,1.1-1.3S96,49.9,95.8,50.5z"/>
			<path class="st5" d="M98.6,50.5c-0.1,0.5-0.7,0.5-0.7,0.5s-0.5-0.3-0.3-0.7c0.1-0.5,0.8-1,0.8-1S98.7,50,98.6,50.5z"/>
			<path class="st5" d="M100.4,51.1c-0.1,0.4-0.5,0.4-0.5,0.4s-0.4-0.2-0.3-0.6c0.1-0.4,0.6-0.8,0.6-0.8S100.5,50.7,100.4,51.1z"/>
			<path class="st4" d="M101.1,53c-0.3,0.6-1,0.4-1,0.4s-0.5-0.5-0.2-1.1c0.3-0.6,1.4-1,1.4-1S101.5,52.4,101.1,53z"/>
			<path class="st4" d="M97.3,52.6C97,53.5,96,53.4,96,53.4s-0.9-0.5-0.6-1.4c0.2-0.9,1.5-1.9,1.5-1.9S97.5,51.7,97.3,52.6z"/>
			<path class="st4" d="M94.7,52.7c0,0.9-1,1.2-1,1.2s-1-0.2-1-1.2c0-0.9,0.9-2.2,0.9-2.2S94.7,51.8,94.7,52.7z"/>
			<path class="st4" d="M92.3,53.4c0.3,0.9-0.5,1.5-0.5,1.5s-1,0.1-1.4-0.7c-0.3-0.9,0.1-2.4,0.1-2.4S91.9,52.5,92.3,53.4z"/>
			<path class="st5" d="M96.1,55.9c-0.2-0.8,0.7-1.3,0.7-1.3s0.9,0,1.1,0.9c0.2,0.8-0.5,2.2-0.5,2.2S96.3,56.7,96.1,55.9z"/>
			<path class="st5" d="M93.9,56.7c-0.3-0.8,0.5-1.3,0.5-1.3s0.9-0.1,1.2,0.7c0.3,0.8-0.2,2.2-0.2,2.2S94.1,57.5,93.9,56.7z"/>
			<path class="st5" d="M91.8,57.6c-0.2-0.8,0.7-1.3,0.7-1.3s0.9,0,1.1,0.9c0.2,0.8-0.5,2.2-0.5,2.2S92,58.5,91.8,57.6z"/>
		</g>
		<path class="st5" d="M33,43.3c-0.1,1-1.2,1.1-1.2,1.1s-1-0.4-0.9-1.4c0.1-1,1.3-2.1,1.3-2.1S33.1,42.3,33,43.3z"/>
		<path class="st5" d="M35.9,44.2c-0.2,1-1.3,1-1.3,1s-0.9-0.5-0.7-1.5c0.2-1,1.6-2,1.6-2S36.1,43.2,35.9,44.2z"/>
		<path class="st5" d="M38.2,46.7c-0.9,0.7-1.8,0-1.8,0s-0.5-1.1,0.3-1.8c0.9-0.7,2.8-0.8,2.8-0.8S39.1,46,38.2,46.7z"/>
		<g>
			<path class="st5" d="M64.5,34.6c0.3-0.6-0.2-1.1-0.2-1.1s-0.7-0.2-1,0.4c-0.3,0.6-0.2,1.7-0.2,1.7S64.2,35.2,64.5,34.6z"/>
			<path class="st5" d="M66.5,34.5c0.1-0.7-0.5-1-0.5-1s-0.7,0-0.9,0.7c-0.1,0.7,0.4,1.7,0.4,1.7S66.3,35.1,66.5,34.5z"/>
			<path class="st3" d="M66.7,36.4c0.1-0.5-0.4-0.7-0.4-0.7s-0.5,0-0.6,0.5c-0.1,0.5,0.3,1.2,0.3,1.2S66.6,36.9,66.7,36.4z"/>
			<path class="st3" d="M68.6,37.3c0.3-0.4,0-0.8,0-0.8s-0.5-0.2-0.8,0.2c-0.3,0.4-0.3,1.3-0.3,1.3S68.3,37.7,68.6,37.3z"/>
			<path class="st1" d="M76.6,37.2v-0.4c0.5,0.3-6.1-5.7-12.8-3.5c0,0,5.8-1.9,12.3,5.1L76.6,37.2z"/>
			<path class="st4" d="M65.6,31.6c0.2,0.6,0.9,0.6,0.9,0.6s0.6-0.4,0.5-1c-0.2-0.6-1.1-1.3-1.1-1.3S65.4,30.9,65.6,31.6z"/>
			<path class="st5" d="M69,29.5c0.2,0.6,0.9,0.6,0.9,0.6s0.6-0.4,0.5-1c-0.2-0.6-1.1-1.3-1.1-1.3S68.8,28.9,69,29.5z"/>
			<path class="st5" d="M66.2,29.5c0.1,0.5,0.7,0.5,0.7,0.5s0.5-0.3,0.3-0.8c-0.1-0.5-0.8-1-0.8-1S66.1,29,66.2,29.5z"/>
			<path class="st5" d="M64.4,30.1c0.1,0.4,0.5,0.4,0.5,0.4s0.4-0.2,0.3-0.6c-0.1-0.4-0.6-0.8-0.6-0.8S64.3,29.7,64.4,30.1z"/>
			<path class="st4" d="M63.7,32c0.3,0.6,1,0.4,1,0.4s0.5-0.5,0.2-1.1c-0.3-0.6-1.4-1-1.4-1S63.4,31.4,63.7,32z"/>
			<path class="st4" d="M67.5,31.6c0.2,0.9,1.3,0.9,1.3,0.9s0.9-0.5,0.6-1.4c-0.2-0.9-1.5-1.9-1.5-1.9S67.3,30.7,67.5,31.6z"/>
			<path class="st4" d="M70.1,31.7c0,0.9,1,1.2,1,1.2s1-0.2,1-1.2c0-0.9-0.9-2.2-0.9-2.2S70.1,30.8,70.1,31.7z"/>
			<path class="st4" d="M72.6,32.4c-0.3,0.9,0.5,1.5,0.5,1.5s1,0.1,1.4-0.7c0.3-0.9-0.1-2.4-0.1-2.4S72.9,31.5,72.6,32.4z"/>
			<path class="st5" d="M68.7,34.9c0.2-0.8-0.7-1.3-0.7-1.3s-0.9,0-1.1,0.9c-0.2,0.8,0.5,2.2,0.5,2.2S68.5,35.7,68.7,34.9z"/>
			<path class="st5" d="M71,35.7c0.3-0.8-0.5-1.3-0.5-1.3s-0.9-0.1-1.2,0.7c-0.3,0.8,0.2,2.2,0.2,2.2S70.7,36.5,71,35.7z"/>
			<path class="st5" d="M73,36.6c0.2-0.8-0.7-1.3-0.7-1.3s-0.9,0-1.1,0.9c-0.2,0.8,0.5,2.2,0.5,2.2S72.8,37.5,73,36.6z"/>
		</g>
		<g>
			<path class="st4" d="M67,39.3c-0.4,0.6-1.1,0.3-1.1,0.3s-0.5-0.5-0.1-1.1c0.4-0.6,1.4-0.9,1.4-0.9S67.3,38.7,67,39.3z"/>
			<path class="st4" d="M67.8,41.1c-0.5,0.4-1.1,0-1.1,0s-0.3-0.7,0.2-1.1c0.5-0.4,1.7-0.4,1.7-0.4S68.3,40.7,67.8,41.1z"/>
			<path class="st5" d="M69.6,40.4c-0.4,0.3-0.8,0-0.8,0s-0.2-0.5,0.2-0.8c0.4-0.3,1.2-0.3,1.2-0.3S69.9,40.2,69.6,40.4z"/>
			<path class="st5" d="M71.2,41.8c-0.2,0.5-0.8,0.4-0.8,0.4s-0.4-0.3-0.2-0.8c0.2-0.5,1-0.9,1-0.9S71.4,41.3,71.2,41.8z"/>
			<path class="st1" d="M77.1,50.7l-0.4,0.2c0.5,0.3-10.1-3.7-11.3-11.5c0,0,1.6,7.1,12.6,10.4L77.1,50.7z"/>
			<path class="st4" d="M64.7,41.6c0.7-0.1,1,0.5,1,0.5s0,0.7-0.7,0.9c-0.7,0.1-1.7-0.4-1.7-0.4S64.1,41.8,64.7,41.6z"/>
			<path class="st5" d="M64.5,45.6c0.7-0.1,1,0.5,1,0.5s0,0.7-0.7,0.9c-0.7,0.1-1.7-0.4-1.7-0.4S63.8,45.7,64.5,45.6z"/>
			<path class="st5" d="M63.2,43.2c0.5-0.1,0.7,0.4,0.7,0.4s0,0.5-0.5,0.6c-0.5,0.1-1.2-0.3-1.2-0.3S62.7,43.3,63.2,43.2z"/>
			<path class="st5" d="M62.9,41.3c0.4-0.1,0.6,0.3,0.6,0.3s0,0.4-0.4,0.5c-0.4,0.1-1-0.2-1-0.2S62.5,41.3,62.9,41.3z"/>
			<path class="st4" d="M64.3,39.7c0.7,0,0.8,0.7,0.8,0.7s-0.2,0.7-0.9,0.7c-0.7,0-1.5-0.7-1.5-0.7S63.6,39.7,64.3,39.7z"/>
			<path class="st4" d="M65.6,43.4c0.9-0.2,1.4,0.7,1.4,0.7s0,1-1,1.2c-0.9,0.2-2.4-0.5-2.4-0.5S64.7,43.6,65.6,43.4z"/>
			<path class="st4" d="M66.9,45.6c0.8-0.4,1.5,0.3,1.5,0.3s0.3,1-0.6,1.4c-0.8,0.4-2.4,0.2-2.4,0.2S66.1,46,66.9,45.6z"/>
			<path class="st4" d="M68.7,47.5c0.6-0.7,1.5-0.2,1.5-0.2s0.6,0.8,0,1.5c-0.6,0.7-2.2,1-2.2,1S68,48.2,68.7,47.5z"/>
			<path class="st4" d="M69.1,42.9c-0.7,0.5-1.4,0-1.4,0S67.3,42,68,41.5c0.7-0.5,2.1-0.6,2.1-0.6S69.8,42.4,69.1,42.9z"/>
			<path class="st4" d="M70.8,44.6c-0.6,0.6-1.4,0.2-1.4,0.2s-0.5-0.8,0.1-1.4c0.6-0.6,2.1-0.8,2.1-0.8S71.4,43.9,70.8,44.6z"/>
			<path class="st4" d="M72.6,46c-0.7,0.5-1.4,0-1.4,0s-0.4-0.9,0.3-1.4c0.7-0.5,2.1-0.6,2.1-0.6S73.3,45.4,72.6,46z"/>
		</g>
		<g>
			<path class="st5" d="M48.3,47.4c0.3-0.5-0.2-0.9-0.2-0.9s-0.6-0.2-0.9,0.3c-0.3,0.5-0.2,1.5-0.2,1.5S48,47.9,48.3,47.4z"/>
			<path class="st5" d="M49.9,47.3c0.1-0.6-0.4-0.8-0.4-0.8s-0.6,0-0.7,0.6c-0.1,0.6,0.3,1.4,0.3,1.4S49.8,47.9,49.9,47.3z"/>
			<path class="st3" d="M50.1,49c0.1-0.4-0.3-0.6-0.3-0.6s-0.4,0-0.5,0.4c-0.1,0.4,0.2,1,0.2,1S50.1,49.4,50.1,49z"/>
			<path class="st3" d="M51.8,49.7c0.3-0.3,0-0.7,0-0.7s-0.4-0.2-0.7,0.1c-0.3,0.3-0.3,1.1-0.3,1.1S51.5,50.1,51.8,49.7z"/>
			<path class="st1" d="M60.9,50.8v-0.4c0.4,0.3-6.8-6.3-13.2-4.2c0,0,6-1.6,12.8,5.6L60.9,50.8z"/>
			<path class="st4" d="M49.2,44.8c0.2,0.6,0.8,0.5,0.8,0.5s0.5-0.3,0.4-0.9c-0.2-0.6-0.9-1.1-0.9-1.1S49,44.3,49.2,44.8z"/>
			<path class="st5" d="M52.1,43.1c0.2,0.6,0.8,0.5,0.8,0.5s0.5-0.3,0.4-0.9c-0.2-0.6-0.9-1.1-0.9-1.1S52,42.5,52.1,43.1z"/>
			<path class="st5" d="M49.7,43c0.1,0.4,0.6,0.4,0.6,0.4s0.4-0.2,0.3-0.6c-0.1-0.4-0.7-0.8-0.7-0.8S49.6,42.6,49.7,43z"/>
			<path class="st5" d="M48.2,43.5c0.1,0.3,0.5,0.3,0.5,0.3s0.3-0.2,0.2-0.5c-0.1-0.3-0.5-0.7-0.5-0.7S48.1,43.2,48.2,43.5z"/>
			<path class="st4" d="M47.5,45.2c0.3,0.5,0.9,0.4,0.9,0.4s0.5-0.4,0.2-0.9c-0.3-0.5-1.2-0.9-1.2-0.9S47.3,44.7,47.5,45.2z"/>
			<path class="st4" d="M50.9,44.8c0.2,0.8,1.1,0.8,1.1,0.8s0.8-0.4,0.6-1.2c-0.2-0.8-1.3-1.6-1.3-1.6S50.6,44,50.9,44.8z"/>
			<path class="st4" d="M53,44.9c0,0.8,0.8,1,0.8,1s0.9-0.2,0.9-1c0-0.8-0.8-1.9-0.8-1.9S53.1,44.1,53,44.9z"/>
			<path class="st4" d="M55.2,45.5c-0.3,0.7,0.4,1.3,0.4,1.3s0.9,0.1,1.2-0.6c0.3-0.7-0.1-2.1-0.1-2.1S55.5,44.8,55.2,45.5z"/>
			<path class="st5" d="M51.8,47.7c0.2-0.7-0.6-1.1-0.6-1.1s-0.8,0-1,0.8c-0.2,0.7,0.4,1.9,0.4,1.9S51.7,48.4,51.8,47.7z"/>
			<path class="st5" d="M53.8,48.3c0.2-0.7-0.4-1.1-0.4-1.1s-0.8-0.1-1,0.6c-0.2,0.7,0.2,1.9,0.2,1.9S53.5,49,53.8,48.3z"/>
			<path class="st5" d="M55.6,49.2c0.2-0.7-0.6-1.1-0.6-1.1s-0.8,0-1,0.8c-0.2,0.7,0.4,1.9,0.4,1.9S55.4,49.9,55.6,49.2z"/>
		</g>
		<g>
			<path class="st5" d="M86.8,47.5c-0.7,0-0.8-0.7-0.8-0.7s0.2-0.7,0.8-0.7c0.7,0,1.6,0.7,1.6,0.7S87.5,47.5,86.8,47.5z"/>
			<path class="st5" d="M85.7,49.1c-0.6-0.2-0.6-0.9-0.6-0.9s0.4-0.6,1-0.4c0.6,0.2,1.3,1.2,1.3,1.2S86.3,49.3,85.7,49.1z"/>
			<path class="st3" d="M87.2,50.3c-0.4-0.2-0.4-0.7-0.4-0.7s0.3-0.4,0.7-0.3c0.4,0.2,0.9,0.8,0.9,0.8S87.6,50.4,87.2,50.3z"/>
			<path class="st3" d="M87,52.4c-0.5,0.1-0.7-0.4-0.7-0.4s0.1-0.6,0.6-0.6c0.5-0.1,1.3,0.4,1.3,0.4S87.5,52.3,87,52.4z"/>
			<path class="st1" d="M82.6,62.1l-0.4-0.2c0,0.6-2.3-10.5,3.7-15.7c0,0-5.2,5.1-2.1,16.2L82.6,62.1z"/>
			<path class="st4" d="M83.6,46.8c0.5,0.5,0.1,1.1,0.1,1.1s-0.6,0.4-1.1-0.1c-0.5-0.5-0.6-1.6-0.6-1.6S83.2,46.4,83.6,46.8z"/>
			<path class="st5" d="M80.1,48.8c0.5,0.5,0.1,1.1,0.1,1.1s-0.6,0.4-1.1-0.1c-0.5-0.5-0.6-1.6-0.6-1.6S79.7,48.3,80.1,48.8z"/>
			<path class="st5" d="M81.5,46.3c0.3,0.4,0.1,0.8,0.1,0.8s-0.5,0.3-0.8-0.1c-0.3-0.4-0.4-1.2-0.4-1.2S81.1,46,81.5,46.3z"/>
			<path class="st5" d="M83,45.1c0.3,0.3,0,0.6,0,0.6s-0.4,0.2-0.6-0.1c-0.3-0.3-0.3-0.9-0.3-0.9S82.7,44.8,83,45.1z"/>
			<path class="st4" d="M85,45.4c0.3,0.6-0.2,1.1-0.2,1.1s-0.7,0.2-1-0.4c-0.3-0.6-0.2-1.7-0.2-1.7S84.6,44.9,85,45.4z"/>
			<path class="st4" d="M82.6,48.5c0.7,0.7,0.1,1.5,0.1,1.5s-0.9,0.5-1.5-0.2c-0.7-0.7-0.8-2.3-0.8-2.3S82,47.9,82.6,48.5z"/>
			<path class="st4" d="M81.4,50.8c0.8,0.5,0.5,1.4,0.5,1.4s-0.7,0.7-1.5,0.3c-0.8-0.5-1.4-1.9-1.4-1.9S80.6,50.3,81.4,50.8z"/>
			<path class="st4" d="M80.8,53.3c0.9,0.1,1,1.2,1,1.2s-0.4,0.9-1.3,0.8c-0.9-0.1-2-1.3-2-1.3S79.8,53.1,80.8,53.3z"/>
			<path class="st5" d="M84.9,51.2c-0.8-0.3-0.7-1.2-0.7-1.2s0.5-0.8,1.3-0.5c0.8,0.3,1.6,1.5,1.6,1.5S85.7,51.5,84.9,51.2z"/>
			<path class="st5" d="M84.4,53.6c-0.8-0.2-0.9-1.1-0.9-1.1s0.4-0.8,1.3-0.7c0.8,0.2,1.8,1.3,1.8,1.3S85.2,53.7,84.4,53.6z"/>
			<path class="st5" d="M84.2,55.8c-0.8-0.3-0.7-1.2-0.7-1.2s0.5-0.8,1.3-0.5c0.8,0.3,1.6,1.5,1.6,1.5S85,56.1,84.2,55.8z"/>
		</g>
		<g>
			<path class="st5" d="M73.1,59.8c-0.3,0.7-1.1,0.6-1.1,0.6s-0.7-0.5-0.4-1.2c0.3-0.7,1.5-1.4,1.5-1.4S73.4,59.1,73.1,59.8z"/>
			<path class="st5" d="M74.4,61.8c-0.5,0.6-1.3,0.2-1.3,0.2s-0.5-0.7,0-1.3c0.5-0.6,1.8-0.8,1.8-0.8S74.9,61.2,74.4,61.8z"/>
			<path class="st1" d="M79.7,68.3l-0.9,0.1c0,0-5.4-2.6-7.4-8.2c0,0,3,5.6,7.8,7.4L79.7,68.3z"/>
			<path class="st4" d="M71,63c0.7-0.3,1.2,0.4,1.2,0.4s0.1,0.8-0.6,1.1c-0.7,0.3-2-0.1-2-0.1S70.3,63.2,71,63z"/>
			<path class="st4" d="M70.1,60.9c0.8-0.1,1.1,0.7,1.1,0.7s-0.1,0.8-0.9,1c-0.8,0.1-1.9-0.5-1.9-0.5S69.3,61,70.1,60.9z"/>
			<path class="st4" d="M70.5,58.8c0.7,0.4,0.4,1.2,0.4,1.2s-0.6,0.6-1.3,0.2c-0.7-0.4-1.1-1.6-1.1-1.6S69.8,58.4,70.5,58.8z"/>
			<path class="st4" d="M72.4,64.8c1-0.4,1.7,0.6,1.7,0.6s0.2,1.2-0.9,1.6c-1,0.4-2.8-0.1-2.8-0.1S71.4,65.2,72.4,64.8z"/>
			<path class="st5" d="M76.3,63.6c-0.7,0.8-1.6,0.3-1.6,0.3s-0.6-0.9,0-1.7c0.7-0.8,2.4-1.1,2.4-1.1S76.9,62.8,76.3,63.6z"/>
		</g>
		<g>
			<path class="st5" d="M97.1,61.9c-0.8,0-1,0.8-1,0.8s0.2,0.8,1,0.9c0.8,0,1.9-0.7,1.9-0.7S97.9,61.9,97.1,61.9z"/>
			<path class="st4" d="M96.7,64.4c-0.6-0.6-1.4,0-1.4,0s-0.4,0.8,0.2,1.4c0.6,0.6,2.1,0.6,2.1,0.6S97.3,65,96.7,64.4z"/>
			<path class="st5" d="M96.6,66.5c-0.6-0.3-1.1,0.2-1.1,0.2s-0.2,0.7,0.4,1.1c0.6,0.3,1.8,0.1,1.8,0.1S97.2,66.9,96.6,66.5z"/>
			<path class="st5" d="M98.2,63.8c-0.5-0.3-1,0.2-1,0.2s-0.2,0.6,0.4,0.9c0.5,0.3,1.5,0.1,1.5,0.1S98.7,64.1,98.2,63.8z"/>
			<path class="st5" d="M94.4,68.7c-0.5-0.4-1.1,0-1.1,0s-0.3,0.7,0.2,1.1c0.5,0.5,1.7,0.5,1.7,0.5S94.9,69.1,94.4,68.7z"/>
			<path class="st4" d="M94.7,66.4c-0.6-0.7-1.5-0.3-1.5-0.3s-0.6,0.8-0.1,1.5c0.6,0.7,2.1,1.1,2.1,1.1S95.3,67.1,94.7,66.4z"/>
			<path class="st4" d="M92.6,68.2c-0.3-0.9-1.4-0.9-1.4-0.9s-0.9,0.6-0.6,1.5c0.3,1,1.7,1.9,1.7,1.9S92.9,69.2,92.6,68.2z"/>
			<path class="st4" d="M90,69.2c-0.1-0.9-1.1-1-1.1-1s-0.9,0.3-0.8,1.2c0.1,0.9,1.2,2,1.2,2S90.1,70.1,90,69.2z"/>
			<path class="st5" d="M87.4,69.6c0.1-0.9-0.9-1.2-0.9-1.2s-1,0.2-1,1.1c-0.1,0.9,0.8,2.2,0.8,2.2S87.4,70.5,87.4,69.6z"/>
			<path class="st5" d="M84.7,69.4c0-0.7-0.7-1-0.7-1s-0.8,0.2-0.9,0.9c0,0.8,0.7,1.8,0.7,1.8S84.7,70.2,84.7,69.4z"/>
			<path class="st5" d="M84.1,65.6c0.1,0.7,0.9,0.8,0.9,0.8s0.8-0.3,0.7-1.1c-0.1-0.7-1-1.6-1-1.6S84,64.8,84.1,65.6z"/>
			<path class="st5" d="M87,62.8c0.1,0.6,0.7,0.6,0.7,0.6s0.6-0.2,0.5-0.8c-0.1-0.6-0.8-1.2-0.8-1.2S87,62.3,87,62.8z"/>
			<path class="st5" d="M85.1,63.5c0.1,0.5,0.6,0.5,0.6,0.5s0.5-0.2,0.4-0.6c-0.1-0.5-0.6-1-0.6-1S85,63.1,85.1,63.5z"/>
			<path class="st5" d="M94.5,61.1c0,0.8,0.8,1,0.8,1s0.8-0.2,0.9-0.9c0-0.8-0.7-1.8-0.7-1.8S94.6,60.3,94.5,61.1z"/>
			<path class="st5" d="M92.8,62.9c0.4,0.7,1.2,0.4,1.2,0.4s0.6-0.6,0.2-1.3c-0.4-0.7-1.6-1.1-1.6-1.1S92.4,62.2,92.8,62.9z"/>
			<path class="st5" d="M90.9,64c0.4,0.7,1.3,0.4,1.3,0.4s0.6-0.6,0.2-1.4c-0.4-0.7-1.8-1.2-1.8-1.2S90.5,63.3,90.9,64z"/>
			<path class="st3" d="M88.7,64.8c0.3,0.8,1.2,0.7,1.2,0.7s0.8-0.5,0.5-1.3c-0.3-0.8-1.6-1.6-1.6-1.6S88.4,64,88.7,64.8z"/>
			<path class="st3" d="M90.9,61.2c0.2,0.6,0.9,0.5,0.9,0.5s0.6-0.4,0.4-1c-0.2-0.6-1.1-1.1-1.1-1.1S90.7,60.6,90.9,61.2z"/>
			<path class="st3" d="M88.9,62c0.2,0.6,1,0.6,1,0.6s0.6-0.4,0.4-1.1c-0.2-0.6-1.2-1.3-1.2-1.3S88.7,61.4,88.9,62z"/>
			<path class="st3" d="M93.3,60.9c0.4,0.3,0.9,0,0.9,0s0.2-0.5-0.2-0.9c-0.4-0.3-1.3-0.3-1.3-0.3S92.9,60.5,93.3,60.9z"/>
			<path class="st3" d="M86.3,65.4c0.3,0.8,1.2,0.7,1.2,0.7s0.8-0.5,0.5-1.3c-0.3-0.8-1.6-1.6-1.6-1.6S86.1,64.6,86.3,65.4z"/>
		</g>
		<path class="st1" d="M81.9,68l0.3,0.3c-0.6,0.1,10.8,0.3,14.8-6.5c0,0-4.1,6-15.5,5L81.9,68z"/>
	</g>
	<g>
		<path class="st1" d="M1.5,151.7c0-6.4,0-12.6,8.4-12.6c5.2,0,7.3,2.9,7.1,8.1h-5c0-3.2-0.6-4.5-2.1-4.5c-2.9,0-3.2,2.7-3.2,8.9
			s0.4,8.9,3.2,8.9c2.4,0,2.3-3,2.3-5h5c0,6.5-2.6,8.6-7.4,8.6C1.5,164.3,1.5,158.1,1.5,151.7z"/>
		<path class="st1" d="M20.6,163.9v-24.4h13.3v3.7h-8.2v6h7.6v3.7h-7.6v7.1h8.5v3.7H20.6z"/>
		<path class="st1" d="M42.4,163.9h-5.1v-24.4h9.4c3.5,0,5.7,2.2,5.7,6.4c0,3.1-1.2,5.4-4.5,6v0.1c1.1,0.1,4.4,0.4,4.4,4.8
			c0,1.6,0.1,6.1,0.6,7.2h-5c-0.7-1.5-0.5-3.1-0.5-4.7c0-2.9,0.3-5.4-3.6-5.4h-1.3V163.9z M42.4,150.1h2.3c2,0,2.6-2,2.6-3.6
			c0-2.3-1-3.2-2.6-3.2h-2.3V150.1z"/>
		<path class="st1" d="M56.2,163.9v-24.4h13.3v3.7h-8.2v6h7.6v3.7h-7.6v7.1h8.5v3.7H56.2z"/>
		<path class="st1" d="M73.2,163.9v-24.4h9.1c3.9,0,7.1,1.1,7.1,6.3c0,2.8-1.4,4.8-4.2,5.4v0.1c3.6,0.5,4.6,2.8,4.6,6.2
			c0,6.2-5.4,6.4-7.5,6.4H73.2z M78.3,149.5h3.4c1.1,0,2.7-0.7,2.7-3.1c0-1.8-1.2-3.1-2.9-3.1h-3.1V149.5z M78.3,160.2h2.8
			c1.1,0,3.5,0,3.5-3.4c0-2.2-0.8-3.5-3.4-3.5h-3V160.2z"/>
		<path class="st1" d="M98.7,163.9h-5.1v-24.4h9.4c3.5,0,5.7,2.2,5.7,6.4c0,3.1-1.2,5.4-4.5,6v0.1c1.1,0.1,4.4,0.4,4.4,4.8
			c0,1.6,0.1,6.1,0.6,7.2h-5c-0.7-1.5-0.5-3.1-0.5-4.7c0-2.9,0.3-5.4-3.6-5.4h-1.3V163.9z M98.7,150.1h2.3c2,0,2.6-2,2.6-3.6
			c0-2.3-1-3.2-2.6-3.2h-2.3V150.1z"/>
		<path class="st1" d="M112.3,151.7c0-6.4,0-12.6,8.4-12.6s8.4,6.1,8.4,12.6c0,6.4,0,12.6-8.4,12.6S112.3,158.1,112.3,151.7z
			 M123.9,151.7c0-6.2-0.4-8.9-3.2-8.9c-2.9,0-3.2,2.7-3.2,8.9s0.4,8.9,3.2,8.9C123.5,160.7,123.9,158,123.9,151.7z"/>
		<path class="st1" d="M131.2,139.5h5.3l3.8,17.7h0.1l4.3-17.7h5l-6.4,24.4h-6L131.2,139.5z"/>
		<path class="st1" d="M148.8,163.9l6.8-24.4h6.7l6.6,24.4h-5.4l-1.3-5.4h-7l-1.4,5.4H148.8z M158.6,144.2L158.6,144.2l-2.4,10.5
			h4.9L158.6,144.2z"/>
		<path class="st1" d="M177.9,164.3c-6.3,0-7.5-3.7-7.2-7.9h5.1c0,2.3,0.1,4.3,2.9,4.3c1.7,0,2.6-1.1,2.6-2.8
			c0-4.4-10.3-4.7-10.3-11.9c0-3.8,1.8-6.9,8-6.9c5,0,7.4,2.2,7.1,7.3h-5c0-1.8-0.3-3.7-2.4-3.7c-1.7,0-2.6,0.9-2.6,2.6
			c0,4.6,10.3,4.2,10.3,11.9C186.4,163.6,181.8,164.3,177.9,164.3z"/>
		<path class="st1" d="M189.8,151.7c0-6.4,0-12.6,8.4-12.6c5.2,0,7.3,2.9,7.1,8.1h-5c0-3.2-0.6-4.5-2.1-4.5c-2.9,0-3.2,2.7-3.2,8.9
			s0.4,8.9,3.2,8.9c2.4,0,2.3-3,2.3-5h5c0,6.5-2.6,8.6-7.4,8.6C189.8,164.3,189.8,158.1,189.8,151.7z"/>
		<path class="st1" d="M225.3,139.5v17.3c0,3.6-2.1,7.5-8.3,7.5c-5.6,0-8.3-2.9-8.3-7.5v-17.3h5.1v17c0,3,1.3,4.2,3.1,4.2
			c2.2,0,3.2-1.5,3.2-4.2v-17H225.3z"/>
		<path class="st1" d="M229.5,163.9v-24.4h5.1v20.3h7.6v4.1H229.5z"/>
		<path class="st1" d="M242.6,163.9l6.8-24.4h6.7l6.6,24.4h-5.4l-1.4-5.4h-7l-1.4,5.4H242.6z M252.4,144.2L252.4,144.2l-2.4,10.5
			h4.9L252.4,144.2z"/>
		<path class="st1" d="M270.1,163.9H265v-24.4h9.4c3.5,0,5.7,2.2,5.7,6.4c0,3.1-1.2,5.4-4.5,6v0.1c1.1,0.1,4.4,0.4,4.4,4.8
			c0,1.6,0.1,6.1,0.6,7.2h-5c-0.7-1.5-0.5-3.1-0.5-4.7c0-2.9,0.3-5.4-3.6-5.4h-1.3V163.9z M270.1,150.1h2.3c2,0,2.6-2,2.6-3.6
			c0-2.3-1-3.2-2.6-3.2h-2.3V150.1z"/>
		<path class="st1" d="M291.5,139.5h8.5c6.7,0,7.9,4.5,7.9,12.1c0,3.7,0.6,12.3-8.1,12.3h-8.3V139.5z M296.6,160.2h2.5
			c3.1,0,3.7-2.3,3.7-8.4c0-4.5,0-8.4-3.5-8.4h-2.6V160.2z"/>
		<path class="st1" d="M312,163.9v-24.4h5.1v24.4H312z"/>
		<path class="st1" d="M328,164.3c-6.3,0-7.5-3.7-7.2-7.9h5.1c0,2.3,0.1,4.3,2.9,4.3c1.7,0,2.6-1.1,2.6-2.8
			c0-4.4-10.3-4.7-10.3-11.9c0-3.8,1.8-6.9,8-6.9c5,0,7.4,2.2,7.1,7.3h-5c0-1.8-0.3-3.7-2.4-3.7c-1.7,0-2.6,0.9-2.6,2.6
			c0,4.6,10.3,4.2,10.3,11.9C336.5,163.6,331.9,164.3,328,164.3z"/>
		<path class="st1" d="M340.2,163.9v-24.4h13.3v3.7h-8.2v6h7.6v3.7h-7.6v7.1h8.5v3.7H340.2z"/>
		<path class="st1" d="M355.2,163.9l6.8-24.4h6.7l6.6,24.4h-5.4l-1.3-5.4h-7l-1.4,5.4H355.2z M365,144.2L365,144.2l-2.4,10.5h4.9
			L365,144.2z"/>
		<path class="st1" d="M384.3,164.3c-6.3,0-7.5-3.7-7.2-7.9h5.1c0,2.3,0.1,4.3,2.9,4.3c1.7,0,2.6-1.1,2.6-2.8
			c0-4.4-10.3-4.7-10.3-11.9c0-3.8,1.8-6.9,8-6.9c5,0,7.4,2.2,7.1,7.3h-5c0-1.8-0.3-3.7-2.4-3.7c-1.7,0-2.6,0.9-2.6,2.6
			c0,4.6,10.3,4.2,10.3,11.9C392.8,163.6,388.2,164.3,384.3,164.3z"/>
		<path class="st1" d="M396.5,163.9v-24.4h13.3v3.7h-8.2v6h7.6v3.7h-7.6v7.1h8.5v3.7H396.5z"/>
		<path class="st1" d="M2,196.7v-22.2h2v10.2h0.1l7.9-10.2h2.4L6,184.9l8.5,11.8h-2.5l-8-11.4H4v11.4H2z"/>
		<path class="st1" d="M17.4,196.7v-22.2h3l9,19.5l0.1-0.1v-19.4h2v22.2h-3l-9-19.7l-0.1,0.1v19.6H17.4z"/>
		<path class="st1" d="M42.3,174.1c6.6,0,6.7,5.5,6.7,11.5c0,6-0.1,11.5-6.7,11.5s-6.7-5.5-6.7-11.5
			C35.6,179.6,35.7,174.1,42.3,174.1z M42.3,195.4c4.7,0,4.7-4,4.7-9.9c0-5.9-0.1-9.9-4.7-9.9s-4.7,4-4.7,9.9
			C37.6,191.5,37.6,195.4,42.3,195.4z"/>
		<path class="st1" d="M62.3,174.5h2.6l4.5,19.4h0.1l4.7-19.4h1.9l-5.5,22.2H68L63.6,177h-0.1l-4.6,19.7h-2.5l-5.3-22.2h2.1
			l4.5,19.6h0.1L62.3,174.5z"/>
		<path class="st1" d="M78.5,196.7v-22.2h2V195h7.3v1.7H78.5z"/>
		<path class="st1" d="M100.7,174.5v1.7h-8.1v8.3h7.7v1.7h-7.7v8.9h8.3v1.7H90.6v-22.2H100.7z"/>
		<path class="st1" d="M104.3,174.5h5.9c6.2,0,7,3.6,7,11.2c0,7.4-1.1,11-7.8,11h-5.1V174.5z M106.2,195h2.4c5.9,0,6.5-1.6,6.5-10.7
			c0-6.4-0.9-8.2-6.3-8.2h-2.6V195z"/>
		<path class="st1" d="M131.7,186.8h-4.5v-1.7h6.4v11.1c-2,0.6-4,0.9-6.1,0.9c-7.2,0-6.7-7.2-6.7-11.5c0-4.3-0.5-11.5,6.7-11.5
			c4.2,0,6.4,1.8,6.3,6.1h-2c0-2.9-1.3-4.5-4.4-4.5c-4.8,0-4.7,4.3-4.7,9.9c0,5.6-0.1,9.9,4.7,9.9c1.7,0,3.1-0.2,4.1-0.6V186.8z"/>
		<path class="st1" d="M148.4,174.5v1.7h-8.1v8.3h7.7v1.7h-7.7v8.9h8.3v1.7h-10.3v-22.2H148.4z"/>
		<path class="st1" d="M158.5,174.5h6.1c1.8,0,4.9,0.2,4.9,5.4c0,4.5-1.4,6.5-5.2,6.5h-3.7v10.3h-2V174.5z M160.5,184.7h3.7
			c2.1,0,3.4-1,3.4-4.5c0-3.8-1.6-4.1-3.4-4.1h-3.6V184.7z"/>
		<path class="st1" d="M178.7,174.1c6.6,0,6.7,5.5,6.7,11.5c0,6-0.1,11.5-6.7,11.5c-6.6,0-6.7-5.5-6.7-11.5
			C172,179.6,172.1,174.1,178.7,174.1z M178.7,195.4c4.7,0,4.7-4,4.7-9.9c0-5.9-0.1-9.9-4.7-9.9c-4.7,0-4.7,4-4.7,9.9
			C174,191.5,174,195.4,178.7,195.4z"/>
		<path class="st1" d="M191.3,185.9v10.7h-2v-22.2h6.1c4.3,0,5.3,1.4,5.3,5.3c0,2.8-0.5,4.6-3.4,5.3v0.1c3.1,0.6,3.3,1,3.3,8.9
			c0,0.9,0.2,1.7,0.2,2.6H199c-0.2-0.6-0.3-4.3-0.3-5.5c0-1,0.6-5.2-3.7-5.2H191.3z M191.3,184.3h3.2c2.9,0,4.3-0.8,4.3-4.5
			c0-3-1.2-3.6-3.5-3.6h-4V184.3z"/>
		<path class="st1" d="M208.4,176.2H203v-1.7h12.8v1.7h-5.4v20.5h-2V176.2z"/>
		<path class="st1" d="M224.4,174.5l6.9,22.2h-2.1l-1.8-5.8h-8.7l-1.7,5.8h-2l7-22.2H224.4z M227,189.2l-3.8-12.5h-0.1l-3.7,12.5
			H227z"/>
		<path class="st1" d="M233.8,196.7v-22.2h2V195h7.3v1.7H233.8z"/>
	</g>
</g>
</svg>
