<?xml version="1.0" encoding="utf-8"?>
<!-- Generator: Adobe Illustrator 21.0.2, SVG Export Plug-In . SVG Version: 6.00 Build 0)  -->
<svg version="1.1" id="Layer_1" xmlns="http://www.w3.org/2000/svg" xmlns:xlink="http://www.w3.org/1999/xlink" x="0px" y="0px"
	 viewBox="0 0 467 169.8" style="enable-background:new 0 0 467 169.8;" xml:space="preserve">
<style type="text/css">
	.st0{fill:#FFFFFF;}
	.st1{fill:url(#SVGID_1_);}
	.st2{fill:#249248;}
	.st3{fill:#94C940;}
	.st4{fill:#93806C;}
	.st5{fill:#55B748;}
	.st6{fill:#EDE80C;}
	.st7{fill:#F69320;}
	.st8{fill:#FFC113;}
	.st9{fill:#BED530;}
	.st10{fill:#EB2227;}
	.st11{fill:#929390;}
	.st12{fill:#BDD96D;}
</style>
<g>
	<g>
		<path class="st0" d="M165,0.1H4.7c-2.5,0-4.5,2-4.5,4.5V165c0,2.5,2,4.5,4.5,4.5h73.1c-1.1-9.8-2.5-26.1-13.9-23.6
			c-2.7,0.1-9.2,2.2-12.1,2.7c-6,0.9-12.6,0.6-16.1-4.3c-3.5-4.9-6-28.3-6.7-28.9c-0.7-0.6-13-1.6-14.6-2.7
			c-3.4-2.3-0.9-6.5-0.9-6.5s11.2-16,13.3-22.9c0.5-1.8-0.2-3-1.1-6.7c-0.6-3.3-2.5-7-2.1-10.4C27.7,29.8,53.7,6.7,89.6,6.7
			c35.9,0,65,26.8,65,59.9c0,12.3-4,23.8-11,33.3c0,0-4.7,8.3-14.6,23.2c-4.2,6.4,8.9,39.9,11.5,46.4H165c2.5,0,4.5-2,4.5-4.5V4.6
			C169.5,2.1,167.5,0.1,165,0.1z"/>
		<linearGradient id="SVGID_1_" gradientUnits="userSpaceOnUse" x1="83.5237" y1="169.4716" x2="83.5237" y2="6.6592">
			<stop  offset="0" style="stop-color:#B2D236"/>
			<stop  offset="0.6687" style="stop-color:#FFF797"/>
		</linearGradient>
		<path class="st1" d="M129,123.1c9.9-14.9,14.6-23.2,14.6-23.2c6.9-9.5,11-21,11-33.3c0-33.1-29.1-59.9-65-59.9
			c-35.9,0-61.9,23.1-66.2,59.5c-0.4,3.4,1.5,7.1,2.1,10.4c0.9,3.7,1.6,4.9,1.1,6.7c-2.1,6.9-13.3,22.9-13.3,22.9s-2.5,4.2,0.9,6.5
			c1.6,1.1,13.9,2,14.6,2.7c0.7,0.6,3.2,24,6.7,28.9c3.5,4.9,10.1,5.3,16.1,4.3c3-0.5,9.4-2.5,12.1-2.7
			c11.4-2.4,12.8,13.8,13.9,23.6h62.8C137.9,163,124.8,129.4,129,123.1z"/>
	</g>
	<path class="st2" d="M38.4,53.7c0.5-1.4,2.1-1.3,2.1-1.3s1.3,0.9,0.9,2.3c-0.5,1.4-2.6,2.8-2.6,2.8S37.9,55,38.4,53.7z"/>
	<path class="st3" d="M40.9,63.3c0.9-1,2.3-0.3,2.3-0.3s0.8,1.3-0.1,2.3c-0.9,1-3.3,1.4-3.3,1.4S40,64.3,40.9,63.3z"/>
	<path class="st3" d="M44,66.2c1-1.2,2.6-0.4,2.6-0.4s1,1.4,0,2.6c-1,1.2-3.7,1.8-3.7,1.8S43,67.4,44,66.2z"/>
	<path class="st4" d="M141.8,61.6c-2.5,2.7-4.9,3.4-9,4.4c-2.1,0.6-5.9,0.6-9.5,2.6c-0.4,0.2-0.8,0.4-1.1,0.7
		c0.1-1.5,0.5-3.5,1.8-5.4c2.8-4,7.5-4.3,10.2-5.9c2.7-1.6,4.5-4.2,4.9-7.9c0,0-1.5,5.9-7.8,7.6c-3.8,1-7.9,3.2-9.9,6.7
		c-1.5,2.7-1.8,5.6-1.9,6.8c-2.2,1.8-3.3,3.4-3.8,4.3c0,0-1.6-2.3-4.7-4.8c0-0.1-0.1-0.2-0.1-0.3c-6.6-12.4-6.6-16.9-4.3-20
		c3.6-5.1,11.4-3.4,19-9.2c6.7-5.1,6.7-11.8,6.7-11.8s-1.2,6.6-7,10.7c-6.6,4.7-11.2,4-15.7,5.8c-0.1,0.1-0.3,0.1-0.4,0.2
		c0.1-0.3,0.2-0.7,0.3-1c0.7-2.9-0.6-6-2.1-8.5c-3.5-5.9,0.8-12.1,0.8-12.1c-1.6,2.2-3.9,5.4-2.5,10.8c0.6,2.2,3.1,4.7,2.6,8.3
		c-0.2,1.7-1.4,3.5-2.1,4.4l0,0c-2.4,1.9-3.6,4.5-3.7,6.7c-0.2,4.3,1,8.1,3.4,12.8c-2.2-1.1-4.7-2-7.6-2.5c-1.5-1.3-5-4.9-4.5-9
		c0.5-5.1,1.6-9,0.2-13.4c-1.8-5.2-6.3-7.6-9.5-8.6c-7.1-8.1-4.8-17.4-4.8-17.4s-3.8,8.7,2,16.8c-0.1,0-0.3,0-0.4,0
		c-2.3,0-12.4-2.8-17.4-9.3c0,0,5.1,8.4,16.1,10.6c6.1,1.3,8.1,2.5,10.3,5.8c2.3,3.4,1.5,7,0.4,14.1c-0.7,4.4,0.3,7.4,1.9,10.1
		c-2.2,0.2-4.6,0.6-7.2,1.4c-0.7,0.2-1.4,0.4-2.1,0.6c0-1.3-0.4-4.6-3.5-7.7l-0.1-0.4c-0.6-2-1.5-3.9-1.1-5.5c0.6-2,1.9-2.6,2.7-5.3
		c0.9-2.8-0.4-5.7-2.8-8.1c0,0,4.8,5.4,0.9,10.1c-2.4,2.9-2.3,5-1.6,7.5c-3.7-2.7-7.2-3.4-10-7.1c-3.7-4.8,0.2-12.7,0.2-12.7
		s-2.2,3.1-2.7,7.5c-0.3,3.5,1.7,6,2.8,7.5c2.6,3.5,6.8,4,10.3,7.5c2.9,2.9,1.9,5.7,1.9,7.4c-7.9,1.3-14.7-0.8-19.4-6.4
		c-9.3-11.1-0.9-36.1-0.9-36.1s-6.5,11.8-4.9,27.2c-7.7-9.1-17.1-3.9-17.1-3.9s11.3-4.1,17.7,8.3c0.4,1.8,1.1,3.6,2.1,5.3
		c0,0,0,0.1,0,0.1l0,0c1.8,3.1,4.6,5.8,8.9,7.8c-1.3,0.7-4.5,2-6.5,1.6c-2.3-0.5-2.6-2.9-5.6-3.9c-1.8-0.6-3-0.5-4.1-0.9
		c-1.1-0.4-1.4-3.1-2.8-4c-0.5-0.3-2.1-0.6-3.2-0.7c-1-0.1-2.1-0.8-2.1-0.8c0.4,0.9,2.2,1.9,3,2c0.9,0.1,1.5,0.3,2.5,2.7
		c1,2.4,2,2.3,4.8,3.2c2.9,0.9,2.5,3.4,5.6,4.8c3.1,1.4,7.3,0,11.2-1.3c0.9-0.3,1.8-0.5,2.8-0.7c10.3,2.4,15.4-2.5,24.1-0.8
		c14,2.8,14.3,11.6,14.8,18.6c0.1,0.9,0,2-0.3,3.1c-0.3-0.3-0.6-0.6-0.8-0.9c-1.6-2-1-6-3.9-9.5c-1.4-1.7-3.7-4-8.1-3.4
		c-4.8,0.7-7.1,4.9-15.2,4.4c-7.1-0.4-12.5-5.3-12.5-5.3s3.5,5.7,11.9,6.6c12,1.3,13-5.8,19.4-3c3.5,1.6,3,5.3,4.5,10.5
		c0.6,2.1,2,3.9,3.3,5.3c-3.8,17.2-7.1,48.2,6.9,72.1l14.9,0c0,0-23.1-34.3-12.4-74.5c0,0,1-7.1-0.2-11.6c-0.5-2,1.8-8.3,6.2-11.4
		c5.6-3.9,14-3.2,17.6-8.4c2.4-3.4,3-11.7,3-11.7S144.2,59,141.8,61.6z"/>
	<path class="st2" d="M104.2,20.5c-0.5,1.2-1.9,0.9-1.9,0.9s-1.1-0.9-0.6-2.1c0.5-1.2,2.5-2.2,2.5-2.2S104.7,19.3,104.2,20.5z"/>
	<path class="st5" d="M67.2,23c-0.3,1.3-1.8,1.3-1.8,1.3s-1.3-0.7-1-2c0.3-1.3,2.2-2.7,2.2-2.7S67.6,21.7,67.2,23z"/>
	<path class="st5" d="M70.7,25.8c-0.7,1.4-2.4,1-2.4,1s-1.3-1.1-0.6-2.5c0.7-1.4,3.2-2.5,3.2-2.5S71.4,24.4,70.7,25.8z"/>
	<path class="st5" d="M73.6,28.5c-1.1,1.1-2.6,0.3-2.6,0.3s-0.9-1.5,0.2-2.6c1.1-1.1,3.8-1.5,3.8-1.5S74.7,27.3,73.6,28.5z"/>
	<path class="st2" d="M77.1,30.2c-1.1,1.1-2.6,0.3-2.6,0.3s-0.9-1.5,0.2-2.6c1.1-1.1,3.8-1.5,3.8-1.5S78.2,29.1,77.1,30.2z"/>
	<path class="st3" d="M60.5,54.4c-1.1,0.7-2.1-0.3-2.1-0.3s-0.4-1.3,0.6-2c1.1-0.7,3.2-0.4,3.2-0.4S61.6,53.8,60.5,54.4z"/>
	<path class="st3" d="M59.7,50.4c-1.1,0.7-2.1-0.3-2.1-0.3s-0.4-1.3,0.6-2c1.1-0.7,3.2-0.4,3.2-0.4S60.7,49.7,59.7,50.4z"/>
	<path class="st3" d="M59,47C58,47.7,57,46.7,57,46.7s-0.4-1.3,0.6-2c1.1-0.7,3.2-0.4,3.2-0.4S60.1,46.3,59,47z"/>
	<path class="st3" d="M59.1,43.2c-1.3,0.1-1.7-1.2-1.7-1.2s0.2-1.4,1.5-1.5c1.3-0.1,3.1,1,3.1,1S60.3,43.1,59.1,43.2z"/>
	<path class="st3" d="M59.1,39.9c-1.2,0.2-1.7-1-1.7-1s0.1-1.3,1.3-1.5c1.2-0.2,3,0.9,3,0.9S60.3,39.7,59.1,39.9z"/>
	<path class="st5" d="M59.4,23.2c0.4,1.2-0.9,2-0.9,2s-1.4,0-1.8-1.2c-0.4-1.2,0.5-3.3,0.5-3.3S59,22,59.4,23.2z"/>
	<path class="st3" d="M46.9,69.8c0.7-1.4,2.4-1.1,2.4-1.1s1.3,1.1,0.6,2.6c-0.7,1.4-3.2,2.6-3.2,2.6S46.2,71.2,46.9,69.8z"/>
	<path class="st3" d="M50,54.1c0.7-1.3,2.3-0.9,2.3-0.9s1.2,1.1,0.5,2.4c-0.7,1.3-3,2.3-3,2.3S49.3,55.4,50,54.1z"/>
	<path class="st3" d="M46,50.9c0.7-1.2,2.2-0.8,2.2-0.8s1.1,1.1,0.3,2.3c-0.8,1.2-3.1,2.1-3.1,2.1S45.3,52.2,46,50.9z"/>
	<path class="st5" d="M53.2,33.6c1.5,0.1,1.9,1.7,1.9,1.7s-0.5,1.6-2,1.5c-1.5-0.1-3.5-1.8-3.5-1.8S51.6,33.5,53.2,33.6z"/>
	<path class="st5" d="M54.7,29.1c1.5,0.4,1.5,2.2,1.5,2.2s-0.9,1.5-2.4,1.1c-1.5-0.4-3.2-2.6-3.2-2.6S53.1,28.7,54.7,29.1z"/>
	<path class="st5" d="M56.7,25.6c1.1,0.8,0.5,2.1,0.5,2.1s-1.1,0.9-2.2,0.1c-1.1-0.8-1.7-3-1.7-3S55.6,24.8,56.7,25.6z"/>
	<path class="st3" d="M61.2,24.9c-0.8,0.5-0.5,1.5-0.5,1.5s0.7,0.7,1.5,0.2c0.8-0.5,1.4-2,1.4-2S62,24.4,61.2,24.9z"/>
	<path class="st3" d="M59.5,34c-1.2,0.1-1.4,1.3-1.4,1.3s0.4,1.2,1.6,1.1c1.2-0.1,2.7-1.4,2.7-1.4S60.7,34,59.5,34z"/>
	<path class="st3" d="M60.4,30.9c-1.1-0.1-1.5,1-1.5,1s0.1,1.2,1.2,1.3c1.1,0.1,2.7-0.8,2.7-0.8S61.5,31.1,60.4,30.9z"/>
	<path class="st3" d="M61,27.9c-1.1,0-1.3,1.2-1.3,1.2s0.3,1.1,1.4,1.1c1.1,0,2.5-1.2,2.5-1.2S62.1,27.9,61,27.9z"/>
	<path class="st5" d="M44.8,43.7c0.3,1.4-1.2,2-1.2,2s-1.6-0.1-1.8-1.5c-0.3-1.4,0.9-3.6,0.9-3.6S44.5,42.3,44.8,43.7z"/>
	<path class="st5" d="M49,44.7c-0.4,1.4-1.9,1.4-1.9,1.4s-1.4-0.8-1-2.1c0.4-1.4,2.3-2.8,2.3-2.8S49.4,43.3,49,44.7z"/>
	<path class="st2" d="M46.9,41.2c-0.3,1-1.4,1-1.4,1s-1-0.5-0.7-1.5c0.3-1,1.7-2.1,1.7-2.1S47.1,40.2,46.9,41.2z"/>
	<path class="st5" d="M40.2,44.3c0.8,1.1-0.1,2.3-0.1,2.3s-1.4,0.6-2.2-0.5c-0.8-1.1-0.8-3.5-0.8-3.5S39.4,43.2,40.2,44.3z"/>
	<path class="st5" d="M52.1,37.5c1.3-0.5,2.2,0.7,2.2,0.7s0.2,1.5-1.1,2.1c-1.3,0.5-3.7-0.1-3.7-0.1S50.8,38,52.1,37.5z"/>
	<path class="st3" d="M41.2,50c0.3-1.4,1.8-1.5,1.8-1.5s1.4,0.7,1.1,2.1c-0.3,1.4-2.1,3-2.1,3S40.9,51.4,41.2,50z"/>
	<path class="st3" d="M37,49.7c0.7-1.2,2.2-0.8,2.2-0.8s1.1,1.1,0.4,2.3c-0.7,1.2-3,2.1-3,2.1S36.3,50.9,37,49.7z"/>
	<path class="st5" d="M52.3,47.3c-1,0.9-2.3,0.1-2.3,0.1s-0.7-1.3,0.4-2.2c1-0.9,3.4-1,3.4-1S53.4,46.4,52.3,47.3z"/>
	<path class="st2" d="M41.3,41c0.3,1.3-1,2-1,2s-1.5,0-1.8-1.3c-0.3-1.3,0.6-3.5,0.6-3.5S41,39.6,41.3,41z"/>
	<path class="st2" d="M44,37.7c0.6,1-0.3,1.9-0.3,1.9s-1.2,0.4-1.8-0.7c-0.6-1-0.3-3-0.3-3S43.4,36.7,44,37.7z"/>
	<path class="st5" d="M52.4,41c1.2-0.1,1.6,1.1,1.6,1.1s-0.2,1.3-1.4,1.4c-1.2,0.1-2.8-1-2.8-1S51.2,41.1,52.4,41z"/>
	<path class="st2" d="M52.7,26.4c1.1,0.3,1.1,1.6,1.1,1.6s-0.6,1.1-1.7,0.8c-1.1-0.3-2.4-1.9-2.4-1.9S51.6,26.1,52.7,26.4z"/>
	<path class="st2" d="M48.9,36.3c1.2,0.1,1.4,1.3,1.4,1.3s-0.4,1.2-1.6,1.1c-1.2-0.1-2.6-1.4-2.6-1.4S47.7,36.3,48.9,36.3z"/>
	<path class="st2" d="M42.3,55c0.1-1.4,1.5-1.7,1.5-1.7s1.4,0.4,1.4,1.8c-0.1,1.4-1.6,3.2-1.6,3.2S42.2,56.3,42.3,55z"/>
	<path class="st2" d="M46.4,55.6c0.7-1.2,2.1-0.8,2.1-0.8s1.1,1,0.4,2.2c-0.7,1.2-2.9,2.1-2.9,2.1S45.7,56.8,46.4,55.6z"/>
	<path class="st2" d="M52.5,57.6c0.7-1.2,2.1-0.8,2.1-0.8s1.1,1,0.4,2.2c-0.7,1.2-2.9,2.1-2.9,2.1S51.8,58.8,52.5,57.6z"/>
	<path class="st3" d="M39.9,59.4c1.4,0.2,1.5,1.7,1.5,1.7s-0.6,1.4-1.9,1.2c-1.4-0.2-3-1.9-3-1.9S38.5,59.2,39.9,59.4z"/>
	<path class="st2" d="M47,33.2c1.4,0.1,1.6,1.6,1.6,1.6s-0.5,1.4-1.8,1.3c-1.4-0.1-3.1-1.7-3.1-1.7S45.7,33.1,47,33.2z"/>
	<path class="st2" d="M49.7,30.1C51,30.5,51,32,51,32s-0.7,1.3-2,1c-1.3-0.3-2.8-2.2-2.8-2.2S48.3,29.8,49.7,30.1z"/>
	<path class="st3" d="M77.2,16.4c1.1,0.6,0.7,2,0.7,2s-1,1-2.1,0.4c-1.1-0.6-1.9-2.7-1.9-2.7S76.1,15.7,77.2,16.4z"/>
	<path class="st2" d="M89.3,19.9c-1,0.3-1.5-0.7-1.5-0.7s0-1.1,0.9-1.4c1-0.3,2.6,0.4,2.6,0.4S90.2,19.6,89.3,19.9z"/>
	<path class="st2" d="M91.7,23.2c-0.9,0.2-1.3-0.6-1.3-0.6s0-1,0.8-1.2c0.9-0.2,2.3,0.3,2.3,0.3S92.5,23,91.7,23.2z"/>
	<path class="st2" d="M93.6,30.8c-1.2,0.3-2-0.9-2-0.9s0-1.4,1.2-1.8c1.2-0.3,3.3,0.5,3.3,0.5S94.8,30.4,93.6,30.8z"/>
	<path class="st5" d="M82.4,22.2c-1.5,0.4-2.3-1.1-2.3-1.1s0-1.7,1.5-2c1.5-0.4,3.9,0.7,3.9,0.7S83.9,21.9,82.4,22.2z"/>
	<path class="st3" d="M75.4,23.8c1.5-0.3,2.2,1.3,2.2,1.3s-0.1,1.7-1.7,1.9c-1.5,0.3-3.8-1-3.8-1S73.9,24.1,75.4,23.8z"/>
	<path class="st3" d="M76.8,28c1.5-0.3,2.2,1.3,2.2,1.3s-0.1,1.7-1.7,1.9c-1.5,0.3-3.8-1-3.8-1S75.2,28.3,76.8,28z"/>
	<path class="st5" d="M82.7,26.1c-1.6,0.1-2.1-1.6-2.1-1.6s0.4-1.7,2-1.8c1.6-0.1,3.8,1.5,3.8,1.5S84.3,26,82.7,26.1z"/>
	<path class="st5" d="M84.6,30.2c-1.5,0.6-2.5-0.9-2.5-0.9s-0.2-1.7,1.3-2.3c1.5-0.6,4.1,0.3,4.1,0.3S86.1,29.7,84.6,30.2z"/>
	<path class="st5" d="M87.4,33.3c-1.5,0.6-2.5-0.9-2.5-0.9s-0.2-1.7,1.3-2.3c1.5-0.6,4.1,0.3,4.1,0.3S88.9,32.8,87.4,33.3z"/>
	<path class="st3" d="M79.3,13.7c0.6,1.2-0.4,2.2-0.4,2.2s-1.4,0.4-2-0.8c-0.6-1.2-0.3-3.4-0.3-3.4S78.7,12.6,79.3,13.7z"/>
	<path class="st5" d="M82.7,17.8c-1.1,0.9-2.3,0-2.3,0s-0.7-1.4,0.4-2.3c1.1-0.9,3.5-0.9,3.5-0.9S83.8,16.9,82.7,17.8z"/>
	<path class="st2" d="M86.3,18.8c-1.3,0.6-2.3-0.7-2.3-0.7s-0.3-1.5,1-2.1c1.3-0.6,3.7,0,3.7,0S87.6,18.2,86.3,18.8z"/>
	<path class="st2" d="M87.1,23.2c-1.4,0.2-2-1.2-2-1.2s0.2-1.5,1.6-1.8c1.4-0.2,3.5,1,3.5,1S88.5,23,87.1,23.2z"/>
	<path class="st2" d="M88.6,26.4c-1.4,0.3-2.1-1.1-2.1-1.1s0.1-1.6,1.5-1.8c1.4-0.3,3.6,0.9,3.6,0.9S90,26.1,88.6,26.4z"/>
	<path class="st2" d="M90.3,29.5c-1.3,0.6-2.3-0.6-2.3-0.6s-0.3-1.5,1-2.1c1.3-0.6,3.7-0.1,3.7-0.1S91.6,28.8,90.3,29.5z"/>
	<path class="st5" d="M91.6,35c-0.9,1.1-2.3,0.5-2.3,0.5s-0.9-1.2-0.1-2.3c0.9-1.1,3.3-1.7,3.3-1.7S92.4,33.9,91.6,35z"/>
	<path class="st5" d="M64.6,38.6c0.9,0.3,0.9,1.4,0.9,1.4s-0.6,0.9-1.5,0.6c-0.9-0.3-1.9-1.7-1.9-1.7S63.7,38.3,64.6,38.6z"/>
	<path class="st5" d="M63.4,41.5c1.1,0.2,1.1,1.4,1.1,1.4s-0.5,1.1-1.6,0.9c-1.1-0.2-2.3-1.6-2.3-1.6S62.4,41.3,63.4,41.5z"/>
	<path class="st5" d="M62.6,44.6c1.1-0.3,1.7,0.8,1.7,0.8s0,1.3-1.1,1.5c-1.1,0.3-2.9-0.5-2.9-0.5S61.5,44.9,62.6,44.6z"/>
	<path class="st5" d="M63.1,47.9c1.3-0.3,2,0.9,2,0.9s0,1.4-1.3,1.8c-1.3,0.3-3.3-0.6-3.3-0.6S61.8,48.2,63.1,47.9z"/>
	<path class="st5" d="M64.4,51.6c1.2-0.6,2.1,0.4,2.1,0.4s0.3,1.4-0.8,2c-1.2,0.6-3.4,0.2-3.4,0.2S63.2,52.3,64.4,51.6z"/>
	<path class="st5" d="M66.2,55c0.8-1.1,2.1-0.5,2.1-0.5s0.9,1.1,0.1,2.2c-0.8,1.1-3,1.6-3,1.6S65.5,56.1,66.2,55z"/>
	<path class="st5" d="M69.5,49.4c-1,0.3-1.6-0.7-1.6-0.7s-0.1-1.1,0.9-1.4c1-0.3,2.7,0.3,2.7,0.3S70.5,49.1,69.5,49.4z"/>
	<path class="st5" d="M71.9,51.7c-0.8,0.6-1.7-0.1-1.7-0.1s-0.5-1,0.4-1.7c0.8-0.6,2.6-0.6,2.6-0.6S72.7,51.1,71.9,51.7z"/>
	<path class="st5" d="M68.9,46.6c-0.9,0.5-1.7-0.3-1.7-0.3s-0.3-1.1,0.6-1.6c0.9-0.5,2.7-0.2,2.7-0.2S69.8,46.1,68.9,46.6z"/>
	<path class="st5" d="M55.8,66c-0.8,1-2.1,0.4-2.1,0.4s-0.8-1.2,0-2.2c0.8-1,3.1-1.5,3.1-1.5S56.6,65,55.8,66z"/>
	<path class="st5" d="M58.8,67.6c-0.6,1-1.8,0.6-1.8,0.6s-0.9-0.9-0.3-1.9c0.6-1,2.4-1.7,2.4-1.7S59.4,66.6,58.8,67.6z"/>
	<path class="st5" d="M61.2,70c-0.5,1-1.6,0.8-1.6,0.8S58.7,70,59.1,69c0.5-1,2.1-1.8,2.1-1.8S61.7,69,61.2,70z"/>
	<path class="st5" d="M67.9,43.9c-1,0-1.3-1.1-1.3-1.1s0.3-1.1,1.3-1.1c1,0,2.5,1.1,2.5,1.1S69,43.9,67.9,43.9z"/>
	<path class="st3" d="M51,71.4c0.7-1.3,2.3-0.9,2.3-0.9s1.2,1.1,0.5,2.4c-0.7,1.3-3,2.4-3,2.4S50.3,72.7,51,71.4z"/>
	<path class="st3" d="M54.3,74.3c0.4-1.3,1.8-1.2,1.8-1.2s1.2,0.7,0.8,2c-0.4,1.3-2.2,2.5-2.2,2.5S54,75.5,54.3,74.3z"/>
	<path class="st5" d="M68.4,41.1c-1-0.3-1-1.4-1-1.4s0.6-1,1.6-0.7c1,0.3,2,1.8,2,1.8S69.4,41.4,68.4,41.1z"/>
	<path class="st3" d="M78,42.1c1,0,1.3,1.1,1.3,1.1s-0.3,1.1-1.3,1.1c-1,0-2.4-1.2-2.4-1.2S77,42.1,78,42.1z"/>
	<path class="st3" d="M76.4,39.5c1-0.3,1.6,0.6,1.6,0.6s0.1,1.1-0.9,1.5c-1,0.3-2.7-0.2-2.7-0.2S75.4,39.8,76.4,39.5z"/>
	<path class="st5" d="M75.1,43.8c1-0.1,1.4,1,1.4,1s-0.2,1.1-1.2,1.2c-1,0.1-2.5-0.9-2.5-0.9S74,43.8,75.1,43.8z"/>
	<path class="st3" d="M78.3,45.2c1,0,1.3,1.2,1.3,1.2s-0.3,1.1-1.4,1c-1,0-2.4-1.2-2.4-1.2S77.3,45.2,78.3,45.2z"/>
	<path class="st3" d="M77.5,47.7c1,0.3,0.9,1.5,0.9,1.5s-0.6,1-1.6,0.6c-1-0.3-2-1.8-2-1.8S76.5,47.4,77.5,47.7z"/>
	<path class="st3" d="M76.2,50.3c0.8,0.6,0.4,1.7,0.4,1.7s-0.9,0.7-1.7,0.1c-0.8-0.6-1.3-2.3-1.3-2.3S75.3,49.7,76.2,50.3z"/>
	<path class="st5" d="M74,46.5c0.8,0.6,0.4,1.7,0.4,1.7s-0.9,0.7-1.7,0.1c-0.8-0.6-1.3-2.3-1.3-2.3S73.2,45.9,74,46.5z"/>
	<path class="st5" d="M70.4,38c-0.7,0.8-1.7,0.3-1.7,0.3s-0.7-0.9,0-1.7c0.7-0.8,2.4-1.1,2.4-1.1S71.1,37.2,70.4,38z"/>
	<path class="st5" d="M66.6,36.5c0.6,0.8-0.2,1.6-0.2,1.6s-1,0.4-1.6-0.4c-0.6-0.8-0.4-2.5-0.4-2.5S66,35.7,66.6,36.5z"/>
	<path class="st2" d="M63.3,26.9c0.9-0.8,1.9-0.1,1.9-0.1s0.6,1.1-0.3,1.9c-0.9,0.8-2.9,0.9-2.9,0.9S62.4,27.7,63.3,26.9z"/>
	<path class="st2" d="M71.9,34.6c0.6-1.4,2.3-1.1,2.3-1.1s1.3,1,0.7,2.4c-0.6,1.4-2.9,2.7-2.9,2.7S71.3,36,71.9,34.6z"/>
	<path class="st2" d="M68.2,32.3c0.9-1.3,2.5-0.7,2.5-0.7s1.1,1.3,0.2,2.6c-0.9,1.3-3.5,2.1-3.5,2.1S67.3,33.6,68.2,32.3z"/>
	<path class="st2" d="M65.6,29.5c0.9-1,2.2-0.3,2.2-0.3s0.8,1.2-0.1,2.2c-0.9,1-3.1,1.3-3.1,1.3S64.7,30.5,65.6,29.5z"/>
	<path class="st2" d="M75.4,36.4c0.2-1.4,1.8-1.5,1.8-1.5s1.4,0.6,1.2,2c-0.2,1.4-2,3-2,3S75.2,37.8,75.4,36.4z"/>
	<path class="st5" d="M68,76.4c1.1-0.1,1.5,1.1,1.5,1.1s-0.2,1.2-1.3,1.2c-1.1,0.1-2.6-1-2.6-1S66.9,76.5,68,76.4z"/>
	<path class="st3" d="M68.5,80c0.9-0.8,1.9,0,1.9,0s0.6,1.1-0.3,1.9c-0.9,0.8-2.9,0.9-2.9,0.9S67.7,80.8,68.5,80z"/>
	<path class="st5" d="M68.7,82.9c0.8-0.5,1.5,0.3,1.5,0.3s0.3,1-0.6,1.5c-0.8,0.5-2.4,0.2-2.4,0.2S67.8,83.4,68.7,82.9z"/>
	<path class="st5" d="M66.4,79.1c0.7-0.4,1.3,0.3,1.3,0.3s0.2,0.9-0.5,1.3c-0.7,0.4-2.1,0.2-2.1,0.2S65.7,79.5,66.4,79.1z"/>
	<path class="st5" d="M71.7,85.9c0.7-0.6,1.6,0,1.6,0s0.5,0.9-0.2,1.6c-0.7,0.6-2.3,0.7-2.3,0.7S71,86.5,71.7,85.9z"/>
	<path class="st3" d="M71.2,82.7c0.8-1,2.1-0.5,2.1-0.5s0.9,1.1,0.1,2.1c-0.8,1-2.9,1.6-2.9,1.6S70.5,83.7,71.2,82.7z"/>
	<path class="st3" d="M74.2,85.2c0.4-1.3,1.9-1.2,1.9-1.2s1.3,0.8,0.9,2.1c-0.4,1.3-2.3,2.7-2.3,2.7S73.8,86.5,74.2,85.2z"/>
	<path class="st3" d="M77.8,86.6c0.1-1.2,1.5-1.4,1.5-1.4s1.3,0.5,1.2,1.7c-0.1,1.2-1.6,2.8-1.6,2.8S77.7,87.9,77.8,86.6z"/>
	<path class="st5" d="M81.4,87.1c-0.1-1.2,1.2-1.7,1.2-1.7s1.3,0.3,1.4,1.5c0.1,1.2-1.1,3-1.1,3S81.5,88.4,81.4,87.1z"/>
	<path class="st5" d="M85.1,86.9c-0.1-1,1-1.4,1-1.4s1.1,0.2,1.2,1.3c0.1,1-0.9,2.5-0.9,2.5S85.1,87.9,85.1,86.9z"/>
	<path class="st5" d="M86,81.6c-0.1,1-1.3,1.2-1.3,1.2s-1.1-0.4-0.9-1.5c0.1-1,1.4-2.3,1.4-2.3S86.1,80.6,86,81.6z"/>
	<path class="st5" d="M88.5,81.7c-0.1,0.8-1,0.9-1,0.9s-0.8-0.3-0.7-1.1c0.1-0.8,1.1-1.7,1.1-1.7S88.6,81,88.5,81.7z"/>
	<path class="st5" d="M81.9,77.8c-0.1,0.8-1,0.9-1,0.9s-0.8-0.3-0.7-1.1c0.1-0.8,1.1-1.7,1.1-1.7S82,77,81.9,77.8z"/>
	<path class="st5" d="M84.6,78.7c-0.1,0.6-0.8,0.7-0.8,0.7s-0.6-0.3-0.6-0.9c0.1-0.6,0.9-1.4,0.9-1.4S84.7,78.1,84.6,78.7z"/>
	<path class="st5" d="M71.5,75.3c0.1,1.1-1.1,1.4-1.1,1.4s-1.1-0.2-1.2-1.3c-0.1-1.1,1-2.6,1-2.6S71.5,74.3,71.5,75.3z"/>
	<path class="st5" d="M73.9,77.8c-0.6,0.9-1.7,0.6-1.7,0.6s-0.8-0.8-0.3-1.7c0.6-0.9,2.3-1.6,2.3-1.6S74.4,76.9,73.9,77.8z"/>
	<path class="st5" d="M76.5,79.4c-0.6,1-1.8,0.6-1.8,0.6s-0.9-0.9-0.3-1.9c0.6-1,2.4-1.7,2.4-1.7S77.1,78.4,76.5,79.4z"/>
	<path class="st2" d="M79.6,80.5c-0.4,1.1-1.7,1-1.7,1s-1.1-0.7-0.7-1.9c0.4-1.1,2.2-2.2,2.2-2.2S80,79.4,79.6,80.5z"/>
	<path class="st2" d="M76.6,75.5c-0.3,0.8-1.2,0.7-1.2,0.7s-0.8-0.5-0.5-1.3c0.3-0.8,1.5-1.6,1.5-1.6S76.8,74.7,76.6,75.5z"/>
	<path class="st2" d="M79.3,76.7c-0.3,0.9-1.4,0.8-1.4,0.8S77,76.9,77.4,76c0.3-0.9,1.7-1.8,1.7-1.8S79.6,75.8,79.3,76.7z"/>
	<path class="st2" d="M73.2,75c-0.6,0.5-1.2,0-1.2,0s-0.3-0.7,0.2-1.2c0.6-0.5,1.8-0.5,1.8-0.5S73.8,74.6,73.2,75z"/>
	<path class="st2" d="M82.9,81.4c-0.4,1.1-1.7,1-1.7,1s-1.1-0.7-0.7-1.9c0.4-1.1,2.2-2.2,2.2-2.2S83.3,80.2,82.9,81.4z"/>
	<path class="st5" d="M110.2,22.1c-0.3,1.3-1.8,1.3-1.8,1.3s-1.3-0.7-1-2c0.3-1.3,2.2-2.7,2.2-2.7S110.5,20.8,110.2,22.1z"/>
	<path class="st3" d="M112.8,44.3c-1.1,0.7-2.1-0.3-2.1-0.3s-0.4-1.3,0.6-2c1.1-0.7,3.2-0.4,3.2-0.4S113.9,43.6,112.8,44.3z"/>
	<path class="st3" d="M111.7,41.1c-1.3,0.1-1.7-1.2-1.7-1.2s0.2-1.4,1.5-1.5c1.3-0.1,3.1,1,3.1,1S113,40.9,111.7,41.1z"/>
	<path class="st3" d="M110.7,38c-1.1,0.4-1.9-0.7-1.9-0.7s-0.1-1.3,1-1.7c1.1-0.4,3.1,0.3,3.1,0.3S111.9,37.6,110.7,38z"/>
	<path class="st5" d="M107,23.2c0.4,1.2-0.7,2-0.7,2s-1.4,0.1-1.9-1.1c-0.4-1.2,0.2-3.3,0.2-3.3S106.6,22,107,23.2z"/>
	<path class="st5" d="M102.6,33.8c1.5,0,2,1.6,2,1.6s-0.4,1.6-1.9,1.6c-1.5,0-3.6-1.6-3.6-1.6S101,33.8,102.6,33.8z"/>
	<path class="st5" d="M102.7,29.4c1.6,0.3,1.7,2,1.7,2s-0.7,1.6-2.3,1.3c-1.6-0.3-3.4-2.4-3.4-2.4S101.2,29.1,102.7,29.4z"/>
	<path class="st5" d="M104.5,25.7c1.1,0.7,0.7,2.1,0.7,2.1s-1.1,1-2.2,0.3c-1.1-0.7-1.9-2.9-1.9-2.9S103.3,25,104.5,25.7z"/>
	<path class="st3" d="M109.4,24.2c-0.8,0.5-0.5,1.5-0.5,1.5s0.7,0.7,1.5,0.2c0.8-0.5,1.4-2,1.4-2S110.2,23.7,109.4,24.2z"/>
	<path class="st5" d="M112,33.8c-0.7,0.4-0.4,1.2-0.4,1.2s0.6,0.6,1.3,0.2c0.7-0.4,1.1-1.6,1.1-1.6S112.6,33.4,112,33.8z"/>
	<path class="st3" d="M108.7,32.6c-1.2,0.1-1.4,1.3-1.4,1.3s0.4,1.2,1.6,1.1c1.2-0.1,2.7-1.4,2.7-1.4S109.9,32.5,108.7,32.6z"/>
	<path class="st3" d="M108.4,29.7c-1.1-0.1-1.5,1-1.5,1s0.1,1.2,1.2,1.3c1.1,0.1,2.7-0.8,2.7-0.8S109.5,29.9,108.4,29.7z"/>
	<path class="st3" d="M108.7,26.7c-1.1,0-1.3,1.2-1.3,1.2s0.3,1.1,1.4,1.1c1.1,0,2.5-1.2,2.5-1.2S109.8,26.7,108.7,26.7z"/>
	<path class="st5" d="M147.1,56.9c-0.8-0.1-1-0.9-1-0.9s0.3-0.8,1.1-0.8c0.8,0.1,1.8,1,1.8,1S147.9,57,147.1,56.9z"/>
	<path class="st5" d="M146.9,54.3c-0.7-0.1-0.8-0.8-0.8-0.8s0.2-0.7,0.9-0.6c0.7,0.1,1.5,0.8,1.5,0.8S147.6,54.4,146.9,54.3z"/>
	<path class="st5" d="M147.1,51.8c-0.6,0.2-1-0.4-1-0.4s0-0.7,0.6-0.9c0.6-0.2,1.7,0.2,1.7,0.2S147.7,51.6,147.1,51.8z"/>
	<path class="st5" d="M146.7,59.8c-1-0.4-0.9-1.6-0.9-1.6s0.7-1,1.7-0.6c1,0.4,2,1.9,2,1.9S147.7,60.2,146.7,59.8z"/>
	<path class="st5" d="M103.6,37.7c1.3-0.6,2.3,0.6,2.3,0.6s0.3,1.5-1,2.1c-1.3,0.6-3.7,0.1-3.7,0.1S102.4,38.3,103.6,37.7z"/>
	<path class="st5" d="M145.5,62.6c-0.9-0.6-0.5-1.7-0.5-1.7s0.8-0.8,1.7-0.2c0.9,0.6,1.5,2.3,1.5,2.3S146.4,63.2,145.5,62.6z"/>
	<path class="st5" d="M143.8,65.2c-0.8-0.7-0.2-1.7-0.2-1.7s1-0.6,1.7,0.1c0.8,0.7,1.1,2.5,1.1,2.5S144.6,66,143.8,65.2z"/>
	<path class="st5" d="M141.5,67.8c-0.6-0.9,0.2-1.7,0.2-1.7s1.1-0.4,1.7,0.5c0.6,0.9,0.4,2.7,0.4,2.7S142,68.7,141.5,67.8z"/>
	<path class="st3" d="M62.4,22.9c-0.6,1-1.8,0.7-1.8,0.7s-0.9-0.9-0.4-1.9c0.6-1,2.4-1.8,2.4-1.8S63,21.8,62.4,22.9z"/>
	<path class="st5" d="M105.4,41c1.2-0.2,1.7,1,1.7,1s-0.1,1.3-1.3,1.5c-1.2,0.2-2.9-0.8-2.9-0.8S104.3,41.2,105.4,41z"/>
	<path class="st2" d="M100.6,26.8c1.1,0.2,1.2,1.5,1.2,1.5s-0.5,1.2-1.7,1c-1.1-0.2-2.5-1.7-2.5-1.7S99.4,26.6,100.6,26.8z"/>
	<path class="st2" d="M100.2,37c1.2,0,1.5,1.2,1.5,1.2s-0.3,1.2-1.5,1.2c-1.2,0-2.7-1.2-2.7-1.2S99,37,100.2,37z"/>
	<path class="st2" d="M96.3,34.2c1.4,0,1.7,1.5,1.7,1.5s-0.4,1.5-1.7,1.5c-1.4,0-3.2-1.5-3.2-1.5S94.9,34.2,96.3,34.2z"/>
	<path class="st2" d="M99.1,31.7c1.4,0.2,1.5,1.7,1.5,1.7s-0.6,1.4-2,1.1c-1.3-0.2-2.9-2-2.9-2S97.7,31.4,99.1,31.7z"/>
	<path class="st6" d="M134.1,31.5c-1-0.1-1.4,1-1.4,1s0.2,1.1,1.2,1.2c1,0.1,2.5-1,2.5-1S135.1,31.6,134.1,31.5z"/>
	<path class="st7" d="M127.4,33c1,1.1,2.5,0.3,2.5,0.3s0.9-1.4-0.1-2.5c-1-1.1-3.7-1.5-3.7-1.5S126.4,31.9,127.4,33z"/>
	<path class="st8" d="M133.4,34.9c-1.2-0.6-2.1,0.5-2.1,0.5s-0.3,1.4,0.9,2c1.2,0.6,3.4,0.1,3.4,0.1S134.6,35.5,133.4,34.9z"/>
	<path class="st7" d="M131.6,38.6c-1-1-2.3-0.1-2.3-0.1s-0.7,1.3,0.3,2.3c1,1,3.4,1.2,3.4,1.2S132.6,39.6,131.6,38.6z"/>
	<path class="st8" d="M128.4,41.7c-1-0.9-2.3-0.1-2.3-0.1s-0.7,1.3,0.3,2.2c1,0.9,3.3,1.1,3.3,1.1S129.4,42.6,128.4,41.7z"/>
	<path class="st6" d="M125.5,44.4c-0.7-1.2-2.1-0.8-2.1-0.8s-1.1,1-0.4,2.2c0.7,1.2,2.9,2.1,2.9,2.1S126.1,45.6,125.5,44.4z"/>
	<path class="st9" d="M122.3,46.3c-0.4-1.3-1.9-1.3-1.9-1.3s-1.3,0.8-0.9,2.1c0.4,1.3,2.3,2.7,2.3,2.7S122.7,47.6,122.3,46.3z"/>
	<path class="st2" d="M131.9,42.5c-0.7-0.7-1.7-0.1-1.7-0.1s-0.6,1,0.2,1.7c0.7,0.7,2.5,0.9,2.5,0.9S132.6,43.2,131.9,42.5z"/>
	<path class="st2" d="M134.7,38.4c-1-0.4-1.8,0.5-1.8,0.5s-0.2,1.2,0.8,1.6c1,0.4,2.8,0,2.8,0S135.7,38.8,134.7,38.4z"/>
	<path class="st2" d="M135,42.4c-0.6-0.5-1.4,0-1.4,0s-0.4,0.8,0.3,1.4c0.6,0.5,2.1,0.6,2.1,0.6S135.6,43,135,42.4z"/>
	<path class="st2" d="M128.6,45.4c-0.8-0.8-1.8-0.1-1.8-0.1s-0.6,1,0.2,1.8c0.8,0.8,2.7,1,2.7,1S129.4,46.1,128.6,45.4z"/>
	<path class="st2" d="M136.4,34.3c-0.8-0.3-1.3,0.4-1.3,0.4s-0.1,0.9,0.7,1.2c0.8,0.3,2.2-0.1,2.2-0.1S137.2,34.6,136.4,34.3z"/>
	<path class="st10" d="M125.5,36.6c1.3,0.9,2.6-0.2,2.6-0.2s0.6-1.6-0.7-2.6c-1.3-0.9-4-0.8-4-0.8S124.2,35.6,125.5,36.6z"/>
	<path class="st7" d="M121.9,39c1.1,1.1,2.6,0.2,2.6,0.2s0.9-1.5-0.2-2.6c-1.1-1.1-3.8-1.4-3.8-1.4S120.8,37.9,121.9,39z"/>
	<path class="st8" d="M118,40.8c0.5,1.4,2.1,1.1,2.1,1.1s1.3-0.9,0.7-2.3c-0.5-1.4-2.7-2.6-2.7-2.6S117.5,39.4,118,40.8z"/>
	<path class="st6" d="M114.5,42c0.3,1.2,1.6,1.3,1.6,1.3s1.3-0.6,1-1.9c-0.3-1.2-1.9-2.7-1.9-2.7S114.3,40.8,114.5,42z"/>
	<path class="st8" d="M128.8,29c0.7,1.2,2.2,0.8,2.2,0.8s1.1-1.1,0.4-2.3c-0.7-1.2-3-2.1-3-2.1S128.1,27.7,128.8,29z"/>
	<path class="st3" d="M137.1,50.6c0.8,0.6,0.4,1.6,0.4,1.6s-0.8,0.7-1.6,0.1c-0.8-0.6-1.2-2.2-1.2-2.2S136.3,50,137.1,50.6z"/>
	<path class="st3" d="M135.4,52.7c0.5,1-0.4,1.7-0.4,1.7s-1.2,0.3-1.7-0.7c-0.5-1-0.2-2.8-0.2-2.8S134.9,51.7,135.4,52.7z"/>
	<path class="st3" d="M132.9,54.6c0.1,1.1-1.1,1.6-1.1,1.6s-1.2-0.2-1.3-1.4c-0.1-1.1,1-2.8,1-2.8S132.8,53.5,132.9,54.6z"/>
	<path class="st3" d="M129.6,55.3c0.4,1.3-0.9,2-0.9,2s-1.4,0.1-1.8-1.2c-0.4-1.3,0.5-3.4,0.5-3.4S129.2,54,129.6,55.3z"/>
	<path class="st5" d="M126.2,56.6c0.5,1.2-0.6,2.1-0.6,2.1s-1.4,0.2-1.9-1c-0.5-1.2,0-3.4,0-3.4S125.7,55.4,126.2,56.6z"/>
	<path class="st2" d="M107.2,19.5c-0.3,0.9-1.3,0.8-1.3,0.8s-0.8-0.6-0.5-1.4c0.3-0.9,1.7-1.7,1.7-1.7S107.6,18.6,107.2,19.5z"/>
	<path class="st2" d="M113.3,20.9c0,0.9-0.9,1.2-0.9,1.2s-1-0.2-1-1.1c-0.1-0.9,0.9-2.2,0.9-2.2S113.3,20,113.3,20.9z"/>
	<path class="st2" d="M115.5,18.7c0.5,0.8-0.2,1.5-0.2,1.5s-1,0.3-1.5-0.4c-0.5-0.8-0.4-2.4-0.4-2.4S115,17.9,115.5,18.7z"/>
	<path class="st2" d="M102.3,17.3c-0.4,0.8-1.4,0.6-1.4,0.6s-0.8-0.7-0.4-1.5c0.4-0.8,1.9-1.5,1.9-1.5S102.7,16.5,102.3,17.3z"/>
	<path class="st3" d="M138.9,48.5c0.5,0.9-0.3,1.6-0.3,1.6s-1,0.3-1.5-0.6c-0.5-0.9-0.2-2.5-0.2-2.5S138.5,47.6,138.9,48.5z"/>
	<path class="st2" d="M74.2,23.7c-0.7,1.1-2,0.6-2,0.6s-1-1-0.3-2.1c0.7-1.1,2.8-1.8,2.8-1.8S74.9,22.6,74.2,23.7z"/>
	<path class="st5" d="M81.2,39.4c-0.9,0.3-0.9,1.4-0.9,1.4s0.6,0.9,1.5,0.6c0.9-0.3,1.9-1.7,1.9-1.7S82.2,39.1,81.2,39.4z"/>
	<path class="st5" d="M82.7,41.9c-1.1,0.2-1.1,1.4-1.1,1.4s0.5,1.1,1.6,0.9c1.1-0.2,2.3-1.6,2.3-1.6S83.8,41.7,82.7,41.9z"/>
	<path class="st5" d="M84,44.9c-1.1-0.3-1.7,0.8-1.7,0.8s0,1.3,1.1,1.5c1.1,0.3,2.9-0.5,2.9-0.5S85.1,45.2,84,44.9z"/>
	<path class="st5" d="M83.4,47.9c-1.3-0.3-2,0.9-2,0.9s0,1.4,1.3,1.8c1.3,0.3,3.3-0.6,3.3-0.6S84.7,48.2,83.4,47.9z"/>
	<path class="st5" d="M82.5,51.5c-1.2-0.6-2.1,0.4-2.1,0.4s-0.3,1.4,0.8,2c1.2,0.6,3.4,0.2,3.4,0.2S83.6,52.1,82.5,51.5z"/>
	<path class="st5" d="M81.9,55.1c-1.1-0.7-2.2,0.2-2.2,0.2s-0.5,1.4,0.6,2.1c1.1,0.7,3.3,0.6,3.3,0.6S83,55.9,81.9,55.1z"/>
	<path class="st5" d="M78.9,37.5c-0.6,0.8,0.2,1.6,0.2,1.6s1,0.4,1.6-0.4c0.6-0.8,0.4-2.5,0.4-2.5S79.4,36.6,78.9,37.5z"/>
	<path class="st5" d="M117.1,36c0.5,1.2-0.7,2-0.7,2s-1.4,0.2-1.9-1c-0.5-1.2,0.2-3.3,0.2-3.3S116.6,34.8,117.1,36z"/>
	<path class="st6" d="M119.3,33.8c0.7,1.1-0.2,2.1-0.2,2.1s-1.3,0.5-2.1-0.6c-0.7-1.1-0.6-3.3-0.6-3.3S118.6,32.7,119.3,33.8z"/>
	<path class="st2" d="M121.1,28.2c0.7,0.6,0.2,1.5,0.2,1.5s-0.9,0.5-1.5-0.1c-0.7-0.6-0.9-2.2-0.9-2.2S120.4,27.6,121.1,28.2z"/>
	<path class="st2" d="M118.5,30.3c0.4,0.9-0.5,1.5-0.5,1.5s-1,0.1-1.4-0.7c-0.4-0.9,0.1-2.4,0.1-2.4S118.2,29.4,118.5,30.3z"/>
	<path class="st5" d="M111.7,30.6c-1,0.1-1.4-0.9-1.4-0.9s0.2-1.1,1.2-1.2c1-0.1,2.5,0.8,2.5,0.8S112.8,30.5,111.7,30.6z"/>
	<path class="st5" d="M112.3,27.6c-1,0.1-1.4-0.9-1.4-0.9s0.2-1.1,1.2-1.2c1-0.1,2.5,0.8,2.5,0.8S113.3,27.5,112.3,27.6z"/>
	<path class="st5" d="M112.4,33.2c-1,0.1-1.4-0.9-1.4-0.9s0.2-1.1,1.2-1.2c1-0.1,2.5,0.8,2.5,0.8S113.4,33.1,112.4,33.2z"/>
	<path class="st8" d="M122.3,32c0.9,1.1-0.1,2.3-0.1,2.3s-1.4,0.6-2.3-0.5c-0.9-1.1-0.9-3.5-0.9-3.5S121.4,30.9,122.3,32z"/>
	<path class="st8" d="M125.3,29.8c0.9,1.1,0,2.3,0,2.3s-1.4,0.7-2.3-0.4c-0.9-1.1-1-3.5-1-3.5S124.3,28.7,125.3,29.8z"/>
	<path class="st6" d="M127.2,26.5c0.9,0.8,0.2,1.9,0.2,1.9s-1.1,0.7-2-0.1c-0.9-0.8-1.2-2.8-1.2-2.8S126.3,25.7,127.2,26.5z"/>
	<path class="st2" d="M139,56.2c-0.9-0.3-0.8-1.3-0.8-1.3s0.6-0.8,1.4-0.5c0.9,0.3,1.7,1.6,1.7,1.6S139.9,56.5,139,56.2z"/>
	<path class="st2" d="M139.7,53.6c-0.8-0.3-0.7-1.2-0.7-1.2s0.5-0.8,1.3-0.5c0.8,0.3,1.5,1.5,1.5,1.5S140.5,53.9,139.7,53.6z"/>
	<path class="st5" d="M140.6,51.1c-0.8,0-1.1-0.8-1.1-0.8s0.2-0.9,1-0.9c0.8,0,1.9,0.8,1.9,0.8S141.4,51.1,140.6,51.1z"/>
	<path class="st2" d="M137.3,58.5c-0.9-0.6-0.5-1.7-0.5-1.7s0.9-0.8,1.8-0.2c0.9,0.6,1.5,2.4,1.5,2.4S138.2,59.2,137.3,58.5z"/>
	<path class="st2" d="M135,60.2c-0.7-0.8-0.1-1.7-0.1-1.7s1-0.6,1.7,0.2c0.7,0.8,0.9,2.6,0.9,2.6S135.7,61,135,60.2z"/>
	<path class="st2" d="M132.3,61.3c-0.6-0.9,0.2-1.7,0.2-1.7s1.1-0.4,1.7,0.5c0.6,0.9,0.4,2.7,0.4,2.7S132.9,62.2,132.3,61.3z"/>
	<path class="st2" d="M129.5,61.9c-0.3-1,0.7-1.6,0.7-1.6s1.2,0,1.5,1c0.3,1-0.4,2.7-0.4,2.7S129.8,62.9,129.5,61.9z"/>
	<path class="st5" d="M135.3,48c0.5,0.7-0.1,1.4-0.1,1.4s-0.9,0.4-1.4-0.3c-0.5-0.7-0.5-2.2-0.5-2.2S134.8,47.3,135.3,48z"/>
	<path class="st5" d="M133.1,49.1c0.4,1-0.5,1.7-0.5,1.7S131.4,51,131,50c-0.4-1,0.1-2.8,0.1-2.8S132.7,48.1,133.1,49.1z"/>
	<path class="st3" d="M141.3,47.3c-0.2,1-1.3,1-1.3,1s-1-0.5-0.7-1.5c0.2-1,1.5-2,1.5-2S141.5,46.4,141.3,47.3z"/>
	<path class="st3" d="M146.8,49.5c-0.2,0.7-0.9,0.7-0.9,0.7s-0.7-0.4-0.5-1.1c0.2-0.7,1.1-1.5,1.1-1.5S146.9,48.8,146.8,49.5z"/>
	<path class="st5" d="M130.5,51.2c0.2,1.2-1,1.8-1,1.8s-1.3-0.1-1.6-1.3c-0.2-1.2,0.7-3.1,0.7-3.1S130.3,50,130.5,51.2z"/>
	<path class="st3" d="M143.7,52.1c0.8,0.2,0.9,1.1,0.9,1.1s-0.4,0.8-1.2,0.7c-0.8-0.2-1.8-1.3-1.8-1.3S142.9,51.9,143.7,52.1z"/>
	<path class="st3" d="M143,54.4c0.8,0.2,0.8,1.2,0.8,1.2s-0.5,0.8-1.3,0.6c-0.8-0.2-1.7-1.4-1.7-1.4S142.2,54.2,143,54.4z"/>
	<path class="st3" d="M141.1,52.8c0.7,0.2,0.6,1,0.6,1s-0.4,0.7-1.1,0.5c-0.7-0.2-1.4-1.2-1.4-1.2S140.4,52.6,141.1,52.8z"/>
	<path class="st3" d="M139.7,54.3c0.7,0.2,0.6,1,0.6,1s-0.4,0.7-1.1,0.5c-0.7-0.2-1.4-1.2-1.4-1.2S139.1,54.1,139.7,54.3z"/>
	<path class="st3" d="M138.6,55.9c0.7,0.2,0.6,1,0.6,1s-0.4,0.7-1.1,0.5c-0.7-0.2-1.4-1.2-1.4-1.2S137.9,55.7,138.6,55.9z"/>
	<path class="st3" d="M142.3,50.4c0.7,0.2,0.6,1,0.6,1s-0.4,0.7-1.1,0.5c-0.7-0.2-1.4-1.2-1.4-1.2S141.7,50.2,142.3,50.4z"/>
	<path class="st3" d="M141.1,59.5c0.5,0.9-0.3,1.7-0.3,1.7s-1.1,0.3-1.6-0.6c-0.5-0.9-0.2-2.7-0.2-2.7S140.5,58.6,141.1,59.5z"/>
	<path class="st3" d="M138.7,61.1c0.7,0.8,0,1.8,0,1.8s-1,0.5-1.7-0.3c-0.7-0.8-0.8-2.6-0.8-2.6S138,60.3,138.7,61.1z"/>
	<path class="st3" d="M136,62.7c0.3,1-0.6,1.6-0.6,1.6s-1.2,0.1-1.5-0.9c-0.3-1,0.3-2.7,0.3-2.7S135.7,61.7,136,62.7z"/>
	<path class="st3" d="M142.2,56.7c0.8,0.5,0.6,1.5,0.6,1.5s-0.7,0.8-1.6,0.3c-0.8-0.5-1.5-2-1.5-2S141.4,56.2,142.2,56.7z"/>
	<path class="st3" d="M145,50c0.7,0.5,0.3,1.3,0.3,1.3s-0.7,0.6-1.3,0.1c-0.7-0.5-1-1.8-1-1.8S144.3,49.5,145,50z"/>
	<path class="st3" d="M75.9,19.7c1.5,0.2,1.7,1.9,1.7,1.9S77,23.2,75.5,23c-1.5-0.2-3.4-2.1-3.4-2.1S74.4,19.5,75.9,19.7z"/>
	<path class="st5" d="M72.7,16.8c1.4,0.4,1.3,1.9,1.3,1.9s-0.8,1.3-2.1,1c-1.4-0.4-2.8-2.4-2.8-2.4S71.3,16.4,72.7,16.8z"/>
	<g>
		<path class="st5" d="M121,23c-0.9,0-1.1-1-1.1-1s0.3-1,1.2-0.9c0.9,0,2.1,1,2.1,1S121.9,23.1,121,23z"/>
		<path class="st5" d="M119.4,25.2c-0.9-0.3-0.8-1.3-0.8-1.3s0.6-0.8,1.4-0.5c0.9,0.3,1.7,1.7,1.7,1.7S120.3,25.6,119.4,25.2z"/>
		<path class="st4" d="M115.3,30.2l-0.5-1c0,0,1-5.3,5-8c0,0-3.7,3.9-3.9,8L115.3,30.2z"/>
		<path class="st3" d="M116.6,22c0.6,0.7,0.1,1.5,0.1,1.5s-0.9,0.5-1.5-0.2c-0.6-0.7-0.7-2.3-0.7-2.3S116,21.3,116.6,22z"/>
		<path class="st3" d="M118.6,20.1c0.5,0.8-0.3,1.5-0.3,1.5s-1,0.3-1.4-0.5c-0.5-0.8-0.2-2.4-0.2-2.4S118.1,19.3,118.6,20.1z"/>
		<path class="st3" d="M115.2,24.3c0.9,1,0.1,2.1,0.1,2.1s-1.3,0.7-2.1-0.3c-0.9-1-1.1-3.2-1.1-3.2S114.3,23.4,115.2,24.3z"/>
		<path class="st5" d="M118.2,28.1c-1.1-0.4-1-1.7-1-1.7s0.7-1.1,1.9-0.7c1.1,0.4,2.2,2.2,2.2,2.2S119.3,28.5,118.2,28.1z"/>
	</g>
	<g>
		<path class="st5" d="M137.6,38.9c0.5,0.5,1.1,0,1.1,0s0.4-0.7-0.2-1.1c-0.5-0.5-1.7-0.5-1.7-0.5S137.1,38.4,137.6,38.9z"/>
		<path class="st5" d="M137.4,40.8c0.6,0.3,1.1-0.3,1.1-0.3s0.1-0.7-0.5-1c-0.6-0.3-1.8,0-1.8,0S136.7,40.6,137.4,40.8z"/>
		<path class="st11" d="M137,45.6l0.8-0.3c0,0,2.2-3.3,1.4-6.8c0,0,0,4-2,6.3L137,45.6z"/>
		<path class="st3" d="M140.5,40.5c-0.7,0-0.8,0.8-0.8,0.8s0.2,0.7,0.9,0.7c0.7,0,1.5-0.8,1.5-0.8S141.2,40.5,140.5,40.5z"/>
		<path class="st3" d="M140.4,38.6c-0.7,0.2-0.6,0.9-0.6,0.9s0.4,0.6,1,0.4c0.7-0.2,1.3-1.1,1.3-1.1S141.1,38.4,140.4,38.6z"/>
		<path class="st3" d="M140.1,42.5c-1,0.1-1.2,1.1-1.2,1.1s0.3,1,1.3,0.9c1-0.1,2.2-1.1,2.2-1.1S141,42.5,140.1,42.5z"/>
		<path class="st5" d="M136.5,43c0.8,0.4,1.4-0.4,1.4-0.4s0.2-0.9-0.6-1.3c-0.8-0.4-2.3,0-2.3,0S135.7,42.6,136.5,43z"/>
	</g>
	<path class="st12" d="M127.8,25.8c0.3,1-0.6,1.5-0.6,1.5s-1.1,0.1-1.4-0.9c-0.3-1,0.3-2.6,0.3-2.6S127.5,24.8,127.8,25.8z"/>
	<path class="st5" d="M94.1,16.7c0.7,0.5,1.3-0.1,1.3-0.1s0.3-0.8-0.4-1.3c-0.7-0.5-2.1-0.4-2.1-0.4S93.5,16.3,94.1,16.7z"/>
	<path class="st2" d="M90.6,16.6c0.7,0.5,1.3-0.1,1.3-0.1s0.3-0.8-0.4-1.3c-0.7-0.5-2.1-0.4-2.1-0.4S89.9,16.1,90.6,16.6z"/>
	<path class="st5" d="M93.7,19.9c1,0.3,1.6-0.7,1.6-0.7s0-1.2-1-1.5c-1-0.3-2.8,0.4-2.8,0.4S92.7,19.6,93.7,19.9z"/>
	<path class="st4" d="M94.2,27.5l1.1-0.6c0,0,2.7-5.7,0.8-11c0,0,0.8,6.3-1.8,10.3L94.2,27.5z"/>
	<path class="st3" d="M98.5,18.8c-1.1,0.2-1.1,1.4-1.1,1.4s0.5,1.1,1.6,0.8c1.1-0.2,2.3-1.6,2.3-1.6S99.6,18.6,98.5,18.8z"/>
	<path class="st3" d="M97.9,15.8c-0.8,0.4-0.7,1.4-0.7,1.4s0.6,0.8,1.5,0.4c0.8-0.4,1.6-1.8,1.6-1.8S98.8,15.4,97.9,15.8z"/>
	<path class="st3" d="M98.3,22c-1.5,0.3-1.6,2-1.6,2s0.7,1.5,2.2,1.2c1.5-0.3,3.2-2.3,3.2-2.3S99.8,21.7,98.3,22z"/>
	<path class="st5" d="M92.8,23.5c1.3,0.4,2.1-0.9,2.1-0.9s0-1.5-1.3-1.9c-1.3-0.4-3.6,0.5-3.6,0.5S91.5,23.1,92.8,23.5z"/>
	<g>
		<path class="st5" d="M116.6,57.6c-0.6-0.9,0.2-1.8,0.2-1.8s1.1-0.4,1.7,0.5c0.6,0.9,0.5,2.7,0.5,2.7S117.2,58.5,116.6,57.6z"/>
		<path class="st5" d="M113.4,57.5c-0.3-1,0.7-1.6,0.7-1.6s1.2,0,1.5,1c0.3,1-0.4,2.7-0.4,2.7S113.7,58.6,113.4,57.5z"/>
		<path class="st4" d="M102.8,58.3l0.6-1.1c0,0,6.1-3.8,14.1-1.9c0,0-8.8-0.8-14.4,3.4L102.8,58.3z"/>
		<path class="st3" d="M114.6,52.7c-0.2,1.1-1.4,1.1-1.4,1.1s-1.1-0.5-0.8-1.6c0.2-1.1,1.7-2.2,1.7-2.2S114.8,51.7,114.6,52.7z"/>
		<path class="st3" d="M117.7,53.3c-0.5,1-1.6,0.8-1.6,0.8s-0.9-0.7-0.5-1.7c0.5-1,2.1-1.8,2.1-1.8S118.2,52.3,117.7,53.3z"/>
		<path class="st3" d="M119.8,55.3c-1,0.5-1.7-0.4-1.7-0.4s-0.2-1.2,0.7-1.6c1-0.5,2.8-0.1,2.8-0.1S120.8,54.8,119.8,55.3z"/>
		<path class="st3" d="M111.4,52.9c-0.3,1.5-2,1.6-2,1.6s-1.5-0.7-1.2-2.2c0.3-1.5,2.3-3.2,2.3-3.2S111.7,51.4,111.4,52.9z"/>
		<path class="st5" d="M109.9,58.4c-0.4-1.3,1-2.1,1-2.1s1.5,0,1.9,1.3c0.4,1.3-0.6,3.5-0.6,3.5S110.2,59.7,109.9,58.4z"/>
	</g>
	<g>
		<path class="st5" d="M138.4,76.3c-0.5-0.8,0.2-1.5,0.2-1.5s1-0.3,1.4,0.5c0.5,0.8,0.3,2.4,0.3,2.4S138.9,77.1,138.4,76.3z"/>
		<path class="st5" d="M135.7,76.1c-0.2-0.9,0.7-1.4,0.7-1.4s1,0,1.2,0.9c0.2,0.9-0.5,2.3-0.5,2.3S135.9,77,135.7,76.1z"/>
		<path class="st2" d="M135.4,78.7c-0.1-0.6,0.5-0.9,0.5-0.9s0.7,0,0.8,0.7c0.1,0.6-0.4,1.6-0.4,1.6S135.5,79.4,135.4,78.7z"/>
		<path class="st2" d="M132.7,80c-0.4-0.5,0-1.2,0-1.2s0.7-0.3,1.1,0.2c0.4,0.5,0.5,1.7,0.5,1.7S133.1,80.5,132.7,80z"/>
		<path class="st4" d="M118,81.7v-0.6c-0.7,0.5,10.9-10.2,21.3-6.8c0,0-9.7-2.5-20.7,9L118,81.7z"/>
		<path class="st3" d="M137,72c-0.2,0.9-1.3,0.9-1.3,0.9s-0.9-0.5-0.6-1.4c0.2-0.9,1.5-1.8,1.5-1.8S137.2,71.1,137,72z"/>
		<path class="st5" d="M132.2,69.2c-0.2,0.9-1.3,0.9-1.3,0.9s-0.9-0.5-0.6-1.4c0.2-0.9,1.5-1.8,1.5-1.8S132.4,68.3,132.2,69.2z"/>
		<path class="st5" d="M136,69.1c-0.2,0.7-0.9,0.6-0.9,0.6s-0.7-0.4-0.5-1c0.2-0.7,1.1-1.4,1.1-1.4S136.2,68.4,136,69.1z"/>
		<path class="st5" d="M138.6,70c-0.1,0.5-0.7,0.5-0.7,0.5s-0.5-0.3-0.4-0.8c0.1-0.5,0.9-1.1,0.9-1.1S138.7,69.5,138.6,70z"/>
		<path class="st3" d="M139.6,72.6c-0.4,0.8-1.4,0.6-1.4,0.6s-0.7-0.7-0.3-1.5c0.4-0.8,1.9-1.4,1.9-1.4S140,71.8,139.6,72.6z"/>
		<path class="st3" d="M134.2,72c-0.3,1.3-1.8,1.2-1.8,1.2s-1.2-0.7-0.9-1.9c0.3-1.3,2.1-2.6,2.1-2.6S134.6,70.8,134.2,72z"/>
		<path class="st3" d="M130.7,72.2c0,1.3-1.3,1.7-1.3,1.7s-1.4-0.3-1.4-1.6c0-1.3,1.3-3.1,1.3-3.1S130.6,70.9,130.7,72.2z"/>
		<path class="st3" d="M127.3,73.2c0.5,1.2-0.7,2-0.7,2s-1.4,0.2-1.9-1c-0.5-1.2,0.2-3.3,0.2-3.3S126.8,72,127.3,73.2z"/>
		<path class="st5" d="M132.6,76.6c-0.2-1.2,0.9-1.7,0.9-1.7s1.3,0.1,1.5,1.2c0.2,1.2-0.7,3-0.7,3S132.9,77.8,132.6,76.6z"/>
		<path class="st5" d="M129.5,77.7c-0.4-1.1,0.7-1.8,0.7-1.8s1.3-0.1,1.7,1c0.4,1.1-0.3,3.1-0.3,3.1S129.9,78.8,129.5,77.7z"/>
		<path class="st5" d="M126.6,79c-0.2-1.2,0.9-1.7,0.9-1.7s1.3,0.1,1.5,1.2c0.2,1.2-0.7,3-0.7,3S126.9,80.2,126.6,79z"/>
	</g>
	<path class="st5" d="M45.1,59.1c-0.2,1.4-1.7,1.5-1.7,1.5s-1.4-0.6-1.2-1.9c0.2-1.4,1.9-3,1.9-3S45.3,57.8,45.1,59.1z"/>
	<path class="st5" d="M49.1,60.4c-0.3,1.3-1.8,1.3-1.8,1.3s-1.3-0.7-1-2c0.3-1.3,2.2-2.8,2.2-2.8S49.5,59.1,49.1,60.4z"/>
	<path class="st5" d="M52.4,63.9c-1.2,1-2.6,0-2.6,0s-0.7-1.5,0.5-2.5c1.2-1,3.8-1.1,3.8-1.1S53.6,62.9,52.4,63.9z"/>
	<g>
		<path class="st5" d="M88.8,47.2c0.5-0.8-0.2-1.5-0.2-1.5s-1-0.3-1.4,0.5c-0.5,0.8-0.3,2.4-0.3,2.4S88.3,48,88.8,47.2z"/>
		<path class="st5" d="M91.5,47c0.2-0.9-0.7-1.3-0.7-1.3s-1,0-1.2,0.9c-0.2,0.9,0.5,2.3,0.5,2.3S91.3,47.9,91.5,47z"/>
		<path class="st2" d="M91.8,49.6c0.1-0.6-0.5-0.9-0.5-0.9s-0.7,0-0.8,0.7C90.4,50,90.9,51,90.9,51S91.7,50.3,91.8,49.6z"/>
		<path class="st2" d="M94.5,50.9c0.4-0.5,0-1.2,0-1.2s-0.7-0.3-1.1,0.2c-0.4,0.5-0.5,1.8-0.5,1.8S94.1,51.4,94.5,50.9z"/>
		<path class="st4" d="M105.6,50.7v-0.6c0.7,0.5-8.5-7.9-17.7-4.9c0,0,8.1-2.6,17.1,7.1L105.6,50.7z"/>
		<path class="st3" d="M90.3,42.9c0.2,0.9,1.3,0.9,1.3,0.9s0.9-0.5,0.6-1.4c-0.2-0.9-1.5-1.8-1.5-1.8S90,42,90.3,42.9z"/>
		<path class="st5" d="M95.1,40.1c0.2,0.9,1.3,0.9,1.3,0.9s0.9-0.5,0.6-1.4c-0.2-0.9-1.5-1.8-1.5-1.8S94.8,39.2,95.1,40.1z"/>
		<path class="st5" d="M91.2,40c0.2,0.7,0.9,0.6,0.9,0.6s0.7-0.4,0.5-1c-0.2-0.7-1.1-1.4-1.1-1.4S91,39.4,91.2,40z"/>
		<path class="st5" d="M88.6,40.9c0.1,0.5,0.7,0.5,0.7,0.5s0.5-0.3,0.4-0.8c-0.1-0.5-0.9-1.1-0.9-1.1S88.5,40.4,88.6,40.9z"/>
		<path class="st3" d="M87.6,43.5c0.4,0.8,1.4,0.6,1.4,0.6s0.7-0.7,0.3-1.5c-0.4-0.8-1.9-1.4-1.9-1.4S87.2,42.7,87.6,43.5z"/>
		<path class="st3" d="M93,42.9c0.3,1.3,1.8,1.2,1.8,1.2s1.2-0.7,0.9-1.9c-0.3-1.3-2.1-2.6-2.1-2.6S92.7,41.7,93,42.9z"/>
		<path class="st3" d="M96.5,43.1c0,1.3,1.3,1.7,1.3,1.7s1.4-0.3,1.4-1.6c0-1.3-1.3-3.1-1.3-3.1S96.6,41.8,96.5,43.1z"/>
		<path class="st3" d="M100,44.1c-0.5,1.2,0.7,2,0.7,2s1.4,0.2,1.9-1c0.5-1.2-0.2-3.3-0.2-3.3S100.4,42.9,100,44.1z"/>
		<path class="st5" d="M94.6,47.5c0.2-1.2-0.9-1.7-0.9-1.7s-1.3,0.1-1.5,1.2c-0.2,1.2,0.7,3,0.7,3S94.4,48.7,94.6,47.5z"/>
		<path class="st5" d="M97.7,48.6c0.4-1.1-0.7-1.8-0.7-1.8s-1.3-0.1-1.7,1c-0.4,1.1,0.3,3.1,0.3,3.1S97.3,49.7,97.7,48.6z"/>
		<path class="st5" d="M100.6,49.9c0.2-1.2-0.9-1.7-0.9-1.7s-1.3,0.1-1.5,1.2c-0.2,1.2,0.7,3,0.7,3S100.4,51.1,100.6,49.9z"/>
	</g>
	<g>
		<path class="st3" d="M92.2,53.6c-0.5,0.8-1.5,0.5-1.5,0.5s-0.7-0.7-0.2-1.5c0.5-0.8,2-1.3,2-1.3S92.7,52.9,92.2,53.6z"/>
		<path class="st3" d="M93.3,56.2c-0.7,0.6-1.5,0-1.5,0s-0.4-0.9,0.3-1.5c0.7-0.6,2.3-0.6,2.3-0.6S94,55.6,93.3,56.2z"/>
		<path class="st5" d="M95.8,55.2c-0.5,0.4-1.1,0-1.1,0s-0.3-0.6,0.2-1c0.5-0.4,1.6-0.4,1.6-0.4S96.3,54.8,95.8,55.2z"/>
		<path class="st5" d="M98.1,57.1c-0.3,0.6-1,0.5-1,0.5s-0.6-0.5-0.3-1.1c0.3-0.6,1.3-1.2,1.3-1.2S98.4,56.4,98.1,57.1z"/>
		<path class="st4" d="M106.3,69.4l-0.5,0.3c0.7,0.4-14-5.1-15.7-15.9c0,0,2.2,9.8,17.4,14.4L106.3,69.4z"/>
		<path class="st3" d="M89.1,56.9c0.9-0.2,1.3,0.7,1.3,0.7s-0.1,1-1,1.2c-0.9,0.2-2.3-0.5-2.3-0.5S88.2,57.1,89.1,56.9z"/>
		<path class="st5" d="M88.8,62.4c0.9-0.2,1.3,0.7,1.3,0.7s-0.1,1-1,1.2c-0.9,0.2-2.3-0.5-2.3-0.5S87.9,62.6,88.8,62.4z"/>
		<path class="st5" d="M86.9,59c0.7-0.1,1,0.5,1,0.5s0,0.8-0.7,0.9c-0.7,0.1-1.7-0.4-1.7-0.4S86.3,59.1,86.9,59z"/>
		<path class="st5" d="M86.6,56.3c0.5-0.1,0.8,0.4,0.8,0.4s0,0.6-0.6,0.7c-0.5,0.1-1.3-0.3-1.3-0.3S86,56.5,86.6,56.3z"/>
		<path class="st3" d="M88.5,54.2c0.9,0,1.2,1,1.2,1s-0.3,1-1.2,1c-0.9,0-2.1-1-2.1-1S87.5,54.2,88.5,54.2z"/>
		<path class="st3" d="M90.4,59.3c1.3-0.3,1.9,1,1.9,1s-0.1,1.4-1.3,1.7c-1.3,0.3-3.3-0.7-3.3-0.7S89.1,59.6,90.4,59.3z"/>
		<path class="st3" d="M92.1,62.4c1.1-0.6,2.1,0.4,2.1,0.4s0.3,1.4-0.8,2c-1.1,0.6-3.3,0.2-3.3,0.2S91,63,92.1,62.4z"/>
		<path class="st3" d="M94.5,65c0.9-1,2.1-0.3,2.1-0.3s0.8,1.2-0.1,2.1c-0.9,1-3,1.4-3,1.4S93.7,65.9,94.5,65z"/>
		<path class="st3" d="M95.2,58.6c-0.9,0.7-2,0-2,0s-0.5-1.2,0.4-1.9c0.9-0.7,3-0.8,3-0.8S96.1,57.9,95.2,58.6z"/>
		<path class="st3" d="M97.6,60.9c-0.8,0.9-2,0.2-2,0.2s-0.7-1.1,0.1-2c0.8-0.9,2.9-1.1,2.9-1.1S98.4,60.1,97.6,60.9z"/>
		<path class="st3" d="M100.1,62.9c-0.9,0.7-2,0-2,0s-0.5-1.2,0.4-1.9c0.9-0.7,3-0.8,3-0.8S101,62.1,100.1,62.9z"/>
	</g>
	<g>
		<path class="st5" d="M66.3,64.9c0.4-0.7-0.2-1.3-0.2-1.3s-0.8-0.2-1.2,0.4c-0.4,0.7-0.2,2-0.2,2S65.9,65.6,66.3,64.9z"/>
		<path class="st5" d="M68.6,64.8c0.2-0.8-0.6-1.2-0.6-1.2s-0.9,0-1,0.8c-0.2,0.8,0.4,2,0.4,2S68.5,65.5,68.6,64.8z"/>
		<path class="st2" d="M68.9,67c0.1-0.5-0.4-0.8-0.4-0.8s-0.6,0-0.7,0.6c-0.1,0.5,0.3,1.4,0.3,1.4S68.8,67.6,68.9,67z"/>
		<path class="st2" d="M71.2,68.1c0.4-0.5,0-1,0-1s-0.6-0.3-1,0.2c-0.4,0.5-0.4,1.5-0.4,1.5S70.8,68.6,71.2,68.1z"/>
		<path class="st4" d="M83.8,69.6v-0.5c0.6,0.4-9.4-8.7-18.3-5.8c0,0,8.4-2.2,17.8,7.7L83.8,69.6z"/>
		<path class="st3" d="M67.5,61.3c0.2,0.8,1.1,0.7,1.1,0.7s0.8-0.4,0.5-1.2c-0.2-0.8-1.3-1.6-1.3-1.6S67.3,60.5,67.5,61.3z"/>
		<path class="st5" d="M71.6,58.9c0.2,0.8,1.1,0.7,1.1,0.7s0.8-0.4,0.5-1.2c-0.2-0.8-1.3-1.6-1.3-1.6S71.4,58.1,71.6,58.9z"/>
		<path class="st5" d="M68.3,58.8c0.2,0.6,0.8,0.6,0.8,0.6s0.6-0.3,0.4-0.9c-0.2-0.6-1-1.2-1-1.2S68.2,58.2,68.3,58.8z"/>
		<path class="st5" d="M66.1,59.5c0.1,0.4,0.6,0.4,0.6,0.4s0.4-0.3,0.3-0.7c-0.1-0.4-0.8-0.9-0.8-0.9S66,59.1,66.1,59.5z"/>
		<path class="st3" d="M65.3,61.8c0.4,0.7,1.2,0.5,1.2,0.5s0.6-0.6,0.3-1.3c-0.4-0.7-1.6-1.2-1.6-1.2S64.9,61.1,65.3,61.8z"/>
		<path class="st3" d="M69.9,61.3c0.3,1.1,1.5,1.1,1.5,1.1s1.1-0.6,0.8-1.7c-0.3-1.1-1.8-2.2-1.8-2.2S69.6,60.2,69.9,61.3z"/>
		<path class="st3" d="M72.9,61.4c0,1.1,1.1,1.4,1.1,1.4s1.2-0.3,1.2-1.4c0-1.1-1.1-2.6-1.1-2.6S72.9,60.3,72.9,61.4z"/>
		<path class="st3" d="M75.8,62.3c-0.4,1,0.6,1.7,0.6,1.7s1.2,0.2,1.6-0.9c0.4-1-0.1-2.9-0.1-2.9S76.3,61.3,75.8,62.3z"/>
		<path class="st5" d="M71.3,65.2c0.2-1-0.8-1.5-0.8-1.5s-1.1,0-1.3,1c-0.2,1,0.6,2.6,0.6,2.6S71,66.2,71.3,65.2z"/>
		<path class="st5" d="M73.9,66.2c0.3-1-0.6-1.6-0.6-1.6s-1.1-0.1-1.4,0.9c-0.3,1,0.2,2.6,0.2,2.6S73.6,67.1,73.9,66.2z"/>
		<path class="st5" d="M76.4,67.3c0.2-1-0.8-1.5-0.8-1.5s-1.1,0-1.3,1c-0.2,1,0.6,2.6,0.6,2.6S76.2,68.3,76.4,67.3z"/>
	</g>
	<g>
		<path class="st5" d="M119.7,65c-0.9,0-1.2-1-1.2-1s0.3-1,1.2-1c0.9,0,2.2,1,2.2,1S120.6,65,119.7,65z"/>
		<path class="st5" d="M118.1,67.3c-0.9-0.3-0.8-1.3-0.8-1.3s0.6-0.8,1.4-0.5c0.9,0.3,1.7,1.6,1.7,1.6S119,67.6,118.1,67.3z"/>
		<path class="st2" d="M120.3,68.9c-0.6-0.2-0.6-0.9-0.6-0.9s0.4-0.6,1-0.4c0.6,0.2,1.2,1.1,1.2,1.1S120.9,69.1,120.3,68.9z"/>
		<path class="st2" d="M119.9,71.8c-0.7,0.1-1-0.6-1-0.6s0.1-0.8,0.8-0.9c0.7-0.1,1.7,0.5,1.7,0.5S120.6,71.7,119.9,71.8z"/>
		<path class="st4" d="M113.9,85.3l-0.5-0.3c0.1,0.8-3.1-14.6,5.1-21.8c0,0-7.1,7.1-2.9,22.4L113.9,85.3z"/>
		<path class="st3" d="M115.3,64.1c0.6,0.7,0.1,1.5,0.1,1.5s-0.9,0.5-1.5-0.2c-0.6-0.7-0.8-2.2-0.8-2.2S114.7,63.4,115.3,64.1z"/>
		<path class="st5" d="M110.5,66.8c0.6,0.7,0.1,1.5,0.1,1.5s-0.9,0.5-1.5-0.2c-0.6-0.7-0.8-2.2-0.8-2.2S109.8,66.1,110.5,66.8z"/>
		<path class="st5" d="M112.3,63.4c0.5,0.5,0.1,1.1,0.1,1.1s-0.7,0.4-1.1-0.1c-0.5-0.5-0.6-1.7-0.6-1.7S111.9,62.9,112.3,63.4z"/>
		<path class="st5" d="M114.4,61.6c0.4,0.4,0.1,0.9,0.1,0.9s-0.5,0.3-0.9-0.1c-0.4-0.4-0.5-1.3-0.5-1.3S114,61.3,114.4,61.6z"/>
		<path class="st3" d="M117.2,62.1c0.5,0.8-0.2,1.5-0.2,1.5s-1,0.3-1.4-0.5c-0.5-0.8-0.3-2.4-0.3-2.4S116.7,61.4,117.2,62.1z"/>
		<path class="st3" d="M113.9,66.4c0.9,0.9,0.2,2.1,0.2,2.1s-1.2,0.7-2.1-0.2c-0.9-0.9-1.1-3.1-1.1-3.1S113,65.5,113.9,66.4z"/>
		<path class="st3" d="M112.3,69.6c1.1,0.6,0.8,2,0.8,2s-1,1-2.1,0.4c-1.1-0.6-2-2.7-2-2.7S111.1,68.9,112.3,69.6z"/>
		<path class="st3" d="M111.3,73c1.3,0.2,1.4,1.6,1.4,1.6s-0.6,1.3-1.8,1.1c-1.3-0.2-2.8-1.8-2.8-1.8S110.1,72.8,111.3,73z"/>
		<path class="st5" d="M117,70.2c-1.1-0.4-1-1.7-1-1.7s0.7-1.1,1.8-0.7c1.1,0.4,2.2,2.1,2.2,2.1S118.2,70.5,117,70.2z"/>
		<path class="st5" d="M116.4,73.4c-1.2-0.2-1.2-1.5-1.2-1.5s0.6-1.2,1.7-0.9c1.2,0.2,2.5,1.8,2.5,1.8S117.5,73.7,116.4,73.4z"/>
		<path class="st5" d="M116,76.6c-1.1-0.4-1-1.7-1-1.7s0.7-1.1,1.8-0.7c1.1,0.4,2.2,2.1,2.2,2.1S117.2,76.9,116,76.6z"/>
	</g>
	<g>
		<path class="st5" d="M100.8,82.1c-0.4,1-1.6,0.8-1.6,0.8s-0.9-0.7-0.5-1.7c0.4-1,2-1.9,2-1.9S101.2,81.1,100.8,82.1z"/>
		<path class="st5" d="M102.5,84.8c-0.7,0.8-1.8,0.3-1.8,0.3s-0.7-1,0-1.8c0.7-0.8,2.5-1.1,2.5-1.1S103.2,84,102.5,84.8z"/>
		<path class="st4" d="M109.9,93.9l-1.3,0.1c0,0-7.5-3.6-10.3-11.4c0,0,4.2,7.8,10.8,10.2L109.9,93.9z"/>
		<path class="st3" d="M97.8,86.4c1-0.4,1.7,0.6,1.7,0.6s0.1,1.2-0.9,1.6c-1,0.4-2.8-0.2-2.8-0.2S96.8,86.8,97.8,86.4z"/>
		<path class="st3" d="M96.5,83.5c1.1-0.2,1.5,0.9,1.5,0.9s-0.1,1.2-1.2,1.3C95.8,86,94.2,85,94.2,85S95.5,83.7,96.5,83.5z"/>
		<path class="st3" d="M97.1,80.7c0.9,0.6,0.6,1.7,0.6,1.7s-0.8,0.8-1.8,0.3c-0.9-0.6-1.6-2.3-1.6-2.3S96.2,80.1,97.1,80.7z"/>
		<path class="st3" d="M99.7,89c1.4-0.6,2.4,0.8,2.4,0.8s0.2,1.6-1.2,2.2c-1.4,0.6-3.9-0.2-3.9-0.2S98.3,89.5,99.7,89z"/>
		<path class="st5" d="M105.1,87.3c-0.9,1-2.3,0.3-2.3,0.3s-0.9-1.3,0.1-2.3c0.9-1,3.3-1.5,3.3-1.5S106,86.3,105.1,87.3z"/>
	</g>
	<g>
		<path class="st5" d="M134,84.9c-1.1-0.1-1.5,1.1-1.5,1.1s0.2,1.2,1.3,1.2c1.1,0.1,2.6-1,2.6-1S135.1,85,134,84.9z"/>
		<path class="st3" d="M133.4,88.5c-0.9-0.8-1.9,0-1.9,0s-0.6,1.1,0.3,1.9c0.9,0.8,2.9,0.9,2.9,0.9S134.3,89.2,133.4,88.5z"/>
		<path class="st5" d="M133.3,91.4c-0.8-0.5-1.5,0.3-1.5,0.3s-0.3,1,0.6,1.5c0.8,0.5,2.4,0.2,2.4,0.2S134.1,91.9,133.3,91.4z"/>
		<path class="st5" d="M135.5,87.6c-0.7-0.4-1.3,0.3-1.3,0.3s-0.2,0.9,0.5,1.3c0.7,0.4,2.1,0.2,2.1,0.2S136.3,88,135.5,87.6z"/>
		<path class="st5" d="M130.2,94.4c-0.7-0.6-1.6,0-1.6,0s-0.5,0.9,0.2,1.6c0.7,0.6,2.3,0.7,2.3,0.7S130.9,95,130.2,94.4z"/>
		<path class="st3" d="M130.7,91.2c-0.8-1-2.1-0.5-2.1-0.5s-0.9,1.1-0.1,2.1c0.8,1,2.9,1.6,2.9,1.6S131.5,92.2,130.7,91.2z"/>
		<path class="st3" d="M127.8,93.7c-0.4-1.3-1.9-1.2-1.9-1.2s-1.3,0.8-0.9,2.1c0.4,1.3,2.3,2.7,2.3,2.7S128.2,95,127.8,93.7z"/>
		<path class="st3" d="M124.1,95.1c-0.1-1.2-1.5-1.4-1.5-1.4s-1.3,0.5-1.2,1.7c0.1,1.2,1.6,2.8,1.6,2.8S124.2,96.4,124.1,95.1z"/>
		<path class="st5" d="M120.6,95.6c0.1-1.2-1.2-1.7-1.2-1.7s-1.3,0.3-1.4,1.5c-0.1,1.2,1.1,3,1.1,3S120.5,96.8,120.6,95.6z"/>
		<path class="st5" d="M116.9,95.4c0.1-1-1-1.4-1-1.4s-1.1,0.2-1.2,1.3c-0.1,1,0.9,2.5,0.9,2.5S116.8,96.4,116.9,95.4z"/>
		<path class="st5" d="M116,90.1c0.1,1,1.3,1.2,1.3,1.2s1.1-0.4,0.9-1.5c-0.1-1-1.4-2.3-1.4-2.3S115.8,89,116,90.1z"/>
		<path class="st5" d="M120,86.3c0.1,0.8,1,0.9,1,0.9s0.8-0.3,0.7-1.1c-0.1-0.8-1.1-1.7-1.1-1.7S119.9,85.5,120,86.3z"/>
		<path class="st5" d="M117.3,87.2c0.1,0.6,0.8,0.7,0.8,0.7s0.6-0.3,0.6-0.9c-0.1-0.6-0.9-1.4-0.9-1.4S117.2,86.6,117.3,87.2z"/>
		<path class="st5" d="M130.4,83.8c-0.1,1.1,1.1,1.4,1.1,1.4s1.1-0.2,1.2-1.3c0.1-1.1-1-2.6-1-2.6S130.5,82.8,130.4,83.8z"/>
		<path class="st5" d="M128.1,86.3c0.6,0.9,1.7,0.6,1.7,0.6s0.8-0.8,0.3-1.7c-0.6-0.9-2.3-1.6-2.3-1.6S127.5,85.4,128.1,86.3z"/>
		<path class="st5" d="M125.4,87.9c0.6,1,1.8,0.6,1.8,0.6s0.9-0.9,0.3-1.9c-0.6-1-2.4-1.7-2.4-1.7S124.8,86.9,125.4,87.9z"/>
		<path class="st2" d="M122.4,89c0.4,1.1,1.7,1,1.7,1s1.1-0.7,0.7-1.9c-0.4-1.1-2.2-2.2-2.2-2.2S122,87.8,122.4,89z"/>
		<path class="st2" d="M125.4,84c0.3,0.8,1.2,0.7,1.2,0.7s0.8-0.5,0.5-1.3c-0.3-0.8-1.5-1.6-1.5-1.6S125.1,83.2,125.4,84z"/>
		<path class="st2" d="M122.7,85.2C123,86.1,124,86,124,86s0.9-0.6,0.5-1.5c-0.3-0.9-1.7-1.8-1.7-1.8S122.4,84.3,122.7,85.2z"/>
		<path class="st2" d="M128.8,83.5c0.6,0.5,1.2,0,1.2,0s0.3-0.7-0.2-1.2c-0.6-0.5-1.8-0.5-1.8-0.5S128.2,83.1,128.8,83.5z"/>
		<path class="st2" d="M119.1,89.8c0.4,1.1,1.7,1,1.7,1s1.1-0.7,0.7-1.9c-0.4-1.1-2.2-2.2-2.2-2.2S118.7,88.7,119.1,89.8z"/>
	</g>
	<path class="st4" d="M112.9,93.4l0.4,0.4c-0.8,0.1,14.9,0.4,20.5-9c0,0-5.6,8.3-21.5,6.9L112.9,93.4z"/>
</g>
<g>
	<path class="st0" d="M188,90.6c0-6.4,0-12.5,8.3-12.5c5.1,0,7.2,2.8,7,8h-4.9c0-3.2-0.6-4.4-2.1-4.4c-2.8,0-3.2,2.7-3.2,8.8
		c0,6.2,0.4,8.8,3.2,8.8c2.3,0,2.2-3,2.3-4.9h5c0,6.4-2.6,8.5-7.3,8.5C188,103.1,188,96.9,188,90.6z"/>
	<path class="st0" d="M206.8,102.7V78.6H220v3.7h-8.1v5.9h7.5v3.7h-7.5v7h8.4v3.7H206.8z"/>
	<path class="st0" d="M228.5,102.7h-5V78.6h9.3c3.4,0,5.6,2.2,5.6,6.3c0,3.1-1.2,5.4-4.5,5.9v0.1c1.1,0.1,4.4,0.4,4.4,4.7
		c0,1.5,0.1,6.1,0.6,7.1H234c-0.7-1.5-0.5-3.1-0.5-4.7c0-2.9,0.3-5.3-3.6-5.3h-1.3V102.7z M228.5,89h2.2c2,0,2.6-2,2.6-3.5
		c0-2.3-1-3.2-2.6-3.2h-2.2V89z"/>
	<path class="st0" d="M242.2,102.7V78.6h13.2v3.7h-8.1v5.9h7.5v3.7h-7.5v7h8.4v3.7H242.2z"/>
	<path class="st0" d="M258.9,102.7V78.6h8.9c3.8,0,7,1.1,7,6.2c0,2.8-1.4,4.8-4.1,5.3v0.1c3.6,0.5,4.5,2.8,4.5,6.1
		c0,6.1-5.3,6.4-7.4,6.4H258.9z M263.9,88.4h3.4c1.1,0,2.6-0.7,2.6-3.1c0-1.8-1.2-3.1-2.9-3.1h-3.1V88.4z M263.9,99h2.8
		c1.1,0,3.5,0,3.5-3.4c0-2.1-0.8-3.4-3.3-3.4h-2.9V99z"/>
	<path class="st0" d="M283.9,102.7h-5V78.6h9.3c3.4,0,5.6,2.2,5.6,6.3c0,3.1-1.2,5.4-4.5,5.9v0.1c1.1,0.1,4.4,0.4,4.4,4.7
		c0,1.5,0.1,6.1,0.6,7.1h-4.9c-0.7-1.5-0.5-3.1-0.5-4.7c0-2.9,0.3-5.3-3.6-5.3h-1.3V102.7z M283.9,89h2.2c2,0,2.6-2,2.6-3.5
		c0-2.3-1-3.2-2.6-3.2h-2.2V89z"/>
	<path class="st0" d="M297.1,90.6c0-6.4,0-12.5,8.3-12.5c8.3,0,8.3,6.1,8.3,12.5c0,6.3,0,12.5-8.3,12.5
		C297.1,103.1,297.1,96.9,297.1,90.6z M308.6,90.6c0-6.2-0.4-8.8-3.2-8.8s-3.2,2.7-3.2,8.8c0,6.2,0.4,8.8,3.2,8.8
		S308.6,96.8,308.6,90.6z"/>
	<path class="st0" d="M315.6,78.6h5.2l3.7,17.5h0.1l4.2-17.5h5l-6.4,24.1h-5.9L315.6,78.6z"/>
	<path class="st0" d="M332.9,102.7l6.7-24.1h6.6l6.5,24.1h-5.3l-1.3-5.3h-6.9l-1.4,5.3H332.9z M342.6,83.2L342.6,83.2l-2.4,10.4h4.8
		L342.6,83.2z"/>
	<path class="st0" d="M361.9,103.1c-6.2,0-7.4-3.7-7.1-7.8h5c0,2.3,0.1,4.2,2.9,4.2c1.7,0,2.5-1.1,2.5-2.7c0-4.3-10.1-4.6-10.1-11.8
		c0-3.8,1.8-6.8,7.9-6.8c4.9,0,7.3,2.2,7,7.2h-4.9c0-1.8-0.3-3.6-2.3-3.6c-1.6,0-2.6,0.9-2.6,2.6c0,4.6,10.1,4.2,10.1,11.8
		C370.3,102.3,365.7,103.1,361.9,103.1z"/>
	<path class="st0" d="M373.6,90.6c0-6.4,0-12.5,8.3-12.5c5.1,0,7.2,2.8,7,8H384c0-3.2-0.6-4.4-2.1-4.4c-2.8,0-3.2,2.7-3.2,8.8
		c0,6.2,0.4,8.8,3.2,8.8c2.3,0,2.2-3,2.3-4.9h5c0,6.4-2.6,8.5-7.3,8.5C373.6,103.1,373.6,96.9,373.6,90.6z"/>
	<path class="st0" d="M408.8,78.6v17.1c0,3.6-2,7.4-8.2,7.4c-5.5,0-8.2-2.9-8.2-7.4V78.6h5v16.8c0,3,1.3,4.1,3.1,4.1
		c2.2,0,3.2-1.5,3.2-4.1V78.6H408.8z"/>
	<path class="st0" d="M412.8,102.7V78.6h5v20.1h7.5v4H412.8z"/>
	<path class="st0" d="M427.2,102.7l6.7-24.1h6.6l6.5,24.1h-5.3l-1.3-5.3h-6.9l-1.4,5.3H427.2z M437,83.2L437,83.2l-2.4,10.4h4.8
		L437,83.2z"/>
	<path class="st0" d="M455,102.7h-5V78.6h9.3c3.4,0,5.6,2.2,5.6,6.3c0,3.1-1.2,5.4-4.5,5.9v0.1c1.1,0.1,4.4,0.4,4.4,4.7
		c0,1.5,0.1,6.1,0.6,7.1h-4.9c-0.7-1.5-0.5-3.1-0.5-4.7c0-2.9,0.3-5.3-3.6-5.3H455V102.7z M455,89h2.2c2,0,2.6-2,2.6-3.5
		c0-2.3-1-3.2-2.6-3.2H455V89z"/>
	<path class="st0" d="M188.3,111.7h8.4c6.6,0,7.8,4.4,7.8,11.9c0,3.7,0.6,12.2-8,12.2h-8.2V111.7z M193.4,132.1h2.4
		c3.1,0,3.7-2.3,3.7-8.3c0-4.4,0-8.3-3.5-8.3h-2.6V132.1z"/>
	<path class="st0" d="M208.3,135.8v-24.1h5v24.1H208.3z"/>
	<path class="st0" d="M223.9,136.2c-6.2,0-7.4-3.7-7.1-7.8h5c0,2.3,0.1,4.2,2.9,4.2c1.7,0,2.5-1.1,2.5-2.7c0-4.3-10.1-4.6-10.1-11.8
		c0-3.8,1.8-6.8,7.9-6.8c4.9,0,7.3,2.2,7,7.2h-4.9c0-1.8-0.3-3.6-2.3-3.6c-1.6,0-2.6,0.9-2.6,2.6c0,4.6,10.1,4.2,10.1,11.8
		C232.3,135.5,227.8,136.2,223.9,136.2z"/>
	<path class="st0" d="M235.8,135.8v-24.1h13.2v3.7h-8.1v5.9h7.5v3.7h-7.5v7h8.4v3.7H235.8z"/>
	<path class="st0" d="M251.6,135.8l6.7-24.1h6.6l6.5,24.1h-5.3l-1.3-5.3h-6.9l-1.4,5.3H251.6z M261.3,116.4L261.3,116.4l-2.4,10.4
		h4.8L261.3,116.4z"/>
	<path class="st0" d="M280.5,136.2c-6.2,0-7.4-3.7-7.1-7.8h5c0,2.3,0.1,4.2,2.9,4.2c1.7,0,2.5-1.1,2.5-2.7c0-4.3-10.1-4.6-10.1-11.8
		c0-3.8,1.8-6.8,7.9-6.8c4.9,0,7.3,2.2,7,7.2h-4.9c0-1.8-0.3-3.6-2.3-3.6c-1.6,0-2.6,0.9-2.6,2.6c0,4.6,10.1,4.2,10.1,11.8
		C289,135.5,284.4,136.2,280.5,136.2z"/>
	<path class="st0" d="M292.4,135.8v-24.1h13.2v3.7h-8.1v5.9h7.5v3.7h-7.5v7h8.4v3.7H292.4z"/>
	<g>
		<path class="st0" d="M188.8,169v-24.1h2.1V156h0.1l8.5-11.1h2.6l-9,11.3l9.3,12.9h-2.7l-8.7-12.4h-0.1V169H188.8z"/>
		<path class="st0" d="M205.6,169v-24.1h3.3l9.8,21.2l0.1-0.1v-21.1h2.1V169h-3.2l-9.8-21.4l-0.1,0.1V169H205.6z"/>
		<path class="st0" d="M232.3,144.4c7.2,0,7.3,6,7.3,12.5c0,6.5-0.1,12.5-7.3,12.5s-7.3-6-7.3-12.5
			C225.1,150.5,225.1,144.4,232.3,144.4z M232.3,167.7c5.1,0,5.1-4.3,5.1-10.7s-0.1-10.7-5.1-10.7s-5.1,4.3-5.1,10.7
			S227.3,167.7,232.3,167.7z"/>
		<path class="st0" d="M253.9,144.9h2.9l4.8,21.1h0.1l5.1-21.1h2.1l-6,24.1h-2.8l-4.8-21.4h-0.1l-5,21.4h-2.7l-5.8-24.1h2.3
			l4.9,21.3h0.1L253.9,144.9z"/>
		<path class="st0" d="M272,169v-24.1h2.1v22.3h8v1.8H272z"/>
		<path class="st0" d="M296.3,144.9v1.8h-8.8v9h8.4v1.8h-8.4v9.7h9v1.8h-11.2v-24.1H296.3z"/>
		<path class="st0" d="M300.1,144.9h6.4c6.7,0,7.6,3.9,7.6,12.2c0,8-1.2,12-8.4,12h-5.5V144.9z M302.3,167.2h2.6
			c6.4,0,7.1-1.7,7.1-11.6c0-6.9-0.9-8.9-6.9-8.9h-2.8V167.2z"/>
		<path class="st0" d="M329.6,158.2h-4.9v-1.8h7v12.1c-2.1,0.7-4.4,1-6.6,1c-7.8,0-7.3-7.8-7.3-12.5c0-4.7-0.6-12.5,7.3-12.5
			c4.6,0,7,2,6.9,6.6h-2.1c0-3.2-1.4-4.8-4.7-4.8c-5.2,0-5.1,4.6-5.1,10.7c0,6.1-0.1,10.7,5.1,10.7c1.8,0,3.4-0.3,4.5-0.7V158.2z"/>
		<path class="st0" d="M347.2,144.9v1.8h-8.8v9h8.4v1.8h-8.4v9.7h9v1.8h-11.2v-24.1H347.2z"/>
	</g>
	<g>
		<path class="st0" d="M359.8,144.9h6.6c2,0,5.3,0.3,5.3,5.8c0,4.8-1.6,7-5.7,7h-4.1V169h-2.1V144.9z M361.9,156h4
			c2.2,0,3.7-1.1,3.7-4.8c0-4.1-1.8-4.4-3.7-4.4h-3.9V156z"/>
		<path class="st0" d="M382,144.4c7.2,0,7.3,6,7.3,12.5s-0.1,12.5-7.3,12.5s-7.3-6-7.3-12.5S374.8,144.4,382,144.4z M382,167.7
			c5.1,0,5.1-4.3,5.1-10.7s-0.1-10.7-5.1-10.7s-5.1,4.3-5.1,10.7S377,167.7,382,167.7z"/>
		<path class="st0" d="M395.5,157.3V169h-2.1v-24.1h6.6c4.6,0,5.8,1.5,5.8,5.8c0,3-0.5,5-3.7,5.7v0.1c3.4,0.7,3.6,1.1,3.6,9.7
			c0,0.9,0.2,1.9,0.2,2.8h-2c-0.2-0.7-0.3-4.7-0.3-6c0-1,0.7-5.7-4-5.7H395.5z M395.5,155.5h3.5c3.2,0,4.7-0.8,4.7-4.9
			c0-3.3-1.3-3.9-3.8-3.9h-4.4V155.5z"/>
		<path class="st0" d="M414.4,146.7h-5.9v-1.8h13.9v1.8h-5.9V169h-2.1V146.7z"/>
		<path class="st0" d="M431.7,144.9l7.5,24.1H437l-1.9-6.3h-9.4l-1.9,6.3h-2.1l7.6-24.1H431.7z M434.5,160.9l-4.1-13.6h-0.1
			l-4.1,13.6H434.5z"/>
		<path class="st0" d="M442.3,169v-24.1h2.1v22.3h8v1.8H442.3z"/>
	</g>
</g>
</svg>
