<?xml version="1.0" encoding="utf-8"?>
<!-- Generator: Adobe Illustrator 23.0.4, SVG Export Plug-In . SVG Version: 6.00 Build 0)  -->
<svg version="1.1" id="Layer_1" xmlns="http://www.w3.org/2000/svg" xmlns:xlink="http://www.w3.org/1999/xlink" x="0px" y="0px"
	 viewBox="0 0 102 46.8" style="enable-background:new 0 0 102 46.8;" xml:space="preserve">
<style type="text/css">
	.st0{fill:#FFFFFF;}
	.st1{fill:none;stroke:#FFFFFF;stroke-width:0.991;stroke-linecap:round;stroke-linejoin:round;stroke-miterlimit:10;}
	.st2{fill:#F37920;}
</style>
<g>
	<path class="st0" d="M92.7,18.9c-0.2-0.2-0.5-0.3-0.8-0.3c-0.3-0.1-0.6-0.1-0.9-0.1c-0.2,0-0.5,0-0.7,0c-0.2,0-0.4,0-0.5,0.1v4.1
		c0,0,0.1,0,0.2,0c0.1,0,0.2,0,0.3,0c0.1,0,0.2,0,0.3,0s0.2,0,0.2,0c0.3,0,0.6,0,1-0.1c0.3-0.1,0.6-0.2,0.9-0.3
		c0.3-0.2,0.5-0.4,0.6-0.7c0.2-0.3,0.2-0.7,0.2-1.1c0-0.4-0.1-0.7-0.2-1C93.2,19.3,93,19.1,92.7,18.9z"/>
	<path class="st0" d="M91.4,14.9C91.4,14.9,91.4,14.9,91.4,14.9L91.4,14.9H74.7v3.8v11.8l0,0h16.6v0c0,0,0,0,0,0
		c4.3,0,7.8-3.5,7.8-7.8S95.7,14.9,91.4,14.9z M83.8,29.2l-3.7-5.4h-0.6v5.4H77V16.6h2.5v5.6l0.6-0.3l3.5-5.3h2.8l-3.7,5.3l-1,0.7
		l1,0.7l4.2,5.9H83.8z M95.7,22.6c-0.3,0.5-0.6,1-1.1,1.3c-0.5,0.3-1,0.6-1.6,0.8c-0.6,0.2-1.2,0.2-1.8,0.2c-0.1,0-0.2,0-0.3,0
		c-0.1,0-0.3,0-0.4,0c-0.1,0-0.3,0-0.4,0c-0.1,0-0.2,0-0.3,0v4.3h-2.5V16.7c0.5-0.1,1.1-0.2,1.7-0.2c0.6-0.1,1.2-0.1,1.8-0.1
		c0.6,0,1.3,0.1,1.9,0.2c0.6,0.1,1.2,0.3,1.7,0.6c0.5,0.3,0.9,0.7,1.2,1.3c0.3,0.5,0.5,1.3,0.5,2.1C96.1,21.3,96,22,95.7,22.6z"/>
</g>
<g>
	<path class="st0" d="M57.2,30c-0.4,0.3-1,0.6-1.7,0.7c-0.7,0.1-1.4,0.2-2.2,0.2c-0.9,0-1.8-0.2-2.7-0.5c-0.8-0.3-1.5-0.8-2.2-1.5
		c-0.6-0.7-1.1-1.5-1.5-2.5c-0.4-1-0.5-2.2-0.5-3.7c0-1.5,0.2-2.7,0.6-3.7s0.9-1.9,1.6-2.5c0.7-0.7,1.4-1.1,2.2-1.4s1.6-0.5,2.5-0.5
		c0.9,0,1.6,0,2.2,0.1s1.1,0.2,1.5,0.4l-0.5,1.7c-0.7-0.4-1.7-0.5-3.1-0.5c-0.6,0-1.2,0.1-1.8,0.3c-0.6,0.2-1.1,0.6-1.6,1.1
		c-0.5,0.5-0.9,1.2-1.1,2c-0.3,0.8-0.4,1.8-0.4,3c0,1.1,0.1,2,0.4,2.8c0.3,0.8,0.6,1.5,1.1,2s1,0.9,1.7,1.2s1.3,0.4,2.1,0.4
		c0.7,0,1.3-0.1,1.8-0.2c0.5-0.1,0.9-0.3,1.3-0.5L57.2,30z"/>
	<path class="st0" d="M59,14.9c0.3,0,0.6-0.1,1-0.1c0.4,0,0.7,0,1.1,0c0.4,0,0.8,0,1.1,0c0.4,0,0.7,0,1,0c1.3,0,2.4,0.2,3.3,0.6
		c0.9,0.4,1.7,0.9,2.3,1.6c0.6,0.7,1,1.5,1.3,2.5c0.3,1,0.4,2,0.4,3.2c0,1.1-0.1,2.1-0.4,3.1c-0.3,1-0.7,1.9-1.3,2.6
		c-0.6,0.8-1.4,1.4-2.3,1.8c-1,0.5-2.1,0.7-3.5,0.7c-0.2,0-0.6,0-0.9,0c-0.4,0-0.8,0-1.2,0c-0.4,0-0.8,0-1.1-0.1
		c-0.3,0-0.6,0-0.7-0.1V14.9z M63.2,16.4c-0.2,0-0.4,0-0.6,0s-0.5,0-0.7,0c-0.2,0-0.4,0-0.6,0c-0.2,0-0.3,0-0.4,0v12.6
		c0.1,0,0.2,0,0.4,0c0.2,0,0.4,0,0.7,0c0.2,0,0.4,0,0.7,0c0.2,0,0.4,0,0.4,0c1,0,1.9-0.2,2.6-0.5c0.7-0.4,1.3-0.8,1.7-1.5
		s0.7-1.3,0.9-2.1s0.3-1.6,0.3-2.4c0-0.7-0.1-1.5-0.2-2.2c-0.2-0.7-0.5-1.4-0.9-2c-0.4-0.6-0.9-1.1-1.6-1.5
		C65.1,16.6,64.3,16.4,63.2,16.4z"/>
</g>
<g>
	<g>
		<path class="st1" d="M32.8,31.9c0.7-2.5,3.6-5.8,3.6-5.8c1.7-2.4,2.7-5.2,2.7-8.2C39.2,9.7,31.9,3,23.1,3C14.2,3,7.7,8.8,6.7,17.8
			c-0.1,0.8,0.4,1.8,0.5,2.6c0.2,0.9,0.4,1.2,0.3,1.6c-0.5,1.7-3.3,5.7-3.3,5.7s-0.6,1,0.2,1.6C4.8,29.6,7.8,29.8,8,30
			c0.2,0.2,0.8,5.9,1.7,7.2c0.9,1.2,2.5,1.3,4,1.1c0.7-0.1,2.3-0.6,3-0.7c2.8-0.6,3.2,3.4,3.5,5.8l13.9-4.8
			C33.4,37,32.3,33.7,32.8,31.9z"/>
	</g>
	<path class="st0" d="M36,16.7c-0.6,0.7-1.2,0.8-2.2,1.1c-0.5,0.1-1.5,0.1-2.4,0.6c-0.1,0.1-0.2,0.1-0.3,0.2c0-0.4,0.1-0.9,0.5-1.3
		c0.7-1,1.8-1.1,2.5-1.5c0.7-0.4,1.1-1,1.2-1.9c0,0-0.4,1.5-1.9,1.9c-0.9,0.3-2,0.8-2.4,1.6c-0.4,0.7-0.5,1.4-0.5,1.7
		c-0.5,0.4-0.8,0.8-0.9,1.1c0,0-0.4-0.6-1.2-1.2c0,0,0,0,0-0.1c-1.6-3.1-1.6-4.2-1.1-5c0.9-1.3,2.8-0.8,4.7-2.3
		c1.7-1.3,1.6-2.9,1.6-2.9s-0.3,1.6-1.7,2.6c-1.6,1.2-2.8,1-3.9,1.4c0,0-0.1,0-0.1,0c0-0.1,0.1-0.2,0.1-0.3c0.2-0.7-0.2-1.5-0.5-2.1
		c-0.9-1.5,0.2-3,0.2-3c-0.4,0.5-1,1.3-0.6,2.7c0.1,0.6,0.8,1.2,0.6,2.1c-0.1,0.4-0.4,0.9-0.5,1.1l0,0c-0.6,0.5-0.9,1.1-0.9,1.7
		c-0.1,1.1,0.3,2,0.8,3.2c-0.5-0.3-1.2-0.5-1.9-0.6c-0.4-0.3-1.2-1.2-1.1-2.2c0.1-1.3,0.4-2.2,0-3.3c-0.4-1.3-1.6-1.9-2.4-2.1
		c-1.8-2-1.2-4.3-1.2-4.3S19.6,7.6,21,9.6c0,0-0.1,0-0.1,0c-0.6,0-3.1-0.7-4.3-2.3c0,0,1.3,2.1,4,2.6c1.5,0.3,2,0.6,2.5,1.4
		c0.6,0.8,0.4,1.7,0.1,3.5c-0.2,1.1,0.1,1.8,0.5,2.5c-0.6,0-1.1,0.1-1.8,0.3c-0.2,0.1-0.4,0.1-0.5,0.2c0-0.3,0-1.3-1.4-2.3
		c-0.9-0.7-1.8-0.8-2.5-1.8c-0.9-1.2,0.1-3.1,0.1-3.1s-0.6,0.8-0.7,1.9c-0.1,0.9,0.4,1.5,0.7,1.9c0.6,0.9,1.7,1,2.5,1.9
		c0.7,0.7,0.5,1.4,0.5,1.8c-1.9,0.3-3.6-0.2-4.8-1.6c-2.3-2.8-0.2-8.9-0.2-8.9s-1.6,2.9-1.2,6.8c-1.9-2.2-4.2-1-4.2-1s2.8-1,4.4,2.1
		c0.1,0.5,0.3,0.9,0.5,1.3c0,0,0,0,0,0l0,0c0.4,0.8,1.1,1.4,2.2,1.9c-0.3,0.2-1.1,0.5-1.6,0.4c-0.6-0.1-0.6-0.7-1.4-1
		c-0.4-0.1-0.7-0.1-1-0.2c-0.3-0.1-0.3-0.8-0.7-1c-0.1-0.1-0.5-0.1-0.8-0.2c-0.3,0-0.5-0.2-0.5-0.2c0.1,0.2,0.5,0.5,0.8,0.5
		c0.2,0,0.4,0.1,0.6,0.7c0.2,0.6,0.5,0.6,1.2,0.8c0.7,0.2,0.6,0.8,1.4,1.2c0.8,0.3,1.8,0,2.8-0.3c0.2-0.1,0.5-0.1,0.7-0.2
		c2.6,0.6,3.8-0.6,6-0.2c3.5,0.7,3.5,2.9,3.7,4.6c0,0.2,0,0.5-0.1,0.8c-0.1-0.1-0.1-0.1-0.2-0.2c-0.4-0.5-0.3-1.5-1-2.3
		c-0.3-0.4-0.9-1-2-0.8c-1.2,0.2-1.8,1.2-3.8,1.1c-1.8-0.1-3.1-1.3-3.1-1.3s0.9,1.4,2.9,1.6c3,0.3,3.2-1.4,4.8-0.7
		c0.9,0.4,0.8,1.3,1.1,2.6c0.2,0.5,0.5,1,0.8,1.3c-0.8,3.6-1.5,9.7,0.4,15l3-1.1c-1.4-3.4-2.7-8.7-1.1-14.6c0,0,0.2-1.8-0.1-2.9
		c-0.1-0.5,0.4-2.1,1.5-2.8c1.4-1,3.5-0.8,4.4-2.1c0.6-0.8,0.7-2.9,0.7-2.9S36.6,16,36,16.7z"/>
	<g>
		<path class="st0" d="M29.8,23.2v-0.1c-0.2,0.1,2.7-2.5,5.3-1.7c0,0-2.4-0.6-5.1,2.2L29.8,23.2z"/>
	</g>
	<path class="st0" d="M13.5,11.2c0,1.1-1.1,1.9-1.1,1.9s-1.1-0.9-1.1-1.9s1.1-1.9,1.1-1.9S13.5,10.1,13.5,11.2z"/>
	<path class="st0" d="M12.3,15.8c-1,0.3-2.2-0.5-2.2-0.5s0.5-1.3,1.6-1.6s2.2,0.5,2.2,0.5S13.3,15.5,12.3,15.8z"/>
	<path class="st0" d="M14.2,21.5c-0.9,0.6-2.2,0.1-2.2,0.1s0.2-1.4,1.1-1.9c0.9-0.6,2.2-0.1,2.2-0.1S15.1,21,14.2,21.5z"/>
	<path class="st0" d="M10.9,19c-1.1,0.2-2.1-0.7-2.1-0.7s0.7-1.2,1.7-1.4c1.1-0.2,2.1,0.7,2.1,0.7S11.9,18.8,10.9,19z"/>
	<path class="st0" d="M17.5,10.6c-0.9,0.3-2-0.3-2-0.3s0.4-1.2,1.3-1.5c0.9-0.3,2,0.3,2,0.3S18.4,10.2,17.5,10.6z"/>
	<path class="st0" d="M33.7,12.8c-1.1-0.1-1.9-1.2-1.9-1.2s0.9-1,2-1s1.9,1.2,1.9,1.2S34.8,12.9,33.7,12.8z"/>
	<path class="st0" d="M29.2,16c-0.8,0.7-2.2,0.4-2.2,0.4s0-1.4,0.8-2.1s2.2-0.4,2.2-0.4S30.1,15.3,29.2,16z"/>
	<path class="st0" d="M18.9,23.5c-0.8,0.5-2,0.2-2,0.2s0.1-1.2,0.9-1.8c0.8-0.5,2-0.2,2-0.2S19.7,23,18.9,23.5z"/>
	<path class="st0" d="M24.4,8.8c-0.2,1-1.5,1.7-1.5,1.7s-0.8-1.1-0.6-2.1c0.2-1,1.5-1.7,1.5-1.7S24.6,7.8,24.4,8.8z"/>
	<path class="st0" d="M26.9,11.9c0.3,1-0.4,2.2-0.4,2.2s-1.3-0.5-1.6-1.5s0.4-2.2,0.4-2.2S26.6,10.8,26.9,11.9z"/>
	<path class="st0" d="M32.9,14.2c0.4,0.8-0.1,1.9-0.1,1.9s-1.2-0.3-1.6-1.1s0.1-1.9,0.1-1.9S32.5,13.4,32.9,14.2z"/>
	<path class="st0" d="M27.1,6c0.6,0.9,0.1,2.2,0.1,2.2s-1.4-0.2-1.9-1.1c-0.6-0.9-0.1-2.2-0.1-2.2S26.6,5.1,27.1,6z"/>
	<path class="st2" d="M31.7,9.6c0.1,1.3-1.1,2.5-1.1,2.5s-1.4-0.9-1.5-2.2c-0.1-1.3,1.1-2.5,1.1-2.5S31.6,8.3,31.7,9.6z"/>
	<path class="st0" d="M18.2,7.8c-1-0.4-1.4-1.7-1.4-1.7S18,5.4,19,5.8c1,0.4,1.4,1.7,1.4,1.7S19.2,8.2,18.2,7.8z"/>
	<path class="st0" d="M21.4,13.8C20.7,13,21,11.6,21,11.6s1.4,0,2.1,0.8c0.7,0.8,0.4,2.2,0.4,2.2S22,14.7,21.4,13.8z"/>
	<path class="st0" d="M21.2,21.4c-0.5-0.7-0.3-1.7-0.3-1.7s1.1,0,1.6,0.7c0.5,0.7,0.3,1.7,0.3,1.7S21.7,22.1,21.2,21.4z"/>
	<path class="st0" d="M35.3,20.6c-0.6,0.7-1.7,0.6-1.7,0.6s-0.2-1.1,0.4-1.8s1.7-0.6,1.7-0.6S35.9,19.9,35.3,20.6z"/>
	<path class="st0" d="M20,13.1c-0.3,1-1.6,1.6-1.6,1.6s-0.8-1.1-0.5-2.2s1.6-1.6,1.6-1.6S20.3,12,20,13.1z"/>
	<path class="st0" d="M17.2,15.2C17,16.1,16,16.6,16,16.6s-0.7-0.9-0.5-1.8c0.2-0.9,1.2-1.4,1.2-1.4S17.4,14.3,17.2,15.2z"/>
</g>
</svg>
