<?xml version="1.0" encoding="utf-8"?>
<!-- Generator: Adobe Illustrator 23.0.3, SVG Export Plug-In . SVG Version: 6.00 Build 0)  -->
<svg version="1.1" id="Layer_1" xmlns="http://www.w3.org/2000/svg" xmlns:xlink="http://www.w3.org/1999/xlink" x="0px" y="0px"
	 viewBox="0 0 360 44" style="enable-background:new 0 0 360 44;" xml:space="preserve">
<style type="text/css">
	.st0{fill:#FFFFFF;}
	.st1{fill:url(#SVGID_1_);}
	.st2{fill:#BED96F;}
	.st3{fill:#95C942;}
	.st4{fill:#56B747;}
	.st5{fill:#EDE811;}
	.st6{fill:#F69322;}
	.st7{fill:#FFC116;}
	.st8{fill:#BED431;}
	.st9{fill:#E92729;}
</style>
<g>
	<path class="st0" d="M349.8,18.4c-0.2-0.2-0.5-0.3-0.8-0.3c-0.3-0.1-0.6-0.1-0.9-0.1c-0.2,0-0.5,0-0.7,0c-0.2,0-0.4,0-0.5,0.1v4.1
		c0,0,0.1,0,0.2,0c0.1,0,0.2,0,0.3,0c0.1,0,0.2,0,0.3,0s0.2,0,0.2,0c0.3,0,0.6,0,1-0.1c0.3-0.1,0.6-0.2,0.9-0.3
		c0.3-0.2,0.5-0.4,0.6-0.7c0.2-0.3,0.2-0.7,0.2-1.1c0-0.4-0.1-0.7-0.2-1C350.3,18.7,350.1,18.5,349.8,18.4z"/>
	<path class="st0" d="M348.5,14.4C348.5,14.4,348.5,14.4,348.5,14.4L348.5,14.4h-16.6v3.8v11.8l0,0h16.6v0c0,0,0,0,0,0
		c4.3,0,7.8-3.5,7.8-7.8S352.8,14.4,348.5,14.4z M340.9,28.6l-3.7-5.4h-0.6v5.4h-2.5V16h2.5v5.6l0.6-0.3l3.5-5.3h2.8l-3.7,5.3
		l-1,0.7l1,0.7l4.2,5.9H340.9z M352.8,22c-0.3,0.5-0.6,1-1.1,1.3c-0.5,0.3-1,0.6-1.6,0.8c-0.6,0.2-1.2,0.2-1.8,0.2
		c-0.1,0-0.2,0-0.3,0c-0.1,0-0.3,0-0.4,0c-0.1,0-0.3,0-0.4,0c-0.1,0-0.2,0-0.3,0v4.3h-2.5V16.1c0.5-0.1,1.1-0.2,1.7-0.2
		c0.6-0.1,1.2-0.1,1.8-0.1c0.6,0,1.3,0.1,1.9,0.2c0.6,0.1,1.2,0.3,1.7,0.6c0.5,0.3,0.9,0.7,1.2,1.3c0.3,0.5,0.5,1.3,0.5,2.1
		C353.2,20.8,353.1,21.5,352.8,22z"/>
</g>
<g>
	<path class="st0" d="M62.8,29.4c-0.4,0.3-1,0.6-1.7,0.7c-0.7,0.1-1.4,0.2-2.2,0.2c-0.9,0-1.8-0.2-2.6-0.5c-0.8-0.3-1.5-0.8-2.1-1.5
		c-0.6-0.7-1.1-1.5-1.5-2.5c-0.4-1-0.5-2.2-0.5-3.6c0-1.5,0.2-2.7,0.6-3.7c0.4-1,0.9-1.9,1.6-2.5c0.6-0.6,1.4-1.1,2.2-1.4
		s1.6-0.4,2.5-0.4c0.9,0,1.6,0,2.2,0.1c0.6,0.1,1,0.2,1.5,0.4l-0.4,1.7c-0.7-0.4-1.7-0.5-3.1-0.5c-0.6,0-1.2,0.1-1.8,0.3
		c-0.6,0.2-1.1,0.6-1.6,1.1c-0.5,0.5-0.8,1.2-1.1,2c-0.3,0.8-0.4,1.8-0.4,3c0,1.1,0.1,2,0.4,2.8c0.3,0.8,0.6,1.5,1.1,2
		c0.5,0.5,1,0.9,1.7,1.2c0.6,0.3,1.3,0.4,2.1,0.4c0.7,0,1.3-0.1,1.8-0.2c0.5-0.1,0.9-0.3,1.3-0.5L62.8,29.4z"/>
	<path class="st0" d="M65.4,14.4h8.5v1.7h-6.7v5.1h6.1v1.7h-6.1v5.6H74V30h-8.6V14.4z"/>
	<path class="st0" d="M76.8,14.6c0.6-0.1,1.2-0.2,2-0.2s1.4-0.1,2-0.1c0.7,0,1.3,0.1,2,0.2c0.6,0.1,1.2,0.4,1.6,0.7
		c0.5,0.3,0.8,0.8,1.1,1.3c0.3,0.6,0.4,1.2,0.4,2c0,1.2-0.3,2.2-1,3c-0.7,0.8-1.5,1.3-2.5,1.5l1.1,0.8l3.9,6.2h-2.2l-4.3-6.7
		L78.7,23V30h-1.9V14.6z M80.9,15.8c-0.2,0-0.4,0-0.6,0s-0.4,0-0.6,0c-0.2,0-0.4,0-0.5,0c-0.2,0-0.3,0-0.4,0.1v5.8h1.7
		c1,0,1.9-0.3,2.5-0.8c0.7-0.5,1-1.3,1-2.4c0-0.8-0.3-1.5-0.8-2C82.6,16.1,81.8,15.8,80.9,15.8z"/>
	<path class="st0" d="M89.9,14.4h8.5v1.7h-6.7v5.1h6.1v1.7h-6.1v5.6h6.8V30h-8.6V14.4z"/>
	<path class="st0" d="M110.8,18c0,0.4-0.1,0.8-0.2,1.1c-0.1,0.4-0.3,0.7-0.5,1.1c-0.2,0.3-0.5,0.6-0.9,0.9c-0.4,0.3-0.8,0.4-1.3,0.6
		v0.1c0.4,0.1,0.9,0.2,1.3,0.4c0.4,0.2,0.8,0.4,1.1,0.7s0.6,0.7,0.8,1.1c0.2,0.4,0.3,1,0.3,1.6c0,0.8-0.2,1.5-0.5,2.1
		c-0.3,0.6-0.8,1.1-1.3,1.4s-1.2,0.6-1.9,0.8c-0.7,0.2-1.4,0.3-2.1,0.3c-0.3,0-0.6,0-0.9,0c-0.3,0-0.7,0-1.1,0
		c-0.4,0-0.7-0.1-1.1-0.1s-0.7-0.1-1-0.2V14.5c0.6-0.1,1.2-0.2,1.9-0.2s1.5-0.1,2.4-0.1c0.6,0,1.2,0,1.8,0.1
		c0.6,0.1,1.1,0.3,1.6,0.6c0.5,0.3,0.9,0.7,1.2,1.2C110.6,16.6,110.8,17.2,110.8,18z M104.4,21.3c0.3,0,0.6,0,0.9,0
		c0.4,0,0.7,0,0.9-0.1c0.4-0.1,0.7-0.3,1-0.4c0.3-0.2,0.6-0.4,0.8-0.6s0.4-0.5,0.6-0.8c0.1-0.3,0.2-0.6,0.2-1c0-0.5-0.1-0.9-0.3-1.2
		c-0.2-0.3-0.4-0.6-0.7-0.8c-0.3-0.2-0.7-0.3-1.1-0.4c-0.4-0.1-0.8-0.1-1.2-0.1c-0.5,0-0.9,0-1.4,0c-0.4,0-0.7,0.1-0.9,0.1v5.3
		H104.4z M105.6,28.6c0.5,0,0.9-0.1,1.4-0.2c0.4-0.1,0.8-0.3,1.2-0.5s0.6-0.5,0.8-0.9c0.2-0.4,0.3-0.8,0.3-1.3
		c0-0.6-0.1-1.1-0.4-1.5c-0.2-0.4-0.6-0.7-1-0.9c-0.4-0.2-0.8-0.3-1.3-0.4c-0.5-0.1-1-0.1-1.5-0.1h-1.9v5.6c0.1,0,0.3,0.1,0.4,0.1
		c0.2,0,0.4,0,0.6,0s0.5,0,0.7,0C105.2,28.6,105.4,28.6,105.6,28.6z"/>
	<path class="st0" d="M114.3,14.6c0.6-0.1,1.2-0.2,2-0.2s1.4-0.1,2-0.1c0.7,0,1.3,0.1,2,0.2c0.6,0.1,1.2,0.4,1.6,0.7
		c0.5,0.3,0.8,0.8,1.1,1.3c0.3,0.6,0.4,1.2,0.4,2c0,1.2-0.3,2.2-1,3c-0.7,0.8-1.5,1.3-2.5,1.5l1.1,0.8l3.9,6.2h-2.2l-4.3-6.7
		l-2.2-0.3V30h-1.9V14.6z M118.3,15.8c-0.2,0-0.4,0-0.6,0s-0.4,0-0.6,0c-0.2,0-0.4,0-0.5,0c-0.2,0-0.3,0-0.4,0.1v5.8h1.7
		c1,0,1.9-0.3,2.5-0.8c0.7-0.5,1-1.3,1-2.4c0-0.8-0.3-1.5-0.8-2C120,16.1,119.3,15.8,118.3,15.8z"/>
	<path class="st0" d="M126.2,22.2c0-2.6,0.6-4.6,1.7-6s2.7-2.1,4.7-2.1c1.1,0,2.1,0.2,2.9,0.6c0.8,0.4,1.5,0.9,2,1.6
		c0.5,0.7,0.9,1.6,1.2,2.5c0.3,1,0.4,2.1,0.4,3.3c0,2.6-0.6,4.6-1.7,6c-1.1,1.4-2.7,2.1-4.7,2.1c-1.1,0-2-0.2-2.8-0.6
		c-0.8-0.4-1.5-0.9-2-1.6c-0.5-0.7-0.9-1.6-1.2-2.5C126.3,24.6,126.2,23.4,126.2,22.2z M128.2,22.2c0,0.9,0.1,1.7,0.3,2.5
		c0.2,0.8,0.4,1.5,0.8,2c0.4,0.6,0.8,1.1,1.4,1.4c0.6,0.4,1.2,0.5,2,0.5c1.4,0,2.5-0.5,3.3-1.6c0.8-1,1.2-2.7,1.2-4.9
		c0-0.8-0.1-1.7-0.3-2.4c-0.2-0.8-0.4-1.5-0.8-2.1c-0.4-0.6-0.8-1.1-1.4-1.4c-0.6-0.3-1.2-0.5-2-0.5c-1.4,0-2.4,0.5-3.2,1.6
		C128.6,18.4,128.2,20,128.2,22.2z"/>
	<path class="st0" d="M145.8,25.2l0.5,2.4h0l0.6-2.4l3.8-10.7h1.9l-5.9,15.9h-0.8l-6-15.9h2L145.8,25.2z"/>
	<path class="st0" d="M160.8,25.7H155l-1.6,4.3h-1.9l5.9-15.9h0.8l5.9,15.9h-2L160.8,25.7z M155.6,24.1h4.6l-1.7-4.8l-0.6-2.4h0
		l-0.6,2.4L155.6,24.1z"/>
	<path class="st0" d="M174,26.1c0-0.6-0.2-1.1-0.6-1.5c-0.4-0.4-0.8-0.7-1.4-1s-1.2-0.6-1.8-0.9c-0.7-0.3-1.3-0.6-1.8-1
		c-0.6-0.4-1-0.8-1.4-1.4c-0.4-0.6-0.6-1.3-0.6-2.1c0-1.2,0.4-2.2,1.3-2.9s2.1-1.1,3.6-1.1c0.9,0,1.7,0.1,2.5,0.2
		c0.7,0.1,1.3,0.3,1.7,0.5l-0.6,1.7c-0.3-0.2-0.8-0.3-1.5-0.5c-0.7-0.2-1.4-0.2-2.2-0.2c-1,0-1.7,0.2-2.2,0.7
		c-0.5,0.4-0.7,1-0.7,1.6c0,0.6,0.2,1.1,0.6,1.5c0.4,0.4,0.8,0.7,1.4,1c0.6,0.3,1.2,0.6,1.8,0.9c0.7,0.3,1.3,0.6,1.8,1
		c0.6,0.4,1,0.9,1.4,1.4c0.4,0.6,0.6,1.2,0.6,2.1c0,0.7-0.1,1.3-0.4,1.8c-0.2,0.5-0.6,1-1,1.4c-0.5,0.4-1,0.7-1.7,0.9
		c-0.7,0.2-1.4,0.3-2.2,0.3c-1.1,0-2-0.1-2.8-0.3s-1.3-0.4-1.7-0.6l0.6-1.7c0.3,0.2,0.8,0.4,1.5,0.6c0.7,0.2,1.4,0.3,2.3,0.3
		c0.5,0,1,0,1.4-0.1c0.4-0.1,0.8-0.3,1.1-0.5s0.6-0.5,0.7-0.8C173.9,26.9,174,26.5,174,26.1z"/>
	<path class="st0" d="M188.7,29.4c-0.4,0.3-1,0.6-1.7,0.7c-0.7,0.1-1.4,0.2-2.2,0.2c-0.9,0-1.8-0.2-2.6-0.5
		c-0.8-0.3-1.5-0.8-2.1-1.5c-0.6-0.7-1.1-1.5-1.5-2.5c-0.4-1-0.5-2.2-0.5-3.6c0-1.5,0.2-2.7,0.6-3.7c0.4-1,0.9-1.9,1.6-2.5
		c0.6-0.6,1.4-1.1,2.2-1.4s1.6-0.4,2.5-0.4c0.9,0,1.6,0,2.2,0.1c0.6,0.1,1,0.2,1.5,0.4l-0.4,1.7c-0.7-0.4-1.7-0.5-3.1-0.5
		c-0.6,0-1.2,0.1-1.8,0.3c-0.6,0.2-1.1,0.6-1.6,1.1c-0.5,0.5-0.8,1.2-1.1,2c-0.3,0.8-0.4,1.8-0.4,3c0,1.1,0.1,2,0.4,2.8
		c0.3,0.8,0.6,1.5,1.1,2c0.5,0.5,1,0.9,1.7,1.2c0.6,0.3,1.3,0.4,2.1,0.4c0.7,0,1.3-0.1,1.8-0.2c0.5-0.1,0.9-0.3,1.3-0.5L188.7,29.4z
		"/>
	<path class="st0" d="M200.1,14.4h1.8v10.4c0,0.9-0.1,1.7-0.4,2.4c-0.2,0.7-0.6,1.2-1,1.7c-0.5,0.4-1,0.8-1.6,1
		c-0.6,0.2-1.3,0.3-2.1,0.3c-1.8,0-3.2-0.4-4.2-1.3c-0.9-0.8-1.4-2.1-1.4-3.8V14.4h1.9v9.9c0,0.8,0.1,1.5,0.2,2s0.4,1,0.7,1.3
		c0.3,0.3,0.7,0.6,1.2,0.7c0.5,0.1,1,0.2,1.6,0.2c1.2,0,2.1-0.3,2.6-1c0.5-0.7,0.8-1.8,0.8-3.3V14.4z"/>
	<path class="st0" d="M214.8,30h-9.2V14.4h1.9v14h7.4V30z"/>
	<path class="st0" d="M225.4,25.7h-5.7l-1.6,4.3h-1.9l5.9-15.9h0.8l5.9,15.9h-2L225.4,25.7z M220.2,24.1h4.6l-1.7-4.8l-0.6-2.4h0
		l-0.6,2.4L220.2,24.1z"/>
	<path class="st0" d="M231.1,14.6c0.6-0.1,1.2-0.2,2-0.2s1.4-0.1,2-0.1c0.7,0,1.3,0.1,2,0.2c0.6,0.1,1.2,0.4,1.6,0.7
		c0.5,0.3,0.8,0.8,1.1,1.3c0.3,0.6,0.4,1.2,0.4,2c0,1.2-0.3,2.2-1,3c-0.7,0.8-1.5,1.3-2.5,1.5l1.1,0.8l3.9,6.2h-2.2l-4.3-6.7L233,23
		V30h-1.9V14.6z M235.2,15.8c-0.2,0-0.4,0-0.6,0s-0.4,0-0.6,0c-0.2,0-0.4,0-0.5,0c-0.2,0-0.3,0-0.4,0.1v5.8h1.7c1,0,1.9-0.3,2.5-0.8
		c0.7-0.5,1-1.3,1-2.4c0-0.8-0.3-1.5-0.8-2C236.9,16.1,236.1,15.8,235.2,15.8z"/>
	<path class="st0" d="M248.4,14.4c0.3,0,0.6-0.1,0.9-0.1s0.7,0,1.1,0c0.4,0,0.8,0,1.1,0c0.4,0,0.7,0,1,0c1.2,0,2.3,0.2,3.2,0.6
		c0.9,0.4,1.7,0.9,2.3,1.6c0.6,0.7,1,1.5,1.3,2.5s0.4,2,0.4,3.2c0,1.1-0.1,2.1-0.4,3s-0.7,1.8-1.3,2.6c-0.6,0.8-1.4,1.4-2.3,1.8
		c-1,0.5-2.1,0.7-3.5,0.7c-0.2,0-0.5,0-0.9,0c-0.4,0-0.8,0-1.2,0c-0.4,0-0.8,0-1.1-0.1c-0.3,0-0.6,0-0.7-0.1V14.4z M252.6,15.9
		c-0.2,0-0.4,0-0.6,0c-0.2,0-0.5,0-0.7,0c-0.2,0-0.4,0-0.6,0c-0.2,0-0.3,0-0.4,0v12.5c0.1,0,0.2,0,0.4,0c0.2,0,0.4,0,0.6,0
		c0.2,0,0.4,0,0.6,0c0.2,0,0.3,0,0.4,0c1,0,1.9-0.2,2.6-0.5s1.3-0.8,1.7-1.4c0.4-0.6,0.7-1.3,0.9-2.1s0.3-1.6,0.3-2.4
		c0-0.7-0.1-1.5-0.2-2.2c-0.2-0.7-0.4-1.4-0.8-2c-0.4-0.6-0.9-1.1-1.6-1.5C254.5,16.1,253.6,15.9,252.6,15.9z"/>
	<path class="st0" d="M263,14.4h1.9V30H263V14.4z"/>
	<path class="st0" d="M275.6,26.1c0-0.6-0.2-1.1-0.6-1.5c-0.4-0.4-0.8-0.7-1.4-1c-0.6-0.3-1.2-0.6-1.8-0.9s-1.3-0.6-1.8-1
		c-0.6-0.4-1-0.8-1.4-1.4c-0.4-0.6-0.6-1.3-0.6-2.1c0-1.2,0.4-2.2,1.3-2.9s2.1-1.1,3.6-1.1c0.9,0,1.7,0.1,2.5,0.2
		c0.7,0.1,1.3,0.3,1.7,0.5l-0.6,1.7c-0.3-0.2-0.8-0.3-1.5-0.5c-0.7-0.2-1.4-0.2-2.2-0.2c-1,0-1.7,0.2-2.2,0.7
		c-0.5,0.4-0.7,1-0.7,1.6c0,0.6,0.2,1.1,0.6,1.5c0.4,0.4,0.8,0.7,1.4,1c0.6,0.3,1.2,0.6,1.8,0.9c0.7,0.3,1.3,0.6,1.8,1
		c0.6,0.4,1,0.9,1.4,1.4c0.4,0.6,0.6,1.2,0.6,2.1c0,0.7-0.1,1.3-0.4,1.8c-0.2,0.5-0.6,1-1,1.4c-0.5,0.4-1,0.7-1.7,0.9
		c-0.7,0.2-1.4,0.3-2.2,0.3c-1.1,0-2-0.1-2.8-0.3c-0.7-0.2-1.3-0.4-1.7-0.6l0.6-1.7c0.3,0.2,0.8,0.4,1.5,0.6
		c0.7,0.2,1.4,0.3,2.3,0.3c0.5,0,1,0,1.4-0.1c0.4-0.1,0.8-0.3,1.1-0.5c0.3-0.2,0.6-0.5,0.7-0.8C275.5,26.9,275.6,26.5,275.6,26.1z"
		/>
	<path class="st0" d="M280.1,14.4h8.5v1.7H282v5.1h6.1v1.7H282v5.6h6.8V30h-8.6V14.4z"/>
	<path class="st0" d="M299.9,25.7h-5.7l-1.6,4.3h-1.9l5.9-15.9h0.8l5.9,15.9h-2L299.9,25.7z M294.8,24.1h4.6l-1.7-4.8l-0.6-2.4h0
		l-0.6,2.4L294.8,24.1z"/>
	<path class="st0" d="M313.1,26.1c0-0.6-0.2-1.1-0.6-1.5c-0.4-0.4-0.8-0.7-1.4-1c-0.6-0.3-1.2-0.6-1.8-0.9s-1.3-0.6-1.8-1
		c-0.6-0.4-1-0.8-1.4-1.4c-0.4-0.6-0.6-1.3-0.6-2.1c0-1.2,0.4-2.2,1.3-2.9s2.1-1.1,3.6-1.1c0.9,0,1.7,0.1,2.5,0.2
		c0.7,0.1,1.3,0.3,1.7,0.5l-0.6,1.7c-0.3-0.2-0.8-0.3-1.5-0.5c-0.7-0.2-1.4-0.2-2.2-0.2c-1,0-1.7,0.2-2.2,0.7
		c-0.5,0.4-0.7,1-0.7,1.6c0,0.6,0.2,1.1,0.6,1.5c0.4,0.4,0.8,0.7,1.4,1c0.6,0.3,1.2,0.6,1.8,0.9c0.7,0.3,1.3,0.6,1.8,1
		c0.6,0.4,1,0.9,1.4,1.4c0.4,0.6,0.6,1.2,0.6,2.1c0,0.7-0.1,1.3-0.4,1.8c-0.2,0.5-0.6,1-1,1.4c-0.5,0.4-1,0.7-1.7,0.9
		c-0.7,0.2-1.4,0.3-2.2,0.3c-1.1,0-2-0.1-2.8-0.3c-0.7-0.2-1.3-0.4-1.7-0.6l0.6-1.7c0.3,0.2,0.8,0.4,1.5,0.6
		c0.7,0.2,1.4,0.3,2.3,0.3c0.5,0,1,0,1.4-0.1c0.4-0.1,0.8-0.3,1.1-0.5c0.3-0.2,0.6-0.5,0.7-0.8C313,26.9,313.1,26.5,313.1,26.1z"/>
	<path class="st0" d="M317.6,14.4h8.5v1.7h-6.7v5.1h6.1v1.7h-6.1v5.6h6.8V30h-8.6V14.4z"/>
</g>
<g>
	<g>
		<path class="st0" d="M40.9,2.5H3.6c-0.6,0-1,0.5-1,1v37.3c0,0.6,0.5,1.1,1.1,1.1h17c-0.3-2.3-0.6-6.1-3.3-5.5
			c-0.6,0-2.1,0.5-2.8,0.6c-1.4,0.2-2.9,0.1-3.7-1c-0.8-1.2-1.4-6.6-1.6-6.7c-0.2-0.2-3-0.4-3.4-0.6c-0.8-0.5-0.2-1.5-0.2-1.5
			s2.6-3.7,3.1-5.3c0.1-0.4,0-0.7-0.3-1.5c-0.1-0.8-0.6-1.6-0.5-2.4c1-8.5,7-13.9,15.4-13.9c8.4,0,15.2,6.2,15.2,13.9
			c0,2.9-0.9,5.5-2.5,7.7c0,0-1.1,1.9-3.4,5.4c-1,1.5,2.1,9.3,2.7,10.8h5.7c0.6,0,1.1-0.5,1.1-1.1V3.6C41.9,3,41.4,2.5,40.9,2.5z"/>
		
			<linearGradient id="SVGID_1_" gradientUnits="userSpaceOnUse" x1="21.8812" y1="752.2473" x2="21.8812" y2="776.1586" gradientTransform="matrix(1 0 0 -1 0 794)">
			<stop  offset="0.3231" style="stop-color:#67BF72"/>
			<stop  offset="1" style="stop-color:#039949"/>
		</linearGradient>
		<path class="st1" d="M32.5,31.1c2.3-3.5,3.4-5.4,3.4-5.4c1.6-2.2,2.5-4.9,2.5-7.7C38.4,10.3,31.6,4,23.3,4S8.9,9.4,7.9,17.9
			c-0.1,0.8,0.4,1.6,0.5,2.4c0.2,0.8,0.4,1.1,0.3,1.5c-0.5,1.6-3.1,5.3-3.1,5.3s-0.6,1,0.2,1.5C6.2,29,9,29.2,9.2,29.3
			c0.2,0.2,0.7,5.6,1.6,6.7c0.8,1.2,2.4,1.2,3.7,1c0.7-0.1,2.2-0.6,2.8-0.6c2.6-0.6,3,3.2,3.3,5.5h14.6
			C34.5,40.4,31.5,32.6,32.5,31.1z"/>
	</g>
	<path class="st2" d="M11.4,15c0.1-0.3,0.5-0.3,0.5-0.3s0.3,0.2,0.2,0.5c-0.1,0.3-0.6,0.6-0.6,0.6S11.3,15.3,11.4,15z"/>
	<path class="st3" d="M12,17.2c0.2-0.2,0.5-0.1,0.5-0.1s0.2,0.3,0,0.5S11.7,18,11.7,18S11.8,17.5,12,17.2z"/>
	<path class="st3" d="M12.7,17.9c0.2-0.3,0.6-0.1,0.6-0.1s0.2,0.3,0,0.6c-0.2,0.3-0.9,0.4-0.9,0.4S12.5,18.2,12.7,17.9z"/>
	<path class="st0" d="M35.4,16.8c-0.6,0.6-1.1,0.8-2.1,1C32.9,18,32,18,31.1,18.5c-0.1,0.1-0.2,0.1-0.3,0.2c0-0.4,0.1-0.8,0.4-1.3
		c0.6-0.9,1.7-1,2.4-1.4c0.6-0.4,1.1-1,1.2-1.8c0,0-0.4,1.4-1.8,1.8c-0.9,0.3-1.8,0.7-2.3,1.5c-0.4,0.6-0.4,1.3-0.5,1.6
		c-0.5,0.4-0.8,0.8-0.9,1c0,0-0.4-0.5-1.1-1.1c0,0,0,0,0-0.1c-1.5-2.9-1.5-3.9-1-4.6c0.8-1.2,2.6-0.8,4.4-2.1
		c1.5-1.2,1.5-2.7,1.5-2.7s-0.3,1.5-1.6,2.5c-1.5,1.1-2.6,0.9-3.7,1.4c0,0-0.1,0-0.1,0c0-0.1,0.1-0.2,0.1-0.3c0.2-0.7-0.2-1.4-0.5-2
		c-0.8-1.4,0.2-2.8,0.2-2.8c-0.4,0.5-0.9,1.3-0.6,2.5c0.1,0.5,0.7,1.1,0.6,1.9c-0.1,0.4-0.3,0.8-0.5,1l0,0c-0.5,0.5-0.8,1-0.9,1.5
		c0,1,0.2,1.9,0.8,3c-0.5-0.3-1.1-0.5-1.8-0.6c-0.3-0.3-1.2-1.1-1.1-2.1c0.1-1.2,0.4-2.1,0-3.1c-0.4-1.2-1.5-1.8-2.2-2
		c-1.7-1.9-1.1-4.1-1.1-4.1s-0.9,2,0.5,3.9c0,0-0.1,0-0.1,0c-0.5,0-2.9-0.6-4-2.2c0,0,1.2,1.9,3.7,2.5c1.4,0.3,1.9,0.6,2.4,1.4
		c0.5,0.8,0.4,1.6,0.1,3.3c-0.2,1,0.1,1.7,0.5,2.4c-0.5,0-1.1,0.1-1.7,0.3c-0.2,0.1-0.3,0.1-0.5,0.1c0-0.3-0.1-1.1-0.8-1.8l0-0.1
		c-0.1-0.5-0.4-0.9-0.3-1.3c0.1-0.5,0.5-0.6,0.6-1.2c0.2-0.6-0.1-1.3-0.6-1.9c0,0,1.1,1.3,0.2,2.4c-0.5,0.7-0.5,1.2-0.4,1.7
		c-0.9-0.6-1.7-0.8-2.3-1.6c-0.9-1.1,0-2.9,0-2.9s-0.5,0.7-0.6,1.7c-0.1,0.8,0.4,1.4,0.6,1.7c0.6,0.8,1.6,0.9,2.4,1.7
		c0.7,0.7,0.5,1.3,0.5,1.7c-1.8,0.3-3.4-0.2-4.5-1.5c-2.2-2.6-0.2-8.4-0.2-8.4s-1.5,2.7-1.1,6.4c-1.8-2.1-4-0.9-4-0.9s2.6-1,4.1,1.9
		c0.1,0.4,0.3,0.8,0.5,1.2c0,0,0,0,0,0l0,0c0.4,0.7,1.1,1.4,2.1,1.8c-0.3,0.2-1,0.5-1.5,0.4c-0.5-0.1-0.6-0.7-1.3-0.9
		c-0.4-0.1-0.7-0.1-0.9-0.2c-0.3-0.1-0.3-0.7-0.6-0.9c-0.1-0.1-0.5-0.1-0.7-0.2c-0.2,0-0.5-0.2-0.5-0.2c0.1,0.2,0.5,0.4,0.7,0.5
		c0.2,0,0.4,0.1,0.6,0.6s0.5,0.5,1.1,0.7c0.7,0.2,0.6,0.8,1.3,1.1c0.7,0.3,1.7,0,2.6-0.3c0.2-0.1,0.4-0.1,0.6-0.2
		c2.4,0.5,3.6-0.6,5.6-0.2c3.3,0.6,3.3,2.7,3.4,4.3c0,0.2,0,0.5-0.1,0.7c-0.1-0.1-0.1-0.1-0.2-0.2c-0.4-0.4-0.3-1.3-0.9-2.1
		c-0.3-0.4-0.9-0.9-1.9-0.8c-1.1,0.2-1.6,1.1-3.5,1c-1.6-0.1-2.9-1.2-2.9-1.2s0.8,1.3,2.8,1.5c2.8,0.3,3-1.4,4.5-0.7
		c0.8,0.4,0.7,1.2,1.1,2.5c0.1,0.5,0.5,0.9,0.8,1.2c-0.9,4-1.6,11.2,1.6,16.8h3.4c0,0-5.4-8-2.9-17.3c0,0,0.2-1.6-0.1-2.7
		c-0.1-0.5,0.4-1.9,1.5-2.6c1.3-0.9,3.3-0.7,4.1-2c0.5-0.8,0.7-2.7,0.7-2.7S36,16.2,35.4,16.8z"/>
	<path class="st2" d="M26.7,7.3c-0.1,0.3-0.5,0.2-0.5,0.2S26,7.3,26.1,7c0.1-0.3,0.6-0.5,0.6-0.5S26.8,7,26.7,7.3z"/>
	<path class="st4" d="M18.1,7.8c-0.1,0.3-0.4,0.3-0.4,0.3S17.4,8,17.5,7.7C17.5,7.4,18,7,18,7S18.2,7.5,18.1,7.8z"/>
	<path class="st4" d="M18.9,8.5c-0.2,0.3-0.5,0.2-0.5,0.2s-0.3-0.3-0.1-0.6C18.4,7.8,19,7.6,19,7.6S19.1,8.2,18.9,8.5z"/>
	<path class="st4" d="M19.6,9.1C19.3,9.4,19,9.2,19,9.2s-0.2-0.4,0-0.6c0.3-0.3,0.9-0.4,0.9-0.4S19.8,8.8,19.6,9.1z"/>
	<path class="st2" d="M20.4,9.5c-0.3,0.3-0.6,0.1-0.6,0.1s-0.2-0.4,0-0.6c0.3-0.3,0.9-0.4,0.9-0.4S20.6,9.3,20.4,9.5z"/>
	<path class="st3" d="M16.6,15.2c-0.3,0.2-0.5-0.1-0.5-0.1s-0.1-0.3,0.2-0.5c0.3-0.2,0.7-0.1,0.7-0.1S16.8,15,16.6,15.2z"/>
	<path class="st3" d="M16.4,14.2c-0.3,0.2-0.5-0.1-0.5-0.1s-0.1-0.3,0.2-0.5c0.3-0.2,0.7-0.1,0.7-0.1S16.6,14.1,16.4,14.2z"/>
	<path class="st3" d="M16.2,13.4c-0.3,0.2-0.5-0.1-0.5-0.1s-0.1-0.3,0.2-0.5c0.3-0.2,0.7-0.1,0.7-0.1S16.5,13.3,16.2,13.4z"/>
	<path class="st3" d="M16.2,12.6c-0.3,0-0.4-0.3-0.4-0.3s0-0.3,0.4-0.4c0.3,0,0.7,0.2,0.7,0.2S16.5,12.5,16.2,12.6z"/>
	<path class="st3" d="M16.2,11.8c-0.3,0-0.4-0.3-0.4-0.3s0-0.3,0.3-0.4c0.3,0,0.7,0.2,0.7,0.2S16.5,11.7,16.2,11.8z"/>
	<path class="st4" d="M16.3,7.9c0.1,0.3-0.2,0.5-0.2,0.5s-0.3,0-0.4-0.3c-0.1-0.3,0.1-0.8,0.1-0.8S16.2,7.6,16.3,7.9z"/>
	<path class="st3" d="M13.4,18.7c0.2-0.3,0.5-0.3,0.5-0.3s0.3,0.3,0.2,0.6c-0.2,0.3-0.7,0.6-0.7,0.6S13.2,19.1,13.4,18.7z"/>
	<path class="st3" d="M14.1,15.1c0.2-0.3,0.5-0.2,0.5-0.2s0.3,0.3,0.1,0.5C14.6,15.7,14,16,14,16S13.9,15.4,14.1,15.1z"/>
	<path class="st3" d="M13.2,14.3c0.2-0.3,0.5-0.2,0.5-0.2s0.3,0.3,0.1,0.5c-0.1,0.3-0.7,0.5-0.7,0.5S13,14.6,13.2,14.3z"/>
	<path class="st4" d="M14.8,10.3c0.4,0,0.4,0.4,0.4,0.4s-0.1,0.4-0.5,0.4c-0.4,0-0.8-0.4-0.8-0.4S14.5,10.3,14.8,10.3z"/>
	<path class="st4" d="M15.2,9.3c0.4,0.1,0.4,0.5,0.4,0.5S15.4,10.1,15,10c-0.4-0.1-0.7-0.6-0.7-0.6S14.8,9.2,15.2,9.3z"/>
	<path class="st4" d="M15.6,8.5c0.3,0.2,0.1,0.5,0.1,0.5s-0.3,0.2-0.5,0c-0.3-0.2-0.4-0.7-0.4-0.7S15.4,8.3,15.6,8.5z"/>
	<path class="st3" d="M16.7,8.3c-0.2,0.1-0.1,0.4-0.1,0.4s0.2,0.2,0.4,0.1c0.2-0.1,0.3-0.5,0.3-0.5S16.9,8.2,16.7,8.3z"/>
	<path class="st3" d="M16.3,10.4c-0.3,0-0.3,0.3-0.3,0.3s0.1,0.3,0.4,0.3c0.3,0,0.6-0.3,0.6-0.3S16.6,10.4,16.3,10.4z"/>
	<path class="st3" d="M16.5,9.7c-0.3,0-0.4,0.2-0.4,0.2s0,0.3,0.3,0.3c0.3,0,0.6-0.2,0.6-0.2S16.8,9.7,16.5,9.7z"/>
	<path class="st3" d="M16.7,9c-0.3,0-0.3,0.3-0.3,0.3s0.1,0.3,0.3,0.3c0.3,0,0.6-0.3,0.6-0.3S16.9,9,16.7,9z"/>
	<path class="st4" d="M12.9,12.7c0.1,0.3-0.3,0.5-0.3,0.5s-0.4,0-0.4-0.4c-0.1-0.3,0.2-0.8,0.2-0.8S12.8,12.3,12.9,12.7z"/>
	<path class="st4" d="M13.9,12.9c-0.1,0.3-0.5,0.3-0.5,0.3s-0.3-0.2-0.2-0.5s0.5-0.7,0.5-0.7S14,12.6,13.9,12.9z"/>
	<path class="st2" d="M13.4,12.1c-0.1,0.2-0.3,0.2-0.3,0.2s-0.2-0.1-0.2-0.4s0.4-0.5,0.4-0.5S13.4,11.8,13.4,12.1z"/>
	<path class="st4" d="M11.8,12.8c0.2,0.3,0,0.5,0,0.5s-0.3,0.1-0.5-0.1c-0.2-0.3-0.2-0.8-0.2-0.8S11.6,12.5,11.8,12.8z"/>
	<path class="st4" d="M14.6,11.2c0.3-0.1,0.5,0.2,0.5,0.2s0.1,0.4-0.3,0.5c-0.3,0.1-0.8,0-0.8,0S14.3,11.3,14.6,11.2z"/>
	<path class="st3" d="M12,14.1c0.1-0.3,0.4-0.4,0.4-0.4s0.3,0.2,0.3,0.5S12.2,15,12.2,15S12,14.5,12,14.1z"/>
	<path class="st3" d="M11.1,14c0.2-0.3,0.5-0.2,0.5-0.2s0.3,0.3,0.1,0.5S11,14.9,11,14.9S10.9,14.3,11.1,14z"/>
	<path class="st4" d="M14.6,13.5c-0.2,0.2-0.5,0-0.5,0S14,13.2,14.2,13c0.2-0.2,0.8-0.2,0.8-0.2S14.9,13.3,14.6,13.5z"/>
	<path class="st2" d="M12.1,12c0.1,0.3-0.2,0.5-0.2,0.5s-0.4,0-0.4-0.3c-0.1-0.3,0.1-0.8,0.1-0.8S12,11.7,12.1,12z"/>
	<path class="st2" d="M12.7,11.3c0.1,0.2-0.1,0.5-0.1,0.5s-0.3,0.1-0.4-0.2c-0.1-0.2-0.1-0.7-0.1-0.7S12.6,11,12.7,11.3z"/>
	<path class="st4" d="M14.6,12c0.3,0,0.4,0.3,0.4,0.3s0,0.3-0.3,0.3c-0.3,0-0.7-0.2-0.7-0.2S14.4,12.1,14.6,12z"/>
	<path class="st2" d="M14.7,8.7C15,8.7,15,9,15,9s-0.1,0.3-0.4,0.2C14.3,9.1,14,8.8,14,8.8S14.5,8.6,14.7,8.7z"/>
	<path class="st2" d="M13.8,10.9c0.3,0,0.3,0.3,0.3,0.3s-0.1,0.3-0.4,0.3c-0.3,0-0.6-0.3-0.6-0.3S13.6,10.9,13.8,10.9z"/>
	<path class="st2" d="M12.3,15.3c0-0.3,0.4-0.4,0.4-0.4S13,15,13,15.3s-0.4,0.7-0.4,0.7S12.3,15.6,12.3,15.3z"/>
	<path class="st2" d="M13.3,15.4c0.2-0.3,0.5-0.2,0.5-0.2s0.3,0.3,0.1,0.5c-0.2,0.3-0.7,0.5-0.7,0.5S13.1,15.7,13.3,15.4z"/>
	<path class="st2" d="M14.7,15.9c0.2-0.3,0.5-0.2,0.5-0.2s0.3,0.3,0.1,0.5c-0.2,0.3-0.7,0.5-0.7,0.5S14.5,16.2,14.7,15.9z"/>
	<path class="st3" d="M11.7,16.3c0.3,0,0.4,0.4,0.4,0.4S12,17,11.7,17c-0.3,0-0.7-0.5-0.7-0.5S11.4,16.3,11.7,16.3z"/>
	<path class="st2" d="M13.4,10.2c0.3,0,0.4,0.4,0.4,0.4s-0.1,0.3-0.4,0.3c-0.3,0-0.7-0.4-0.7-0.4S13.1,10.2,13.4,10.2z"/>
	<path class="st2" d="M14,9.5c0.3,0.1,0.3,0.4,0.3,0.4s-0.2,0.3-0.5,0.2c-0.3-0.1-0.6-0.5-0.6-0.5S13.7,9.4,14,9.5z"/>
	<path class="st3" d="M20.4,6.3c0.3,0.2,0.2,0.5,0.2,0.5S20.4,7,20.1,6.9c-0.3-0.2-0.5-0.6-0.5-0.6S20.2,6.1,20.4,6.3z"/>
	<path class="st2" d="M23.2,7.1C23,7.2,22.9,7,22.9,7s0-0.3,0.2-0.3s0.6,0.1,0.6,0.1S23.4,7.1,23.2,7.1z"/>
	<path class="st2" d="M23.8,7.9c-0.2,0.1-0.3-0.1-0.3-0.1s0-0.2,0.2-0.3c0.2-0.1,0.5,0.1,0.5,0.1S24,7.8,23.8,7.9z"/>
	<path class="st2" d="M24.2,9.7c-0.3,0.1-0.5-0.2-0.5-0.2s0-0.3,0.3-0.4c0.3-0.1,0.8,0.1,0.8,0.1S24.5,9.6,24.2,9.7z"/>
	<path class="st4" d="M21.6,7.7c-0.4,0.1-0.5-0.3-0.5-0.3s0-0.4,0.4-0.5c0.4-0.1,0.9,0.2,0.9,0.2S22,7.6,21.6,7.7z"/>
	<path class="st3" d="M20,8c0.4-0.1,0.5,0.3,0.5,0.3s0,0.4-0.4,0.5c-0.4,0.1-0.9-0.2-0.9-0.2S19.6,8.1,20,8z"/>
	<path class="st3" d="M20.3,9c0.4-0.1,0.5,0.3,0.5,0.3s0,0.4-0.4,0.5c-0.4,0.1-0.9-0.2-0.9-0.2S20,9.1,20.3,9z"/>
	<path class="st4" d="M21.7,8.6c-0.4,0-0.5-0.4-0.5-0.4s0.1-0.4,0.5-0.4c0.4,0,0.9,0.4,0.9,0.4S22.1,8.6,21.7,8.6z"/>
	<path class="st4" d="M22.2,9.5c-0.4,0.1-0.6-0.2-0.6-0.2s0-0.4,0.3-0.5c0.4-0.1,1,0.1,1,0.1S22.5,9.4,22.2,9.5z"/>
	<path class="st4" d="M22.8,10.3c-0.4,0.1-0.6-0.2-0.6-0.2s0-0.4,0.3-0.5c0.4-0.1,1,0.1,1,0.1S23.2,10.1,22.8,10.3z"/>
	<path class="st3" d="M20.9,5.7c0.2,0.3-0.1,0.5-0.1,0.5S20.5,6.3,20.4,6c-0.2-0.3-0.1-0.8-0.1-0.8S20.8,5.4,20.9,5.7z"/>
	<path class="st4" d="M21.7,6.7c-0.3,0.2-0.5,0-0.5,0S21,6.3,21.3,6.1c0.3-0.2,0.8-0.2,0.8-0.2S22,6.4,21.7,6.7z"/>
	<path class="st2" d="M22.5,6.8C22.3,7,22,6.7,22,6.7S22,6.3,22.3,6.2c0.3-0.1,0.8,0,0.8,0S22.8,6.7,22.5,6.8z"/>
	<path class="st2" d="M22.7,7.9c-0.3,0.1-0.5-0.3-0.5-0.3s0-0.4,0.4-0.4c0.3-0.1,0.8,0.2,0.8,0.2S23.1,7.8,22.7,7.9z"/>
	<path class="st2" d="M23.1,8.7c-0.3,0.1-0.5-0.3-0.5-0.3S22.6,8,23,8c0.3-0.1,0.8,0.2,0.8,0.2S23.4,8.6,23.1,8.7z"/>
	<path class="st2" d="M23.5,9.4C23.2,9.5,23,9.2,23,9.2s-0.1-0.4,0.2-0.5c0.3-0.1,0.8,0,0.8,0S23.8,9.2,23.5,9.4z"/>
	<path class="st4" d="M23.8,10.6c-0.2,0.3-0.5,0.1-0.5,0.1s-0.2-0.3,0-0.5C23.4,9.9,24,9.8,24,9.8S24,10.4,23.8,10.6z"/>
	<path class="st4" d="M17.5,11.5c0.2,0.1,0.2,0.3,0.2,0.3s-0.1,0.2-0.4,0.1c-0.2-0.1-0.5-0.4-0.5-0.4S17.3,11.4,17.5,11.5z"/>
	<path class="st4" d="M17.2,12.1c0.3,0,0.3,0.3,0.3,0.3s-0.1,0.3-0.4,0.2c-0.2,0-0.5-0.4-0.5-0.4S17,12.1,17.2,12.1z"/>
	<path class="st4" d="M17,12.9c0.3-0.1,0.4,0.2,0.4,0.2s0,0.3-0.3,0.4c-0.3,0.1-0.7-0.1-0.7-0.1S16.8,12.9,17,12.9z"/>
	<path class="st4" d="M17.2,13.6c0.3-0.1,0.5,0.2,0.5,0.2s0,0.3-0.3,0.4c-0.3,0.1-0.8-0.1-0.8-0.1S16.8,13.7,17.2,13.6z"/>
	<path class="st4" d="M17.5,14.5c0.3-0.1,0.5,0.1,0.5,0.1s0.1,0.3-0.2,0.5c-0.3,0.1-0.8,0.1-0.8,0.1S17.2,14.6,17.5,14.5z"/>
	<path class="st4" d="M17.9,15.3c0.2-0.3,0.5-0.1,0.5-0.1s0.2,0.3,0,0.5c-0.2,0.3-0.7,0.4-0.7,0.4S17.7,15.5,17.9,15.3z"/>
	<path class="st4" d="M18.6,14c-0.2,0.1-0.4-0.2-0.4-0.2s0-0.3,0.2-0.3c0.2-0.1,0.6,0.1,0.6,0.1S18.9,13.9,18.6,14z"/>
	<path class="st4" d="M19.2,14.5c-0.2,0.2-0.4,0-0.4,0s-0.1-0.3,0.1-0.4c0.2-0.2,0.6-0.2,0.6-0.2S19.4,14.4,19.2,14.5z"/>
	<path class="st4" d="M18.5,13.3c-0.2,0.1-0.4-0.1-0.4-0.1S18,13,18.3,12.9c0.2-0.1,0.6,0,0.6,0S18.7,13.2,18.5,13.3z"/>
	<path class="st4" d="M15.5,17.8c-0.2,0.2-0.5,0.1-0.5,0.1s-0.2-0.3,0-0.5c0.2-0.2,0.7-0.4,0.7-0.4S15.6,17.6,15.5,17.8z"/>
	<path class="st4" d="M16.2,18.2c-0.1,0.2-0.4,0.2-0.4,0.2s-0.2-0.2-0.1-0.5c0.1-0.2,0.6-0.4,0.6-0.4S16.3,18,16.2,18.2z"/>
	<path class="st4" d="M16.7,18.8c-0.1,0.2-0.4,0.2-0.4,0.2s-0.2-0.2-0.1-0.4c0.1-0.2,0.5-0.4,0.5-0.4S16.8,18.6,16.7,18.8z"/>
	<path class="st4" d="M18.3,12.7c-0.3,0-0.3-0.3-0.3-0.3s0.1-0.3,0.3-0.3c0.3,0,0.6,0.3,0.6,0.3S18.5,12.7,18.3,12.7z"/>
	<path class="st3" d="M14.4,19.1c0.2-0.3,0.5-0.2,0.5-0.2s0.3,0.3,0.1,0.5c-0.2,0.3-0.7,0.5-0.7,0.5S14.2,19.4,14.4,19.1z"/>
	<path class="st3" d="M15.1,19.8c0.1-0.3,0.4-0.3,0.4-0.3s0.3,0.2,0.2,0.5c-0.1,0.3-0.5,0.6-0.5,0.6S15,20.1,15.1,19.8z"/>
	<path class="st4" d="M18.4,12.1c-0.2-0.1-0.2-0.3-0.2-0.3s0.1-0.2,0.4-0.2C18.7,11.7,19,12,19,12S18.6,12.1,18.4,12.1z"/>
	<path class="st3" d="M20.6,12.3c0.3,0,0.3,0.3,0.3,0.3s-0.1,0.3-0.3,0.3S20,12.6,20,12.6S20.4,12.3,20.6,12.3z"/>
	<path class="st3" d="M20.2,11.7c0.2-0.1,0.4,0.1,0.4,0.1s0,0.3-0.2,0.4c-0.2,0.1-0.6-0.1-0.6-0.1S20,11.7,20.2,11.7z"/>
	<path class="st4" d="M19.9,12.7c0.2,0,0.3,0.2,0.3,0.2s0,0.3-0.3,0.3c-0.2,0-0.6-0.2-0.6-0.2S19.7,12.7,19.9,12.7z"/>
	<path class="st3" d="M20.7,13c0.3,0,0.3,0.3,0.3,0.3s-0.1,0.3-0.3,0.3s-0.5-0.3-0.5-0.3S20.5,13,20.7,13z"/>
	<path class="st3" d="M20.5,13.6c0.2,0.1,0.2,0.3,0.2,0.3s-0.1,0.2-0.4,0.2s-0.5-0.4-0.5-0.4S20.3,13.5,20.5,13.6z"/>
	<path class="st3" d="M20.2,14.2c0.2,0.1,0.1,0.4,0.1,0.4s-0.2,0.2-0.4,0c-0.2-0.1-0.3-0.5-0.3-0.5S20,14.1,20.2,14.2z"/>
	<path class="st4" d="M19.7,13.3c0.2,0.1,0.1,0.4,0.1,0.4s-0.2,0.2-0.4,0c-0.2-0.1-0.3-0.5-0.3-0.5S19.5,13.2,19.7,13.3z"/>
	<path class="st4" d="M18.8,11.3c-0.2,0.2-0.4,0.1-0.4,0.1s-0.2-0.2,0-0.4c0.2-0.2,0.6-0.3,0.6-0.3S19,11.2,18.8,11.3z"/>
	<path class="st4" d="M18,11c0.1,0.2,0,0.4,0,0.4s-0.2,0.1-0.4-0.1c-0.1-0.2-0.1-0.6-0.1-0.6S17.8,10.8,18,11z"/>
	<path class="st2" d="M17.2,8.7c0.2-0.2,0.5,0,0.5,0s0.1,0.3-0.1,0.5c-0.2,0.2-0.7,0.2-0.7,0.2S17,8.9,17.2,8.7z"/>
	<path class="st2" d="M19.2,10.5c0.1-0.3,0.5-0.3,0.5-0.3s0.3,0.2,0.2,0.6c-0.1,0.3-0.7,0.6-0.7,0.6S19.1,10.9,19.2,10.5z"/>
	<path class="st2" d="M18.3,10c0.2-0.3,0.6-0.2,0.6-0.2s0.3,0.3,0.1,0.6c-0.2,0.3-0.8,0.5-0.8,0.5S18.1,10.3,18.3,10z"/>
	<path class="st2" d="M17.7,9.4c0.2-0.2,0.5-0.1,0.5-0.1s0.2,0.3,0,0.5c-0.2,0.2-0.7,0.3-0.7,0.3S17.5,9.6,17.7,9.4z"/>
	<path class="st2" d="M20,11c0.1-0.3,0.4-0.4,0.4-0.4s0.3,0.1,0.3,0.5c-0.1,0.3-0.5,0.7-0.5,0.7S20,11.3,20,11z"/>
	<path class="st4" d="M18.3,20.3c0.3,0,0.3,0.3,0.3,0.3s-0.1,0.3-0.3,0.3c-0.3,0-0.6-0.2-0.6-0.2S18,20.3,18.3,20.3z"/>
	<path class="st3" d="M18.4,21.1c0.2-0.2,0.5,0,0.5,0s0.1,0.3-0.1,0.5c-0.2,0.2-0.7,0.2-0.7,0.2S18.2,21.3,18.4,21.1z"/>
	<path class="st4" d="M18.5,21.8c0.2-0.1,0.4,0.1,0.4,0.1s0.1,0.2-0.1,0.4c-0.2,0.1-0.6,0-0.6,0S18.3,21.9,18.5,21.8z"/>
	<path class="st4" d="M17.9,20.9c0.2-0.1,0.3,0.1,0.3,0.1s0.1,0.2-0.1,0.3c-0.2,0.1-0.5,0-0.5,0S17.7,21,17.9,20.9z"/>
	<path class="st4" d="M19.2,22.5c0.2-0.1,0.4,0,0.4,0s0.1,0.2-0.1,0.4C19.3,23,18.9,23,18.9,23S19,22.6,19.2,22.5z"/>
	<path class="st3" d="M19,21.7c0.2-0.2,0.5-0.1,0.5-0.1s0.2,0.3,0,0.5c-0.2,0.2-0.7,0.4-0.7,0.4S18.9,22,19,21.7z"/>
	<path class="st3" d="M19.7,22.3c0.1-0.3,0.5-0.3,0.5-0.3s0.3,0.2,0.2,0.5c-0.1,0.3-0.5,0.6-0.5,0.6S19.6,22.6,19.7,22.3z"/>
	<path class="st3" d="M20.6,22.6c0-0.3,0.4-0.3,0.4-0.3s0.3,0.1,0.3,0.4c0,0.3-0.4,0.6-0.4,0.6S20.5,22.9,20.6,22.6z"/>
	<path class="st4" d="M21.4,22.7c0-0.3,0.3-0.4,0.3-0.4s0.3,0.1,0.3,0.4c0,0.3-0.3,0.7-0.3,0.7S21.4,23,21.4,22.7z"/>
	<path class="st4" d="M22.3,22.7c0-0.2,0.2-0.3,0.2-0.3s0.3,0.1,0.3,0.3c0,0.3-0.2,0.6-0.2,0.6S22.3,22.9,22.3,22.7z"/>
	<path class="st4" d="M22.5,21.5c0,0.2-0.3,0.3-0.3,0.3s-0.3-0.1-0.2-0.4c0-0.2,0.3-0.5,0.3-0.5S22.5,21.2,22.5,21.5z"/>
	<path class="st4" d="M23.1,21.5c0,0.2-0.2,0.2-0.2,0.2s-0.2-0.1-0.2-0.3c0-0.2,0.3-0.4,0.3-0.4S23.1,21.3,23.1,21.5z"/>
	<path class="st4" d="M21.5,20.6c0,0.2-0.2,0.2-0.2,0.2s-0.2-0.1-0.2-0.3s0.3-0.4,0.3-0.4S21.5,20.4,21.5,20.6z"/>
	<path class="st4" d="M22.2,20.8C22.1,21,22,21,22,21s-0.2-0.1-0.1-0.2c0-0.2,0.2-0.3,0.2-0.3S22.2,20.6,22.2,20.8z"/>
	<path class="st4" d="M19.1,20c0,0.3-0.3,0.3-0.3,0.3s-0.3-0.1-0.3-0.3c0-0.3,0.2-0.6,0.2-0.6S19.1,19.8,19.1,20z"/>
	<path class="st4" d="M19.6,20.6c-0.1,0.2-0.4,0.1-0.4,0.1s-0.2-0.2-0.1-0.4c0.1-0.2,0.5-0.4,0.5-0.4S19.8,20.4,19.6,20.6z"/>
	<path class="st4" d="M20.3,21c-0.1,0.2-0.4,0.1-0.4,0.1s-0.2-0.2-0.1-0.5c0.1-0.2,0.6-0.4,0.6-0.4S20.4,20.7,20.3,21z"/>
	<path class="st2" d="M21,21.2c-0.1,0.3-0.4,0.2-0.4,0.2s-0.3-0.2-0.2-0.4c0.1-0.3,0.5-0.5,0.5-0.5S21.1,21,21,21.2z"/>
	<path class="st2" d="M20.3,20.1c-0.1,0.2-0.3,0.2-0.3,0.2s-0.2-0.1-0.1-0.3c0.1-0.2,0.4-0.4,0.4-0.4S20.4,19.9,20.3,20.1z"/>
	<path class="st2" d="M20.9,20.3c-0.1,0.2-0.3,0.2-0.3,0.2s-0.2-0.1-0.1-0.4c0.1-0.2,0.4-0.4,0.4-0.4S21,20.1,20.9,20.3z"/>
	<path class="st2" d="M19.5,19.9c-0.1,0.1-0.3,0-0.3,0s-0.1-0.2,0.1-0.3c0.1-0.1,0.4-0.1,0.4-0.1S19.6,19.8,19.5,19.9z"/>
	<path class="st2" d="M21.7,21.4c-0.1,0.3-0.4,0.2-0.4,0.2s-0.3-0.2-0.2-0.4s0.5-0.5,0.5-0.5S21.8,21.2,21.7,21.4z"/>
	<path class="st4" d="M28.1,7.7c-0.1,0.3-0.4,0.3-0.4,0.3s-0.3-0.2-0.2-0.5C27.5,7.2,28,6.8,28,6.8S28.2,7.3,28.1,7.7z"/>
	<path class="st3" d="M28.7,12.8c-0.3,0.2-0.5-0.1-0.5-0.1s-0.1-0.3,0.2-0.5c0.3-0.2,0.7-0.1,0.7-0.1S29,12.7,28.7,12.8z"/>
	<path class="st3" d="M28.4,12c-0.3,0-0.4-0.3-0.4-0.3s0-0.3,0.4-0.4c0.3,0,0.7,0.2,0.7,0.2S28.7,12,28.4,12z"/>
	<path class="st3" d="M28.2,11.3c-0.3,0.1-0.4-0.2-0.4-0.2s0-0.3,0.2-0.4c0.3-0.1,0.7,0.1,0.7,0.1S28.5,11.2,28.2,11.3z"/>
	<path class="st4" d="M27.4,7.9c0.1,0.3-0.2,0.5-0.2,0.5s-0.3,0-0.4-0.3c-0.1-0.3,0.1-0.8,0.1-0.8S27.3,7.6,27.4,7.9z"/>
	<path class="st4" d="M26.3,10.4c0.4,0,0.5,0.4,0.5,0.4s-0.1,0.4-0.5,0.4s-0.8-0.4-0.8-0.4S26,10.4,26.3,10.4z"/>
	<path class="st4" d="M26.4,9.3c0.4,0.1,0.4,0.5,0.4,0.5s-0.2,0.4-0.5,0.3c-0.4-0.1-0.8-0.5-0.8-0.5S26,9.3,26.4,9.3z"/>
	<path class="st4" d="M26.8,8.5C27,8.7,26.9,9,26.9,9S26.7,9.2,26.4,9C26.2,8.9,26,8.4,26,8.4S26.5,8.3,26.8,8.5z"/>
	<path class="st3" d="M27.9,8.1c-0.2,0.1-0.1,0.4-0.1,0.4s0.2,0.2,0.4,0.1c0.2-0.1,0.3-0.5,0.3-0.5S28.1,8,27.9,8.1z"/>
	<path class="st4" d="M28.5,10.4c-0.2,0.1-0.1,0.3-0.1,0.3s0.1,0.1,0.3,0c0.2-0.1,0.3-0.4,0.3-0.4S28.7,10.3,28.5,10.4z"/>
	<path class="st3" d="M27.8,10.1c-0.3,0-0.3,0.3-0.3,0.3s0.1,0.3,0.4,0.3c0.3,0,0.6-0.3,0.6-0.3S28,10.1,27.8,10.1z"/>
	<path class="st3" d="M27.7,9.4c-0.3,0-0.4,0.2-0.4,0.2s0,0.3,0.3,0.3c0.3,0,0.6-0.2,0.6-0.2S27.9,9.5,27.7,9.4z"/>
	<path class="st3" d="M27.8,8.7c-0.3,0-0.3,0.3-0.3,0.3s0.1,0.3,0.3,0.3S28.3,9,28.3,9S28,8.7,27.8,8.7z"/>
	<path class="st4" d="M36.7,15.7c-0.2,0-0.2-0.2-0.2-0.2s0.1-0.2,0.3-0.2s0.4,0.2,0.4,0.2S36.9,15.7,36.7,15.7z"/>
	<path class="st4" d="M36.6,15.1c-0.2,0-0.2-0.2-0.2-0.2s0.1-0.2,0.2-0.2c0.2,0,0.4,0.2,0.4,0.2S36.8,15.1,36.6,15.1z"/>
	<path class="st4" d="M36.7,14.6c-0.1,0-0.2-0.1-0.2-0.1s0-0.2,0.1-0.2s0.4,0.1,0.4,0.1S36.8,14.5,36.7,14.6z"/>
	<path class="st4" d="M36.6,16.4c-0.2-0.1-0.2-0.4-0.2-0.4s0.2-0.2,0.4-0.2c0.2,0.1,0.5,0.5,0.5,0.5S36.8,16.5,36.6,16.4z"/>
	<path class="st4" d="M26.6,11.3c0.3-0.1,0.5,0.1,0.5,0.1s0.1,0.4-0.2,0.5c-0.3,0.1-0.8,0-0.8,0S26.3,11.4,26.6,11.3z"/>
	<path class="st4" d="M36.3,17.1c-0.2-0.1-0.1-0.4-0.1-0.4s0.2-0.2,0.4-0.1c0.2,0.1,0.4,0.5,0.4,0.5S36.5,17.2,36.3,17.1z"/>
	<path class="st4" d="M35.9,17.7c-0.2-0.2-0.1-0.4-0.1-0.4s0.2-0.2,0.4,0c0.2,0.2,0.3,0.6,0.3,0.6S36.1,17.8,35.9,17.7z"/>
	<path class="st4" d="M35.4,18.3c-0.1-0.2,0.1-0.4,0.1-0.4s0.3-0.1,0.4,0.1c0.1,0.2,0.1,0.6,0.1,0.6S35.5,18.5,35.4,18.3z"/>
	<path class="st3" d="M17,7.8C16.9,8,16.6,8,16.6,8s-0.2-0.2-0.1-0.5C16.6,7.3,17,7.1,17,7.1S17.1,7.6,17,7.8z"/>
	<path class="st4" d="M27,12c0.3,0,0.4,0.2,0.4,0.2s0,0.3-0.3,0.3s-0.7-0.2-0.7-0.2S26.7,12.1,27,12z"/>
	<path class="st2" d="M25.9,8.7c0.3,0,0.3,0.4,0.3,0.4S26,9.4,25.8,9.3c-0.3,0-0.6-0.4-0.6-0.4S25.6,8.7,25.9,8.7z"/>
	<path class="st2" d="M25.8,11.1c0.3,0,0.4,0.3,0.4,0.3s-0.1,0.3-0.4,0.3c-0.3,0-0.6-0.3-0.6-0.3S25.5,11.1,25.8,11.1z"/>
	<path class="st2" d="M24.9,10.5c0.3,0,0.4,0.4,0.4,0.4s-0.1,0.4-0.4,0.3c-0.3,0-0.7-0.4-0.7-0.4S24.5,10.5,24.9,10.5z"/>
	<path class="st2" d="M25.5,9.8c0.3,0.1,0.4,0.4,0.4,0.4s-0.1,0.3-0.5,0.3s-0.7-0.5-0.7-0.5S25.2,9.8,25.5,9.8z"/>
	<path class="st5" d="M33.7,9.8c-0.2,0-0.3,0.2-0.3,0.2s0.1,0.3,0.3,0.3s0.6-0.2,0.6-0.2S33.9,9.8,33.7,9.8z"/>
	<path class="st6" d="M32.1,10.2c0.3,0.3,0.6,0.1,0.6,0.1s0.2-0.3,0-0.6c-0.3-0.3-0.8-0.4-0.8-0.4S31.9,9.9,32.1,10.2z"/>
	<path class="st7" d="M33.5,10.6c-0.3-0.1-0.5,0.1-0.5,0.1s-0.1,0.3,0.2,0.5c0.3,0.1,0.8,0,0.8,0S33.8,10.7,33.5,10.6z"/>
	<path class="st6" d="M33.1,11.5c-0.2-0.2-0.5,0-0.5,0s-0.2,0.3,0.1,0.5c0.2,0.2,0.8,0.3,0.8,0.3S33.3,11.7,33.1,11.5z"/>
	<path class="st7" d="M32.3,12.2c-0.2-0.2-0.5,0-0.5,0s-0.2,0.3,0.1,0.5s0.7,0.3,0.7,0.3S32.6,12.4,32.3,12.2z"/>
	<path class="st5" d="M31.7,12.8c-0.2-0.3-0.5-0.2-0.5-0.2s-0.3,0.3-0.1,0.5c0.2,0.3,0.7,0.5,0.7,0.5S31.8,13.1,31.7,12.8z"/>
	<path class="st8" d="M30.9,13.3C30.8,13,30.4,13,30.4,13s-0.3,0.2-0.2,0.5s0.5,0.6,0.5,0.6S31,13.6,30.9,13.3z"/>
	<path class="st2" d="M33.2,12.4c-0.2-0.2-0.4,0-0.4,0s-0.1,0.2,0,0.4c0.2,0.2,0.6,0.2,0.6,0.2S33.3,12.6,33.2,12.4z"/>
	<path class="st2" d="M33.8,11.4c-0.2-0.1-0.4,0.1-0.4,0.1s0,0.3,0.2,0.4c0.2,0.1,0.7,0,0.7,0S34.1,11.5,33.8,11.4z"/>
	<path class="st2" d="M33.9,12.4c-0.2-0.1-0.3,0-0.3,0s-0.1,0.2,0.1,0.3c0.2,0.1,0.5,0.1,0.5,0.1S34,12.5,33.9,12.4z"/>
	<path class="st2" d="M32.4,13c-0.2-0.2-0.4,0-0.4,0s-0.1,0.3,0,0.4c0.2,0.2,0.6,0.2,0.6,0.2S32.6,13.2,32.4,13z"/>
	<path class="st2" d="M34.2,10.5c-0.2-0.1-0.3,0.1-0.3,0.1s0,0.2,0.2,0.3c0.2,0.1,0.5,0,0.5,0S34.4,10.5,34.2,10.5z"/>
	<path class="st9" d="M31.7,11c0.3,0.2,0.6,0,0.6,0s0.2-0.4-0.2-0.6c-0.3-0.2-0.9-0.2-0.9-0.2S31.3,10.8,31.7,11z"/>
	<path class="st6" d="M30.8,11.6c0.3,0.3,0.6,0.1,0.6,0.1s0.2-0.4-0.1-0.6c-0.3-0.3-0.9-0.3-0.9-0.3S30.6,11.3,30.8,11.6z"/>
	<path class="st7" d="M29.9,12c0.1,0.3,0.5,0.3,0.5,0.3s0.3-0.2,0.2-0.5s-0.6-0.6-0.6-0.6S29.8,11.7,29.9,12z"/>
	<path class="st5" d="M29.1,12.3c0.1,0.3,0.4,0.3,0.4,0.3s0.3-0.1,0.2-0.4c-0.1-0.3-0.5-0.6-0.5-0.6S29.1,12,29.1,12.3z"/>
	<path class="st7" d="M32.4,9.2C32.6,9.5,33,9.4,33,9.4s0.3-0.3,0.1-0.5c-0.2-0.3-0.7-0.5-0.7-0.5S32.3,8.9,32.4,9.2z"/>
	<path class="st3" d="M34.4,14.3c0.2,0.1,0.1,0.4,0.1,0.4s-0.2,0.2-0.4,0c-0.2-0.1-0.3-0.5-0.3-0.5S34.2,14.1,34.4,14.3z"/>
	<path class="st3" d="M34,14.7c0.1,0.2-0.1,0.4-0.1,0.4s-0.3,0.1-0.4-0.2s0-0.6,0-0.6S33.9,14.5,34,14.7z"/>
	<path class="st3" d="M33.4,15.2c0,0.3-0.3,0.4-0.3,0.4s-0.3-0.1-0.3-0.3c0-0.3,0.2-0.6,0.2-0.6S33.4,14.9,33.4,15.2z"/>
	<path class="st3" d="M32.6,15.4c0.1,0.3-0.2,0.5-0.2,0.5s-0.3,0-0.4-0.3c-0.1-0.3,0.1-0.8,0.1-0.8S32.5,15.1,32.6,15.4z"/>
	<path class="st4" d="M31.8,15.7c0.1,0.3-0.2,0.5-0.2,0.5s-0.3,0.1-0.5-0.2s0-0.8,0-0.8S31.7,15.4,31.8,15.7z"/>
	<path class="st2" d="M27.4,7c-0.1,0.2-0.3,0.2-0.3,0.2S26.9,7,27,6.8c0.1-0.2,0.4-0.4,0.4-0.4S27.5,6.8,27.4,7z"/>
	<path class="st2" d="M28.8,7.4c0,0.2-0.2,0.3-0.2,0.3s-0.2,0-0.3-0.3c0-0.2,0.2-0.5,0.2-0.5S28.8,7.1,28.8,7.4z"/>
	<path class="st2" d="M29.3,6.8c0.1,0.2,0,0.4,0,0.4S29.1,7.3,29,7.1c-0.1-0.2-0.1-0.5-0.1-0.5S29.2,6.7,29.3,6.8z"/>
	<path class="st2" d="M26.3,6.5C26.2,6.7,26,6.7,26,6.7s-0.2-0.2-0.1-0.4c0.1-0.2,0.4-0.4,0.4-0.4S26.4,6.3,26.3,6.5z"/>
	<path class="st3" d="M34.8,13.8c0.1,0.2-0.1,0.4-0.1,0.4s-0.3,0.1-0.4-0.1c-0.1-0.2-0.1-0.6-0.1-0.6S34.7,13.6,34.8,13.8z"/>
	<path class="st2" d="M19.7,8c-0.2,0.3-0.5,0.2-0.5,0.2S19,7.9,19.2,7.7s0.6-0.4,0.6-0.4S19.9,7.8,19.7,8z"/>
	<path class="st4" d="M21.4,11.7c-0.2,0.1-0.2,0.3-0.2,0.3s0.1,0.2,0.4,0.1c0.2-0.1,0.5-0.4,0.5-0.4S21.6,11.6,21.4,11.7z"/>
	<path class="st4" d="M21.7,12.2c-0.3,0-0.3,0.3-0.3,0.3s0.1,0.3,0.4,0.2c0.3,0,0.5-0.4,0.5-0.4S22,12.2,21.7,12.2z"/>
	<path class="st4" d="M22,12.9c-0.3-0.1-0.4,0.2-0.4,0.2s0,0.3,0.3,0.4c0.3,0.1,0.7-0.1,0.7-0.1S22.3,13,22,12.9z"/>
	<path class="st4" d="M21.9,13.6c-0.3-0.1-0.5,0.2-0.5,0.2s0,0.3,0.3,0.4c0.3,0.1,0.8-0.1,0.8-0.1S22.2,13.7,21.9,13.6z"/>
	<path class="st4" d="M21.6,14.5c-0.3-0.1-0.5,0.1-0.5,0.1s-0.1,0.3,0.2,0.5c0.3,0.2,0.8,0.1,0.8,0.1S21.9,14.6,21.6,14.5z"/>
	<path class="st4" d="M21.5,15.3c-0.3-0.2-0.5,0.1-0.5,0.1s-0.1,0.3,0.1,0.5c0.3,0.2,0.8,0.1,0.8,0.1S21.8,15.5,21.5,15.3z"/>
	<path class="st4" d="M20.8,11.2c-0.1,0.2,0,0.4,0,0.4s0.2,0.1,0.4-0.1c0.1-0.2,0.1-0.6,0.1-0.6S20.9,11,20.8,11.2z"/>
	<path class="st4" d="M29.7,10.9c0.1,0.3-0.2,0.5-0.2,0.5s-0.3,0-0.5-0.2c-0.1-0.3,0-0.8,0-0.8S29.6,10.6,29.7,10.9z"/>
	<path class="st5" d="M30.2,10.4c0.2,0.3-0.1,0.5-0.1,0.5s-0.3,0.1-0.5-0.1c-0.2-0.3-0.1-0.8-0.1-0.8S30.1,10.1,30.2,10.4z"/>
	<path class="st2" d="M30.6,9.1c0.2,0.2,0,0.4,0,0.4s-0.2,0.1-0.4,0c-0.2-0.2-0.2-0.5-0.2-0.5S30.5,8.9,30.6,9.1z"/>
	<path class="st2" d="M30.1,9.6C30.2,9.7,30,9.9,30,9.9s-0.2,0-0.3-0.2c-0.1-0.2,0-0.5,0-0.5S30,9.3,30.1,9.6z"/>
	<path class="st4" d="M28.5,9.6c-0.2,0-0.3-0.2-0.3-0.2s0-0.3,0.3-0.3c0.2,0,0.6,0.2,0.6,0.2S28.7,9.6,28.5,9.6z"/>
	<path class="st4" d="M28.6,8.9c-0.2,0-0.3-0.2-0.3-0.2s0-0.3,0.3-0.3c0.2,0,0.6,0.2,0.6,0.2S28.8,8.9,28.6,8.9z"/>
	<path class="st4" d="M28.6,10.2c-0.2,0-0.3-0.2-0.3-0.2s0-0.3,0.3-0.3c0.2,0,0.6,0.2,0.6,0.2S28.9,10.2,28.6,10.2z"/>
	<path class="st7" d="M30.9,9.9c0.2,0.3,0,0.5,0,0.5s-0.3,0.2-0.5-0.1c-0.2-0.3-0.2-0.8-0.2-0.8S30.7,9.7,30.9,9.9z"/>
	<path class="st7" d="M31.6,9.4c0.2,0.3,0,0.5,0,0.5s-0.3,0.2-0.5-0.1c-0.2-0.3-0.2-0.8-0.2-0.8S31.4,9.2,31.6,9.4z"/>
	<path class="st5" d="M32.1,8.7c0.2,0.2,0.1,0.5,0.1,0.5s-0.3,0.2-0.5,0s-0.3-0.6-0.3-0.6S31.9,8.5,32.1,8.7z"/>
	<path class="st2" d="M34.8,15.6c-0.2-0.1-0.2-0.3-0.2-0.3s0.1-0.2,0.3-0.1c0.2,0.1,0.4,0.4,0.4,0.4S35,15.6,34.8,15.6z"/>
	<path class="st2" d="M35,15c-0.2-0.1-0.2-0.3-0.2-0.3s0.1-0.2,0.3-0.1c0.2,0.1,0.4,0.4,0.4,0.4S35.2,15,35,15z"/>
	<path class="st4" d="M35.2,14.4c-0.2,0-0.3-0.2-0.3-0.2s0-0.2,0.2-0.2s0.5,0.2,0.5,0.2S35.4,14.4,35.2,14.4z"/>
	<path class="st2" d="M34.4,16.1c-0.2-0.1-0.1-0.4-0.1-0.4s0.2-0.2,0.4,0c0.2,0.1,0.4,0.5,0.4,0.5S34.6,16.3,34.4,16.1z"/>
	<path class="st2" d="M33.9,16.5c-0.2-0.2,0-0.4,0-0.4s0.2-0.1,0.4,0.1c0.2,0.2,0.2,0.6,0.2,0.6S34,16.7,33.9,16.5z"/>
	<path class="st2" d="M33.2,16.7c-0.1-0.2,0.1-0.4,0.1-0.4s0.3-0.1,0.4,0.1c0.1,0.2,0.1,0.6,0.1,0.6S33.4,17,33.2,16.7z"/>
	<path class="st2" d="M32.6,16.9c-0.1-0.2,0.2-0.4,0.2-0.4s0.3,0,0.4,0.2c0.1,0.2-0.1,0.6-0.1,0.6S32.7,17.1,32.6,16.9z"/>
	<path class="st4" d="M34,13.6c0.1,0.2,0,0.3,0,0.3s-0.2,0.1-0.3-0.1c-0.1-0.2-0.1-0.5-0.1-0.5S33.8,13.5,34,13.6z"/>
	<path class="st4" d="M33.4,13.9c0.1,0.2-0.1,0.4-0.1,0.4s-0.3,0-0.4-0.2c-0.1-0.2,0-0.6,0-0.6S33.3,13.7,33.4,13.9z"/>
	<path class="st3" d="M35.3,13.5c-0.1,0.2-0.3,0.2-0.3,0.2s-0.2-0.1-0.2-0.4c0.1-0.2,0.4-0.5,0.4-0.5S35.4,13.3,35.3,13.5z"/>
	<path class="st3" d="M36.6,14c0,0.2-0.2,0.2-0.2,0.2s-0.2-0.1-0.1-0.3c0-0.2,0.3-0.4,0.3-0.4S36.6,13.8,36.6,14z"/>
	<path class="st4" d="M32.8,14.4c0.1,0.3-0.2,0.4-0.2,0.4s-0.3,0-0.4-0.3c-0.1-0.3,0.2-0.7,0.2-0.7S32.8,14.1,32.8,14.4z"/>
	<path class="st3" d="M35.9,14.6c0.2,0,0.2,0.3,0.2,0.3S36,15.1,35.8,15c-0.2,0-0.4-0.3-0.4-0.3S35.7,14.6,35.9,14.6z"/>
	<path class="st3" d="M35.7,15.2c0.2,0.1,0.2,0.3,0.2,0.3s-0.1,0.2-0.3,0.1c-0.2-0.1-0.4-0.3-0.4-0.3S35.5,15.1,35.7,15.2z"/>
	<path class="st3" d="M35.3,14.8c0.2,0,0.2,0.2,0.2,0.2s-0.1,0.2-0.3,0.1c-0.2,0-0.3-0.3-0.3-0.3S35.2,14.7,35.3,14.8z"/>
	<path class="st3" d="M35,15.1c0.2,0,0.2,0.2,0.2,0.2s-0.1,0.2-0.3,0.1c-0.2,0-0.3-0.3-0.3-0.3S34.8,15.1,35,15.1z"/>
	<path class="st3" d="M34.7,15.5c0.2,0,0.2,0.2,0.2,0.2s-0.1,0.2-0.3,0.1c-0.2,0-0.3-0.3-0.3-0.3S34.5,15.5,34.7,15.5z"/>
	<path class="st3" d="M35.6,14.2c0.2,0,0.2,0.2,0.2,0.2s-0.1,0.2-0.3,0.1c-0.2,0-0.3-0.3-0.3-0.3S35.4,14.2,35.6,14.2z"/>
	<path class="st3" d="M35.3,16.3c0.1,0.2-0.1,0.4-0.1,0.4s-0.3,0.1-0.4-0.2c-0.1-0.2-0.1-0.6-0.1-0.6S35.2,16.1,35.3,16.3z"/>
	<path class="st3" d="M34.7,16.7c0.2,0.2,0,0.4,0,0.4s-0.2,0.1-0.4-0.1c-0.2-0.2-0.2-0.6-0.2-0.6S34.6,16.5,34.7,16.7z"/>
	<path class="st3" d="M34.1,17.1c0.1,0.2-0.2,0.4-0.2,0.4s-0.3,0-0.4-0.2c-0.1-0.2,0.1-0.6,0.1-0.6S34,16.8,34.1,17.1z"/>
	<path class="st3" d="M35.5,15.7c0.2,0.1,0.1,0.4,0.1,0.4s-0.2,0.2-0.4,0.1C35.1,16,35,15.6,35,15.6S35.3,15.6,35.5,15.7z"/>
	<path class="st3" d="M36.2,14.1c0.2,0.1,0.1,0.3,0.1,0.3s-0.2,0.1-0.3,0S35.7,14,35.7,14S36.1,14,36.2,14.1z"/>
	<path class="st3" d="M20.1,7.1c0.4,0,0.4,0.5,0.4,0.5S20.4,7.9,20,7.8c-0.4,0-0.8-0.5-0.8-0.5S19.8,7,20.1,7.1z"/>
	<path class="st4" d="M19.4,6.4c0.3,0.1,0.3,0.5,0.3,0.5s-0.2,0.3-0.5,0.2c-0.3-0.1-0.6-0.5-0.6-0.5S19.1,6.3,19.4,6.4z"/>
	<g>
		<path class="st4" d="M30.6,7.8c-0.2,0-0.3-0.2-0.3-0.2s0.1-0.2,0.3-0.2c0.2,0,0.5,0.3,0.5,0.3S30.8,7.8,30.6,7.8z"/>
		<path class="st4" d="M30.3,8.4C30.1,8.3,30.1,8,30.1,8s0.1-0.2,0.3-0.1s0.4,0.4,0.4,0.4S30.4,8.4,30.3,8.4z"/>
		<path class="st0" d="M29.3,9.5l-0.1-0.2c0,0,0.2-1.2,1.2-1.9c0,0-0.9,0.9-0.9,1.9L29.3,9.5z"/>
		<path class="st3" d="M29.6,7.6c0.1,0.2,0,0.4,0,0.4s-0.2,0.1-0.4-0.1c-0.1-0.2-0.2-0.5-0.2-0.5S29.4,7.5,29.6,7.6z"/>
		<path class="st3" d="M30.1,7.2C30.2,7.4,30,7.5,30,7.5s-0.2,0.1-0.3-0.1c-0.1-0.2-0.1-0.5-0.1-0.5S30,7,30.1,7.2z"/>
		<path class="st3" d="M29.3,8.1c0.2,0.2,0,0.5,0,0.5S29,8.8,28.8,8.6s-0.3-0.7-0.3-0.7S29.1,7.9,29.3,8.1z"/>
		<path class="st4" d="M30,9c-0.3-0.1-0.2-0.4-0.2-0.4s0.2-0.3,0.4-0.2C30.4,8.6,30.7,9,30.7,9S30.2,9.1,30,9z"/>
	</g>
	<g>
		<path class="st4" d="M34.5,11.5c0.1,0.1,0.3,0,0.3,0s0.1-0.2,0-0.3s-0.4-0.1-0.4-0.1S34.4,11.4,34.5,11.5z"/>
		<path class="st4" d="M34.4,12c0.2,0.1,0.3-0.1,0.3-0.1s0-0.2-0.1-0.2c-0.2-0.1-0.4,0-0.4,0S34.3,11.9,34.4,12z"/>
		<path class="st0" d="M34.3,13.1l0.2-0.1c0,0,0.5-0.8,0.3-1.6c0,0,0,0.9-0.5,1.5L34.3,13.1z"/>
		<path class="st3" d="M35.2,11.9c-0.2,0-0.2,0.2-0.2,0.2s0.1,0.2,0.2,0.2c0.2,0,0.4-0.2,0.4-0.2S35.3,11.9,35.2,11.9z"/>
		<path class="st3" d="M35.2,11.5c-0.2,0-0.1,0.2-0.1,0.2s0.1,0.2,0.2,0.1c0.2,0,0.3-0.3,0.3-0.3S35.3,11.4,35.2,11.5z"/>
		<path class="st3" d="M35.1,12.4c-0.2,0-0.3,0.3-0.3,0.3s0.1,0.2,0.3,0.2s0.5-0.3,0.5-0.3S35.3,12.4,35.1,12.4z"/>
		<path class="st4" d="M34.2,12.5c0.2,0.1,0.3-0.1,0.3-0.1s0-0.2-0.2-0.3c-0.2-0.1-0.5,0-0.5,0S34.1,12.4,34.2,12.5z"/>
	</g>
	<path class="st2" d="M32.2,8.5c0.1,0.2-0.1,0.4-0.1,0.4s-0.3,0-0.3-0.2C31.7,8.4,31.8,8,31.8,8S32.1,8.3,32.2,8.5z"/>
	<path class="st4" d="M24.4,6.4c0.2,0.1,0.3,0,0.3,0s0.1-0.2-0.1-0.3C24.4,6,24.1,6,24.1,6S24.2,6.3,24.4,6.4z"/>
	<path class="st2" d="M23.5,6.4c0.2,0.1,0.3,0,0.3,0s0.1-0.2-0.1-0.3c-0.2-0.1-0.5-0.1-0.5-0.1S23.4,6.2,23.5,6.4z"/>
	<path class="st4" d="M24.3,7.1C24.5,7.2,24.6,7,24.6,7s0-0.3-0.2-0.4c-0.3-0.1-0.6,0.1-0.6,0.1S24,7.1,24.3,7.1z"/>
	<path class="st0" d="M24.4,8.9l0.3-0.1c0,0,0.6-1.3,0.2-2.5c0,0,0.2,1.5-0.4,2.4L24.4,8.9z"/>
	<path class="st3" d="M25.4,6.9c-0.3,0.1-0.3,0.3-0.3,0.3s0.1,0.3,0.4,0.2C25.7,7.3,26,7,26,7S25.6,6.8,25.4,6.9z"/>
	<path class="st3" d="M25.3,6.2c-0.2,0.1-0.2,0.3-0.2,0.3s0.1,0.2,0.3,0.1c0.2-0.1,0.4-0.4,0.4-0.4S25.4,6.1,25.3,6.2z"/>
	<path class="st3" d="M25.4,7.6C25,7.7,25,8.1,25,8.1s0.2,0.4,0.5,0.3c0.4-0.1,0.7-0.5,0.7-0.5S25.7,7.5,25.4,7.6z"/>
	<path class="st4" d="M24.1,7.9c0.3,0.1,0.5-0.2,0.5-0.2s0-0.4-0.3-0.5c-0.3-0.1-0.8,0.1-0.8,0.1S23.8,7.9,24.1,7.9z"/>
	<g>
		<path class="st4" d="M29.6,15.9c-0.1-0.2,0-0.4,0-0.4s0.3-0.1,0.4,0.1c0.1,0.2,0.1,0.6,0.1,0.6S29.7,16.1,29.6,15.9z"/>
		<path class="st4" d="M28.9,15.9c-0.1-0.3,0.2-0.4,0.2-0.4s0.3,0,0.4,0.2c0.1,0.3-0.1,0.6-0.1,0.6S28.9,16.1,28.9,15.9z"/>
		<path class="st0" d="M26.4,16l0.1-0.3c0,0,1.4-0.9,3.3-0.5C29.8,15.3,27.7,15.1,26.4,16L26.4,16z"/>
		<path class="st3" d="M29.1,14.7C29.1,15,28.8,15,28.8,15s-0.3-0.1-0.2-0.4c0.1-0.3,0.4-0.5,0.4-0.5S29.2,14.5,29.1,14.7z"/>
		<path class="st3" d="M29.9,14.9c-0.1,0.2-0.4,0.2-0.4,0.2s-0.2-0.2-0.1-0.4c0.1-0.2,0.5-0.4,0.5-0.4S30,14.6,29.9,14.9z"/>
		<path class="st3" d="M30.3,15.4c-0.2,0.1-0.4-0.1-0.4-0.1s-0.1-0.3,0.2-0.4c0.2-0.1,0.6,0,0.6,0S30.6,15.3,30.3,15.4z"/>
		<path class="st3" d="M28.4,14.8c-0.1,0.4-0.5,0.4-0.5,0.4s-0.4-0.2-0.3-0.5c0.1-0.4,0.5-0.7,0.5-0.7S28.4,14.5,28.4,14.8z"/>
		<path class="st4" d="M28,16.1c-0.1-0.3,0.2-0.5,0.2-0.5s0.4,0,0.5,0.3c0.1,0.3-0.1,0.8-0.1,0.8S28.1,16.4,28,16.1z"/>
	</g>
	<g>
		<path class="st4" d="M34.7,20.2c-0.1-0.2,0.1-0.4,0.1-0.4s0.2-0.1,0.3,0.1c0.1,0.2,0.1,0.5,0.1,0.5S34.8,20.4,34.7,20.2z"/>
		<path class="st4" d="M34,20.2c0-0.2,0.2-0.3,0.2-0.3s0.2,0,0.3,0.2c0,0.2-0.1,0.5-0.1,0.5S34.1,20.4,34,20.2z"/>
		<path class="st2" d="M34,20.8c0-0.2,0.1-0.2,0.1-0.2s0.2,0,0.2,0.2c0,0.2-0.1,0.4-0.1,0.4S34,21,34,20.8z"/>
		<path class="st2" d="M33.3,21.1c-0.1-0.1,0-0.3,0-0.3s0.2-0.1,0.3,0.1c0.1,0.1,0.1,0.4,0.1,0.4S33.4,21.2,33.3,21.1z"/>
		<path class="st0" d="M29.9,21.5v-0.1c-0.2,0.1,2.5-2.4,5-1.6c0,0-2.3-0.6-4.8,2.1L29.9,21.5z"/>
		<path class="st3" d="M34.3,19.3c-0.1,0.2-0.3,0.2-0.3,0.2s-0.2-0.1-0.2-0.3c0.1-0.2,0.4-0.4,0.4-0.4S34.4,19,34.3,19.3z"/>
		<path class="st4" d="M33.2,18.6c-0.1,0.2-0.3,0.2-0.3,0.2s-0.2-0.1-0.2-0.3c0.1-0.2,0.4-0.4,0.4-0.4S33.3,18.4,33.2,18.6z"/>
		<path class="st4" d="M34.1,18.6c0,0.2-0.2,0.2-0.2,0.2s-0.2-0.1-0.1-0.2c0-0.2,0.3-0.3,0.3-0.3S34.2,18.4,34.1,18.6z"/>
		<path class="st4" d="M34.7,18.8c0,0.1-0.2,0.1-0.2,0.1s-0.1-0.1-0.1-0.2c0-0.1,0.2-0.3,0.2-0.3S34.7,18.6,34.7,18.8z"/>
		<path class="st3" d="M34.9,19.4c-0.1,0.2-0.3,0.1-0.3,0.1s-0.2-0.2-0.1-0.4s0.5-0.3,0.5-0.3S35.1,19.2,34.9,19.4z"/>
		<path class="st3" d="M33.7,19.3c-0.1,0.3-0.4,0.3-0.4,0.3s-0.3-0.2-0.2-0.5c0.1-0.3,0.5-0.6,0.5-0.6S33.8,19,33.7,19.3z"/>
		<path class="st3" d="M32.9,19.3c0,0.3-0.3,0.4-0.3,0.4s-0.3-0.1-0.3-0.4c0-0.3,0.3-0.7,0.3-0.7S32.9,19,32.9,19.3z"/>
		<path class="st3" d="M32.1,19.5c0.1,0.3-0.2,0.5-0.2,0.5s-0.3,0-0.5-0.2c-0.1-0.3,0-0.8,0-0.8S32,19.2,32.1,19.5z"/>
		<path class="st4" d="M33.3,20.3c-0.1-0.3,0.2-0.4,0.2-0.4s0.3,0,0.4,0.3c0.1,0.3-0.2,0.7-0.2,0.7S33.4,20.6,33.3,20.3z"/>
		<path class="st4" d="M32.6,20.6c-0.1-0.3,0.2-0.4,0.2-0.4s0.3,0,0.4,0.2c0.1,0.3-0.1,0.7-0.1,0.7S32.7,20.8,32.6,20.6z"/>
		<path class="st4" d="M31.9,20.9c-0.1-0.3,0.2-0.4,0.2-0.4s0.3,0,0.4,0.3c0.1,0.3-0.2,0.7-0.2,0.7S32,21.2,31.9,20.9z"/>
	</g>
	<path class="st4" d="M13,16.3c0,0.3-0.4,0.4-0.4,0.4s-0.3-0.1-0.3-0.5c0-0.3,0.4-0.7,0.4-0.7S13,15.9,13,16.3z"/>
	<path class="st4" d="M13.9,16.6c-0.1,0.3-0.4,0.3-0.4,0.3s-0.3-0.2-0.2-0.5s0.5-0.6,0.5-0.6S14,16.2,13.9,16.6z"/>
	<path class="st4" d="M14.6,17.4c-0.3,0.2-0.6,0-0.6,0s-0.2-0.4,0.1-0.6c0.3-0.2,0.9-0.3,0.9-0.3S14.9,17.1,14.6,17.4z"/>
	<g>
		<path class="st4" d="M23.1,13.5c0.1-0.2-0.1-0.4-0.1-0.4s-0.2-0.1-0.3,0.1c-0.1,0.2-0.1,0.5-0.1,0.5S23,13.6,23.1,13.5z"/>
		<path class="st4" d="M23.8,13.4c0-0.2-0.2-0.3-0.2-0.3s-0.2,0-0.3,0.2c0,0.2,0.1,0.5,0.1,0.5S23.7,13.6,23.8,13.4z"/>
		<path class="st2" d="M23.8,14c0-0.2-0.1-0.2-0.1-0.2s-0.2,0-0.2,0.2c0,0.2,0.1,0.4,0.1,0.4S23.8,14.2,23.8,14z"/>
		<path class="st2" d="M24.4,14.3c0.1-0.1,0-0.3,0-0.3s-0.2-0.1-0.3,0.1c-0.1,0.1-0.1,0.4-0.1,0.4S24.4,14.5,24.4,14.3z"/>
		<path class="st0" d="M27,14.3v-0.1c0.2,0.1-2-1.8-4.1-1.1c0,0,1.9-0.6,4,1.6L27,14.3z"/>
		<path class="st3" d="M23.5,12.5c0.1,0.2,0.3,0.2,0.3,0.2s0.2-0.1,0.2-0.3c-0.1-0.2-0.4-0.4-0.4-0.4S23.4,12.3,23.5,12.5z"/>
		<path class="st4" d="M24.6,11.8c0.1,0.2,0.3,0.2,0.3,0.2s0.2-0.1,0.2-0.3c-0.1-0.2-0.4-0.4-0.4-0.4S24.5,11.6,24.6,11.8z"/>
		<path class="st4" d="M23.7,11.8c0,0.2,0.2,0.2,0.2,0.2s0.2-0.1,0.1-0.3c0-0.2-0.3-0.3-0.3-0.3S23.6,11.7,23.7,11.8z"/>
		<path class="st4" d="M23.1,12c0,0.1,0.2,0.1,0.2,0.1s0.1-0.1,0.1-0.2s-0.2-0.3-0.2-0.3S23.1,11.9,23.1,12z"/>
		<path class="st3" d="M22.9,12.6c0.1,0.2,0.3,0.1,0.3,0.1s0.2-0.2,0.1-0.4c-0.1-0.2-0.5-0.3-0.5-0.3S22.8,12.4,22.9,12.6z"/>
		<path class="st3" d="M24.1,12.5c0.1,0.3,0.4,0.3,0.4,0.3s0.3-0.2,0.2-0.5c-0.1-0.3-0.5-0.6-0.5-0.6S24,12.2,24.1,12.5z"/>
		<path class="st3" d="M24.9,12.5c0,0.3,0.3,0.4,0.3,0.4s0.3-0.1,0.3-0.4c0-0.3-0.3-0.7-0.3-0.7S24.9,12.2,24.9,12.5z"/>
		<path class="st3" d="M25.7,12.7c-0.1,0.3,0.2,0.5,0.2,0.5s0.3,0,0.5-0.2c0.1-0.3,0-0.8,0-0.8S25.8,12.5,25.7,12.7z"/>
		<path class="st4" d="M24.5,13.6c0.1-0.3-0.2-0.4-0.2-0.4s-0.3,0-0.4,0.3c-0.1,0.3,0.2,0.7,0.2,0.7S24.4,13.8,24.5,13.6z"/>
		<path class="st4" d="M25.2,13.8c0.1-0.3-0.2-0.4-0.2-0.4s-0.3,0-0.4,0.2c-0.1,0.3,0.1,0.7,0.1,0.7S25.1,14.1,25.2,13.8z"/>
		<path class="st4" d="M25.9,14.1c0.1-0.3-0.2-0.4-0.2-0.4s-0.3,0-0.4,0.3c-0.1,0.3,0.2,0.7,0.2,0.7S25.8,14.4,25.9,14.1z"/>
	</g>
	<g>
		<path class="st3" d="M23.9,15c-0.1,0.2-0.4,0.1-0.4,0.1s-0.2-0.2,0-0.4c0.1-0.2,0.5-0.3,0.5-0.3S24,14.8,23.9,15z"/>
		<path class="st3" d="M24.2,15.6c-0.2,0.1-0.4,0-0.4,0s-0.1-0.2,0.1-0.4c0.2-0.1,0.5-0.1,0.5-0.1S24.4,15.4,24.2,15.6z"/>
		<path class="st4" d="M24.8,15.3c-0.1,0.1-0.3,0-0.3,0s-0.1-0.2,0.1-0.3C24.7,15,25,15,25,15S24.9,15.3,24.8,15.3z"/>
		<path class="st4" d="M25.3,15.8c-0.1,0.2-0.3,0.1-0.3,0.1s-0.1-0.1-0.1-0.3c0.1-0.2,0.3-0.3,0.3-0.3S25.4,15.6,25.3,15.8z"/>
		<path class="st0" d="M27.2,18.6l-0.1,0.1c0.2,0.1-3.3-1.2-3.6-3.7c0,0,0.5,2.3,4.1,3.4L27.2,18.6z"/>
		<path class="st3" d="M23.2,15.7c0.2,0,0.3,0.2,0.3,0.2s0,0.2-0.2,0.3c-0.2,0-0.5-0.1-0.5-0.1S23,15.8,23.2,15.7z"/>
		<path class="st4" d="M23.1,17c0.2,0,0.3,0.2,0.3,0.2s0,0.2-0.2,0.3c-0.2,0-0.5-0.1-0.5-0.1S22.9,17,23.1,17z"/>
		<path class="st4" d="M22.7,16.2c0.2,0,0.2,0.1,0.2,0.1s0,0.2-0.2,0.2c-0.2,0-0.4-0.1-0.4-0.1S22.5,16.3,22.7,16.2z"/>
		<path class="st4" d="M22.6,15.6c0.1,0,0.2,0.1,0.2,0.1s0,0.1-0.1,0.2c-0.1,0-0.3-0.1-0.3-0.1S22.5,15.6,22.6,15.6z"/>
		<path class="st3" d="M23.1,15.1c0.2,0,0.3,0.2,0.3,0.2s-0.1,0.2-0.3,0.2s-0.5-0.2-0.5-0.2S22.8,15.1,23.1,15.1z"/>
		<path class="st3" d="M23.5,16.3c0.3-0.1,0.5,0.2,0.5,0.2s0,0.3-0.3,0.4c-0.3,0.1-0.8-0.2-0.8-0.2S23.2,16.4,23.5,16.3z"/>
		<path class="st3" d="M23.9,17c0.3-0.1,0.5,0.1,0.5,0.1s0.1,0.3-0.2,0.5c-0.3,0.1-0.8,0.1-0.8,0.1S23.6,17.1,23.9,17z"/>
		<path class="st3" d="M24.5,17.6c0.2-0.2,0.5-0.1,0.5-0.1s0.2,0.3,0,0.5c-0.2,0.2-0.7,0.3-0.7,0.3S24.3,17.8,24.5,17.6z"/>
		<path class="st3" d="M24.6,16.1c-0.2,0.2-0.5,0-0.5,0s-0.1-0.3,0.1-0.5s0.7-0.2,0.7-0.2S24.8,16,24.6,16.1z"/>
		<path class="st3" d="M25.2,16.7c-0.2,0.2-0.5,0.1-0.5,0.1s-0.2-0.3,0-0.5c0.2-0.2,0.7-0.3,0.7-0.3S25.4,16.5,25.2,16.7z"/>
		<path class="st3" d="M25.7,17.1c-0.2,0.2-0.5,0-0.5,0s-0.1-0.3,0.1-0.5c0.2-0.2,0.7-0.2,0.7-0.2S26,16.9,25.7,17.1z"/>
	</g>
	<g>
		<path class="st4" d="M17.9,17.6c0.1-0.2-0.1-0.3-0.1-0.3s-0.2-0.1-0.3,0.1c-0.1,0.2-0.1,0.5-0.1,0.5S17.8,17.7,17.9,17.6z"/>
		<path class="st4" d="M18.4,17.6c0-0.2-0.1-0.3-0.1-0.3s-0.2,0-0.2,0.2c0,0.2,0.1,0.5,0.1,0.5S18.4,17.7,18.4,17.6z"/>
		<path class="st2" d="M18.5,18.1c0-0.1-0.1-0.2-0.1-0.2s-0.1,0-0.2,0.1c0,0.1,0.1,0.3,0.1,0.3S18.5,18.2,18.5,18.1z"/>
		<path class="st2" d="M19,18.3c0.1-0.1,0-0.2,0-0.2s-0.1-0.1-0.2,0c-0.1,0.1-0.1,0.4-0.1,0.4S18.9,18.5,19,18.3z"/>
		<path class="st0" d="M22,18.7v-0.1c0.1,0.1-2.2-2-4.3-1.4c0,0,1.9-0.5,4.1,1.8L22,18.7z"/>
		<path class="st3" d="M18.2,16.7c0.1,0.2,0.3,0.2,0.3,0.2s0.2-0.1,0.1-0.3c-0.1-0.2-0.3-0.4-0.3-0.4S18.1,16.6,18.2,16.7z"/>
		<path class="st4" d="M19.1,16.2c0.1,0.2,0.3,0.2,0.3,0.2s0.2-0.1,0.1-0.3c-0.1-0.2-0.3-0.4-0.3-0.4S19.1,16,19.1,16.2z"/>
		<path class="st4" d="M18.4,16.2c0,0.1,0.2,0.1,0.2,0.1s0.1-0.1,0.1-0.2c0-0.1-0.2-0.3-0.2-0.3S18.3,16,18.4,16.2z"/>
		<path class="st4" d="M17.9,16.3c0,0.1,0.2,0.1,0.2,0.1s0.1-0.1,0.1-0.2c0-0.1-0.2-0.2-0.2-0.2S17.8,16.2,17.9,16.3z"/>
		<path class="st3" d="M17.6,16.9c0.1,0.2,0.3,0.1,0.3,0.1s0.2-0.1,0.1-0.3c-0.1-0.2-0.4-0.3-0.4-0.3S17.6,16.7,17.6,16.9z"/>
		<path class="st3" d="M18.7,16.7c0.1,0.3,0.4,0.3,0.4,0.3s0.3-0.1,0.2-0.4c-0.1-0.3-0.4-0.5-0.4-0.5S18.6,16.5,18.7,16.7z"/>
		<path class="st3" d="M19.4,16.8c0,0.3,0.3,0.3,0.3,0.3S20,17,20,16.8s-0.3-0.6-0.3-0.6S19.5,16.5,19.4,16.8z"/>
		<path class="st3" d="M20.1,17c-0.1,0.2,0.1,0.4,0.1,0.4s0.3,0,0.4-0.2c0.1-0.2,0-0.7,0-0.7S20.2,16.7,20.1,17z"/>
		<path class="st4" d="M19,17.7c0.1-0.2-0.2-0.4-0.2-0.4s-0.3,0-0.3,0.3c-0.1,0.2,0.1,0.6,0.1,0.6S19,17.9,19,17.7z"/>
		<path class="st4" d="M19.7,17.9c0.1-0.2-0.1-0.4-0.1-0.4s-0.3,0-0.3,0.2c-0.1,0.2,0.1,0.6,0.1,0.6S19.6,18.1,19.7,17.9z"/>
		<path class="st4" d="M20.3,18.2c0.1-0.2-0.2-0.4-0.2-0.4s-0.3,0-0.3,0.3c-0.1,0.2,0.1,0.6,0.1,0.6S20.2,18.4,20.3,18.2z"/>
	</g>
	<g>
		<path class="st4" d="M30.3,17.6c-0.2,0-0.3-0.2-0.3-0.2s0.1-0.2,0.3-0.2c0.2,0,0.5,0.2,0.5,0.2S30.5,17.6,30.3,17.6z"/>
		<path class="st4" d="M30,18.1c-0.2-0.1-0.2-0.3-0.2-0.3s0.1-0.2,0.3-0.1c0.2,0.1,0.4,0.4,0.4,0.4S30.2,18.2,30,18.1z"/>
		<path class="st2" d="M30.4,18.5c-0.1-0.1-0.1-0.2-0.1-0.2s0.1-0.1,0.2-0.1c0.1,0.1,0.3,0.3,0.3,0.3S30.6,18.6,30.4,18.5z"/>
		<path class="st2" d="M30.4,19.2c-0.2,0-0.2-0.1-0.2-0.1s0-0.2,0.2-0.2c0.2,0,0.4,0.1,0.4,0.1S30.5,19.2,30.4,19.2z"/>
		<path class="st0" d="M29,22.3l-0.1-0.1c0,0.2-0.7-3.4,1.2-5.1c0,0-1.7,1.6-0.7,5.2L29,22.3z"/>
		<path class="st3" d="M29.3,17.4c0.2,0.2,0,0.4,0,0.4s-0.2,0.1-0.4,0c-0.2-0.2-0.2-0.5-0.2-0.5S29.2,17.3,29.3,17.4z"/>
		<path class="st4" d="M28.2,18c0.2,0.2,0,0.4,0,0.4s-0.2,0.1-0.4,0c-0.2-0.2-0.2-0.5-0.2-0.5S28,17.9,28.2,18z"/>
		<path class="st4" d="M28.6,17.2c0.1,0.1,0,0.3,0,0.3s-0.2,0.1-0.3,0c-0.1-0.1-0.1-0.4-0.1-0.4S28.5,17.1,28.6,17.2z"/>
		<path class="st4" d="M29.1,16.8c0.1,0.1,0,0.2,0,0.2s-0.1,0.1-0.2,0c-0.1-0.1-0.1-0.3-0.1-0.3S29,16.7,29.1,16.8z"/>
		<path class="st3" d="M29.7,16.9c0.1,0.2-0.1,0.4-0.1,0.4s-0.2,0.1-0.3-0.1c-0.1-0.2-0.1-0.5-0.1-0.5S29.6,16.8,29.7,16.9z"/>
		<path class="st3" d="M29,17.9c0.2,0.2,0,0.5,0,0.5s-0.3,0.2-0.5-0.1c-0.2-0.2-0.3-0.7-0.3-0.7S28.8,17.7,29,17.9z"/>
		<path class="st3" d="M28.6,18.7c0.3,0.2,0.2,0.5,0.2,0.5s-0.2,0.2-0.5,0.1c-0.3-0.2-0.5-0.6-0.5-0.6S28.3,18.5,28.6,18.7z"/>
		<path class="st3" d="M28.4,19.5c0.3,0,0.3,0.4,0.3,0.4s-0.1,0.3-0.4,0.3c-0.3,0-0.6-0.4-0.6-0.4S28.1,19.4,28.4,19.5z"/>
		<path class="st4" d="M29.7,18.8c-0.3-0.1-0.2-0.4-0.2-0.4s0.2-0.3,0.4-0.2c0.3,0.1,0.5,0.5,0.5,0.5S30,18.9,29.7,18.8z"/>
		<path class="st4" d="M29.5,19.6c-0.3-0.1-0.3-0.4-0.3-0.4s0.1-0.3,0.4-0.2c0.3,0.1,0.6,0.4,0.6,0.4S29.8,19.6,29.5,19.6z"/>
		<path class="st4" d="M29.5,20.3c-0.3-0.1-0.2-0.4-0.2-0.4s0.2-0.3,0.4-0.2c0.3,0.1,0.5,0.5,0.5,0.5S29.7,20.4,29.5,20.3z"/>
	</g>
	<g>
		<path class="st4" d="M25.9,21.6c-0.1,0.2-0.4,0.2-0.4,0.2s-0.2-0.2-0.1-0.4c0.1-0.2,0.5-0.5,0.5-0.5S26,21.4,25.9,21.6z"/>
		<path class="st4" d="M26.3,22.2c-0.2,0.2-0.4,0.1-0.4,0.1s-0.2-0.2,0-0.4c0.2-0.2,0.6-0.3,0.6-0.3S26.5,22,26.3,22.2z"/>
		<path class="st0" d="M28,24.3l-0.3,0c0,0-1.7-0.8-2.4-2.6c0,0,1,1.8,2.5,2.4L28,24.3z"/>
		<path class="st3" d="M25.2,22.6c0.2-0.1,0.4,0.1,0.4,0.1s0,0.3-0.2,0.4c-0.2,0.1-0.6,0-0.6,0S25,22.7,25.2,22.6z"/>
		<path class="st3" d="M24.9,21.9c0.3,0,0.4,0.2,0.4,0.2s0,0.3-0.3,0.3c-0.3,0-0.6-0.2-0.6-0.2S24.7,22,24.9,21.9z"/>
		<path class="st3" d="M25.1,21.3c0.2,0.1,0.1,0.4,0.1,0.4s-0.2,0.2-0.4,0.1c-0.2-0.1-0.4-0.5-0.4-0.5S24.8,21.1,25.1,21.3z"/>
		<path class="st3" d="M25.7,23.2c0.3-0.1,0.5,0.2,0.5,0.2s0.1,0.4-0.3,0.5c-0.3,0.1-0.9,0-0.9,0S25.4,23.3,25.7,23.2z"/>
		<path class="st4" d="M26.9,22.8c-0.2,0.3-0.5,0.1-0.5,0.1s-0.2-0.3,0-0.5c0.2-0.3,0.8-0.4,0.8-0.4S27.1,22.5,26.9,22.8z"/>
	</g>
	<g>
		<path class="st4" d="M33.6,22.3c-0.3,0-0.3,0.3-0.3,0.3s0.1,0.3,0.3,0.3c0.3,0,0.6-0.2,0.6-0.2S33.9,22.3,33.6,22.3z"/>
		<path class="st3" d="M33.5,23.1c-0.2-0.2-0.5,0-0.5,0s-0.1,0.3,0.1,0.5c0.2,0.2,0.7,0.2,0.7,0.2S33.7,23.3,33.5,23.1z"/>
		<path class="st4" d="M33.5,23.7c-0.2-0.1-0.4,0.1-0.4,0.1s-0.1,0.2,0.1,0.4c0.2,0.1,0.6,0,0.6,0S33.7,23.9,33.5,23.7z"/>
		<path class="st4" d="M34,22.9c-0.2-0.1-0.3,0.1-0.3,0.1s-0.1,0.2,0.1,0.3c0.2,0.1,0.5,0,0.5,0S34.2,23,34,22.9z"/>
		<path class="st4" d="M32.8,24.4c-0.2-0.1-0.4,0-0.4,0s-0.1,0.2,0.1,0.4C32.6,25,33,25,33,25S32.9,24.6,32.8,24.4z"/>
		<path class="st3" d="M32.9,23.7c-0.2-0.2-0.5-0.1-0.5-0.1s-0.2,0.3,0,0.5c0.2,0.2,0.7,0.4,0.7,0.4S33.1,23.9,32.9,23.7z"/>
		<path class="st3" d="M32.2,24.3C32.1,24,31.7,24,31.7,24s-0.3,0.2-0.2,0.5c0.1,0.3,0.5,0.6,0.5,0.6S32.3,24.6,32.2,24.3z"/>
		<path class="st3" d="M31.3,24.6c0-0.3-0.4-0.3-0.4-0.3s-0.3,0.1-0.3,0.4c0,0.3,0.4,0.6,0.4,0.6S31.4,24.9,31.3,24.6z"/>
		<path class="st4" d="M30.5,24.7c0-0.3-0.3-0.4-0.3-0.4s-0.3,0.1-0.3,0.4c0,0.3,0.3,0.7,0.3,0.7S30.5,25,30.5,24.7z"/>
		<path class="st4" d="M29.6,24.7c0-0.2-0.2-0.3-0.2-0.3s-0.3,0.1-0.3,0.3c0,0.3,0.2,0.6,0.2,0.6S29.6,24.9,29.6,24.7z"/>
		<path class="st4" d="M29.4,23.5c0,0.2,0.3,0.3,0.3,0.3s0.3-0.1,0.2-0.4c0-0.2-0.3-0.5-0.3-0.5S29.4,23.2,29.4,23.5z"/>
		<path class="st4" d="M30.4,22.5c0,0.2,0.2,0.2,0.2,0.2s0.2-0.1,0.2-0.3c0-0.2-0.3-0.4-0.3-0.4S30.4,22.4,30.4,22.5z"/>
		<path class="st4" d="M29.8,22.8c0,0.2,0.2,0.2,0.2,0.2s0.2-0.1,0.1-0.2c0-0.2-0.2-0.3-0.2-0.3S29.7,22.6,29.8,22.8z"/>
		<path class="st4" d="M32.8,22c0,0.3,0.3,0.3,0.3,0.3s0.3-0.1,0.3-0.3c0-0.3-0.2-0.6-0.2-0.6S32.8,21.7,32.8,22z"/>
		<path class="st4" d="M32.3,22.6c0.1,0.2,0.4,0.1,0.4,0.1s0.2-0.2,0.1-0.4s-0.5-0.4-0.5-0.4S32.1,22.4,32.3,22.6z"/>
		<path class="st4" d="M31.6,22.9c0.1,0.2,0.4,0.1,0.4,0.1s0.2-0.2,0.1-0.5c-0.1-0.2-0.6-0.4-0.6-0.4S31.5,22.7,31.6,22.9z"/>
		<path class="st2" d="M30.9,23.2c0.1,0.3,0.4,0.2,0.4,0.2s0.3-0.2,0.2-0.4c-0.1-0.3-0.5-0.5-0.5-0.5S30.8,22.9,30.9,23.2z"/>
		<path class="st2" d="M31.6,22c0.1,0.2,0.3,0.2,0.3,0.2s0.2-0.1,0.1-0.3c-0.1-0.2-0.4-0.4-0.4-0.4S31.6,21.8,31.6,22z"/>
		<path class="st2" d="M31,22.3c0.1,0.2,0.3,0.2,0.3,0.2s0.2-0.1,0.1-0.4c-0.1-0.2-0.4-0.4-0.4-0.4S30.9,22.1,31,22.3z"/>
		<path class="st2" d="M32.4,21.9c0.1,0.1,0.3,0,0.3,0s0.1-0.2-0.1-0.3c-0.1-0.1-0.4-0.1-0.4-0.1S32.3,21.8,32.4,21.9z"/>
		<path class="st2" d="M30.2,23.4c0.1,0.3,0.4,0.2,0.4,0.2s0.3-0.2,0.2-0.4c-0.1-0.3-0.5-0.5-0.5-0.5S30.1,23.1,30.2,23.4z"/>
	</g>
	<path class="st0" d="M28.7,24.2L28.7,24.2c-0.1,0.1,3.6,0.2,4.9-2c0,0-1.3,1.9-5,1.6L28.7,24.2z"/>
</g>
</svg>
