<?xml version="1.0" encoding="utf-8"?>
<!-- Generator: Adobe Illustrator 23.0.3, SVG Export Plug-In . SVG Version: 6.00 Build 0)  -->
<svg version="1.1" id="Layer_1" xmlns="http://www.w3.org/2000/svg" xmlns:xlink="http://www.w3.org/1999/xlink" x="0px" y="0px"
	 viewBox="0 0 360 44" style="enable-background:new 0 0 360 44;" xml:space="preserve">
<style type="text/css">
	.st0{fill:#FFFFFF;}
	.st1{fill:url(#SVGID_1_);}
	.st2{fill:#249248;}
	.st3{fill:#94C940;}
	.st4{fill:#929390;}
	.st5{fill:#55B748;}
	.st6{fill:#EDE80C;}
	.st7{fill:#F69320;}
	.st8{fill:#FFC113;}
	.st9{fill:#BED530;}
	.st10{fill:#EB2227;}
	.st11{fill:#BDD96D;}
</style>
<g>
	<path class="st0" d="M349.8,18.6c-0.2-0.2-0.5-0.3-0.8-0.3c-0.3-0.1-0.6-0.1-0.9-0.1c-0.2,0-0.5,0-0.7,0c-0.2,0-0.4,0-0.5,0.1v4.1
		c0,0,0.1,0,0.2,0c0.1,0,0.2,0,0.3,0c0.1,0,0.2,0,0.3,0s0.2,0,0.2,0c0.3,0,0.6,0,1-0.1c0.3-0.1,0.6-0.2,0.9-0.3
		c0.3-0.2,0.5-0.4,0.6-0.7c0.2-0.3,0.2-0.7,0.2-1.1c0-0.4-0.1-0.7-0.2-1C350.3,18.9,350.1,18.7,349.8,18.6z"/>
	<path class="st0" d="M348.5,14.6C348.5,14.6,348.5,14.6,348.5,14.6L348.5,14.6h-16.6v3.8v11.8l0,0h16.6v0c0,0,0,0,0,0
		c4.3,0,7.8-3.5,7.8-7.8S352.8,14.6,348.5,14.6z M340.9,28.8l-3.7-5.4h-0.6v5.4h-2.5V16.2h2.5v5.6l0.6-0.3l3.5-5.3h2.8l-3.7,5.3
		l-1,0.7l1,0.7l4.2,5.9H340.9z M352.8,22.2c-0.3,0.5-0.6,1-1.1,1.3c-0.5,0.3-1,0.6-1.6,0.8c-0.6,0.2-1.2,0.2-1.8,0.2
		c-0.1,0-0.2,0-0.3,0c-0.1,0-0.3,0-0.4,0c-0.1,0-0.3,0-0.4,0c-0.1,0-0.2,0-0.3,0v4.3h-2.5V16.3c0.5-0.1,1.1-0.2,1.7-0.2
		c0.6-0.1,1.2-0.1,1.8-0.1c0.6,0,1.3,0.1,1.9,0.2c0.6,0.1,1.2,0.3,1.7,0.6c0.5,0.3,0.9,0.7,1.2,1.3c0.3,0.5,0.5,1.3,0.5,2.1
		C353.2,21,353.1,21.7,352.8,22.2z"/>
</g>
<g>
	<path class="st0" d="M62.8,29.7c-0.4,0.3-1,0.6-1.7,0.7c-0.7,0.1-1.4,0.2-2.2,0.2c-0.9,0-1.8-0.2-2.6-0.5c-0.8-0.3-1.5-0.8-2.1-1.5
		c-0.6-0.7-1.1-1.5-1.5-2.5c-0.4-1-0.5-2.2-0.5-3.6c0-1.5,0.2-2.7,0.6-3.7c0.4-1,0.9-1.9,1.6-2.5c0.6-0.6,1.4-1.1,2.2-1.4
		s1.6-0.4,2.5-0.4c0.9,0,1.6,0,2.2,0.1c0.6,0.1,1,0.2,1.5,0.4l-0.4,1.7c-0.7-0.4-1.7-0.5-3.1-0.5c-0.6,0-1.2,0.1-1.8,0.3
		c-0.6,0.2-1.1,0.6-1.6,1.1c-0.5,0.5-0.8,1.2-1.1,2c-0.3,0.8-0.4,1.8-0.4,3c0,1.1,0.1,2,0.4,2.8c0.3,0.8,0.6,1.5,1.1,2
		c0.5,0.5,1,0.9,1.7,1.2c0.6,0.3,1.3,0.4,2.1,0.4c0.7,0,1.3-0.1,1.8-0.2c0.5-0.1,0.9-0.3,1.3-0.5L62.8,29.7z"/>
	<path class="st0" d="M65.4,14.7h8.5v1.7h-6.7v5.1h6.1v1.7h-6.1v5.6H74v1.7h-8.6V14.7z"/>
	<path class="st0" d="M76.8,14.8c0.6-0.1,1.2-0.2,2-0.2s1.4-0.1,2-0.1c0.7,0,1.3,0.1,2,0.2c0.6,0.1,1.2,0.4,1.6,0.7
		c0.5,0.3,0.8,0.8,1.1,1.3c0.3,0.6,0.4,1.2,0.4,2c0,1.2-0.3,2.2-1,3c-0.7,0.8-1.5,1.3-2.5,1.5l1.1,0.8l3.9,6.2h-2.2l-4.3-6.7
		l-2.2-0.3v7.1h-1.9V14.8z M80.9,16.1c-0.2,0-0.4,0-0.6,0s-0.4,0-0.6,0c-0.2,0-0.4,0-0.5,0c-0.2,0-0.3,0-0.4,0.1V22h1.7
		c1,0,1.9-0.3,2.5-0.8c0.7-0.5,1-1.3,1-2.4c0-0.8-0.3-1.5-0.8-2C82.6,16.4,81.8,16.1,80.9,16.1z"/>
	<path class="st0" d="M89.9,14.7h8.5v1.7h-6.7v5.1h6.1v1.7h-6.1v5.6h6.8v1.7h-8.6V14.7z"/>
	<path class="st0" d="M110.8,18.2c0,0.4-0.1,0.8-0.2,1.1c-0.1,0.4-0.3,0.7-0.5,1.1c-0.2,0.3-0.5,0.6-0.9,0.9
		c-0.4,0.3-0.8,0.4-1.3,0.6V22c0.4,0.1,0.9,0.2,1.3,0.4c0.4,0.2,0.8,0.4,1.1,0.7s0.6,0.7,0.8,1.1c0.2,0.4,0.3,1,0.3,1.6
		c0,0.8-0.2,1.5-0.5,2.1c-0.3,0.6-0.8,1.1-1.3,1.4s-1.2,0.6-1.9,0.8c-0.7,0.2-1.4,0.3-2.1,0.3c-0.3,0-0.6,0-0.9,0
		c-0.3,0-0.7,0-1.1,0c-0.4,0-0.7-0.1-1.1-0.1s-0.7-0.1-1-0.2V14.8c0.6-0.1,1.2-0.2,1.9-0.2s1.5-0.1,2.4-0.1c0.6,0,1.2,0,1.8,0.1
		c0.6,0.1,1.1,0.3,1.6,0.6c0.5,0.3,0.9,0.7,1.2,1.2C110.6,16.8,110.8,17.5,110.8,18.2z M104.4,21.6c0.3,0,0.6,0,0.9,0
		c0.4,0,0.7,0,0.9-0.1c0.4-0.1,0.7-0.3,1-0.4c0.3-0.2,0.6-0.4,0.8-0.6s0.4-0.5,0.6-0.8c0.1-0.3,0.2-0.6,0.2-1c0-0.5-0.1-0.9-0.3-1.2
		c-0.2-0.3-0.4-0.6-0.7-0.8c-0.3-0.2-0.7-0.3-1.1-0.4c-0.4-0.1-0.8-0.1-1.2-0.1c-0.5,0-0.9,0-1.4,0c-0.4,0-0.7,0.1-0.9,0.1v5.3
		H104.4z M105.6,28.9c0.5,0,0.9-0.1,1.4-0.2c0.4-0.1,0.8-0.3,1.2-0.5s0.6-0.5,0.8-0.9c0.2-0.4,0.3-0.8,0.3-1.3
		c0-0.6-0.1-1.1-0.4-1.5c-0.2-0.4-0.6-0.7-1-0.9c-0.4-0.2-0.8-0.3-1.3-0.4c-0.5-0.1-1-0.1-1.5-0.1h-1.9v5.6c0.1,0,0.3,0.1,0.4,0.1
		c0.2,0,0.4,0,0.6,0s0.5,0,0.7,0C105.2,28.9,105.4,28.9,105.6,28.9z"/>
	<path class="st0" d="M114.3,14.8c0.6-0.1,1.2-0.2,2-0.2s1.4-0.1,2-0.1c0.7,0,1.3,0.1,2,0.2c0.6,0.1,1.2,0.4,1.6,0.7
		c0.5,0.3,0.8,0.8,1.1,1.3c0.3,0.6,0.4,1.2,0.4,2c0,1.2-0.3,2.2-1,3c-0.7,0.8-1.5,1.3-2.5,1.5l1.1,0.8l3.9,6.2h-2.2l-4.3-6.7
		l-2.2-0.3v7.1h-1.9V14.8z M118.3,16.1c-0.2,0-0.4,0-0.6,0s-0.4,0-0.6,0c-0.2,0-0.4,0-0.5,0c-0.2,0-0.3,0-0.4,0.1V22h1.7
		c1,0,1.9-0.3,2.5-0.8c0.7-0.5,1-1.3,1-2.4c0-0.8-0.3-1.5-0.8-2C120,16.4,119.3,16.1,118.3,16.1z"/>
	<path class="st0" d="M126.2,22.5c0-2.6,0.6-4.6,1.7-6s2.7-2.1,4.7-2.1c1.1,0,2.1,0.2,2.9,0.6c0.8,0.4,1.5,0.9,2,1.6
		c0.5,0.7,0.9,1.6,1.2,2.5c0.3,1,0.4,2.1,0.4,3.3c0,2.6-0.6,4.6-1.7,6c-1.1,1.4-2.7,2.1-4.7,2.1c-1.1,0-2-0.2-2.8-0.6
		c-0.8-0.4-1.5-0.9-2-1.6c-0.5-0.7-0.9-1.6-1.2-2.5C126.3,24.8,126.2,23.7,126.2,22.5z M128.2,22.5c0,0.9,0.1,1.7,0.3,2.5
		c0.2,0.8,0.4,1.5,0.8,2c0.4,0.6,0.8,1.1,1.4,1.4c0.6,0.4,1.2,0.5,2,0.5c1.4,0,2.5-0.5,3.3-1.6c0.8-1,1.2-2.7,1.2-4.9
		c0-0.8-0.1-1.7-0.3-2.4c-0.2-0.8-0.4-1.5-0.8-2.1c-0.4-0.6-0.8-1.1-1.4-1.4c-0.6-0.3-1.2-0.5-2-0.5c-1.4,0-2.4,0.5-3.2,1.6
		C128.6,18.7,128.2,20.3,128.2,22.5z"/>
	<path class="st0" d="M145.8,25.4l0.5,2.4h0l0.6-2.4l3.8-10.7h1.9l-5.9,15.9h-0.8l-6-15.9h2L145.8,25.4z"/>
	<path class="st0" d="M160.8,26H155l-1.6,4.3h-1.9l5.9-15.9h0.8l5.9,15.9h-2L160.8,26z M155.6,24.4h4.6l-1.7-4.8l-0.6-2.4h0
		l-0.6,2.4L155.6,24.4z"/>
	<path class="st0" d="M174,26.3c0-0.6-0.2-1.1-0.6-1.5c-0.4-0.4-0.8-0.7-1.4-1s-1.2-0.6-1.8-0.9c-0.7-0.3-1.3-0.6-1.8-1
		c-0.6-0.4-1-0.8-1.4-1.4c-0.4-0.6-0.6-1.3-0.6-2.1c0-1.2,0.4-2.2,1.3-2.9s2.1-1.1,3.6-1.1c0.9,0,1.7,0.1,2.5,0.2
		c0.7,0.1,1.3,0.3,1.7,0.5l-0.6,1.7c-0.3-0.2-0.8-0.3-1.5-0.5c-0.7-0.2-1.4-0.2-2.2-0.2c-1,0-1.7,0.2-2.2,0.7
		c-0.5,0.4-0.7,1-0.7,1.6c0,0.6,0.2,1.1,0.6,1.5c0.4,0.4,0.8,0.7,1.4,1c0.6,0.3,1.2,0.6,1.8,0.9c0.7,0.3,1.3,0.6,1.8,1
		c0.6,0.4,1,0.9,1.4,1.4c0.4,0.6,0.6,1.2,0.6,2.1c0,0.7-0.1,1.3-0.4,1.8c-0.2,0.5-0.6,1-1,1.4c-0.5,0.4-1,0.7-1.7,0.9
		c-0.7,0.2-1.4,0.3-2.2,0.3c-1.1,0-2-0.1-2.8-0.3s-1.3-0.4-1.7-0.6l0.6-1.7c0.3,0.2,0.8,0.4,1.5,0.6c0.7,0.2,1.4,0.3,2.3,0.3
		c0.5,0,1,0,1.4-0.1c0.4-0.1,0.8-0.3,1.1-0.5s0.6-0.5,0.7-0.8C173.9,27.2,174,26.8,174,26.3z"/>
	<path class="st0" d="M188.7,29.7c-0.4,0.3-1,0.6-1.7,0.7c-0.7,0.1-1.4,0.2-2.2,0.2c-0.9,0-1.8-0.2-2.6-0.5
		c-0.8-0.3-1.5-0.8-2.1-1.5c-0.6-0.7-1.1-1.5-1.5-2.5c-0.4-1-0.5-2.2-0.5-3.6c0-1.5,0.2-2.7,0.6-3.7c0.4-1,0.9-1.9,1.6-2.5
		c0.6-0.6,1.4-1.1,2.2-1.4s1.6-0.4,2.5-0.4c0.9,0,1.6,0,2.2,0.1c0.6,0.1,1,0.2,1.5,0.4l-0.4,1.7c-0.7-0.4-1.7-0.5-3.1-0.5
		c-0.6,0-1.2,0.1-1.8,0.3c-0.6,0.2-1.1,0.6-1.6,1.1c-0.5,0.5-0.8,1.2-1.1,2c-0.3,0.8-0.4,1.8-0.4,3c0,1.1,0.1,2,0.4,2.8
		c0.3,0.8,0.6,1.5,1.1,2c0.5,0.5,1,0.9,1.7,1.2c0.6,0.3,1.3,0.4,2.1,0.4c0.7,0,1.3-0.1,1.8-0.2c0.5-0.1,0.9-0.3,1.3-0.5L188.7,29.7z
		"/>
	<path class="st0" d="M200.1,14.7h1.8v10.4c0,0.9-0.1,1.7-0.4,2.4c-0.2,0.7-0.6,1.2-1,1.7c-0.5,0.4-1,0.8-1.6,1
		c-0.6,0.2-1.3,0.3-2.1,0.3c-1.8,0-3.2-0.4-4.2-1.3c-0.9-0.8-1.4-2.1-1.4-3.8V14.7h1.9v9.9c0,0.8,0.1,1.5,0.2,2s0.4,1,0.7,1.3
		c0.3,0.3,0.7,0.6,1.2,0.7c0.5,0.1,1,0.2,1.6,0.2c1.2,0,2.1-0.3,2.6-1c0.5-0.7,0.8-1.8,0.8-3.3V14.7z"/>
	<path class="st0" d="M214.8,30.3h-9.2V14.7h1.9v14h7.4V30.3z"/>
	<path class="st0" d="M225.4,26h-5.7l-1.6,4.3h-1.9l5.9-15.9h0.8l5.9,15.9h-2L225.4,26z M220.2,24.4h4.6l-1.7-4.8l-0.6-2.4h0
		l-0.6,2.4L220.2,24.4z"/>
	<path class="st0" d="M231.1,14.8c0.6-0.1,1.2-0.2,2-0.2s1.4-0.1,2-0.1c0.7,0,1.3,0.1,2,0.2c0.6,0.1,1.2,0.4,1.6,0.7
		c0.5,0.3,0.8,0.8,1.1,1.3c0.3,0.6,0.4,1.2,0.4,2c0,1.2-0.3,2.2-1,3c-0.7,0.8-1.5,1.3-2.5,1.5l1.1,0.8l3.9,6.2h-2.2l-4.3-6.7
		l-2.2-0.3v7.1h-1.9V14.8z M235.2,16.1c-0.2,0-0.4,0-0.6,0s-0.4,0-0.6,0c-0.2,0-0.4,0-0.5,0c-0.2,0-0.3,0-0.4,0.1V22h1.7
		c1,0,1.9-0.3,2.5-0.8c0.7-0.5,1-1.3,1-2.4c0-0.8-0.3-1.5-0.8-2C236.9,16.4,236.1,16.1,235.2,16.1z"/>
	<path class="st0" d="M248.4,14.7c0.3,0,0.6-0.1,0.9-0.1s0.7,0,1.1,0c0.4,0,0.8,0,1.1,0c0.4,0,0.7,0,1,0c1.2,0,2.3,0.2,3.2,0.6
		c0.9,0.4,1.7,0.9,2.3,1.6c0.6,0.7,1,1.5,1.3,2.5s0.4,2,0.4,3.2c0,1.1-0.1,2.1-0.4,3s-0.7,1.8-1.3,2.6c-0.6,0.8-1.4,1.4-2.3,1.8
		c-1,0.5-2.1,0.7-3.5,0.7c-0.2,0-0.5,0-0.9,0c-0.4,0-0.8,0-1.2,0c-0.4,0-0.8,0-1.1-0.1c-0.3,0-0.6,0-0.7-0.1V14.7z M252.6,16.1
		c-0.2,0-0.4,0-0.6,0c-0.2,0-0.5,0-0.7,0c-0.2,0-0.4,0-0.6,0c-0.2,0-0.3,0-0.4,0v12.5c0.1,0,0.2,0,0.4,0c0.2,0,0.4,0,0.6,0
		c0.2,0,0.4,0,0.6,0c0.2,0,0.3,0,0.4,0c1,0,1.9-0.2,2.6-0.5s1.3-0.8,1.7-1.4c0.4-0.6,0.7-1.3,0.9-2.1s0.3-1.6,0.3-2.4
		c0-0.7-0.1-1.5-0.2-2.2c-0.2-0.7-0.4-1.4-0.8-2c-0.4-0.6-0.9-1.1-1.6-1.5C254.5,16.3,253.6,16.1,252.6,16.1z"/>
	<path class="st0" d="M263,14.7h1.9v15.6H263V14.7z"/>
	<path class="st0" d="M275.6,26.3c0-0.6-0.2-1.1-0.6-1.5c-0.4-0.4-0.8-0.7-1.4-1c-0.6-0.3-1.2-0.6-1.8-0.9s-1.3-0.6-1.8-1
		c-0.6-0.4-1-0.8-1.4-1.4c-0.4-0.6-0.6-1.3-0.6-2.1c0-1.2,0.4-2.2,1.3-2.9s2.1-1.1,3.6-1.1c0.9,0,1.7,0.1,2.5,0.2
		c0.7,0.1,1.3,0.3,1.7,0.5l-0.6,1.7c-0.3-0.2-0.8-0.3-1.5-0.5c-0.7-0.2-1.4-0.2-2.2-0.2c-1,0-1.7,0.2-2.2,0.7
		c-0.5,0.4-0.7,1-0.7,1.6c0,0.6,0.2,1.1,0.6,1.5c0.4,0.4,0.8,0.7,1.4,1c0.6,0.3,1.2,0.6,1.8,0.9c0.7,0.3,1.3,0.6,1.8,1
		c0.6,0.4,1,0.9,1.4,1.4c0.4,0.6,0.6,1.2,0.6,2.1c0,0.7-0.1,1.3-0.4,1.8c-0.2,0.5-0.6,1-1,1.4c-0.5,0.4-1,0.7-1.7,0.9
		c-0.7,0.2-1.4,0.3-2.2,0.3c-1.1,0-2-0.1-2.8-0.3c-0.7-0.2-1.3-0.4-1.7-0.6l0.6-1.7c0.3,0.2,0.8,0.4,1.5,0.6
		c0.7,0.2,1.4,0.3,2.3,0.3c0.5,0,1,0,1.4-0.1c0.4-0.1,0.8-0.3,1.1-0.5c0.3-0.2,0.6-0.5,0.7-0.8C275.5,27.2,275.6,26.8,275.6,26.3z"
		/>
	<path class="st0" d="M280.1,14.7h8.5v1.7H282v5.1h6.1v1.7H282v5.6h6.8v1.7h-8.6V14.7z"/>
	<path class="st0" d="M299.9,26h-5.7l-1.6,4.3h-1.9l5.9-15.9h0.8l5.9,15.9h-2L299.9,26z M294.8,24.4h4.6l-1.7-4.8l-0.6-2.4h0
		l-0.6,2.4L294.8,24.4z"/>
	<path class="st0" d="M313.1,26.3c0-0.6-0.2-1.1-0.6-1.5c-0.4-0.4-0.8-0.7-1.4-1c-0.6-0.3-1.2-0.6-1.8-0.9s-1.3-0.6-1.8-1
		c-0.6-0.4-1-0.8-1.4-1.4c-0.4-0.6-0.6-1.3-0.6-2.1c0-1.2,0.4-2.2,1.3-2.9s2.1-1.1,3.6-1.1c0.9,0,1.7,0.1,2.5,0.2
		c0.7,0.1,1.3,0.3,1.7,0.5l-0.6,1.7c-0.3-0.2-0.8-0.3-1.5-0.5c-0.7-0.2-1.4-0.2-2.2-0.2c-1,0-1.7,0.2-2.2,0.7
		c-0.5,0.4-0.7,1-0.7,1.6c0,0.6,0.2,1.1,0.6,1.5c0.4,0.4,0.8,0.7,1.4,1c0.6,0.3,1.2,0.6,1.8,0.9c0.7,0.3,1.3,0.6,1.8,1
		c0.6,0.4,1,0.9,1.4,1.4c0.4,0.6,0.6,1.2,0.6,2.1c0,0.7-0.1,1.3-0.4,1.8c-0.2,0.5-0.6,1-1,1.4c-0.5,0.4-1,0.7-1.7,0.9
		c-0.7,0.2-1.4,0.3-2.2,0.3c-1.1,0-2-0.1-2.8-0.3c-0.7-0.2-1.3-0.4-1.7-0.6l0.6-1.7c0.3,0.2,0.8,0.4,1.5,0.6
		c0.7,0.2,1.4,0.3,2.3,0.3c0.5,0,1,0,1.4-0.1c0.4-0.1,0.8-0.3,1.1-0.5c0.3-0.2,0.6-0.5,0.7-0.8C313,27.2,313.1,26.8,313.1,26.3z"/>
	<path class="st0" d="M317.6,14.7h8.5v1.7h-6.7v5.1h6.1v1.7h-6.1v5.6h6.8v1.7h-8.6V14.7z"/>
</g>
<g>
	<g>
		<linearGradient id="SVGID_1_" gradientUnits="userSpaceOnUse" x1="21.6483" y1="2.252" x2="21.6483" y2="41.5073">
			<stop  offset="0" style="stop-color:#B2D236"/>
			<stop  offset="0.6687" style="stop-color:#D7DE27"/>
		</linearGradient>
		<path class="st1" d="M40.2,2.3H3.1c-0.6,0-1,0.5-1,1v37.2c0,0.6,0.5,1,1,1H20c-0.3-2.3-0.6-6-3.2-5.5c-0.6,0-2.1,0.5-2.8,0.6
			c-1.4,0.2-2.9,0.1-3.7-1c-0.8-1.1-1.4-6.5-1.6-6.7c-0.2-0.2-3-0.4-3.4-0.6c-0.8-0.5-0.2-1.5-0.2-1.5s2.6-3.7,3.1-5.3
			c0.1-0.4,0-0.7-0.3-1.5c-0.1-0.8-0.6-1.6-0.5-2.4c1-8.4,7-13.8,15.3-13.8c8.3,0,15.1,6.2,15.1,13.9c0,2.9-0.9,5.5-2.5,7.7
			c0,0-1.1,1.9-3.4,5.4c-1,1.5,2.1,9.2,2.7,10.8h5.7c0.6,0,1-0.5,1-1V3.3C41.3,2.7,40.8,2.3,40.2,2.3z"/>
		<path class="st0" d="M31.9,30.7c2.3-3.5,3.4-5.4,3.4-5.4c1.6-2.2,2.5-4.9,2.5-7.7c0-7.7-6.7-13.9-15.1-13.9
			c-8.3,0-14.4,5.4-15.3,13.8c-0.1,0.8,0.3,1.7,0.5,2.4c0.2,0.9,0.4,1.1,0.3,1.5c-0.5,1.6-3.1,5.3-3.1,5.3s-0.6,1,0.2,1.5
			c0.4,0.3,3.2,0.5,3.4,0.6c0.2,0.1,0.8,5.6,1.6,6.7c0.8,1.1,2.3,1.2,3.7,1c0.7-0.1,2.2-0.6,2.8-0.6c2.6-0.6,3,3.2,3.2,5.5h14.6
			C33.9,40,30.9,32.2,31.9,30.7z"/>
	</g>
	<path class="st2" d="M10.9,14.7c0.1-0.3,0.5-0.3,0.5-0.3s0.3,0.2,0.2,0.5c-0.1,0.3-0.6,0.6-0.6,0.6S10.8,15,10.9,14.7z"/>
	<path class="st3" d="M11.5,16.9c0.2-0.2,0.5-0.1,0.5-0.1s0.2,0.3,0,0.5c-0.2,0.2-0.8,0.3-0.8,0.3S11.3,17.1,11.5,16.9z"/>
	<path class="st3" d="M12.2,17.6c0.2-0.3,0.6-0.1,0.6-0.1s0.2,0.3,0,0.6c-0.2,0.3-0.9,0.4-0.9,0.4S11.9,17.8,12.2,17.6z"/>
	<path class="st4" d="M34.9,16.5c-0.6,0.6-1.1,0.8-2.1,1c-0.5,0.1-1.4,0.1-2.2,0.6c-0.1,0.1-0.2,0.1-0.3,0.2c0-0.3,0.1-0.8,0.4-1.2
		c0.6-0.9,1.7-1,2.4-1.4c0.6-0.4,1.1-1,1.1-1.8c0,0-0.3,1.4-1.8,1.8c-0.9,0.2-1.8,0.7-2.3,1.5c-0.3,0.6-0.4,1.3-0.4,1.6
		c-0.5,0.4-0.8,0.8-0.9,1c0,0-0.4-0.5-1.1-1.1c0,0,0,0,0-0.1c-1.5-2.9-1.5-3.9-1-4.6c0.8-1.2,2.6-0.8,4.4-2.1
		c1.6-1.2,1.5-2.7,1.5-2.7s-0.3,1.5-1.6,2.5c-1.5,1.1-2.6,0.9-3.6,1.4c0,0-0.1,0-0.1,0c0-0.1,0.1-0.2,0.1-0.2c0.2-0.7-0.1-1.4-0.5-2
		C26.1,9.3,27,7.9,27,7.9c-0.4,0.5-0.9,1.3-0.6,2.5c0.1,0.5,0.7,1.1,0.6,1.9c0,0.4-0.3,0.8-0.5,1l0,0c-0.5,0.5-0.8,1-0.9,1.5
		c0,1,0.2,1.9,0.8,3c-0.5-0.3-1.1-0.5-1.8-0.6c-0.3-0.3-1.2-1.1-1.1-2.1c0.1-1.2,0.4-2.1,0-3.1c-0.4-1.2-1.5-1.8-2.2-2
		c-1.7-1.9-1.1-4-1.1-4s-0.9,2,0.5,3.9c0,0-0.1,0-0.1,0c-0.5,0-2.9-0.7-4-2.2c0,0,1.2,1.9,3.7,2.5c1.4,0.3,1.9,0.6,2.4,1.3
		c0.5,0.8,0.4,1.6,0.1,3.3c-0.2,1,0.1,1.7,0.4,2.3c-0.5,0-1.1,0.1-1.7,0.3c-0.2,0.1-0.3,0.1-0.5,0.1c0-0.3-0.1-1.1-0.8-1.8l0-0.1
		c-0.1-0.5-0.4-0.9-0.2-1.3c0.1-0.5,0.4-0.6,0.6-1.2c0.2-0.6-0.1-1.3-0.7-1.9c0,0,1.1,1.2,0.2,2.3c-0.6,0.7-0.5,1.2-0.4,1.7
		c-0.9-0.6-1.7-0.8-2.3-1.6c-0.9-1.1,0-2.9,0-2.9s-0.5,0.7-0.6,1.7c-0.1,0.8,0.4,1.4,0.6,1.7c0.6,0.8,1.6,0.9,2.4,1.7
		c0.7,0.7,0.4,1.3,0.4,1.7c-1.8,0.3-3.4-0.2-4.5-1.5C13.9,13.8,15.8,8,15.8,8s-1.5,2.7-1.1,6.3c-1.8-2.1-4-0.9-4-0.9s2.6-1,4.1,1.9
		c0.1,0.4,0.3,0.8,0.5,1.2c0,0,0,0,0,0l0,0c0.4,0.7,1.1,1.3,2.1,1.8c-0.3,0.2-1,0.5-1.5,0.4c-0.5-0.1-0.6-0.7-1.3-0.9
		c-0.4-0.1-0.7-0.1-0.9-0.2c-0.3-0.1-0.3-0.7-0.7-0.9c-0.1-0.1-0.5-0.1-0.7-0.2c-0.2,0-0.5-0.2-0.5-0.2c0.1,0.2,0.5,0.4,0.7,0.5
		c0.2,0,0.4,0.1,0.6,0.6c0.2,0.6,0.5,0.5,1.1,0.7c0.7,0.2,0.6,0.8,1.3,1.1c0.7,0.3,1.7,0,2.6-0.3c0.2-0.1,0.4-0.1,0.6-0.2
		c2.4,0.6,3.6-0.6,5.6-0.2c3.2,0.7,3.3,2.7,3.4,4.3c0,0.2,0,0.5-0.1,0.7c-0.1-0.1-0.1-0.1-0.2-0.2c-0.4-0.5-0.2-1.4-0.9-2.2
		c-0.3-0.4-0.9-0.9-1.9-0.8c-1.1,0.2-1.6,1.1-3.5,1c-1.6-0.1-2.9-1.2-2.9-1.2s0.8,1.3,2.8,1.5c2.8,0.3,3-1.4,4.5-0.7
		c0.8,0.4,0.7,1.2,1.1,2.4c0.1,0.5,0.5,0.9,0.8,1.2c-0.9,4-1.6,11.2,1.6,16.7l3.4,0c0,0-5.4-7.9-2.9-17.3c0,0,0.2-1.7-0.1-2.7
		c-0.1-0.5,0.4-1.9,1.4-2.6c1.3-0.9,3.2-0.7,4.1-2c0.5-0.8,0.7-2.7,0.7-2.7S35.4,15.9,34.9,16.5z"/>
	<path class="st2" d="M26.1,7c-0.1,0.3-0.4,0.2-0.4,0.2S25.4,7,25.5,6.7c0.1-0.3,0.6-0.5,0.6-0.5S26.3,6.7,26.1,7z"/>
	<path class="st5" d="M17.6,7.6c-0.1,0.3-0.4,0.3-0.4,0.3s-0.3-0.2-0.2-0.5c0.1-0.3,0.5-0.6,0.5-0.6S17.6,7.2,17.6,7.6z"/>
	<path class="st5" d="M18.4,8.2c-0.2,0.3-0.6,0.2-0.6,0.2s-0.3-0.3-0.1-0.6c0.2-0.3,0.7-0.6,0.7-0.6S18.5,7.9,18.4,8.2z"/>
	<path class="st5" d="M19,8.8c-0.3,0.3-0.6,0.1-0.6,0.1s-0.2-0.3,0-0.6c0.3-0.3,0.9-0.3,0.9-0.3S19.3,8.6,19,8.8z"/>
	<path class="st2" d="M19.8,9.2c-0.3,0.3-0.6,0.1-0.6,0.1s-0.2-0.3,0-0.6c0.3-0.3,0.9-0.3,0.9-0.3S20.1,9,19.8,9.2z"/>
	<path class="st3" d="M16,14.8c-0.2,0.2-0.5-0.1-0.5-0.1s-0.1-0.3,0.1-0.5c0.2-0.2,0.7-0.1,0.7-0.1S16.3,14.7,16,14.8z"/>
	<path class="st3" d="M15.8,13.9c-0.2,0.2-0.5-0.1-0.5-0.1s-0.1-0.3,0.1-0.5c0.2-0.2,0.7-0.1,0.7-0.1S16.1,13.8,15.8,13.9z"/>
	<path class="st3" d="M15.7,13.1c-0.2,0.2-0.5-0.1-0.5-0.1s-0.1-0.3,0.1-0.5c0.2-0.2,0.7-0.1,0.7-0.1S15.9,13,15.7,13.1z"/>
	<path class="st3" d="M15.7,12.2c-0.3,0-0.4-0.3-0.4-0.3s0-0.3,0.3-0.3c0.3,0,0.7,0.2,0.7,0.2S16,12.2,15.7,12.2z"/>
	<path class="st3" d="M15.7,11.5c-0.3,0-0.4-0.2-0.4-0.2s0-0.3,0.3-0.3c0.3,0,0.7,0.2,0.7,0.2S16,11.4,15.7,11.5z"/>
	<path class="st5" d="M15.7,7.6c0.1,0.3-0.2,0.5-0.2,0.5s-0.3,0-0.4-0.3C15.1,7.5,15.2,7,15.2,7S15.7,7.3,15.7,7.6z"/>
	<path class="st3" d="M12.9,18.4c0.2-0.3,0.6-0.3,0.6-0.3s0.3,0.3,0.1,0.6c-0.2,0.3-0.7,0.6-0.7,0.6S12.7,18.7,12.9,18.4z"/>
	<path class="st3" d="M13.6,14.8c0.2-0.3,0.5-0.2,0.5-0.2s0.3,0.3,0.1,0.6c-0.2,0.3-0.7,0.5-0.7,0.5S13.4,15.1,13.6,14.8z"/>
	<path class="st3" d="M12.6,14c0.2-0.3,0.5-0.2,0.5-0.2s0.3,0.3,0.1,0.5c-0.2,0.3-0.7,0.5-0.7,0.5S12.5,14.3,12.6,14z"/>
	<path class="st5" d="M14.3,10c0.4,0,0.4,0.4,0.4,0.4s-0.1,0.4-0.5,0.4c-0.4,0-0.8-0.4-0.8-0.4S13.9,10,14.3,10z"/>
	<path class="st5" d="M14.7,9C15,9.1,15,9.5,15,9.5s-0.2,0.4-0.6,0.3c-0.4-0.1-0.7-0.6-0.7-0.6S14.3,8.9,14.7,9z"/>
	<path class="st5" d="M15.1,8.2c0.2,0.2,0.1,0.5,0.1,0.5s-0.3,0.2-0.5,0C14.5,8.5,14.3,8,14.3,8S14.9,8,15.1,8.2z"/>
	<path class="st3" d="M16.2,8C16,8.1,16,8.3,16,8.3s0.2,0.2,0.4,0.1c0.2-0.1,0.3-0.5,0.3-0.5S16.3,7.9,16.2,8z"/>
	<path class="st3" d="M15.8,10.1c-0.3,0-0.3,0.3-0.3,0.3s0.1,0.3,0.4,0.3c0.3,0,0.6-0.3,0.6-0.3S16.1,10.1,15.8,10.1z"/>
	<path class="st3" d="M16,9.4c-0.2,0-0.4,0.2-0.4,0.2s0,0.3,0.3,0.3c0.2,0,0.6-0.2,0.6-0.2S16.2,9.4,16,9.4z"/>
	<path class="st3" d="M16.1,8.7c-0.2,0-0.3,0.3-0.3,0.3s0.1,0.3,0.3,0.3c0.2,0,0.6-0.3,0.6-0.3S16.4,8.7,16.1,8.7z"/>
	<path class="st5" d="M12.4,12.4c0.1,0.3-0.3,0.5-0.3,0.5s-0.4,0-0.4-0.3c-0.1-0.3,0.2-0.8,0.2-0.8S12.3,12,12.4,12.4z"/>
	<path class="st5" d="M13.3,12.6c-0.1,0.3-0.4,0.3-0.4,0.3s-0.3-0.2-0.2-0.5c0.1-0.3,0.5-0.7,0.5-0.7S13.4,12.3,13.3,12.6z"/>
	<path class="st2" d="M12.8,11.8C12.8,12,12.5,12,12.5,12s-0.2-0.1-0.2-0.4c0.1-0.2,0.4-0.5,0.4-0.5S12.9,11.6,12.8,11.8z"/>
	<path class="st5" d="M11.3,12.5c0.2,0.3,0,0.5,0,0.5s-0.3,0.1-0.5-0.1c-0.2-0.3-0.2-0.8-0.2-0.8S11.1,12.2,11.3,12.5z"/>
	<path class="st5" d="M14.1,10.9c0.3-0.1,0.5,0.2,0.5,0.2s0,0.4-0.3,0.5c-0.3,0.1-0.8,0-0.8,0S13.8,11,14.1,10.9z"/>
	<path class="st3" d="M11.5,13.8c0.1-0.3,0.4-0.3,0.4-0.3s0.3,0.2,0.3,0.5c-0.1,0.3-0.5,0.7-0.5,0.7S11.5,14.1,11.5,13.8z"/>
	<path class="st3" d="M10.6,13.7c0.2-0.3,0.5-0.2,0.5-0.2s0.3,0.3,0.1,0.5c-0.2,0.3-0.7,0.5-0.7,0.5S10.4,14,10.6,13.7z"/>
	<path class="st5" d="M14.1,13.2c-0.2,0.2-0.5,0-0.5,0s-0.2-0.3,0.1-0.5c0.2-0.2,0.8-0.2,0.8-0.2S14.4,13,14.1,13.2z"/>
	<path class="st2" d="M11.6,11.7c0.1,0.3-0.2,0.5-0.2,0.5s-0.3,0-0.4-0.3c-0.1-0.3,0.1-0.8,0.1-0.8S11.5,11.4,11.6,11.7z"/>
	<path class="st2" d="M12.2,11c0.1,0.2-0.1,0.4-0.1,0.4s-0.3,0.1-0.4-0.2c-0.1-0.2-0.1-0.7-0.1-0.7S12,10.7,12.2,11z"/>
	<path class="st5" d="M14.1,11.7c0.3,0,0.4,0.3,0.4,0.3s0,0.3-0.3,0.3c-0.3,0-0.7-0.2-0.7-0.2S13.9,11.8,14.1,11.7z"/>
	<path class="st2" d="M14.2,8.3c0.3,0.1,0.3,0.4,0.3,0.4S14.3,9,14.1,8.9c-0.3-0.1-0.5-0.4-0.5-0.4S13.9,8.3,14.2,8.3z"/>
	<path class="st2" d="M13.3,10.6c0.3,0,0.3,0.3,0.3,0.3s-0.1,0.3-0.4,0.3c-0.3,0-0.6-0.3-0.6-0.3S13,10.6,13.3,10.6z"/>
	<path class="st2" d="M11.8,15c0-0.3,0.4-0.4,0.4-0.4s0.3,0.1,0.3,0.4c0,0.3-0.4,0.7-0.4,0.7S11.8,15.3,11.8,15z"/>
	<path class="st2" d="M12.7,15.1c0.2-0.3,0.5-0.2,0.5-0.2s0.3,0.2,0.1,0.5c-0.2,0.3-0.7,0.5-0.7,0.5S12.6,15.4,12.7,15.1z"/>
	<path class="st2" d="M14.1,15.6c0.2-0.3,0.5-0.2,0.5-0.2s0.3,0.2,0.1,0.5c-0.2,0.3-0.7,0.5-0.7,0.5S14,15.9,14.1,15.6z"/>
	<path class="st3" d="M11.2,16c0.3,0,0.4,0.4,0.4,0.4s-0.1,0.3-0.4,0.3c-0.3,0-0.7-0.4-0.7-0.4S10.9,16,11.2,16z"/>
	<path class="st2" d="M12.9,9.9c0.3,0,0.4,0.4,0.4,0.4s-0.1,0.3-0.4,0.3c-0.3,0-0.7-0.4-0.7-0.4S12.6,9.9,12.9,9.9z"/>
	<path class="st2" d="M13.5,9.2c0.3,0.1,0.3,0.4,0.3,0.4s-0.2,0.3-0.5,0.2c-0.3-0.1-0.6-0.5-0.6-0.5S13.2,9.1,13.5,9.2z"/>
	<path class="st3" d="M19.9,6C20.1,6.2,20,6.5,20,6.5s-0.2,0.2-0.5,0.1c-0.3-0.2-0.5-0.6-0.5-0.6S19.6,5.9,19.9,6z"/>
	<path class="st2" d="M22.7,6.8c-0.2,0.1-0.4-0.2-0.4-0.2s0-0.3,0.2-0.3c0.2-0.1,0.6,0.1,0.6,0.1S22.9,6.8,22.7,6.8z"/>
	<path class="st2" d="M23.2,7.6c-0.2,0.1-0.3-0.1-0.3-0.1s0-0.2,0.2-0.3c0.2-0.1,0.5,0.1,0.5,0.1S23.4,7.5,23.2,7.6z"/>
	<path class="st2" d="M23.7,9.4c-0.3,0.1-0.5-0.2-0.5-0.2s0-0.3,0.3-0.4c0.3-0.1,0.8,0.1,0.8,0.1S24,9.3,23.7,9.4z"/>
	<path class="st5" d="M21.1,7.4c-0.3,0.1-0.5-0.3-0.5-0.3s0-0.4,0.4-0.5c0.3-0.1,0.9,0.2,0.9,0.2S21.4,7.3,21.1,7.4z"/>
	<path class="st3" d="M19.5,7.8C19.8,7.7,20,8,20,8s0,0.4-0.4,0.4c-0.4,0.1-0.9-0.2-0.9-0.2S19.1,7.8,19.5,7.8z"/>
	<path class="st3" d="M19.8,8.7C20.1,8.7,20.3,9,20.3,9s0,0.4-0.4,0.4C19.5,9.5,19,9.2,19,9.2S19.4,8.8,19.8,8.7z"/>
	<path class="st5" d="M21.2,8.3c-0.4,0-0.5-0.4-0.5-0.4s0.1-0.4,0.5-0.4c0.4,0,0.9,0.4,0.9,0.4S21.5,8.3,21.2,8.3z"/>
	<path class="st5" d="M21.6,9.2C21.3,9.4,21,9,21,9s0-0.4,0.3-0.5c0.3-0.1,1,0.1,1,0.1S21.9,9.1,21.6,9.2z"/>
	<path class="st5" d="M22.2,10c-0.3,0.1-0.6-0.2-0.6-0.2s0-0.4,0.3-0.5c0.3-0.1,0.9,0.1,0.9,0.1S22.6,9.8,22.2,10z"/>
	<path class="st3" d="M20.4,5.4c0.2,0.3-0.1,0.5-0.1,0.5S19.9,6,19.8,5.7c-0.2-0.3-0.1-0.8-0.1-0.8S20.2,5.1,20.4,5.4z"/>
	<path class="st5" d="M21.2,6.4c-0.3,0.2-0.5,0-0.5,0S20.5,6,20.7,5.8c0.3-0.2,0.8-0.2,0.8-0.2S21.4,6.1,21.2,6.4z"/>
	<path class="st2" d="M22,6.6c-0.3,0.1-0.5-0.2-0.5-0.2s-0.1-0.4,0.2-0.5c0.3-0.1,0.8,0,0.8,0S22.3,6.4,22,6.6z"/>
	<path class="st2" d="M22.2,7.6c-0.3,0-0.5-0.3-0.5-0.3s0-0.4,0.4-0.4c0.3-0.1,0.8,0.2,0.8,0.2S22.5,7.6,22.2,7.6z"/>
	<path class="st2" d="M22.5,8.3C22.2,8.4,22,8.1,22,8.1s0-0.4,0.3-0.4c0.3-0.1,0.8,0.2,0.8,0.2S22.8,8.3,22.5,8.3z"/>
	<path class="st2" d="M22.9,9.1c-0.3,0.1-0.5-0.1-0.5-0.1s-0.1-0.4,0.2-0.5c0.3-0.1,0.8,0,0.8,0S23.2,8.9,22.9,9.1z"/>
	<path class="st5" d="M23.2,10.3c-0.2,0.3-0.5,0.1-0.5,0.1s-0.2-0.3,0-0.5c0.2-0.3,0.8-0.4,0.8-0.4S23.4,10.1,23.2,10.3z"/>
	<path class="st5" d="M17,11.2c0.2,0.1,0.2,0.3,0.2,0.3s-0.1,0.2-0.4,0.1c-0.2-0.1-0.4-0.4-0.4-0.4S16.7,11.1,17,11.2z"/>
	<path class="st5" d="M16.7,11.8c0.2,0,0.3,0.3,0.3,0.3s-0.1,0.2-0.4,0.2c-0.2,0-0.5-0.4-0.5-0.4S16.4,11.8,16.7,11.8z"/>
	<path class="st5" d="M16.5,12.6c0.3-0.1,0.4,0.2,0.4,0.2s0,0.3-0.3,0.4c-0.3,0.1-0.7-0.1-0.7-0.1S16.2,12.6,16.5,12.6z"/>
	<path class="st5" d="M16.6,13.3c0.3-0.1,0.5,0.2,0.5,0.2s0,0.3-0.3,0.4C16.5,14,16,13.8,16,13.8S16.3,13.4,16.6,13.3z"/>
	<path class="st5" d="M16.9,14.2c0.3-0.1,0.5,0.1,0.5,0.1s0.1,0.3-0.2,0.5c-0.3,0.1-0.8,0.1-0.8,0.1S16.6,14.3,16.9,14.2z"/>
	<path class="st5" d="M17.3,15c0.2-0.2,0.5-0.1,0.5-0.1s0.2,0.3,0,0.5c-0.2,0.2-0.7,0.4-0.7,0.4S17.2,15.2,17.3,15z"/>
	<path class="st5" d="M18.1,13.7c-0.2,0.1-0.4-0.2-0.4-0.2s0-0.3,0.2-0.3c0.2-0.1,0.6,0.1,0.6,0.1S18.3,13.6,18.1,13.7z"/>
	<path class="st5" d="M18.6,14.2c-0.2,0.1-0.4,0-0.4,0s-0.1-0.2,0.1-0.4c0.2-0.1,0.6-0.1,0.6-0.1S18.8,14.1,18.6,14.2z"/>
	<path class="st5" d="M17.9,13c-0.2,0.1-0.4-0.1-0.4-0.1s-0.1-0.3,0.1-0.4c0.2-0.1,0.6,0,0.6,0S18.2,12.9,17.9,13z"/>
	<path class="st5" d="M14.9,17.5c-0.2,0.2-0.5,0.1-0.5,0.1s-0.2-0.3,0-0.5c0.2-0.2,0.7-0.3,0.7-0.3S15.1,17.3,14.9,17.5z"/>
	<path class="st5" d="M15.6,17.9c-0.1,0.2-0.4,0.1-0.4,0.1s-0.2-0.2-0.1-0.4c0.1-0.2,0.6-0.4,0.6-0.4S15.8,17.7,15.6,17.9z"/>
	<path class="st5" d="M16.2,18.4c-0.1,0.2-0.4,0.2-0.4,0.2s-0.2-0.2-0.1-0.4c0.1-0.2,0.5-0.4,0.5-0.4S16.3,18.2,16.2,18.4z"/>
	<path class="st5" d="M17.7,12.4c-0.2,0-0.3-0.2-0.3-0.2s0.1-0.3,0.3-0.3c0.2,0,0.6,0.2,0.6,0.2S18,12.4,17.7,12.4z"/>
	<path class="st3" d="M13.8,18.8c0.2-0.3,0.5-0.2,0.5-0.2s0.3,0.3,0.1,0.6c-0.2,0.3-0.7,0.5-0.7,0.5S13.6,19.1,13.8,18.8z"/>
	<path class="st3" d="M14.6,19.4c0.1-0.3,0.4-0.3,0.4-0.3s0.3,0.2,0.2,0.5c-0.1,0.3-0.5,0.6-0.5,0.6S14.5,19.7,14.6,19.4z"/>
	<path class="st5" d="M17.8,11.8c-0.2-0.1-0.2-0.3-0.2-0.3s0.1-0.2,0.4-0.2c0.2,0.1,0.5,0.4,0.5,0.4S18.1,11.8,17.8,11.8z"/>
	<path class="st3" d="M20.1,12c0.2,0,0.3,0.3,0.3,0.3s-0.1,0.3-0.3,0.2c-0.2,0-0.6-0.3-0.6-0.3S19.8,12,20.1,12z"/>
	<path class="st3" d="M19.7,11.4c0.2-0.1,0.4,0.1,0.4,0.1s0,0.3-0.2,0.3c-0.2,0.1-0.6-0.1-0.6-0.1S19.5,11.5,19.7,11.4z"/>
	<path class="st5" d="M19.4,12.4c0.2,0,0.3,0.2,0.3,0.2s0,0.3-0.3,0.3c-0.2,0-0.6-0.2-0.6-0.2S19.1,12.4,19.4,12.4z"/>
	<path class="st3" d="M20.1,12.7c0.2,0,0.3,0.3,0.3,0.3s-0.1,0.3-0.3,0.2c-0.2,0-0.6-0.3-0.6-0.3S19.9,12.7,20.1,12.7z"/>
	<path class="st3" d="M19.9,13.3c0.2,0.1,0.2,0.3,0.2,0.3s-0.1,0.2-0.4,0.2c-0.2-0.1-0.5-0.4-0.5-0.4S19.7,13.2,19.9,13.3z"/>
	<path class="st3" d="M19.6,13.9c0.2,0.1,0.1,0.4,0.1,0.4s-0.2,0.2-0.4,0c-0.2-0.1-0.3-0.5-0.3-0.5S19.4,13.8,19.6,13.9z"/>
	<path class="st5" d="M19.1,13c0.2,0.1,0.1,0.4,0.1,0.4s-0.2,0.2-0.4,0c-0.2-0.1-0.3-0.5-0.3-0.5S18.9,12.9,19.1,13z"/>
	<path class="st5" d="M18.3,11c-0.2,0.2-0.4,0.1-0.4,0.1s-0.2-0.2,0-0.4c0.2-0.2,0.6-0.3,0.6-0.3S18.5,10.9,18.3,11z"/>
	<path class="st5" d="M17.4,10.7c0.1,0.2,0,0.4,0,0.4S17.1,11.2,17,11c-0.1-0.2-0.1-0.6-0.1-0.6S17.3,10.5,17.4,10.7z"/>
	<path class="st2" d="M16.7,8.5c0.2-0.2,0.4,0,0.4,0s0.1,0.3-0.1,0.4c-0.2,0.2-0.7,0.2-0.7,0.2S16.5,8.6,16.7,8.5z"/>
	<path class="st2" d="M18.6,10.2c0.1-0.3,0.5-0.3,0.5-0.3s0.3,0.2,0.2,0.6c-0.1,0.3-0.7,0.6-0.7,0.6S18.5,10.6,18.6,10.2z"/>
	<path class="st2" d="M17.8,9.7c0.2-0.3,0.6-0.2,0.6-0.2s0.3,0.3,0.1,0.6c-0.2,0.3-0.8,0.5-0.8,0.5S17.6,10,17.8,9.7z"/>
	<path class="st2" d="M17.2,9.1C17.4,8.8,17.7,9,17.7,9s0.2,0.3,0,0.5c-0.2,0.2-0.7,0.3-0.7,0.3S17,9.3,17.2,9.1z"/>
	<path class="st2" d="M19.5,10.7c0.1-0.3,0.4-0.4,0.4-0.4s0.3,0.1,0.3,0.5c-0.1,0.3-0.5,0.7-0.5,0.7S19.4,11,19.5,10.7z"/>
	<path class="st5" d="M17.7,19.9c0.3,0,0.3,0.3,0.3,0.3s-0.1,0.3-0.3,0.3c-0.3,0-0.6-0.2-0.6-0.2S17.5,20,17.7,19.9z"/>
	<path class="st3" d="M17.9,20.8c0.2-0.2,0.4,0,0.4,0s0.1,0.3-0.1,0.4c-0.2,0.2-0.7,0.2-0.7,0.2S17.7,20.9,17.9,20.8z"/>
	<path class="st5" d="M17.9,21.4c0.2-0.1,0.4,0.1,0.4,0.1s0.1,0.2-0.1,0.3c-0.2,0.1-0.6,0-0.6,0S17.7,21.5,17.9,21.4z"/>
	<path class="st5" d="M17.4,20.6c0.2-0.1,0.3,0.1,0.3,0.1s0.1,0.2-0.1,0.3c-0.2,0.1-0.5,0-0.5,0S17.2,20.7,17.4,20.6z"/>
	<path class="st5" d="M18.6,22.1c0.2-0.1,0.4,0,0.4,0s0.1,0.2-0.1,0.4c-0.2,0.1-0.5,0.2-0.5,0.2S18.4,22.3,18.6,22.1z"/>
	<path class="st3" d="M18.5,21.4c0.2-0.2,0.5-0.1,0.5-0.1s0.2,0.3,0,0.5c-0.2,0.2-0.7,0.4-0.7,0.4S18.3,21.6,18.5,21.4z"/>
	<path class="st3" d="M19.2,22c0.1-0.3,0.4-0.3,0.4-0.3s0.3,0.2,0.2,0.5c-0.1,0.3-0.5,0.6-0.5,0.6S19.1,22.3,19.2,22z"/>
	<path class="st3" d="M20,22.3c0-0.3,0.3-0.3,0.3-0.3s0.3,0.1,0.3,0.4c0,0.3-0.4,0.6-0.4,0.6S20,22.6,20,22.3z"/>
	<path class="st5" d="M20.8,22.4c0-0.3,0.3-0.4,0.3-0.4s0.3,0.1,0.3,0.3c0,0.3-0.3,0.7-0.3,0.7S20.9,22.7,20.8,22.4z"/>
	<path class="st5" d="M21.7,22.4c0-0.2,0.2-0.3,0.2-0.3s0.3,0,0.3,0.3c0,0.2-0.2,0.6-0.2,0.6S21.7,22.6,21.7,22.4z"/>
	<path class="st5" d="M21.9,21.1c0,0.2-0.3,0.3-0.3,0.3s-0.2-0.1-0.2-0.3c0-0.2,0.3-0.5,0.3-0.5S21.9,20.9,21.9,21.1z"/>
	<path class="st5" d="M22.5,21.2c0,0.2-0.2,0.2-0.2,0.2s-0.2-0.1-0.2-0.3c0-0.2,0.2-0.4,0.2-0.4S22.5,21,22.5,21.2z"/>
	<path class="st5" d="M21,20.3c0,0.2-0.2,0.2-0.2,0.2s-0.2-0.1-0.2-0.3c0-0.2,0.2-0.4,0.2-0.4S21,20.1,21,20.3z"/>
	<path class="st5" d="M21.6,20.5c0,0.1-0.2,0.2-0.2,0.2s-0.1-0.1-0.1-0.2c0-0.1,0.2-0.3,0.2-0.3S21.6,20.3,21.6,20.5z"/>
	<path class="st5" d="M18.6,19.7c0,0.2-0.2,0.3-0.2,0.3S18,20,18,19.7c0-0.2,0.2-0.6,0.2-0.6S18.5,19.4,18.6,19.7z"/>
	<path class="st5" d="M19.1,20.3c-0.1,0.2-0.4,0.1-0.4,0.1s-0.2-0.2-0.1-0.4c0.1-0.2,0.5-0.4,0.5-0.4S19.2,20.1,19.1,20.3z"/>
	<path class="st5" d="M19.7,20.6c-0.1,0.2-0.4,0.1-0.4,0.1s-0.2-0.2-0.1-0.4c0.1-0.2,0.6-0.4,0.6-0.4S19.9,20.4,19.7,20.6z"/>
	<path class="st2" d="M20.4,20.9c-0.1,0.3-0.4,0.2-0.4,0.2s-0.3-0.2-0.2-0.4c0.1-0.3,0.5-0.5,0.5-0.5S20.5,20.6,20.4,20.9z"/>
	<path class="st2" d="M19.7,19.7c-0.1,0.2-0.3,0.2-0.3,0.2s-0.2-0.1-0.1-0.3c0.1-0.2,0.4-0.4,0.4-0.4S19.8,19.5,19.7,19.7z"/>
	<path class="st2" d="M20.4,20c-0.1,0.2-0.3,0.2-0.3,0.2s-0.2-0.1-0.1-0.3c0.1-0.2,0.4-0.4,0.4-0.4S20.4,19.8,20.4,20z"/>
	<path class="st2" d="M18.9,19.6c-0.1,0.1-0.3,0-0.3,0s-0.1-0.2,0.1-0.3c0.1-0.1,0.4-0.1,0.4-0.1S19.1,19.5,18.9,19.6z"/>
	<path class="st2" d="M21.2,21.1c-0.1,0.3-0.4,0.2-0.4,0.2s-0.3-0.2-0.2-0.4c0.1-0.3,0.5-0.5,0.5-0.5S21.3,20.8,21.2,21.1z"/>
	<path class="st5" d="M27.5,7.4c-0.1,0.3-0.4,0.3-0.4,0.3s-0.3-0.2-0.2-0.5c0.1-0.3,0.5-0.6,0.5-0.6S27.6,7.1,27.5,7.4z"/>
	<path class="st3" d="M28.1,12.5c-0.2,0.2-0.5-0.1-0.5-0.1s-0.1-0.3,0.1-0.5c0.2-0.2,0.7-0.1,0.7-0.1S28.4,12.3,28.1,12.5z"/>
	<path class="st3" d="M27.9,11.7c-0.3,0-0.4-0.3-0.4-0.3s0-0.3,0.3-0.3c0.3,0,0.7,0.2,0.7,0.2S28.2,11.7,27.9,11.7z"/>
	<path class="st3" d="M27.6,11c-0.3,0.1-0.4-0.2-0.4-0.2s0-0.3,0.2-0.4c0.3-0.1,0.7,0.1,0.7,0.1S27.9,10.9,27.6,11z"/>
	<path class="st5" d="M26.8,7.6c0.1,0.3-0.2,0.5-0.2,0.5s-0.3,0-0.4-0.2c-0.1-0.3,0.1-0.8,0.1-0.8S26.7,7.3,26.8,7.6z"/>
	<path class="st5" d="M25.8,10.1c0.4,0,0.5,0.4,0.5,0.4s-0.1,0.4-0.5,0.4c-0.4,0-0.8-0.4-0.8-0.4S25.4,10.1,25.8,10.1z"/>
	<path class="st5" d="M25.8,9c0.4,0.1,0.4,0.5,0.4,0.5S26,9.9,25.6,9.8c-0.4-0.1-0.8-0.6-0.8-0.6S25.4,9,25.8,9z"/>
	<path class="st5" d="M26.2,8.2c0.3,0.2,0.2,0.5,0.2,0.5s-0.2,0.2-0.5,0.1c-0.3-0.2-0.4-0.7-0.4-0.7S25.9,8,26.2,8.2z"/>
	<path class="st3" d="M27.3,7.8c-0.2,0.1-0.1,0.3-0.1,0.3s0.2,0.2,0.4,0.1c0.2-0.1,0.3-0.5,0.3-0.5S27.5,7.7,27.3,7.8z"/>
	<path class="st5" d="M27.9,10.1c-0.2,0.1-0.1,0.3-0.1,0.3s0.1,0.1,0.3,0c0.2-0.1,0.3-0.4,0.3-0.4S28.1,10,27.9,10.1z"/>
	<path class="st3" d="M27.2,9.8c-0.3,0-0.3,0.3-0.3,0.3s0.1,0.3,0.4,0.3c0.3,0,0.6-0.3,0.6-0.3S27.5,9.8,27.2,9.8z"/>
	<path class="st3" d="M27.1,9.1c-0.2,0-0.4,0.2-0.4,0.2s0,0.3,0.3,0.3c0.2,0,0.6-0.2,0.6-0.2S27.4,9.2,27.1,9.1z"/>
	<path class="st3" d="M27.2,8.4c-0.2,0-0.3,0.3-0.3,0.3s0.1,0.3,0.3,0.3c0.2,0,0.6-0.3,0.6-0.3S27.4,8.4,27.2,8.4z"/>
	<path class="st5" d="M36.1,15.4c-0.2,0-0.2-0.2-0.2-0.2s0.1-0.2,0.3-0.2c0.2,0,0.4,0.2,0.4,0.2S36.3,15.4,36.1,15.4z"/>
	<path class="st5" d="M36,14.8c-0.2,0-0.2-0.2-0.2-0.2s0.1-0.2,0.2-0.1c0.2,0,0.3,0.2,0.3,0.2S36.2,14.8,36,14.8z"/>
	<path class="st5" d="M36.1,14.2c-0.1,0-0.2-0.1-0.2-0.1s0-0.2,0.1-0.2c0.1,0,0.4,0.1,0.4,0.1S36.2,14.2,36.1,14.2z"/>
	<path class="st5" d="M36,16.1c-0.2-0.1-0.2-0.4-0.2-0.4s0.2-0.2,0.4-0.1c0.2,0.1,0.5,0.5,0.5,0.5S36.2,16.2,36,16.1z"/>
	<path class="st5" d="M26,11c0.3-0.1,0.5,0.1,0.5,0.1s0.1,0.4-0.2,0.5c-0.3,0.1-0.8,0-0.8,0S25.7,11.1,26,11z"/>
	<path class="st5" d="M35.7,16.7c-0.2-0.1-0.1-0.4-0.1-0.4s0.2-0.2,0.4-0.1c0.2,0.1,0.4,0.5,0.4,0.5S35.9,16.9,35.7,16.7z"/>
	<path class="st5" d="M35.3,17.3c-0.2-0.2-0.1-0.4-0.1-0.4s0.2-0.1,0.4,0c0.2,0.2,0.2,0.6,0.2,0.6S35.5,17.5,35.3,17.3z"/>
	<path class="st5" d="M34.8,17.9c-0.1-0.2,0.1-0.4,0.1-0.4s0.3-0.1,0.4,0.1c0.1,0.2,0.1,0.6,0.1,0.6S34.9,18.2,34.8,17.9z"/>
	<path class="st3" d="M16.5,7.5C16.3,7.8,16,7.7,16,7.7S15.8,7.5,16,7.2c0.1-0.2,0.6-0.4,0.6-0.4S16.6,7.3,16.5,7.5z"/>
	<path class="st5" d="M26.4,11.7c0.3,0,0.4,0.2,0.4,0.2s0,0.3-0.3,0.3c-0.3,0-0.7-0.2-0.7-0.2S26.2,11.8,26.4,11.7z"/>
	<path class="st2" d="M25.3,8.4c0.3,0,0.3,0.3,0.3,0.3S25.5,9.1,25.2,9c-0.3,0-0.6-0.4-0.6-0.4S25,8.4,25.3,8.4z"/>
	<path class="st2" d="M25.2,10.8c0.3,0,0.3,0.3,0.3,0.3s-0.1,0.3-0.3,0.3c-0.3,0-0.6-0.3-0.6-0.3S24.9,10.8,25.2,10.8z"/>
	<path class="st2" d="M24.3,10.2c0.3,0,0.4,0.3,0.4,0.3s-0.1,0.3-0.4,0.3c-0.3,0-0.7-0.3-0.7-0.3S24,10.2,24.3,10.2z"/>
	<path class="st2" d="M24.9,9.6c0.3,0.1,0.3,0.4,0.3,0.4s-0.1,0.3-0.5,0.3c-0.3-0.1-0.7-0.5-0.7-0.5S24.6,9.5,24.9,9.6z"/>
	<path class="st6" d="M33.1,9.5c-0.2,0-0.3,0.2-0.3,0.2s0,0.3,0.3,0.3c0.2,0,0.6-0.2,0.6-0.2S33.3,9.5,33.1,9.5z"/>
	<path class="st7" d="M31.5,9.9c0.2,0.3,0.6,0.1,0.6,0.1s0.2-0.3,0-0.6C31.8,9.1,31.2,9,31.2,9S31.3,9.6,31.5,9.9z"/>
	<path class="st8" d="M32.9,10.3c-0.3-0.1-0.5,0.1-0.5,0.1s-0.1,0.3,0.2,0.5c0.3,0.1,0.8,0,0.8,0S33.2,10.5,32.9,10.3z"/>
	<path class="st7" d="M32.5,11.2c-0.2-0.2-0.5,0-0.5,0s-0.2,0.3,0.1,0.5c0.2,0.2,0.8,0.3,0.8,0.3S32.7,11.4,32.5,11.2z"/>
	<path class="st8" d="M31.7,11.9c-0.2-0.2-0.5,0-0.5,0s-0.2,0.3,0.1,0.5c0.2,0.2,0.8,0.3,0.8,0.3S32,12.1,31.7,11.9z"/>
	<path class="st6" d="M31.1,12.5c-0.2-0.3-0.5-0.2-0.5-0.2s-0.2,0.2-0.1,0.5c0.2,0.3,0.7,0.5,0.7,0.5S31.2,12.8,31.1,12.5z"/>
	<path class="st9" d="M30.3,13c-0.1-0.3-0.4-0.3-0.4-0.3s-0.3,0.2-0.2,0.5c0.1,0.3,0.5,0.6,0.5,0.6S30.4,13.3,30.3,13z"/>
	<path class="st2" d="M32.6,12.1c-0.2-0.2-0.4,0-0.4,0s-0.1,0.2,0,0.4c0.2,0.2,0.6,0.2,0.6,0.2S32.7,12.2,32.6,12.1z"/>
	<path class="st2" d="M33.2,11.1c-0.2-0.1-0.4,0.1-0.4,0.1s0,0.3,0.2,0.4c0.2,0.1,0.7,0,0.7,0S33.4,11.2,33.2,11.1z"/>
	<path class="st2" d="M33.3,12.1c-0.1-0.1-0.3,0-0.3,0s-0.1,0.2,0.1,0.3c0.2,0.1,0.5,0.1,0.5,0.1S33.4,12.2,33.3,12.1z"/>
	<path class="st2" d="M31.8,12.7c-0.2-0.2-0.4,0-0.4,0s-0.1,0.2,0,0.4c0.2,0.2,0.6,0.2,0.6,0.2S32,12.9,31.8,12.7z"/>
	<path class="st2" d="M33.6,10.2c-0.2-0.1-0.3,0.1-0.3,0.1s0,0.2,0.2,0.3c0.2,0.1,0.5,0,0.5,0S33.8,10.2,33.6,10.2z"/>
	<path class="st10" d="M31.1,10.7c0.3,0.2,0.6,0,0.6,0s0.1-0.4-0.2-0.6c-0.3-0.2-0.9-0.2-0.9-0.2S30.8,10.5,31.1,10.7z"/>
	<path class="st7" d="M30.2,11.3c0.3,0.3,0.6,0.1,0.6,0.1s0.2-0.3-0.1-0.6c-0.3-0.3-0.9-0.3-0.9-0.3S30,11,30.2,11.3z"/>
	<path class="st8" d="M29.3,11.7c0.1,0.3,0.5,0.3,0.5,0.3s0.3-0.2,0.2-0.5c-0.1-0.3-0.6-0.6-0.6-0.6S29.2,11.4,29.3,11.7z"/>
	<path class="st6" d="M28.5,12c0.1,0.3,0.4,0.3,0.4,0.3s0.3-0.1,0.2-0.4c-0.1-0.3-0.4-0.6-0.4-0.6S28.5,11.7,28.5,12z"/>
	<path class="st8" d="M31.8,8.9c0.2,0.3,0.5,0.2,0.5,0.2s0.3-0.3,0.1-0.5c-0.2-0.3-0.7-0.5-0.7-0.5S31.7,8.7,31.8,8.9z"/>
	<path class="st3" d="M33.8,14c0.2,0.1,0.1,0.4,0.1,0.4s-0.2,0.2-0.4,0c-0.2-0.1-0.3-0.5-0.3-0.5S33.6,13.8,33.8,14z"/>
	<path class="st3" d="M33.4,14.4c0.1,0.2-0.1,0.4-0.1,0.4s-0.3,0.1-0.4-0.2c-0.1-0.2,0-0.6,0-0.6S33.3,14.2,33.4,14.4z"/>
	<path class="st3" d="M32.8,14.9c0,0.3-0.3,0.4-0.3,0.4s-0.3-0.1-0.3-0.3c0-0.3,0.2-0.6,0.2-0.6S32.8,14.6,32.8,14.9z"/>
	<path class="st3" d="M32,15c0.1,0.3-0.2,0.5-0.2,0.5s-0.3,0-0.4-0.3c-0.1-0.3,0.1-0.8,0.1-0.8S31.9,14.7,32,15z"/>
	<path class="st5" d="M31.2,15.4c0.1,0.3-0.1,0.5-0.1,0.5s-0.3,0.1-0.4-0.2c-0.1-0.3,0-0.8,0-0.8S31.1,15.1,31.2,15.4z"/>
	<path class="st2" d="M26.8,6.7c-0.1,0.2-0.3,0.2-0.3,0.2s-0.2-0.1-0.1-0.3c0.1-0.2,0.4-0.4,0.4-0.4S26.9,6.5,26.8,6.7z"/>
	<path class="st2" d="M28.2,7.1c0,0.2-0.2,0.3-0.2,0.3s-0.2,0-0.2-0.3c0-0.2,0.2-0.5,0.2-0.5S28.2,6.9,28.2,7.1z"/>
	<path class="st2" d="M28.8,6.6c0.1,0.2,0,0.4,0,0.4S28.5,7,28.4,6.8c-0.1-0.2-0.1-0.5-0.1-0.5S28.6,6.4,28.8,6.6z"/>
	<path class="st2" d="M25.7,6.2c-0.1,0.2-0.3,0.1-0.3,0.1S25.2,6.2,25.3,6c0.1-0.2,0.4-0.3,0.4-0.3S25.8,6,25.7,6.2z"/>
	<path class="st3" d="M34.2,13.5c0.1,0.2-0.1,0.4-0.1,0.4s-0.2,0.1-0.4-0.1c-0.1-0.2-0.1-0.6-0.1-0.6S34.1,13.3,34.2,13.5z"/>
	<path class="st2" d="M19.2,7.7C19,8,18.7,7.9,18.7,7.9s-0.2-0.2-0.1-0.5c0.2-0.3,0.6-0.4,0.6-0.4S19.3,7.5,19.2,7.7z"/>
	<path class="st5" d="M20.8,11.4c-0.2,0.1-0.2,0.3-0.2,0.3s0.1,0.2,0.4,0.1c0.2-0.1,0.4-0.4,0.4-0.4S21,11.3,20.8,11.4z"/>
	<path class="st5" d="M21.1,11.9c-0.2,0-0.3,0.3-0.3,0.3s0.1,0.2,0.4,0.2c0.2,0,0.5-0.4,0.5-0.4S21.4,11.9,21.1,11.9z"/>
	<path class="st5" d="M21.4,12.6c-0.3-0.1-0.4,0.2-0.4,0.2s0,0.3,0.3,0.4c0.3,0.1,0.7-0.1,0.7-0.1S21.7,12.7,21.4,12.6z"/>
	<path class="st5" d="M21.3,13.3c-0.3-0.1-0.5,0.2-0.5,0.2s0,0.3,0.3,0.4c0.3,0.1,0.8-0.1,0.8-0.1S21.6,13.4,21.3,13.3z"/>
	<path class="st5" d="M21.1,14.2c-0.3-0.1-0.5,0.1-0.5,0.1s-0.1,0.3,0.2,0.5c0.3,0.1,0.8,0.1,0.8,0.1S21.4,14.3,21.1,14.2z"/>
	<path class="st5" d="M21,15c-0.3-0.2-0.5,0.1-0.5,0.1s-0.1,0.3,0.1,0.5c0.3,0.2,0.8,0.1,0.8,0.1S21.2,15.2,21,15z"/>
	<path class="st5" d="M20.3,10.9c-0.1,0.2,0,0.4,0,0.4s0.2,0.1,0.4-0.1c0.1-0.2,0.1-0.6,0.1-0.6S20.4,10.7,20.3,10.9z"/>
	<path class="st5" d="M29.1,10.6c0.1,0.3-0.2,0.5-0.2,0.5s-0.3,0-0.4-0.2c-0.1-0.3,0-0.8,0-0.8S29,10.3,29.1,10.6z"/>
	<path class="st6" d="M29.6,10.1c0.2,0.2-0.1,0.5-0.1,0.5s-0.3,0.1-0.5-0.1C28.9,10.2,29,9.6,29,9.6S29.5,9.8,29.6,10.1z"/>
	<path class="st2" d="M30.1,8.8c0.2,0.1,0,0.4,0,0.4s-0.2,0.1-0.4,0c-0.2-0.1-0.2-0.5-0.2-0.5S29.9,8.6,30.1,8.8z"/>
	<path class="st2" d="M29.5,9.2c0.1,0.2-0.1,0.3-0.1,0.3s-0.2,0-0.3-0.2c-0.1-0.2,0-0.6,0-0.6S29.4,9,29.5,9.2z"/>
	<path class="st5" d="M27.9,9.3c-0.2,0-0.3-0.2-0.3-0.2s0-0.3,0.3-0.3c0.2,0,0.6,0.2,0.6,0.2S28.1,9.3,27.9,9.3z"/>
	<path class="st5" d="M28,8.6c-0.2,0-0.3-0.2-0.3-0.2s0-0.3,0.3-0.3c0.2,0,0.6,0.2,0.6,0.2S28.3,8.6,28,8.6z"/>
	<path class="st5" d="M28,9.9c-0.2,0-0.3-0.2-0.3-0.2s0-0.3,0.3-0.3c0.2,0,0.6,0.2,0.6,0.2S28.3,9.9,28,9.9z"/>
	<path class="st8" d="M30.3,9.6c0.2,0.3,0,0.5,0,0.5s-0.3,0.1-0.5-0.1c-0.2-0.3-0.2-0.8-0.2-0.8S30.1,9.4,30.3,9.6z"/>
	<path class="st8" d="M31,9.1c0.2,0.3,0,0.5,0,0.5s-0.3,0.2-0.5-0.1c-0.2-0.3-0.2-0.8-0.2-0.8S30.8,8.9,31,9.1z"/>
	<path class="st6" d="M31.5,8.4c0.2,0.2,0.1,0.5,0.1,0.5s-0.3,0.2-0.5,0c-0.2-0.2-0.3-0.7-0.3-0.7S31.3,8.2,31.5,8.4z"/>
	<path class="st2" d="M34.2,15.3C34,15.2,34,14.9,34,14.9s0.1-0.2,0.3-0.1c0.2,0.1,0.4,0.4,0.4,0.4S34.4,15.3,34.2,15.3z"/>
	<path class="st2" d="M34.4,14.6c-0.2-0.1-0.2-0.3-0.2-0.3s0.1-0.2,0.3-0.1c0.2,0.1,0.4,0.3,0.4,0.3S34.5,14.7,34.4,14.6z"/>
	<path class="st5" d="M34.6,14.1c-0.2,0-0.2-0.2-0.2-0.2s0-0.2,0.2-0.2c0.2,0,0.5,0.2,0.5,0.2S34.8,14.1,34.6,14.1z"/>
	<path class="st2" d="M33.8,15.8c-0.2-0.1-0.1-0.4-0.1-0.4s0.2-0.2,0.4,0c0.2,0.1,0.3,0.6,0.3,0.6S34,15.9,33.8,15.8z"/>
	<path class="st2" d="M33.3,16.2c-0.2-0.2,0-0.4,0-0.4s0.2-0.1,0.4,0c0.2,0.2,0.2,0.6,0.2,0.6S33.4,16.4,33.3,16.2z"/>
	<path class="st2" d="M32.7,16.4c-0.1-0.2,0.1-0.4,0.1-0.4s0.3-0.1,0.4,0.1c0.1,0.2,0.1,0.6,0.1,0.6S32.8,16.6,32.7,16.4z"/>
	<path class="st2" d="M32,16.6c-0.1-0.2,0.2-0.4,0.2-0.4s0.3,0,0.3,0.2c0.1,0.2-0.1,0.6-0.1,0.6S32.1,16.8,32,16.6z"/>
	<path class="st5" d="M33.3,13.4c0.1,0.2,0,0.3,0,0.3s-0.2,0.1-0.3-0.1c-0.1-0.2-0.1-0.5-0.1-0.5S33.2,13.2,33.3,13.4z"/>
	<path class="st5" d="M32.8,13.6c0.1,0.2-0.1,0.4-0.1,0.4s-0.3,0-0.4-0.2c-0.1-0.2,0-0.6,0-0.6S32.7,13.4,32.8,13.6z"/>
	<path class="st3" d="M34.7,13.2c-0.1,0.2-0.3,0.2-0.3,0.2s-0.2-0.1-0.2-0.3c0.1-0.2,0.4-0.5,0.4-0.5S34.8,13,34.7,13.2z"/>
	<path class="st3" d="M36,13.7c0,0.2-0.2,0.2-0.2,0.2s-0.2-0.1-0.1-0.2c0-0.2,0.3-0.3,0.3-0.3S36,13.5,36,13.7z"/>
	<path class="st5" d="M32.2,14.1c0.1,0.3-0.2,0.4-0.2,0.4s-0.3,0-0.4-0.3c-0.1-0.3,0.2-0.7,0.2-0.7S32.2,13.8,32.2,14.1z"/>
	<path class="st3" d="M35.3,14.3c0.2,0,0.2,0.3,0.2,0.3s-0.1,0.2-0.3,0.2c-0.2,0-0.4-0.3-0.4-0.3S35.1,14.3,35.3,14.3z"/>
	<path class="st3" d="M35.1,14.8c0.2,0.1,0.2,0.3,0.2,0.3s-0.1,0.2-0.3,0.1c-0.2-0.1-0.4-0.3-0.4-0.3S34.9,14.8,35.1,14.8z"/>
	<path class="st3" d="M34.7,14.5c0.2,0,0.1,0.2,0.1,0.2s-0.1,0.2-0.2,0.1c-0.2,0-0.3-0.3-0.3-0.3S34.5,14.4,34.7,14.5z"/>
	<path class="st3" d="M34.4,14.8c0.2,0,0.1,0.2,0.1,0.2s-0.1,0.2-0.2,0.1c-0.2,0-0.3-0.3-0.3-0.3S34.2,14.8,34.4,14.8z"/>
	<path class="st3" d="M34.1,15.2c0.2,0,0.1,0.2,0.1,0.2s-0.1,0.2-0.2,0.1c-0.2,0-0.3-0.3-0.3-0.3S33.9,15.1,34.1,15.2z"/>
	<path class="st3" d="M35,13.9c0.2,0,0.1,0.2,0.1,0.2s-0.1,0.2-0.2,0.1c-0.2,0-0.3-0.3-0.3-0.3S34.8,13.9,35,13.9z"/>
	<path class="st3" d="M34.7,16c0.1,0.2-0.1,0.4-0.1,0.4s-0.3,0.1-0.4-0.1c-0.1-0.2-0.1-0.6-0.1-0.6S34.6,15.8,34.7,16z"/>
	<path class="st3" d="M34.1,16.4c0.2,0.2,0,0.4,0,0.4s-0.2,0.1-0.4-0.1c-0.2-0.2-0.2-0.6-0.2-0.6S34,16.2,34.1,16.4z"/>
	<path class="st3" d="M33.5,16.8c0.1,0.2-0.1,0.4-0.1,0.4s-0.3,0-0.3-0.2c-0.1-0.2,0.1-0.6,0.1-0.6S33.4,16.5,33.5,16.8z"/>
	<path class="st3" d="M34.9,15.4c0.2,0.1,0.1,0.3,0.1,0.3s-0.2,0.2-0.4,0.1c-0.2-0.1-0.3-0.5-0.3-0.5S34.7,15.3,34.9,15.4z"/>
	<path class="st3" d="M35.6,13.8c0.2,0.1,0.1,0.3,0.1,0.3s-0.2,0.1-0.3,0c-0.2-0.1-0.2-0.4-0.2-0.4S35.4,13.7,35.6,13.8z"/>
	<path class="st3" d="M19.6,6.8c0.4,0,0.4,0.4,0.4,0.4s-0.1,0.4-0.5,0.3c-0.4,0-0.8-0.5-0.8-0.5S19.2,6.8,19.6,6.8z"/>
	<path class="st5" d="M18.8,6.1c0.3,0.1,0.3,0.5,0.3,0.5S19,6.9,18.6,6.8C18.3,6.7,18,6.2,18,6.2S18.5,6,18.8,6.1z"/>
	<g>
		<path class="st5" d="M30,7.6c-0.2,0-0.3-0.2-0.3-0.2s0.1-0.2,0.3-0.2c0.2,0,0.5,0.2,0.5,0.2S30.2,7.6,30,7.6z"/>
		<path class="st5" d="M29.7,8.1c-0.2-0.1-0.2-0.3-0.2-0.3s0.1-0.2,0.3-0.1C30,7.7,30.2,8,30.2,8S29.9,8.2,29.7,8.1z"/>
		<path class="st4" d="M28.7,9.2L28.6,9c0,0,0.2-1.2,1.2-1.8c0,0-0.9,0.9-0.9,1.8L28.7,9.2z"/>
		<path class="st3" d="M29,7.3c0.1,0.2,0,0.4,0,0.4s-0.2,0.1-0.4,0c-0.1-0.2-0.2-0.5-0.2-0.5S28.9,7.2,29,7.3z"/>
		<path class="st3" d="M29.5,6.9c0.1,0.2-0.1,0.3-0.1,0.3s-0.2,0.1-0.3-0.1c-0.1-0.2,0-0.5,0-0.5S29.4,6.7,29.5,6.9z"/>
		<path class="st3" d="M28.7,7.9c0.2,0.2,0,0.5,0,0.5s-0.3,0.2-0.5-0.1C28,8.1,28,7.6,28,7.6S28.5,7.6,28.7,7.9z"/>
		<path class="st5" d="M29.4,8.7c-0.3-0.1-0.2-0.4-0.2-0.4s0.2-0.2,0.4-0.2c0.3,0.1,0.5,0.5,0.5,0.5S29.6,8.8,29.4,8.7z"/>
	</g>
	<g>
		<path class="st5" d="M33.9,11.2c0.1,0.1,0.3,0,0.3,0s0.1-0.2,0-0.3c-0.1-0.1-0.4-0.1-0.4-0.1S33.8,11.1,33.9,11.2z"/>
		<path class="st5" d="M33.8,11.7c0.1,0.1,0.3-0.1,0.3-0.1s0-0.2-0.1-0.2c-0.1-0.1-0.4,0-0.4,0S33.7,11.6,33.8,11.7z"/>
		<path class="st4" d="M33.7,12.8l0.2-0.1c0,0,0.5-0.8,0.3-1.6c0,0,0,0.9-0.5,1.4L33.7,12.8z"/>
		<path class="st3" d="M34.5,11.6c-0.2,0-0.2,0.2-0.2,0.2s0.1,0.2,0.2,0.2c0.2,0,0.4-0.2,0.4-0.2S34.7,11.6,34.5,11.6z"/>
		<path class="st3" d="M34.5,11.2c-0.2,0-0.1,0.2-0.1,0.2s0.1,0.1,0.2,0.1c0.2,0,0.3-0.3,0.3-0.3S34.7,11.1,34.5,11.2z"/>
		<path class="st3" d="M34.4,12.1c-0.2,0-0.3,0.3-0.3,0.3s0.1,0.2,0.3,0.2c0.2,0,0.5-0.3,0.5-0.3S34.7,12.1,34.4,12.1z"/>
		<path class="st5" d="M33.6,12.2c0.2,0.1,0.3-0.1,0.3-0.1s0-0.2-0.2-0.3c-0.2-0.1-0.5,0-0.5,0S33.4,12.1,33.6,12.2z"/>
	</g>
	<path class="st11" d="M31.6,8.2c0.1,0.2-0.1,0.4-0.1,0.4s-0.3,0-0.3-0.2c-0.1-0.2,0.1-0.6,0.1-0.6S31.5,8,31.6,8.2z"/>
	<path class="st5" d="M23.8,6.1c0.2,0.1,0.3,0,0.3,0s0.1-0.2-0.1-0.3c-0.2-0.1-0.5-0.1-0.5-0.1S23.6,6,23.8,6.1z"/>
	<path class="st2" d="M23,6.1c0.2,0.1,0.3,0,0.3,0s0.1-0.2-0.1-0.3c-0.2-0.1-0.5-0.1-0.5-0.1S22.8,6,23,6.1z"/>
	<path class="st5" d="M23.7,6.8c0.2,0.1,0.4-0.2,0.4-0.2s0-0.3-0.2-0.3c-0.2-0.1-0.6,0.1-0.6,0.1S23.5,6.8,23.7,6.8z"/>
	<path class="st4" d="M23.8,8.6l0.3-0.1c0,0,0.6-1.3,0.2-2.6c0,0,0.2,1.5-0.4,2.4L23.8,8.6z"/>
	<path class="st3" d="M24.8,6.6c-0.2,0.1-0.3,0.3-0.3,0.3s0.1,0.2,0.4,0.2c0.2-0.1,0.5-0.4,0.5-0.4S25.1,6.5,24.8,6.6z"/>
	<path class="st3" d="M24.7,5.9c-0.2,0.1-0.2,0.3-0.2,0.3s0.1,0.2,0.3,0.1c0.2-0.1,0.4-0.4,0.4-0.4S24.9,5.8,24.7,5.9z"/>
	<path class="st3" d="M24.8,7.3c-0.3,0.1-0.4,0.5-0.4,0.5s0.2,0.3,0.5,0.3c0.3-0.1,0.7-0.5,0.7-0.5S25.1,7.3,24.8,7.3z"/>
	<path class="st5" d="M23.5,7.7C23.8,7.8,24,7.5,24,7.5s0-0.4-0.3-0.4c-0.3-0.1-0.8,0.1-0.8,0.1S23.2,7.6,23.5,7.7z"/>
	<g>
		<path class="st5" d="M29,15.6c-0.1-0.2,0-0.4,0-0.4s0.3-0.1,0.4,0.1c0.1,0.2,0.1,0.6,0.1,0.6S29.1,15.8,29,15.6z"/>
		<path class="st5" d="M28.3,15.6c-0.1-0.2,0.2-0.4,0.2-0.4s0.3,0,0.3,0.2c0.1,0.2-0.1,0.6-0.1,0.6S28.3,15.8,28.3,15.6z"/>
		<path class="st4" d="M25.8,15.7l0.1-0.3c0,0,1.4-0.9,3.3-0.4C29.2,15,27.2,14.8,25.8,15.7L25.8,15.7z"/>
		<path class="st3" d="M28.5,14.4c-0.1,0.2-0.3,0.3-0.3,0.3S28,14.6,28,14.3c0.1-0.2,0.4-0.5,0.4-0.5S28.6,14.2,28.5,14.4z"/>
		<path class="st3" d="M29.3,14.6c-0.1,0.2-0.4,0.2-0.4,0.2s-0.2-0.2-0.1-0.4c0.1-0.2,0.5-0.4,0.5-0.4S29.4,14.3,29.3,14.6z"/>
		<path class="st3" d="M29.7,15c-0.2,0.1-0.4-0.1-0.4-0.1s-0.1-0.3,0.2-0.4c0.2-0.1,0.6,0,0.6,0S30,14.9,29.7,15z"/>
		<path class="st3" d="M27.8,14.5c-0.1,0.3-0.5,0.4-0.5,0.4s-0.3-0.2-0.3-0.5c0.1-0.3,0.5-0.7,0.5-0.7S27.9,14.1,27.8,14.5z"/>
		<path class="st5" d="M27.4,15.8c-0.1-0.3,0.2-0.5,0.2-0.5s0.4,0,0.4,0.3c0.1,0.3-0.1,0.8-0.1,0.8S27.5,16.1,27.4,15.8z"/>
	</g>
	<g>
		<path class="st5" d="M34.1,19.9c-0.1-0.2,0.1-0.4,0.1-0.4s0.2-0.1,0.3,0.1c0.1,0.2,0.1,0.5,0.1,0.5S34.2,20.1,34.1,19.9z"/>
		<path class="st5" d="M33.4,19.9c0-0.2,0.2-0.3,0.2-0.3s0.2,0,0.3,0.2c0,0.2-0.1,0.5-0.1,0.5S33.5,20.1,33.4,19.9z"/>
		<path class="st2" d="M33.4,20.5c0-0.1,0.1-0.2,0.1-0.2s0.2,0,0.2,0.2c0,0.1-0.1,0.4-0.1,0.4S33.4,20.6,33.4,20.5z"/>
		<path class="st2" d="M32.7,20.8c-0.1-0.1,0-0.3,0-0.3s0.2-0.1,0.3,0.1c0.1,0.1,0.1,0.4,0.1,0.4S32.8,20.9,32.7,20.8z"/>
		<path class="st4" d="M29.3,21.2V21c-0.2,0.1,2.5-2.4,4.9-1.6c0,0-2.3-0.6-4.8,2.1L29.3,21.2z"/>
		<path class="st3" d="M33.7,18.9c-0.1,0.2-0.3,0.2-0.3,0.2s-0.2-0.1-0.1-0.3c0.1-0.2,0.4-0.4,0.4-0.4S33.8,18.7,33.7,18.9z"/>
		<path class="st5" d="M32.6,18.3c-0.1,0.2-0.3,0.2-0.3,0.2s-0.2-0.1-0.1-0.3c0.1-0.2,0.4-0.4,0.4-0.4S32.7,18.1,32.6,18.3z"/>
		<path class="st5" d="M33.5,18.2c0,0.2-0.2,0.1-0.2,0.1s-0.2-0.1-0.1-0.2c0-0.2,0.3-0.3,0.3-0.3S33.6,18.1,33.5,18.2z"/>
		<path class="st5" d="M34.1,18.4c0,0.1-0.2,0.1-0.2,0.1s-0.1-0.1-0.1-0.2c0-0.1,0.2-0.2,0.2-0.2S34.1,18.3,34.1,18.4z"/>
		<path class="st3" d="M34.3,19.1c-0.1,0.2-0.3,0.1-0.3,0.1s-0.2-0.2-0.1-0.3c0.1-0.2,0.4-0.3,0.4-0.3S34.4,18.9,34.3,19.1z"/>
		<path class="st3" d="M33.1,18.9c-0.1,0.3-0.4,0.3-0.4,0.3s-0.3-0.2-0.2-0.5c0.1-0.3,0.5-0.6,0.5-0.6S33.2,18.6,33.1,18.9z"/>
		<path class="st3" d="M32.3,19c0,0.3-0.3,0.4-0.3,0.4s-0.3-0.1-0.3-0.4c0-0.3,0.3-0.7,0.3-0.7S32.3,18.7,32.3,19z"/>
		<path class="st3" d="M31.5,19.2c0.1,0.3-0.2,0.5-0.2,0.5s-0.3,0-0.4-0.2c-0.1-0.3,0-0.8,0-0.8S31.4,18.9,31.5,19.2z"/>
		<path class="st5" d="M32.7,20c-0.1-0.3,0.2-0.4,0.2-0.4s0.3,0,0.4,0.3c0.1,0.3-0.2,0.7-0.2,0.7S32.8,20.3,32.7,20z"/>
		<path class="st5" d="M32,20.2c-0.1-0.3,0.2-0.4,0.2-0.4s0.3,0,0.4,0.2c0.1,0.3-0.1,0.7-0.1,0.7S32.1,20.5,32,20.2z"/>
		<path class="st5" d="M31.3,20.5c-0.1-0.3,0.2-0.4,0.2-0.4s0.3,0,0.4,0.3c0.1,0.3-0.2,0.7-0.2,0.7S31.4,20.8,31.3,20.5z"/>
	</g>
	<path class="st5" d="M12.4,15.9c0,0.3-0.4,0.4-0.4,0.4s-0.3-0.1-0.3-0.4c0-0.3,0.4-0.7,0.4-0.7S12.5,15.6,12.4,15.9z"/>
	<path class="st5" d="M13.4,16.2c-0.1,0.3-0.4,0.3-0.4,0.3s-0.3-0.2-0.2-0.5c0.1-0.3,0.5-0.6,0.5-0.6S13.4,15.9,13.4,16.2z"/>
	<path class="st5" d="M14.1,17c-0.3,0.2-0.6,0-0.6,0s-0.2-0.4,0.1-0.6c0.3-0.2,0.9-0.2,0.9-0.2S14.4,16.8,14.1,17z"/>
	<g>
		<path class="st5" d="M22.6,13.2c0.1-0.2-0.1-0.4-0.1-0.4s-0.2-0.1-0.3,0.1c-0.1,0.2-0.1,0.5-0.1,0.5S22.5,13.3,22.6,13.2z"/>
		<path class="st5" d="M23.2,13.1c0-0.2-0.2-0.3-0.2-0.3s-0.2,0-0.3,0.2c0,0.2,0.1,0.5,0.1,0.5S23.2,13.3,23.2,13.1z"/>
		<path class="st2" d="M23.3,13.7c0-0.1-0.1-0.2-0.1-0.2s-0.2,0-0.2,0.2c0,0.1,0.1,0.4,0.1,0.4S23.2,13.9,23.3,13.7z"/>
		<path class="st2" d="M23.9,14c0.1-0.1,0-0.3,0-0.3s-0.2-0.1-0.3,0.1c-0.1,0.1-0.1,0.4-0.1,0.4S23.8,14.1,23.9,14z"/>
		<path class="st4" d="M26.5,14v-0.1c0.2,0.1-2-1.8-4.1-1.1c0,0,1.9-0.6,4,1.7L26.5,14z"/>
		<path class="st3" d="M22.9,12.2c0.1,0.2,0.3,0.2,0.3,0.2s0.2-0.1,0.1-0.3c-0.1-0.2-0.4-0.4-0.4-0.4S22.8,12,22.9,12.2z"/>
		<path class="st5" d="M24,11.5c0.1,0.2,0.3,0.2,0.3,0.2s0.2-0.1,0.1-0.3c-0.1-0.2-0.4-0.4-0.4-0.4S24,11.3,24,11.5z"/>
		<path class="st5" d="M23.1,11.5c0,0.2,0.2,0.1,0.2,0.1s0.2-0.1,0.1-0.2c0-0.2-0.3-0.3-0.3-0.3S23.1,11.3,23.1,11.5z"/>
		<path class="st5" d="M22.5,11.7c0,0.1,0.2,0.1,0.2,0.1s0.1-0.1,0.1-0.2c0-0.1-0.2-0.2-0.2-0.2S22.5,11.6,22.5,11.7z"/>
		<path class="st3" d="M22.3,12.3c0.1,0.2,0.3,0.1,0.3,0.1s0.2-0.2,0.1-0.3c-0.1-0.2-0.4-0.3-0.4-0.3S22.2,12.1,22.3,12.3z"/>
		<path class="st3" d="M23.5,12.2c0.1,0.3,0.4,0.3,0.4,0.3s0.3-0.2,0.2-0.5c-0.1-0.3-0.5-0.6-0.5-0.6S23.5,11.9,23.5,12.2z"/>
		<path class="st3" d="M24.4,12.2c0,0.3,0.3,0.4,0.3,0.4s0.3-0.1,0.3-0.4c0-0.3-0.3-0.7-0.3-0.7S24.4,11.9,24.4,12.2z"/>
		<path class="st3" d="M25.1,12.4c-0.1,0.3,0.2,0.5,0.2,0.5s0.3,0,0.4-0.2c0.1-0.3,0-0.8,0-0.8S25.3,12.2,25.1,12.4z"/>
		<path class="st5" d="M23.9,13.2c0.1-0.3-0.2-0.4-0.2-0.4s-0.3,0-0.4,0.3c-0.1,0.3,0.2,0.7,0.2,0.7S23.9,13.5,23.9,13.2z"/>
		<path class="st5" d="M24.6,13.5c0.1-0.3-0.2-0.4-0.2-0.4s-0.3,0-0.4,0.2C24,13.6,24.1,14,24.1,14S24.5,13.8,24.6,13.5z"/>
		<path class="st5" d="M25.3,13.8c0.1-0.3-0.2-0.4-0.2-0.4s-0.3,0-0.4,0.3c-0.1,0.3,0.2,0.7,0.2,0.7S25.2,14.1,25.3,13.8z"/>
	</g>
	<g>
		<path class="st3" d="M23.4,14.7c-0.1,0.2-0.3,0.1-0.3,0.1s-0.2-0.2,0-0.4c0.1-0.2,0.5-0.3,0.5-0.3S23.5,14.5,23.4,14.7z"/>
		<path class="st3" d="M23.6,15.2c-0.2,0.1-0.4,0-0.4,0s-0.1-0.2,0.1-0.3c0.2-0.1,0.5-0.1,0.5-0.1S23.8,15.1,23.6,15.2z"/>
		<path class="st5" d="M24.2,15c-0.1,0.1-0.2,0-0.2,0s-0.1-0.1,0-0.2c0.1-0.1,0.4-0.1,0.4-0.1S24.3,14.9,24.2,15z"/>
		<path class="st5" d="M24.7,15.5c-0.1,0.1-0.2,0.1-0.2,0.1s-0.1-0.1-0.1-0.3c0.1-0.1,0.3-0.3,0.3-0.3S24.8,15.3,24.7,15.5z"/>
		<path class="st4" d="M26.6,18.3l-0.1,0.1c0.2,0.1-3.3-1.2-3.6-3.7c0,0,0.5,2.3,4,3.3L26.6,18.3z"/>
		<path class="st3" d="M22.6,15.4c0.2,0,0.3,0.2,0.3,0.2s0,0.2-0.2,0.3c-0.2,0-0.5-0.1-0.5-0.1S22.4,15.4,22.6,15.4z"/>
		<path class="st5" d="M22.6,16.7c0.2,0,0.3,0.2,0.3,0.2s0,0.2-0.2,0.3c-0.2,0-0.5-0.1-0.5-0.1S22.3,16.7,22.6,16.7z"/>
		<path class="st5" d="M22.1,15.9c0.2,0,0.2,0.1,0.2,0.1s0,0.2-0.2,0.2c-0.2,0-0.4-0.1-0.4-0.1S22,15.9,22.1,15.9z"/>
		<path class="st5" d="M22,15.3c0.1,0,0.2,0.1,0.2,0.1s0,0.1-0.1,0.2c-0.1,0-0.3-0.1-0.3-0.1S21.9,15.3,22,15.3z"/>
		<path class="st3" d="M22.5,14.8c0.2,0,0.3,0.2,0.3,0.2s-0.1,0.2-0.3,0.2C22.3,15.2,22,15,22,15S22.3,14.8,22.5,14.8z"/>
		<path class="st3" d="M22.9,16c0.3-0.1,0.4,0.2,0.4,0.2s0,0.3-0.3,0.4c-0.3,0.1-0.8-0.2-0.8-0.2S22.6,16,22.9,16z"/>
		<path class="st3" d="M23.3,16.7c0.3-0.1,0.5,0.1,0.5,0.1s0.1,0.3-0.2,0.5c-0.3,0.1-0.8,0.1-0.8,0.1S23.1,16.8,23.3,16.7z"/>
		<path class="st3" d="M23.9,17.3c0.2-0.2,0.5-0.1,0.5-0.1s0.2,0.3,0,0.5c-0.2,0.2-0.7,0.3-0.7,0.3S23.7,17.5,23.9,17.3z"/>
		<path class="st3" d="M24,15.8c-0.2,0.2-0.5,0-0.5,0s-0.1-0.3,0.1-0.4c0.2-0.2,0.7-0.2,0.7-0.2S24.3,15.6,24,15.8z"/>
		<path class="st3" d="M24.6,16.4c-0.2,0.2-0.5,0-0.5,0s-0.2-0.3,0-0.5c0.2-0.2,0.7-0.3,0.7-0.3S24.8,16.2,24.6,16.4z"/>
		<path class="st3" d="M25.2,16.8c-0.2,0.2-0.5,0-0.5,0s-0.1-0.3,0.1-0.4c0.2-0.2,0.7-0.2,0.7-0.2S25.4,16.6,25.2,16.8z"/>
	</g>
	<g>
		<path class="st5" d="M17.3,17.3c0.1-0.2,0-0.3,0-0.3s-0.2-0.1-0.3,0.1c-0.1,0.2-0.1,0.5-0.1,0.5S17.3,17.4,17.3,17.3z"/>
		<path class="st5" d="M17.9,17.2c0-0.2-0.1-0.3-0.1-0.3s-0.2,0-0.2,0.2c0,0.2,0.1,0.5,0.1,0.5S17.8,17.4,17.9,17.2z"/>
		<path class="st2" d="M17.9,17.8c0-0.1-0.1-0.2-0.1-0.2s-0.1,0-0.2,0.1c0,0.1,0.1,0.3,0.1,0.3S17.9,17.9,17.9,17.8z"/>
		<path class="st2" d="M18.5,18c0.1-0.1,0-0.2,0-0.2s-0.1-0.1-0.2,0c-0.1,0.1-0.1,0.3-0.1,0.3S18.4,18.1,18.5,18z"/>
		<path class="st4" d="M21.4,18.4v-0.1c0.1,0.1-2.2-2-4.2-1.3c0,0,1.9-0.5,4.1,1.8L21.4,18.4z"/>
		<path class="st3" d="M17.6,16.4c0,0.2,0.3,0.2,0.3,0.2s0.2-0.1,0.1-0.3c0-0.2-0.3-0.4-0.3-0.4S17.6,16.3,17.6,16.4z"/>
		<path class="st5" d="M18.6,15.9c0,0.2,0.3,0.2,0.3,0.2s0.2-0.1,0.1-0.3c0-0.2-0.3-0.4-0.3-0.4S18.5,15.7,18.6,15.9z"/>
		<path class="st5" d="M17.8,15.9C17.9,16,18,16,18,16s0.1-0.1,0.1-0.2c0-0.1-0.2-0.3-0.2-0.3S17.8,15.7,17.8,15.9z"/>
		<path class="st5" d="M17.3,16c0,0.1,0.1,0.1,0.1,0.1s0.1-0.1,0.1-0.2c0-0.1-0.2-0.2-0.2-0.2S17.3,15.9,17.3,16z"/>
		<path class="st3" d="M17.1,16.6c0.1,0.2,0.3,0.1,0.3,0.1s0.1-0.1,0.1-0.3c-0.1-0.2-0.4-0.3-0.4-0.3S17,16.4,17.1,16.6z"/>
		<path class="st3" d="M18.2,16.4c0.1,0.2,0.3,0.2,0.3,0.2s0.2-0.1,0.2-0.4c-0.1-0.2-0.4-0.5-0.4-0.5S18.1,16.2,18.2,16.4z"/>
		<path class="st3" d="M18.9,16.5c0,0.3,0.3,0.3,0.3,0.3s0.3-0.1,0.3-0.3c0-0.3-0.3-0.6-0.3-0.6S18.9,16.2,18.9,16.5z"/>
		<path class="st3" d="M19.6,16.7c-0.1,0.2,0.1,0.4,0.1,0.4s0.3,0,0.4-0.2c0.1-0.2,0-0.7,0-0.7S19.7,16.4,19.6,16.7z"/>
		<path class="st5" d="M18.5,17.3c0-0.2-0.2-0.3-0.2-0.3s-0.3,0-0.3,0.2c0,0.2,0.1,0.6,0.1,0.6S18.4,17.6,18.5,17.3z"/>
		<path class="st5" d="M19.1,17.6c0.1-0.2-0.1-0.4-0.1-0.4s-0.3,0-0.3,0.2c-0.1,0.2,0.1,0.6,0.1,0.6S19,17.8,19.1,17.6z"/>
		<path class="st5" d="M19.7,17.8c0-0.2-0.2-0.3-0.2-0.3s-0.3,0-0.3,0.2c0,0.2,0.1,0.6,0.1,0.6S19.6,18.1,19.7,17.8z"/>
	</g>
	<g>
		<path class="st5" d="M29.7,17.3c-0.2,0-0.3-0.2-0.3-0.2s0.1-0.2,0.3-0.2c0.2,0,0.5,0.2,0.5,0.2S29.9,17.3,29.7,17.3z"/>
		<path class="st5" d="M29.4,17.8c-0.2-0.1-0.2-0.3-0.2-0.3s0.1-0.2,0.3-0.1c0.2,0.1,0.4,0.4,0.4,0.4S29.6,17.9,29.4,17.8z"/>
		<path class="st2" d="M29.9,18.2c-0.1,0-0.1-0.2-0.1-0.2s0.1-0.1,0.2-0.1c0.1,0,0.3,0.3,0.3,0.3S30,18.2,29.9,18.2z"/>
		<path class="st2" d="M29.8,18.9c-0.2,0-0.2-0.1-0.2-0.1s0-0.2,0.2-0.2c0.2,0,0.4,0.1,0.4,0.1S29.9,18.8,29.8,18.9z"/>
		<path class="st4" d="M28.4,22l-0.1-0.1c0,0.2-0.7-3.4,1.2-5c0,0-1.7,1.6-0.7,5.2L28.4,22z"/>
		<path class="st3" d="M28.7,17.1c0.1,0.2,0,0.4,0,0.4s-0.2,0.1-0.4,0c-0.1-0.2-0.2-0.5-0.2-0.5S28.6,16.9,28.7,17.1z"/>
		<path class="st5" d="M27.6,17.7c0.1,0.2,0,0.4,0,0.4s-0.2,0.1-0.4,0c-0.1-0.2-0.2-0.5-0.2-0.5S27.4,17.5,27.6,17.7z"/>
		<path class="st5" d="M28,16.9c0.1,0.1,0,0.3,0,0.3s-0.2,0.1-0.3,0c-0.1-0.1-0.1-0.4-0.1-0.4S27.9,16.8,28,16.9z"/>
		<path class="st5" d="M28.5,16.5c0.1,0.1,0,0.2,0,0.2s-0.1,0.1-0.2,0c-0.1-0.1-0.1-0.3-0.1-0.3S28.4,16.4,28.5,16.5z"/>
		<path class="st3" d="M29.1,16.6c0.1,0.2-0.1,0.4-0.1,0.4s-0.2,0.1-0.3-0.1c-0.1-0.2-0.1-0.5-0.1-0.5S29,16.4,29.1,16.6z"/>
		<path class="st3" d="M28.4,17.6c0.2,0.2,0,0.5,0,0.5s-0.3,0.2-0.5-0.1c-0.2-0.2-0.3-0.7-0.3-0.7S28.2,17.4,28.4,17.6z"/>
		<path class="st3" d="M28,18.4c0.3,0.1,0.2,0.5,0.2,0.5s-0.2,0.2-0.5,0.1c-0.3-0.1-0.5-0.6-0.5-0.6S27.7,18.2,28,18.4z"/>
		<path class="st3" d="M27.8,19.1c0.3,0,0.3,0.4,0.3,0.4s-0.1,0.3-0.4,0.3c-0.3,0-0.6-0.4-0.6-0.4S27.5,19.1,27.8,19.1z"/>
		<path class="st5" d="M29.1,18.5c-0.3-0.1-0.2-0.4-0.2-0.4s0.2-0.3,0.4-0.2c0.3,0.1,0.5,0.5,0.5,0.5S29.4,18.6,29.1,18.5z"/>
		<path class="st5" d="M29,19.2c-0.3-0.1-0.3-0.4-0.3-0.4s0.1-0.3,0.4-0.2c0.3,0.1,0.6,0.4,0.6,0.4S29.2,19.3,29,19.2z"/>
		<path class="st5" d="M28.9,20c-0.3-0.1-0.2-0.4-0.2-0.4s0.2-0.3,0.4-0.2c0.3,0.1,0.5,0.5,0.5,0.5S29.1,20.1,28.9,20z"/>
	</g>
	<g>
		<path class="st5" d="M25.3,21.3c-0.1,0.2-0.4,0.2-0.4,0.2s-0.2-0.2-0.1-0.4c0.1-0.2,0.5-0.4,0.5-0.4S25.4,21,25.3,21.3z"/>
		<path class="st5" d="M25.7,21.9c-0.2,0.2-0.4,0.1-0.4,0.1s-0.2-0.2,0-0.4c0.2-0.2,0.6-0.3,0.6-0.3S25.9,21.7,25.7,21.9z"/>
		<path class="st4" d="M27.5,24l-0.3,0c0,0-1.7-0.8-2.4-2.6c0,0,1,1.8,2.5,2.4L27.5,24z"/>
		<path class="st3" d="M24.7,22.3c0.2-0.1,0.4,0.1,0.4,0.1s0,0.3-0.2,0.4c-0.2,0.1-0.6,0-0.6,0S24.4,22.4,24.7,22.3z"/>
		<path class="st3" d="M24.4,21.6c0.2,0,0.4,0.2,0.4,0.2s0,0.3-0.3,0.3c-0.2,0-0.6-0.2-0.6-0.2S24.1,21.6,24.4,21.6z"/>
		<path class="st3" d="M24.5,20.9c0.2,0.1,0.1,0.4,0.1,0.4s-0.2,0.2-0.4,0.1c-0.2-0.1-0.4-0.5-0.4-0.5S24.3,20.8,24.5,20.9z"/>
		<path class="st3" d="M25.1,22.9c0.3-0.1,0.6,0.2,0.6,0.2s0,0.4-0.3,0.5c-0.3,0.1-0.9,0-0.9,0S24.8,23,25.1,22.9z"/>
		<path class="st5" d="M26.3,22.5c-0.2,0.2-0.5,0.1-0.5,0.1s-0.2-0.3,0-0.5c0.2-0.2,0.8-0.3,0.8-0.3S26.6,22.2,26.3,22.5z"/>
	</g>
	<g>
		<path class="st5" d="M33,21.9c-0.3,0-0.3,0.3-0.3,0.3s0.1,0.3,0.3,0.3c0.3,0,0.6-0.2,0.6-0.2S33.3,21.9,33,21.9z"/>
		<path class="st3" d="M32.9,22.7c-0.2-0.2-0.4,0-0.4,0s-0.1,0.3,0.1,0.4c0.2,0.2,0.7,0.2,0.7,0.2S33.1,22.9,32.9,22.7z"/>
		<path class="st5" d="M32.9,23.4c-0.2-0.1-0.4,0.1-0.4,0.1s-0.1,0.2,0.1,0.3c0.2,0.1,0.6,0,0.6,0S33.1,23.5,32.9,23.4z"/>
		<path class="st5" d="M33.4,22.5c-0.2-0.1-0.3,0.1-0.3,0.1s-0.1,0.2,0.1,0.3c0.2,0.1,0.5,0,0.5,0S33.6,22.6,33.4,22.5z"/>
		<path class="st5" d="M32.2,24.1c-0.2-0.1-0.4,0-0.4,0s-0.1,0.2,0.1,0.4c0.2,0.1,0.5,0.2,0.5,0.2S32.3,24.2,32.2,24.1z"/>
		<path class="st3" d="M32.3,23.4c-0.2-0.2-0.5-0.1-0.5-0.1s-0.2,0.3,0,0.5c0.2,0.2,0.7,0.4,0.7,0.4S32.5,23.6,32.3,23.4z"/>
		<path class="st3" d="M31.6,23.9c-0.1-0.3-0.4-0.3-0.4-0.3s-0.3,0.2-0.2,0.5c0.1,0.3,0.5,0.6,0.5,0.6S31.7,24.3,31.6,23.9z"/>
		<path class="st3" d="M30.7,24.3c0-0.3-0.3-0.3-0.3-0.3s-0.3,0.1-0.3,0.4c0,0.3,0.4,0.6,0.4,0.6S30.8,24.6,30.7,24.3z"/>
		<path class="st5" d="M29.9,24.4c0-0.3-0.3-0.4-0.3-0.4s-0.3,0.1-0.3,0.3c0,0.3,0.3,0.7,0.3,0.7S29.9,24.7,29.9,24.4z"/>
		<path class="st5" d="M29.1,24.3c0-0.2-0.2-0.3-0.2-0.3s-0.3,0-0.3,0.3c0,0.2,0.2,0.6,0.2,0.6S29.1,24.6,29.1,24.3z"/>
		<path class="st5" d="M28.9,23.1c0,0.2,0.3,0.3,0.3,0.3s0.2-0.1,0.2-0.3c0-0.2-0.3-0.5-0.3-0.5S28.8,22.9,28.9,23.1z"/>
		<path class="st5" d="M29.8,22.2c0,0.2,0.2,0.2,0.2,0.2s0.2-0.1,0.2-0.3c0-0.2-0.2-0.4-0.2-0.4S29.8,22,29.8,22.2z"/>
		<path class="st5" d="M29.2,22.4c0,0.1,0.2,0.2,0.2,0.2s0.1-0.1,0.1-0.2c0-0.1-0.2-0.3-0.2-0.3S29.2,22.3,29.2,22.4z"/>
		<path class="st5" d="M32.2,21.7c0,0.2,0.2,0.3,0.2,0.3s0.3-0.1,0.3-0.3c0-0.2-0.2-0.6-0.2-0.6S32.2,21.4,32.2,21.7z"/>
		<path class="st5" d="M31.7,22.2c0.1,0.2,0.4,0.1,0.4,0.1s0.2-0.2,0.1-0.4c-0.1-0.2-0.5-0.4-0.5-0.4S31.5,22,31.7,22.2z"/>
		<path class="st5" d="M31,22.6c0.1,0.2,0.4,0.1,0.4,0.1s0.2-0.2,0.1-0.4c-0.1-0.2-0.6-0.4-0.6-0.4S30.9,22.4,31,22.6z"/>
		<path class="st2" d="M30.3,22.8c0.1,0.3,0.4,0.2,0.4,0.2s0.3-0.2,0.2-0.4c-0.1-0.3-0.5-0.5-0.5-0.5S30.2,22.6,30.3,22.8z"/>
		<path class="st2" d="M31,21.7c0.1,0.2,0.3,0.2,0.3,0.2s0.2-0.1,0.1-0.3c-0.1-0.2-0.4-0.4-0.4-0.4S31,21.5,31,21.7z"/>
		<path class="st2" d="M30.4,22c0.1,0.2,0.3,0.2,0.3,0.2s0.2-0.1,0.1-0.3c-0.1-0.2-0.4-0.4-0.4-0.4S30.3,21.8,30.4,22z"/>
		<path class="st2" d="M31.8,21.6c0.1,0.1,0.3,0,0.3,0s0.1-0.2-0.1-0.3c-0.1-0.1-0.4-0.1-0.4-0.1S31.7,21.5,31.8,21.6z"/>
		<path class="st2" d="M29.6,23c0.1,0.3,0.4,0.2,0.4,0.2s0.3-0.2,0.2-0.4c-0.1-0.3-0.5-0.5-0.5-0.5S29.5,22.8,29.6,23z"/>
	</g>
	<path class="st4" d="M28.1,23.9l0.1,0.1c-0.2,0,3.5,0.1,4.7-2.1c0,0-1.3,1.9-5,1.6L28.1,23.9z"/>
</g>
</svg>
