<svg id="Layer_1" data-name="Layer 1" xmlns="http://www.w3.org/2000/svg" xmlns:xlink="http://www.w3.org/1999/xlink" viewBox="0 0 500 202.3"><defs><style>.cls-1,.cls-4{fill:none;}.cls-2{fill:#fff;}.cls-3{fill:url(#linear-gradient);}.cls-4{stroke:#fff;stroke-linecap:round;stroke-linejoin:round;stroke-width:2.02px;}</style><linearGradient id="linear-gradient" x1="66.21" y1="98.09" x2="81.04" y2="104.6" gradientUnits="userSpaceOnUse"><stop offset="0" stop-color="#f7941d"/><stop offset="0.29" stop-color="#fff"/><stop offset="0.78" stop-color="#fff"/><stop offset="1" stop-color="#f7941d"/></linearGradient></defs><title>ibd_front_logo</title><rect class="cls-1" width="500" height="202.3"/><path class="cls-2" d="M2.3,167.06V143h5v24.1Z" transform="translate(0 0.5)"/><path class="cls-2" d="M11.44,167.06V143h6.81l6.41,16.69h.07V143h4.71v24.1H22.79l-6.58-17.63h-.07v17.63Z" transform="translate(0 0.5)"/><path class="cls-2" d="M33.53,167.06V143H46v3.71H38.57v6.18h7.14v3.71H38.57v10.52Z" transform="translate(0 0.5)"/><path class="cls-2" d="M48.91,167.06V143h5v20.1H61.5v4Z" transform="translate(0 0.5)"/><path class="cls-2" d="M63.36,167.06,70,143h6.64l6.54,24.1H77.92l-1.33-5.34H69.71l-1.37,5.34Zm9.72-19.46H73L70.71,158h4.81Z" transform="translate(0 0.5)"/><path class="cls-2" d="M86,167.06V143h8.11l3.77,16.39H98L102,143h7.85v24.1h-4.91v-18.6h-.07l-4.64,18.6H95.41L91,148.47h-.07v18.6Z" transform="translate(0 0.5)"/><path class="cls-2" d="M113.87,167.06V143H122l3.77,16.39h.07l4-16.39h7.85v24.1h-4.91v-18.6h-.07l-4.64,18.6h-4.81l-4.41-18.6h-.07v18.6Z" transform="translate(0 0.5)"/><path class="cls-2" d="M140.5,167.06l6.68-24.1h6.64l6.54,24.1h-5.31l-1.34-5.34h-6.88l-1.37,5.34Zm9.72-19.46h-.07L147.84,158h4.81Z" transform="translate(0 0.5)"/><path class="cls-2" d="M175.79,143v4h-5.61v20.1h-5V147h-5.61v-4Z" transform="translate(0 0.5)"/><path class="cls-2" d="M178.16,155c0-6.38,0-12.45,8.31-12.45s8.31,6.08,8.31,12.45,0,12.45-8.31,12.45S178.16,161.32,178.16,155Zm11.52,0c0-6.18-.37-8.85-3.21-8.85s-3.21,2.67-3.21,8.85.37,8.85,3.21,8.85S189.68,161.19,189.68,155Z" transform="translate(0 0.5)"/><path class="cls-2" d="M203.62,167.06h-5V143h9.31c3.44,0,5.64,2.2,5.64,6.31,0,3.07-1.2,5.37-4.47,5.91v.07c1.1.13,4.37.4,4.37,4.74,0,1.54.1,6.08.57,7.08h-4.94a11.06,11.06,0,0,1-.53-4.67c0-2.87.27-5.31-3.61-5.31h-1.3Zm0-13.69h2.24c2,0,2.57-2,2.57-3.54,0-2.3-1-3.17-2.57-3.17h-2.24Z" transform="translate(0 0.5)"/><path class="cls-2" d="M221.62,158.71,215.31,143h5.51l3.61,10.18L228.27,143h5.14l-6.74,15.76v8.35h-5Z" transform="translate(0 0.5)"/><path class="cls-2" d="M243.22,167.06V143h8.95c3.84,0,7,1.1,7,6.24,0,2.77-1.37,4.77-4.11,5.31v.07c3.57.5,4.51,2.8,4.51,6.11,0,6.11-5.31,6.38-7.45,6.38Zm5-14.26h3.37c1.1,0,2.64-.73,2.64-3.07a2.89,2.89,0,0,0-2.9-3.07h-3.1Zm0,10.55h2.8c1.07,0,3.47,0,3.47-3.41,0-2.14-.8-3.44-3.34-3.44h-2.94Z" transform="translate(0 0.5)"/><path class="cls-2" d="M263,155c0-6.38,0-12.45,8.31-12.45s8.31,6.08,8.31,12.45,0,12.45-8.31,12.45S263,161.32,263,155Zm11.52,0c0-6.18-.37-8.85-3.21-8.85s-3.21,2.67-3.21,8.85.37,8.85,3.21,8.85S274.53,161.19,274.53,155Z" transform="translate(0 0.5)"/><path class="cls-2" d="M281.49,143h5.17l3.14,16.93h.07L293.67,143h5.94l3.61,16.93h.07l3-16.93h4.94l-5.34,24.1h-5.58l-3.77-17.63h-.07l-4.17,17.63h-5.47Z" transform="translate(0 0.5)"/><path class="cls-2" d="M314,167.06V143h13.15v3.71H319v5.94h7.48v3.71H319v7h8.38v3.71Z" transform="translate(0 0.5)"/><path class="cls-2" d="M330.67,167.06V143h5v20.1h7.54v4Z" transform="translate(0 0.5)"/><path class="cls-2" d="M353,143h8.41c6.61,0,7.85,4.41,7.85,11.92,0,3.71.57,12.19-8,12.19H353Zm5,20.4h2.44c3.07,0,3.67-2.3,3.67-8.35,0-4.44,0-8.35-3.5-8.35H358Z" transform="translate(0 0.5)"/><path class="cls-2" d="M372.92,167.06V143h5v24.1Z" transform="translate(0 0.5)"/><path class="cls-2" d="M388.54,167.46c-6.24,0-7.41-3.67-7.15-7.85h5c0,2.3.1,4.24,2.87,4.24,1.7,0,2.54-1.1,2.54-2.74,0-4.34-10.15-4.61-10.15-11.79,0-3.77,1.8-6.78,7.95-6.78,4.91,0,7.34,2.2,7,7.24h-4.91c0-1.8-.3-3.64-2.34-3.64a2.35,2.35,0,0,0-2.6,2.57c0,4.57,10.15,4.17,10.15,11.75C397,166.73,392.38,167.46,388.54,167.46Z" transform="translate(0 0.5)"/><path class="cls-2" d="M400.38,167.06V143h13.15v3.71h-8.11v5.94h7.48v3.71h-7.48v7h8.38v3.71Z" transform="translate(0 0.5)"/><path class="cls-2" d="M416.18,167.06l6.68-24.1h6.64l6.54,24.1h-5.31l-1.33-5.34h-6.88l-1.37,5.34Zm9.71-19.46h-.07L423.52,158h4.81Z" transform="translate(0 0.5)"/><path class="cls-2" d="M445.16,167.46c-6.24,0-7.41-3.67-7.15-7.85h5c0,2.3.1,4.24,2.87,4.24,1.7,0,2.54-1.1,2.54-2.74,0-4.34-10.15-4.61-10.15-11.79,0-3.77,1.8-6.78,7.95-6.78,4.91,0,7.34,2.2,7,7.24h-4.91c0-1.8-.3-3.64-2.34-3.64a2.35,2.35,0,0,0-2.6,2.57c0,4.57,10.15,4.17,10.15,11.75C453.58,166.73,449,167.46,445.16,167.46Z" transform="translate(0 0.5)"/><path class="cls-2" d="M457,167.06V143h13.15v3.71H462v5.94h7.48v3.71H462v7h8.38v3.71Z" transform="translate(0 0.5)"/><path class="cls-2" d="M2.8,200.23V176.12H4.94v11.05H5l8.55-11.05h2.57l-9,11.25,9.28,12.85H13.72L5,187.88H4.94v12.35Z" transform="translate(0 0.5)"/><path class="cls-2" d="M19.68,200.23V176.12h3.27l9.78,21.17.07-.07v-21.1h2.14v24.11H31.69l-9.82-21.4-.07.07v21.33Z" transform="translate(0 0.5)"/><path class="cls-2" d="M46.39,175.66c7.21,0,7.28,6,7.28,12.52s-.07,12.52-7.28,12.52-7.28-6-7.28-12.52S39.17,175.66,46.39,175.66Zm0,23.24c5.07,0,5.14-4.31,5.14-10.72s-.07-10.72-5.14-10.72-5.14,4.31-5.14,10.72S41.31,198.89,46.39,198.89Z" transform="translate(0 0.5)"/><path class="cls-2" d="M68,176.12h2.87l4.84,21.13h.07l5.14-21.13H83l-6,24.11h-2.8l-4.84-21.43h-.07l-5,21.43H61.64l-5.81-24.11H58.1L63,197.42H63Z" transform="translate(0 0.5)"/><path class="cls-2" d="M86,200.23V176.12h2.14v22.3h8v1.8Z" transform="translate(0 0.5)"/><path class="cls-2" d="M110.38,176.12v1.8H101.6v9H110v1.8H101.6v9.68h9v1.8H99.46V176.12Z" transform="translate(0 0.5)"/><path class="cls-2" d="M114.17,176.12h6.38c6.74,0,7.58,3.94,7.58,12.15,0,8-1.17,12-8.45,12h-5.51Zm2.14,22.3h2.6c6.44,0,7.08-1.74,7.08-11.58,0-6.91-.94-8.92-6.88-8.92h-2.8Z" transform="translate(0 0.5)"/><path class="cls-2" d="M143.7,189.44h-4.87v-1.8h7v12.05a22.27,22.27,0,0,1-6.64,1c-7.85,0-7.28-7.85-7.28-12.52s-.57-12.52,7.28-12.52c4.61,0,7,2,6.88,6.64h-2.14c0-3.17-1.37-4.84-4.74-4.84-5.21,0-5.14,4.64-5.14,10.72s-.07,10.72,5.14,10.72a12.88,12.88,0,0,0,4.51-.7Z" transform="translate(0 0.5)"/><path class="cls-2" d="M161.25,176.12v1.8h-8.78v9h8.38v1.8h-8.38v9.68h9v1.8H150.33V176.12Z" transform="translate(0 0.5)"/><path class="cls-2" d="M172.2,176.12h6.61c2,0,5.31.27,5.31,5.84,0,4.84-1.57,7-5.71,7h-4.07v11.22H172.2Zm2.14,11.08h4c2.24,0,3.67-1.07,3.67-4.84,0-4.11-1.77-4.44-3.71-4.44h-3.94Z" transform="translate(0 0.5)"/><path class="cls-2" d="M194.46,175.66c7.21,0,7.28,6,7.28,12.52s-.07,12.52-7.28,12.52-7.28-6-7.28-12.52S187.25,175.66,194.46,175.66Zm0,23.24c5.07,0,5.14-4.31,5.14-10.72s-.07-10.72-5.14-10.72-5.14,4.31-5.14,10.72S189.39,198.89,194.46,198.89Z" transform="translate(0 0.5)"/><path class="cls-2" d="M207.91,188.54v11.69h-2.14V176.12h6.64c4.64,0,5.81,1.54,5.81,5.78,0,3-.5,5-3.74,5.74v.07c3.37.7,3.57,1.1,3.57,9.72,0,.93.17,1.87.23,2.8h-2a60.09,60.09,0,0,1-.33-6c0-1,.67-5.68-4-5.68Zm0-1.8h3.47c3.21,0,4.71-.83,4.71-4.87,0-3.31-1.3-3.94-3.81-3.94h-4.37Z" transform="translate(0 0.5)"/><path class="cls-2" d="M226.78,177.93h-5.88v-1.8h13.89v1.8h-5.88v22.3h-2.14Z" transform="translate(0 0.5)"/><path class="cls-2" d="M244.1,176.12l7.51,24.11h-2.24l-1.94-6.34H238l-1.9,6.34H234l7.61-24.11Zm2.77,16-4.11-13.62h-.07l-4.07,13.62Z" transform="translate(0 0.5)"/><path class="cls-2" d="M254.72,200.23V176.12h2.14v22.3h8v1.8Z" transform="translate(0 0.5)"/><path class="cls-2" d="M138.65,111.74,76.58,4.22a6.5,6.5,0,0,0-11.26,0L3.25,111.74a6.5,6.5,0,0,0,5.63,9.75H55a5.83,5.83,0,0,1-.29-1.8V79.2L36,111.69a6.15,6.15,0,0,1-8.38,2.24h0a6.15,6.15,0,0,1-2.24-8.38L44,73.27l.75-1.3a18.52,18.52,0,0,1,15.69-8.65H81.48A18.52,18.52,0,0,1,97.17,72l.75,1.3,18.64,32.29a6.15,6.15,0,0,1-2.24,8.38h0a6.15,6.15,0,0,1-8.38-2.24L87.18,79.2v40.49a5.83,5.83,0,0,1-.29,1.8H133A6.5,6.5,0,0,0,138.65,111.74ZM70.48,57.94a12.1,12.1,0,1,1,12.1-12.1A12.1,12.1,0,0,1,70.48,57.94Z" transform="translate(0 0.5)"/><path class="cls-3" d="M82.94,95a2.37,2.37,0,0,0-1.49-2.2v-.38a2.37,2.37,0,1,0-3.08-3.08H78a2.37,2.37,0,0,0-4.4,0H73.2a2.37,2.37,0,0,0-4.4,0h-.38a2.37,2.37,0,0,0-4.4,0h-.38a2.37,2.37,0,1,0-3.08,3.08v.38a2.37,2.37,0,0,0,0,4.4v.38a2.37,2.37,0,0,0,0,4.4v.38a2.37,2.37,0,1,0,1.76,0V102a2.37,2.37,0,0,0,0-4.4V97.2a2.37,2.37,0,0,0,0-4.4v-.38a2.37,2.37,0,0,0,1.32-1.32H64a2.37,2.37,0,0,0,4.4,0h.38a2.37,2.37,0,0,0,4.4,0h.38a2.37,2.37,0,0,0,4.4,0h.38a2.37,2.37,0,0,0,1.32,1.32v.38a2.37,2.37,0,0,0,0,4.4v.38a2.37,2.37,0,0,0,0,4.4v.38a2.37,2.37,0,0,0,0,4.4v.38a2.37,2.37,0,0,0-1.32,1.32H78a2.37,2.37,0,0,0-4.4,0H73.2a2.37,2.37,0,1,0-3.08,3.08v.63a2.37,2.37,0,1,0,1.76,0v-.63a2.38,2.38,0,0,0,1.32-1.32h.38a2.37,2.37,0,0,0,4.4,0h.38a2.37,2.37,0,1,0,3.08-3.08v-.38a2.37,2.37,0,0,0,0-4.4V102a2.37,2.37,0,0,0,0-4.4V97.2A2.37,2.37,0,0,0,82.94,95Z" transform="translate(0 0.5)"/><polyline class="cls-4" points="74.96 105.23 66.61 105.23 66.61 101.95 74.96 101.95 74.96 98.68 66.61 98.68 66.61 95.4 74.96 95.4"/></svg>