<?xml version="1.0" encoding="utf-8"?>
<!-- Generator: Adobe Illustrator 15.0.0, SVG Export Plug-In . SVG Version: 6.00 Build 0)  -->
<!DOCTYPE svg PUBLIC "-//W3C//DTD SVG 1.1//EN" "http://www.w3.org/Graphics/SVG/1.1/DTD/svg11.dtd">
<svg version="1.1" id="Layer_1" xmlns="http://www.w3.org/2000/svg" xmlns:xlink="http://www.w3.org/1999/xlink" x="0px" y="0px"
	 width="2000.5px" height="811.223px" viewBox="-0.5 593.376 2000.5 811.223" enable-background="new -0.5 593.376 2000.5 811.223"
	 xml:space="preserve">
<title>ibd_front_logo</title>
<rect y="595.4" fill="none" width="2000" height="809.199"/>
<path fill="#FCFCFC" d="M11.2,1398.32v-96.44h8.56v44.2H20l34.2-44.2h10.28l-36,45l37.12,51.4H54.88L20,1348.92h-0.24v49.4H11.2z"/>
<path fill="#FCFCFC" d="M78.72,1398.32v-96.44H91.8l39.12,84.68l0.28-0.279v-84.4h8.56v96.44h-13l-39.28-85.601L87.2,1313v85.32
	H78.72z"/>
<path fill="#FCFCFC" d="M185.56,1300.04c28.84,0,29.12,24,29.12,50.08s-0.28,50.08-29.12,50.08c-28.84,0-29.12-24-29.12-50.08
	S156.68,1300.04,185.56,1300.04z M185.56,1393c20.28,0,20.56-17.24,20.56-42.88s-0.28-42.88-20.56-42.88S165,1324.48,165,1350.12
	s0.24,42.84,20.56,42.84V1393z"/>
<path fill="#FCFCFC" d="M272,1301.88h11.48l19.36,84.521h0.28l20.56-84.521H332l-24,96.44h-11.2l-19.36-85.721h-0.28l-20,85.721
	h-10.6l-23.24-96.44h9.08l19.6,85.2l0,0L272,1301.88z"/>
<path fill="#FCFCFC" d="M344,1398.32v-96.44h8.561v89.2h32v7.2L344,1398.32z"/>
<path fill="#FCFCFC" d="M441.52,1301.88v7.2H406.4v36H440v7.2h-33.6V1391h36v7.2H397.84v-96.32H441.52z"/>
<path fill="#FCFCFC" d="M456.68,1301.88H482.2c26.96,0,30.319,15.76,30.319,48.601c0,32-4.68,48-33.8,48h-22.04V1301.88z
	 M465.24,1391.08h10.399c25.761,0,28.32-6.96,28.32-46.32c0-27.64-3.76-35.68-27.521-35.68H465.24V1391.08z"/>
<path fill="#FCFCFC" d="M574.8,1355.16H555.32v-7.2h28v48.2c-8.601,2.668-17.556,4.017-26.561,4c-31.399,0-29.12-31.4-29.12-50.08
	S525.36,1300,556.76,1300c18.44,0,28,8,27.521,26.56h-8.561c0-12.68-5.479-19.359-18.96-19.359c-20.84,0-20.56,18.56-20.56,42.88
	s-0.28,42.88,20.56,42.88c6.133,0.148,12.241-0.8,18.04-2.8V1355.16z"/>
<path fill="#FCFCFC" d="M645,1301.88v7.2h-35.12v36H643.4v7.2H609.88V1391h36v7.2h-44.56v-96.32H645z"/>
<path fill="#FCFCFC" d="M688.8,1301.88h26.44c8,0,21.24,1.08,21.24,23.36c0,19.359-6.28,28-22.841,28h-16.28v44.88h-8.56V1301.88z
	 M697.36,1346.2h16c8.96,0,14.68-4.28,14.68-19.36c0-16.439-7.08-17.76-14.84-17.76h-15.761L697.36,1346.2z"/>
<path fill="#FCFCFC" d="M777.84,1300.04c28.84,0,29.12,24,29.12,50.08s-0.28,50.08-29.12,50.08s-29.12-24-29.12-50.08
	S749,1300.04,777.84,1300.04z M777.84,1393c20.28,0,20.561-17.24,20.561-42.88s-0.28-42.88-20.561-42.88
	c-20.279,0-20.56,17.24-20.56,42.88s0.28,42.84,20.56,42.84V1393z"/>
<path fill="#FCFCFC" d="M831.64,1351.56v46.761h-8.56v-96.44h26.56c18.561,0,23.24,6.16,23.24,23.12c0,12-2,20-14.96,22.96v0.28
	c13.48,2.8,14.28,4.399,14.28,38.88c0,3.72,0.68,7.479,0.92,11.2h-8c-0.84-7.974-1.28-15.983-1.32-24c0-4,2.681-22.721-16-22.721
	L831.64,1351.56z M831.64,1344.36h13.88c12.841,0,18.841-3.32,18.841-19.48c0-13.24-5.2-15.76-15.24-15.76h-17.479L831.64,1344.36z"
	/>
<path fill="#FCFCFC" d="M907.12,1309.12H883.6v-7.2h55.561v7.2H915.64v89.2h-8.56L907.12,1309.12z"/>
<path fill="#FCFCFC" d="M976.4,1301.88l30.039,96.44h-8.959l-7.761-25.36H952l-7.6,25.36H936l30.439-96.44H976.4z M987.48,1365.88
	l-16.44-54.479h-0.28l-16.279,54.479H987.48z"/>
<path fill="#FCFCFC" d="M1018.88,1398.32v-96.44h8.561v89.2h32v7.2L1018.88,1398.32z"/>
<path fill="#FCFCFC" d="M554.6,1044.36L306.32,614.28c-7.177-12.438-23.077-16.702-35.515-9.526
	c-3.957,2.283-7.242,5.569-9.525,9.526L13,1044.36c-7.18,12.436-2.919,28.337,9.517,35.517c3.954,2.282,8.438,3.483,13.003,3.483
	H220c-0.762-2.324-1.153-4.754-1.16-7.2V914.2L144,1044.16c-6.806,11.699-21.784,15.703-33.52,8.96l0,0
	c-11.7-6.806-15.703-21.784-8.96-33.521L176,890.48l3-5.2c13.578-21.559,37.282-34.627,62.76-34.601h84.16
	c25.502,0,49.211,13.116,62.76,34.721l3,5.199l74.561,129.16c6.743,11.736,2.739,26.715-8.96,33.521l0,0
	c-11.735,6.743-26.715,2.739-33.521-8.96L348.72,914.2v161.96c-0.007,2.446-0.397,4.876-1.159,7.2H532
	c14.359,0.046,26.037-11.558,26.083-25.917C558.098,1052.852,556.896,1048.337,554.6,1044.36z M281.92,829.16
	c-26.73,0-48.4-21.67-48.4-48.4s21.669-48.399,48.4-48.399s48.4,21.669,48.4,48.399S308.65,829.16,281.92,829.16L281.92,829.16z"/>
<path fill="#FCFCFC" stroke="#00AEEF" stroke-miterlimit="10" d="M331.76,977.4c-0.001-3.876-2.361-7.361-5.96-8.801v-1.52
	c4.862-1.942,7.229-7.458,5.288-12.32c-1.942-4.862-7.458-7.229-12.32-5.287c-2.412,0.964-4.324,2.875-5.287,5.287H312
	c-1.947-4.859-7.466-7.222-12.326-5.274c-2.405,0.964-4.311,2.87-5.274,5.274h-1.6c-1.947-4.859-7.465-7.222-12.326-5.274
	c-2.405,0.964-4.311,2.87-5.274,5.274h-1.52c-1.947-4.859-7.466-7.222-12.326-5.274c-2.405,0.964-4.311,2.87-5.274,5.274h-1.52
	c-1.942-4.862-7.458-7.229-12.32-5.287c-4.862,1.941-7.229,7.458-5.288,12.32c0.964,2.412,2.875,4.323,5.288,5.287v1.52
	c-4.86,1.947-7.222,7.466-5.274,12.326c0.963,2.405,2.869,4.311,5.274,5.274v1.52c-4.86,1.947-7.222,7.466-5.274,12.326
	c0.963,2.404,2.869,4.311,5.274,5.274v1.52c-4.861,1.944-7.227,7.461-5.283,12.322c1.944,4.861,7.461,7.227,12.322,5.282
	c4.862-1.943,7.227-7.461,5.283-12.322c-0.964-2.409-2.873-4.318-5.283-5.282v-1.439c4.86-1.947,7.222-7.466,5.274-12.326
	c-0.963-2.405-2.869-4.311-5.274-5.274v-1.6c4.86-1.947,7.222-7.466,5.274-12.326c-0.963-2.404-2.869-4.311-5.274-5.274v-1.52
	c2.409-0.964,4.317-2.872,5.28-5.28H256c1.947,4.86,7.466,7.222,12.326,5.274c2.405-0.964,4.311-2.869,5.274-5.274h1.52
	c1.947,4.86,7.465,7.222,12.326,5.274c2.405-0.964,4.311-2.869,5.274-5.274h1.521c1.947,4.86,7.465,7.222,12.325,5.274
	c2.405-0.964,4.312-2.869,5.274-5.274h1.521c0.963,2.408,2.871,4.316,5.279,5.28v1.52c-4.859,1.947-7.222,7.466-5.274,12.326
	c0.964,2.405,2.87,4.311,5.274,5.274v1.52c-4.859,1.947-7.222,7.466-5.274,12.326c0.964,2.404,2.87,4.311,5.274,5.274v1.52
	c-4.859,1.947-7.222,7.466-5.274,12.326c0.964,2.404,2.87,4.311,5.274,5.274v1.52c-2.408,0.964-4.316,2.872-5.279,5.28H312
	c-1.947-4.86-7.466-7.222-12.326-5.274c-2.405,0.964-4.311,2.869-5.274,5.274h-1.6c-1.942-4.862-7.458-7.229-12.32-5.288
	c-4.862,1.942-7.229,7.458-5.288,12.32c0.964,2.412,2.875,4.324,5.288,5.287v2.521c-4.861,1.944-7.226,7.461-5.282,12.322
	s7.461,7.227,12.322,5.282s7.226-7.461,5.282-12.322c-0.963-2.409-2.873-4.318-5.282-5.282v-2.521
	c2.406-0.967,4.313-2.874,5.28-5.279h1.52c1.947,4.859,7.466,7.222,12.326,5.274c2.405-0.964,4.311-2.87,5.274-5.274h1.52
	c1.942,4.862,7.458,7.229,12.32,5.287c4.862-1.941,7.229-7.458,5.288-12.32c-0.964-2.412-2.875-4.323-5.288-5.287v-1.52
	c4.86-1.947,7.222-7.466,5.274-12.326c-0.964-2.405-2.869-4.311-5.274-5.274v-1.439c4.86-1.947,7.222-7.466,5.274-12.326
	c-0.964-2.405-2.869-4.311-5.274-5.274v-1.6C329.375,984.773,331.753,981.286,331.76,977.4z"/>
<polyline fill="#FCFCFC" stroke="#00AEEF" stroke-miterlimit="10" points="299.84,1016.32 266.44,1016.32 266.44,1003.2 
	299.84,1003.2 299.84,990.12 266.44,990.12 266.44,977 299.84,977 "/>
<rect x="14.141" y="1162.652" fill="none" width="1430.928" height="109.495"/>
<text transform="matrix(1 0 0 1 14.1406 1247.8516)" fill="#FCFCFC" font-family="'MyriadPro-Bold'" font-size="120">Variant to Function</text>
</svg>
