<?xml version="1.0" encoding="utf-8"?>
<!-- Generator: Adobe Illustrator 15.0.0, SVG Export Plug-In . SVG Version: 6.00 Build 0)  -->
<!DOCTYPE svg PUBLIC "-//W3C//DTD SVG 1.1//EN" "http://www.w3.org/Graphics/SVG/1.1/DTD/svg11.dtd">
<svg version="1.1" id="Layer_1" xmlns="http://www.w3.org/2000/svg" xmlns:xlink="http://www.w3.org/1999/xlink" x="0px" y="0px"
	 width="2000.5px" height="811.223px" viewBox="0 0 2000.5 811.223" enable-background="new 0 0 2000.5 811.223"
	 xml:space="preserve">
<title>ibd_front_logo</title>
<rect y="595.4" fill="none" width="2000" height="809.198"/>
<path fill="#FCFCFC" d="M11.2,1398.32v-96.44h8.56v44.2H20l34.2-44.2h10.28l-36,45l37.12,51.4H54.88L20,1348.92h-0.24v49.4H11.2
	L11.2,1398.32z"/>
<path fill="#FCFCFC" d="M78.72,1398.32v-96.44H91.8l39.12,84.68l0.28-0.278v-84.4h8.56v96.439h-13l-39.28-85.601L87.2,1313v85.32
	H78.72z"/>
<path fill="#FCFCFC" d="M185.56,1300.04c28.84,0,29.12,24,29.12,50.08s-0.28,50.08-29.12,50.08c-28.84,0-29.12-24-29.12-50.08
	S156.68,1300.04,185.56,1300.04z M185.56,1393c20.28,0,20.56-17.24,20.56-42.88s-0.28-42.88-20.56-42.88S165,1324.48,165,1350.12
	s0.24,42.84,20.56,42.84V1393z"/>
<path fill="#FCFCFC" d="M272,1301.88h11.48l19.36,84.521h0.28l20.56-84.521H332l-24,96.44h-11.2l-19.36-85.721h-0.28l-20,85.721
	h-10.6l-23.24-96.44h9.08l19.6,85.2l0,0L272,1301.88z"/>
<path fill="#FCFCFC" d="M344,1398.32v-96.44h8.561v89.2h32v7.199L344,1398.32z"/>
<path fill="#FCFCFC" d="M441.52,1301.88v7.2H406.4v36H440v7.2h-33.6V1391h36v7.2H397.84v-96.32H441.52z"/>
<path fill="#FCFCFC" d="M456.68,1301.88H482.2c26.96,0,30.319,15.76,30.319,48.601c0,32-4.681,48-33.801,48h-22.04L456.68,1301.88
	L456.68,1301.88z M465.24,1391.08h10.398c25.762,0,28.32-6.96,28.32-46.32c0-27.64-3.76-35.68-27.521-35.68H465.24V1391.08z"/>
<path fill="#FCFCFC" d="M574.8,1355.16H555.32v-7.2h28v48.2c-8.602,2.668-17.557,4.017-26.562,4c-31.398,0-29.12-31.4-29.12-50.08
	S525.36,1300,556.76,1300c18.44,0,28,8,27.521,26.561h-8.562c0-12.681-5.479-19.359-18.96-19.359c-20.84,0-20.56,18.56-20.56,42.88
	s-0.28,42.88,20.56,42.88c6.133,0.148,12.241-0.8,18.04-2.8V1355.16z"/>
<path fill="#FCFCFC" d="M645,1301.88v7.2h-35.12v36H643.4v7.2H609.88V1391h36v7.2h-44.56v-96.32H645z"/>
<path fill="#FCFCFC" d="M688.8,1301.88h26.44c8,0,21.24,1.08,21.24,23.36c0,19.358-6.28,28-22.842,28h-16.279v44.88h-8.561
	L688.8,1301.88L688.8,1301.88z M697.36,1346.2h16c8.96,0,14.68-4.28,14.68-19.36c0-16.438-7.08-17.76-14.84-17.76h-15.761
	L697.36,1346.2z"/>
<path fill="#FCFCFC" d="M777.84,1300.04c28.84,0,29.12,24,29.12,50.08s-0.28,50.08-29.12,50.08s-29.12-24-29.12-50.08
	S749,1300.04,777.84,1300.04z M777.84,1393c20.28,0,20.562-17.24,20.562-42.88s-0.28-42.88-20.562-42.88
	c-20.279,0-20.56,17.24-20.56,42.88s0.28,42.84,20.56,42.84V1393z"/>
<path fill="#FCFCFC" d="M831.64,1351.561v46.761h-8.56v-96.44h26.56c18.562,0,23.24,6.16,23.24,23.12c0,12-2,20-14.96,22.96v0.28
	c13.48,2.8,14.28,4.399,14.28,38.88c0,3.72,0.68,7.479,0.92,11.2h-8c-0.84-7.975-1.28-15.983-1.32-24c0-4,2.681-22.722-16-22.722
	L831.64,1351.561z M831.64,1344.36h13.88c12.842,0,18.842-3.32,18.842-19.48c0-13.24-5.2-15.76-15.24-15.76h-17.479L831.64,1344.36z
	"/>
<path fill="#FCFCFC" d="M907.12,1309.12H883.6v-7.2h55.562v7.2H915.64v89.2h-8.56L907.12,1309.12z"/>
<path fill="#FCFCFC" d="M976.4,1301.88l30.039,96.44h-8.959l-7.762-25.36H952l-7.6,25.36H936l30.439-96.44H976.4L976.4,1301.88z
	 M987.48,1365.88l-16.44-54.479h-0.28l-16.279,54.479H987.48z"/>
<path fill="#FCFCFC" d="M1018.88,1398.32v-96.44h8.562v89.2h32v7.199L1018.88,1398.32z"/>
<rect x="14.141" y="1162.652" fill="none" width="1430.927" height="109.494"/>
<text transform="matrix(1 0 0 1 14.1406 1247.8516)" fill="#FCFCFC" font-family="'MyriadPro-Bold'" font-size="120">Variant to Function</text>
<g>
	<g>
		<path fill="none" stroke="#005ADF" stroke-width="33" stroke-miterlimit="10" d="M451.75,976.111c0-34,31.5-121,119.5-121
			s119.5,77,119.5,121"/>
		<g>
			<polygon fill="#005ADF" points="658.027,966.482 690.931,1023.475 723.84,966.482 			"/>
		</g>
	</g>
</g>
<g>
	<g>
		<path fill="none" stroke="#00409F" stroke-width="27" stroke-miterlimit="10" d="M571.75,948.112
			c0.938,33.987-28.151,121.822-116.118,124.249c-87.967,2.427-121.578-73.675-122.792-117.658"/>
		<g>
			<polygon fill="#00409F" points="359.822,961.84 331.625,915.97 305.995,963.325 			"/>
		</g>
	</g>
</g>
</svg>
