<?xml version="1.0" encoding="utf-8"?>
<!-- Generator: Adobe Illustrator 21.1.0, SVG Export Plug-In . SVG Version: 6.00 Build 0)  -->
<svg version="1.1" id="Layer_1" xmlns="http://www.w3.org/2000/svg" xmlns:xlink="http://www.w3.org/1999/xlink" x="0px" y="0px"
	 viewBox="0 0 400 25" style="enable-background:new 0 0 400 25;" xml:space="preserve">
<style type="text/css">
	.st0{fill:#FFFFFF;}
</style>
<title>ibd_header_logo</title>
<g>
	
		<image style="overflow:visible;opacity:0.5;" width="9" height="19" xlink:href="2D83A59034D2B0A2.png"  transform="matrix(1 0 0 1 0 3.5833)">
	</image>
	<g>
		<rect x="3" y="6.6" class="st0" width="2.7" height="12.7"/>
	</g>
</g>
<g>
	
		<image style="overflow:visible;opacity:0.5;" width="17" height="19" xlink:href="2D83A59034D2B0A6.png"  transform="matrix(1 0 0 1 4 3.5833)">
	</image>
	<g>
		<polygon class="st0" points="7.9,19.3 7.9,6.6 11.5,6.6 14.9,15.4 14.9,15.4 14.9,6.6 17.3,6.6 17.3,19.3 13.9,19.3 10.4,10 
			10.4,10 10.4,19.3 		"/>
	</g>
</g>
<g>
	
		<image style="overflow:visible;opacity:0.5;" width="14" height="19" xlink:href="2D83A59034D2B0A1.png"  transform="matrix(1 0 0 1 16 3.5833)">
	</image>
	<g>
		<polygon class="st0" points="19.6,19.3 19.6,6.6 26.2,6.6 26.2,8.6 22.3,8.6 22.3,11.8 26.1,11.8 26.1,13.8 22.3,13.8 22.3,19.3 
					"/>
	</g>
</g>
<g>
	
		<image style="overflow:visible;opacity:0.5;" width="14" height="19" xlink:href="2D83A59034D2B0A3.png"  transform="matrix(1 0 0 1 24 3.5833)">
	</image>
	<g>
		<polygon class="st0" points="27.8,19.3 27.8,6.6 30.5,6.6 30.5,17.1 34.5,17.1 34.5,19.2 		"/>
	</g>
</g>
<g>
	
		<image style="overflow:visible;opacity:0.5;" width="17" height="19" xlink:href="2D83A59034D2B0A0.png"  transform="matrix(1 0 0 1 32 3.5833)">
	</image>
	<g>
		<path class="st0" d="M35.5,19.3L39,6.6h3.5L46,19.3h-2.8l-0.7-2.8h-3.6l-0.7,2.8H35.5z M40.6,9.1L40.6,9.1l-1.3,5.5h2.6L40.6,9.1z
			"/>
	</g>
</g>
<g>
	
		<image style="overflow:visible;opacity:0.5;" width="20" height="19" xlink:href="2D83A59034D2B0AE.png"  transform="matrix(1 0 0 1 44 3.5833)">
	</image>
	<g>
		<polygon class="st0" points="47.5,19.3 47.5,6.6 51.8,6.6 53.8,15.2 53.8,15.2 55.9,6.6 60,6.6 60,19.3 57.5,19.3 57.5,9.5 
			57.5,9.5 55.1,19.3 52.5,19.3 50.2,9.5 50.2,9.5 50.2,19.3 		"/>
	</g>
</g>
<g>
	
		<image style="overflow:visible;opacity:0.5;" width="19" height="19" xlink:href="2D83A59034D2B0A5.png"  transform="matrix(1 0 0 1 59 3.5833)">
	</image>
	<g>
		<polygon class="st0" points="62.3,19.3 62.3,6.6 66.6,6.6 68.6,15.2 68.6,15.2 70.7,6.6 74.8,6.6 74.8,19.3 72.2,19.3 72.2,9.5 
			72.2,9.5 69.8,19.3 67.2,19.3 64.9,9.5 64.9,9.5 64.9,19.3 		"/>
	</g>
</g>
<g>
	
		<image style="overflow:visible;opacity:0.5;" width="17" height="19" xlink:href="2D83A59034D2B0A7.png"  transform="matrix(1 0 0 1 73 3.5833)">
	</image>
	<g>
		<path class="st0" d="M76.4,19.3l3.5-12.7h3.5l3.4,12.7H84l-0.7-2.8h-3.6L79,19.3H76.4z M81.5,9.1L81.5,9.1l-1.2,5.5h2.5L81.5,9.1z
			"/>
	</g>
</g>
<g>
	
		<image style="overflow:visible;opacity:0.5;" width="16" height="19" xlink:href="2D83A59034D2B0A4.png"  transform="matrix(1 0 0 1 83 3.5833)">
	</image>
	<g>
		<polygon class="st0" points="95.1,6.6 95.1,8.7 92.2,8.7 92.2,19.2 89.5,19.2 89.5,8.7 86.6,8.7 86.6,6.6 		"/>
	</g>
</g>
<g>
	
		<image style="overflow:visible;opacity:0.5;" width="16" height="20" xlink:href="9406EDD7A27387B5.png"  transform="matrix(1 0 0 1 93 2.5833)">
	</image>
	<g>
		<path class="st0" d="M96.5,13c0-3.4,0-6.6,4.4-6.6c4.4,0,4.4,3.2,4.4,6.6s0,6.6-4.4,6.6C96.5,19.5,96.5,16.3,96.5,13z M102.5,13
			c0-3.3-0.2-4.7-1.7-4.7c-1.5,0-1.7,1.4-1.7,4.7s0.2,4.7,1.7,4.7C102.3,17.6,102.5,16.2,102.5,13z"/>
	</g>
</g>
<g>
	
		<image style="overflow:visible;opacity:0.5;" width="15" height="19" xlink:href="9406EDD7A27387CB.png"  transform="matrix(1 0 0 1 104 3.5833)">
	</image>
	<g>
		<path class="st0" d="M110,19.3h-2.7V6.6h4.9c1.8,0,3,1.2,3,3.3c0,1.6-0.6,2.8-2.4,3.2l0,0c1.2,0,2.3,0.9,2.3,2.2
			c0,0.1,0,0.2,0,0.3c0,1.2,0.1,2.5,0.3,3.7h-2.6c-0.3-0.8-0.4-1.6-0.3-2.5c0-1.5,0.1-2.8-1.9-2.8H110V19.3z M110,12.1h1.2
			c1.1,0,1.4-1.1,1.4-1.9c0-1.2-0.5-1.7-1.4-1.7H110V12.1z"/>
	</g>
</g>
<g>
	
		<image style="overflow:visible;opacity:0.5;" width="16" height="19" xlink:href="9406EDD7A27387CD.png"  transform="matrix(1 0 0 1 113 3.5833)">
	</image>
	<g>
		<polygon class="st0" points="119.5,14.9 116.2,6.6 119.1,6.6 121,12 123,6.6 125.7,6.6 122.2,14.9 122.2,19.3 119.5,19.3 		"/>
	</g>
</g>
<g>
	
		<image style="overflow:visible;opacity:0.5;" width="16" height="19" xlink:href="9406EDD7A27387CF.png"  transform="matrix(1 0 0 1 127 3.5833)">
	</image>
	<g>
		<path class="st0" d="M130.9,19.3V6.6h4.7c2,0,3.7,0.6,3.7,3.3c0.1,1.4-0.8,2.6-2.2,2.8l0,0c1.9,0.3,2.4,1.5,2.4,3.2
			c0,3.2-2.8,3.4-3.9,3.4L130.9,19.3z M133.5,11.8h1.8c0.8,0,1.4-0.7,1.4-1.4c0-0.1,0-0.1,0-0.2c0.1-0.8-0.6-1.6-1.4-1.6
			c0,0-0.1,0-0.1,0h-1.6V11.8z M133.5,17.3h1.5c0.9,0.1,1.7-0.4,1.8-1.3c0-0.2,0-0.3,0-0.5c0-1.1-0.4-1.8-1.8-1.8h-1.5V17.3z"/>
	</g>
</g>
<g>
	
		<image style="overflow:visible;opacity:0.5;" width="16" height="20" xlink:href="9406EDD7A27387CC.png"  transform="matrix(1 0 0 1 138 2.5833)">
	</image>
	<g>
		<path class="st0" d="M141.4,13c0-3.4,0-6.6,4.4-6.6s4.4,3.2,4.4,6.6s0,6.6-4.4,6.6S141.4,16.3,141.4,13z M147.5,13
			c0-3.3-0.2-4.7-1.7-4.7s-1.7,1.4-1.7,4.7s0.2,4.7,1.7,4.7S147.5,16.2,147.5,13L147.5,13z"/>
	</g>
</g>
<g>
	
		<image style="overflow:visible;opacity:0.5;" width="22" height="19" xlink:href="9406EDD7A27387D4.png"  transform="matrix(1 0 0 1 148 3.5833)">
	</image>
	<g>
		<polygon class="st0" points="151.3,6.6 154,6.6 155.6,15.5 155.6,15.5 157.6,6.6 160.8,6.6 162.7,15.5 162.7,15.5 164.3,6.6 
			166.9,6.6 164,19.3 161.1,19.3 159.1,10 159.1,10 156.9,19.3 154,19.3 		"/>
	</g>
</g>
<g>
	
		<image style="overflow:visible;opacity:0.5;" width="14" height="19" xlink:href="9406EDD7A27387D5.png"  transform="matrix(1 0 0 1 165 3.5833)">
	</image>
	<g>
		<polygon class="st0" points="168.4,19.3 168.4,6.6 175.4,6.6 175.4,8.6 171.1,8.6 171.1,11.7 175,11.7 175,13.7 171.1,13.7 
			171.1,17.4 175.5,17.4 175.5,19.3 		"/>
	</g>
</g>
<g>
	
		<image style="overflow:visible;opacity:0.5;" width="13" height="19" xlink:href="9406EDD7A27387D7.png"  transform="matrix(1 0 0 1 174 3.5833)">
	</image>
	<g>
		<polygon class="st0" points="177.3,19.3 177.3,6.6 180,6.6 180,17.1 184,17.1 184,19.2 		"/>
	</g>
</g>
<g>
	
		<image style="overflow:visible;opacity:0.5;" width="15" height="19" xlink:href="9406EDD7A27387D3.png"  transform="matrix(1 0 0 1 186 3.5833)">
	</image>
	<g>
		<path class="st0" d="M189.1,6.6h4.4c3.5,0,4.1,2.3,4.1,6.3c0,1.9,0.3,6.4-4.2,6.4h-4.3L189.1,6.6z M191.7,17.4h1.3
			c1.6,0,1.9-1.2,1.9-4.4c0-2.3,0-4.4-1.8-4.4h-1.4L191.7,17.4z"/>
	</g>
</g>
<g>
	
		<image style="overflow:visible;opacity:0.5;" width="10" height="19" xlink:href="9406EDD7A27387DB.png"  transform="matrix(1 0 0 1 196 3.5833)">
	</image>
	<g>
		<rect x="199.7" y="6.6" class="st0" width="2.7" height="12.7"/>
	</g>
</g>
<g>
	
		<image style="overflow:visible;opacity:0.5;" width="15" height="20" xlink:href="9406EDD7A27387F0.png"  transform="matrix(1 0 0 1 201 2.5833)">
	</image>
	<g>
		<path class="st0" d="M208,19.5c-3.3,0-3.9-1.9-3.8-4.1h2.7c0,1.2,0,2.2,1.5,2.2c0.7,0,1.3-0.5,1.3-1.2c0-0.1,0-0.2,0-0.2
			c0-2.3-5.3-2.4-5.3-6.2c0-2,0.9-3.6,4.2-3.6c2.6,0,3.9,1.2,3.7,3.8h-2.6c0-0.9-0.2-1.9-1.2-1.9c-0.7-0.1-1.3,0.4-1.4,1.1
			c0,0.1,0,0.2,0,0.3c0,2.4,5.3,2.2,5.3,6.2C212.5,19.1,210,19.5,208,19.5z"/>
	</g>
</g>
<g>
	
		<image style="overflow:visible;opacity:0.5;" width="14" height="19" xlink:href="9406EDD7A27387F3.png"  transform="matrix(1 0 0 1 211 3.5833)">
	</image>
	<g>
		<polygon class="st0" points="214.3,19.3 214.3,6.6 221.3,6.6 221.3,8.6 217,8.6 217,11.7 220.9,11.7 220.9,13.7 217,13.7 
			217,17.4 221.4,17.4 221.4,19.3 		"/>
	</g>
</g>
<g>
	
		<image style="overflow:visible;opacity:0.5;" width="18" height="19" xlink:href="9406EDD7A27387F1.png"  transform="matrix(1 0 0 1 219 3.5833)">
	</image>
	<g>
		<path class="st0" d="M222.8,19.3l3.5-12.7h3.5l3.4,12.7h-2.8l-0.7-2.8h-3.6l-0.7,2.8H222.8z M227.9,9.1L227.9,9.1l-1.2,5.5h2.5
			L227.9,9.1z"/>
	</g>
</g>
<g>
	
		<image style="overflow:visible;opacity:0.5;" width="15" height="20" xlink:href="9406EDD7A27387FF.png"  transform="matrix(1 0 0 1 231 2.5833)">
	</image>
	<g>
		<path class="st0" d="M238.1,19.5c-3.3,0-3.9-1.9-3.8-4.1h2.7c0,1.2,0,2.2,1.5,2.2c0.7,0,1.3-0.5,1.3-1.2c0-0.1,0-0.1,0-0.2
			c0-2.3-5.3-2.4-5.3-6.2c0-2,0.9-3.6,4.2-3.6c2.6,0,3.9,1.2,3.7,3.8h-2.6c0-0.9-0.2-1.9-1.2-1.9c-0.7-0.1-1.3,0.4-1.4,1.1
			c0,0.1,0,0.2,0,0.3c0,2.4,5.3,2.2,5.3,6.2C242.5,19.1,240.1,19.5,238.1,19.5z"/>
	</g>
</g>
<g>
	
		<image style="overflow:visible;opacity:0.5;" width="14" height="19" xlink:href="9406EDD7A27387F2.png"  transform="matrix(1 0 0 1 241 3.5833)">
	</image>
	<g>
		<polygon class="st0" points="244.5,19.3 244.5,6.6 251.4,6.6 251.4,8.6 247.1,8.6 247.1,11.7 251.1,11.7 251.1,13.7 247.1,13.7 
			247.1,17.4 251.5,17.4 251.5,19.3 		"/>
	</g>
</g>
<g>
	
		<image style="overflow:visible;opacity:0.5;" width="14" height="19" xlink:href="9406EDD7A27387F5.png"  transform="matrix(1 0 0 1 254 3.5833)">
	</image>
	<g>
		<polygon class="st0" points="257.4,19.3 257.4,6.6 258.5,6.6 258.5,12.4 258.5,12.4 263,6.6 264.4,6.6 259.6,12.5 264.5,19.3 
			263.1,19.3 258.5,12.8 258.5,12.8 258.5,19.3 		"/>
	</g>
</g>
<g>
	
		<image style="overflow:visible;opacity:0.5;" width="15" height="19" xlink:href="9406EDD7A27387F6.png"  transform="matrix(1 0 0 1 263 3.5833)">
	</image>
	<g>
		<polygon class="st0" points="266.4,19.3 266.4,6.6 268.1,6.6 273.3,17.8 273.3,17.8 273.3,6.6 274.4,6.6 274.4,19.3 272.7,19.3 
			267.5,8 267.5,8 267.5,19.3 		"/>
	</g>
</g>
<g>
	
		<image style="overflow:visible;opacity:0.5;" width="15" height="20" xlink:href="9406EDD7A27387F7.png"  transform="matrix(1 0 0 1 273 2.5833)">
	</image>
	<g>
		<path class="st0" d="M280.5,6.4c3.8,0,3.8,3.2,3.8,6.6s0,6.6-3.8,6.6c-3.8,0-3.9-3.1-3.9-6.6S276.7,6.4,280.5,6.4z M280.5,18.6
			c2.7,0,2.7-2.3,2.7-5.6s0-5.6-2.7-5.6c-2.7,0-2.7,2.3-2.7,5.6S277.9,18.6,280.5,18.6z"/>
	</g>
</g>
<g>
	
		<image style="overflow:visible;opacity:0.5;" width="21" height="19" xlink:href="9406EDD7A27387CE.png"  transform="matrix(1 0 0 1 282 3.5833)">
	</image>
	<g>
		<polygon class="st0" points="292,6.6 293.5,6.6 296.1,17.7 296.1,17.7 298.8,6.6 299.9,6.6 296.7,19.3 295.3,19.3 292.7,8 
			292.7,8 290.1,19.3 288.7,19.3 285.6,6.6 286.8,6.6 289.4,17.8 289.4,17.8 		"/>
	</g>
</g>
<g>
	
		<image style="overflow:visible;opacity:0.5;" width="12" height="19" xlink:href="9406EDD7A27387C9.png"  transform="matrix(1 0 0 1 298 3.5833)">
	</image>
	<g>
		<polygon class="st0" points="301.6,19.3 301.6,6.6 302.8,6.6 302.8,18.4 307,18.4 307,19.3 		"/>
	</g>
</g>
<g>
	
		<image style="overflow:visible;opacity:0.5;" width="13" height="19" xlink:href="9406EDD7A2738817.png"  transform="matrix(1 0 0 1 305 3.5833)">
	</image>
	<g>
		<polygon class="st0" points="314.6,6.6 314.6,7.6 309.9,7.6 309.9,12.3 314.4,12.3 314.4,13.3 309.9,13.3 309.9,18.4 314.7,18.4 
			314.7,19.3 308.8,19.3 308.8,6.6 		"/>
	</g>
</g>
<g>
	
		<image style="overflow:visible;opacity:0.5;" width="15" height="19" xlink:href="9406EDD7A2738815.png"  transform="matrix(1 0 0 1 313 3.5833)">
	</image>
	<g>
		<path class="st0" d="M316.7,6.6h3.4c3.5,0,4,2.1,4,6.4s-0.6,6.3-4.4,6.3h-2.9V6.6z M317.7,18.4h1.4c3.4,0,3.7-0.9,3.7-6.1
			c0-3.6-0.5-4.7-3.6-4.7h-1.5V18.4z"/>
	</g>
</g>
<g>
	
		<image style="overflow:visible;opacity:0.5;" width="14" height="20" xlink:href="9406EDD7A273882B.png"  transform="matrix(1 0 0 1 323 2.5833)">
	</image>
	<g>
		<path class="st0" d="M332.3,13.6h-2.6v-0.9h3.7V19c-1.1,0.4-2.3,0.5-3.5,0.5c-4.1,0-3.8-4.1-3.8-6.6s-0.3-6.6,3.8-6.6
			c2.4,0,3.7,1.1,3.6,3.5h-1.1c0-1.7-0.7-2.5-2.5-2.5c-2.7,0-2.7,2.5-2.7,5.7s0,5.6,2.7,5.6c0.8,0,1.6-0.1,2.4-0.4L332.3,13.6z"/>
	</g>
</g>
<g>
	
		<image style="overflow:visible;opacity:0.5;" width="13" height="19" xlink:href="9406EDD7A273882D.png"  transform="matrix(1 0 0 1 332 3.5833)">
	</image>
	<g>
		<polygon class="st0" points="341.6,6.6 341.6,7.6 337,7.6 337,12.3 341.4,12.3 341.4,13.3 337,13.3 337,18.4 341.8,18.4 
			341.8,19.3 335.9,19.3 335.9,6.6 		"/>
	</g>
</g>
<g>
	
		<image style="overflow:visible;opacity:0.5;" width="13" height="19" xlink:href="9406EDD7A273882F.png"  transform="matrix(1 0 0 1 344 3.5833)">
	</image>
	<g>
		<path class="st0" d="M347.4,6.6h3.5c1.1,0,2.8,0.1,2.8,3.1c0,2.5-0.8,3.7-3,3.7h-2.1v5.9h-1.1L347.4,6.6z M348.5,12.4h2.1
			c1.2,0,1.9-0.6,1.9-2.5c0-2.2-0.9-2.3-1.9-2.3h-2.1L348.5,12.4z"/>
	</g>
</g>
<g>
	
		<image style="overflow:visible;opacity:0.5;" width="15" height="20" xlink:href="9406EDD7A273882A.png"  transform="matrix(1 0 0 1 352 2.5833)">
	</image>
	<g>
		<path class="st0" d="M359.2,6.4c3.8,0,3.8,3.2,3.8,6.6s-0.1,6.6-3.8,6.6c-3.8,0-3.8-3.2-3.8-6.6S355.4,6.4,359.2,6.4z M359.2,18.6
			c2.7,0,2.7-2.3,2.7-5.6s0-5.6-2.7-5.6c-2.7,0-2.7,2.3-2.7,5.6S356.5,18.6,359.2,18.6z"/>
	</g>
</g>
<g>
	
		<image style="overflow:visible;opacity:0.5;" width="13" height="19" xlink:href="9406EDD7A2738829.png"  transform="matrix(1 0 0 1 362 3.5833)">
	</image>
	<g>
		<path class="st0" d="M366.4,13.2v6.1h-1.1V6.6h3.5c2.4,0,3.1,0.8,3.1,3c0,1.6-0.3,2.6-2,3l0,0c1.8,0.4,1.9,0.6,1.9,5.1
			c0,0.5,0.1,1,0.1,1.5h-1.1c-0.1-1-0.2-2.1-0.2-3.2c0-0.5,0.3-3-2.1-3L366.4,13.2z M366.4,12.2h1.9c1.7,0,2.5-0.4,2.5-2.6
			c0-1.7-0.7-2.1-2-2.1h-2.3L366.4,12.2z"/>
	</g>
</g>
<g>
	
		<image style="overflow:visible;opacity:0.5;" width="14" height="19" xlink:href="9406EDD7A2738835.png"  transform="matrix(1 0 0 1 370 3.5833)">
	</image>
	<g>
		<polygon class="st0" points="376.4,7.6 373.3,7.6 373.3,6.6 380.6,6.6 380.6,7.6 377.6,7.6 377.6,19.3 376.4,19.3 		"/>
	</g>
</g>
<g>
	
		<image style="overflow:visible;opacity:0.5;" width="16" height="19" xlink:href="9406EDD7A2738837.png"  transform="matrix(1 0 0 1 377 3.5833)">
	</image>
	<g>
		<path class="st0" d="M385.7,6.6l4,12.7h-1.2l-1.1-3.3h-5l-1.1,3.3h-1.1l4-12.7L385.7,6.6z M387.1,15L385,7.9l0,0l-2.1,7.2H387.1z"
			/>
	</g>
</g>
<g>
	
		<image style="overflow:visible;opacity:0.5;" width="12" height="19" xlink:href="9406EDD7A273883A.png"  transform="matrix(1 0 0 1 388 3.5833)">
	</image>
	<g>
		<polygon class="st0" points="391.4,19.3 391.4,6.6 392.5,6.6 392.5,18.4 396.7,18.4 396.7,19.3 		"/>
	</g>
</g>
</svg>
