<?xml version="1.0" encoding="utf-8"?>
<!-- Generator: Adobe Illustrator 23.0.3, SVG Export Plug-In . SVG Version: 6.00 Build 0)  -->
<svg version="1.1" id="Layer_1" xmlns="http://www.w3.org/2000/svg" xmlns:xlink="http://www.w3.org/1999/xlink" x="0px" y="0px"
	 viewBox="0 0 430.5 147.4" style="enable-background:new 0 0 430.5 147.4;" xml:space="preserve">
<style type="text/css">
	.st0{fill:#FFFFFF;}
	.st1{opacity:0.3;fill:#FFFFFF;}
	.st2{fill:none;stroke:#FFFFFF;stroke-width:4;stroke-linejoin:round;stroke-miterlimit:10;}
	.st3{fill:#AFABD4;}
</style>
<g>
	<g>
		<g>
			<path class="st0" d="M174.7,42.4l0.3-3h-0.1l-1.1,2.8l-5.3,9.2h-0.7l-5.6-9.2l-1-2.8H161l0.4,3V56h-2.3V35.7h1.8l6.4,10.4l1,2.3
				h0.1l0.9-2.3l6.1-10.3h1.9V56h-2.4V42.4z"/>
			<path class="st0" d="M193.4,35.7h2.3v13.5c0,1.2-0.2,2.3-0.5,3.2c-0.3,0.9-0.8,1.6-1.4,2.2c-0.6,0.6-1.3,1-2.1,1.3
				s-1.8,0.4-2.8,0.4c-2.4,0-4.2-0.5-5.4-1.6s-1.8-2.7-1.8-4.9v-14h2.4v12.9c0,1,0.1,1.9,0.3,2.6c0.2,0.7,0.5,1.3,0.9,1.7
				s0.9,0.7,1.5,0.9c0.6,0.2,1.3,0.3,2.1,0.3c1.6,0,2.7-0.4,3.4-1.3c0.7-0.9,1-2.3,1-4.2V35.7z"/>
			<path class="st0" d="M209.1,50.8c0-0.8-0.2-1.5-0.7-2c-0.5-0.5-1.1-1-1.8-1.4c-0.7-0.4-1.5-0.8-2.4-1.1s-1.6-0.8-2.4-1.3
				c-0.7-0.5-1.3-1.1-1.8-1.8c-0.5-0.7-0.7-1.6-0.7-2.8c0-1.6,0.6-2.8,1.7-3.8c1.1-0.9,2.7-1.4,4.7-1.4c1.2,0,2.3,0.1,3.2,0.3
				c1,0.2,1.7,0.4,2.3,0.7l-0.7,2.1c-0.4-0.2-1.1-0.4-2-0.6c-0.9-0.2-1.8-0.3-2.9-0.3c-1.3,0-2.2,0.3-2.9,0.9c-0.6,0.6-1,1.2-1,2
				c0,0.8,0.2,1.4,0.7,1.9c0.5,0.5,1.1,1,1.8,1.3c0.7,0.4,1.5,0.8,2.4,1.2c0.9,0.4,1.6,0.8,2.4,1.3c0.7,0.5,1.3,1.1,1.8,1.8
				c0.5,0.7,0.7,1.6,0.7,2.7c0,0.9-0.2,1.7-0.5,2.3c-0.3,0.7-0.8,1.3-1.4,1.8c-0.6,0.5-1.3,0.9-2.2,1.2c-0.9,0.3-1.8,0.4-2.9,0.4
				c-1.5,0-2.6-0.1-3.6-0.3c-0.9-0.2-1.7-0.5-2.2-0.7l0.8-2.1c0.4,0.2,1.1,0.5,2,0.7s1.8,0.4,2.9,0.4c0.6,0,1.2-0.1,1.8-0.2
				c0.6-0.1,1-0.3,1.5-0.6c0.4-0.3,0.7-0.6,1-1.1C209,51.9,209.1,51.4,209.1,50.8z"/>
			<path class="st0" d="M228.2,55.2c-0.6,0.4-1.3,0.8-2.2,0.9c-0.9,0.2-1.8,0.3-2.8,0.3c-1.2,0-2.4-0.2-3.4-0.6
				c-1.1-0.4-2-1-2.8-1.9c-0.8-0.9-1.4-1.9-1.9-3.3c-0.5-1.3-0.7-2.9-0.7-4.7c0-1.9,0.3-3.5,0.8-4.8c0.5-1.3,1.2-2.4,2-3.2
				c0.8-0.8,1.8-1.5,2.8-1.8s2.1-0.6,3.2-0.6c1.2,0,2.1,0.1,2.8,0.2c0.7,0.1,1.4,0.3,1.9,0.5l-0.6,2.1c-0.9-0.5-2.3-0.7-4-0.7
				c-0.8,0-1.6,0.1-2.3,0.4s-1.5,0.8-2.1,1.4c-0.6,0.7-1.1,1.5-1.5,2.6c-0.4,1.1-0.6,2.4-0.6,3.9c0,1.4,0.2,2.6,0.5,3.7
				c0.3,1,0.8,1.9,1.4,2.6c0.6,0.7,1.3,1.2,2.1,1.6c0.8,0.3,1.7,0.5,2.7,0.5c0.9,0,1.6-0.1,2.3-0.3c0.6-0.2,1.2-0.4,1.6-0.7
				L228.2,55.2z"/>
			<path class="st0" d="M242.9,35.7h2.3v13.5c0,1.2-0.2,2.3-0.5,3.2c-0.3,0.9-0.8,1.6-1.4,2.2c-0.6,0.6-1.3,1-2.1,1.3
				s-1.8,0.4-2.8,0.4c-2.4,0-4.2-0.5-5.4-1.6s-1.8-2.7-1.8-4.9v-14h2.4v12.9c0,1,0.1,1.9,0.3,2.6c0.2,0.7,0.5,1.3,0.9,1.7
				s0.9,0.7,1.5,0.9c0.6,0.2,1.3,0.3,2.1,0.3c1.6,0,2.7-0.4,3.4-1.3c0.7-0.9,1-2.3,1-4.2V35.7z"/>
			<path class="st0" d="M261.9,56h-12V35.7h2.4v18.2h9.6V56z"/>
			<path class="st0" d="M263.4,45.9c0-3.4,0.7-6,2.1-7.8c1.4-1.8,3.5-2.7,6.1-2.7c1.4,0,2.7,0.3,3.7,0.8c1,0.5,1.9,1.2,2.6,2.1
				c0.7,0.9,1.2,2,1.5,3.3c0.3,1.3,0.5,2.7,0.5,4.3c0,3.4-0.7,6-2.2,7.8c-1.4,1.8-3.5,2.7-6.2,2.7c-1.4,0-2.6-0.3-3.7-0.8
				c-1-0.5-1.9-1.2-2.6-2.1c-0.7-0.9-1.2-2-1.5-3.3C263.6,48.9,263.4,47.4,263.4,45.9z M265.9,45.9c0,1.1,0.1,2.2,0.3,3.2
				c0.2,1,0.6,1.9,1,2.7c0.5,0.8,1.1,1.4,1.8,1.8c0.7,0.5,1.6,0.7,2.6,0.7c1.8,0,3.2-0.7,4.2-2c1-1.4,1.5-3.5,1.5-6.3
				c0-1.1-0.1-2.2-0.3-3.2c-0.2-1-0.6-1.9-1-2.7c-0.5-0.8-1.1-1.4-1.8-1.8c-0.7-0.5-1.6-0.7-2.6-0.7c-1.8,0-3.2,0.7-4.2,2
				C266.5,40.9,265.9,43,265.9,45.9z"/>
			<path class="st0" d="M292.7,50.8c0-0.8-0.2-1.5-0.7-2c-0.5-0.5-1.1-1-1.8-1.4c-0.7-0.4-1.5-0.8-2.4-1.1s-1.6-0.8-2.4-1.3
				c-0.7-0.5-1.3-1.1-1.8-1.8c-0.5-0.7-0.7-1.6-0.7-2.8c0-1.6,0.6-2.8,1.7-3.8c1.1-0.9,2.7-1.4,4.7-1.4c1.2,0,2.3,0.1,3.2,0.3
				c1,0.2,1.7,0.4,2.3,0.7l-0.7,2.1c-0.4-0.2-1.1-0.4-2-0.6c-0.9-0.2-1.8-0.3-2.9-0.3c-1.3,0-2.2,0.3-2.9,0.9c-0.6,0.6-1,1.2-1,2
				c0,0.8,0.2,1.4,0.7,1.9c0.5,0.5,1.1,1,1.8,1.3c0.7,0.4,1.5,0.8,2.4,1.2c0.9,0.4,1.6,0.8,2.4,1.3c0.7,0.5,1.3,1.1,1.8,1.8
				c0.5,0.7,0.7,1.6,0.7,2.7c0,0.9-0.2,1.7-0.5,2.3c-0.3,0.7-0.8,1.3-1.4,1.8c-0.6,0.5-1.3,0.9-2.2,1.2c-0.9,0.3-1.8,0.4-2.9,0.4
				c-1.5,0-2.6-0.1-3.6-0.3c-0.9-0.2-1.7-0.5-2.2-0.7l0.8-2.1c0.4,0.2,1.1,0.5,2,0.7s1.8,0.4,2.9,0.4c0.6,0,1.2-0.1,1.8-0.2
				c0.6-0.1,1-0.3,1.5-0.6c0.4-0.3,0.7-0.6,1-1.1C292.6,51.9,292.7,51.4,292.7,50.8z"/>
			<path class="st0" d="M302.3,46.6h-1.4V56h-2.4V35.7h2.4v9.5l1.3-0.4l6.8-9h2.8l-6.8,8.7l-1.2,1l1.5,1.2l7.4,9.5h-3L302.3,46.6z"
				/>
			<path class="st0" d="M315.9,35.7h11v2.1h-8.6v6.6h7.9v2.1h-7.9v7.2h8.8V56h-11.2V35.7z"/>
			<path class="st0" d="M342.7,56h-12V35.7h2.4v18.2h9.6V56z"/>
			<path class="st0" d="M345.7,35.7h11v2.1h-8.6v6.6h7.9v2.1h-7.9v7.2h8.8V56h-11.2V35.7z"/>
			<path class="st0" d="M374.5,37.9h-6.3V56h-2.4V37.9h-6.3v-2.1h15.1V37.9z"/>
			<path class="st0" d="M385,50.4h-7.4l-2,5.6h-2.4l7.7-20.6h1.1l7.7,20.6h-2.6L385,50.4z M378.3,48.3h5.9l-2.2-6.2l-0.7-3.1h0
				l-0.7,3.1L378.3,48.3z"/>
			<path class="st0" d="M404.4,56h-12V35.7h2.4v18.2h9.6V56z"/>
			<path class="st0" d="M159.1,66.7c0.4-0.1,0.8-0.1,1.2-0.1c0.5,0,0.9,0,1.4-0.1c0.5,0,1,0,1.5,0c0.5,0,0.9,0,1.3,0
				c1.6,0,3,0.3,4.2,0.8c1.2,0.5,2.2,1.2,2.9,2.1c0.8,0.9,1.3,2,1.7,3.2s0.6,2.6,0.6,4.1c0,1.4-0.2,2.7-0.5,4
				c-0.4,1.3-0.9,2.4-1.7,3.4c-0.8,1-1.8,1.8-3,2.3c-1.2,0.6-2.7,0.9-4.5,0.9c-0.3,0-0.7,0-1.2,0c-0.5,0-1,0-1.5-0.1
				c-0.5,0-1-0.1-1.5-0.1c-0.4,0-0.8,0-1-0.1V66.7z M164.6,68.6c-0.3,0-0.5,0-0.8,0s-0.6,0-0.9,0c-0.3,0-0.6,0-0.8,0.1
				c-0.2,0-0.4,0-0.6,0.1V85c0.1,0,0.3,0,0.6,0c0.3,0,0.6,0,0.8,0c0.3,0,0.6,0,0.8,0c0.3,0,0.5,0,0.6,0c1.4,0,2.5-0.2,3.4-0.7
				c0.9-0.5,1.7-1.1,2.2-1.9c0.6-0.8,0.9-1.7,1.2-2.7c0.2-1,0.3-2.1,0.3-3.1c0-0.9-0.1-1.9-0.3-2.9s-0.6-1.8-1.1-2.6
				c-0.5-0.8-1.2-1.4-2.1-1.9S165.9,68.6,164.6,68.6z"/>
			<path class="st0" d="M178,66.7h2.4V87H178V66.7z"/>
			<path class="st0" d="M194.3,81.8c0-0.8-0.2-1.5-0.7-2c-0.5-0.5-1.1-1-1.8-1.4c-0.7-0.4-1.5-0.8-2.4-1.1s-1.6-0.8-2.4-1.3
				c-0.7-0.5-1.3-1.1-1.8-1.8c-0.5-0.7-0.7-1.6-0.7-2.8c0-1.6,0.6-2.8,1.7-3.8c1.1-0.9,2.7-1.4,4.7-1.4c1.2,0,2.3,0.1,3.2,0.3
				c1,0.2,1.7,0.4,2.3,0.7l-0.7,2.1c-0.4-0.2-1.1-0.4-2-0.6c-0.9-0.2-1.8-0.3-2.9-0.3c-1.3,0-2.2,0.3-2.9,0.9c-0.6,0.6-1,1.2-1,2
				c0,0.8,0.2,1.4,0.7,1.9c0.5,0.5,1.1,1,1.8,1.3c0.7,0.4,1.5,0.8,2.4,1.2c0.9,0.4,1.6,0.8,2.4,1.3c0.7,0.5,1.3,1.1,1.8,1.8
				c0.5,0.7,0.7,1.6,0.7,2.7c0,0.9-0.2,1.7-0.5,2.3c-0.3,0.7-0.8,1.3-1.4,1.8c-0.6,0.5-1.3,0.9-2.2,1.2c-0.9,0.3-1.8,0.4-2.9,0.4
				c-1.5,0-2.6-0.1-3.6-0.3c-0.9-0.2-1.7-0.5-2.2-0.7l0.8-2.1c0.4,0.2,1.1,0.5,2,0.7s1.8,0.4,2.9,0.4c0.6,0,1.2-0.1,1.8-0.2
				c0.6-0.1,1-0.3,1.5-0.6c0.4-0.3,0.7-0.6,1-1.1C194.2,82.9,194.3,82.4,194.3,81.8z"/>
			<path class="st0" d="M200.1,66.7h11v2.1h-8.6v6.6h7.9v2.1h-7.9v7.2h8.8V87h-11.2V66.7z"/>
			<path class="st0" d="M225.7,81.4h-7.4l-2,5.6h-2.4l7.7-20.6h1.1l7.7,20.6h-2.6L225.7,81.4z M219,79.3h5.9l-2.2-6.2L222,70h0
				l-0.7,3.1L219,79.3z"/>
			<path class="st0" d="M242.8,81.8c0-0.8-0.2-1.5-0.7-2c-0.5-0.5-1.1-1-1.8-1.4c-0.7-0.4-1.5-0.8-2.4-1.1s-1.6-0.8-2.4-1.3
				c-0.7-0.5-1.3-1.1-1.8-1.8c-0.5-0.7-0.7-1.6-0.7-2.8c0-1.6,0.6-2.8,1.7-3.8c1.1-0.9,2.7-1.4,4.7-1.4c1.2,0,2.3,0.1,3.2,0.3
				c1,0.2,1.7,0.4,2.3,0.7l-0.7,2.1c-0.4-0.2-1.1-0.4-2-0.6c-0.9-0.2-1.8-0.3-2.9-0.3c-1.3,0-2.2,0.3-2.9,0.9c-0.6,0.6-1,1.2-1,2
				c0,0.8,0.2,1.4,0.7,1.9c0.5,0.5,1.1,1,1.8,1.3c0.7,0.4,1.5,0.8,2.4,1.2c0.9,0.4,1.6,0.8,2.4,1.3c0.7,0.5,1.3,1.1,1.8,1.8
				c0.5,0.7,0.7,1.6,0.7,2.7c0,0.9-0.2,1.7-0.5,2.3c-0.3,0.7-0.8,1.3-1.4,1.8c-0.6,0.5-1.3,0.9-2.2,1.2c-0.9,0.3-1.8,0.4-2.9,0.4
				c-1.5,0-2.6-0.1-3.6-0.3c-0.9-0.2-1.7-0.5-2.2-0.7l0.8-2.1c0.4,0.2,1.1,0.5,2,0.7s1.8,0.4,2.9,0.4c0.6,0,1.2-0.1,1.8-0.2
				c0.6-0.1,1-0.3,1.5-0.6c0.4-0.3,0.7-0.6,1-1.1C242.7,82.9,242.8,82.4,242.8,81.8z"/>
			<path class="st0" d="M248.6,66.7h11v2.1H251v6.6h7.9v2.1H251v7.2h8.8V87h-11.2V66.7z"/>
			<path class="st0" d="M278.7,76.9h6.8v8.9c-0.3,0.2-0.7,0.4-1.1,0.6c-0.4,0.2-0.9,0.4-1.4,0.5c-0.5,0.1-1,0.2-1.5,0.3
				c-0.5,0.1-1,0.1-1.6,0.1c-1.3,0-2.5-0.2-3.6-0.6s-2-1.1-2.8-1.9c-0.8-0.9-1.4-2-1.9-3.3c-0.4-1.3-0.7-2.9-0.7-4.7
				c0-1.9,0.3-3.5,0.8-4.8s1.2-2.4,2.1-3.3s1.8-1.5,2.9-1.8c1.1-0.4,2.2-0.6,3.2-0.6c1.2,0,2.1,0.1,2.9,0.2c0.8,0.1,1.4,0.3,1.9,0.5
				l-0.6,2.1c-0.9-0.5-2.3-0.7-4-0.7c-0.8,0-1.6,0.1-2.4,0.4c-0.8,0.3-1.5,0.7-2.2,1.4c-0.6,0.7-1.2,1.5-1.6,2.6
				c-0.4,1.1-0.6,2.4-0.6,3.9c0,1.4,0.2,2.7,0.5,3.7c0.3,1,0.8,1.9,1.4,2.6s1.3,1.2,2.1,1.5c0.8,0.3,1.7,0.5,2.7,0.5
				c1.2,0,2.3-0.2,3.2-0.7v-5.7l-4.7-0.6V76.9z"/>
			<path class="st0" d="M289.5,66.7h11v2.1h-8.6v6.6h7.9v2.1h-7.9v7.2h8.8V87h-11.2V66.7z"/>
			<path class="st0" d="M308,73.7l-1.6-2.9h-0.1l0.3,2.9V87h-2.3V66.4h1.3l9.7,13.5l1.5,2.8h0.1l-0.3-2.8V66.7h2.3v20.6h-1.3
				L308,73.7z"/>
			<path class="st0" d="M323.6,66.7h11v2.1H326v6.6h7.9v2.1H326v7.2h8.8V87h-11.2V66.7z"/>
			<path class="st0" d="M352.5,68.9h-6.3V87h-2.4V68.9h-6.3v-2.1h15.1V68.9z"/>
			<path class="st0" d="M355.7,66.7h2.4V87h-2.4V66.7z"/>
			<path class="st0" d="M376,86.2c-0.6,0.4-1.3,0.8-2.2,0.9c-0.9,0.2-1.8,0.3-2.8,0.3c-1.2,0-2.4-0.2-3.4-0.6c-1.1-0.4-2-1-2.8-1.9
				c-0.8-0.9-1.4-1.9-1.9-3.3c-0.5-1.3-0.7-2.9-0.7-4.7c0-1.9,0.3-3.5,0.8-4.8c0.5-1.3,1.2-2.4,2-3.2c0.8-0.8,1.8-1.5,2.8-1.8
				s2.1-0.6,3.2-0.6c1.2,0,2.1,0.1,2.8,0.2c0.7,0.1,1.4,0.3,1.9,0.5l-0.6,2.1c-0.9-0.5-2.3-0.7-4-0.7c-0.8,0-1.6,0.1-2.3,0.4
				s-1.5,0.8-2.1,1.4c-0.6,0.7-1.1,1.5-1.5,2.6c-0.4,1.1-0.6,2.4-0.6,3.9c0,1.4,0.2,2.6,0.5,3.7c0.3,1,0.8,1.9,1.4,2.6
				c0.6,0.7,1.3,1.2,2.1,1.6c0.8,0.3,1.7,0.5,2.7,0.5c0.9,0,1.6-0.1,2.3-0.3c0.6-0.2,1.2-0.4,1.6-0.7L376,86.2z"/>
			<path class="st0" d="M389,81.8c0-0.8-0.2-1.5-0.7-2c-0.5-0.5-1.1-1-1.8-1.4c-0.7-0.4-1.5-0.8-2.4-1.1s-1.6-0.8-2.4-1.3
				c-0.7-0.5-1.3-1.1-1.8-1.8c-0.5-0.7-0.7-1.6-0.7-2.8c0-1.6,0.6-2.8,1.7-3.8c1.1-0.9,2.7-1.4,4.7-1.4c1.2,0,2.3,0.1,3.2,0.3
				c1,0.2,1.7,0.4,2.3,0.7l-0.7,2.1c-0.4-0.2-1.1-0.4-2-0.6c-0.9-0.2-1.8-0.3-2.9-0.3c-1.3,0-2.2,0.3-2.9,0.9c-0.6,0.6-1,1.2-1,2
				c0,0.8,0.2,1.4,0.7,1.9c0.5,0.5,1.1,1,1.8,1.3c0.7,0.4,1.5,0.8,2.4,1.2c0.9,0.4,1.6,0.8,2.4,1.3c0.7,0.5,1.3,1.1,1.8,1.8
				c0.5,0.7,0.7,1.6,0.7,2.7c0,0.9-0.2,1.7-0.5,2.3c-0.3,0.7-0.8,1.3-1.4,1.8c-0.6,0.5-1.3,0.9-2.2,1.2c-0.9,0.3-1.8,0.4-2.9,0.4
				c-1.5,0-2.6-0.1-3.6-0.3c-0.9-0.2-1.7-0.5-2.2-0.7l0.8-2.1c0.4,0.2,1.1,0.5,2,0.7s1.8,0.4,2.9,0.4c0.6,0,1.2-0.1,1.8-0.2
				c0.6-0.1,1-0.3,1.5-0.6c0.4-0.3,0.7-0.6,1-1.1C388.9,82.9,389,82.4,389,81.8z"/>
		</g>
		<g>
			<path class="st0" d="M164.1,108.7h-1v8.7h-4V97h4v9l0.9-0.4l5.6-8.6h4.5l-5.9,8.5l-1.6,1.1l1.6,1.1l6.8,9.5h-4.9L164.1,108.7z"/>
			<path class="st0" d="M181.9,106.7l-1.6-3.2h-0.1l0.5,3.2v10.6h-3.8V96.9h2.9l7.7,10.8l1.5,3.1h0.1l-0.5-3.1V97h3.8v20.4h-2.9
				L181.9,106.7z"/>
			<path class="st0" d="M194.9,107.2c0-3.4,0.7-6,2.2-7.8c1.5-1.8,3.6-2.7,6.4-2.7c1.5,0,2.7,0.3,3.8,0.8c1.1,0.5,2,1.2,2.7,2.1
				c0.7,0.9,1.2,2,1.6,3.3c0.3,1.3,0.5,2.7,0.5,4.3c0,3.4-0.8,6-2.2,7.8c-1.5,1.8-3.6,2.7-6.4,2.7c-1.5,0-2.7-0.3-3.8-0.8
				c-1.1-0.5-2-1.2-2.7-2.1c-0.7-0.9-1.2-2-1.6-3.3S194.9,108.8,194.9,107.2z M199.1,107.2c0,1,0.1,2,0.3,2.8s0.4,1.6,0.8,2.2
				c0.4,0.6,0.8,1.1,1.4,1.5c0.6,0.3,1.2,0.5,2,0.5c1.4,0,2.5-0.6,3.3-1.7c0.8-1.1,1.2-2.9,1.2-5.4c0-1-0.1-1.9-0.2-2.8
				c-0.2-0.8-0.4-1.6-0.8-2.2c-0.3-0.6-0.8-1.1-1.4-1.5c-0.6-0.4-1.2-0.5-2.1-0.5c-1.4,0-2.5,0.6-3.3,1.7
				C199.5,103,199.1,104.8,199.1,107.2z"/>
			<path class="st0" d="M219.5,108.4l0.4,3.6h0.1l0.4-3.7L224,97h2.6l3.5,11.3l0.4,3.6h0.1l0.4-3.7l2.5-11.3h4l-5.6,20.4h-2.7
				l-3.6-11.3l-0.5-3.1H225l-0.5,3.1l-3.6,11.3h-2.8L212.5,97h4.3L219.5,108.4z"/>
			<path class="st0" d="M252,117.3h-12.8V97h4v16.8h8.9V117.3z"/>
			<path class="st0" d="M253.8,97h12v3.5h-8.1v4.7h7.3v3.5h-7.3v5h8.2v3.5h-12.2V97z"/>
			<path class="st0" d="M268.7,97c0.4-0.1,0.9-0.1,1.4-0.1c0.5,0,1-0.1,1.6-0.1c0.5,0,1.1,0,1.6,0s1,0,1.4,0c1.8,0,3.3,0.3,4.6,0.8
				c1.3,0.5,2.3,1.2,3.1,2.1c0.8,0.9,1.4,2,1.7,3.2c0.4,1.3,0.6,2.6,0.6,4.1c0,1.4-0.2,2.7-0.5,4c-0.3,1.3-0.9,2.4-1.7,3.4
				c-0.8,1-1.9,1.8-3.2,2.4s-3,0.9-4.9,0.9c-0.3,0-0.7,0-1.2,0c-0.5,0-1,0-1.6-0.1c-0.6,0-1.1-0.1-1.6-0.1c-0.5,0-0.9-0.1-1.1-0.1
				V97z M274.9,100.3c-0.4,0-0.9,0-1.3,0c-0.4,0-0.8,0-1,0.1V114c0.1,0,0.2,0,0.4,0c0.2,0,0.4,0,0.6,0c0.2,0,0.4,0,0.6,0
				s0.3,0,0.4,0c1.1,0,2.1-0.2,2.8-0.6s1.3-0.9,1.8-1.6c0.4-0.7,0.7-1.4,0.9-2.3c0.2-0.9,0.3-1.7,0.3-2.7c0-0.8-0.1-1.6-0.2-2.4
				c-0.2-0.8-0.4-1.5-0.9-2.2s-1-1.2-1.7-1.6C276.9,100.5,276,100.3,274.9,100.3z"/>
			<path class="st0" d="M294.2,106.7h7.6v9c-0.8,0.7-1.8,1.2-2.9,1.5c-1.1,0.3-2.2,0.5-3.3,0.5c-1.3,0-2.5-0.2-3.6-0.6
				c-1.1-0.4-2.1-1-2.9-1.9c-0.8-0.9-1.5-2-1.9-3.3s-0.7-2.9-0.7-4.8c0-1.9,0.3-3.5,0.8-4.9s1.3-2.4,2.2-3.3s1.9-1.5,3-1.8
				s2.3-0.6,3.4-0.6c1.2,0,2.2,0.1,3.1,0.3c0.9,0.2,1.6,0.4,2.1,0.6l-0.8,3.3c-0.5-0.2-1-0.3-1.6-0.4c-0.6-0.1-1.4-0.2-2.3-0.2
				c-0.8,0-1.6,0.1-2.3,0.4s-1.3,0.7-1.8,1.2c-0.5,0.6-0.9,1.3-1.2,2.2c-0.3,0.9-0.4,2-0.4,3.2c0,1.2,0.1,2.3,0.4,3.1
				s0.6,1.6,1.1,2.2c0.5,0.6,1,1,1.7,1.3c0.6,0.3,1.3,0.4,2.1,0.4c0.5,0,1-0.1,1.5-0.2c0.5-0.1,0.9-0.3,1.2-0.6v-3.8l-4.4-0.5V106.7
				z"/>
			<path class="st0" d="M304.6,97h12v3.5h-8.1v4.7h7.3v3.5h-7.3v5h8.2v3.5h-12.2V97z"/>
			<path class="st0" d="M326.7,97.2c0.8-0.2,1.7-0.3,2.7-0.4c1-0.1,1.9-0.1,2.9-0.1c1,0,2,0.1,3,0.2c1,0.2,1.9,0.5,2.7,1
				c0.8,0.5,1.5,1.2,2,2.1c0.5,0.9,0.8,2,0.8,3.4c0,1.3-0.2,2.4-0.7,3.2c-0.4,0.9-1,1.6-1.8,2.2s-1.6,1-2.5,1.2
				c-0.9,0.3-1.9,0.4-2.9,0.4c-0.1,0-0.3,0-0.5,0s-0.4,0-0.7,0s-0.5,0-0.7,0c-0.2,0-0.4,0-0.5-0.1v7h-4V97.2z M332.6,100.2
				c-0.4,0-0.8,0-1.1,0c-0.3,0-0.6,0.1-0.8,0.1v6.6c0.1,0,0.2,0,0.3,0.1c0.2,0,0.3,0,0.5,0s0.3,0,0.5,0s0.3,0,0.4,0
				c0.5,0,1,0,1.6-0.1c0.5-0.1,1-0.3,1.4-0.5c0.4-0.3,0.7-0.6,1-1.1c0.2-0.5,0.4-1.1,0.4-1.8c0-0.6-0.1-1.2-0.3-1.6
				c-0.2-0.4-0.5-0.7-0.9-1c-0.4-0.3-0.8-0.4-1.3-0.5C333.6,100.2,333.1,100.2,332.6,100.2z"/>
			<path class="st0" d="M342.4,107.2c0-3.4,0.7-6,2.2-7.8c1.5-1.8,3.6-2.7,6.4-2.7c1.5,0,2.7,0.3,3.8,0.8c1.1,0.5,2,1.2,2.7,2.1
				c0.7,0.9,1.2,2,1.6,3.3c0.3,1.3,0.5,2.7,0.5,4.3c0,3.4-0.8,6-2.2,7.8c-1.5,1.8-3.6,2.7-6.4,2.7c-1.5,0-2.7-0.3-3.8-0.8
				c-1.1-0.5-2-1.2-2.7-2.1c-0.7-0.9-1.2-2-1.6-3.3S342.4,108.8,342.4,107.2z M346.5,107.2c0,1,0.1,2,0.3,2.8s0.4,1.6,0.8,2.2
				c0.4,0.6,0.8,1.1,1.4,1.5c0.6,0.3,1.2,0.5,2,0.5c1.4,0,2.5-0.6,3.3-1.7c0.8-1.1,1.2-2.9,1.2-5.4c0-1-0.1-1.9-0.2-2.8
				c-0.2-0.8-0.4-1.6-0.8-2.2c-0.3-0.6-0.8-1.1-1.4-1.5c-0.6-0.4-1.2-0.5-2.1-0.5c-1.4,0-2.5,0.6-3.3,1.7
				C346.9,103,346.5,104.8,346.5,107.2z"/>
			<path class="st0" d="M362.2,97.2c0.4-0.1,0.9-0.2,1.4-0.2c0.5-0.1,1-0.1,1.5-0.2c0.5,0,1-0.1,1.5-0.1c0.5,0,0.9,0,1.3,0
				c0.9,0,1.9,0.1,2.8,0.3c0.9,0.2,1.7,0.5,2.5,0.9c0.7,0.4,1.3,1,1.7,1.8c0.4,0.7,0.7,1.7,0.7,2.8c0,1.7-0.4,3-1.2,4.1
				c-0.8,1-1.8,1.8-3.1,2.2l1.4,0.9l4.6,7.7h-4.6l-4.6-7.9l-2.1-0.4v8.3h-4V97.2z M368.2,100.3c-0.4,0-0.8,0-1.2,0
				c-0.4,0-0.7,0.1-0.9,0.1v5.9h1.7c1.1,0,2-0.2,2.6-0.8c0.7-0.5,1-1.3,1-2.5c0-0.9-0.3-1.6-0.8-2S369.3,100.3,368.2,100.3z"/>
			<path class="st0" d="M393.4,100.6h-5.9v16.8h-4v-16.8h-5.9V97h15.8V100.6z"/>
			<path class="st0" d="M403.1,112.8h-6.2l-1.5,4.5h-4l7.3-20.4h2.9l7.3,20.4h-4.2L403.1,112.8z M397.9,109.6h4.3l-1.5-4.5l-0.6-3.2
				H400l-0.6,3.2L397.9,109.6z"/>
			<path class="st0" d="M423.4,117.3h-12.8V97h4v16.8h8.9V117.3z"/>
		</g>
	</g>
	<g>
		<circle class="st0" cx="74.2" cy="40.1" r="8.2"/>
		<path class="st1" d="M128.5,35.5c-0.7-1.9-2.8-3-4.8-2.3L74.2,50.5L24.7,33.2c-1.9-0.7-4.1,0.4-4.8,2.3c-0.7,1.9,0.4,4.1,2.3,4.8
			l41.1,14.3v33.2L47.5,131c-0.9,2.5,0.4,5.2,2.9,6.1s5.2-0.4,6.1-2.9l15.1-41.5h5.1l15.1,41.5c0.9,2.5,3.7,3.8,6.1,2.9
			s3.8-3.7,2.9-6.1L85.3,88.3V54.5l40.9-14.3C128.1,39.6,129.2,37.4,128.5,35.5z"/>
		<path class="st0" d="M124.9,51.3H23.6c-2.1,0-3.7,1.7-3.7,3.7s1.7,3.7,3.7,3.7h39.7v23.2v10.9v43.1c0,2.6,2.2,4.8,4.8,4.8
			s4.8-2.2,4.8-4.8V92.8h2.9v43.1c0,2.6,2.2,4.8,4.8,4.8s4.8-2.2,4.8-4.8V92.8V81.9V58.7h39.5c2.1,0,3.7-1.7,3.7-3.7
			S126.9,51.3,124.9,51.3z"/>
		<circle class="st2" cx="74.2" cy="73.7" r="67.4"/>
		<g>
			<path class="st3" d="M41.8,56.2H24.3c-0.6,0-1-0.5-1-1v0c0-0.6,0.5-1,1-1h17.5c0.6,0,1,0.5,1,1v0C42.8,55.7,42.4,56.2,41.8,56.2z
				"/>
			<path class="st3" d="M63.5,56.2H46c-0.6,0-1-0.5-1-1v0c0-0.6,0.5-1,1-1h17.5c0.6,0,1,0.5,1,1v0C64.5,55.7,64.1,56.2,63.5,56.2z"
				/>
			<path class="st3" d="M102.5,56.2H84.9c-0.6,0-1-0.5-1-1v0c0-0.6,0.5-1,1-1h17.5c0.6,0,1,0.5,1,1v0
				C103.5,55.7,103,56.2,102.5,56.2z"/>
			<path class="st3" d="M124.2,56.2h-17.5c-0.6,0-1-0.5-1-1v0c0-0.6,0.5-1,1-1h17.5c0.6,0,1,0.5,1,1v0
				C125.2,55.7,124.7,56.2,124.2,56.2z"/>
			<path class="st3" d="M66.8,110.9V89.6c0-0.7,0.6-1.2,1.2-1.2l0,0c0.7,0,1.2,0.6,1.2,1.2v21.2c0,0.7-0.6,1.2-1.2,1.2l0,0
				C67.3,112.1,66.8,111.5,66.8,110.9z"/>
			<path class="st3" d="M66.8,136.9v-21.2c0-0.7,0.6-1.2,1.2-1.2l0,0c0.7,0,1.2,0.6,1.2,1.2v21.2c0,0.7-0.6,1.2-1.2,1.2l0,0
				C67.3,138.1,66.8,137.6,66.8,136.9z"/>
			<path class="st3" d="M79.2,110.9V89.6c0-0.7,0.6-1.2,1.2-1.2l0,0c0.7,0,1.2,0.6,1.2,1.2v21.2c0,0.7-0.6,1.2-1.2,1.2l0,0
				C79.7,112.1,79.2,111.5,79.2,110.9z"/>
			<path class="st3" d="M79.2,136.9v-21.2c0-0.7,0.6-1.2,1.2-1.2l0,0c0.7,0,1.2,0.6,1.2,1.2v21.2c0,0.7-0.6,1.2-1.2,1.2l0,0
				C79.7,138.1,79.2,137.6,79.2,136.9z"/>
			<circle class="st3" cx="74.2" cy="40.1" r="5.2"/>
			<path class="st3" d="M74.2,60.1L74.2,60.1c-0.9,0-1.7-0.8-1.7-1.7v-1.8c0-0.9,0.8-1.7,1.7-1.7l0,0c0.9,0,1.7,0.8,1.7,1.7v1.8
				C75.9,59.3,75.2,60.1,74.2,60.1z"/>
			<path class="st3" d="M74.2,66.7L74.2,66.7c-0.9,0-1.7-0.8-1.7-1.7v-1.8c0-0.9,0.8-1.7,1.7-1.7l0,0c0.9,0,1.7,0.8,1.7,1.7V65
				C75.9,65.9,75.2,66.7,74.2,66.7z"/>
			<path class="st3" d="M74.2,73.3L74.2,73.3c-0.9,0-1.7-0.8-1.7-1.7v-1.8c0-0.9,0.8-1.7,1.7-1.7l0,0c0.9,0,1.7,0.8,1.7,1.7v1.8
				C75.9,72.5,75.2,73.3,74.2,73.3z"/>
			<path class="st3" d="M74.2,79.9L74.2,79.9c-0.9,0-1.7-0.8-1.7-1.7v-1.8c0-0.9,0.8-1.7,1.7-1.7l0,0c0.9,0,1.7,0.8,1.7,1.7v1.8
				C75.9,79.1,75.2,79.9,74.2,79.9z"/>
			<path class="st3" d="M74.2,86.5L74.2,86.5c-0.9,0-1.7-0.8-1.7-1.7V83c0-0.9,0.8-1.7,1.7-1.7l0,0c0.9,0,1.7,0.8,1.7,1.7v1.8
				C75.9,85.7,75.2,86.5,74.2,86.5z"/>
		</g>
	</g>
</g>
</svg>
