<?xml version="1.0" encoding="utf-8"?>
<!-- Generator: Adobe Illustrator 23.0.3, SVG Export Plug-In . SVG Version: 6.00 Build 0)  -->
<svg version="1.1" id="Layer_1" xmlns="http://www.w3.org/2000/svg" xmlns:xlink="http://www.w3.org/1999/xlink" x="0px" y="0px"
	 viewBox="0 0 412.1 147.4" style="enable-background:new 0 0 412.1 147.4;" xml:space="preserve">
<style type="text/css">
	.st0{fill:#FFFFFF;}
	.st1{opacity:0.3;fill:#FFFFFF;}
	.st2{fill:none;stroke:#FFFFFF;stroke-width:4;stroke-linejoin:round;stroke-miterlimit:10;}
	.st3{fill:#B0ACD5;}
</style>
<circle class="st0" cx="74.2" cy="39.8" r="8.2"/>
<path class="st1" d="M128.5,35.2c-0.7-1.9-2.8-3-4.8-2.3L74.2,50.1L24.7,32.9c-1.9-0.7-4.1,0.4-4.8,2.3c-0.7,1.9,0.4,4.1,2.3,4.8
	l41.1,14.3v33.2l-15.7,43.3c-0.9,2.5,0.4,5.2,2.9,6.1s5.2-0.4,6.1-2.9l15.1-41.5h5.1L91.9,134c0.9,2.5,3.7,3.8,6.1,2.9
	s3.8-3.7,2.9-6.1L85.3,88V54.2l40.9-14.3C128.2,39.3,129.2,37.1,128.5,35.2z"/>
<path class="st0" d="M124.9,51H23.6c-2.1,0-3.7,1.7-3.7,3.7s1.7,3.7,3.7,3.7h39.7v23.2v10.9v43.1c0,2.6,2.2,4.8,4.8,4.8
	s4.8-2.2,4.8-4.8V92.5h2.9v43.1c0,2.6,2.2,4.8,4.8,4.8s4.8-2.2,4.8-4.8V92.5V81.6V58.4h39.5c2.1,0,3.7-1.7,3.7-3.7
	S126.9,51,124.9,51z"/>
<g>
	<g>
		<path class="st0" d="M174.7,42.1l0.3-3h-0.1l-1.1,2.8l-5.3,9.2h-0.7l-5.6-9.2l-1-2.8H161l0.4,3v13.7h-2.3V35.4h1.8l6.4,10.4l1,2.3
			h0.1l0.9-2.3l6.1-10.3h1.9v20.3h-2.4V42.1z"/>
		<path class="st0" d="M193.5,35.4h2.3v13.5c0,1.2-0.2,2.3-0.5,3.2c-0.3,0.9-0.8,1.6-1.4,2.2c-0.6,0.6-1.3,1-2.1,1.3
			s-1.8,0.4-2.8,0.4c-2.4,0-4.2-0.5-5.4-1.6s-1.8-2.7-1.8-4.9v-14h2.4v12.9c0,1,0.1,1.9,0.3,2.6c0.2,0.7,0.5,1.3,0.9,1.7
			s0.9,0.7,1.5,0.9c0.6,0.2,1.3,0.3,2.1,0.3c1.6,0,2.7-0.4,3.4-1.3c0.7-0.9,1-2.3,1-4.2V35.4z"/>
		<path class="st0" d="M209.2,50.5c0-0.8-0.2-1.5-0.7-2c-0.5-0.5-1.1-1-1.8-1.4c-0.7-0.4-1.5-0.8-2.4-1.1s-1.6-0.8-2.4-1.3
			c-0.7-0.5-1.3-1.1-1.8-1.8c-0.5-0.7-0.7-1.6-0.7-2.8c0-1.6,0.6-2.8,1.7-3.8c1.1-0.9,2.7-1.4,4.7-1.4c1.2,0,2.3,0.1,3.2,0.3
			c1,0.2,1.7,0.4,2.3,0.7l-0.7,2.1c-0.4-0.2-1.1-0.4-2-0.6c-0.9-0.2-1.8-0.3-2.9-0.3c-1.3,0-2.2,0.3-2.9,0.9c-0.6,0.6-1,1.2-1,2
			c0,0.8,0.2,1.4,0.7,1.9c0.5,0.5,1.1,1,1.8,1.3c0.7,0.4,1.5,0.8,2.4,1.2c0.9,0.4,1.6,0.8,2.4,1.3c0.7,0.5,1.3,1.1,1.8,1.8
			c0.5,0.7,0.7,1.6,0.7,2.7c0,0.9-0.2,1.7-0.5,2.3c-0.3,0.7-0.8,1.3-1.4,1.8c-0.6,0.5-1.3,0.9-2.2,1.2c-0.9,0.3-1.8,0.4-2.9,0.4
			c-1.5,0-2.6-0.1-3.6-0.3c-0.9-0.2-1.7-0.5-2.2-0.7l0.8-2.1c0.4,0.2,1.1,0.5,2,0.7s1.8,0.4,2.9,0.4c0.6,0,1.2-0.1,1.8-0.2
			c0.6-0.1,1-0.3,1.5-0.6c0.4-0.3,0.7-0.6,1-1.1C209.1,51.6,209.2,51.1,209.2,50.5z"/>
		<path class="st0" d="M228.2,54.9c-0.6,0.4-1.3,0.8-2.2,0.9c-0.9,0.2-1.8,0.3-2.8,0.3c-1.2,0-2.4-0.2-3.4-0.6c-1.1-0.4-2-1-2.8-1.9
			c-0.8-0.9-1.4-1.9-1.9-3.3c-0.5-1.3-0.7-2.9-0.7-4.7c0-1.9,0.3-3.5,0.8-4.8c0.5-1.3,1.2-2.4,2-3.2c0.8-0.8,1.8-1.5,2.8-1.8
			s2.1-0.6,3.2-0.6c1.2,0,2.1,0.1,2.8,0.2c0.7,0.1,1.4,0.3,1.9,0.5l-0.6,2.1c-0.9-0.5-2.3-0.7-4-0.7c-0.8,0-1.6,0.1-2.3,0.4
			s-1.5,0.8-2.1,1.4c-0.6,0.7-1.1,1.5-1.5,2.6c-0.4,1.1-0.6,2.4-0.6,3.9c0,1.4,0.2,2.6,0.5,3.7c0.3,1,0.8,1.9,1.4,2.6
			c0.6,0.7,1.3,1.2,2.1,1.6c0.8,0.3,1.7,0.5,2.7,0.5c0.9,0,1.6-0.1,2.3-0.3c0.6-0.2,1.2-0.4,1.6-0.7L228.2,54.9z"/>
		<path class="st0" d="M242.9,35.4h2.3v13.5c0,1.2-0.2,2.3-0.5,3.2c-0.3,0.9-0.8,1.6-1.4,2.2c-0.6,0.6-1.3,1-2.1,1.3
			s-1.8,0.4-2.8,0.4c-2.4,0-4.2-0.5-5.4-1.6s-1.8-2.7-1.8-4.9v-14h2.4v12.9c0,1,0.1,1.9,0.3,2.6c0.2,0.7,0.5,1.3,0.9,1.7
			s0.9,0.7,1.5,0.9c0.6,0.2,1.3,0.3,2.1,0.3c1.6,0,2.7-0.4,3.4-1.3c0.7-0.9,1-2.3,1-4.2V35.4z"/>
		<path class="st0" d="M261.9,55.7h-12V35.4h2.4v18.2h9.6V55.7z"/>
		<path class="st0" d="M263.4,45.5c0-3.4,0.7-6,2.1-7.8c1.4-1.8,3.5-2.7,6.1-2.7c1.4,0,2.7,0.3,3.7,0.8c1,0.5,1.9,1.2,2.6,2.1
			c0.7,0.9,1.2,2,1.5,3.3c0.3,1.3,0.5,2.7,0.5,4.3c0,3.4-0.7,6-2.2,7.8c-1.4,1.8-3.5,2.7-6.2,2.7c-1.4,0-2.6-0.3-3.7-0.8
			c-1-0.5-1.9-1.2-2.6-2.1c-0.7-0.9-1.2-2-1.5-3.3C263.6,48.6,263.4,47.1,263.4,45.5z M266,45.5c0,1.1,0.1,2.2,0.3,3.2
			c0.2,1,0.6,1.9,1,2.7c0.5,0.8,1.1,1.4,1.8,1.8c0.7,0.5,1.6,0.7,2.6,0.7c1.8,0,3.2-0.7,4.2-2c1-1.4,1.5-3.5,1.5-6.3
			c0-1.1-0.1-2.2-0.3-3.2c-0.2-1-0.6-1.9-1-2.7c-0.5-0.8-1.1-1.4-1.8-1.8c-0.7-0.5-1.6-0.7-2.6-0.7c-1.8,0-3.2,0.7-4.2,2
			C266.5,40.6,266,42.7,266,45.5z"/>
		<path class="st0" d="M292.8,50.5c0-0.8-0.2-1.5-0.7-2c-0.5-0.5-1.1-1-1.8-1.4c-0.7-0.4-1.5-0.8-2.4-1.1s-1.6-0.8-2.4-1.3
			c-0.7-0.5-1.3-1.1-1.8-1.8c-0.5-0.7-0.7-1.6-0.7-2.8c0-1.6,0.6-2.8,1.7-3.8c1.1-0.9,2.7-1.4,4.7-1.4c1.2,0,2.3,0.1,3.2,0.3
			c1,0.2,1.7,0.4,2.3,0.7l-0.7,2.1c-0.4-0.2-1.1-0.4-2-0.6c-0.9-0.2-1.8-0.3-2.9-0.3c-1.3,0-2.2,0.3-2.9,0.9c-0.6,0.6-1,1.2-1,2
			c0,0.8,0.2,1.4,0.7,1.9c0.5,0.5,1.1,1,1.8,1.3c0.7,0.4,1.5,0.8,2.4,1.2c0.9,0.4,1.6,0.8,2.4,1.3c0.7,0.5,1.3,1.1,1.8,1.8
			c0.5,0.7,0.7,1.6,0.7,2.7c0,0.9-0.2,1.7-0.5,2.3c-0.3,0.7-0.8,1.3-1.4,1.8c-0.6,0.5-1.3,0.9-2.2,1.2c-0.9,0.3-1.8,0.4-2.9,0.4
			c-1.5,0-2.6-0.1-3.6-0.3c-0.9-0.2-1.7-0.5-2.2-0.7l0.8-2.1c0.4,0.2,1.1,0.5,2,0.7s1.8,0.4,2.9,0.4c0.6,0,1.2-0.1,1.8-0.2
			c0.6-0.1,1-0.3,1.5-0.6c0.4-0.3,0.7-0.6,1-1.1C292.7,51.6,292.8,51.1,292.8,50.5z"/>
		<path class="st0" d="M302.3,46.3H301v9.4h-2.4V35.4h2.4v9.5l1.3-0.4l6.8-9h2.8l-6.8,8.7l-1.2,1l1.5,1.2l7.4,9.5h-3L302.3,46.3z"/>
		<path class="st0" d="M316,35.4h11v2.1h-8.6v6.6h7.9v2.1h-7.9v7.2h8.8v2.1H316V35.4z"/>
		<path class="st0" d="M342.8,55.7h-12V35.4h2.4v18.2h9.6V55.7z"/>
		<path class="st0" d="M345.7,35.4h11v2.1h-8.6v6.6h7.9v2.1h-7.9v7.2h8.8v2.1h-11.2V35.4z"/>
		<path class="st0" d="M374.6,37.5h-6.3v18.2h-2.4V37.5h-6.3v-2.1h15.1V37.5z"/>
		<path class="st0" d="M385,50.1h-7.4l-2,5.6h-2.4l7.7-20.6h1.1l7.7,20.6h-2.6L385,50.1z M378.4,48h5.9l-2.2-6.2l-0.7-3.1h0
			l-0.7,3.1L378.4,48z"/>
		<path class="st0" d="M404.5,55.7h-12V35.4h2.4v18.2h9.6V55.7z"/>
		<path class="st0" d="M159.1,66.4c0.4-0.1,0.8-0.1,1.2-0.1c0.5,0,0.9,0,1.4-0.1c0.5,0,1,0,1.5,0c0.5,0,0.9,0,1.3,0
			c1.6,0,3,0.3,4.2,0.8c1.2,0.5,2.2,1.2,2.9,2.1c0.8,0.9,1.3,2,1.7,3.2s0.6,2.6,0.6,4.1c0,1.4-0.2,2.7-0.5,4
			c-0.4,1.3-0.9,2.4-1.7,3.4c-0.8,1-1.8,1.8-3,2.3c-1.2,0.6-2.7,0.9-4.5,0.9c-0.3,0-0.7,0-1.2,0c-0.5,0-1,0-1.5-0.1
			c-0.5,0-1-0.1-1.5-0.1c-0.4,0-0.8,0-1-0.1V66.4z M164.6,68.3c-0.3,0-0.5,0-0.8,0s-0.6,0-0.9,0c-0.3,0-0.6,0-0.8,0.1
			c-0.2,0-0.4,0-0.6,0.1v16.2c0.1,0,0.3,0,0.6,0c0.3,0,0.6,0,0.8,0c0.3,0,0.6,0,0.8,0c0.3,0,0.5,0,0.6,0c1.4,0,2.5-0.2,3.4-0.7
			c0.9-0.5,1.7-1.1,2.2-1.9c0.6-0.8,0.9-1.7,1.2-2.7c0.2-1,0.3-2.1,0.3-3.1c0-0.9-0.1-1.9-0.3-2.9s-0.6-1.8-1.1-2.6
			c-0.5-0.8-1.2-1.4-2.1-1.9S166,68.3,164.6,68.3z"/>
		<path class="st0" d="M178.1,66.4h2.4v20.3h-2.4V66.4z"/>
		<path class="st0" d="M194.4,81.5c0-0.8-0.2-1.5-0.7-2c-0.5-0.5-1.1-1-1.8-1.4c-0.7-0.4-1.5-0.8-2.4-1.1s-1.6-0.8-2.4-1.3
			c-0.7-0.5-1.3-1.1-1.8-1.8c-0.5-0.7-0.7-1.6-0.7-2.8c0-1.6,0.6-2.8,1.7-3.8c1.1-0.9,2.7-1.4,4.7-1.4c1.2,0,2.3,0.1,3.2,0.3
			c1,0.2,1.7,0.4,2.3,0.7l-0.7,2.1c-0.4-0.2-1.1-0.4-2-0.6c-0.9-0.2-1.8-0.3-2.9-0.3c-1.3,0-2.2,0.3-2.9,0.9c-0.6,0.6-1,1.2-1,2
			c0,0.8,0.2,1.4,0.7,1.9c0.5,0.5,1.1,1,1.8,1.3c0.7,0.4,1.5,0.8,2.4,1.2c0.9,0.4,1.6,0.8,2.4,1.3c0.7,0.5,1.3,1.1,1.8,1.8
			c0.5,0.7,0.7,1.6,0.7,2.7c0,0.9-0.2,1.7-0.5,2.3c-0.3,0.7-0.8,1.3-1.4,1.8c-0.6,0.5-1.3,0.9-2.2,1.2c-0.9,0.3-1.8,0.4-2.9,0.4
			c-1.5,0-2.6-0.1-3.6-0.3c-0.9-0.2-1.7-0.5-2.2-0.7l0.8-2.1c0.4,0.2,1.1,0.5,2,0.7s1.8,0.4,2.9,0.4c0.6,0,1.2-0.1,1.8-0.2
			c0.6-0.1,1-0.3,1.5-0.6c0.4-0.3,0.7-0.6,1-1.1C194.3,82.6,194.4,82.1,194.4,81.5z"/>
		<path class="st0" d="M200.1,66.4h11v2.1h-8.6v6.6h7.9v2.1h-7.9v7.2h8.8v2.1h-11.2V66.4z"/>
		<path class="st0" d="M225.7,81.1h-7.4l-2,5.6h-2.4l7.7-20.6h1.1l7.7,20.6h-2.6L225.7,81.1z M219.1,79h5.9l-2.2-6.2l-0.7-3.1h0
			l-0.7,3.1L219.1,79z"/>
		<path class="st0" d="M242.9,81.5c0-0.8-0.2-1.5-0.7-2c-0.5-0.5-1.1-1-1.8-1.4c-0.7-0.4-1.5-0.8-2.4-1.1s-1.6-0.8-2.4-1.3
			c-0.7-0.5-1.3-1.1-1.8-1.8c-0.5-0.7-0.7-1.6-0.7-2.8c0-1.6,0.6-2.8,1.7-3.8c1.1-0.9,2.7-1.4,4.7-1.4c1.2,0,2.3,0.1,3.2,0.3
			c1,0.2,1.7,0.4,2.3,0.7l-0.7,2.1c-0.4-0.2-1.1-0.4-2-0.6c-0.9-0.2-1.8-0.3-2.9-0.3c-1.3,0-2.2,0.3-2.9,0.9c-0.6,0.6-1,1.2-1,2
			c0,0.8,0.2,1.4,0.7,1.9c0.5,0.5,1.1,1,1.8,1.3c0.7,0.4,1.5,0.8,2.4,1.2c0.9,0.4,1.6,0.8,2.4,1.3c0.7,0.5,1.3,1.1,1.8,1.8
			c0.5,0.7,0.7,1.6,0.7,2.7c0,0.9-0.2,1.7-0.5,2.3c-0.3,0.7-0.8,1.3-1.4,1.8c-0.6,0.5-1.3,0.9-2.2,1.2c-0.9,0.3-1.8,0.4-2.9,0.4
			c-1.5,0-2.6-0.1-3.6-0.3c-0.9-0.2-1.7-0.5-2.2-0.7l0.8-2.1c0.4,0.2,1.1,0.5,2,0.7s1.8,0.4,2.9,0.4c0.6,0,1.2-0.1,1.8-0.2
			c0.6-0.1,1-0.3,1.5-0.6c0.4-0.3,0.7-0.6,1-1.1C242.7,82.6,242.9,82.1,242.9,81.5z"/>
		<path class="st0" d="M248.6,66.4h11v2.1H251v6.6h7.9v2.1H251v7.2h8.8v2.1h-11.2V66.4z"/>
		<path class="st0" d="M278.8,76.6h6.8v8.9c-0.3,0.2-0.7,0.4-1.1,0.6c-0.4,0.2-0.9,0.4-1.4,0.5c-0.5,0.1-1,0.2-1.5,0.3
			c-0.5,0.1-1,0.1-1.6,0.1c-1.3,0-2.5-0.2-3.6-0.6s-2-1.1-2.8-1.9c-0.8-0.9-1.4-2-1.9-3.3c-0.4-1.3-0.7-2.9-0.7-4.7
			c0-1.9,0.3-3.5,0.8-4.8s1.2-2.4,2.1-3.3s1.8-1.5,2.9-1.8c1.1-0.4,2.2-0.6,3.2-0.6c1.2,0,2.1,0.1,2.9,0.2c0.8,0.1,1.4,0.3,1.9,0.5
			l-0.6,2.1c-0.9-0.5-2.3-0.7-4-0.7c-0.8,0-1.6,0.1-2.4,0.4c-0.8,0.3-1.5,0.7-2.2,1.4c-0.6,0.7-1.2,1.5-1.6,2.6
			c-0.4,1.1-0.6,2.4-0.6,3.9c0,1.4,0.2,2.7,0.5,3.7c0.3,1,0.8,1.9,1.4,2.6s1.3,1.2,2.1,1.5c0.8,0.3,1.7,0.5,2.7,0.5
			c1.2,0,2.3-0.2,3.2-0.7v-5.7l-4.7-0.6V76.6z"/>
		<path class="st0" d="M289.6,66.4h11v2.1H292v6.6h7.9v2.1H292v7.2h8.8v2.1h-11.2V66.4z"/>
		<path class="st0" d="M308,73.4l-1.6-2.9h-0.1l0.3,2.9v13.3h-2.3V66.1h1.3l9.7,13.5l1.5,2.8h0.1l-0.3-2.8V66.4h2.3V87h-1.3
			L308,73.4z"/>
		<path class="st0" d="M323.6,66.4h11v2.1h-8.6v6.6h7.9v2.1h-7.9v7.2h8.8v2.1h-11.2V66.4z"/>
		<path class="st0" d="M352.5,68.5h-6.3v18.2h-2.4V68.5h-6.3v-2.1h15.1V68.5z"/>
		<path class="st0" d="M355.7,66.4h2.4v20.3h-2.4V66.4z"/>
		<path class="st0" d="M376.1,85.9c-0.6,0.4-1.3,0.8-2.2,0.9C373,87,372,87,371,87c-1.2,0-2.4-0.2-3.4-0.6c-1.1-0.4-2-1-2.8-1.9
			c-0.8-0.9-1.4-1.9-1.9-3.3c-0.5-1.3-0.7-2.9-0.7-4.7c0-1.9,0.3-3.5,0.8-4.8c0.5-1.3,1.2-2.4,2-3.2c0.8-0.8,1.8-1.5,2.8-1.8
			s2.1-0.6,3.2-0.6c1.2,0,2.1,0.1,2.8,0.2c0.7,0.1,1.4,0.3,1.9,0.5l-0.6,2.1c-0.9-0.5-2.3-0.7-4-0.7c-0.8,0-1.6,0.1-2.3,0.4
			s-1.5,0.8-2.1,1.4c-0.6,0.7-1.1,1.5-1.5,2.6c-0.4,1.1-0.6,2.4-0.6,3.9c0,1.4,0.2,2.6,0.5,3.7c0.3,1,0.8,1.9,1.4,2.6
			c0.6,0.7,1.3,1.2,2.1,1.6c0.8,0.3,1.7,0.5,2.7,0.5c0.9,0,1.6-0.1,2.3-0.3c0.6-0.2,1.2-0.4,1.6-0.7L376.1,85.9z"/>
		<path class="st0" d="M389.1,81.5c0-0.8-0.2-1.5-0.7-2c-0.5-0.5-1.1-1-1.8-1.4c-0.7-0.4-1.5-0.8-2.4-1.1s-1.6-0.8-2.4-1.3
			c-0.7-0.5-1.3-1.1-1.8-1.8c-0.5-0.7-0.7-1.6-0.7-2.8c0-1.6,0.6-2.8,1.7-3.8c1.1-0.9,2.7-1.4,4.7-1.4c1.2,0,2.3,0.1,3.2,0.3
			c1,0.2,1.7,0.4,2.3,0.7l-0.7,2.1c-0.4-0.2-1.1-0.4-2-0.6c-0.9-0.2-1.8-0.3-2.9-0.3c-1.3,0-2.2,0.3-2.9,0.9c-0.6,0.6-1,1.2-1,2
			c0,0.8,0.2,1.4,0.7,1.9c0.5,0.5,1.1,1,1.8,1.3c0.7,0.4,1.5,0.8,2.4,1.2c0.9,0.4,1.6,0.8,2.4,1.3c0.7,0.5,1.3,1.1,1.8,1.8
			c0.5,0.7,0.7,1.6,0.7,2.7c0,0.9-0.2,1.7-0.5,2.3c-0.3,0.7-0.8,1.3-1.4,1.8c-0.6,0.5-1.3,0.9-2.2,1.2c-0.9,0.3-1.8,0.4-2.9,0.4
			c-1.5,0-2.6-0.1-3.6-0.3c-0.9-0.2-1.7-0.5-2.2-0.7l0.8-2.1c0.4,0.2,1.1,0.5,2,0.7s1.8,0.4,2.9,0.4c0.6,0,1.2-0.1,1.8-0.2
			c0.6-0.1,1-0.3,1.5-0.6c0.4-0.3,0.7-0.6,1-1.1C388.9,82.6,389.1,82.1,389.1,81.5z"/>
	</g>
	<g>
		<g>
			<path class="st0" d="M164.2,108.3h-1v8.7h-4V96.7h4v9l0.9-0.4l5.6-8.6h4.5l-5.9,8.5l-1.6,1.1l1.6,1.1l6.8,9.5h-4.9L164.2,108.3z"
				/>
			<path class="st0" d="M181.9,106.4l-1.6-3.2h-0.1l0.5,3.2V117h-3.8V96.6h2.9l7.7,10.8l1.5,3.1h0.1l-0.5-3.1V96.7h3.8v20.4h-2.9
				L181.9,106.4z"/>
			<path class="st0" d="M195,106.9c0-3.4,0.7-6,2.2-7.8c1.5-1.8,3.6-2.7,6.4-2.7c1.5,0,2.7,0.3,3.8,0.8c1.1,0.5,2,1.2,2.7,2.1
				c0.7,0.9,1.2,2,1.6,3.3c0.3,1.3,0.5,2.7,0.5,4.3c0,3.4-0.8,6-2.2,7.8s-3.6,2.7-6.4,2.7c-1.5,0-2.7-0.3-3.8-0.8s-2-1.2-2.7-2.1
				c-0.7-0.9-1.2-2-1.6-3.3C195.2,109.9,195,108.4,195,106.9z M199.2,106.9c0,1,0.1,2,0.3,2.8s0.4,1.6,0.8,2.2
				c0.4,0.6,0.8,1.1,1.4,1.5c0.6,0.3,1.2,0.5,2,0.5c1.4,0,2.5-0.6,3.3-1.7c0.8-1.1,1.2-2.9,1.2-5.4c0-1-0.1-1.9-0.2-2.8
				s-0.4-1.6-0.8-2.2c-0.3-0.6-0.8-1.1-1.4-1.5c-0.6-0.4-1.2-0.5-2.1-0.5c-1.4,0-2.5,0.6-3.3,1.7
				C199.5,102.7,199.2,104.4,199.2,106.9z"/>
			<path class="st0" d="M219.6,108l0.4,3.6h0.1l0.4-3.7l3.5-11.3h2.6l3.5,11.3l0.4,3.6h0.1l0.4-3.7l2.5-11.3h4l-5.6,20.4h-2.7
				l-3.6-11.3l-0.5-3.1H225l-0.5,3.1l-3.6,11.3h-2.8l-5.6-20.4h4.3L219.6,108z"/>
			<path class="st0" d="M252,117h-12.8V96.7h4v16.8h8.9V117z"/>
			<path class="st0" d="M253.8,96.7h12v3.5h-8.1v4.7h7.3v3.5h-7.3v5h8.2v3.5h-12.2V96.7z"/>
			<path class="st0" d="M275.5,106.4h7.6v9c-0.8,0.7-1.8,1.2-2.9,1.5s-2.2,0.5-3.3,0.5c-1.3,0-2.5-0.2-3.6-0.6
				c-1.1-0.4-2.1-1-2.9-1.9c-0.8-0.9-1.5-2-1.9-3.3s-0.7-2.9-0.7-4.8c0-1.9,0.3-3.5,0.8-4.9c0.6-1.3,1.3-2.4,2.2-3.3s1.9-1.5,3-1.8
				s2.3-0.6,3.4-0.6c1.2,0,2.2,0.1,3.1,0.3c0.9,0.2,1.6,0.4,2.1,0.6l-0.8,3.3c-0.5-0.2-1-0.3-1.6-0.4c-0.6-0.1-1.4-0.2-2.3-0.2
				c-0.8,0-1.6,0.1-2.3,0.4c-0.7,0.3-1.3,0.7-1.8,1.2c-0.5,0.6-0.9,1.3-1.2,2.2c-0.3,0.9-0.4,2-0.4,3.2c0,1.2,0.1,2.3,0.4,3.1
				c0.3,0.9,0.6,1.6,1.1,2.2c0.5,0.6,1,1,1.7,1.3c0.6,0.3,1.3,0.4,2.1,0.4c0.5,0,1-0.1,1.5-0.2c0.5-0.1,0.9-0.3,1.2-0.6v-3.8
				l-4.4-0.5V106.4z"/>
			<path class="st0" d="M285.8,96.7h12v3.5h-8.1v4.7h7.3v3.5h-7.3v5h8.2v3.5h-12.2V96.7z"/>
			<path class="st0" d="M307.9,96.9c0.8-0.2,1.7-0.3,2.7-0.4c1-0.1,1.9-0.1,2.9-0.1c1,0,2,0.1,3,0.2c1,0.2,1.9,0.5,2.7,1
				c0.8,0.5,1.5,1.2,2,2.1c0.5,0.9,0.8,2,0.8,3.4c0,1.3-0.2,2.4-0.7,3.2c-0.4,0.9-1,1.6-1.8,2.2s-1.6,1-2.5,1.2
				c-0.9,0.3-1.9,0.4-2.9,0.4c-0.1,0-0.3,0-0.5,0s-0.4,0-0.7,0c-0.2,0-0.5,0-0.7,0c-0.2,0-0.4,0-0.5-0.1v7h-4V96.9z M313.8,99.8
				c-0.4,0-0.8,0-1.1,0c-0.3,0-0.6,0.1-0.8,0.1v6.6c0.1,0,0.2,0,0.3,0.1c0.2,0,0.3,0,0.5,0s0.3,0,0.5,0s0.3,0,0.4,0
				c0.5,0,1,0,1.6-0.1c0.5-0.1,1-0.3,1.4-0.5c0.4-0.3,0.7-0.6,1-1.1c0.2-0.5,0.4-1.1,0.4-1.8c0-0.6-0.1-1.2-0.3-1.6
				c-0.2-0.4-0.5-0.7-0.9-1c-0.4-0.3-0.8-0.4-1.3-0.5S314.3,99.8,313.8,99.8z"/>
			<path class="st0" d="M323.6,106.9c0-3.4,0.7-6,2.2-7.8c1.5-1.8,3.6-2.7,6.4-2.7c1.5,0,2.7,0.3,3.8,0.8c1.1,0.5,2,1.2,2.7,2.1
				c0.7,0.9,1.2,2,1.6,3.3c0.3,1.3,0.5,2.7,0.5,4.3c0,3.4-0.8,6-2.2,7.8s-3.6,2.7-6.4,2.7c-1.5,0-2.7-0.3-3.8-0.8s-2-1.2-2.7-2.1
				c-0.7-0.9-1.2-2-1.6-3.3C323.8,109.9,323.6,108.4,323.6,106.9z M327.8,106.9c0,1,0.1,2,0.3,2.8s0.4,1.6,0.8,2.2
				c0.4,0.6,0.8,1.1,1.4,1.5c0.6,0.3,1.2,0.5,2,0.5c1.4,0,2.5-0.6,3.3-1.7c0.8-1.1,1.2-2.9,1.2-5.4c0-1-0.1-1.9-0.2-2.8
				s-0.4-1.6-0.8-2.2c-0.3-0.6-0.8-1.1-1.4-1.5c-0.6-0.4-1.2-0.5-2.1-0.5c-1.4,0-2.5,0.6-3.3,1.7
				C328.2,102.7,327.8,104.4,327.8,106.9z"/>
			<path class="st0" d="M343.4,96.9c0.4-0.1,0.9-0.1,1.4-0.2c0.5-0.1,1-0.1,1.5-0.2c0.5,0,1-0.1,1.5-0.1c0.5,0,0.9,0,1.3,0
				c0.9,0,1.9,0.1,2.8,0.3c0.9,0.2,1.7,0.5,2.5,0.9c0.7,0.4,1.3,1,1.7,1.8c0.4,0.7,0.7,1.7,0.7,2.8c0,1.7-0.4,3-1.2,4.1
				c-0.8,1-1.8,1.8-3.1,2.2l1.4,0.9l4.6,7.7h-4.6l-4.6-7.9l-2.1-0.4v8.3h-4V96.9z M349.5,100c-0.4,0-0.8,0-1.2,0
				c-0.4,0-0.7,0.1-0.9,0.1v5.9h1.7c1.1,0,2-0.3,2.6-0.8c0.7-0.5,1-1.3,1-2.5c0-0.9-0.3-1.6-0.8-2S350.5,100,349.5,100z"/>
			<path class="st0" d="M374.7,100.2h-5.9V117h-4v-16.8h-5.9v-3.5h15.8V100.2z"/>
			<path class="st0" d="M384.4,112.5h-6.2l-1.5,4.5h-4l7.3-20.4h2.9l7.3,20.4H386L384.4,112.5z M379.1,109.3h4.3l-1.5-4.5l-0.6-3.2
				h-0.1l-0.6,3.2L379.1,109.3z"/>
			<path class="st0" d="M404.6,117h-12.8V96.7h4v16.8h8.9V117z"/>
		</g>
	</g>
</g>
<circle class="st2" cx="74.2" cy="73.4" r="67.4"/>
<g>
	<path class="st3" d="M41.8,55.9H24.3c-0.6,0-1-0.5-1-1v0c0-0.6,0.5-1,1-1h17.5c0.6,0,1,0.5,1,1v0C42.9,55.4,42.4,55.9,41.8,55.9z"
		/>
	<path class="st3" d="M63.5,55.9H46c-0.6,0-1-0.5-1-1v0c0-0.6,0.5-1,1-1h17.5c0.6,0,1,0.5,1,1v0C64.5,55.4,64.1,55.9,63.5,55.9z"/>
	<path class="st3" d="M102.5,55.9H85c-0.6,0-1-0.5-1-1v0c0-0.6,0.5-1,1-1h17.5c0.6,0,1,0.5,1,1v0C103.5,55.4,103,55.9,102.5,55.9z"
		/>
	<path class="st3" d="M124.2,55.9h-17.5c-0.6,0-1-0.5-1-1v0c0-0.6,0.5-1,1-1h17.5c0.6,0,1,0.5,1,1v0
		C125.2,55.4,124.7,55.9,124.2,55.9z"/>
	<path class="st3" d="M66.8,110.5V89.3c0-0.7,0.6-1.2,1.2-1.2l0,0c0.7,0,1.2,0.6,1.2,1.2v21.2c0,0.7-0.6,1.2-1.2,1.2l0,0
		C67.3,111.8,66.8,111.2,66.8,110.5z"/>
	<path class="st3" d="M66.8,136.6v-21.2c0-0.7,0.6-1.2,1.2-1.2l0,0c0.7,0,1.2,0.6,1.2,1.2v21.2c0,0.7-0.6,1.2-1.2,1.2l0,0
		C67.3,137.8,66.8,137.3,66.8,136.6z"/>
	<path class="st3" d="M79.2,110.5V89.3c0-0.7,0.6-1.2,1.2-1.2l0,0c0.7,0,1.2,0.6,1.2,1.2v21.2c0,0.7-0.6,1.2-1.2,1.2l0,0
		C79.8,111.8,79.2,111.2,79.2,110.5z"/>
	<path class="st3" d="M79.2,136.6v-21.2c0-0.7,0.6-1.2,1.2-1.2l0,0c0.7,0,1.2,0.6,1.2,1.2v21.2c0,0.7-0.6,1.2-1.2,1.2l0,0
		C79.8,137.8,79.2,137.3,79.2,136.6z"/>
	<circle class="st3" cx="74.2" cy="39.8" r="5.2"/>
	<path class="st3" d="M74.2,59.8L74.2,59.8c-0.9,0-1.7-0.8-1.7-1.7v-1.8c0-0.9,0.8-1.7,1.7-1.7l0,0c0.9,0,1.7,0.8,1.7,1.7v1.8
		C76,59,75.2,59.8,74.2,59.8z"/>
	<path class="st3" d="M74.2,66.4L74.2,66.4c-0.9,0-1.7-0.8-1.7-1.7v-1.8c0-0.9,0.8-1.7,1.7-1.7l0,0c0.9,0,1.7,0.8,1.7,1.7v1.8
		C76,65.6,75.2,66.4,74.2,66.4z"/>
	<path class="st3" d="M74.2,73L74.2,73c-0.9,0-1.7-0.8-1.7-1.7v-1.8c0-0.9,0.8-1.7,1.7-1.7l0,0c0.9,0,1.7,0.8,1.7,1.7v1.8
		C76,72.2,75.2,73,74.2,73z"/>
	<path class="st3" d="M74.2,79.6L74.2,79.6c-0.9,0-1.7-0.8-1.7-1.7v-1.8c0-0.9,0.8-1.7,1.7-1.7l0,0c0.9,0,1.7,0.8,1.7,1.7v1.8
		C76,78.8,75.2,79.6,74.2,79.6z"/>
	<path class="st3" d="M74.2,86.2L74.2,86.2c-0.9,0-1.7-0.8-1.7-1.7v-1.8c0-0.9,0.8-1.7,1.7-1.7l0,0c0.9,0,1.7,0.8,1.7,1.7v1.8
		C76,85.4,75.2,86.2,74.2,86.2z"/>
</g>
</svg>
