<?xml version="1.0" encoding="utf-8"?>
<!-- Generator: Adobe Illustrator 23.0.4, SVG Export Plug-In . SVG Version: 6.00 Build 0)  -->
<svg version="1.1" id="Layer_1" xmlns="http://www.w3.org/2000/svg" xmlns:xlink="http://www.w3.org/1999/xlink" x="0px" y="0px"
	 viewBox="0 0 129.1 50" style="enable-background:new 0 0 129.1 50;" xml:space="preserve">
<style type="text/css">
	.st0{fill:#FFFFFF;}
	.st1{opacity:0.3;fill:#FFFFFF;}
	.st2{fill:none;stroke:#FFFFFF;stroke-width:1.1779;stroke-linejoin:round;stroke-miterlimit:10;}
	.st3{fill:#AFABD4;}
</style>
<g>
	<g>
		<g>
			<path class="st0" d="M104.4,22.9c-0.2-0.2-0.5-0.3-0.8-0.3c-0.3-0.1-0.6-0.1-0.9-0.1c-0.2,0-0.5,0-0.7,0c-0.2,0-0.4,0-0.5,0.1
				v4.1c0,0,0.1,0,0.2,0c0.1,0,0.2,0,0.3,0c0.1,0,0.2,0,0.3,0s0.2,0,0.2,0c0.3,0,0.6,0,1-0.1c0.3-0.1,0.6-0.2,0.9-0.3
				c0.3-0.2,0.5-0.4,0.6-0.7c0.2-0.3,0.2-0.7,0.2-1.1c0-0.4-0.1-0.7-0.2-1C104.8,23.3,104.6,23.1,104.4,22.9z"/>
			<path class="st0" d="M103,19C103,19,103,19,103,19L103,19H86.4v3.8v11.8l0,0H103v0c0,0,0,0,0,0c4.3,0,7.8-3.5,7.8-7.8
				S107.3,19,103,19z M95.5,33.2l-3.7-5.4h-0.6v5.4h-2.5V20.6h2.5v5.6l0.6-0.3l3.5-5.3h2.8l-3.7,5.3l-1,0.7l1,0.7l4.2,5.9H95.5z
				 M107.3,26.6c-0.3,0.5-0.6,1-1.1,1.3c-0.5,0.3-1,0.6-1.6,0.8c-0.6,0.2-1.2,0.2-1.8,0.2c-0.1,0-0.2,0-0.3,0c-0.1,0-0.3,0-0.4,0
				c-0.1,0-0.3,0-0.4,0c-0.1,0-0.2,0-0.3,0v4.3H99V20.7c0.5-0.1,1.1-0.2,1.7-0.2c0.6-0.1,1.2-0.1,1.8-0.1c0.6,0,1.3,0.1,1.9,0.2
				c0.6,0.1,1.2,0.3,1.7,0.6c0.5,0.3,0.9,0.7,1.2,1.3c0.3,0.5,0.5,1.3,0.5,2.1C107.7,25.4,107.6,26,107.3,26.6z"/>
		</g>
	</g>
	<g>
		<path class="st0" d="M66.1,24.1l0.2-2.4h-0.1l-0.9,2.2l-4.1,7.1h-0.6l-4.3-7.1l-0.8-2.1h-0.1l0.3,2.3v10.6H54V19h1.4l4.9,8.1
			l0.7,1.8h0l0.7-1.8l4.7-8H68v15.8h-1.9V24.1z"/>
		<path class="st0" d="M76.9,26.9h5.3v6.9c-0.2,0.2-0.5,0.3-0.9,0.5c-0.3,0.2-0.7,0.3-1.1,0.4c-0.4,0.1-0.8,0.2-1.2,0.2
			C78.6,35,78.2,35,77.9,35c-1,0-1.9-0.2-2.8-0.5c-0.8-0.3-1.6-0.8-2.2-1.5c-0.6-0.7-1.1-1.5-1.4-2.5s-0.5-2.2-0.5-3.6
			c0-1.5,0.2-2.7,0.6-3.7s1-1.9,1.6-2.5s1.4-1.1,2.3-1.4c0.8-0.3,1.7-0.5,2.5-0.5c0.9,0,1.6,0,2.2,0.1c0.6,0.1,1.1,0.2,1.5,0.4
			l-0.5,1.7c-0.7-0.4-1.7-0.5-3.1-0.5c-0.6,0-1.3,0.1-1.9,0.3c-0.6,0.2-1.2,0.6-1.7,1.1s-0.9,1.2-1.2,2c-0.3,0.8-0.5,1.8-0.5,3.1
			c0,1.1,0.1,2.1,0.4,2.9c0.3,0.8,0.6,1.5,1.1,2c0.5,0.5,1,0.9,1.6,1.2c0.6,0.3,1.3,0.4,2.1,0.4c1,0,1.8-0.2,2.4-0.6v-4.4l-3.7-0.4
			V26.9z"/>
	</g>
	<g>
		<circle class="st0" cx="24.3" cy="15.8" r="2.4"/>
		<path class="st1" d="M40.2,14.4c-0.2-0.6-0.8-0.9-1.4-0.7l-14.6,5.1L9.7,13.7c-0.6-0.2-1.2,0.1-1.4,0.7c-0.2,0.6,0.1,1.2,0.7,1.4
			L21,20v9.8l-4.6,12.7c-0.3,0.7,0.1,1.5,0.8,1.8s1.5-0.1,1.8-0.8l4.4-12.2H25l4.4,12.2c0.3,0.7,1.1,1.1,1.8,0.8
			c0.7-0.3,1.1-1.1,0.8-1.8L27.5,30V20l12-4.2C40.1,15.6,40.4,15,40.2,14.4z"/>
		<path class="st0" d="M39.2,19.1H9.3c-0.6,0-1.1,0.5-1.1,1.1s0.5,1.1,1.1,1.1H21v6.8v3.2V44c0,0.8,0.6,1.4,1.4,1.4
			c0.8,0,1.4-0.6,1.4-1.4V31.3h0.8V44c0,0.8,0.6,1.4,1.4,1.4s1.4-0.6,1.4-1.4V31.3v-3.2v-6.8h11.6c0.6,0,1.1-0.5,1.1-1.1
			S39.8,19.1,39.2,19.1z"/>
		<circle class="st2" cx="24.3" cy="25.7" r="19.8"/>
		<g>
			<path class="st3" d="M14.7,20.5H9.5c-0.2,0-0.3-0.1-0.3-0.3l0,0c0-0.2,0.1-0.3,0.3-0.3h5.2c0.2,0,0.3,0.1,0.3,0.3l0,0
				C15,20.4,14.9,20.5,14.7,20.5z"/>
			<path class="st3" d="M21.1,20.5h-5.2c-0.2,0-0.3-0.1-0.3-0.3l0,0c0-0.2,0.1-0.3,0.3-0.3h5.2c0.2,0,0.3,0.1,0.3,0.3l0,0
				C21.4,20.4,21.3,20.5,21.1,20.5z"/>
			<path class="st3" d="M32.6,20.5h-5.2c-0.2,0-0.3-0.1-0.3-0.3l0,0c0-0.2,0.1-0.3,0.3-0.3h5.2c0.2,0,0.3,0.1,0.3,0.3l0,0
				C32.9,20.4,32.7,20.5,32.6,20.5z"/>
			<path class="st3" d="M39,20.5h-5.2c-0.2,0-0.3-0.1-0.3-0.3l0,0c0-0.2,0.1-0.3,0.3-0.3H39c0.2,0,0.3,0.1,0.3,0.3l0,0
				C39.3,20.4,39.1,20.5,39,20.5z"/>
			<path class="st3" d="M22.1,36.6v-6.2c0-0.2,0.2-0.4,0.4-0.4l0,0c0.2,0,0.4,0.2,0.4,0.4v6.2c0,0.2-0.2,0.4-0.4,0.4l0,0
				C22.2,37,22.1,36.8,22.1,36.6z"/>
			<path class="st3" d="M22.1,44.3V38c0-0.2,0.2-0.4,0.4-0.4l0,0c0.2,0,0.4,0.2,0.4,0.4v6.2c0,0.2-0.2,0.4-0.4,0.4l0,0
				C22.2,44.6,22.1,44.5,22.1,44.3z"/>
			<path class="st3" d="M25.7,36.6v-6.2c0-0.2,0.2-0.4,0.4-0.4h0c0.2,0,0.4,0.2,0.4,0.4v6.2c0,0.2-0.2,0.4-0.4,0.4h0
				C25.9,37,25.7,36.8,25.7,36.6z"/>
			<path class="st3" d="M25.7,44.3V38c0-0.2,0.2-0.4,0.4-0.4h0c0.2,0,0.4,0.2,0.4,0.4v6.2c0,0.2-0.2,0.4-0.4,0.4h0
				C25.9,44.6,25.7,44.5,25.7,44.3z"/>
			<circle class="st3" cx="24.3" cy="15.8" r="1.5"/>
			<path class="st3" d="M24.3,21.7L24.3,21.7c-0.3,0-0.5-0.2-0.5-0.5v-0.5c0-0.3,0.2-0.5,0.5-0.5l0,0c0.3,0,0.5,0.2,0.5,0.5v0.5
				C24.8,21.4,24.5,21.7,24.3,21.7z"/>
			<path class="st3" d="M24.3,23.6L24.3,23.6c-0.3,0-0.5-0.2-0.5-0.5v-0.5c0-0.3,0.2-0.5,0.5-0.5l0,0c0.3,0,0.5,0.2,0.5,0.5v0.5
				C24.8,23.4,24.5,23.6,24.3,23.6z"/>
			<path class="st3" d="M24.3,25.5L24.3,25.5c-0.3,0-0.5-0.2-0.5-0.5v-0.5c0-0.3,0.2-0.5,0.5-0.5l0,0c0.3,0,0.5,0.2,0.5,0.5V25
				C24.8,25.3,24.5,25.5,24.3,25.5z"/>
			<path class="st3" d="M24.3,27.5L24.3,27.5c-0.3,0-0.5-0.2-0.5-0.5v-0.5c0-0.3,0.2-0.5,0.5-0.5l0,0c0.3,0,0.5,0.2,0.5,0.5V27
				C24.8,27.3,24.5,27.5,24.3,27.5z"/>
			<path class="st3" d="M24.3,29.4L24.3,29.4c-0.3,0-0.5-0.2-0.5-0.5v-0.5c0-0.3,0.2-0.5,0.5-0.5l0,0c0.3,0,0.5,0.2,0.5,0.5v0.5
				C24.8,29.2,24.5,29.4,24.3,29.4z"/>
		</g>
	</g>
</g>
</svg>
