<?xml version="1.0" encoding="utf-8"?>
<!-- Generator: Adobe Illustrator 23.0.4, SVG Export Plug-In . SVG Version: 6.00 Build 0)  -->
<svg version="1.1" id="Layer_1" xmlns="http://www.w3.org/2000/svg" xmlns:xlink="http://www.w3.org/1999/xlink" x="0px" y="0px"
	 viewBox="0 0 387.6 48.3" style="enable-background:new 0 0 387.6 48.3;" xml:space="preserve">
<style type="text/css">
	.st0{fill:#FFFFFF;}
	.st1{font-family:'Helvetica-Light';}
	.st2{font-size:9.5px;}
	.st3{opacity:0.3;fill:#FFFFFF;enable-background:new    ;}
	.st4{fill:none;stroke:#FFFFFF;stroke-width:1.1779;stroke-linejoin:round;stroke-miterlimit:10;}
	.st5{fill:#AFABD5;}
</style>
<g>
	<rect x="117.4" y="7.3" class="st0" width="0.4" height="32.4"/>
	<g>
		<g id="RMN70a.tif_1_">
			
				<image style="overflow:visible;" width="860" height="283" id="Layer_0_2_" xlink:href="FEE7F19969CBFC1.png"  transform="matrix(0.1131 0 0 0.1131 126.3858 7.9701)">
			</image>
		</g>
		<text transform="matrix(1 0 0 1 230.0046 20.861)"><tspan x="0" y="0" class="st1 st2">International Federation of </tspan><tspan x="0" y="11" class="st1 st2">Musculoskeletal Research Societies</tspan></text>
	</g>
	<g>
		<g>
			<g>
				<path class="st0" d="M104.6,20.7c-0.2-0.2-0.5-0.3-0.8-0.3c-0.3-0.1-0.6-0.1-0.9-0.1c-0.2,0-0.5,0-0.7,0s-0.4,0-0.5,0.1v4.1
					c0,0,0.1,0,0.2,0s0.2,0,0.3,0c0.1,0,0.2,0,0.3,0s0.2,0,0.2,0c0.3,0,0.6,0,1-0.1c0.3-0.1,0.6-0.2,0.9-0.3
					c0.3-0.2,0.5-0.4,0.6-0.7c0.2-0.3,0.2-0.7,0.2-1.1s-0.1-0.7-0.2-1C105,21.1,104.8,20.9,104.6,20.7z"/>
				<path class="st0" d="M103.2,16.8L103.2,16.8L103.2,16.8H86.6v3.8v11.8l0,0h16.6l0,0l0,0c4.3,0,7.8-3.5,7.8-7.8
					S107.5,16.8,103.2,16.8z M95.7,31L92,25.6h-0.6V31h-2.5V18.4h2.5V24l0.6-0.3l3.5-5.3h2.8l-3.7,5.3l-1,0.7l1,0.7l4.2,5.9
					C98.8,31,95.7,31,95.7,31z M107.5,24.4c-0.3,0.5-0.6,1-1.1,1.3s-1,0.6-1.6,0.8c-0.6,0.2-1.2,0.2-1.8,0.2c-0.1,0-0.2,0-0.3,0
					c-0.1,0-0.3,0-0.4,0s-0.3,0-0.4,0s-0.2,0-0.3,0V31h-2.4V18.5c0.5-0.1,1.1-0.2,1.7-0.2c0.6-0.1,1.2-0.1,1.8-0.1
					c0.6,0,1.3,0.1,1.9,0.2s1.2,0.3,1.7,0.6c0.5,0.3,0.9,0.7,1.2,1.3c0.3,0.5,0.5,1.3,0.5,2.1C107.9,23.2,107.8,23.8,107.5,24.4z"/>
			</g>
		</g>
		<g>
			<path class="st0" d="M66.3,21.9l0.2-2.4h-0.1l-0.9,2.2l-4.1,7.1h-0.6l-4.3-7.1l-0.8-2.1h-0.1l0.3,2.3v10.6h-1.7V16.8h1.4l4.9,8.1
				l0.7,1.8l0,0l0.7-1.8l4.7-8h1.6v15.8h-1.9V21.9z"/>
			<path class="st0" d="M77.1,24.7h5.3v6.9c-0.2,0.2-0.5,0.3-0.9,0.5c-0.3,0.2-0.7,0.3-1.1,0.4c-0.4,0.1-0.8,0.2-1.2,0.2
				c-0.4,0.1-0.8,0.1-1.1,0.1c-1,0-1.9-0.2-2.8-0.5c-0.8-0.3-1.6-0.8-2.2-1.5s-1.1-1.5-1.4-2.5s-0.5-2.2-0.5-3.6
				c0-1.5,0.2-2.7,0.6-3.7s1-1.9,1.6-2.5s1.4-1.1,2.3-1.4c0.8-0.3,1.7-0.5,2.5-0.5c0.9,0,1.6,0,2.2,0.1s1.1,0.2,1.5,0.4l-0.5,1.7
				c-0.7-0.4-1.7-0.5-3.1-0.5c-0.6,0-1.3,0.1-1.9,0.3c-0.6,0.2-1.2,0.6-1.7,1.1s-0.9,1.2-1.2,2c-0.3,0.8-0.5,1.8-0.5,3.1
				c0,1.1,0.1,2.1,0.4,2.9s0.6,1.5,1.1,2c0.5,0.5,1,0.9,1.6,1.2s1.3,0.4,2.1,0.4c1,0,1.8-0.2,2.4-0.6v-4.4l-3.7-0.4v-1.2H77.1z"/>
		</g>
		<g>
			<circle class="st0" cx="24.5" cy="13.6" r="2.4"/>
			<path class="st3" d="M40.4,12.2c-0.2-0.6-0.8-0.9-1.4-0.7l-14.6,5.1L9.9,11.5c-0.6-0.2-1.2,0.1-1.4,0.7c-0.2,0.6,0.1,1.2,0.7,1.4
				l12,4.2v9.8l-4.6,12.7c-0.3,0.7,0.1,1.5,0.8,1.8s1.5-0.1,1.8-0.8l4.4-12.2h1.6l4.4,12.2c0.3,0.7,1.1,1.1,1.8,0.8
				c0.7-0.3,1.1-1.1,0.8-1.8l-4.5-12.5v-10l12-4.2C40.3,13.4,40.6,12.8,40.4,12.2z"/>
			<path class="st0" d="M39.4,16.9H9.5c-0.6,0-1.1,0.5-1.1,1.1s0.5,1.1,1.1,1.1h11.7v6.8v3.2v12.7c0,0.8,0.6,1.4,1.4,1.4
				s1.4-0.6,1.4-1.4V29.1h0.8v12.7c0,0.8,0.6,1.4,1.4,1.4s1.4-0.6,1.4-1.4V29.1v-3.2v-6.8h11.6c0.6,0,1.1-0.5,1.1-1.1
				S40,16.9,39.4,16.9z"/>
			<circle class="st4" cx="24.5" cy="23.5" r="19.8"/>
			<g>
				<path class="st5" d="M14.9,18.3H9.7c-0.2,0-0.3-0.1-0.3-0.3l0,0c0-0.2,0.1-0.3,0.3-0.3h5.2c0.2,0,0.3,0.1,0.3,0.3l0,0
					C15.2,18.2,15.1,18.3,14.9,18.3z"/>
				<path class="st5" d="M21.3,18.3h-5.2c-0.2,0-0.3-0.1-0.3-0.3l0,0c0-0.2,0.1-0.3,0.3-0.3h5.2c0.2,0,0.3,0.1,0.3,0.3l0,0
					C21.6,18.2,21.5,18.3,21.3,18.3z"/>
				<path class="st5" d="M32.8,18.3h-5.2c-0.2,0-0.3-0.1-0.3-0.3l0,0c0-0.2,0.1-0.3,0.3-0.3h5.2c0.2,0,0.3,0.1,0.3,0.3l0,0
					C33.1,18.2,32.9,18.3,32.8,18.3z"/>
				<path class="st5" d="M39.2,18.3H34c-0.2,0-0.3-0.1-0.3-0.3l0,0c0-0.2,0.1-0.3,0.3-0.3h5.2c0.2,0,0.3,0.1,0.3,0.3l0,0
					C39.5,18.2,39.3,18.3,39.2,18.3z"/>
				<path class="st5" d="M22.3,34.4v-6.2c0-0.2,0.2-0.4,0.4-0.4l0,0c0.2,0,0.4,0.2,0.4,0.4v6.2c0,0.2-0.2,0.4-0.4,0.4l0,0
					C22.4,34.8,22.3,34.6,22.3,34.4z"/>
				<path class="st5" d="M22.3,42.1v-6.3c0-0.2,0.2-0.4,0.4-0.4l0,0c0.2,0,0.4,0.2,0.4,0.4V42c0,0.2-0.2,0.4-0.4,0.4l0,0
					C22.4,42.4,22.3,42.3,22.3,42.1z"/>
				<path class="st5" d="M25.9,34.4v-6.2c0-0.2,0.2-0.4,0.4-0.4l0,0c0.2,0,0.4,0.2,0.4,0.4v6.2c0,0.2-0.2,0.4-0.4,0.4l0,0
					C26.1,34.8,25.9,34.6,25.9,34.4z"/>
				<path class="st5" d="M25.9,42.1v-6.3c0-0.2,0.2-0.4,0.4-0.4l0,0c0.2,0,0.4,0.2,0.4,0.4V42c0,0.2-0.2,0.4-0.4,0.4l0,0
					C26.1,42.4,25.9,42.3,25.9,42.1z"/>
				<circle class="st5" cx="24.5" cy="13.6" r="1.5"/>
				<path class="st5" d="M24.5,19.5L24.5,19.5c-0.3,0-0.5-0.2-0.5-0.5v-0.5c0-0.3,0.2-0.5,0.5-0.5l0,0c0.3,0,0.5,0.2,0.5,0.5V19
					C25,19.2,24.7,19.5,24.5,19.5z"/>
				<path class="st5" d="M24.5,21.4L24.5,21.4c-0.3,0-0.5-0.2-0.5-0.5v-0.5c0-0.3,0.2-0.5,0.5-0.5l0,0c0.3,0,0.5,0.2,0.5,0.5v0.5
					C25,21.2,24.7,21.4,24.5,21.4z"/>
				<path class="st5" d="M24.5,23.3L24.5,23.3c-0.3,0-0.5-0.2-0.5-0.5v-0.5c0-0.3,0.2-0.5,0.5-0.5l0,0c0.3,0,0.5,0.2,0.5,0.5v0.5
					C25,23.1,24.7,23.3,24.5,23.3z"/>
				<path class="st5" d="M24.5,25.3L24.5,25.3c-0.3,0-0.5-0.2-0.5-0.5v-0.5c0-0.3,0.2-0.5,0.5-0.5l0,0c0.3,0,0.5,0.2,0.5,0.5v0.5
					C25,25.1,24.7,25.3,24.5,25.3z"/>
				<path class="st5" d="M24.5,27.2L24.5,27.2c-0.3,0-0.5-0.2-0.5-0.5v-0.5c0-0.3,0.2-0.5,0.5-0.5l0,0c0.3,0,0.5,0.2,0.5,0.5v0.5
					C25,27,24.7,27.2,24.5,27.2z"/>
			</g>
		</g>
	</g>
</g>
</svg>
