<?xml version="1.0" encoding="utf-8"?>
<!-- Generator: Adobe Illustrator 23.0.3, SVG Export Plug-In . SVG Version: 6.00 Build 0)  -->
<svg version="1.1" id="Layer_1" xmlns="http://www.w3.org/2000/svg" xmlns:xlink="http://www.w3.org/1999/xlink" x="0px" y="0px"
	 viewBox="0 0 129.1 50" style="enable-background:new 0 0 129.1 50;" xml:space="preserve">
<style type="text/css">
	.st0{fill:#FFFFFF;}
	.st1{opacity:0.3;fill:#FFFFFF;}
	.st2{fill:none;stroke:#FFFFFF;stroke-width:1.1779;stroke-linejoin:round;stroke-miterlimit:10;}
	.st3{fill:#B0ACD5;}
</style>
<g>
	<g>
		<path class="st0" d="M119.7,22.7c-0.2-0.2-0.5-0.3-0.8-0.3c-0.3-0.1-0.6-0.1-0.9-0.1c-0.2,0-0.5,0-0.7,0c-0.2,0-0.4,0-0.5,0.1v4.1
			c0,0,0.1,0,0.2,0c0.1,0,0.2,0,0.3,0c0.1,0,0.2,0,0.3,0s0.2,0,0.2,0c0.3,0,0.6,0,1-0.1c0.3-0.1,0.6-0.2,0.9-0.3
			c0.3-0.2,0.5-0.4,0.6-0.7c0.2-0.3,0.2-0.7,0.2-1.1c0-0.4-0.1-0.7-0.2-1C120.1,23,119.9,22.8,119.7,22.7z"/>
		<path class="st0" d="M118.3,18.7C118.3,18.7,118.3,18.7,118.3,18.7L118.3,18.7h-16.6v3.8v11.8l0,0h16.6v0c0,0,0,0,0,0
			c4.3,0,7.8-3.5,7.8-7.8S122.7,18.7,118.3,18.7z M110.8,32.9l-3.7-5.4h-0.6v5.4H104V20.3h2.5v5.6l0.6-0.3l3.5-5.3h2.8l-3.7,5.3
			l-1,0.7l1,0.7l4.2,5.9H110.8z M122.7,26.3c-0.3,0.5-0.6,1-1.1,1.3c-0.5,0.3-1,0.6-1.6,0.8c-0.6,0.2-1.2,0.2-1.8,0.2
			c-0.1,0-0.2,0-0.3,0c-0.1,0-0.3,0-0.4,0c-0.1,0-0.3,0-0.4,0c-0.1,0-0.2,0-0.3,0v4.3h-2.5V20.4c0.5-0.1,1.1-0.2,1.7-0.2
			c0.6-0.1,1.2-0.1,1.8-0.1c0.6,0,1.3,0.1,1.9,0.2c0.6,0.1,1.2,0.3,1.7,0.6c0.5,0.3,0.9,0.7,1.2,1.3c0.3,0.5,0.5,1.3,0.5,2.1
			C123.1,25.1,122.9,25.8,122.7,26.3z"/>
	</g>
</g>
<g>
	<path class="st0" d="M65.9,23.9l0.2-2.4H66l-0.9,2.2L61,30.8h-0.6l-4.3-7.1l-0.8-2.1h-0.1l0.3,2.3v10.6h-1.8V18.7h1.4l4.9,8.1
		l0.7,1.8h0l0.7-1.8l4.7-8h1.5v15.8h-1.9V23.9z"/>
	<path class="st0" d="M71.4,18.7c0.3,0,0.6-0.1,1-0.1c0.4,0,0.7,0,1.1,0c0.4,0,0.8,0,1.1,0c0.4,0,0.7,0,1,0c1.3,0,2.4,0.2,3.3,0.6
		c0.9,0.4,1.7,0.9,2.3,1.6c0.6,0.7,1,1.5,1.3,2.5c0.3,1,0.4,2,0.4,3.2c0,1.1-0.1,2.1-0.4,3.1c-0.3,1-0.7,1.9-1.3,2.6
		c-0.6,0.8-1.4,1.4-2.3,1.8c-1,0.5-2.1,0.7-3.5,0.7c-0.2,0-0.6,0-0.9,0c-0.4,0-0.8,0-1.2,0c-0.4,0-0.8,0-1.1-0.1
		c-0.3,0-0.6,0-0.7-0.1V18.7z M75.7,20.2c-0.2,0-0.4,0-0.6,0s-0.5,0-0.7,0c-0.2,0-0.4,0-0.6,0c-0.2,0-0.3,0-0.4,0v12.6
		c0.1,0,0.2,0,0.4,0c0.2,0,0.4,0,0.7,0c0.2,0,0.4,0,0.7,0s0.4,0,0.4,0c1,0,1.9-0.2,2.6-0.5c0.7-0.4,1.3-0.8,1.7-1.5s0.7-1.3,0.9-2.1
		c0.2-0.8,0.3-1.6,0.3-2.4c0-0.7-0.1-1.5-0.2-2.2s-0.5-1.4-0.9-2c-0.4-0.6-0.9-1.1-1.6-1.5S76.7,20.2,75.7,20.2z"/>
	<path class="st0" d="M91.4,26.6h5.3v6.9c-0.2,0.2-0.5,0.3-0.9,0.5c-0.3,0.2-0.7,0.3-1.1,0.4c-0.4,0.1-0.8,0.2-1.2,0.2
		c-0.4,0.1-0.8,0.1-1.2,0.1c-1,0-1.9-0.2-2.8-0.5c-0.8-0.3-1.6-0.8-2.2-1.5c-0.6-0.7-1.1-1.5-1.4-2.5s-0.5-2.2-0.5-3.6
		c0-1.5,0.2-2.7,0.6-3.7s1-1.9,1.6-2.5s1.4-1.1,2.3-1.4c0.8-0.3,1.7-0.5,2.5-0.5c0.9,0,1.6,0,2.2,0.1s1.1,0.2,1.5,0.4l-0.5,1.7
		c-0.7-0.4-1.7-0.5-3.1-0.5c-0.6,0-1.3,0.1-1.9,0.3c-0.6,0.2-1.2,0.6-1.7,1.1s-0.9,1.2-1.2,2c-0.3,0.8-0.5,1.8-0.5,3.1
		c0,1.1,0.1,2.1,0.4,2.9c0.3,0.8,0.6,1.5,1.1,2c0.5,0.5,1,0.9,1.6,1.2c0.6,0.3,1.3,0.4,2.1,0.4c1,0,1.8-0.2,2.4-0.6v-4.4l-3.7-0.4
		V26.6z"/>
</g>
<g>
	<circle class="st0" cx="24" cy="15.5" r="2.4"/>
	<path class="st1" d="M40,14.1c-0.2-0.6-0.8-0.9-1.4-0.7L24,18.5L9.4,13.5c-0.6-0.2-1.2,0.1-1.4,0.7c-0.2,0.6,0.1,1.2,0.7,1.4
		l12.1,4.2v9.8l-4.6,12.7c-0.3,0.7,0.1,1.5,0.8,1.8c0.7,0.3,1.5-0.1,1.8-0.8L23.3,31h1.5l4.4,12.2c0.3,0.7,1.1,1.1,1.8,0.8
		c0.7-0.3,1.1-1.1,0.8-1.8l-4.6-12.6v-10l12-4.2C39.9,15.3,40.2,14.7,40,14.1z"/>
	<path class="st0" d="M38.9,18.8H9.1c-0.6,0-1.1,0.5-1.1,1.1C8,20.5,8.5,21,9.1,21h11.7v6.8V31v12.7c0,0.8,0.6,1.4,1.4,1.4
		c0.8,0,1.4-0.6,1.4-1.4V31h0.8v12.7c0,0.8,0.6,1.4,1.4,1.4s1.4-0.6,1.4-1.4V31v-3.2V21h11.6c0.6,0,1.1-0.5,1.1-1.1
		C40,19.3,39.5,18.8,38.9,18.8z"/>
	<circle class="st2" cx="24" cy="25.4" r="19.8"/>
	<g>
		<path class="st3" d="M14.5,20.2H9.3c-0.2,0-0.3-0.1-0.3-0.3v0c0-0.2,0.1-0.3,0.3-0.3h5.2c0.2,0,0.3,0.1,0.3,0.3v0
			C14.8,20.1,14.6,20.2,14.5,20.2z"/>
		<path class="st3" d="M20.9,20.2h-5.2c-0.2,0-0.3-0.1-0.3-0.3v0c0-0.2,0.1-0.3,0.3-0.3h5.2c0.2,0,0.3,0.1,0.3,0.3v0
			C21.2,20.1,21,20.2,20.9,20.2z"/>
		<path class="st3" d="M32.3,20.2h-5.2c-0.2,0-0.3-0.1-0.3-0.3v0c0-0.2,0.1-0.3,0.3-0.3h5.2c0.2,0,0.3,0.1,0.3,0.3v0
			C32.6,20.1,32.5,20.2,32.3,20.2z"/>
		<path class="st3" d="M38.7,20.2h-5.2c-0.2,0-0.3-0.1-0.3-0.3v0c0-0.2,0.1-0.3,0.3-0.3h5.2c0.2,0,0.3,0.1,0.3,0.3v0
			C39,20.1,38.9,20.2,38.7,20.2z"/>
		<path class="st3" d="M21.8,36.3v-6.2c0-0.2,0.2-0.4,0.4-0.4l0,0c0.2,0,0.4,0.2,0.4,0.4v6.2c0,0.2-0.2,0.4-0.4,0.4l0,0
			C22,36.7,21.8,36.5,21.8,36.3z"/>
		<path class="st3" d="M21.8,44v-6.2c0-0.2,0.2-0.4,0.4-0.4l0,0c0.2,0,0.4,0.2,0.4,0.4V44c0,0.2-0.2,0.4-0.4,0.4l0,0
			C22,44.4,21.8,44.2,21.8,44z"/>
		<path class="st3" d="M25.5,36.3v-6.2c0-0.2,0.2-0.4,0.4-0.4l0,0c0.2,0,0.4,0.2,0.4,0.4v6.2c0,0.2-0.2,0.4-0.4,0.4l0,0
			C25.6,36.7,25.5,36.5,25.5,36.3z"/>
		<path class="st3" d="M25.5,44v-6.2c0-0.2,0.2-0.4,0.4-0.4l0,0c0.2,0,0.4,0.2,0.4,0.4V44c0,0.2-0.2,0.4-0.4,0.4l0,0
			C25.6,44.4,25.5,44.2,25.5,44z"/>
		<circle class="st3" cx="24" cy="15.5" r="1.5"/>
		<path class="st3" d="M24,21.4L24,21.4c-0.3,0-0.5-0.2-0.5-0.5v-0.5c0-0.3,0.2-0.5,0.5-0.5h0c0.3,0,0.5,0.2,0.5,0.5v0.5
			C24.5,21.2,24.3,21.4,24,21.4z"/>
		<path class="st3" d="M24,23.3L24,23.3c-0.3,0-0.5-0.2-0.5-0.5v-0.5c0-0.3,0.2-0.5,0.5-0.5h0c0.3,0,0.5,0.2,0.5,0.5v0.5
			C24.5,23.1,24.3,23.3,24,23.3z"/>
		<path class="st3" d="M24,25.3L24,25.3c-0.3,0-0.5-0.2-0.5-0.5v-0.5c0-0.3,0.2-0.5,0.5-0.5h0c0.3,0,0.5,0.2,0.5,0.5v0.5
			C24.5,25,24.3,25.3,24,25.3z"/>
		<path class="st3" d="M24,27.2L24,27.2c-0.3,0-0.5-0.2-0.5-0.5v-0.5c0-0.3,0.2-0.5,0.5-0.5h0c0.3,0,0.5,0.2,0.5,0.5v0.5
			C24.5,27,24.3,27.2,24,27.2z"/>
		<path class="st3" d="M24,29.2L24,29.2c-0.3,0-0.5-0.2-0.5-0.5v-0.5c0-0.3,0.2-0.5,0.5-0.5h0c0.3,0,0.5,0.2,0.5,0.5v0.5
			C24.5,28.9,24.3,29.2,24,29.2z"/>
	</g>
</g>
</svg>
