<?xml version="1.0" encoding="utf-8"?>
<!-- Generator: Adobe Illustrator 23.0.4, SVG Export Plug-In . SVG Version: 6.00 Build 0)  -->
<svg version="1.1" id="Layer_1" xmlns="http://www.w3.org/2000/svg" xmlns:xlink="http://www.w3.org/1999/xlink" x="0px" y="0px"
	 viewBox="0 0 411.9 151" style="enable-background:new 0 0 411.9 151;" xml:space="preserve">
<style type="text/css">
	.st0{fill:#FFFFFF;}
	.st1{fill:none;stroke:#FFFFFF;stroke-width:3.8655;stroke-miterlimit:10;}
</style>
<g>
	<g>
		<g>
			<path class="st0" d="M173.9,51.5h-7.7v22.2h-2.9V51.5h-7.7v-2.6h18.4V51.5z"/>
			<path class="st0" d="M184.3,63.8l-8.2-15h3.4l5.8,10.9l0.6,2.2h0l0.7-2.2l5.6-10.8h3.1l-8.1,14.9v9.9h-2.9V63.8z"/>
			<path class="st0" d="M198.7,49.1c0.9-0.2,1.9-0.4,2.9-0.4c1-0.1,2.1-0.1,3.1-0.1c1.1,0,2.2,0.1,3.3,0.3s2.1,0.6,3.1,1.2
				s1.7,1.3,2.3,2.3c0.6,1,0.9,2.3,0.9,3.8c0,1.5-0.3,2.8-0.8,3.8c-0.5,1-1.3,1.9-2.2,2.5c-0.9,0.7-1.9,1.1-3.1,1.4
				c-1.2,0.3-2.4,0.4-3.6,0.4c-0.1,0-0.3,0-0.6,0s-0.6,0-0.9,0c-0.3,0-0.6,0-0.9-0.1c-0.3,0-0.5,0-0.6-0.1v9.4h-2.9V49.1z
				 M204.8,51.1c-0.6,0-1.2,0-1.8,0c-0.6,0-1,0.1-1.3,0.2v10.3c0.1,0,0.3,0.1,0.6,0.1c0.3,0,0.5,0,0.8,0c0.3,0,0.6,0,0.8,0
				c0.3,0,0.4,0,0.6,0c0.8,0,1.6-0.1,2.4-0.2c0.8-0.2,1.5-0.4,2.1-0.8c0.6-0.4,1.2-1,1.5-1.7s0.6-1.7,0.6-2.8c0-1-0.2-1.8-0.6-2.4
				s-0.9-1.2-1.5-1.6c-0.6-0.4-1.3-0.7-2-0.8C206.3,51.2,205.5,51.1,204.8,51.1z"/>
			<path class="st0" d="M218.1,48.8h13.5v2.6H221v8.1h9.7v2.6H221v8.8h10.8v2.6h-13.7V48.8z"/>
			<path class="st0" d="M252.3,54.5c0,1.3-0.2,2.5-0.7,3.9c-0.5,1.3-1.1,2.6-1.8,4c-0.7,1.3-1.6,2.6-2.5,3.9
				c-0.9,1.3-1.8,2.5-2.8,3.6l-1.7,1.5v0.1l2.3-0.4h7.7v2.6h-14.1v-1c0.5-0.5,1.1-1.2,1.9-2c0.7-0.8,1.5-1.7,2.3-2.7
				c0.8-1,1.6-2,2.3-3.1c0.8-1.1,1.5-2.2,2.1-3.4c0.6-1.1,1.1-2.3,1.5-3.4c0.4-1.1,0.6-2.2,0.6-3.2c0-1.2-0.3-2.1-1-2.9
				c-0.7-0.8-1.7-1.2-3-1.2c-0.9,0-1.8,0.2-2.6,0.6c-0.9,0.4-1.6,0.8-2.2,1.3l-1.2-2c0.8-0.7,1.8-1.3,2.9-1.7
				c1.1-0.4,2.4-0.6,3.7-0.6c1,0,1.9,0.1,2.7,0.4c0.8,0.3,1.4,0.7,2,1.3c0.5,0.5,1,1.2,1.2,1.9S252.3,53.6,252.3,54.5z"/>
			<path class="st0" d="M260.5,48.8c0.4-0.1,1-0.1,1.5-0.2c0.6,0,1.1-0.1,1.7-0.1c0.6,0,1.2,0,1.8,0c0.6,0,1.1,0,1.6,0
				c2,0,3.7,0.3,5.2,0.9c1.5,0.6,2.7,1.5,3.6,2.6c0.9,1.1,1.7,2.4,2.1,4c0.5,1.5,0.7,3.2,0.7,5.1c0,1.7-0.2,3.3-0.7,4.8
				c-0.4,1.6-1.1,2.9-2.1,4.1c-0.9,1.2-2.2,2.2-3.7,2.9c-1.5,0.7-3.3,1.1-5.5,1.1c-0.4,0-0.9,0-1.5,0c-0.6,0-1.2,0-1.9-0.1
				c-0.6,0-1.2-0.1-1.8-0.1c-0.5,0-0.9-0.1-1.2-0.1V48.8z M267.2,51.2c-0.3,0-0.6,0-1,0s-0.7,0-1.1,0c-0.4,0-0.7,0-1,0.1
				c-0.3,0-0.5,0-0.7,0.1v19.9c0.1,0,0.3,0,0.7,0.1c0.3,0,0.7,0,1,0c0.4,0,0.7,0,1,0c0.3,0,0.6,0,0.7,0c1.7,0,3-0.3,4.2-0.9
				c1.1-0.6,2-1.3,2.7-2.3s1.2-2.1,1.4-3.3c0.3-1.2,0.4-2.5,0.4-3.9c0-1.2-0.1-2.3-0.4-3.5c-0.3-1.2-0.7-2.2-1.3-3.2
				c-0.6-0.9-1.5-1.7-2.6-2.3C270.2,51.5,268.8,51.2,267.2,51.2z"/>
			<path class="st0" d="M283.6,48.8h2.9v24.9h-2.9V48.8z"/>
			<path class="st0" d="M304.7,66.8h-9.1l-2.5,6.9h-2.9l9.4-25.2h1.3l9.4,25.2h-3.1L304.7,66.8z M296.5,64.3h7.3l-2.8-7.6l-0.9-3.8
				h0l-0.9,3.8L296.5,64.3z"/>
			<path class="st0" d="M328.7,54.5c0,0.6-0.1,1.2-0.3,1.8c-0.2,0.6-0.5,1.2-0.9,1.7c-0.4,0.5-0.9,1-1.5,1.4
				c-0.6,0.4-1.3,0.7-2.1,0.9v0.1c0.7,0.1,1.4,0.3,2,0.6c0.7,0.3,1.2,0.7,1.7,1.2s0.9,1.1,1.2,1.8c0.3,0.7,0.5,1.6,0.5,2.5
				c0,1.3-0.3,2.4-0.8,3.3c-0.5,0.9-1.2,1.7-2.1,2.3c-0.9,0.6-1.9,1-3,1.3c-1.1,0.3-2.2,0.4-3.4,0.4c-0.4,0-0.9,0-1.4,0
				c-0.5,0-1.1,0-1.7-0.1c-0.6,0-1.2-0.1-1.8-0.1c-0.6-0.1-1.1-0.1-1.6-0.3V49.1c0.9-0.1,1.9-0.3,3.1-0.4c1.2-0.1,2.4-0.1,3.8-0.1
				c0.9,0,1.9,0.1,2.8,0.2c1,0.2,1.8,0.4,2.6,0.9c0.8,0.4,1.4,1,1.9,1.8C328.4,52.3,328.7,53.3,328.7,54.5z M318.5,59.8
				c0.4,0,0.9,0,1.5,0c0.6,0,1-0.1,1.4-0.1c0.6-0.2,1.1-0.4,1.6-0.7c0.5-0.3,0.9-0.6,1.3-1c0.4-0.4,0.7-0.8,0.9-1.3
				c0.2-0.5,0.3-1,0.3-1.6c0-0.8-0.1-1.4-0.4-1.9c-0.3-0.5-0.7-0.9-1.2-1.2c-0.5-0.3-1.1-0.5-1.7-0.7c-0.6-0.1-1.3-0.2-2-0.2
				c-0.8,0-1.5,0-2.1,0.1c-0.7,0-1.1,0.1-1.5,0.2v8.4H318.5z M320.5,71.4c0.8,0,1.5-0.1,2.2-0.3c0.7-0.2,1.3-0.5,1.9-0.9
				s1-0.9,1.3-1.4c0.3-0.6,0.5-1.2,0.5-2c0-1-0.2-1.8-0.6-2.3c-0.4-0.6-0.9-1.1-1.5-1.4c-0.6-0.3-1.3-0.6-2.1-0.7
				c-0.8-0.1-1.6-0.2-2.3-0.2h-3.1v8.9c0.2,0,0.4,0.1,0.7,0.1c0.3,0,0.6,0,1,0.1c0.4,0,0.7,0,1.1,0.1
				C319.8,71.4,320.2,71.4,320.5,71.4z"/>
			<path class="st0" d="M334,48.8h13.5v2.6H337v8.1h9.7v2.6H337v8.8h10.8v2.6H334V48.8z"/>
			<path class="st0" d="M369.3,51.5h-7.7v22.2h-2.9V51.5h-7.7v-2.6h18.4V51.5z"/>
			<path class="st0" d="M372.8,48.8h13.5v2.6h-10.6v8.1h9.7v2.6h-9.7v8.8h10.8v2.6h-13.7V48.8z"/>
			<path class="st0" d="M402.8,67.4c0-1-0.3-1.8-0.9-2.4c-0.6-0.6-1.3-1.2-2.2-1.7c-0.9-0.5-1.9-0.9-2.9-1.4c-1-0.4-2-0.9-2.9-1.5
				s-1.6-1.3-2.2-2.2c-0.6-0.9-0.9-2-0.9-3.4c0-1.9,0.7-3.5,2-4.6c1.3-1.1,3.3-1.7,5.8-1.7c1.4,0,2.8,0.1,3.9,0.3s2.1,0.5,2.8,0.8
				l-0.9,2.6c-0.5-0.3-1.3-0.5-2.4-0.8s-2.2-0.4-3.6-0.4c-1.6,0-2.7,0.3-3.5,1c-0.8,0.7-1.2,1.5-1.2,2.5c0,0.9,0.3,1.7,0.9,2.3
				c0.6,0.6,1.3,1.2,2.2,1.7c0.9,0.5,1.9,1,2.9,1.4c1,0.5,2,1,2.9,1.7c0.9,0.6,1.6,1.4,2.2,2.3c0.6,0.9,0.9,2,0.9,3.3
				c0,1.1-0.2,2-0.6,2.9c-0.4,0.9-0.9,1.6-1.7,2.2c-0.7,0.6-1.6,1.1-2.7,1.4c-1,0.3-2.2,0.5-3.5,0.5c-1.8,0-3.2-0.1-4.4-0.4
				c-1.2-0.3-2.1-0.6-2.7-0.9l1-2.6c0.5,0.3,1.3,0.6,2.4,0.9c1.1,0.3,2.3,0.4,3.6,0.4c0.8,0,1.5-0.1,2.2-0.2
				c0.7-0.2,1.3-0.4,1.8-0.7c0.5-0.3,0.9-0.8,1.2-1.3C402.6,68.7,402.8,68.1,402.8,67.4z"/>
		</g>
		<g>
			<g>
				<path class="st0" d="M163.1,94h-1v8.1h-3.7V83.2h3.7v8.4l0.9-0.4l5.2-8h4.2l-5.5,7.9l-1.5,1l1.5,1.1l6.3,8.9h-4.6L163.1,94z"/>
				<path class="st0" d="M179.6,92.2l-1.5-3h-0.1l0.4,3v9.9h-3.5V83h2.7l7.2,10.1l1.4,2.9h0.1l-0.4-2.9v-9.9h3.5v19h-2.7L179.6,92.2
					z"/>
				<path class="st0" d="M191.7,92.6c0-3.1,0.7-5.6,2.1-7.3c1.4-1.7,3.4-2.6,5.9-2.6c1.3,0,2.5,0.2,3.5,0.7c1,0.5,1.8,1.1,2.5,2
					c0.7,0.9,1.2,1.9,1.5,3.1c0.3,1.2,0.5,2.5,0.5,4c0,3.2-0.7,5.6-2.1,7.3c-1.4,1.7-3.4,2.6-5.9,2.6c-1.4,0-2.6-0.2-3.6-0.7
					c-1-0.5-1.8-1.1-2.5-2c-0.7-0.9-1.1-1.9-1.5-3.1C191.9,95.4,191.7,94.1,191.7,92.6z M195.6,92.6c0,1,0.1,1.8,0.2,2.6
					s0.4,1.5,0.7,2.1c0.3,0.6,0.8,1,1.3,1.4c0.5,0.3,1.1,0.5,1.9,0.5c1.3,0,2.3-0.5,3.1-1.5s1.1-2.7,1.1-5c0-0.9-0.1-1.8-0.2-2.6
					c-0.2-0.8-0.4-1.5-0.7-2.1c-0.3-0.6-0.7-1.1-1.3-1.4c-0.5-0.3-1.2-0.5-1.9-0.5c-1.3,0-2.3,0.5-3.1,1.6
					C195.9,88.7,195.6,90.4,195.6,92.6z"/>
				<path class="st0" d="M214.5,93.7l0.4,3.3h0.1l0.4-3.4l3.3-10.5h2.4l3.2,10.6l0.4,3.3h0.1l0.4-3.4l2.3-10.5h3.8l-5.2,19h-2.5
					l-3.4-10.5l-0.5-2.9h-0.1l-0.5,2.9l-3.3,10.5h-2.6l-5.2-19h4L214.5,93.7z"/>
				<path class="st0" d="M244.7,102.1h-12V83.2h3.7v15.6h8.3V102.1z"/>
				<path class="st0" d="M246.3,83.2h11.2v3.3H250v4.4h6.8v3.3H250v4.6h7.6v3.3h-11.3V83.2z"/>
				<path class="st0" d="M260.1,83.2c0.4-0.1,0.8-0.1,1.3-0.1c0.5,0,1-0.1,1.5-0.1c0.5,0,1,0,1.5,0c0.5,0,0.9,0,1.3,0
					c1.7,0,3.1,0.2,4.3,0.7c1.2,0.5,2.2,1.1,2.9,2c0.7,0.8,1.3,1.9,1.6,3c0.3,1.2,0.5,2.5,0.5,3.9c0,1.3-0.2,2.5-0.5,3.7
					s-0.9,2.2-1.6,3.2s-1.8,1.7-3,2.2c-1.2,0.6-2.8,0.8-4.6,0.8c-0.3,0-0.7,0-1.1,0c-0.5,0-1,0-1.5-0.1c-0.5,0-1-0.1-1.5-0.1
					s-0.8-0.1-1.1-0.1V83.2z M265.9,86.2c-0.4,0-0.8,0-1.2,0c-0.4,0-0.7,0-0.9,0.1V99c0.1,0,0.2,0,0.4,0c0.2,0,0.4,0,0.6,0
					c0.2,0,0.4,0,0.6,0c0.2,0,0.3,0,0.4,0c1,0,1.9-0.2,2.6-0.6c0.7-0.4,1.2-0.9,1.6-1.5c0.4-0.6,0.7-1.3,0.8-2.1
					c0.2-0.8,0.2-1.6,0.2-2.5c0-0.7-0.1-1.5-0.2-2.2c-0.1-0.7-0.4-1.4-0.8-2c-0.4-0.6-0.9-1.1-1.6-1.5S266.9,86.2,265.9,86.2z"/>
				<path class="st0" d="M283.8,92.2h7v8.4c-0.8,0.6-1.7,1.1-2.7,1.4c-1.1,0.3-2.1,0.4-3.1,0.4c-1.2,0-2.3-0.2-3.4-0.6
					s-1.9-1-2.7-1.8c-0.8-0.8-1.3-1.8-1.8-3.1c-0.4-1.2-0.6-2.7-0.6-4.4c0-1.8,0.3-3.3,0.8-4.5c0.5-1.3,1.2-2.3,2-3.1
					c0.8-0.8,1.8-1.4,2.8-1.7s2.1-0.5,3.2-0.5s2,0.1,2.8,0.2c0.8,0.2,1.5,0.3,2,0.5l-0.8,3.1c-0.5-0.2-1-0.3-1.5-0.4
					c-0.6-0.1-1.3-0.1-2.1-0.1c-0.8,0-1.5,0.1-2.1,0.4c-0.6,0.2-1.2,0.6-1.7,1.1c-0.5,0.5-0.8,1.2-1.1,2c-0.3,0.8-0.4,1.8-0.4,3
					c0,1.1,0.1,2.1,0.4,2.9c0.3,0.8,0.6,1.5,1.1,2s1,0.9,1.6,1.2c0.6,0.3,1.2,0.4,1.9,0.4c0.5,0,0.9-0.1,1.4-0.2
					c0.4-0.1,0.8-0.3,1.1-0.5v-3.6l-4.1-0.4V92.2z"/>
				<path class="st0" d="M293.4,83.2h11.2v3.3h-7.5v4.4h6.8v3.3h-6.8v4.6h7.6v3.3h-11.3V83.2z"/>
				<path class="st0" d="M313.8,83.4c0.8-0.1,1.6-0.3,2.5-0.3s1.8-0.1,2.7-0.1c0.9,0,1.9,0.1,2.8,0.2s1.8,0.5,2.6,0.9
					s1.4,1.1,1.8,1.9c0.5,0.8,0.7,1.9,0.7,3.2c0,1.2-0.2,2.2-0.6,3c-0.4,0.8-1,1.5-1.6,2c-0.7,0.5-1.5,0.9-2.3,1.1
					c-0.9,0.2-1.8,0.4-2.7,0.4c-0.1,0-0.2,0-0.4,0s-0.4,0-0.6,0c-0.2,0-0.4,0-0.6,0c-0.2,0-0.4,0-0.4-0.1v6.5h-3.7V83.4z
					 M319.3,86.1c-0.4,0-0.7,0-1,0c-0.3,0-0.6,0.1-0.8,0.1v6.1c0.1,0,0.2,0,0.3,0.1c0.1,0,0.3,0,0.5,0c0.2,0,0.3,0,0.5,0
					s0.3,0,0.3,0c0.5,0,1,0,1.4-0.1c0.5-0.1,0.9-0.3,1.3-0.5c0.4-0.2,0.7-0.6,0.9-1c0.2-0.4,0.3-1,0.3-1.7c0-0.6-0.1-1.1-0.3-1.5
					c-0.2-0.4-0.5-0.7-0.9-0.9c-0.4-0.2-0.8-0.4-1.2-0.5C320.2,86.1,319.8,86.1,319.3,86.1z"/>
				<path class="st0" d="M328.4,92.6c0-3.1,0.7-5.6,2.1-7.3c1.4-1.7,3.4-2.6,5.9-2.6c1.3,0,2.5,0.2,3.5,0.7c1,0.5,1.8,1.1,2.5,2
					c0.7,0.9,1.2,1.9,1.5,3.1c0.3,1.2,0.5,2.5,0.5,4c0,3.2-0.7,5.6-2.1,7.3c-1.4,1.7-3.4,2.6-5.9,2.6c-1.4,0-2.6-0.2-3.6-0.7
					c-1-0.5-1.8-1.1-2.5-2c-0.7-0.9-1.1-1.9-1.5-3.1C328.5,95.4,328.4,94.1,328.4,92.6z M332.2,92.6c0,1,0.1,1.8,0.2,2.6
					s0.4,1.5,0.7,2.1c0.3,0.6,0.8,1,1.3,1.4c0.5,0.3,1.1,0.5,1.9,0.5c1.3,0,2.3-0.5,3.1-1.5s1.1-2.7,1.1-5c0-0.9-0.1-1.8-0.2-2.6
					c-0.2-0.8-0.4-1.5-0.7-2.1c-0.3-0.6-0.7-1.1-1.3-1.4c-0.5-0.3-1.2-0.5-1.9-0.5c-1.3,0-2.3,0.5-3.1,1.6
					C332.6,88.7,332.2,90.4,332.2,92.6z"/>
				<path class="st0" d="M346.7,83.4c0.4-0.1,0.9-0.1,1.3-0.2c0.5-0.1,1-0.1,1.4-0.1c0.5,0,0.9-0.1,1.4-0.1c0.4,0,0.9,0,1.2,0
					c0.9,0,1.8,0.1,2.6,0.2c0.9,0.2,1.6,0.4,2.3,0.8c0.7,0.4,1.2,0.9,1.6,1.6c0.4,0.7,0.6,1.6,0.6,2.6c0,1.5-0.4,2.8-1.1,3.8
					c-0.7,1-1.7,1.6-2.9,2l1.3,0.8l4.3,7.2h-4.3l-4.3-7.4l-1.9-0.4v7.7h-3.7V83.4z M352.4,86.2c-0.4,0-0.8,0-1.1,0
					c-0.4,0-0.7,0.1-0.9,0.1v5.5h1.6c1,0,1.8-0.2,2.5-0.7c0.6-0.5,0.9-1.2,0.9-2.3c0-0.8-0.3-1.4-0.8-1.9S353.4,86.2,352.4,86.2z"/>
				<path class="st0" d="M375.8,86.5h-5.5v15.6h-3.7V86.5H361v-3.3h14.7V86.5z"/>
				<path class="st0" d="M384.7,97.9h-5.8l-1.4,4.2h-3.7l6.8-19h2.7l6.8,19h-3.9L384.7,97.9z M379.9,94.9h4l-1.4-4.2l-0.6-3h-0.1
					l-0.6,3L379.9,94.9z"/>
				<path class="st0" d="M403.5,102.1h-12V83.2h3.7v15.6h8.3V102.1z"/>
			</g>
		</g>
	</g>
	<g>
		<g>
			<g>
				<g>
					<path class="st0" d="M77.7,29.2c-4.3,0-7.8,3.5-7.8,7.8c0,1.2,0.3,2.4,0.8,3.4l-22,38.1c-1.7-0.5-3.6-0.8-5.5-0.8
						C32.6,77.7,24,86.2,24,96.8c0,10.6,8.6,19.1,19.1,19.1c5.3,0,10.1-2.2,13.5-5.6l-4.8-4.8c-2.2,2.2-5.3,3.6-8.6,3.6
						c-6.8,0-12.3-5.5-12.3-12.3c0-6.8,5.5-12.3,12.3-12.3c3.8,0,7.3,1.8,9.5,4.5l3.6-6.2l22.1-38.2c4-0.3,7.1-3.7,7.1-7.8
						C85.5,32.7,82,29.2,77.7,29.2z"/>
					<path class="st0" d="M112.8,89l-22-38.1c3.7-3.5,6-8.4,6-13.9c0-10.6-8.6-19.1-19.1-19.1c-10.6,0-19.1,8.6-19.1,19.1
						c0,1.7,0.2,3.4,0.7,5l6.7-1.8c-0.3-1-0.4-2.1-0.4-3.2c0-6.8,5.5-12.2,12.3-12.2c6.8,0,12.3,5.5,12.3,12.2
						c0,6.2-4.6,11.3-10.5,12.1l3.6,6.2l22.1,38.2c-0.5,1-0.8,2.1-0.8,3.3c0,4.3,3.5,7.8,7.8,7.8c4.3,0,7.8-3.5,7.8-7.8
						C120,92.7,116.9,89.3,112.8,89z"/>
					<path class="st0" d="M117.2,78.4l-1.8,6.7c5.2,1.4,9,6.2,9,11.8c0,6.8-5.5,12.3-12.2,12.3c-6.8,0-12.2-5.5-12.2-12.3
						c0-1.6,0.3-3.1,0.8-4.4h-7.2h-44c-1.4-2.1-3.8-3.4-6.4-3.4c-4.3,0-7.8,3.5-7.8,7.8c0,4.3,3.5,7.8,7.8,7.8c2.7,0,5-1.3,6.4-3.4
						h44.1c2,8.4,9.6,14.7,18.6,14.7c10.6,0,19.1-8.6,19.1-19.1C131.4,88,125.4,80.5,117.2,78.4z"/>
				</g>
			</g>
		</g>
		<circle class="st1" cx="77.7" cy="75.4" r="68.1"/>
	</g>
</g>
</svg>
