<?xml version="1.0" encoding="utf-8"?>
<!-- Generator: Adobe Illustrator 24.1.0, SVG Export Plug-In . SVG Version: 6.00 Build 0)  -->
<svg version="1.1" id="Layer_1" xmlns="http://www.w3.org/2000/svg" xmlns:xlink="http://www.w3.org/1999/xlink" x="0px" y="0px"
	 viewBox="0 0 124.2 46.8" style="enable-background:new 0 0 124.2 46.8;" xml:space="preserve">
<style type="text/css">
	.st0{fill:#FFFFFF;}
	.st1{fill:#F399C0;stroke:#FFFFFF;stroke-miterlimit:10;}
	.st2{fill:#6DCEF5;stroke:#FFFFFF;stroke-miterlimit:10;}
	.st3{fill:#BED630;stroke:#FFFFFF;stroke-miterlimit:10;}
	.st4{fill:#D9B989;stroke:#FFFFFF;stroke-miterlimit:10;}
	.st5{fill:#9CD19B;stroke:#FFFFFF;stroke-miterlimit:10;}
	.st6{fill:#BAB6DB;stroke:#FFFFFF;stroke-miterlimit:10;}
</style>
<g>
	<g>
		<g>
			<path class="st0" d="M110.9,20.1c-0.2-0.2-0.5-0.3-0.8-0.3c-0.3-0.1-0.6-0.1-0.9-0.1c-0.2,0-0.5,0-0.7,0s-0.4,0-0.5,0.1v4.1
				c0,0,0.1,0,0.2,0c0.1,0,0.2,0,0.3,0s0.2,0,0.3,0s0.2,0,0.2,0c0.3,0,0.6,0,1-0.1c0.3-0.1,0.6-0.2,0.9-0.3c0.3-0.2,0.5-0.4,0.6-0.7
				c0.2-0.3,0.2-0.7,0.2-1.1s-0.1-0.7-0.2-1C111.4,20.5,111.2,20.3,110.9,20.1z"/>
			<path class="st0" d="M109.6,16.1L109.6,16.1L109.6,16.1H93V20v11.8l0,0h16.6l0,0l0,0c4.3,0,7.8-3.5,7.8-7.8
				S113.9,16.1,109.6,16.1z M102,30.4L98.3,25h-0.6v5.4h-2.5V17.7h2.5v5.6l0.6-0.3l3.5-5.3h2.8l-3.7,5.3l-1,0.7l1,0.7l4.2,5.9
				L102,30.4L102,30.4z M113.9,23.7c-0.3,0.5-0.6,1-1.1,1.3s-1,0.6-1.6,0.8c-0.6,0.2-1.2,0.2-1.8,0.2c-0.1,0-0.2,0-0.3,0
				s-0.3,0-0.4,0c-0.1,0-0.3,0-0.4,0c-0.1,0-0.2,0-0.3,0v4.3h-2.5V17.9c0.5-0.1,1.1-0.2,1.7-0.2c0.6-0.1,1.2-0.1,1.8-0.1
				s1.3,0.1,1.9,0.2c0.6,0.1,1.2,0.3,1.7,0.6c0.5,0.3,0.9,0.7,1.2,1.3c0.3,0.5,0.5,1.3,0.5,2.1C114.3,22.5,114.2,23.2,113.9,23.7z"
				/>
		</g>
		<g>
			<path class="st0" d="M65.4,17.8h-4.9v14.1h-1.9V17.8h-4.9v-1.7h11.7C65.4,16.1,65.4,17.8,65.4,17.8z"/>
			<path class="st0" d="M75.5,19.7c0,0.8-0.1,1.6-0.4,2.4s-0.7,1.7-1.1,2.5c-0.5,0.8-1,1.7-1.6,2.5s-1.2,1.6-1.8,2.3l-1.1,1v0.1
				l1.4-0.2h4.9V32h-9v-0.7c0.3-0.3,0.7-0.8,1.2-1.3s0.9-1.1,1.5-1.7c0.5-0.6,1-1.3,1.5-2s0.9-1.4,1.3-2.1s0.7-1.4,1-2.1
				c0.2-0.7,0.4-1.4,0.4-2c0-0.7-0.2-1.3-0.6-1.8s-1.1-0.7-1.9-0.7c-0.6,0-1.1,0.1-1.7,0.3c-0.5,0.2-1,0.5-1.4,0.8l-0.7-1.3
				c0.5-0.4,1.1-0.8,1.9-1.1c0.7-0.3,1.5-0.4,2.3-0.4c0.6,0,1.2,0.1,1.7,0.3c0.5,0.2,0.9,0.5,1.3,0.8c0.3,0.3,0.6,0.8,0.8,1.2
				C75.4,18.7,75.5,19.2,75.5,19.7z"/>
			<path class="st0" d="M78.5,16.2c0.3,0,0.6-0.1,1-0.1s0.7,0,1.1,0s0.8,0,1.1,0c0.4,0,0.7,0,1,0c1.3,0,2.4,0.2,3.3,0.6
				s1.7,0.9,2.3,1.6s1,1.5,1.3,2.5s0.4,2,0.4,3.2c0,1.1-0.1,2.1-0.4,3.1c-0.3,1-0.7,1.9-1.3,2.6c-0.6,0.8-1.4,1.4-2.3,1.8
				c-1,0.5-2.1,0.7-3.5,0.7c-0.2,0-0.6,0-0.9,0c-0.4,0-0.8,0-1.2,0c-0.4,0-0.8,0-1.1-0.1c-0.3,0-0.6,0-0.7-0.1V16.2H78.5z
				 M82.7,17.6c-0.2,0-0.4,0-0.6,0s-0.5,0-0.7,0s-0.4,0-0.6,0s-0.3,0-0.4,0v12.6c0.1,0,0.2,0,0.4,0c0.2,0,0.4,0,0.7,0
				c0.2,0,0.4,0,0.7,0c0.2,0,0.4,0,0.4,0c1,0,1.9-0.2,2.6-0.5c0.7-0.4,1.3-0.8,1.7-1.5c0.4-0.6,0.7-1.3,0.9-2.1s0.3-1.6,0.3-2.4
				c0-0.7-0.1-1.5-0.2-2.2c-0.2-0.7-0.5-1.4-0.9-2s-0.9-1.1-1.6-1.5C84.6,17.8,83.8,17.6,82.7,17.6z"/>
		</g>
	</g>
	<g>
		<polygon class="st1" points="18.4,8.8 6.1,30.1 24.5,26.5 		"/>
		<polygon class="st2" points="30.6,8.8 24.5,26.5 42.9,30.1 		"/>
		<polygon class="st3" points="24.5,26.5 12.2,40.6 36.8,40.6 		"/>
		<path class="st4" d="M24.5,26.5c0,0-11.7,0-12.2,0c-3.9,0-7.1,3.2-7.1,7.1c0,3.9,3.2,7.1,7.1,7.1c2.5,0,4.8-1.4,6-3.4L24.5,26.5z"
			/>
		<path class="st5" d="M24.5,26.5c0,0,11.8,0,12.2,0c3.9,0,7.1,3.2,7.1,7.1c0,3.9-3.2,7.1-7.1,7.1c-2.5,0-4.8-1.4-6-3.4L24.5,26.5z"
			/>
		<path class="st6" d="M24.5,26.5c0,0-5.9-10.2-6.1-10.6c-2-3.4-0.8-7.7,2.6-9.7c3.4-2,7.7-0.8,9.7,2.6c1.3,2.2,1.2,4.8,0.1,6.9
			L24.5,26.5z"/>
	</g>
</g>
</svg>
