<?xml version="1.0" encoding="utf-8"?>
<!-- Generator: Adobe Illustrator 23.0.4, SVG Export Plug-In . SVG Version: 6.00 Build 0)  -->
<svg version="1.1" id="Layer_1" xmlns="http://www.w3.org/2000/svg" xmlns:xlink="http://www.w3.org/1999/xlink" x="0px" y="0px"
	 viewBox="0 0 239.5 46.8" style="enable-background:new 0 0 239.5 46.8;" xml:space="preserve">
<style type="text/css">
	.st0{fill:#FFFFFF;}
	.st1{fill:none;stroke:#FFFFFF;stroke-width:1.1315;stroke-miterlimit:10;}
</style>
<g>
	<g>
		<g>
			<g>
				<g>
					<path class="st0" d="M24.2,10.9c-1.2,0-2.2,1-2.2,2.2c0,0.3,0.1,0.7,0.2,1L16,24.8c-0.5-0.1-1-0.2-1.6-0.2C11.4,24.6,9,27,9,30
						c0,3,2.4,5.4,5.4,5.4c1.5,0,2.8-0.6,3.8-1.6l-1.4-1.4c-0.6,0.6-1.5,1-2.4,1c-1.9,0-3.5-1.5-3.5-3.5c0-1.9,1.5-3.5,3.5-3.5
						c1.1,0,2,0.5,2.7,1.3l1-1.7l6.2-10.8c1.1-0.1,2-1,2-2.2C26.4,11.9,25.4,10.9,24.2,10.9z"/>
					<path class="st0" d="M34.1,27.8L27.9,17c1-1,1.7-2.4,1.7-3.9c0-3-2.4-5.4-5.4-5.4c-3,0-5.4,2.4-5.4,5.4c0,0.5,0.1,1,0.2,1.4
						l1.9-0.5c-0.1-0.3-0.1-0.6-0.1-0.9c0-1.9,1.5-3.5,3.5-3.5c1.9,0,3.5,1.5,3.5,3.5c0,1.7-1.3,3.2-3,3.4l1,1.8L31.9,29
						c-0.1,0.3-0.2,0.6-0.2,0.9c0,1.2,1,2.2,2.2,2.2c1.2,0,2.2-1,2.2-2.2C36.1,28.8,35.2,27.9,34.1,27.8z"/>
					<path class="st0" d="M35.3,24.8l-0.5,1.9c1.5,0.4,2.6,1.7,2.6,3.3c0,1.9-1.5,3.5-3.5,3.5c-1.9,0-3.5-1.5-3.5-3.5
						c0-0.4,0.1-0.9,0.2-1.3h-2H16.2c-0.4-0.6-1.1-1-1.8-1c-1.2,0-2.2,1-2.2,2.2c0,1.2,1,2.2,2.2,2.2c0.8,0,1.4-0.4,1.8-1h12.4
						c0.6,2.4,2.7,4.2,5.2,4.2c3,0,5.4-2.4,5.4-5.4C39.3,27.5,37.6,25.4,35.3,24.8z"/>
				</g>
			</g>
		</g>
		<circle class="st1" cx="24.2" cy="24" r="19.9"/>
	</g>
	<g>
		<g>
			<path class="st0" d="M229.6,20.1c-0.2-0.2-0.5-0.3-0.8-0.3c-0.3-0.1-0.6-0.1-0.9-0.1c-0.2,0-0.5,0-0.7,0c-0.2,0-0.4,0-0.5,0.1
				v4.1c0,0,0.1,0,0.2,0c0.1,0,0.2,0,0.3,0c0.1,0,0.2,0,0.3,0s0.2,0,0.2,0c0.3,0,0.6,0,1-0.1c0.3-0.1,0.6-0.2,0.9-0.3
				c0.3-0.2,0.5-0.4,0.6-0.7c0.2-0.3,0.2-0.7,0.2-1.1c0-0.4-0.1-0.7-0.2-1C230.1,20.5,229.9,20.3,229.6,20.1z"/>
			<path class="st0" d="M228.3,16.1C228.3,16.1,228.3,16.1,228.3,16.1L228.3,16.1h-16.6V20v11.8l0,0h16.6v0c0,0,0,0,0,0
				c4.3,0,7.8-3.5,7.8-7.8S232.6,16.1,228.3,16.1z M220.7,30.4L217,25h-0.6v5.4h-2.5V17.7h2.5v5.6l0.6-0.3l3.5-5.3h2.8l-3.7,5.3
				l-1,0.7l1,0.7l4.2,5.9H220.7z M232.6,23.7c-0.3,0.5-0.6,1-1.1,1.3c-0.5,0.3-1,0.6-1.6,0.8c-0.6,0.2-1.2,0.2-1.8,0.2
				c-0.1,0-0.2,0-0.3,0c-0.1,0-0.3,0-0.4,0c-0.1,0-0.3,0-0.4,0c-0.1,0-0.2,0-0.3,0v4.3h-2.5V17.9c0.5-0.1,1.1-0.2,1.7-0.2
				c0.6-0.1,1.2-0.1,1.8-0.1c0.6,0,1.3,0.1,1.9,0.2c0.6,0.1,1.2,0.3,1.7,0.6c0.5,0.3,0.9,0.7,1.2,1.3c0.3,0.5,0.5,1.3,0.5,2.1
				C233,22.5,232.9,23.2,232.6,23.7z"/>
		</g>
		<g>
			<path class="st0" d="M65.4,17.8h-4.9v14.1h-1.9V17.8h-4.9v-1.7h11.7V17.8z"/>
			<path class="st0" d="M71.4,25.7l-5.2-9.5h2.2l3.7,6.9l0.4,1.4h0l0.4-1.4l3.5-6.8h2l-5.2,9.5v6.3h-1.9V25.7z"/>
			<path class="st0" d="M79.9,16.3c0.6-0.1,1.2-0.2,1.8-0.3c0.7,0,1.3-0.1,2-0.1c0.7,0,1.4,0.1,2.1,0.2c0.7,0.1,1.4,0.4,1.9,0.7
				c0.6,0.4,1.1,0.9,1.4,1.5c0.4,0.6,0.6,1.4,0.6,2.4c0,1-0.2,1.8-0.5,2.4c-0.3,0.7-0.8,1.2-1.4,1.6c-0.6,0.4-1.2,0.7-2,0.9
				c-0.7,0.2-1.5,0.3-2.3,0.3c-0.1,0-0.2,0-0.4,0c-0.2,0-0.4,0-0.5,0c-0.2,0-0.4,0-0.6,0c-0.2,0-0.3,0-0.4,0v6h-1.9V16.3z
				 M83.7,17.6c-0.4,0-0.8,0-1.1,0c-0.4,0-0.6,0.1-0.9,0.1v6.5c0.1,0,0.2,0,0.4,0.1c0.2,0,0.3,0,0.5,0c0.2,0,0.4,0,0.5,0
				s0.3,0,0.4,0c0.5,0,1,0,1.5-0.1c0.5-0.1,1-0.3,1.4-0.5s0.7-0.6,1-1.1c0.2-0.5,0.4-1.1,0.4-1.8c0-0.6-0.1-1.1-0.3-1.5
				c-0.2-0.4-0.5-0.7-0.9-1c-0.4-0.2-0.8-0.4-1.3-0.5C84.7,17.7,84.2,17.6,83.7,17.6z"/>
			<path class="st0" d="M91.5,16.2h8.6v1.7h-6.7V23h6.1v1.7h-6.1v5.6h6.8v1.7h-8.7V16.2z"/>
			<path class="st0" d="M113.5,19.7c0,0.8-0.1,1.6-0.4,2.4c-0.3,0.8-0.7,1.7-1.1,2.5c-0.5,0.8-1,1.7-1.6,2.5
				c-0.6,0.8-1.2,1.6-1.8,2.3l-1.1,1v0.1l1.4-0.2h4.9v1.7h-9v-0.7c0.3-0.3,0.7-0.8,1.2-1.3c0.5-0.5,0.9-1.1,1.5-1.7
				c0.5-0.6,1-1.3,1.5-2c0.5-0.7,0.9-1.4,1.3-2.1c0.4-0.7,0.7-1.4,1-2.1c0.2-0.7,0.4-1.4,0.4-2c0-0.7-0.2-1.3-0.6-1.8
				c-0.4-0.5-1.1-0.7-1.9-0.7c-0.6,0-1.1,0.1-1.7,0.3c-0.5,0.2-1,0.5-1.4,0.8l-0.7-1.3c0.5-0.4,1.1-0.8,1.9-1.1
				c0.7-0.3,1.5-0.4,2.3-0.4c0.6,0,1.2,0.1,1.7,0.3c0.5,0.2,0.9,0.5,1.3,0.8c0.3,0.3,0.6,0.8,0.8,1.2
				C113.4,18.7,113.5,19.2,113.5,19.7z"/>
			<path class="st0" d="M119.5,16.2c0.3,0,0.6-0.1,1-0.1c0.4,0,0.7,0,1.1,0c0.4,0,0.8,0,1.1,0c0.4,0,0.7,0,1,0
				c1.3,0,2.4,0.2,3.3,0.6c0.9,0.4,1.7,0.9,2.3,1.6c0.6,0.7,1,1.5,1.3,2.5c0.3,1,0.4,2,0.4,3.2c0,1.1-0.1,2.1-0.4,3.1
				c-0.3,1-0.7,1.9-1.3,2.6c-0.6,0.8-1.4,1.4-2.3,1.8c-1,0.5-2.1,0.7-3.5,0.7c-0.2,0-0.6,0-0.9,0c-0.4,0-0.8,0-1.2,0
				c-0.4,0-0.8,0-1.1-0.1c-0.3,0-0.6,0-0.7-0.1V16.2z M123.7,17.6c-0.2,0-0.4,0-0.6,0s-0.5,0-0.7,0c-0.2,0-0.4,0-0.6,0
				c-0.2,0-0.3,0-0.4,0v12.6c0.1,0,0.2,0,0.4,0c0.2,0,0.4,0,0.7,0c0.2,0,0.4,0,0.7,0c0.2,0,0.4,0,0.4,0c1,0,1.9-0.2,2.6-0.5
				c0.7-0.4,1.3-0.8,1.7-1.5c0.4-0.6,0.7-1.3,0.9-2.1s0.3-1.6,0.3-2.4c0-0.7-0.1-1.5-0.2-2.2c-0.2-0.7-0.5-1.4-0.9-2
				c-0.4-0.6-0.9-1.1-1.6-1.5C125.6,17.8,124.8,17.6,123.7,17.6z"/>
			<path class="st0" d="M133.5,16.2h1.9v15.8h-1.9V16.2z"/>
			<path class="st0" d="M146.2,27.5h-5.8l-1.6,4.4H137l6-16h0.9l6,16h-2L146.2,27.5z M141.1,25.9h4.6l-1.7-4.8l-0.6-2.4h0l-0.6,2.4
				L141.1,25.9z"/>
			<path class="st0" d="M160.8,19.8c0,0.4-0.1,0.8-0.2,1.1s-0.3,0.8-0.5,1.1s-0.5,0.6-0.9,0.9c-0.4,0.3-0.8,0.5-1.3,0.6v0.1
				c0.5,0.1,0.9,0.2,1.3,0.4c0.4,0.2,0.8,0.4,1.1,0.7c0.3,0.3,0.6,0.7,0.8,1.1c0.2,0.5,0.3,1,0.3,1.6c0,0.8-0.2,1.5-0.5,2.1
				c-0.3,0.6-0.8,1.1-1.3,1.5s-1.2,0.7-1.9,0.8c-0.7,0.2-1.4,0.3-2.2,0.3c-0.3,0-0.6,0-0.9,0s-0.7,0-1.1,0c-0.4,0-0.8-0.1-1.1-0.1
				c-0.4,0-0.7-0.1-1-0.2V16.3c0.6-0.1,1.2-0.2,1.9-0.2c0.7-0.1,1.5-0.1,2.4-0.1c0.6,0,1.2,0,1.8,0.1s1.2,0.3,1.7,0.6
				c0.5,0.3,0.9,0.7,1.2,1.2C160.6,18.3,160.8,19,160.8,19.8z M154.3,23.1c0.3,0,0.6,0,0.9,0c0.4,0,0.7,0,0.9-0.1
				c0.4-0.1,0.7-0.3,1-0.4c0.3-0.2,0.6-0.4,0.8-0.6c0.2-0.2,0.4-0.5,0.6-0.8s0.2-0.6,0.2-1c0-0.5-0.1-0.9-0.3-1.2
				c-0.2-0.3-0.4-0.6-0.8-0.8c-0.3-0.2-0.7-0.3-1.1-0.4s-0.8-0.1-1.2-0.1c-0.5,0-0.9,0-1.4,0c-0.4,0-0.7,0.1-0.9,0.1v5.4H154.3z
				 M155.6,30.5c0.5,0,0.9-0.1,1.4-0.2c0.5-0.1,0.8-0.3,1.2-0.5c0.3-0.2,0.6-0.6,0.8-0.9c0.2-0.4,0.3-0.8,0.3-1.3
				c0-0.6-0.1-1.1-0.4-1.5c-0.2-0.4-0.6-0.7-1-0.9c-0.4-0.2-0.8-0.4-1.3-0.4s-1-0.1-1.5-0.1h-2v5.6c0.1,0,0.3,0.1,0.5,0.1
				c0.2,0,0.4,0,0.6,0c0.2,0,0.5,0,0.7,0C155.2,30.5,155.4,30.5,155.6,30.5z"/>
			<path class="st0" d="M163.5,16.2h8.6v1.7h-6.7V23h6.1v1.7h-6.1v5.6h6.8v1.7h-8.7V16.2z"/>
			<path class="st0" d="M185.2,17.8h-4.9v14.1h-1.9V17.8h-4.9v-1.7h11.7V17.8z"/>
			<path class="st0" d="M186.8,16.2h8.6v1.7h-6.7V23h6.1v1.7h-6.1v5.6h6.8v1.7h-8.7V16.2z"/>
			<path class="st0" d="M205.2,27.9c0-0.6-0.2-1.1-0.6-1.5c-0.4-0.4-0.8-0.7-1.4-1.1s-1.2-0.6-1.8-0.9s-1.3-0.6-1.8-1
				s-1-0.9-1.4-1.4c-0.4-0.6-0.6-1.3-0.6-2.1c0-1.2,0.4-2.2,1.3-2.9c0.9-0.7,2.1-1.1,3.6-1.1c0.9,0,1.7,0.1,2.5,0.2
				c0.8,0.1,1.3,0.3,1.8,0.5l-0.6,1.7c-0.3-0.2-0.9-0.3-1.5-0.5c-0.7-0.2-1.4-0.2-2.3-0.2c-1,0-1.7,0.2-2.2,0.7
				c-0.5,0.4-0.7,1-0.7,1.6c0,0.6,0.2,1.1,0.6,1.5c0.4,0.4,0.8,0.7,1.4,1c0.6,0.3,1.2,0.6,1.8,0.9c0.7,0.3,1.3,0.6,1.8,1
				s1,0.9,1.4,1.4c0.4,0.6,0.6,1.2,0.6,2.1c0,0.7-0.1,1.3-0.4,1.8c-0.2,0.5-0.6,1-1.1,1.4s-1,0.7-1.7,0.9c-0.7,0.2-1.4,0.3-2.2,0.3
				c-1.1,0-2.1-0.1-2.8-0.3c-0.7-0.2-1.3-0.4-1.7-0.6l0.6-1.7c0.3,0.2,0.9,0.4,1.5,0.6c0.7,0.2,1.4,0.3,2.3,0.3c0.5,0,1,0,1.4-0.1
				c0.4-0.1,0.8-0.3,1.1-0.5c0.3-0.2,0.6-0.5,0.8-0.8C205.1,28.7,205.2,28.4,205.2,27.9z"/>
		</g>
	</g>
</g>
</svg>
