<?xml version="1.0" encoding="utf-8"?>
<!-- Generator: Adobe Illustrator 23.0.3, SVG Export Plug-In . SVG Version: 6.00 Build 0)  -->
<svg version="1.1" id="Layer_1" xmlns="http://www.w3.org/2000/svg" xmlns:xlink="http://www.w3.org/1999/xlink" x="0px" y="0px"
	 viewBox="0 0 400.4 131.6" style="enable-background:new 0 0 400.4 131.6;" xml:space="preserve">
<style type="text/css">
	.st0{fill:#FFFFFF;}
	.st1{fill:url(#SVGID_1_);}
	.st2{fill:url(#SVGID_2_);}
	.st3{fill:url(#SVGID_3_);}
</style>
<g>
	<path class="st0" d="M171.9,37.4h-8.5v24.4h-3.2V37.4h-8.5v-2.9h20.2V37.4z"/>
	<path class="st0" d="M182.4,51l-9-16.5h3.8l6.4,11.9l0.7,2.4h0l0.7-2.5l6.1-11.9h3.4L185.6,51v10.9h-3.2V51z"/>
	<path class="st0" d="M197.2,34.8c1-0.2,2.1-0.4,3.2-0.5s2.3-0.1,3.4-0.1c1.2,0,2.4,0.1,3.6,0.4c1.2,0.2,2.4,0.7,3.4,1.3
		c1,0.6,1.8,1.5,2.5,2.6c0.6,1.1,1,2.5,1,4.2c0,1.7-0.3,3.1-0.9,4.2c-0.6,1.1-1.4,2.1-2.4,2.8c-1,0.7-2.1,1.2-3.4,1.5
		c-1.3,0.3-2.6,0.5-3.9,0.5c-0.1,0-0.3,0-0.6,0s-0.6,0-0.9,0c-0.3,0-0.6,0-1-0.1c-0.3,0-0.5-0.1-0.7-0.1v10.4h-3.2V34.8z
		 M203.8,37.1c-0.7,0-1.3,0-2,0c-0.6,0-1.1,0.1-1.5,0.2v11.3c0.1,0.1,0.3,0.1,0.6,0.1c0.3,0,0.6,0,0.9,0c0.3,0,0.6,0,0.9,0
		s0.5,0,0.6,0c0.9,0,1.8-0.1,2.6-0.3c0.9-0.2,1.7-0.5,2.4-0.9c0.7-0.4,1.3-1.1,1.7-1.9c0.4-0.8,0.6-1.8,0.6-3.1c0-1.1-0.2-2-0.6-2.7
		c-0.4-0.7-0.9-1.3-1.6-1.7c-0.7-0.4-1.4-0.7-2.2-0.9C205.5,37.1,204.7,37.1,203.8,37.1z"/>
	<path class="st0" d="M217.4,34.6h14.9v2.9h-11.6v8.9h10.6v2.9h-10.6V59h11.8v2.9h-15.1V34.6z"/>
	<path class="st0" d="M256,40.8c0,1.4-0.3,2.8-0.8,4.2c-0.5,1.4-1.2,2.9-2,4.3c-0.8,1.5-1.7,2.9-2.8,4.3c-1,1.4-2,2.7-3,4l-1.9,1.7
		v0.2L248,59h8.5v2.9H241v-1.1c0.6-0.6,1.3-1.3,2.1-2.2c0.8-0.9,1.6-1.9,2.5-2.9c0.9-1.1,1.7-2.2,2.6-3.4s1.6-2.4,2.3-3.7
		c0.7-1.2,1.2-2.5,1.7-3.7c0.4-1.2,0.6-2.4,0.6-3.5c0-1.3-0.4-2.3-1.1-3.2c-0.7-0.8-1.8-1.3-3.3-1.3c-1,0-2,0.2-2.9,0.6
		c-0.9,0.4-1.7,0.9-2.4,1.4l-1.3-2.2c0.9-0.8,2-1.4,3.2-1.8c1.2-0.4,2.6-0.7,4-0.7c1.1,0,2.1,0.2,3,0.5s1.6,0.8,2.2,1.4
		c0.6,0.6,1.1,1.3,1.4,2.1C255.8,38.9,256,39.8,256,40.8z"/>
	<path class="st0" d="M266.8,34.6c0.5-0.1,1-0.1,1.7-0.2c0.6,0,1.2-0.1,1.9-0.1c0.7,0,1.3,0,2,0c0.6,0,1.2,0,1.8,0
		c2.2,0,4.1,0.3,5.7,1c1.6,0.7,2.9,1.6,4,2.8c1,1.2,1.8,2.7,2.3,4.3c0.5,1.7,0.8,3.5,0.8,5.6c0,1.8-0.2,3.6-0.7,5.3
		c-0.5,1.7-1.2,3.2-2.3,4.5c-1,1.3-2.4,2.4-4.1,3.2c-1.7,0.8-3.7,1.2-6,1.2c-0.4,0-1,0-1.6,0c-0.7,0-1.3,0-2-0.1s-1.4-0.1-2-0.1
		c-0.6,0-1-0.1-1.3-0.1V34.6z M274.1,37.1c-0.3,0-0.7,0-1.1,0s-0.8,0-1.2,0c-0.4,0-0.7,0.1-1.1,0.1s-0.6,0.1-0.8,0.1v21.8
		c0.1,0,0.4,0,0.7,0.1s0.7,0,1.1,0c0.4,0,0.8,0,1.1,0c0.4,0,0.6,0,0.7,0c1.8,0,3.3-0.3,4.6-0.9c1.2-0.6,2.2-1.5,3-2.5
		c0.7-1.1,1.3-2.3,1.6-3.6c0.3-1.4,0.5-2.8,0.5-4.2c0-1.3-0.1-2.6-0.4-3.8s-0.8-2.5-1.5-3.5c-0.7-1-1.6-1.9-2.8-2.6
		C277.4,37.5,275.9,37.1,274.1,37.1z"/>
	<path class="st0" d="M291.1,34.6h3.2v27.3h-3.2V34.6z"/>
	<path class="st0" d="M316.3,40.8c0,0.7-0.1,1.3-0.3,2c-0.2,0.7-0.5,1.3-0.9,1.9c-0.4,0.6-1,1.1-1.6,1.5c-0.7,0.4-1.4,0.8-2.3,1v0.2
		c0.8,0.1,1.5,0.4,2.2,0.7s1.3,0.7,1.9,1.3s1,1.2,1.3,2c0.3,0.8,0.5,1.7,0.5,2.8c0,1.4-0.3,2.6-0.9,3.6c-0.6,1-1.4,1.9-2.3,2.5
		c-0.9,0.7-2,1.1-3.3,1.4c-1.2,0.3-2.5,0.5-3.7,0.5c-0.4,0-1,0-1.6,0c-0.6,0-1.2,0-1.9-0.1c-0.7,0-1.3-0.1-2-0.2
		c-0.7-0.1-1.2-0.2-1.7-0.3V34.8c1-0.2,2.1-0.3,3.4-0.4c1.3-0.1,2.7-0.2,4.2-0.2c1,0,2,0.1,3.1,0.3c1.1,0.2,2,0.5,2.9,1
		c0.9,0.5,1.6,1.2,2.1,2C316,38.3,316.3,39.4,316.3,40.8z M305.1,46.6c0.4,0,1,0,1.6,0c0.6,0,1.1-0.1,1.6-0.1
		c0.6-0.2,1.2-0.5,1.8-0.8c0.5-0.3,1-0.6,1.5-1.1c0.4-0.4,0.8-0.9,1-1.4c0.2-0.5,0.4-1.1,0.4-1.7c0-0.9-0.2-1.6-0.5-2.1
		c-0.3-0.6-0.8-1-1.3-1.3c-0.5-0.3-1.2-0.6-1.9-0.7c-0.7-0.1-1.4-0.2-2.1-0.2c-0.9,0-1.6,0-2.4,0.1c-0.7,0-1.3,0.1-1.6,0.2v9.3
		H305.1z M307.2,59.4c0.8,0,1.6-0.1,2.4-0.3c0.8-0.2,1.5-0.5,2.1-0.9c0.6-0.4,1.1-1,1.4-1.6c0.4-0.6,0.5-1.4,0.5-2.2
		c0-1.1-0.2-1.9-0.6-2.6c-0.4-0.6-1-1.2-1.7-1.5c-0.7-0.4-1.5-0.6-2.3-0.7c-0.9-0.1-1.7-0.2-2.6-0.2h-3.4v9.8
		c0.2,0.1,0.4,0.1,0.8,0.1s0.7,0.1,1.1,0.1c0.4,0,0.8,0,1.2,0.1C306.6,59.4,306.9,59.4,307.2,59.4z"/>
	<path class="st0" d="M321.1,34.6H336v2.9h-11.6v8.9H335v2.9h-10.6V59h11.8v2.9h-15.1V34.6z"/>
	<path class="st0" d="M358.8,37.4h-8.5v24.4h-3.2V37.4h-8.5v-2.9h20.2V37.4z"/>
	<path class="st0" d="M361.7,34.6h14.9v2.9h-11.6v8.9h10.6v2.9h-10.6V59h11.8v2.9h-15.1V34.6z"/>
	<path class="st0" d="M393.6,54.9c0-1.1-0.3-2-1-2.7c-0.7-0.7-1.5-1.3-2.4-1.8c-1-0.5-2-1-3.2-1.5c-1.1-0.5-2.2-1-3.2-1.7
		c-1-0.7-1.8-1.5-2.4-2.5c-0.6-1-1-2.2-1-3.7c0-2.1,0.7-3.8,2.2-5.1c1.5-1.2,3.6-1.9,6.3-1.9c1.6,0,3,0.1,4.3,0.4
		c1.3,0.2,2.3,0.5,3,0.9l-1,2.9c-0.6-0.3-1.5-0.6-2.6-0.8c-1.2-0.3-2.5-0.4-3.9-0.4c-1.7,0-3,0.4-3.9,1.2c-0.9,0.8-1.3,1.7-1.3,2.7
		c0,1,0.3,1.9,1,2.5c0.6,0.7,1.5,1.3,2.4,1.8c1,0.5,2,1.1,3.2,1.6c1.1,0.5,2.2,1.1,3.2,1.8c1,0.7,1.8,1.5,2.4,2.5c0.6,1,1,2.2,1,3.6
		c0,1.2-0.2,2.2-0.6,3.2s-1,1.7-1.8,2.4c-0.8,0.7-1.8,1.2-2.9,1.6c-1.1,0.4-2.4,0.5-3.9,0.5c-2,0-3.6-0.1-4.8-0.4
		c-1.3-0.3-2.3-0.6-3-1l1.1-2.9c0.6,0.3,1.5,0.7,2.7,1c1.2,0.3,2.5,0.5,3.9,0.5c0.9,0,1.7-0.1,2.4-0.3c0.8-0.2,1.4-0.4,2-0.8
		c0.5-0.4,1-0.9,1.3-1.4C393.4,56.4,393.6,55.7,393.6,54.9z"/>
</g>
<g>
	<path class="st0" d="M156.8,84.7h-1v8.7h-4V73h4v9l0.9-0.4l5.6-8.6h4.5l-5.9,8.5l-1.6,1.1l1.6,1.1l6.8,9.5h-4.9L156.8,84.7z"/>
	<path class="st0" d="M174.5,82.8l-1.6-3.2h-0.1l0.5,3.2v10.6h-3.8V72.9h2.9l7.7,10.8l1.5,3.1h0.1l-0.5-3.1V73h3.8v20.4h-2.9
		L174.5,82.8z"/>
	<path class="st0" d="M187.6,83.2c0-3.4,0.7-6,2.2-7.8c1.5-1.8,3.6-2.7,6.4-2.7c1.5,0,2.7,0.3,3.8,0.8c1.1,0.5,2,1.2,2.7,2.1
		c0.7,0.9,1.2,2,1.6,3.3c0.3,1.3,0.5,2.7,0.5,4.3c0,3.4-0.8,6-2.2,7.8s-3.6,2.7-6.4,2.7c-1.5,0-2.7-0.3-3.8-0.8s-2-1.2-2.7-2.1
		c-0.7-0.9-1.2-2-1.6-3.3C187.8,86.2,187.6,84.8,187.6,83.2z M191.8,83.2c0,1,0.1,2,0.3,2.8s0.4,1.6,0.8,2.2
		c0.4,0.6,0.8,1.1,1.4,1.5c0.6,0.3,1.2,0.5,2,0.5c1.4,0,2.5-0.6,3.3-1.7c0.8-1.1,1.2-2.9,1.2-5.4c0-1-0.1-1.9-0.2-2.8
		s-0.4-1.6-0.8-2.2c-0.3-0.6-0.8-1.1-1.4-1.5c-0.6-0.4-1.2-0.5-2.1-0.5c-1.4,0-2.5,0.6-3.3,1.7C192.1,79,191.8,80.8,191.8,83.2z"/>
	<path class="st0" d="M212.2,84.4l0.4,3.6h0.1l0.4-3.7l3.5-11.3h2.6l3.5,11.3l0.4,3.6h0.1l0.4-3.7l2.5-11.3h4l-5.6,20.4h-2.7
		l-3.6-11.3l-0.5-3.1h-0.1l-0.5,3.1l-3.6,11.3h-2.8L205.1,73h4.3L212.2,84.4z"/>
	<path class="st0" d="M244.6,93.3h-12.8V73h4v16.8h8.9V93.3z"/>
	<path class="st0" d="M246.4,73h12v3.5h-8.1v4.7h7.3v3.5h-7.3v5h8.2v3.5h-12.2V73z"/>
	<path class="st0" d="M268.1,82.8h7.6v9c-0.8,0.7-1.8,1.2-2.9,1.5s-2.2,0.5-3.3,0.5c-1.3,0-2.5-0.2-3.6-0.6c-1.1-0.4-2.1-1-2.9-1.9
		c-0.8-0.9-1.5-2-1.9-3.3s-0.7-2.9-0.7-4.8c0-1.9,0.3-3.5,0.8-4.9c0.6-1.3,1.3-2.4,2.2-3.3s1.9-1.5,3-1.8s2.3-0.6,3.4-0.6
		c1.2,0,2.2,0.1,3.1,0.3c0.9,0.2,1.6,0.4,2.1,0.6l-0.8,3.3c-0.5-0.2-1-0.3-1.6-0.4c-0.6-0.1-1.4-0.2-2.3-0.2c-0.8,0-1.6,0.1-2.3,0.4
		c-0.7,0.3-1.3,0.7-1.8,1.2c-0.5,0.6-0.9,1.3-1.2,2.2c-0.3,0.9-0.4,2-0.4,3.2c0,1.2,0.1,2.3,0.4,3.1c0.3,0.9,0.6,1.6,1.1,2.2
		c0.5,0.6,1,1,1.7,1.3c0.6,0.3,1.3,0.4,2.1,0.4c0.5,0,1-0.1,1.5-0.2c0.5-0.1,0.9-0.3,1.2-0.6v-3.8l-4.4-0.5V82.8z"/>
	<path class="st0" d="M278.4,73h12v3.5h-8.1v4.7h7.3v3.5h-7.3v5h8.2v3.5h-12.2V73z"/>
	<path class="st0" d="M300.5,73.2c0.8-0.2,1.7-0.3,2.7-0.4c1-0.1,1.9-0.1,2.9-0.1c1,0,2,0.1,3,0.2c1,0.2,1.9,0.5,2.7,1
		c0.8,0.5,1.5,1.2,2,2.1c0.5,0.9,0.8,2,0.8,3.4c0,1.3-0.2,2.4-0.7,3.2c-0.4,0.9-1,1.6-1.8,2.2s-1.6,1-2.5,1.2
		c-0.9,0.3-1.9,0.4-2.9,0.4c-0.1,0-0.3,0-0.5,0s-0.4,0-0.7,0c-0.2,0-0.5,0-0.7,0c-0.2,0-0.4,0-0.5-0.1v7h-4V73.2z M306.4,76.2
		c-0.4,0-0.8,0-1.1,0c-0.3,0-0.6,0.1-0.8,0.1v6.6c0.1,0,0.2,0,0.3,0.1c0.2,0,0.3,0,0.5,0s0.3,0,0.5,0s0.3,0,0.4,0c0.5,0,1,0,1.6-0.1
		c0.5-0.1,1-0.3,1.4-0.5c0.4-0.3,0.7-0.6,1-1.1c0.2-0.5,0.4-1.1,0.4-1.8c0-0.6-0.1-1.2-0.3-1.6c-0.2-0.4-0.5-0.7-0.9-1
		c-0.4-0.3-0.8-0.4-1.3-0.5S306.9,76.2,306.4,76.2z"/>
	<path class="st0" d="M316.2,83.2c0-3.4,0.7-6,2.2-7.8c1.5-1.8,3.6-2.7,6.4-2.7c1.5,0,2.7,0.3,3.8,0.8c1.1,0.5,2,1.2,2.7,2.1
		c0.7,0.9,1.2,2,1.6,3.3c0.3,1.3,0.5,2.7,0.5,4.3c0,3.4-0.8,6-2.2,7.8s-3.6,2.7-6.4,2.7c-1.5,0-2.7-0.3-3.8-0.8s-2-1.2-2.7-2.1
		c-0.7-0.9-1.2-2-1.6-3.3C316.4,86.2,316.2,84.8,316.2,83.2z M320.4,83.2c0,1,0.1,2,0.3,2.8s0.4,1.6,0.8,2.2
		c0.4,0.6,0.8,1.1,1.4,1.5c0.6,0.3,1.2,0.5,2,0.5c1.4,0,2.5-0.6,3.3-1.7c0.8-1.1,1.2-2.9,1.2-5.4c0-1-0.1-1.9-0.2-2.8
		s-0.4-1.6-0.8-2.2c-0.3-0.6-0.8-1.1-1.4-1.5c-0.6-0.4-1.2-0.5-2.1-0.5c-1.4,0-2.5,0.6-3.3,1.7C320.8,79,320.4,80.8,320.4,83.2z"/>
	<path class="st0" d="M336,73.2c0.4-0.1,0.9-0.1,1.4-0.2c0.5-0.1,1-0.1,1.5-0.2c0.5,0,1-0.1,1.5-0.1c0.5,0,0.9,0,1.3,0
		c0.9,0,1.9,0.1,2.8,0.3c0.9,0.2,1.7,0.5,2.5,0.9c0.7,0.4,1.3,1,1.7,1.8c0.4,0.7,0.7,1.7,0.7,2.8c0,1.7-0.4,3-1.2,4.1
		c-0.8,1-1.8,1.8-3.1,2.2l1.4,0.9l4.6,7.7h-4.6l-4.6-7.9L340,85v8.3h-4V73.2z M342.1,76.3c-0.4,0-0.8,0-1.2,0
		c-0.4,0-0.7,0.1-0.9,0.1v5.9h1.7c1.1,0,2-0.3,2.6-0.8c0.7-0.5,1-1.3,1-2.5c0-0.9-0.3-1.6-0.8-2S343.1,76.3,342.1,76.3z"/>
	<path class="st0" d="M367.3,76.6h-5.9v16.8h-4V76.6h-5.9V73h15.8V76.6z"/>
	<path class="st0" d="M377,88.9h-6.2l-1.5,4.5h-4l7.3-20.4h2.9l7.3,20.4h-4.2L377,88.9z M371.8,85.7h4.3l-1.5-4.5l-0.6-3.2h-0.1
		l-0.6,3.2L371.8,85.7z"/>
	<path class="st0" d="M397.2,93.3h-12.8V73h4v16.8h8.9V93.3z"/>
</g>
<g>
	<path class="st0" d="M117.6,129H14.2c-6.4,0-11.6-5.2-11.6-11.6V14.1c0-6.4,5.2-11.6,11.6-11.6h103.3c6.4,0,11.6,5.2,11.6,11.6
		v103.3C129.1,123.8,124,129,117.6,129z"/>
	<g>
		<g>
			<g>
				<linearGradient id="SVGID_1_" gradientUnits="userSpaceOnUse" x1="47.7718" y1="10.5271" x2="38.4385" y2="109.1936">
					<stop  offset="0" style="stop-color:#3499CC"/>
					<stop  offset="1" style="stop-color:#3D80BD"/>
				</linearGradient>
				<path class="st1" d="M65.9,27.4c-4.4,0-7.9,3.6-7.9,7.9c0,1.2,0.3,2.4,0.8,3.5L36.3,77.6c-1.8-0.5-3.6-0.8-5.6-0.8
					c-10.8,0-19.5,8.7-19.5,19.5c0,10.8,8.7,19.5,19.5,19.5c5.4,0,10.2-2.2,13.8-5.7l-4.9-4.9c-2.3,2.2-5.4,3.6-8.8,3.6
					c-6.9,0-12.5-5.6-12.5-12.5c0-6.9,5.6-12.5,12.5-12.5c3.9,0,7.4,1.8,9.7,4.6l3.6-6.3l22.5-38.8c4.1-0.4,7.3-3.8,7.3-7.9
					C73.8,30.9,70.3,27.4,65.9,27.4z"/>
				<linearGradient id="SVGID_2_" gradientUnits="userSpaceOnUse" x1="82.5988" y1="13.8216" x2="73.2655" y2="112.488">
					<stop  offset="0" style="stop-color:#3499CC"/>
					<stop  offset="1" style="stop-color:#3D80BD"/>
				</linearGradient>
				<path class="st2" d="M101.6,88.3L79.2,49.5c3.8-3.5,6.1-8.6,6.1-14.2c0-10.8-8.7-19.5-19.5-19.5c-10.7,0-19.5,8.7-19.5,19.5
					c0,1.7,0.2,3.4,0.7,5l6.9-1.8c-0.3-1-0.4-2.1-0.4-3.2c0-6.9,5.6-12.5,12.5-12.5c6.9,0,12.5,5.6,12.5,12.5
					c0,6.3-4.7,11.5-10.7,12.3l3.7,6.3l22.5,38.8c-0.5,1-0.8,2.2-0.8,3.4c0,4.4,3.6,7.9,7.9,7.9c4.4,0,7.9-3.6,7.9-7.9
					C109,92,105.7,88.6,101.6,88.3z"/>
				<linearGradient id="SVGID_3_" gradientUnits="userSpaceOnUse" x1="79.5042" y1="13.5288" x2="70.1709" y2="112.1953">
					<stop  offset="0" style="stop-color:#3499CC"/>
					<stop  offset="1" style="stop-color:#3D80BD"/>
				</linearGradient>
				<path class="st3" d="M106.1,77.4l-1.8,6.8c5.3,1.4,9.2,6.3,9.2,12c0,6.9-5.6,12.5-12.5,12.5c-6.9,0-12.5-5.6-12.5-12.5
					c0-1.6,0.3-3.1,0.9-4.5h-7.3H37.3c-1.4-2.1-3.8-3.5-6.6-3.5c-4.4,0-7.9,3.6-7.9,7.9c0,4.4,3.6,7.9,7.9,7.9
					c2.7,0,5.1-1.4,6.5-3.4h44.8c2,8.6,9.7,15,18.9,15c10.8,0,19.5-8.7,19.5-19.5C120.5,87.2,114.4,79.6,106.1,77.4z"/>
			</g>
		</g>
	</g>
</g>
</svg>
