<?xml version="1.0" encoding="utf-8"?>
<!-- Generator: Adobe Illustrator 23.0.3, SVG Export Plug-In . SVG Version: 6.00 Build 0)  -->
<svg version="1.1" id="Layer_1" xmlns="http://www.w3.org/2000/svg" xmlns:xlink="http://www.w3.org/1999/xlink" x="0px" y="0px"
	 viewBox="0 0 225 43.6" style="enable-background:new 0 0 225 43.6;" xml:space="preserve">
<style type="text/css">
	.st0{fill:#FFFFFF;}
	.st1{fill:none;stroke:#FFFFFF;stroke-width:0.7325;stroke-linecap:round;stroke-linejoin:round;stroke-miterlimit:10;}
</style>
<g>
	<g>
		<path class="st0" d="M216.6,18.3c-0.2-0.2-0.5-0.3-0.8-0.3c-0.3-0.1-0.6-0.1-0.9-0.1c-0.2,0-0.5,0-0.7,0c-0.2,0-0.4,0-0.5,0.1v4.1
			c0,0,0.1,0,0.2,0c0.1,0,0.2,0,0.3,0c0.1,0,0.2,0,0.3,0s0.2,0,0.2,0c0.3,0,0.6,0,1-0.1c0.3-0.1,0.6-0.2,0.9-0.3
			c0.3-0.2,0.5-0.4,0.6-0.7c0.2-0.3,0.2-0.7,0.2-1.1c0-0.4-0.1-0.7-0.2-1C217,18.7,216.8,18.4,216.6,18.3z"/>
		<path class="st0" d="M215.2,14.3C215.2,14.3,215.2,14.3,215.2,14.3L215.2,14.3h-16.6v3.8V30l0,0h16.6v0c0,0,0,0,0,0
			c4.3,0,7.8-3.5,7.8-7.8S219.6,14.3,215.2,14.3z M207.7,28.5l-3.7-5.4h-0.6v5.4h-2.5V15.9h2.5v5.6l0.6-0.3l3.5-5.3h2.8l-3.7,5.3
			l-1,0.7l1,0.7l4.2,5.9H207.7z M219.6,21.9c-0.3,0.5-0.6,1-1.1,1.3c-0.5,0.3-1,0.6-1.6,0.8c-0.6,0.2-1.2,0.2-1.8,0.2
			c-0.1,0-0.2,0-0.3,0c-0.1,0-0.3,0-0.4,0c-0.1,0-0.3,0-0.4,0c-0.1,0-0.2,0-0.3,0v4.3h-2.5V16.1c0.5-0.1,1.1-0.2,1.7-0.2
			c0.6-0.1,1.2-0.1,1.8-0.1c0.6,0,1.3,0.1,1.9,0.2c0.6,0.1,1.2,0.3,1.7,0.6c0.5,0.3,0.9,0.7,1.2,1.3c0.3,0.5,0.5,1.3,0.5,2.1
			C220,20.7,219.8,21.4,219.6,21.9z"/>
	</g>
	<g>
		<path class="st0" d="M64.4,16h-4.9v14h-1.9V16h-4.9v-1.7h11.6V16z"/>
		<path class="st0" d="M70.4,23.8l-5.2-9.4h2.2l3.7,6.8l0.4,1.4h0l0.4-1.4l3.5-6.8h2l-5.1,9.4V30h-1.9V23.8z"/>
		<path class="st0" d="M78.9,14.5c0.6-0.1,1.2-0.2,1.8-0.3c0.7,0,1.3-0.1,1.9-0.1c0.7,0,1.4,0.1,2.1,0.2c0.7,0.1,1.4,0.4,1.9,0.7
			c0.6,0.4,1.1,0.8,1.4,1.5c0.4,0.6,0.5,1.4,0.5,2.4c0,1-0.2,1.8-0.5,2.4c-0.3,0.7-0.8,1.2-1.4,1.6c-0.6,0.4-1.2,0.7-1.9,0.9
			c-0.7,0.2-1.5,0.3-2.3,0.3c-0.1,0-0.2,0-0.4,0s-0.4,0-0.5,0c-0.2,0-0.4,0-0.5,0c-0.2,0-0.3,0-0.4,0V30h-1.9V14.5z M82.7,15.8
			c-0.4,0-0.8,0-1.1,0c-0.4,0-0.6,0.1-0.8,0.1v6.5c0.1,0,0.2,0,0.4,0.1c0.2,0,0.3,0,0.5,0c0.2,0,0.3,0,0.5,0c0.2,0,0.3,0,0.4,0
			c0.5,0,1,0,1.5-0.1c0.5-0.1,0.9-0.3,1.4-0.5c0.4-0.3,0.7-0.6,1-1.1c0.2-0.5,0.4-1.1,0.4-1.8c0-0.6-0.1-1.1-0.3-1.5
			c-0.2-0.4-0.5-0.7-0.9-1c-0.4-0.2-0.8-0.4-1.3-0.5C83.6,15.8,83.2,15.8,82.7,15.8z"/>
		<path class="st0" d="M90.5,14.3H99V16h-6.7v5.1h6.1v1.7h-6.1v5.6h6.8V30h-8.6V14.3z"/>
		<path class="st0" d="M112.6,17.9c0,0.8-0.1,1.6-0.4,2.4c-0.3,0.8-0.7,1.7-1.1,2.5c-0.5,0.8-1,1.7-1.6,2.4
			c-0.6,0.8-1.2,1.6-1.7,2.3l-1.1,1v0.1l1.4-0.2h4.9V30H104v-0.6c0.3-0.3,0.7-0.8,1.2-1.3c0.5-0.5,0.9-1.1,1.4-1.7
			c0.5-0.6,1-1.3,1.5-2s0.9-1.4,1.3-2.1c0.4-0.7,0.7-1.4,0.9-2.1c0.2-0.7,0.4-1.4,0.4-2c0-0.7-0.2-1.3-0.6-1.8
			c-0.4-0.5-1.1-0.7-1.9-0.7c-0.6,0-1.1,0.1-1.7,0.3c-0.5,0.2-1,0.5-1.4,0.8l-0.7-1.3c0.5-0.4,1.1-0.8,1.9-1.1
			c0.7-0.3,1.5-0.4,2.3-0.4c0.6,0,1.2,0.1,1.7,0.3c0.5,0.2,0.9,0.5,1.3,0.8c0.3,0.3,0.6,0.7,0.8,1.2
			C112.5,16.8,112.6,17.3,112.6,17.9z"/>
		<path class="st0" d="M118.7,14.3c0.3,0,0.6-0.1,0.9-0.1c0.3,0,0.7,0,1.1,0c0.4,0,0.8,0,1.1,0c0.4,0,0.7,0,1,0
			c1.3,0,2.3,0.2,3.3,0.6c0.9,0.4,1.7,0.9,2.3,1.6c0.6,0.7,1,1.5,1.3,2.5c0.3,1,0.4,2,0.4,3.2c0,1.1-0.1,2.1-0.4,3.1
			c-0.3,1-0.7,1.8-1.3,2.6c-0.6,0.8-1.4,1.4-2.3,1.8c-1,0.5-2.1,0.7-3.5,0.7c-0.2,0-0.5,0-0.9,0c-0.4,0-0.8,0-1.2,0
			c-0.4,0-0.8,0-1.1-0.1c-0.3,0-0.6,0-0.7-0.1V14.3z M123,15.8c-0.2,0-0.4,0-0.6,0c-0.2,0-0.5,0-0.7,0c-0.2,0-0.4,0-0.6,0
			c-0.2,0-0.3,0-0.4,0v12.5c0.1,0,0.2,0,0.4,0c0.2,0,0.4,0,0.6,0c0.2,0,0.4,0,0.6,0c0.2,0,0.4,0,0.4,0c1,0,1.9-0.2,2.6-0.5
			c0.7-0.4,1.3-0.8,1.7-1.4c0.4-0.6,0.7-1.3,0.9-2.1c0.2-0.8,0.3-1.6,0.3-2.4c0-0.7-0.1-1.5-0.2-2.2c-0.2-0.7-0.4-1.4-0.8-2
			c-0.4-0.6-0.9-1.1-1.6-1.5C124.8,16,124,15.8,123,15.8z"/>
		<path class="st0" d="M132.7,14.3h1.9V30h-1.9V14.3z"/>
		<path class="st0" d="M147.1,17.9c0,0.4-0.1,0.8-0.2,1.1c-0.1,0.4-0.3,0.7-0.5,1.1c-0.2,0.3-0.5,0.6-0.9,0.9
			c-0.4,0.3-0.8,0.4-1.3,0.6v0.1c0.4,0.1,0.9,0.2,1.3,0.4s0.8,0.4,1.1,0.7c0.3,0.3,0.6,0.7,0.8,1.1c0.2,0.4,0.3,1,0.3,1.6
			c0,0.8-0.2,1.5-0.5,2.1c-0.3,0.6-0.8,1.1-1.3,1.4c-0.5,0.4-1.2,0.6-1.9,0.8c-0.7,0.2-1.4,0.3-2.1,0.3c-0.3,0-0.6,0-0.9,0
			c-0.3,0-0.7,0-1.1,0c-0.4,0-0.7-0.1-1.1-0.1c-0.4,0-0.7-0.1-1-0.2V14.5c0.6-0.1,1.2-0.2,1.9-0.2c0.7-0.1,1.5-0.1,2.4-0.1
			c0.6,0,1.2,0,1.8,0.1c0.6,0.1,1.2,0.3,1.6,0.6c0.5,0.3,0.9,0.7,1.2,1.2C147,16.5,147.1,17.1,147.1,17.9z M140.7,21.2
			c0.3,0,0.6,0,0.9,0c0.4,0,0.7,0,0.9-0.1c0.4-0.1,0.7-0.3,1-0.4c0.3-0.2,0.6-0.4,0.8-0.6c0.2-0.2,0.4-0.5,0.6-0.8
			c0.1-0.3,0.2-0.6,0.2-1c0-0.5-0.1-0.9-0.3-1.2c-0.2-0.3-0.4-0.6-0.7-0.8c-0.3-0.2-0.7-0.3-1.1-0.4c-0.4-0.1-0.8-0.1-1.2-0.1
			c-0.5,0-0.9,0-1.4,0c-0.4,0-0.7,0.1-0.9,0.1v5.3H140.7z M141.9,28.6c0.5,0,0.9-0.1,1.4-0.2c0.4-0.1,0.8-0.3,1.2-0.5
			c0.3-0.2,0.6-0.5,0.8-0.9c0.2-0.4,0.3-0.8,0.3-1.3c0-0.6-0.1-1.1-0.4-1.5c-0.2-0.4-0.6-0.7-1-0.9c-0.4-0.2-0.8-0.3-1.3-0.4
			c-0.5-0.1-1-0.1-1.5-0.1h-1.9v5.6c0.1,0,0.3,0.1,0.4,0.1s0.4,0,0.6,0c0.2,0,0.5,0,0.7,0C141.6,28.6,141.8,28.6,141.9,28.6z"/>
		<path class="st0" d="M149.9,14.3h8.5V16h-6.7v5.1h6.1v1.7h-6.1v5.6h6.8V30h-8.6V14.3z"/>
		<path class="st0" d="M171.5,16h-4.9v14h-1.9V16h-4.9v-1.7h11.6V16z"/>
		<path class="st0" d="M173.1,14.3h8.5V16H175v5.1h6.1v1.7H175v5.6h6.8V30h-8.6V14.3z"/>
		<path class="st0" d="M191.4,26c0-0.6-0.2-1.1-0.6-1.5c-0.4-0.4-0.8-0.7-1.4-1.1c-0.6-0.3-1.2-0.6-1.8-0.9c-0.7-0.3-1.3-0.6-1.8-1
			c-0.6-0.4-1-0.8-1.4-1.4c-0.4-0.6-0.6-1.3-0.6-2.1c0-1.2,0.4-2.2,1.3-2.9c0.8-0.7,2.1-1.1,3.6-1.1c0.9,0,1.7,0.1,2.5,0.2
			c0.7,0.1,1.3,0.3,1.7,0.5l-0.6,1.7c-0.3-0.2-0.8-0.3-1.5-0.5c-0.7-0.2-1.4-0.2-2.2-0.2c-1,0-1.7,0.2-2.2,0.7
			c-0.5,0.4-0.7,1-0.7,1.6c0,0.6,0.2,1.1,0.6,1.5c0.4,0.4,0.8,0.7,1.4,1c0.6,0.3,1.2,0.6,1.8,0.9c0.7,0.3,1.3,0.6,1.8,1
			c0.6,0.4,1,0.9,1.4,1.4c0.4,0.6,0.6,1.2,0.6,2.1c0,0.7-0.1,1.3-0.4,1.8c-0.2,0.5-0.6,1-1.1,1.4c-0.5,0.4-1,0.7-1.7,0.9
			c-0.7,0.2-1.4,0.3-2.2,0.3c-1.1,0-2-0.1-2.8-0.3c-0.7-0.2-1.3-0.4-1.7-0.6l0.6-1.7c0.3,0.2,0.8,0.4,1.5,0.6
			c0.7,0.2,1.4,0.3,2.3,0.3c0.5,0,1,0,1.4-0.1c0.4-0.1,0.8-0.3,1.1-0.5c0.3-0.2,0.6-0.5,0.7-0.8C191.3,26.8,191.4,26.5,191.4,26z"/>
	</g>
	<g>
		<path class="st1" d="M38,40.8H6.6c-1.9,0-3.5-1.6-3.5-3.5V6c0-1.9,1.6-3.5,3.5-3.5H38c1.9,0,3.5,1.6,3.5,3.5v31.3
			C41.5,39.3,39.9,40.8,38,40.8z"/>
		<g>
			<g>
				<g>
					<path class="st0" d="M22.3,10c-1.3,0-2.4,1.1-2.4,2.4c0,0.4,0.1,0.7,0.2,1.1l-6.8,11.8c-0.5-0.2-1.1-0.3-1.7-0.3
						c-3.3,0-5.9,2.6-5.9,5.9c0,3.3,2.6,5.9,5.9,5.9c1.6,0,3.1-0.7,4.2-1.7l-1.5-1.5c-0.7,0.7-1.6,1.1-2.7,1.1
						c-2.1,0-3.8-1.7-3.8-3.8c0-2.1,1.7-3.8,3.8-3.8c1.2,0,2.2,0.5,2.9,1.4l1.1-1.9l6.8-11.8c1.2-0.1,2.2-1.1,2.2-2.4
						C24.7,11.1,23.6,10,22.3,10z"/>
					<path class="st0" d="M33.2,28.5l-6.8-11.8c1.1-1.1,1.9-2.6,1.9-4.3c0-3.3-2.6-5.9-5.9-5.9c-3.3,0-5.9,2.6-5.9,5.9
						c0,0.5,0.1,1,0.2,1.5l2.1-0.6c-0.1-0.3-0.1-0.6-0.1-1c0-2.1,1.7-3.8,3.8-3.8c2.1,0,3.8,1.7,3.8,3.8c0,1.9-1.4,3.5-3.2,3.7
						l1.1,1.9l6.8,11.8c-0.1,0.3-0.2,0.7-0.2,1c0,1.3,1.1,2.4,2.4,2.4c1.3,0,2.4-1.1,2.4-2.4C35.4,29.6,34.4,28.6,33.2,28.5z"/>
					<path class="st0" d="M34.5,25.2l-0.6,2.1c1.6,0.4,2.8,1.9,2.8,3.6c0,2.1-1.7,3.8-3.8,3.8c-2.1,0-3.8-1.7-3.8-3.8
						c0-0.5,0.1-0.9,0.3-1.4h-2.2H13.6c-0.4-0.6-1.2-1-2-1c-1.3,0-2.4,1.1-2.4,2.4c0,1.3,1.1,2.4,2.4,2.4c0.8,0,1.6-0.4,2-1h13.6
						c0.6,2.6,2.9,4.5,5.7,4.5c3.3,0,5.9-2.6,5.9-5.9C38.9,28.2,37,25.9,34.5,25.2z"/>
				</g>
			</g>
		</g>
	</g>
</g>
</svg>
