<?xml version="1.0" encoding="utf-8"?>
<!-- Generator: Adobe Illustrator 21.1.0, SVG Export Plug-In . SVG Version: 6.00 Build 0)  -->
<svg version="1.1" id="Layer_1" xmlns="http://www.w3.org/2000/svg" xmlns:xlink="http://www.w3.org/1999/xlink" x="0px" y="0px"
	 viewBox="0 0 500 200" style="enable-background:new 0 0 500 200;" xml:space="preserve">
<style type="text/css">
	.st0{fill:none;}
	.st1{fill:#FFFFFF;}
	.st2{fill:none;stroke:#567BBC;stroke-width:1.1519;stroke-miterlimit:10;}
	.st3{fill:none;stroke:#EF65A4;stroke-width:1.1519;stroke-miterlimit:10;}
	.st4{fill:none;stroke:#8197CC;stroke-width:1.1519;stroke-miterlimit:10;}
	.st5{fill:none;stroke:#8BC53F;stroke-width:1.1519;stroke-miterlimit:10;}
	.st6{fill:none;stroke:#A9B389;stroke-width:1.1519;stroke-miterlimit:10;}
	.st7{fill:none;stroke:#C685B9;stroke-width:1.1519;stroke-miterlimit:10;}
	.st8{fill:none;stroke:#37B34A;stroke-width:1.1519;stroke-miterlimit:10;}
	.st9{fill:none;stroke:#D6DE23;stroke-width:1.1519;stroke-miterlimit:10;}
	.st10{fill:none;stroke:#85D0CF;stroke-width:1.1519;stroke-miterlimit:10;}
	.st11{fill:#567BBC;}
	.st12{fill:#C678B1;}
	.st13{fill:#8BC53F;}
	.st14{fill:#8197CC;}
	.st15{fill:#37B34A;}
	.st16{fill:#D6DE23;}
	.st17{fill:#EF65A4;}
</style>
<rect class="st0" width="500" height="179.5"/>
<g>
	<circle class="st1" cx="65.1" cy="65.1" r="63.5"/>
	<g>
		<g>
			<path class="st1" d="M151.9,164.8v-23h2.1v10.6h0.1l8.2-10.6h2.5l-8.6,10.7l8.8,12.2h-2.6l-8.3-11.8H154v11.8h-2.1V164.8z"/>
			<path class="st1" d="M167.8,164.8v-23h3.1l9.3,20.2l0.1-0.1v-20.1h2.1v23h-3.1l-9.3-20.5l-0.1,0.1v20.3L167.8,164.8L167.8,164.8z
				"/>
			<path class="st1" d="M193.6,141.4c6.9,0,7,5.7,7,11.9c0,6.2-0.1,11.9-7,11.9c-6.9,0-7-5.7-7-11.9
				C186.8,147.1,186.8,141.4,193.6,141.4z M193.6,163.6c4.9,0,4.9-4.2,4.9-10.3c0-6.1-0.1-10.3-4.9-10.3c-4.8,0-4.9,4.2-4.9,10.3
				C188.7,159.4,188.8,163.6,193.6,163.6z"/>
			<path class="st1" d="M214.4,141.8h2.7l4.7,20.1h0.1l4.9-20.1h2l-5.7,23h-2.7l-4.7-20.5h-0.1l-4.8,20.5h-2.6l-5.3-23h2.2l4.7,20.3
				l0,0L214.4,141.8z"/>
			<path class="st1" d="M231.2,164.8v-23h2.1V163h7.6v1.8H231.2z"/>
			<path class="st1" d="M254.2,141.8v1.8h-8.4v8.6h8v1.8h-8v9.2h8.6v1.8h-10.6v-23.1H254.2z"/>
			<path class="st1" d="M258,141.8h6.1c6.4,0,7.3,3.7,7.3,11.6c0,7.7-1.1,11.4-8.1,11.4H258V141.8z M260.1,163h2.5
				c6.1,0,6.7-1.7,6.7-11.1c0-6.6-0.9-8.5-6.5-8.5h-2.7V163z"/>
			<path class="st1" d="M286.5,154.5h-4.7v-1.8h6.6v11.5c-2.1,0.6-4.2,0.9-6.3,0.9c-7.5,0-7-7.5-7-11.9c0-4.5-0.5-11.9,7-11.9
				c4.4,0,6.6,1.9,6.5,6.3h-2.1c0-3-1.3-4.7-4.6-4.7c-5,0-4.9,4.5-4.9,10.3s-0.1,10.3,4.9,10.3c1.8,0,3.2-0.2,4.3-0.6v-8.4H286.5z"
				/>
			<path class="st1" d="M303.9,141.8v1.8h-8.4v8.6h8v1.8h-8v9.2h8.6v1.8h-10.7v-23.1H303.9z"/>
			<path class="st1" d="M314.3,141.8h6.3c1.9,0,5.1,0.2,5.1,5.6c0,4.7-1.5,6.7-5.4,6.7h-3.8v10.7h-2.1v-23H314.3z M316.3,152.4h3.8
				c2.2,0,3.5-1,3.5-4.7c0-3.9-1.7-4.3-3.5-4.3h-3.7v8.9H316.3z"/>
			<path class="st1" d="M335.3,141.4c6.9,0,7,5.7,7,11.9c0,6.2-0.1,11.9-7,11.9c-6.9,0-7-5.7-7-11.9
				C328.4,147.1,328.4,141.4,335.3,141.4z M335.3,163.6c4.9,0,4.9-4.2,4.9-10.3c0-6.1-0.1-10.3-4.9-10.3c-4.9,0-4.9,4.2-4.9,10.3
				C330.3,159.4,330.4,163.6,335.3,163.6z"/>
			<path class="st1" d="M348.4,153.6v11.1h-2.1v-22.9h6.3c4.5,0,5.5,1.5,5.5,5.5c0,2.9-0.5,4.8-3.5,5.5v0.1c3.2,0.6,3.4,1,3.4,9.2
				c0,0.9,0.2,1.8,0.2,2.7h-2c-0.2-0.6-0.3-4.5-0.3-5.7c0-1,0.6-5.4-3.8-5.4h-3.7V153.6z M348.4,151.9h3.3c3,0,4.5-0.8,4.5-4.7
				c0-3.1-1.2-3.7-3.6-3.7h-4.2V151.9z"/>
			<path class="st1" d="M366.1,143.5h-5.6v-1.8h13.3v1.8h-5.6v21.3h-2.1V143.5L366.1,143.5z"/>
			<path class="st1" d="M382.8,141.8l7.2,23h-2.2l-1.9-6h-9l-1.8,6H373l7.3-23H382.8z M385.3,157l-3.9-13h-0.1l-3.8,13H385.3z"/>
			<path class="st1" d="M392.5,164.8v-23h2.1V163h7.6v1.8H392.5z"/>
		</g>
		<g>
			<path class="st1" d="M4.3,165.4V141h13.3v3.8H9.4v6H17v3.8H9.4v7.1h8.5v3.8H4.3V165.4z"/>
			<path class="st1" d="M21.2,141h9.2c4.7,0,6.5,2.8,6.5,7.3c0,2.8-0.8,7.2-6.8,7.2h-3.8v9.9h-5.1C21.2,165.4,21.2,141,21.2,141z
				 M26.3,151.7h2.8c1.5,0,2.6-1.7,2.6-3.3c0-2-0.5-3.7-2.8-3.7h-2.6V151.7z"/>
			<path class="st1" d="M40,165.4V141h5.1v24.4H40z"/>
			<path class="st1" d="M49.4,165.4V141h5.1v20.3h7.6v4.1L49.4,165.4L49.4,165.4z"/>
			<path class="st1" d="M64.4,165.4V141h13.3v3.8h-8.2v6H77v3.8h-7.6v7.1h8.5v3.8H64.4V165.4z"/>
			<path class="st1" d="M81.3,141h9.2c4.7,0,6.5,2.8,6.5,7.3c0,2.8-0.8,7.2-6.8,7.2h-3.8v9.9h-5.1C81.3,165.4,81.3,141,81.3,141z
				 M86.4,151.7h2.8c1.5,0,2.6-1.7,2.6-3.3c0-2-0.5-3.7-2.8-3.7h-2.6V151.7z"/>
			<path class="st1" d="M106.7,165.8c-6.3,0-7.5-3.7-7.2-7.9h5.1c0,2.3,0.1,4.3,2.9,4.3c1.7,0,2.6-1.1,2.6-2.8
				c0-4.4-10.3-4.7-10.3-11.9c0-3.8,1.8-6.9,8-6.9c5,0,7.4,2.2,7.1,7.3h-5c0-1.8-0.3-3.7-2.4-3.7c-1.7,0-2.6,0.9-2.6,2.6
				c0,4.6,10.3,4.2,10.3,11.9C115.2,165,110.5,165.8,106.7,165.8z"/>
			<path class="st1" d="M123.3,156.9l-6.4-15.9h5.6l3.6,10.3L130,141h5.2l-6.8,15.9v8.4h-5.1C123.3,165.3,123.3,156.9,123.3,156.9z"
				/>
		</g>
	</g>
	<g>
		<g>
			<g>
				<line class="st2" x1="51.9" y1="18.9" x2="59.8" y2="19"/>
				<line class="st3" x1="37.6" y1="29" x2="46.6" y2="27.9"/>
				<line class="st4" x1="43.1" y1="23.2" x2="53.8" y2="24.8"/>
				<line class="st5" x1="53.8" y1="24.8" x2="61.9" y2="27.7"/>
				<line class="st6" x1="46.6" y1="27.9" x2="52.9" y2="34.3"/>
				<line class="st4" x1="43.1" y1="23.2" x2="51.9" y2="18.9"/>
				<line class="st7" x1="37.6" y1="28.9" x2="43.1" y2="23.2"/>
				<line class="st3" x1="33" y1="37.5" x2="37.6" y2="28.9"/>
				<line class="st7" x1="29.6" y1="45.8" x2="33" y2="37.5"/>
				<line class="st8" x1="33.1" y1="53" x2="36.2" y2="43.9"/>
				<line class="st4" x1="27.2" y1="53.7" x2="29.6" y2="45.8"/>
				<line class="st2" x1="23.8" y1="59.8" x2="27.3" y2="53.6"/>
				<line class="st2" x1="23.7" y1="69.2" x2="30.1" y2="64.8"/>
				<line class="st2" x1="23.7" y1="69.2" x2="23.8" y2="59.8"/>
				<line class="st4" x1="29.5" y1="77.9" x2="30.1" y2="64.8"/>
				<line class="st8" x1="30.1" y1="64.8" x2="33.1" y2="53.1"/>
				<line class="st4" x1="22.7" y1="78.1" x2="23.7" y2="69.2"/>
				<line class="st7" x1="24" y1="85.9" x2="22.7" y2="78.1"/>
				<line class="st3" x1="26.4" y1="94.6" x2="24" y2="85.9"/>
				<line class="st3" x1="31.7" y1="102" x2="26.4" y2="94.6"/>
				<line class="st7" x1="38.1" y1="107.3" x2="31.7" y2="102"/>
				<line class="st4" x1="45.8" y1="108.6" x2="38.1" y2="107.4"/>
				<line class="st9" x1="52.9" y1="110.1" x2="45.8" y2="108.6"/>
				<line class="st9" x1="60.7" y1="107" x2="52.9" y2="110.1"/>
				<line class="st5" x1="63.1" y1="100.3" x2="60.7" y2="107"/>
				<line class="st6" x1="63.1" y1="100.3" x2="61.3" y2="94.3"/>
				<line class="st7" x1="61.3" y1="94.3" x2="62.4" y2="87"/>
				<line class="st3" x1="62.3" y1="87" x2="62.5" y2="78.7"/>
				<line class="st3" x1="62.5" y1="78.7" x2="62.7" y2="70.8"/>
				<line class="st7" x1="62.7" y1="70.8" x2="63.6" y2="63.5"/>
				<line class="st4" x1="63.6" y1="63.3" x2="61.1" y2="56.9"/>
				<line class="st2" x1="61.1" y1="56.9" x2="62.5" y2="49.6"/>
				<line class="st8" x1="62.5" y1="49.6" x2="62" y2="42"/>
				<line class="st9" x1="62" y1="42.1" x2="61.2" y2="34.9"/>
				<line class="st9" x1="61.2" y1="35" x2="61.9" y2="27.7"/>
				<line class="st2" x1="53.8" y1="24.8" x2="59.8" y2="19"/>
				<line class="st4" x1="46.6" y1="27.9" x2="53.8" y2="24.8"/>
				<line class="st5" x1="52.9" y1="34.3" x2="61.9" y2="27.7"/>
				<line class="st10" x1="49.1" y1="42.2" x2="52.9" y2="34.3"/>
				<line class="st2" x1="53.8" y1="24.8" x2="51.9" y2="18.9"/>
				<line class="st4" x1="46.6" y1="27.9" x2="43.1" y2="23.2"/>
				<line class="st8" x1="52.9" y1="34.2" x2="53.8" y2="24.8"/>
				<line class="st8" x1="55.5" y1="47.8" x2="52.9" y2="34.2"/>
				<line class="st7" x1="33" y1="37.5" x2="40.8" y2="36.1"/>
				<line class="st4" x1="36.2" y1="44" x2="49" y2="42.2"/>
				<line class="st6" x1="40.8" y1="36.1" x2="52.9" y2="34.3"/>
				<line class="st7" x1="40.8" y1="36.1" x2="46.6" y2="27.9"/>
				<line class="st4" x1="36.2" y1="44" x2="40.8" y2="36.1"/>
				<line class="st3" x1="40.8" y1="36.1" x2="37.6" y2="29"/>
				<line class="st4" x1="29.6" y1="45.8" x2="36.2" y2="44"/>
				<line class="st7" x1="36.2" y1="44" x2="33" y2="37.5"/>
				<line class="st8" x1="27.2" y1="53.7" x2="33.1" y2="53"/>
				<line class="st6" x1="33.1" y1="53" x2="29.6" y2="45.8"/>
				<line class="st4" x1="22.7" y1="78.1" x2="29.4" y2="77.9"/>
				<line class="st2" x1="23.8" y1="59.8" x2="30.1" y2="64.7"/>
				<line class="st6" x1="29.5" y1="77.9" x2="38.4" y2="72.8"/>
				<line class="st6" x1="30.1" y1="64.8" x2="38.5" y2="72.7"/>
				<line class="st6" x1="30.1" y1="64.7" x2="39.1" y2="63"/>
				<line class="st5" x1="33.1" y1="53" x2="39.1" y2="62.9"/>
				<line class="st7" x1="24" y1="85.9" x2="29.5" y2="77.9"/>
				<line class="st4" x1="23.7" y1="69.2" x2="29.5" y2="77.9"/>
				<line class="st2" x1="30.1" y1="64.7" x2="27.2" y2="53.7"/>
				<line class="st4" x1="49.1" y1="42.2" x2="40.8" y2="36.1"/>
				<line class="st9" x1="33.1" y1="53.1" x2="41.1" y2="53.5"/>
				<line class="st4" x1="49.1" y1="42.3" x2="50.4" y2="55.4"/>
				<line class="st4" x1="55.5" y1="47.8" x2="61.1" y2="57"/>
				<line class="st9" x1="41.1" y1="53.5" x2="49.1" y2="42.2"/>
				<line class="st4" x1="50.4" y1="55.3" x2="55.5" y2="47.8"/>
				<line class="st8" x1="55.5" y1="47.8" x2="62" y2="42.1"/>
				<line class="st5" x1="52.9" y1="34.3" x2="62" y2="42"/>
				<line class="st9" x1="52.9" y1="34.3" x2="61.2" y2="34.9"/>
				<line class="st9" x1="39.1" y1="63" x2="41.1" y2="53.5"/>
				<line class="st9" x1="41.1" y1="53.5" x2="36.2" y2="44"/>
				<line class="st4" x1="55.5" y1="47.8" x2="49.1" y2="42.2"/>
				<line class="st9" x1="50.4" y1="55.3" x2="41.1" y2="53.5"/>
				<line class="st7" x1="32.7" y1="88.8" x2="39.9" y2="97.7"/>
				<line class="st4" x1="29.5" y1="77.9" x2="38.4" y2="81.4"/>
				<line class="st2" x1="56.9" y1="70.8" x2="57.9" y2="61.7"/>
				<line class="st4" x1="50.4" y1="55.3" x2="57.9" y2="61.7"/>
				<line class="st2" x1="57.9" y1="61.7" x2="61.1" y2="57"/>
				<line class="st6" x1="49.2" y1="64.2" x2="39.1" y2="63"/>
				<line class="st4" x1="49.2" y1="64.2" x2="50.4" y2="55.3"/>
				<line class="st4" x1="56.9" y1="70.8" x2="63.6" y2="63.3"/>
				<line class="st4" x1="56.9" y1="89.8" x2="61.3" y2="94.3"/>
				<line class="st7" x1="56.6" y1="89.6" x2="62.3" y2="87"/>
				<line class="st7" x1="55.6" y1="80.8" x2="62.3" y2="87"/>
				<line class="st3" x1="55.6" y1="80.8" x2="62.5" y2="78.7"/>
				<line class="st6" x1="39.1" y1="63" x2="50.4" y2="55.4"/>
				<line class="st6" x1="56.5" y1="97.3" x2="61.3" y2="94.3"/>
				<line class="st5" x1="56.7" y1="97.4" x2="60.7" y2="107"/>
				<line class="st8" x1="56.5" y1="97.3" x2="63.2" y2="100.6"/>
				<line class="st7" x1="57" y1="71" x2="62.7" y2="70.8"/>
				<line class="st7" x1="56.9" y1="70.8" x2="62.5" y2="78.7"/>
				<line class="st4" x1="57.9" y1="61.7" x2="63.6" y2="63.3"/>
				<line class="st2" x1="49.4" y1="64.4" x2="57" y2="71"/>
				<line class="st5" x1="50" y1="102.9" x2="56.5" y2="97.3"/>
				<line class="st6" x1="48.8" y1="94.2" x2="56.6" y2="89.6"/>
				<line class="st2" x1="49.6" y1="83.5" x2="56.6" y2="89.6"/>
				<line class="st2" x1="49.6" y1="83.5" x2="55.6" y2="80.8"/>
				<line class="st8" x1="48.9" y1="94.3" x2="56.5" y2="97.3"/>
				<line class="st5" x1="50" y1="102.9" x2="60.4" y2="106.9"/>
				<line class="st5" x1="40.1" y1="97.9" x2="50" y2="102.9"/>
				<line class="st2" x1="48.7" y1="73.8" x2="57" y2="71"/>
				<line class="st2" x1="48.7" y1="73.8" x2="55.6" y2="80.8"/>
				<line class="st2" x1="49.2" y1="64.2" x2="57.9" y2="61.7"/>
				<line class="st9" x1="50" y1="102.9" x2="52.9" y2="110.1"/>
				<line class="st7" x1="32.7" y1="88.8" x2="29.5" y2="77.9"/>
				<line class="st3" x1="32.7" y1="88.8" x2="26.4" y2="94.5"/>
				<line class="st5" x1="38.4" y1="72.7" x2="39.1" y2="63"/>
				<line class="st7" x1="32.7" y1="88.8" x2="24.3" y2="86"/>
				<line class="st4" x1="55.5" y1="47.8" x2="62.6" y2="49.5"/>
				<line class="st4" x1="61.1" y1="56.9" x2="50.4" y2="55.3"/>
				<line class="st6" x1="43" y1="88.7" x2="48.8" y2="94.2"/>
				<line class="st5" x1="50" y1="102.9" x2="48.9" y2="94.3"/>
				<line class="st7" x1="31.7" y1="102" x2="32.7" y2="89.1"/>
				<line class="st5" x1="45.8" y1="108.6" x2="39.9" y2="97.7"/>
				<line class="st5" x1="45.8" y1="108.6" x2="50" y2="102.9"/>
				<line class="st7" x1="32.7" y1="88.8" x2="43" y2="88.7"/>
				<line class="st4" x1="38.1" y1="107.3" x2="39.9" y2="97.7"/>
				<line class="st7" x1="31.7" y1="102" x2="39.9" y2="97.7"/>
				<line class="st4" x1="40.1" y1="97.5" x2="43" y2="88.7"/>
				<line class="st7" x1="32.7" y1="88.8" x2="38.4" y2="81.4"/>
				<line class="st2" x1="43" y1="88.7" x2="49.6" y2="83.5"/>
				<line class="st6" x1="38.5" y1="72.7" x2="48.7" y2="73.8"/>
				<line class="st6" x1="38.4" y1="72.7" x2="49.2" y2="64.2"/>
				<line class="st2" x1="49.6" y1="83.5" x2="48.7" y2="73.8"/>
				<line class="st2" x1="48.7" y1="73.8" x2="49.2" y2="64.2"/>
				<line class="st6" x1="38.4" y1="72.7" x2="38.4" y2="81.4"/>
				<line class="st4" x1="38.4" y1="81.4" x2="48.7" y2="73.8"/>
				<line class="st4" x1="38.4" y1="81.4" x2="49.6" y2="83.5"/>
				<line class="st4" x1="38.4" y1="81.4" x2="43" y2="88.7"/>
				<line class="st6" x1="39.9" y1="97.7" x2="48.8" y2="94.2"/>
				<line class="st2" x1="48.8" y1="94.2" x2="49.6" y2="83.5"/>
				<line class="st5" x1="61.9" y1="27.7" x2="59.8" y2="19"/>
				<circle class="st11" cx="51.9" cy="18.9" r="1.8"/>
				<circle class="st11" cx="59.9" cy="19" r="2.1"/>
				<circle class="st11" cx="53.8" cy="24.8" r="1.8"/>
				<circle class="st12" cx="46.6" cy="27.9" r="2.3"/>
				<circle class="st13" cx="52.9" cy="34.3" r="2.3"/>
				<circle class="st14" cx="40.8" cy="36.1" r="1.8"/>
				<circle class="st14" cx="36.2" cy="44" r="1.8"/>
				<circle class="st15" cx="33.1" cy="53" r="2.3"/>
				<circle class="st11" cx="30.1" cy="64.8" r="1.8"/>
				<circle class="st14" cx="29.5" cy="77.9" r="1.8"/>
				<circle class="st12" cx="32.7" cy="88.8" r="2.3"/>
				<circle class="st14" cx="39.9" cy="97.7" r="1.8"/>
				<circle class="st13" cx="50" cy="102.9" r="2.3"/>
				<circle class="st15" cx="56.5" cy="97.3" r="1.8"/>
				<circle class="st14" cx="56.6" cy="89.6" r="1.8"/>
				<circle class="st12" cx="55.6" cy="80.8" r="2.3"/>
				<circle class="st11" cx="56.9" cy="70.8" r="1.8"/>
				<circle class="st11" cx="57.9" cy="61.7" r="1.8"/>
				<circle class="st14" cx="50.4" cy="55.3" r="1.8"/>
				<circle class="st16" cx="41.2" cy="53.5" r="3.2"/>
				<circle class="st13" cx="39.1" cy="63" r="2.3"/>
				<circle class="st11" cx="49.2" cy="64.2" r="1.8"/>
				<circle class="st11" cx="48.7" cy="73.8" r="1.8"/>
				<circle class="st15" cx="38.4" cy="72.7" r="1.8"/>
				<circle class="st14" cx="38.4" cy="81.4" r="1.8"/>
				<circle class="st11" cx="43" cy="88.7" r="1.8"/>
				<circle class="st11" cx="49.6" cy="83.5" r="1.8"/>
				<circle class="st15" cx="48.8" cy="94.2" r="1.8"/>
				<circle class="st14" cx="49.1" cy="42.2" r="1.8"/>
				<circle class="st14" cx="55.5" cy="47.8" r="1.8"/>
				<circle class="st13" cx="61.9" cy="27.7" r="2.3"/>
				<circle class="st15" cx="62" cy="42" r="2.3"/>
				<circle class="st16" cx="61.2" cy="34.9" r="3.2"/>
				<circle class="st14" cx="43.1" cy="23.2" r="1.8"/>
				<circle class="st17" cx="37.6" cy="29" r="3.2"/>
				<circle class="st12" cx="33" cy="37.5" r="2.3"/>
				<circle class="st14" cx="29.6" cy="45.8" r="1.8"/>
				<circle class="st11" cx="27.2" cy="53.7" r="1.8"/>
				<circle class="st11" cx="23.8" cy="59.8" r="1.8"/>
				<circle class="st11" cx="23.7" cy="69.2" r="1.8"/>
				<circle class="st14" cx="22.7" cy="78.1" r="1.8"/>
				<ellipse class="st12" cx="24" cy="85.9" rx="2.3" ry="2.3"/>
				<circle class="st17" cx="26.4" cy="94.5" r="3.2"/>
				<circle class="st12" cx="31.7" cy="102" r="2.3"/>
				<circle class="st14" cx="38.1" cy="107.3" r="1.8"/>
				<circle class="st13" cx="45.8" cy="108.6" r="2.3"/>
				<circle class="st16" cx="52.9" cy="110.1" r="3.2"/>
				<circle class="st13" cx="60.7" cy="107" r="2.3"/>
				<circle class="st15" cx="63.1" cy="100.3" r="1.8"/>
				<circle class="st14" cx="61.3" cy="94.3" r="1.8"/>
				<circle class="st12" cx="62.3" cy="87" r="2.3"/>
				<circle class="st17" cx="62.5" cy="78.7" r="3.2"/>
				<circle class="st12" cx="62.7" cy="70.8" r="2.3"/>
				<circle class="st14" cx="63.6" cy="63.3" r="1.8"/>
				<circle class="st11" cx="61.1" cy="56.9" r="1.8"/>
				<circle class="st11" cx="62.6" cy="49.5" r="1.8"/>
			</g>
		</g>
		<g>
			<g>
				<line class="st2" x1="78.2" y1="18.9" x2="70.3" y2="19"/>
				<line class="st3" x1="92.5" y1="29" x2="83.5" y2="27.9"/>
				<line class="st4" x1="87.1" y1="23.2" x2="76.3" y2="24.8"/>
				<line class="st5" x1="76.3" y1="24.8" x2="68.2" y2="27.7"/>
				<line class="st6" x1="83.5" y1="27.9" x2="77.3" y2="34.3"/>
				<line class="st4" x1="87" y1="23.2" x2="78.2" y2="18.9"/>
				<line class="st7" x1="92.5" y1="28.9" x2="87.1" y2="23.2"/>
				<line class="st3" x1="97.1" y1="37.5" x2="92.5" y2="28.9"/>
				<line class="st7" x1="100.5" y1="45.8" x2="97.1" y2="37.5"/>
				<line class="st8" x1="97" y1="53" x2="93.9" y2="43.9"/>
				<line class="st4" x1="102.9" y1="53.7" x2="100.5" y2="45.8"/>
				<line class="st2" x1="106.3" y1="59.8" x2="102.9" y2="53.6"/>
				<line class="st2" x1="106.5" y1="69.2" x2="100" y2="64.8"/>
				<line class="st2" x1="106.5" y1="69.2" x2="106.3" y2="59.8"/>
				<line class="st4" x1="100.7" y1="77.9" x2="100.1" y2="64.8"/>
				<line class="st8" x1="100.1" y1="64.8" x2="97" y2="53.1"/>
				<line class="st4" x1="107.4" y1="78.1" x2="106.5" y2="69.2"/>
				<line class="st7" x1="106.1" y1="85.9" x2="107.4" y2="78.1"/>
				<line class="st3" x1="103.7" y1="94.6" x2="106.1" y2="85.9"/>
				<line class="st3" x1="98.4" y1="102" x2="103.7" y2="94.6"/>
				<line class="st7" x1="92" y1="107.3" x2="98.4" y2="102"/>
				<line class="st4" x1="84.3" y1="108.6" x2="92" y2="107.4"/>
				<line class="st9" x1="77.3" y1="110.1" x2="84.3" y2="108.6"/>
				<line class="st9" x1="69.4" y1="107" x2="77.3" y2="110.1"/>
				<line class="st5" x1="67" y1="100.3" x2="69.4" y2="107"/>
				<line class="st6" x1="67" y1="100.3" x2="68.8" y2="94.3"/>
				<line class="st7" x1="68.8" y1="94.3" x2="67.7" y2="87"/>
				<line class="st3" x1="67.8" y1="87" x2="67.6" y2="78.7"/>
				<line class="st3" x1="67.6" y1="78.7" x2="67.4" y2="70.8"/>
				<line class="st7" x1="67.4" y1="70.8" x2="66.5" y2="63.5"/>
				<line class="st4" x1="66.5" y1="63.3" x2="69" y2="56.9"/>
				<line class="st2" x1="69" y1="56.9" x2="67.6" y2="49.6"/>
				<line class="st8" x1="67.6" y1="49.6" x2="68.1" y2="42"/>
				<line class="st9" x1="68.1" y1="42.1" x2="68.9" y2="34.9"/>
				<line class="st9" x1="68.9" y1="35" x2="68.2" y2="27.7"/>
				<line class="st2" x1="76.3" y1="24.8" x2="70.3" y2="19"/>
				<line class="st4" x1="83.5" y1="27.9" x2="76.3" y2="24.8"/>
				<line class="st5" x1="77.3" y1="34.3" x2="68.2" y2="27.7"/>
				<line class="st10" x1="81" y1="42.2" x2="77.2" y2="34.3"/>
				<line class="st2" x1="76.3" y1="24.8" x2="78.2" y2="18.9"/>
				<line class="st4" x1="83.5" y1="27.9" x2="87" y2="23.2"/>
				<line class="st8" x1="77.2" y1="34.2" x2="76.3" y2="24.8"/>
				<line class="st8" x1="74.7" y1="47.8" x2="77.2" y2="34.2"/>
				<line class="st7" x1="97.1" y1="37.5" x2="89.3" y2="36.1"/>
				<line class="st4" x1="93.9" y1="44" x2="81.1" y2="42.2"/>
				<line class="st6" x1="89.3" y1="36.1" x2="77.3" y2="34.3"/>
				<line class="st7" x1="89.3" y1="36.1" x2="83.5" y2="27.9"/>
				<line class="st4" x1="93.9" y1="44" x2="89.3" y2="36.1"/>
				<line class="st3" x1="89.3" y1="36.1" x2="92.6" y2="29"/>
				<line class="st4" x1="100.5" y1="45.8" x2="93.9" y2="44"/>
				<line class="st7" x1="93.9" y1="44" x2="97.1" y2="37.5"/>
				<line class="st8" x1="102.9" y1="53.7" x2="97" y2="53"/>
				<line class="st6" x1="97" y1="53" x2="100.5" y2="45.8"/>
				<line class="st4" x1="107.4" y1="78.1" x2="100.7" y2="77.9"/>
				<line class="st2" x1="106.3" y1="59.8" x2="100" y2="64.7"/>
				<line class="st6" x1="100.6" y1="77.9" x2="91.7" y2="72.8"/>
				<line class="st6" x1="100" y1="64.8" x2="91.6" y2="72.7"/>
				<line class="st6" x1="100" y1="64.7" x2="91" y2="63"/>
				<line class="st5" x1="97" y1="53" x2="91" y2="62.9"/>
				<line class="st7" x1="106.1" y1="85.9" x2="100.6" y2="77.9"/>
				<line class="st4" x1="106.5" y1="69.2" x2="100.6" y2="77.9"/>
				<line class="st2" x1="100" y1="64.7" x2="102.9" y2="53.7"/>
				<line class="st4" x1="81" y1="42.2" x2="89.3" y2="36.1"/>
				<line class="st9" x1="97" y1="53.1" x2="89" y2="53.5"/>
				<line class="st4" x1="81" y1="42.3" x2="79.7" y2="55.4"/>
				<line class="st4" x1="74.7" y1="47.8" x2="69.1" y2="57"/>
				<line class="st9" x1="89" y1="53.5" x2="81" y2="42.2"/>
				<line class="st4" x1="79.7" y1="55.3" x2="74.7" y2="47.8"/>
				<line class="st8" x1="74.7" y1="47.8" x2="68.1" y2="42.1"/>
				<line class="st5" x1="77.3" y1="34.3" x2="68.1" y2="42"/>
				<line class="st9" x1="77.3" y1="34.3" x2="68.9" y2="34.9"/>
				<line class="st9" x1="91" y1="63" x2="89" y2="53.5"/>
				<line class="st9" x1="89" y1="53.5" x2="93.9" y2="44"/>
				<line class="st4" x1="74.7" y1="47.8" x2="81" y2="42.2"/>
				<line class="st9" x1="79.7" y1="55.3" x2="89" y2="53.5"/>
				<line class="st7" x1="97.4" y1="88.8" x2="90.3" y2="97.7"/>
				<line class="st4" x1="100.6" y1="77.9" x2="91.7" y2="81.4"/>
				<line class="st2" x1="73.2" y1="70.8" x2="72.2" y2="61.7"/>
				<line class="st4" x1="79.7" y1="55.3" x2="72.2" y2="61.7"/>
				<line class="st2" x1="72.2" y1="61.7" x2="69.1" y2="57"/>
				<line class="st6" x1="80.9" y1="64.2" x2="91" y2="63"/>
				<line class="st4" x1="80.9" y1="64.2" x2="79.7" y2="55.3"/>
				<line class="st4" x1="73.2" y1="70.8" x2="66.5" y2="63.3"/>
				<line class="st4" x1="73.2" y1="89.8" x2="68.8" y2="94.3"/>
				<line class="st7" x1="73.5" y1="89.6" x2="67.8" y2="87"/>
				<line class="st7" x1="74.5" y1="80.8" x2="67.8" y2="87"/>
				<line class="st3" x1="74.5" y1="80.8" x2="67.6" y2="78.7"/>
				<line class="st6" x1="91" y1="63" x2="79.7" y2="55.4"/>
				<line class="st6" x1="73.6" y1="97.3" x2="68.8" y2="94.3"/>
				<line class="st5" x1="73.4" y1="97.4" x2="69.4" y2="107"/>
				<line class="st8" x1="73.6" y1="97.3" x2="66.9" y2="100.6"/>
				<line class="st7" x1="73.1" y1="71" x2="67.4" y2="70.8"/>
				<line class="st7" x1="73.2" y1="70.8" x2="67.6" y2="78.7"/>
				<line class="st4" x1="72.2" y1="61.7" x2="66.5" y2="63.3"/>
				<line class="st2" x1="80.7" y1="64.4" x2="73.1" y2="71"/>
				<line class="st5" x1="80.1" y1="102.9" x2="73.6" y2="97.3"/>
				<line class="st6" x1="81.3" y1="94.2" x2="73.5" y2="89.6"/>
				<line class="st2" x1="80.5" y1="83.5" x2="73.5" y2="89.6"/>
				<line class="st2" x1="80.5" y1="83.5" x2="74.5" y2="80.8"/>
				<line class="st8" x1="81.2" y1="94.3" x2="73.6" y2="97.3"/>
				<line class="st5" x1="80.1" y1="102.9" x2="69.7" y2="106.9"/>
				<line class="st5" x1="90" y1="97.9" x2="80.1" y2="102.9"/>
				<line class="st2" x1="81.4" y1="73.8" x2="73.1" y2="71"/>
				<line class="st2" x1="81.4" y1="73.8" x2="74.5" y2="80.8"/>
				<line class="st2" x1="80.9" y1="64.2" x2="72.2" y2="61.7"/>
				<line class="st9" x1="80.1" y1="102.9" x2="77.3" y2="110.1"/>
				<line class="st7" x1="97.4" y1="88.8" x2="100.6" y2="77.9"/>
				<line class="st3" x1="97.4" y1="88.8" x2="103.7" y2="94.5"/>
				<line class="st5" x1="91.7" y1="72.7" x2="91" y2="63"/>
				<line class="st7" x1="97.4" y1="88.8" x2="105.9" y2="86"/>
				<line class="st4" x1="74.7" y1="47.8" x2="67.6" y2="49.5"/>
				<line class="st4" x1="69" y1="56.9" x2="79.7" y2="55.3"/>
				<line class="st6" x1="87.1" y1="88.7" x2="81.3" y2="94.2"/>
				<line class="st5" x1="80.1" y1="102.9" x2="81.2" y2="94.3"/>
				<line class="st7" x1="98.4" y1="102" x2="97.4" y2="89.1"/>
				<line class="st5" x1="84.3" y1="108.6" x2="90.3" y2="97.7"/>
				<line class="st5" x1="84.3" y1="108.6" x2="80.1" y2="102.9"/>
				<line class="st7" x1="97.4" y1="88.8" x2="87.1" y2="88.7"/>
				<line class="st4" x1="92" y1="107.3" x2="90.3" y2="97.7"/>
				<line class="st7" x1="98.4" y1="102" x2="90.3" y2="97.7"/>
				<line class="st4" x1="90" y1="97.5" x2="87.1" y2="88.7"/>
				<line class="st7" x1="97.4" y1="88.8" x2="91.7" y2="81.4"/>
				<line class="st2" x1="87.1" y1="88.7" x2="80.5" y2="83.5"/>
				<line class="st6" x1="91.6" y1="72.7" x2="81.4" y2="73.8"/>
				<line class="st6" x1="91.7" y1="72.7" x2="80.9" y2="64.2"/>
				<line class="st2" x1="80.5" y1="83.5" x2="81.4" y2="73.8"/>
				<line class="st2" x1="81.4" y1="73.8" x2="80.9" y2="64.2"/>
				<line class="st6" x1="91.7" y1="72.7" x2="91.7" y2="81.4"/>
				<line class="st4" x1="91.7" y1="81.4" x2="81.4" y2="73.8"/>
				<line class="st4" x1="91.7" y1="81.4" x2="80.5" y2="83.5"/>
				<line class="st4" x1="91.7" y1="81.4" x2="87.1" y2="88.7"/>
				<line class="st6" x1="90.3" y1="97.7" x2="81.3" y2="94.2"/>
				<line class="st2" x1="81.3" y1="94.2" x2="80.5" y2="83.5"/>
				<line class="st5" x1="68.2" y1="27.7" x2="70.3" y2="19"/>
				<circle class="st11" cx="78.2" cy="18.9" r="1.8"/>
				<circle class="st11" cx="70.3" cy="19" r="2.1"/>
				<circle class="st11" cx="76.3" cy="24.8" r="1.8"/>
				<circle class="st12" cx="83.5" cy="27.9" r="2.3"/>
				<circle class="st13" cx="77.3" cy="34.3" r="2.3"/>
				<circle class="st14" cx="89.3" cy="36.1" r="1.8"/>
				<circle class="st14" cx="93.9" cy="44" r="1.8"/>
				<circle class="st15" cx="97" cy="53" r="2.3"/>
				<circle class="st11" cx="100.1" cy="64.8" r="1.8"/>
				<circle class="st14" cx="100.6" cy="77.9" r="1.8"/>
				<circle class="st12" cx="97.4" cy="88.8" r="2.3"/>
				<circle class="st14" cx="90.3" cy="97.7" r="1.8"/>
				<circle class="st13" cx="80.1" cy="102.9" r="2.3"/>
				<circle class="st15" cx="73.6" cy="97.3" r="1.8"/>
				<circle class="st14" cx="73.5" cy="89.6" r="1.8"/>
				<circle class="st12" cx="74.5" cy="80.8" r="2.3"/>
				<circle class="st11" cx="73.2" cy="70.8" r="1.8"/>
				<circle class="st11" cx="72.2" cy="61.7" r="1.8"/>
				<circle class="st14" cx="79.7" cy="55.3" r="1.8"/>
				<circle class="st16" cx="88.9" cy="53.5" r="3.2"/>
				<circle class="st13" cx="91" cy="63" r="2.3"/>
				<ellipse class="st11" cx="80.9" cy="64.2" rx="1.8" ry="1.8"/>
				<circle class="st11" cx="81.4" cy="73.8" r="1.8"/>
				<circle class="st15" cx="91.7" cy="72.7" r="1.8"/>
				<circle class="st14" cx="91.7" cy="81.4" r="1.8"/>
				<circle class="st11" cx="87.1" cy="88.7" r="1.8"/>
				<circle class="st11" cx="80.5" cy="83.5" r="1.8"/>
				<circle class="st15" cx="81.3" cy="94.2" r="1.8"/>
				<circle class="st14" cx="81" cy="42.2" r="1.8"/>
				<circle class="st14" cx="74.7" cy="47.8" r="1.8"/>
				<circle class="st13" cx="68.2" cy="27.7" r="2.3"/>
				<circle class="st15" cx="68.1" cy="42" r="2.3"/>
				<circle class="st16" cx="68.9" cy="34.9" r="3.2"/>
				<circle class="st14" cx="87" cy="23.2" r="1.8"/>
				<circle class="st17" cx="92.6" cy="29" r="3.2"/>
				<circle class="st12" cx="97.1" cy="37.5" r="2.3"/>
				<circle class="st14" cx="100.5" cy="45.8" r="1.8"/>
				<circle class="st11" cx="102.9" cy="53.7" r="1.8"/>
				<circle class="st11" cx="106.3" cy="59.8" r="1.8"/>
				<path class="st11" d="M104.7,69.2c0,1,0.8,1.8,1.8,1.8s1.8-0.8,1.8-1.8s-0.8-1.8-1.8-1.8C105.5,67.5,104.7,68.3,104.7,69.2z"/>
				<circle class="st14" cx="107.4" cy="78.1" r="1.8"/>
				<circle class="st12" cx="106.1" cy="85.9" r="2.3"/>
				<circle class="st17" cx="103.7" cy="94.5" r="3.2"/>
				<circle class="st12" cx="98.4" cy="102" r="2.3"/>
				<circle class="st14" cx="92" cy="107.3" r="1.8"/>
				<circle class="st13" cx="84.3" cy="108.6" r="2.3"/>
				<ellipse class="st16" cx="77.3" cy="110.1" rx="3.2" ry="3.2"/>
				<circle class="st13" cx="69.4" cy="107" r="2.3"/>
				<circle class="st15" cx="67" cy="100.3" r="1.8"/>
				<circle class="st14" cx="68.8" cy="94.3" r="1.8"/>
				<circle class="st12" cx="67.8" cy="87" r="2.3"/>
				<circle class="st17" cx="67.6" cy="78.7" r="3.2"/>
				<circle class="st12" cx="67.4" cy="70.8" r="2.3"/>
				<ellipse class="st14" cx="66.5" cy="63.3" rx="1.8" ry="1.8"/>
				<circle class="st11" cx="69" cy="56.9" r="1.8"/>
				<circle class="st11" cx="67.6" cy="49.5" r="1.8"/>
			</g>
		</g>
	</g>
</g>
</svg>
