<?xml version="1.0" encoding="utf-8"?>
<!-- Generator: Adobe Illustrator 23.0.3, SVG Export Plug-In . SVG Version: 6.00 Build 0)  -->
<svg version="1.1" id="Layer_1" xmlns="http://www.w3.org/2000/svg" xmlns:xlink="http://www.w3.org/1999/xlink" x="0px" y="0px"
	 viewBox="0 0 409.1 144.7" style="enable-background:new 0 0 409.1 144.7;" xml:space="preserve">
<style type="text/css">
	.st0{fill:none;stroke:#FFFFFF;stroke-width:4;stroke-linejoin:round;stroke-miterlimit:10;}
	.st1{fill:none;stroke:#FFFFFF;stroke-width:2.5;stroke-linecap:round;stroke-linejoin:round;stroke-miterlimit:10;}
	.st2{fill:#FFFFFF;}
</style>
<g>
	<g>
		<path class="st0" d="M76.5,3.5c35.4,2.3,63.4,31.7,63.4,67.7c0,37.4-30.4,67.8-67.8,67.8S4.3,108.6,4.3,71.2
			c0-36,28-65.4,63.4-67.7l0,56c0,23.1-12.6,43.2-31.3,53.8l0,0c-6.7-8.1-10.8-18.4-10.8-29.7c0-25.7,20.8-46.5,46.5-46.5
			s46.5,20.8,46.5,46.5c0,11.3-4,21.7-10.8,29.7l0,0c-18.7-10.7-31.3-30.8-31.3-53.8L76.5,3.5z"/>
		<g>
			<line class="st1" x1="65.3" y1="40.1" x2="38.2" y2="96.5"/>
			<line class="st1" x1="41.8" y1="60" x2="55.8" y2="58.6"/>
			<line class="st1" x1="32.5" y1="83" x2="44.8" y2="81.7"/>
			<line class="st1" x1="50.5" y1="72.7" x2="58" y2="78.9"/>
		</g>
		<g>
			<line class="st1" x1="79" y1="40.1" x2="106.1" y2="96.5"/>
			<line class="st1" x1="102.5" y1="60" x2="88.5" y2="58.6"/>
			<line class="st1" x1="111.7" y1="83" x2="99.4" y2="81.7"/>
			<line class="st1" x1="93.8" y1="72.7" x2="86.3" y2="78.9"/>
		</g>
	</g>
	<g>
		<g>
			<path class="st2" d="M174.2,71.2h-17.2V42.1h3.5v26.1h13.8V71.2z"/>
			<path class="st2" d="M194.2,42.1h3.3v19.4c0,1.7-0.2,3.3-0.7,4.5c-0.5,1.3-1.1,2.3-2,3.1c-0.8,0.8-1.9,1.4-3.1,1.8
				s-2.5,0.6-4,0.6c-3.4,0-6-0.8-7.8-2.3c-1.7-1.6-2.6-3.9-2.6-7.1V42.1h3.5v18.5c0,1.5,0.1,2.7,0.4,3.7c0.3,1,0.7,1.8,1.3,2.5
				c0.6,0.6,1.3,1.1,2.2,1.4c0.9,0.3,1.9,0.4,3.1,0.4c2.2,0,3.9-0.6,4.8-1.9c1-1.2,1.5-3.3,1.5-6.1V42.1z"/>
			<path class="st2" d="M209.1,52.2l-2.2-4.2h-0.2l0.4,4.2v19.1h-3.2V41.7h1.8l13.9,19.4l2.2,4h0.2l-0.5-4v-19h3.2v29.6H223
				L209.1,52.2z"/>
			<path class="st2" d="M241,56.7h9.8v12.8c-0.4,0.3-1,0.6-1.6,0.9c-0.6,0.3-1.3,0.5-2,0.7c-0.7,0.2-1.4,0.3-2.2,0.4
				c-0.8,0.1-1.5,0.1-2.2,0.1c-1.9,0-3.6-0.3-5.1-0.9c-1.6-0.6-2.9-1.5-4-2.7c-1.1-1.2-2-2.8-2.7-4.7c-0.6-1.9-1-4.1-1-6.7
				c0-2.7,0.4-5,1.2-6.9c0.8-1.9,1.8-3.5,3-4.7c1.2-1.2,2.6-2.1,4.2-2.6c1.6-0.6,3.1-0.8,4.7-0.8c1.7,0,3,0.1,4.1,0.3
				c1.1,0.2,2,0.4,2.7,0.7l-0.9,3.1c-1.3-0.7-3.2-1-5.7-1c-1.2,0-2.3,0.2-3.5,0.6c-1.2,0.4-2.2,1.1-3.1,2c-0.9,0.9-1.7,2.2-2.2,3.7
				c-0.6,1.5-0.9,3.4-0.9,5.7c0,2.1,0.2,3.8,0.7,5.3c0.5,1.5,1.1,2.7,2,3.7c0.8,1,1.9,1.7,3,2.2c1.2,0.5,2.5,0.7,3.9,0.7
				c1.8,0,3.3-0.3,4.5-1v-8.1l-6.8-0.8V56.7z"/>
			<path class="st2" d="M260.4,42.1c0.5-0.1,1.1-0.1,1.8-0.2c0.7,0,1.3-0.1,2-0.1c0.7,0,1.4,0,2.1,0c0.7,0,1.3,0,1.9,0
				c2.3,0,4.3,0.4,6.1,1.1c1.7,0.7,3.1,1.7,4.2,3c1.1,1.3,1.9,2.8,2.5,4.6c0.5,1.8,0.8,3.8,0.8,6c0,2-0.3,3.9-0.8,5.7
				c-0.5,1.8-1.3,3.4-2.4,4.8c-1.1,1.4-2.6,2.5-4.3,3.4c-1.8,0.8-3.9,1.3-6.5,1.3c-0.4,0-1,0-1.7,0c-0.7,0-1.4,0-2.2-0.1
				c-0.7,0-1.4-0.1-2.1-0.1c-0.6,0-1.1-0.1-1.4-0.1V42.1z M268.2,44.9c-0.4,0-0.8,0-1.2,0c-0.4,0-0.9,0-1.3,0
				c-0.4,0-0.8,0.1-1.1,0.1c-0.3,0-0.6,0.1-0.8,0.1v23.3c0.1,0,0.4,0,0.8,0.1c0.4,0,0.8,0,1.2,0c0.4,0,0.8,0,1.2,0
				c0.4,0,0.7,0,0.8,0c1.9,0,3.6-0.3,4.9-1c1.3-0.7,2.4-1.6,3.2-2.7c0.8-1.1,1.4-2.4,1.7-3.9c0.3-1.5,0.5-3,0.5-4.5
				c0-1.4-0.2-2.7-0.5-4.1c-0.3-1.4-0.8-2.6-1.6-3.7c-0.7-1.1-1.8-2-3-2.7C271.7,45.2,270.1,44.9,268.2,44.9z"/>
			<path class="st2" d="M287.2,42.1h3.5v29.1h-3.5V42.1z"/>
			<path class="st2" d="M310.2,63.8c0-1.2-0.3-2.1-1-2.9c-0.7-0.7-1.6-1.4-2.6-2c-1-0.6-2.2-1.1-3.4-1.6c-1.2-0.5-2.4-1.1-3.4-1.8
				c-1-0.7-1.9-1.6-2.6-2.6c-0.7-1-1-2.4-1-4c0-2.3,0.8-4.1,2.4-5.4c1.6-1.3,3.8-2,6.7-2c1.7,0,3.2,0.1,4.6,0.4
				c1.4,0.2,2.5,0.6,3.2,1l-1,3.1c-0.6-0.3-1.6-0.6-2.8-0.9s-2.6-0.4-4.2-0.4c-1.8,0-3.2,0.4-4.1,1.2c-0.9,0.8-1.4,1.8-1.4,2.9
				c0,1.1,0.3,2,1,2.7c0.7,0.7,1.6,1.4,2.6,1.9c1,0.6,2.2,1.1,3.4,1.7c1.2,0.6,2.4,1.2,3.4,1.9c1,0.7,1.9,1.6,2.6,2.6
				c0.7,1,1,2.3,1,3.8c0,1.2-0.2,2.4-0.7,3.4c-0.4,1-1.1,1.9-2,2.6c-0.9,0.7-1.9,1.3-3.1,1.7s-2.6,0.6-4.2,0.6
				c-2.1,0-3.8-0.2-5.2-0.5c-1.4-0.3-2.4-0.7-3.2-1.1l1.2-3.1c0.6,0.4,1.6,0.7,2.8,1c1.2,0.3,2.6,0.5,4.2,0.5c0.9,0,1.8-0.1,2.6-0.3
				s1.5-0.5,2.1-0.9c0.6-0.4,1-0.9,1.4-1.5C310.1,65.4,310.2,64.7,310.2,63.8z"/>
			<path class="st2" d="M318.2,42.1H334v3.1h-12.4v9.5H333v3.1h-11.4v10.4h12.6v3.1h-16.1V42.1z"/>
			<path class="st2" d="M354.6,63.2H344l-2.9,8.1h-3.5l11-29.6h1.6l11.1,29.6h-3.7L354.6,63.2z M345.1,60.2h8.5l-3.2-8.9l-1-4.4h0
				l-1,4.5L345.1,60.2z"/>
			<path class="st2" d="M378.9,63.8c0-1.2-0.3-2.1-1-2.9c-0.7-0.7-1.6-1.4-2.6-2c-1-0.6-2.2-1.1-3.4-1.6c-1.2-0.5-2.4-1.1-3.4-1.8
				c-1-0.7-1.9-1.6-2.6-2.6c-0.7-1-1-2.4-1-4c0-2.3,0.8-4.1,2.4-5.4c1.6-1.3,3.8-2,6.7-2c1.7,0,3.2,0.1,4.6,0.4
				c1.4,0.2,2.5,0.6,3.2,1l-1,3.1c-0.6-0.3-1.6-0.6-2.8-0.9c-1.2-0.3-2.6-0.4-4.2-0.4c-1.8,0-3.2,0.4-4.1,1.2
				c-0.9,0.8-1.4,1.8-1.4,2.9c0,1.1,0.3,2,1,2.7c0.7,0.7,1.6,1.4,2.6,1.9c1,0.6,2.2,1.1,3.4,1.7c1.2,0.6,2.4,1.2,3.4,1.9
				c1,0.7,1.9,1.6,2.6,2.6c0.7,1,1,2.3,1,3.8c0,1.2-0.2,2.4-0.7,3.4c-0.4,1-1.1,1.9-2,2.6c-0.9,0.7-1.9,1.3-3.1,1.7
				c-1.2,0.4-2.6,0.6-4.2,0.6c-2.1,0-3.8-0.2-5.2-0.5c-1.4-0.3-2.4-0.7-3.2-1.1l1.2-3.1c0.6,0.4,1.6,0.7,2.8,1
				c1.2,0.3,2.6,0.5,4.2,0.5c0.9,0,1.8-0.1,2.6-0.3c0.8-0.2,1.5-0.5,2.1-0.9c0.6-0.4,1-0.9,1.4-1.5
				C378.8,65.4,378.9,64.7,378.9,63.8z"/>
			<path class="st2" d="M386.9,42.1h15.9v3.1h-12.4v9.5h11.4v3.1h-11.4v10.4H403v3.1h-16.1V42.1z"/>
		</g>
		<g>
			<path class="st2" d="M161.9,94.6h-1v8.6H157V83.1h3.9V92l0.9-0.4l5.5-8.5h4.5l-5.9,8.4l-1.6,1.1l1.6,1.1l6.7,9.5h-4.9L161.9,94.6
				z"/>
			<path class="st2" d="M179.7,92.7l-1.6-3.2H178l0.5,3.2v10.5h-3.7V82.9h2.9l7.6,10.7l1.5,3.1h0.1l-0.5-3.1V83.1h3.7v20.3h-2.9
				L179.7,92.7z"/>
			<path class="st2" d="M192.8,93.1c0-3.4,0.7-5.9,2.2-7.7c1.5-1.8,3.6-2.7,6.3-2.7c1.4,0,2.7,0.2,3.8,0.7c1.1,0.5,2,1.2,2.7,2.1
				c0.7,0.9,1.2,2,1.6,3.3c0.3,1.3,0.5,2.7,0.5,4.3c0,3.4-0.7,5.9-2.2,7.7c-1.5,1.8-3.6,2.7-6.3,2.7c-1.5,0-2.7-0.2-3.8-0.7
				c-1.1-0.5-2-1.2-2.7-2.1c-0.7-0.9-1.2-2-1.6-3.3C193,96.1,192.8,94.7,192.8,93.1z M197,93.1c0,1,0.1,1.9,0.3,2.8
				c0.2,0.9,0.4,1.6,0.8,2.2s0.8,1.1,1.4,1.4c0.6,0.3,1.2,0.5,2,0.5c1.4,0,2.5-0.5,3.2-1.6c0.8-1.1,1.1-2.9,1.1-5.3
				c0-1-0.1-1.9-0.2-2.7c-0.2-0.8-0.4-1.6-0.8-2.2c-0.3-0.6-0.8-1.1-1.4-1.5c-0.6-0.4-1.2-0.5-2-0.5c-1.4,0-2.5,0.6-3.2,1.7
				C197.4,89,197,90.7,197,93.1z"/>
			<path class="st2" d="M217.4,94.3l0.4,3.6h0.1l0.4-3.6l3.5-11.2h2.6l3.4,11.2l0.4,3.6h0.1l0.4-3.6l2.4-11.2h4l-5.5,20.3H227
				l-3.6-11.2l-0.5-3.1h-0.1l-0.5,3.1l-3.6,11.1h-2.8l-5.5-20.3h4.3L217.4,94.3z"/>
			<path class="st2" d="M249.7,103.2H237V83.1h3.9v16.6h8.8V103.2z"/>
			<path class="st2" d="M251.7,83.1h11.9v3.5h-8v4.7h7.3v3.5h-7.3v4.9h8.1v3.5h-12.1V83.1z"/>
			<path class="st2" d="M273.4,92.7h7.5v9c-0.8,0.7-1.8,1.2-2.9,1.5c-1.1,0.3-2.2,0.5-3.3,0.5c-1.3,0-2.5-0.2-3.6-0.6
				c-1.1-0.4-2.1-1-2.9-1.9c-0.8-0.9-1.4-1.9-1.9-3.3c-0.5-1.3-0.7-2.9-0.7-4.7c0-1.9,0.3-3.5,0.8-4.8c0.5-1.3,1.3-2.4,2.2-3.2
				c0.9-0.8,1.9-1.4,3-1.8c1.1-0.4,2.2-0.6,3.4-0.6s2.2,0.1,3,0.3c0.9,0.2,1.6,0.4,2.1,0.5l-0.8,3.3c-0.5-0.2-1-0.3-1.6-0.4
				c-0.6-0.1-1.4-0.2-2.3-0.2c-0.8,0-1.6,0.1-2.3,0.4c-0.7,0.2-1.3,0.7-1.8,1.2c-0.5,0.6-0.9,1.3-1.2,2.2c-0.3,0.9-0.4,2-0.4,3.2
				c0,1.2,0.1,2.2,0.4,3.1s0.6,1.6,1.1,2.2c0.5,0.6,1,1,1.7,1.2c0.6,0.3,1.3,0.4,2.1,0.4c0.5,0,1-0.1,1.5-0.2
				c0.5-0.1,0.9-0.3,1.2-0.6v-3.8l-4.3-0.5V92.7z"/>
			<path class="st2" d="M283.8,83.1h11.9v3.5h-8v4.7h7.3v3.5h-7.3v4.9h8.1v3.5h-12.1V83.1z"/>
			<path class="st2" d="M306.1,83.3c0.8-0.2,1.7-0.3,2.7-0.4c1-0.1,1.9-0.1,2.9-0.1c1,0,2,0.1,3,0.2c1,0.2,1.9,0.5,2.7,1
				c0.8,0.5,1.5,1.2,2,2c0.5,0.9,0.8,2,0.8,3.4c0,1.3-0.2,2.3-0.7,3.2c-0.4,0.9-1,1.6-1.8,2.1c-0.7,0.6-1.6,1-2.5,1.2
				c-0.9,0.2-1.9,0.4-2.9,0.4c-0.1,0-0.2,0-0.5,0s-0.4,0-0.7,0c-0.2,0-0.5,0-0.7,0c-0.2,0-0.4,0-0.5-0.1v6.9h-3.9V83.3z M311.9,86.2
				c-0.4,0-0.7,0-1.1,0c-0.3,0-0.6,0.1-0.8,0.1v6.5c0.1,0,0.2,0,0.3,0.1c0.2,0,0.3,0,0.5,0c0.2,0,0.3,0,0.5,0s0.3,0,0.4,0
				c0.5,0,1,0,1.5-0.1c0.5-0.1,1-0.3,1.4-0.5c0.4-0.3,0.7-0.6,1-1.1c0.2-0.5,0.4-1.1,0.4-1.8c0-0.6-0.1-1.2-0.3-1.6
				c-0.2-0.4-0.5-0.7-0.9-1c-0.4-0.2-0.8-0.4-1.3-0.5C312.9,86.2,312.4,86.2,311.9,86.2z"/>
			<path class="st2" d="M321.8,93.1c0-3.4,0.7-5.9,2.2-7.7c1.5-1.8,3.6-2.7,6.3-2.7c1.4,0,2.7,0.2,3.8,0.7c1.1,0.5,2,1.2,2.7,2.1
				c0.7,0.9,1.2,2,1.6,3.3c0.3,1.3,0.5,2.7,0.5,4.3c0,3.4-0.7,5.9-2.2,7.7c-1.5,1.8-3.6,2.7-6.3,2.7c-1.5,0-2.7-0.2-3.8-0.7
				c-1.1-0.5-2-1.2-2.7-2.1c-0.7-0.9-1.2-2-1.6-3.3C322,96.1,321.8,94.7,321.8,93.1z M325.9,93.1c0,1,0.1,1.9,0.3,2.8
				c0.2,0.9,0.4,1.6,0.8,2.2c0.4,0.6,0.8,1.1,1.4,1.4c0.6,0.3,1.2,0.5,2,0.5c1.4,0,2.5-0.5,3.2-1.6c0.8-1.1,1.1-2.9,1.1-5.3
				c0-1-0.1-1.9-0.2-2.7c-0.2-0.8-0.4-1.6-0.8-2.2c-0.3-0.6-0.8-1.1-1.4-1.5c-0.6-0.4-1.2-0.5-2-0.5c-1.4,0-2.5,0.6-3.2,1.7
				C326.3,89,325.9,90.7,325.9,93.1z"/>
			<path class="st2" d="M341.6,83.3c0.4-0.1,0.9-0.1,1.4-0.2c0.5-0.1,1-0.1,1.5-0.2c0.5,0,1-0.1,1.5-0.1c0.5,0,0.9,0,1.3,0
				c0.9,0,1.9,0.1,2.8,0.3c0.9,0.2,1.7,0.5,2.4,0.9c0.7,0.4,1.3,1,1.7,1.7c0.4,0.7,0.6,1.7,0.6,2.8c0,1.6-0.4,3-1.1,4
				s-1.8,1.8-3.1,2.2l1.4,0.9l4.6,7.7h-4.5l-4.6-7.9l-2.1-0.4v8.2h-3.9V83.3z M347.6,86.3c-0.4,0-0.8,0-1.2,0
				c-0.4,0-0.7,0.1-0.9,0.1v5.8h1.7c1.1,0,2-0.2,2.6-0.7c0.7-0.5,1-1.3,1-2.5c0-0.9-0.3-1.5-0.8-2C349.5,86.5,348.7,86.3,347.6,86.3
				z"/>
			<path class="st2" d="M372.8,86.6h-5.9v16.6H363V86.6h-5.9v-3.5h15.7V86.6z"/>
			<path class="st2" d="M382.6,98.7h-6.2l-1.5,4.5h-3.9l7.2-20.3h2.9l7.2,20.3h-4.1L382.6,98.7z M377.4,95.6h4.3l-1.5-4.5l-0.6-3.2
				h-0.1l-0.6,3.2L377.4,95.6z"/>
			<path class="st2" d="M402.8,103.2h-12.7V83.1h3.9v16.6h8.8V103.2z"/>
		</g>
	</g>
</g>
</svg>
