<?xml version="1.0" encoding="utf-8"?>
<!-- Generator: Adobe Illustrator 23.0.3, SVG Export Plug-In . SVG Version: 6.00 Build 0)  -->
<svg version="1.1" id="Layer_1" xmlns="http://www.w3.org/2000/svg" xmlns:xlink="http://www.w3.org/1999/xlink" x="0px" y="0px"
	 viewBox="0 0 409.1 144.7" style="enable-background:new 0 0 409.1 144.7;" xml:space="preserve">
<style type="text/css">
	.st0{fill:none;stroke:#FFFFFF;stroke-width:4;stroke-linejoin:round;stroke-miterlimit:10;}
	.st1{fill:none;stroke:#FFFFFF;stroke-width:2.5;stroke-linecap:round;stroke-linejoin:round;stroke-miterlimit:10;}
	.st2{fill:#FFFFFF;}
</style>
<g>
	<g>
		<path class="st0" d="M76.5,3.5c35.4,2.3,63.4,31.7,63.4,67.7c0,37.4-30.4,67.8-67.8,67.8S4.3,108.6,4.3,71.2
			c0-36,28-65.4,63.4-67.7l0,56c0,23.1-12.6,43.2-31.3,53.8l0,0c-6.7-8.1-10.8-18.4-10.8-29.7c0-25.7,20.8-46.5,46.5-46.5
			s46.5,20.8,46.5,46.5c0,11.3-4,21.7-10.8,29.7l0,0c-18.7-10.7-31.3-30.8-31.3-53.8L76.5,3.5z"/>
		<g>
			<line class="st1" x1="65.3" y1="40.1" x2="38.2" y2="96.5"/>
			<line class="st1" x1="41.8" y1="60" x2="55.8" y2="58.6"/>
			<line class="st1" x1="32.6" y1="83" x2="44.9" y2="81.7"/>
			<line class="st1" x1="50.5" y1="72.7" x2="58" y2="78.9"/>
		</g>
		<g>
			<line class="st1" x1="79" y1="40.1" x2="106.1" y2="96.5"/>
			<line class="st1" x1="102.5" y1="60" x2="88.5" y2="58.6"/>
			<line class="st1" x1="111.7" y1="83" x2="99.4" y2="81.7"/>
			<line class="st1" x1="93.8" y1="72.7" x2="86.3" y2="78.9"/>
		</g>
	</g>
	<g>
		<g>
			<g>
				<path class="st2" d="M174.2,72.4h-17.2V43.3h3.5v26.1h13.8V72.4z"/>
				<path class="st2" d="M194.2,43.3h3.3v19.4c0,1.7-0.2,3.3-0.7,4.5c-0.5,1.3-1.1,2.3-2,3.1c-0.8,0.8-1.9,1.4-3.1,1.8
					c-1.2,0.4-2.5,0.6-4,0.6c-3.4,0-6-0.8-7.8-2.3c-1.7-1.6-2.6-3.9-2.6-7.1V43.3h3.5v18.5c0,1.5,0.1,2.7,0.4,3.7
					c0.3,1,0.7,1.8,1.3,2.5c0.6,0.6,1.3,1.1,2.2,1.4c0.9,0.3,1.9,0.4,3.1,0.4c2.2,0,3.9-0.6,4.8-1.9c1-1.2,1.5-3.3,1.5-6.1V43.3z"/>
				<path class="st2" d="M209.1,53.3l-2.2-4.2h-0.2l0.4,4.2v19.1h-3.2V42.8h1.8l13.9,19.4l2.2,4h0.2l-0.5-4v-19h3.2v29.6H223
					L209.1,53.3z"/>
				<path class="st2" d="M241,57.9h9.8v12.8c-0.4,0.3-1,0.6-1.6,0.9c-0.6,0.3-1.3,0.5-2,0.7c-0.7,0.2-1.4,0.3-2.2,0.4
					c-0.8,0.1-1.5,0.1-2.2,0.1c-1.9,0-3.6-0.3-5.1-0.9c-1.6-0.6-2.9-1.5-4-2.7c-1.1-1.2-2-2.8-2.7-4.7c-0.6-1.9-1-4.1-1-6.7
					c0-2.7,0.4-5,1.2-6.9c0.8-1.9,1.8-3.5,3-4.7c1.2-1.2,2.6-2.1,4.2-2.6c1.6-0.6,3.1-0.8,4.7-0.8c1.7,0,3,0.1,4.1,0.3
					c1.1,0.2,2,0.4,2.7,0.7l-0.9,3.1c-1.3-0.7-3.2-1-5.7-1c-1.2,0-2.3,0.2-3.5,0.6c-1.2,0.4-2.2,1.1-3.1,2c-0.9,0.9-1.7,2.2-2.2,3.7
					c-0.6,1.5-0.9,3.4-0.9,5.7c0,2.1,0.2,3.8,0.7,5.3c0.5,1.5,1.1,2.7,2,3.7c0.8,1,1.9,1.7,3,2.2c1.2,0.5,2.5,0.7,3.9,0.7
					c1.8,0,3.3-0.3,4.5-1v-8.1l-6.8-0.8V57.9z"/>
				<path class="st2" d="M260.4,43.3c0.5-0.1,1.1-0.1,1.8-0.2c0.7,0,1.3-0.1,2-0.1c0.7,0,1.4,0,2.1,0c0.7,0,1.3,0,1.9,0
					c2.3,0,4.3,0.4,6.1,1.1c1.7,0.7,3.1,1.7,4.2,3c1.1,1.3,1.9,2.8,2.5,4.6c0.5,1.8,0.8,3.8,0.8,6c0,2-0.3,3.9-0.8,5.7
					c-0.5,1.8-1.3,3.4-2.4,4.8c-1.1,1.4-2.6,2.5-4.3,3.4c-1.8,0.8-3.9,1.3-6.5,1.3c-0.4,0-1,0-1.7,0c-0.7,0-1.4,0-2.2-0.1
					c-0.7,0-1.4-0.1-2.1-0.1c-0.6,0-1.1-0.1-1.4-0.1V43.3z M268.2,46c-0.4,0-0.8,0-1.2,0c-0.4,0-0.9,0-1.3,0c-0.4,0-0.8,0.1-1.1,0.1
					c-0.3,0-0.6,0.1-0.8,0.1v23.3c0.1,0,0.4,0,0.8,0.1c0.4,0,0.8,0,1.2,0c0.4,0,0.8,0,1.2,0c0.4,0,0.7,0,0.8,0c1.9,0,3.6-0.3,4.9-1
					c1.3-0.7,2.4-1.6,3.2-2.7c0.8-1.1,1.4-2.4,1.7-3.9c0.3-1.5,0.5-3,0.5-4.5c0-1.4-0.2-2.7-0.5-4.1c-0.3-1.4-0.8-2.6-1.6-3.7
					c-0.7-1.1-1.8-2-3-2.7C271.7,46.4,270.1,46,268.2,46z"/>
				<path class="st2" d="M287.2,43.3h3.5v29.1h-3.5V43.3z"/>
				<path class="st2" d="M310.2,65c0-1.2-0.3-2.1-1-2.9c-0.7-0.7-1.6-1.4-2.6-2c-1-0.6-2.2-1.1-3.4-1.6c-1.2-0.5-2.4-1.1-3.4-1.8
					s-1.9-1.6-2.6-2.6c-0.7-1-1-2.4-1-4c0-2.3,0.8-4.1,2.4-5.4c1.6-1.3,3.8-2,6.7-2c1.7,0,3.2,0.1,4.6,0.4c1.4,0.2,2.5,0.6,3.2,1
					l-1,3.1c-0.6-0.3-1.6-0.6-2.8-0.9c-1.2-0.3-2.6-0.4-4.2-0.4c-1.8,0-3.2,0.4-4.1,1.2c-0.9,0.8-1.4,1.8-1.4,2.9c0,1.1,0.3,2,1,2.7
					c0.7,0.7,1.6,1.4,2.6,1.9c1,0.6,2.2,1.1,3.4,1.7c1.2,0.6,2.4,1.2,3.4,1.9c1,0.7,1.9,1.6,2.6,2.6c0.7,1,1,2.3,1,3.8
					c0,1.2-0.2,2.4-0.7,3.4c-0.4,1-1.1,1.9-2,2.6c-0.9,0.7-1.9,1.3-3.1,1.7c-1.2,0.4-2.6,0.6-4.2,0.6c-2.1,0-3.8-0.2-5.2-0.5
					s-2.4-0.7-3.2-1.1l1.2-3.1c0.6,0.4,1.6,0.7,2.8,1c1.2,0.3,2.6,0.5,4.2,0.5c0.9,0,1.8-0.1,2.6-0.3s1.5-0.5,2.1-0.9
					c0.6-0.4,1-0.9,1.4-1.5C310.1,66.5,310.2,65.8,310.2,65z"/>
				<path class="st2" d="M318.2,43.3h15.9v3.1h-12.4v9.5H333v3.1h-11.4v10.4h12.6v3.1h-16.1V43.3z"/>
				<path class="st2" d="M354.6,64.3H344l-2.9,8.1h-3.5l11-29.6h1.6l11.1,29.6h-3.7L354.6,64.3z M345.1,61.3h8.5l-3.2-8.9l-1-4.4h0
					l-1,4.5L345.1,61.3z"/>
				<path class="st2" d="M379,65c0-1.2-0.3-2.1-1-2.9c-0.7-0.7-1.6-1.4-2.6-2c-1-0.6-2.2-1.1-3.4-1.6c-1.2-0.5-2.4-1.1-3.4-1.8
					c-1-0.7-1.9-1.6-2.6-2.6c-0.7-1-1-2.4-1-4c0-2.3,0.8-4.1,2.4-5.4c1.6-1.3,3.8-2,6.7-2c1.7,0,3.2,0.1,4.6,0.4
					c1.4,0.2,2.5,0.6,3.2,1l-1,3.1c-0.6-0.3-1.6-0.6-2.8-0.9c-1.2-0.3-2.6-0.4-4.2-0.4c-1.8,0-3.2,0.4-4.1,1.2
					c-0.9,0.8-1.4,1.8-1.4,2.9c0,1.1,0.3,2,1,2.7c0.7,0.7,1.6,1.4,2.6,1.9c1,0.6,2.2,1.1,3.4,1.7c1.2,0.6,2.4,1.2,3.4,1.9
					c1,0.7,1.9,1.6,2.6,2.6c0.7,1,1,2.3,1,3.8c0,1.2-0.2,2.4-0.7,3.4c-0.4,1-1.1,1.9-2,2.6c-0.9,0.7-1.9,1.3-3.1,1.7
					c-1.2,0.4-2.6,0.6-4.2,0.6c-2.1,0-3.8-0.2-5.2-0.5c-1.4-0.3-2.4-0.7-3.2-1.1l1.2-3.1c0.6,0.4,1.6,0.7,2.8,1
					c1.2,0.3,2.6,0.5,4.2,0.5c0.9,0,1.8-0.1,2.6-0.3s1.5-0.5,2.1-0.9c0.6-0.4,1-0.9,1.4-1.5C378.8,66.5,379,65.8,379,65z"/>
				<path class="st2" d="M386.9,43.3h15.9v3.1h-12.4v9.5h11.4v3.1h-11.4v10.4H403v3.1h-16.1V43.3z"/>
			</g>
		</g>
		<g>
			<g>
				<path class="st2" d="M161.6,91.3h-1v8.1h-3.7V80.4h3.7v8.4l0.9-0.4l5.2-8h4.2l-5.5,7.9l-1.5,1l1.5,1.1l6.3,8.9h-4.6L161.6,91.3z
					"/>
				<path class="st2" d="M178.1,89.5l-1.5-3h-0.1l0.4,3v9.9h-3.5v-19h2.7l7.2,10.1l1.4,2.9h0.1l-0.4-2.9v-9.9h3.5v19h-2.7
					L178.1,89.5z"/>
				<path class="st2" d="M190.2,89.9c0-3.1,0.7-5.6,2.1-7.3c1.4-1.7,3.4-2.6,5.9-2.6c1.3,0,2.5,0.2,3.5,0.7c1,0.5,1.8,1.1,2.5,2
					c0.7,0.9,1.2,1.9,1.5,3.1c0.3,1.2,0.5,2.5,0.5,4c0,3.2-0.7,5.6-2.1,7.3c-1.4,1.7-3.4,2.6-5.9,2.6c-1.4,0-2.6-0.2-3.6-0.7
					c-1-0.5-1.8-1.1-2.5-2c-0.7-0.9-1.1-1.9-1.5-3.1C190.3,92.7,190.2,91.4,190.2,89.9z M194.1,89.9c0,1,0.1,1.8,0.2,2.6
					s0.4,1.5,0.7,2.1c0.3,0.6,0.8,1,1.3,1.4c0.5,0.3,1.1,0.5,1.9,0.5c1.3,0,2.3-0.5,3.1-1.5s1.1-2.7,1.1-5c0-0.9-0.1-1.8-0.2-2.6
					c-0.2-0.8-0.4-1.5-0.7-2.1c-0.3-0.6-0.7-1.1-1.3-1.4c-0.5-0.3-1.2-0.5-1.9-0.5c-1.3,0-2.3,0.5-3.1,1.6
					C194.4,86,194.1,87.6,194.1,89.9z"/>
				<path class="st2" d="M213,91l0.4,3.3h0.1l0.4-3.4l3.3-10.5h2.4l3.2,10.6l0.4,3.3h0.1l0.4-3.4l2.3-10.5h3.8l-5.2,19H222L218.7,89
					l-0.5-2.9h-0.1l-0.5,2.9l-3.3,10.5h-2.6l-5.2-19h4L213,91z"/>
				<path class="st2" d="M243.2,99.3h-12V80.4h3.7V96h8.3V99.3z"/>
				<path class="st2" d="M244.8,80.4H256v3.3h-7.5v4.4h6.8v3.3h-6.8V96h7.6v3.3h-11.3V80.4z"/>
				<path class="st2" d="M258.6,80.4c0.4-0.1,0.8-0.1,1.3-0.1c0.5,0,1-0.1,1.5-0.1c0.5,0,1,0,1.5,0c0.5,0,0.9,0,1.3,0
					c1.7,0,3.1,0.2,4.3,0.7c1.2,0.5,2.2,1.1,2.9,2c0.7,0.8,1.3,1.9,1.6,3c0.3,1.2,0.5,2.5,0.5,3.9c0,1.3-0.2,2.5-0.5,3.7
					s-0.9,2.2-1.6,3.2s-1.8,1.7-3,2.2c-1.2,0.6-2.8,0.8-4.6,0.8c-0.3,0-0.7,0-1.1,0c-0.5,0-1,0-1.5-0.1c-0.5,0-1-0.1-1.5-0.1
					s-0.8-0.1-1.1-0.1V80.4z M264.4,83.5c-0.4,0-0.8,0-1.2,0c-0.4,0-0.7,0-0.9,0.1v12.7c0.1,0,0.2,0,0.4,0c0.2,0,0.4,0,0.6,0
					c0.2,0,0.4,0,0.6,0c0.2,0,0.3,0,0.4,0c1,0,1.9-0.2,2.6-0.6c0.7-0.4,1.2-0.9,1.6-1.5c0.4-0.6,0.7-1.3,0.8-2.1
					c0.2-0.8,0.2-1.6,0.2-2.5c0-0.7-0.1-1.5-0.2-2.2c-0.1-0.7-0.4-1.4-0.8-2c-0.4-0.6-0.9-1.1-1.6-1.5S265.4,83.5,264.4,83.5z"/>
				<path class="st2" d="M282.3,89.5h7v8.4c-0.8,0.6-1.7,1.1-2.7,1.4c-1.1,0.3-2.1,0.4-3.1,0.4c-1.2,0-2.3-0.2-3.4-0.6
					s-1.9-1-2.7-1.8c-0.8-0.8-1.3-1.8-1.8-3.1c-0.4-1.2-0.6-2.7-0.6-4.4c0-1.8,0.3-3.3,0.8-4.5c0.5-1.3,1.2-2.3,2-3.1
					c0.8-0.8,1.8-1.4,2.8-1.7s2.1-0.5,3.2-0.5s2,0.1,2.8,0.2c0.8,0.2,1.5,0.3,2,0.5l-0.8,3.1c-0.5-0.2-1-0.3-1.5-0.4
					c-0.6-0.1-1.3-0.1-2.1-0.1c-0.8,0-1.5,0.1-2.1,0.4c-0.6,0.2-1.2,0.6-1.7,1.1c-0.5,0.5-0.8,1.2-1.1,2c-0.3,0.8-0.4,1.8-0.4,3
					c0,1.1,0.1,2.1,0.4,2.9c0.3,0.8,0.6,1.5,1.1,2s1,0.9,1.6,1.2c0.6,0.3,1.2,0.4,1.9,0.4c0.5,0,0.9-0.1,1.4-0.2
					c0.4-0.1,0.8-0.3,1.1-0.5v-3.6l-4.1-0.4V89.5z"/>
				<path class="st2" d="M291.9,80.4h11.2v3.3h-7.5v4.4h6.8v3.3h-6.8V96h7.6v3.3h-11.3V80.4z"/>
				<path class="st2" d="M312.3,80.6c0.8-0.1,1.6-0.3,2.5-0.3s1.8-0.1,2.7-0.1c0.9,0,1.9,0.1,2.8,0.2s1.8,0.5,2.6,0.9
					s1.4,1.1,1.8,1.9c0.5,0.8,0.7,1.9,0.7,3.2c0,1.2-0.2,2.2-0.6,3c-0.4,0.8-1,1.5-1.6,2c-0.7,0.5-1.5,0.9-2.3,1.1
					c-0.9,0.2-1.8,0.4-2.7,0.4c-0.1,0-0.2,0-0.4,0s-0.4,0-0.6,0c-0.2,0-0.4,0-0.6,0c-0.2,0-0.4,0-0.4-0.1v6.5h-3.7V80.6z
					 M317.8,83.3c-0.4,0-0.7,0-1,0c-0.3,0-0.6,0.1-0.8,0.1v6.1c0.1,0,0.2,0,0.3,0.1c0.1,0,0.3,0,0.5,0c0.2,0,0.3,0,0.5,0
					s0.3,0,0.3,0c0.5,0,1,0,1.4-0.1c0.5-0.1,0.9-0.3,1.3-0.5c0.4-0.2,0.7-0.6,0.9-1c0.2-0.4,0.3-1,0.3-1.7c0-0.6-0.1-1.1-0.3-1.5
					c-0.2-0.4-0.5-0.7-0.9-0.9c-0.4-0.2-0.8-0.4-1.2-0.5C318.7,83.4,318.2,83.3,317.8,83.3z"/>
				<path class="st2" d="M326.8,89.9c0-3.1,0.7-5.6,2.1-7.3c1.4-1.7,3.4-2.6,5.9-2.6c1.3,0,2.5,0.2,3.5,0.7c1,0.5,1.8,1.1,2.5,2
					c0.7,0.9,1.2,1.9,1.5,3.1c0.3,1.2,0.5,2.5,0.5,4c0,3.2-0.7,5.6-2.1,7.3c-1.4,1.7-3.4,2.6-5.9,2.6c-1.4,0-2.6-0.2-3.6-0.7
					c-1-0.5-1.8-1.1-2.5-2c-0.7-0.9-1.1-1.9-1.5-3.1C327,92.7,326.8,91.4,326.8,89.9z M330.7,89.9c0,1,0.1,1.8,0.2,2.6
					s0.4,1.5,0.7,2.1c0.3,0.6,0.8,1,1.3,1.4c0.5,0.3,1.1,0.5,1.9,0.5c1.3,0,2.3-0.5,3.1-1.5s1.1-2.7,1.1-5c0-0.9-0.1-1.8-0.2-2.6
					c-0.2-0.8-0.4-1.5-0.7-2.1c-0.3-0.6-0.7-1.1-1.3-1.4c-0.5-0.3-1.2-0.5-1.9-0.5c-1.3,0-2.3,0.5-3.1,1.6
					C331.1,86,330.7,87.6,330.7,89.9z"/>
				<path class="st2" d="M345.2,80.6c0.4-0.1,0.9-0.1,1.3-0.2c0.5-0.1,1-0.1,1.4-0.1c0.5,0,0.9-0.1,1.4-0.1c0.4,0,0.9,0,1.2,0
					c0.9,0,1.8,0.1,2.6,0.2c0.9,0.2,1.6,0.4,2.3,0.8c0.7,0.4,1.2,0.9,1.6,1.6c0.4,0.7,0.6,1.6,0.6,2.6c0,1.5-0.4,2.8-1.1,3.8
					c-0.7,1-1.7,1.6-2.9,2l1.3,0.8l4.3,7.2h-4.3l-4.3-7.4l-1.9-0.4v7.7h-3.7V80.6z M350.9,83.5c-0.4,0-0.8,0-1.1,0
					c-0.4,0-0.7,0.1-0.9,0.1v5.5h1.6c1,0,1.8-0.2,2.5-0.7c0.6-0.5,0.9-1.2,0.9-2.3c0-0.8-0.3-1.4-0.8-1.9S351.8,83.5,350.9,83.5z"/>
				<path class="st2" d="M374.2,83.7h-5.5v15.6H365V83.7h-5.5v-3.3h14.7V83.7z"/>
				<path class="st2" d="M383.2,95.1h-5.8l-1.4,4.2h-3.7l6.8-19h2.7l6.8,19h-3.9L383.2,95.1z M378.4,92.2h4L381,88l-0.6-3h-0.1
					l-0.6,3L378.4,92.2z"/>
				<path class="st2" d="M402,99.3h-12V80.4h3.7V96h8.3V99.3z"/>
			</g>
		</g>
	</g>
</g>
</svg>
