<?xml version="1.0" encoding="utf-8"?>
<!-- Generator: Adobe Illustrator 23.0.3, SVG Export Plug-In . SVG Version: 6.00 Build 0)  -->
<svg version="1.1" id="Layer_1" xmlns="http://www.w3.org/2000/svg" xmlns:xlink="http://www.w3.org/1999/xlink" x="0px" y="0px"
	 viewBox="0 0 218.9 46.8" style="enable-background:new 0 0 218.9 46.8;" xml:space="preserve">
<style type="text/css">
	.st0{fill:none;stroke:#FFFFFF;stroke-width:1.172;stroke-linejoin:round;stroke-miterlimit:10;}
	.st1{fill:none;stroke:#FFFFFF;stroke-width:0.7325;stroke-linecap:round;stroke-linejoin:round;stroke-miterlimit:10;}
	.st2{fill:#FFFFFF;}
</style>
<g>
	<path class="st0" d="M25.4,4.1C35.8,4.7,44,13.4,44,23.9c0,11-8.9,19.9-19.9,19.9S4.3,34.9,4.3,23.9c0-10.5,8.2-19.2,18.6-19.8
		l0,16.4c0,6.8-3.7,12.7-9.2,15.8l0,0c-2-2.4-3.2-5.4-3.2-8.7c0-7.5,6.1-13.6,13.6-13.6S37.8,20,37.8,27.5c0,3.3-1.2,6.4-3.2,8.7
		l0,0c-5.5-3.1-9.2-9-9.2-15.8L25.4,4.1z"/>
	<g>
		<line class="st1" x1="22.1" y1="14.8" x2="14.2" y2="31.3"/>
		<line class="st1" x1="15.3" y1="20.6" x2="19.4" y2="20.2"/>
		<line class="st1" x1="12.6" y1="27.4" x2="16.2" y2="27"/>
		<line class="st1" x1="17.8" y1="24.3" x2="20" y2="26.1"/>
	</g>
	<g>
		<line class="st1" x1="26.2" y1="14.8" x2="34.1" y2="31.3"/>
		<line class="st1" x1="33.1" y1="20.6" x2="28.9" y2="20.2"/>
		<line class="st1" x1="35.8" y1="27.4" x2="32.2" y2="27"/>
		<line class="st1" x1="30.5" y1="24.3" x2="28.3" y2="26.1"/>
	</g>
</g>
<g>
	<g>
		<path class="st2" d="M63.3,33H54V17.3h1.9v14h7.4V33z"/>
		<path class="st2" d="M74,17.3h1.8v10.5c0,0.9-0.1,1.8-0.4,2.4c-0.2,0.7-0.6,1.3-1.1,1.7c-0.5,0.4-1,0.8-1.6,1
			c-0.6,0.2-1.4,0.3-2.1,0.3c-1.9,0-3.3-0.4-4.2-1.3c-0.9-0.8-1.4-2.1-1.4-3.8V17.3h1.9v10c0,0.8,0.1,1.5,0.2,2
			c0.2,0.5,0.4,1,0.7,1.3c0.3,0.3,0.7,0.6,1.2,0.7c0.5,0.1,1,0.2,1.6,0.2c1.2,0,2.1-0.3,2.6-1c0.5-0.7,0.8-1.8,0.8-3.3V17.3z"/>
		<path class="st2" d="M82.1,22.7l-1.2-2.3h-0.1l0.2,2.3V33h-1.7V17h1l7.5,10.5l1.2,2.2H89l-0.2-2.2V17.3h1.7v15.9h-1L82.1,22.7z"/>
		<path class="st2" d="M99.3,25.1h5.3v6.9c-0.2,0.2-0.5,0.3-0.9,0.5c-0.3,0.1-0.7,0.3-1.1,0.4c-0.4,0.1-0.8,0.2-1.2,0.2
			c-0.4,0.1-0.8,0.1-1.2,0.1c-1,0-1.9-0.2-2.8-0.5c-0.8-0.3-1.6-0.8-2.2-1.5c-0.6-0.7-1.1-1.5-1.4-2.5c-0.3-1-0.5-2.2-0.5-3.6
			c0-1.4,0.2-2.7,0.6-3.7c0.4-1,1-1.9,1.6-2.5c0.7-0.7,1.4-1.1,2.3-1.4c0.8-0.3,1.7-0.4,2.5-0.4c0.9,0,1.6,0,2.2,0.1
			c0.6,0.1,1.1,0.2,1.5,0.4l-0.5,1.7c-0.7-0.4-1.7-0.5-3.1-0.5c-0.6,0-1.3,0.1-1.9,0.3c-0.6,0.2-1.2,0.6-1.7,1.1
			c-0.5,0.5-0.9,1.2-1.2,2c-0.3,0.8-0.5,1.8-0.5,3c0,1.1,0.1,2.1,0.4,2.9c0.3,0.8,0.6,1.5,1.1,2c0.5,0.5,1,0.9,1.6,1.2
			c0.6,0.3,1.3,0.4,2.1,0.4c1,0,1.8-0.2,2.4-0.6v-4.4l-3.7-0.4V25.1z"/>
		<path class="st2" d="M109.7,17.3c0.3,0,0.6-0.1,1-0.1c0.4,0,0.7,0,1.1,0c0.4,0,0.8,0,1.1,0c0.4,0,0.7,0,1,0c1.3,0,2.3,0.2,3.3,0.6
			c0.9,0.4,1.7,0.9,2.3,1.6c0.6,0.7,1,1.5,1.3,2.5c0.3,1,0.4,2,0.4,3.2c0,1.1-0.1,2.1-0.4,3.1c-0.3,1-0.7,1.8-1.3,2.6
			c-0.6,0.8-1.4,1.4-2.3,1.8c-1,0.5-2.1,0.7-3.5,0.7c-0.2,0-0.5,0-0.9,0c-0.4,0-0.8,0-1.2,0c-0.4,0-0.8,0-1.1-0.1
			c-0.3,0-0.6,0-0.7-0.1V17.3z M113.9,18.8c-0.2,0-0.4,0-0.6,0c-0.2,0-0.5,0-0.7,0c-0.2,0-0.4,0-0.6,0c-0.2,0-0.3,0-0.4,0v12.6
			c0.1,0,0.2,0,0.4,0c0.2,0,0.4,0,0.7,0c0.2,0,0.4,0,0.7,0c0.2,0,0.4,0,0.4,0c1,0,1.9-0.2,2.6-0.5c0.7-0.4,1.3-0.8,1.7-1.4
			c0.4-0.6,0.7-1.3,0.9-2.1c0.2-0.8,0.3-1.6,0.3-2.4c0-0.7-0.1-1.5-0.2-2.2c-0.2-0.7-0.4-1.4-0.9-2c-0.4-0.6-0.9-1.1-1.6-1.5
			C115.8,18.9,115,18.8,113.9,18.8z"/>
		<path class="st2" d="M124.2,17.3h1.9V33h-1.9V17.3z"/>
		<path class="st2" d="M136.6,29c0-0.6-0.2-1.1-0.6-1.5c-0.4-0.4-0.8-0.7-1.4-1.1c-0.6-0.3-1.2-0.6-1.8-0.9c-0.7-0.3-1.3-0.6-1.8-1
			s-1-0.9-1.4-1.4c-0.4-0.6-0.6-1.3-0.6-2.1c0-1.2,0.4-2.2,1.3-2.9c0.9-0.7,2.1-1.1,3.6-1.1c0.9,0,1.7,0.1,2.5,0.2
			c0.7,0.1,1.3,0.3,1.7,0.5l-0.6,1.7c-0.3-0.2-0.8-0.3-1.5-0.5c-0.7-0.2-1.4-0.2-2.3-0.2c-1,0-1.7,0.2-2.2,0.7
			c-0.5,0.4-0.7,1-0.7,1.6c0,0.6,0.2,1.1,0.6,1.5c0.4,0.4,0.8,0.7,1.4,1c0.6,0.3,1.2,0.6,1.8,0.9c0.7,0.3,1.3,0.6,1.8,1
			c0.6,0.4,1,0.9,1.4,1.4c0.4,0.6,0.6,1.2,0.6,2.1c0,0.7-0.1,1.3-0.4,1.8c-0.2,0.5-0.6,1-1.1,1.4c-0.5,0.4-1,0.7-1.7,0.9
			c-0.7,0.2-1.4,0.3-2.2,0.3c-1.1,0-2-0.1-2.8-0.3c-0.7-0.2-1.3-0.4-1.7-0.6l0.6-1.7c0.3,0.2,0.9,0.4,1.5,0.6
			c0.7,0.2,1.4,0.3,2.3,0.3c0.5,0,1,0,1.4-0.1c0.4-0.1,0.8-0.3,1.1-0.5c0.3-0.2,0.6-0.5,0.8-0.8C136.5,29.8,136.6,29.4,136.6,29z"/>
		<path class="st2" d="M140.9,17.3h8.5v1.7h-6.7v5.1h6.1v1.7h-6.1v5.6h6.8V33h-8.7V17.3z"/>
		<path class="st2" d="M160.5,28.6h-5.8l-1.6,4.4h-1.9l5.9-15.9h0.9l6,15.9h-2L160.5,28.6z M155.4,27h4.6l-1.7-4.8l-0.6-2.4h0
			l-0.6,2.4L155.4,27z"/>
		<path class="st2" d="M173.6,29c0-0.6-0.2-1.1-0.6-1.5c-0.4-0.4-0.8-0.7-1.4-1.1c-0.6-0.3-1.2-0.6-1.8-0.9c-0.7-0.3-1.3-0.6-1.8-1
			s-1-0.9-1.4-1.4c-0.4-0.6-0.6-1.3-0.6-2.1c0-1.2,0.4-2.2,1.3-2.9c0.9-0.7,2.1-1.1,3.6-1.1c0.9,0,1.7,0.1,2.5,0.2
			c0.7,0.1,1.3,0.3,1.7,0.5l-0.6,1.7c-0.3-0.2-0.8-0.3-1.5-0.5c-0.7-0.2-1.4-0.2-2.3-0.2c-1,0-1.7,0.2-2.2,0.7
			c-0.5,0.4-0.7,1-0.7,1.6c0,0.6,0.2,1.1,0.6,1.5c0.4,0.4,0.8,0.7,1.4,1c0.6,0.3,1.2,0.6,1.8,0.9c0.7,0.3,1.3,0.6,1.8,1
			c0.6,0.4,1,0.9,1.4,1.4c0.4,0.6,0.6,1.2,0.6,2.1c0,0.7-0.1,1.3-0.4,1.8c-0.2,0.5-0.6,1-1.1,1.4c-0.5,0.4-1,0.7-1.7,0.9
			c-0.7,0.2-1.4,0.3-2.2,0.3c-1.1,0-2-0.1-2.8-0.3c-0.7-0.2-1.3-0.4-1.7-0.6l0.6-1.7c0.3,0.2,0.9,0.4,1.5,0.6
			c0.7,0.2,1.4,0.3,2.3,0.3c0.5,0,1,0,1.4-0.1c0.4-0.1,0.8-0.3,1.1-0.5c0.3-0.2,0.6-0.5,0.8-0.8C173.5,29.8,173.6,29.4,173.6,29z"/>
		<path class="st2" d="M177.9,17.3h8.5v1.7h-6.7v5.1h6.1v1.7h-6.1v5.6h6.8V33h-8.7V17.3z"/>
	</g>
	<g>
		<path class="st2" d="M209.6,21.2c-0.2-0.2-0.5-0.3-0.8-0.3c-0.3-0.1-0.6-0.1-0.9-0.1c-0.2,0-0.5,0-0.7,0c-0.2,0-0.4,0-0.5,0.1V25
			c0,0,0.1,0,0.2,0c0.1,0,0.2,0,0.3,0c0.1,0,0.2,0,0.3,0s0.2,0,0.2,0c0.3,0,0.6,0,1-0.1c0.3-0.1,0.6-0.2,0.9-0.3
			c0.3-0.2,0.5-0.4,0.6-0.7c0.2-0.3,0.2-0.7,0.2-1.1c0-0.4-0.1-0.7-0.2-1C210,21.6,209.9,21.4,209.6,21.2z"/>
		<path class="st2" d="M208.3,17.2C208.3,17.2,208.3,17.2,208.3,17.2L208.3,17.2h-16.6v3.8v11.8l0,0h16.6v0c0,0,0,0,0,0
			c4.3,0,7.8-3.5,7.8-7.8S212.6,17.2,208.3,17.2z M200.7,31.5l-3.7-5.4h-0.6v5.4h-2.5V18.8h2.5v5.6l0.6-0.3l3.5-5.3h2.8l-3.7,5.3
			l-1,0.7l1,0.7l4.2,5.9H200.7z M212.6,24.9c-0.3,0.5-0.6,1-1.1,1.3c-0.5,0.3-1,0.6-1.6,0.8c-0.6,0.2-1.2,0.2-1.8,0.2
			c-0.1,0-0.2,0-0.3,0c-0.1,0-0.3,0-0.4,0c-0.1,0-0.3,0-0.4,0c-0.1,0-0.2,0-0.3,0v4.3h-2.5V19c0.5-0.1,1.1-0.2,1.7-0.2
			c0.6-0.1,1.2-0.1,1.8-0.1c0.6,0,1.3,0.1,1.9,0.2c0.6,0.1,1.2,0.3,1.7,0.6c0.5,0.3,0.9,0.7,1.2,1.3c0.3,0.5,0.5,1.3,0.5,2.1
			C213,23.6,212.9,24.3,212.6,24.9z"/>
	</g>
</g>
</svg>
