<?xml version="1.0" encoding="utf-8"?>
<!-- Generator: Adobe Illustrator 21.1.0, SVG Export Plug-In . SVG Version: 6.00 Build 0)  -->
<svg version="1.1" id="Layer_1" xmlns="http://www.w3.org/2000/svg" xmlns:xlink="http://www.w3.org/1999/xlink" x="0px" y="0px"
	 viewBox="0 0 500 200" style="enable-background:new 0 0 500 200;" xml:space="preserve">
<style type="text/css">
	.st0{fill:none;}
	.st1{fill:#FFFFFF;}
	.st2{fill:#EC2227;}
	.st3{fill:#29AFE5;}
</style>
<rect x="0.1" y="0.3" class="st0" width="500" height="200"/>
<g>
	<g>
		<g>
			<path class="st1" d="M0.6,146.6c0-6.4,0-12.6,8.4-12.6c5.2,0,7.3,2.9,7.1,8.1h-5c0-3.2-0.6-4.4-2.1-4.4c-2.9,0-3.2,2.7-3.2,8.9
				s0.4,8.9,3.2,8.9c2.4,0,2.3-3,2.3-4.9h5c0,6.5-2.6,8.6-7.3,8.6C0.6,159.2,0.6,153,0.6,146.6z"/>
			<path class="st1" d="M17.7,158.8l6.7-24.3h6.7l6.6,24.3h-5.4l-1.3-5.4h-6.9l-1.4,5.4H17.7z M27.5,139.1L27.5,139.1l-2.4,10.5h4.9
				L27.5,139.1z"/>
			<path class="st1" d="M45.1,158.8H40v-24.3h9.4c3.5,0,5.7,2.2,5.7,6.4c0,3.1-1.2,5.4-4.5,6v0.1c1.1,0.1,4.4,0.4,4.4,4.8
				c0,1.5,0.1,6.1,0.6,7.1h-5c-0.7-1.5-0.5-3.1-0.5-4.7c0-2.9,0.3-5.4-3.6-5.4h-1.3V158.8z M45.1,145h2.3c2,0,2.6-2,2.6-3.6
				c0-2.3-1-3.2-2.6-3.2h-2.3V145z"/>
			<path class="st1" d="M58.9,134.5h8.5c6.7,0,7.9,4.4,7.9,12c0,3.7,0.6,12.3-8.1,12.3h-8.3V134.5z M64,155h2.5
				c3.1,0,3.7-2.3,3.7-8.4c0-4.5,0-8.4-3.5-8.4H64V155z"/>
			<path class="st1" d="M79.4,158.8v-24.3h5.1v24.3H79.4z"/>
			<path class="st1" d="M88.5,146.6c0-6.4,0-12.6,8.4-12.6s8.4,6.1,8.4,12.6c0,6.4,0,12.6-8.4,12.6S88.5,153,88.5,146.6z
				 M100.2,146.6c0-6.2-0.4-8.9-3.2-8.9s-3.2,2.7-3.2,8.9s0.4,8.9,3.2,8.9S100.2,152.8,100.2,146.6z"/>
			<path class="st1" d="M107.4,134.5h5.3l3.8,17.7h0.1l4.2-17.7h5l-6.4,24.3h-6L107.4,134.5z"/>
			<path class="st1" d="M125,158.8l6.7-24.3h6.7l6.6,24.3h-5.4l-1.3-5.4h-6.9l-1.4,5.4H125z M134.8,139.1L134.8,139.1l-2.4,10.5h4.9
				L134.8,139.1z"/>
			<path class="st1" d="M154,159.2c-6.3,0-7.5-3.7-7.2-7.9h5.1c0,2.3,0.1,4.3,2.9,4.3c1.7,0,2.6-1.1,2.6-2.8
				c0-4.4-10.2-4.6-10.2-11.9c0-3.8,1.8-6.8,8-6.8c4.9,0,7.4,2.2,7.1,7.3h-4.9c0-1.8-0.3-3.7-2.4-3.7c-1.7,0-2.6,0.9-2.6,2.6
				c0,4.6,10.2,4.2,10.2,11.9C162.5,158.4,157.9,159.2,154,159.2z"/>
			<path class="st1" d="M165.9,146.6c0-6.4,0-12.6,8.4-12.6c5.2,0,7.3,2.9,7.1,8.1h-5c0-3.2-0.6-4.4-2.1-4.4c-2.9,0-3.2,2.7-3.2,8.9
				s0.4,8.9,3.2,8.9c2.4,0,2.3-3,2.3-4.9h5c0,6.5-2.6,8.6-7.3,8.6C165.9,159.2,165.9,153,165.9,146.6z"/>
			<path class="st1" d="M201.3,134.5v17.2c0,3.6-2.1,7.5-8.3,7.5c-5.6,0-8.3-2.9-8.3-7.5v-17.2h5.1v16.9c0,3,1.3,4.2,3.1,4.2
				c2.2,0,3.2-1.5,3.2-4.2v-16.9H201.3z"/>
			<path class="st1" d="M205.5,158.8v-24.3h5.1v20.3h7.6v4H205.5z"/>
			<path class="st1" d="M218.5,158.8l6.7-24.3h6.7l6.6,24.3h-5.4l-1.3-5.4h-6.9l-1.4,5.4H218.5z M228.3,139.1L228.3,139.1l-2.4,10.5
				h4.9L228.3,139.1z"/>
			<path class="st1" d="M245.9,158.8h-5.1v-24.3h9.4c3.5,0,5.7,2.2,5.7,6.4c0,3.1-1.2,5.4-4.5,6v0.1c1.1,0.1,4.4,0.4,4.4,4.8
				c0,1.5,0.1,6.1,0.6,7.1h-5c-0.7-1.5-0.5-3.1-0.5-4.7c0-2.9,0.3-5.4-3.6-5.4h-1.3V158.8z M245.9,145h2.3c2,0,2.6-2,2.6-3.6
				c0-2.3-1-3.2-2.6-3.2h-2.3V145z"/>
			<path class="st1" d="M267.3,134.5h8.5c6.7,0,7.9,4.4,7.9,12c0,3.7,0.6,12.3-8.1,12.3h-8.3V134.5z M272.3,155h2.5
				c3.1,0,3.7-2.3,3.7-8.4c0-4.5,0-8.4-3.5-8.4h-2.6V155z"/>
			<path class="st1" d="M287.7,158.8v-24.3h5.1v24.3H287.7z"/>
			<path class="st1" d="M303.7,159.2c-6.3,0-7.5-3.7-7.2-7.9h5.1c0,2.3,0.1,4.3,2.9,4.3c1.7,0,2.6-1.1,2.6-2.8
				c0-4.4-10.2-4.6-10.2-11.9c0-3.8,1.8-6.8,8-6.8c5,0,7.4,2.2,7.1,7.3h-5c0-1.8-0.3-3.7-2.4-3.7c-1.7,0-2.6,0.9-2.6,2.6
				c0,4.6,10.2,4.2,10.2,11.9C312.2,158.4,307.6,159.2,303.7,159.2z"/>
			<path class="st1" d="M315.8,158.8v-24.3h13.3v3.7h-8.2v6h7.5v3.7h-7.5v7.1h8.5v3.7H315.8z"/>
			<path class="st1" d="M330.8,158.8l6.7-24.3h6.7l6.6,24.3h-5.4l-1.3-5.4h-6.9l-1.4,5.4H330.8z M340.6,139.1L340.6,139.1l-2.4,10.5
				h4.8L340.6,139.1z"/>
			<path class="st1" d="M359.8,159.2c-6.3,0-7.5-3.7-7.2-7.9h5.1c0,2.3,0.1,4.3,2.9,4.3c1.7,0,2.6-1.1,2.6-2.8
				c0-4.4-10.2-4.6-10.2-11.9c0-3.8,1.8-6.8,8-6.8c5,0,7.4,2.2,7.1,7.3h-5c0-1.8-0.3-3.7-2.4-3.7c-1.7,0-2.6,0.9-2.6,2.6
				c0,4.6,10.2,4.2,10.2,11.9C368.3,158.4,363.7,159.2,359.8,159.2z"/>
			<path class="st1" d="M372,158.8v-24.3h13.3v3.7H377v6h7.5v3.7H377v7.1h8.5v3.7H372z"/>
			<path class="st1" d="M1.1,191.4v-22.1h2v10.1h0.1l7.8-10.1h2.4L5,179.6l8.5,11.8h-2.5l-8-11.3H3v11.3H1.1z"/>
			<path class="st1" d="M16.4,191.4v-22.1h3l9,19.4l0.1-0.1v-19.3h2v22.1h-3l-9-19.6l-0.1,0.1v19.6H16.4z"/>
			<path class="st1" d="M41.2,168.9c6.6,0,6.7,5.5,6.7,11.5c0,6-0.1,11.5-6.7,11.5s-6.7-5.5-6.7-11.5
				C34.5,174.4,34.6,168.9,41.2,168.9z M41.2,190.2c4.7,0,4.7-3.9,4.7-9.8s-0.1-9.8-4.7-9.8s-4.7,3.9-4.7,9.8S36.6,190.2,41.2,190.2
				z"/>
			<path class="st1" d="M61.1,169.3h2.6l4.4,19.4h0.1l4.7-19.4h1.9l-5.5,22.1h-2.6l-4.4-19.7h-0.1l-4.6,19.7h-2.4L50,169.3h2.1
				l4.5,19.5h0.1L61.1,169.3z"/>
			<path class="st1" d="M77.3,191.4v-22.1h2v20.5h7.3v1.7H77.3z"/>
			<path class="st1" d="M99.4,169.3v1.7h-8.1v8.3h7.7v1.7h-7.7v8.9h8.3v1.7H89.4v-22.1H99.4z"/>
			<path class="st1" d="M103,169.3h5.8c6.2,0,7,3.6,7,11.1c0,7.3-1.1,11-7.7,11H103V169.3z M105,189.8h2.4c5.9,0,6.5-1.6,6.5-10.6
				c0-6.3-0.9-8.2-6.3-8.2H105V189.8z"/>
			<path class="st1" d="M130.4,181.5h-4.5v-1.7h6.4v11.1c-2,0.6-4,0.9-6.1,0.9c-7.2,0-6.7-7.2-6.7-11.5c0-4.3-0.5-11.5,6.7-11.5
				c4.2,0,6.4,1.8,6.3,6.1h-2c0-2.9-1.3-4.4-4.3-4.4c-4.8,0-4.7,4.3-4.7,9.8c0,5.6-0.1,9.8,4.7,9.8c1.7,0,3.1-0.2,4.1-0.6V181.5z"/>
			<path class="st1" d="M147.1,169.3v1.7H139v8.3h7.7v1.7H139v8.9h8.3v1.7h-10.2v-22.1H147.1z"/>
			<path class="st1" d="M157.1,169.3h6.1c1.8,0,4.9,0.2,4.9,5.4c0,4.4-1.4,6.5-5.2,6.5h-3.7v10.3h-2V169.3z M159.1,179.5h3.6
				c2.1,0,3.4-1,3.4-4.4c0-3.8-1.6-4.1-3.4-4.1h-3.6V179.5z"/>
			<path class="st1" d="M177.3,168.9c6.6,0,6.7,5.5,6.7,11.5c0,6-0.1,11.5-6.7,11.5c-6.6,0-6.7-5.5-6.7-11.5
				C170.6,174.4,170.7,168.9,177.3,168.9z M177.3,190.2c4.7,0,4.7-3.9,4.7-9.8s-0.1-9.8-4.7-9.8c-4.7,0-4.7,3.9-4.7,9.8
				S172.6,190.2,177.3,190.2z"/>
			<path class="st1" d="M189.8,180.7v10.7h-2v-22.1h6.1c4.3,0,5.3,1.4,5.3,5.3c0,2.8-0.5,4.6-3.4,5.3v0.1c3.1,0.6,3.3,1,3.3,8.9
				c0,0.9,0.2,1.7,0.2,2.6h-1.9c-0.2-0.6-0.3-4.3-0.3-5.5c0-0.9,0.6-5.2-3.6-5.2H189.8z M189.8,179.1h3.2c2.9,0,4.3-0.8,4.3-4.5
				c0-3-1.2-3.6-3.5-3.6h-4V179.1z"/>
			<path class="st1" d="M206.9,171h-5.4v-1.7h12.7v1.7h-5.4v20.5h-2V171z"/>
			<path class="st1" d="M222.9,169.3l6.9,22.1h-2.1l-1.8-5.8h-8.7l-1.7,5.8h-2l7-22.1H222.9z M225.4,184l-3.8-12.5h-0.1l-3.7,12.5
				H225.4z"/>
			<path class="st1" d="M232.2,191.4v-22.1h2v20.5h7.3v1.7H232.2z"/>
		</g>
	</g>
	<g>
		<g>
			<circle class="st2" cx="90.4" cy="8.1" r="0.3"/>
			<circle class="st2" cx="98.6" cy="8.1" r="0.3"/>
			<circle class="st2" cx="106.7" cy="8.1" r="0.3"/>
			<circle class="st2" cx="74" cy="16.3" r="0.3"/>
			<circle class="st2" cx="82.2" cy="16.3" r="0.3"/>
			<circle class="st2" cx="90.4" cy="16.3" r="1"/>
			<circle class="st2" cx="98.6" cy="16.3" r="1.4"/>
			<circle class="st2" cx="106.7" cy="16.3" r="1.4"/>
			<circle class="st2" cx="114.9" cy="16.3" r="0.3"/>
			<circle class="st2" cx="123.1" cy="16.3" r="0.3"/>
			<circle class="st2" cx="74" cy="24.5" r="1.5"/>
			<circle class="st2" cx="82.2" cy="24.5" r="1.5"/>
			<circle class="st2" cx="90.4" cy="24.5" r="3"/>
			<circle class="st2" cx="98.6" cy="24.5" r="3.4"/>
			<circle class="st2" cx="106.7" cy="24.5" r="3.4"/>
			<circle class="st2" cx="114.9" cy="24.5" r="2.4"/>
			<circle class="st2" cx="123.1" cy="24.5" r="1"/>
			<circle class="st2" cx="131.3" cy="24.5" r="0.3"/>
			<circle class="st2" cx="74" cy="32.7" r="2.7"/>
			<circle class="st2" cx="82.2" cy="32.7" r="3.4"/>
			<circle class="st2" cx="90.4" cy="32.7" r="3.4"/>
			<circle class="st2" cx="98.6" cy="32.7" r="3.4"/>
			<circle class="st2" cx="106.7" cy="32.7" r="3.7"/>
			<circle class="st2" cx="114.9" cy="32.7" r="3.4"/>
			<circle class="st2" cx="123.1" cy="32.7" r="3"/>
			<circle class="st2" cx="131.3" cy="32.7" r="1"/>
			<circle class="st2" cx="139.5" cy="32.7" r="0.3"/>
			<circle class="st2" cx="74" cy="40.8" r="3.4"/>
			<circle class="st2" cx="82.2" cy="40.8" r="3.9"/>
			<circle class="st2" cx="90.4" cy="40.8" r="3.7"/>
			<circle class="st2" cx="98.6" cy="40.8" r="3.4"/>
			<circle class="st2" cx="106.7" cy="40.8" r="3.4"/>
			<circle class="st2" cx="114.9" cy="40.8" r="3.7"/>
			<circle class="st2" cx="123.1" cy="40.8" r="3.4"/>
			<circle class="st2" cx="131.3" cy="40.8" r="2.5"/>
			<circle class="st2" cx="139.5" cy="40.8" r="1"/>
			<circle class="st2" cx="74" cy="49" r="5"/>
			<circle class="st2" cx="82.2" cy="49" r="5.1"/>
			<circle class="st2" cx="90.4" cy="49" r="4.7"/>
			<circle class="st2" cx="98.6" cy="49" r="4.7"/>
			<circle class="st2" cx="106.7" cy="49" r="4.1"/>
			<circle class="st2" cx="114.9" cy="49" r="3.7"/>
			<circle class="st2" cx="123.1" cy="49" r="3.4"/>
			<circle class="st2" cx="131.3" cy="49" r="3.4"/>
			<circle class="st2" cx="139.5" cy="49" r="1"/>
			<circle class="st2" cx="147.6" cy="49" r="0.3"/>
			<circle class="st2" cx="74" cy="57.2" r="5.1"/>
			<circle class="st2" cx="82.2" cy="57.2" r="4.6"/>
			<circle class="st2" cx="90.4" cy="57.2" r="4.7"/>
			<circle class="st2" cx="98.6" cy="57.2" r="4.3"/>
			<circle class="st2" cx="106.7" cy="57.2" r="4"/>
			<circle class="st2" cx="114.9" cy="57.2" r="3.7"/>
			<circle class="st2" cx="123.1" cy="57.2" r="3.4"/>
			<circle class="st2" cx="131.3" cy="57.2" r="3.4"/>
			<circle class="st2" cx="139.5" cy="57.2" r="1.4"/>
			<circle class="st2" cx="147.6" cy="57.2" r="0.3"/>
			<circle class="st2" cx="74" cy="65.4" r="4.6"/>
			<circle class="st2" cx="82.2" cy="65.4" r="4.7"/>
			<circle class="st2" cx="90.4" cy="65.4" r="4.6"/>
			<circle class="st2" cx="98.6" cy="65.4" r="4.3"/>
			<circle class="st2" cx="106.7" cy="65.4" r="3.9"/>
			<circle class="st2" cx="114.9" cy="65.4" r="3.7"/>
			<circle class="st2" cx="123.1" cy="65.4" r="3.4"/>
			<circle class="st2" cx="131.3" cy="65.4" r="2.7"/>
			<circle class="st2" cx="139.5" cy="65.4" r="1"/>
			<circle class="st2" cx="74" cy="73.6" r="5.1"/>
			<circle class="st2" cx="82.2" cy="73.6" r="4.9"/>
			<circle class="st2" cx="90.4" cy="73.6" r="4.6"/>
			<circle class="st2" cx="98.6" cy="73.6" r="4.3"/>
			<circle class="st2" cx="106.7" cy="73.6" r="3.9"/>
			<circle class="st2" cx="114.9" cy="73.6" r="3.6"/>
			<circle class="st2" cx="123.1" cy="73.6" r="3.4"/>
			<circle class="st2" cx="131.3" cy="73.6" r="1.4"/>
			<circle class="st2" cx="139.5" cy="73.6" r="0.3"/>
			<circle class="st2" cx="74" cy="81.7" r="4.6"/>
			<circle class="st2" cx="82.2" cy="81.7" r="4.7"/>
			<circle class="st2" cx="90.4" cy="81.7" r="4.6"/>
			<circle class="st2" cx="98.6" cy="81.7" r="3.9"/>
			<circle class="st3" cx="98.6" cy="81.7" r="2.7"/>
			<circle class="st2" cx="106.7" cy="81.7" r="3.7"/>
			<circle class="st3" cx="106.7" cy="81.7" r="2.9"/>
			<circle class="st2" cx="114.9" cy="81.7" r="3.4"/>
			<circle class="st2" cx="123.1" cy="81.7" r="2.7"/>
			<circle class="st2" cx="131.3" cy="81.7" r="0.3"/>
			<circle class="st2" cx="139.5" cy="81.7" r="0.3"/>
			<circle class="st2" cx="74" cy="89.9" r="4.3"/>
			<circle class="st2" cx="82.2" cy="89.9" r="4.6"/>
			<circle class="st2" cx="90.4" cy="89.9" r="4.3"/>
			<circle class="st3" cx="90.4" cy="89.9" r="2.9"/>
			<circle class="st2" cx="98.6" cy="89.9" r="3.4"/>
			<circle class="st3" cx="98.6" cy="89.9" r="2.9"/>
			<circle class="st2" cx="106.7" cy="89.9" r="3.4"/>
			<circle class="st3" cx="106.7" cy="89.9" r="3.4"/>
			<circle class="st2" cx="114.9" cy="89.9" r="3.4"/>
			<circle class="st3" cx="114.9" cy="89.9" r="2.7"/>
			<circle class="st2" cx="123.1" cy="89.9" r="0.7"/>
			<circle class="st2" cx="131.3" cy="89.9" r="0.3"/>
			<circle class="st2" cx="74" cy="98.1" r="3.7"/>
			<circle class="st2" cx="82.2" cy="98.1" r="4.3"/>
			<circle class="st2" cx="90.4" cy="98.1" r="3.9"/>
			<circle class="st2" cx="98.6" cy="98.1" r="3.4"/>
			<circle class="st3" cx="98.6" cy="98.1" r="2.5"/>
			<circle class="st2" cx="106.7" cy="98.1" r="2.7"/>
			<circle class="st3" cx="106.7" cy="98.1" r="2.3"/>
			<circle class="st2" cx="114.9" cy="98.1" r="0.7"/>
			<circle class="st2" cx="123.1" cy="98.1" r="0.3"/>
			<circle class="st2" cx="74" cy="106.3" r="3.4"/>
			<circle class="st2" cx="82.2" cy="106.3" r="3.9"/>
			<circle class="st2" cx="90.4" cy="106.3" r="3.4"/>
			<circle class="st2" cx="98.6" cy="106.3" r="2"/>
			<circle class="st2" cx="106.7" cy="106.3" r="0.7"/>
			<circle class="st2" cx="114.9" cy="106.3" r="0.3"/>
			<circle class="st2" cx="74" cy="114.5" r="3.4"/>
			<circle class="st2" cx="82.2" cy="114.5" r="2.7"/>
			<circle class="st2" cx="90.4" cy="114.5" r="0.7"/>
			<circle class="st2" cx="98.6" cy="114.5" r="0.3"/>
			<circle class="st2" cx="74" cy="122.6" r="0.3"/>
			<circle class="st2" cx="82.2" cy="122.6" r="0.3"/>
		</g>
		<g>
			<circle class="st2" cx="57.7" cy="8.1" r="0.3"/>
			<circle class="st2" cx="49.5" cy="8.1" r="0.3"/>
			<circle class="st2" cx="41.3" cy="8.1" r="0.3"/>
			<circle class="st2" cx="65.9" cy="16.3" r="0.3"/>
			<circle class="st2" cx="57.7" cy="16.3" r="1"/>
			<circle class="st2" cx="49.5" cy="16.3" r="1.4"/>
			<circle class="st2" cx="41.3" cy="16.3" r="1.4"/>
			<circle class="st2" cx="33.1" cy="16.3" r="0.3"/>
			<circle class="st2" cx="25" cy="16.3" r="0.3"/>
			<circle class="st2" cx="65.9" cy="24.5" r="1.5"/>
			<circle class="st2" cx="57.7" cy="24.5" r="3"/>
			<circle class="st2" cx="49.5" cy="24.5" r="3.4"/>
			<circle class="st2" cx="41.3" cy="24.5" r="3.4"/>
			<circle class="st2" cx="33.1" cy="24.5" r="2.4"/>
			<circle class="st2" cx="25" cy="24.5" r="1"/>
			<circle class="st2" cx="16.8" cy="24.5" r="0.3"/>
			<circle class="st2" cx="65.9" cy="32.7" r="3.4"/>
			<circle class="st2" cx="57.7" cy="32.7" r="3.4"/>
			<circle class="st2" cx="49.5" cy="32.7" r="3.4"/>
			<circle class="st2" cx="41.3" cy="32.7" r="3.7"/>
			<circle class="st2" cx="33.1" cy="32.7" r="3.4"/>
			<circle class="st2" cx="25" cy="32.7" r="3"/>
			<circle class="st2" cx="16.8" cy="32.7" r="1"/>
			<circle class="st2" cx="8.6" cy="32.7" r="0.3"/>
			<circle class="st2" cx="65.9" cy="40.8" r="3.9"/>
			<circle class="st2" cx="57.7" cy="40.8" r="3.7"/>
			<circle class="st2" cx="49.5" cy="40.8" r="3.4"/>
			<circle class="st2" cx="41.3" cy="40.8" r="3.4"/>
			<circle class="st2" cx="33.1" cy="40.8" r="3.7"/>
			<circle class="st2" cx="25" cy="40.8" r="3.4"/>
			<circle class="st2" cx="16.8" cy="40.8" r="2.5"/>
			<circle class="st2" cx="8.6" cy="40.8" r="1"/>
			<circle class="st2" cx="65.9" cy="49" r="5.1"/>
			<circle class="st2" cx="57.7" cy="49" r="4.7"/>
			<circle class="st2" cx="49.5" cy="49" r="4.7"/>
			<circle class="st2" cx="41.3" cy="49" r="4.1"/>
			<circle class="st2" cx="33.1" cy="49" r="3.7"/>
			<circle class="st2" cx="25" cy="49" r="3.4"/>
			<circle class="st2" cx="16.8" cy="49" r="3.4"/>
			<circle class="st2" cx="8.6" cy="49" r="1"/>
			<circle class="st2" cx="0.4" cy="49" r="0.3"/>
			<circle class="st2" cx="65.9" cy="57.2" r="4.6"/>
			<circle class="st2" cx="57.7" cy="57.2" r="4.7"/>
			<circle class="st2" cx="49.5" cy="57.2" r="4.3"/>
			<circle class="st2" cx="41.3" cy="57.2" r="4"/>
			<circle class="st2" cx="33.1" cy="57.2" r="3.7"/>
			<circle class="st2" cx="25" cy="57.2" r="3.4"/>
			<circle class="st2" cx="16.8" cy="57.2" r="3.4"/>
			<circle class="st2" cx="8.6" cy="57.2" r="1.4"/>
			<circle class="st2" cx="0.4" cy="57.2" r="0.3"/>
			<circle class="st2" cx="65.9" cy="65.4" r="4.7"/>
			<circle class="st2" cx="57.7" cy="65.4" r="4.6"/>
			<circle class="st2" cx="49.5" cy="65.4" r="4.3"/>
			<circle class="st2" cx="41.3" cy="65.4" r="3.9"/>
			<circle class="st2" cx="33.1" cy="65.4" r="3.7"/>
			<circle class="st2" cx="25" cy="65.4" r="3.4"/>
			<circle class="st2" cx="16.8" cy="65.4" r="2.7"/>
			<circle class="st2" cx="8.6" cy="65.4" r="1"/>
			<circle class="st2" cx="65.9" cy="73.6" r="4.9"/>
			<circle class="st2" cx="57.7" cy="73.6" r="4.6"/>
			<circle class="st2" cx="49.5" cy="73.6" r="4.3"/>
			<circle class="st2" cx="41.3" cy="73.6" r="3.9"/>
			<circle class="st2" cx="33.1" cy="73.6" r="3.6"/>
			<circle class="st2" cx="25" cy="73.6" r="3.4"/>
			<circle class="st2" cx="16.8" cy="73.6" r="1.4"/>
			<circle class="st2" cx="8.6" cy="73.6" r="0.3"/>
			<circle class="st2" cx="65.9" cy="81.7" r="4.7"/>
			<circle class="st2" cx="57.7" cy="81.7" r="4.6"/>
			<circle class="st2" cx="49.5" cy="81.7" r="3.9"/>
			<circle class="st2" cx="41.3" cy="81.7" r="3.7"/>
			<circle class="st2" cx="33.1" cy="81.7" r="3.4"/>
			<circle class="st2" cx="25" cy="81.7" r="2.7"/>
			<circle class="st2" cx="16.8" cy="81.7" r="0.3"/>
			<circle class="st2" cx="8.6" cy="81.7" r="0.3"/>
			<circle class="st2" cx="65.9" cy="89.9" r="4.6"/>
			<circle class="st2" cx="57.7" cy="89.9" r="4.3"/>
			<circle class="st2" cx="49.5" cy="89.9" r="3.4"/>
			<circle class="st2" cx="41.3" cy="89.9" r="3.4"/>
			<circle class="st2" cx="33.1" cy="89.9" r="3.4"/>
			<circle class="st2" cx="25" cy="89.9" r="0.7"/>
			<circle class="st2" cx="16.8" cy="89.9" r="0.3"/>
			<circle class="st2" cx="65.9" cy="98.1" r="4.3"/>
			<circle class="st2" cx="57.7" cy="98.1" r="3.9"/>
			<circle class="st2" cx="49.5" cy="98.1" r="3.4"/>
			<circle class="st2" cx="41.3" cy="98.1" r="2.7"/>
			<circle class="st2" cx="33.1" cy="98.1" r="0.7"/>
			<circle class="st2" cx="25" cy="98.1" r="0.3"/>
			<circle class="st2" cx="65.9" cy="106.3" r="3.9"/>
			<circle class="st2" cx="57.7" cy="106.3" r="3.4"/>
			<circle class="st2" cx="49.5" cy="106.3" r="2"/>
			<circle class="st2" cx="41.3" cy="106.3" r="0.7"/>
			<circle class="st2" cx="33.1" cy="106.3" r="0.3"/>
			<circle class="st2" cx="65.9" cy="114.5" r="2.7"/>
			<circle class="st2" cx="57.7" cy="114.5" r="0.7"/>
			<circle class="st2" cx="49.5" cy="114.5" r="0.3"/>
			<circle class="st2" cx="65.9" cy="122.6" r="0.3"/>
		</g>
	</g>
</g>
</svg>
