<?xml version="1.0" encoding="utf-8"?>
<!-- Generator: Adobe Illustrator 23.0.4, SVG Export Plug-In . SVG Version: 6.00 Build 0)  -->
<svg version="1.1" id="Layer_1" xmlns="http://www.w3.org/2000/svg" xmlns:xlink="http://www.w3.org/1999/xlink" x="0px" y="0px"
	 viewBox="0 0 430.5 147.4" style="enable-background:new 0 0 430.5 147.4;" xml:space="preserve">
<style type="text/css">
	.st0{fill:#FFFFFF;}
	.st1{fill:#E92629;}
	.st2{fill:none;stroke:#FFFFFF;stroke-width:4;stroke-linejoin:round;stroke-miterlimit:10;}
</style>
<g>
	<g>
		<path class="st0" d="M174.4,52.6c-0.6,0.5-1.4,0.8-2.4,1c-1,0.2-2,0.3-3.1,0.3c-1.3,0-2.6-0.2-3.7-0.7c-1.2-0.5-2.2-1.1-3-2.1
			c-0.9-0.9-1.5-2.1-2-3.5c-0.5-1.4-0.8-3.1-0.8-5.1c0-2.1,0.3-3.8,0.8-5.2s1.3-2.6,2.2-3.5s1.9-1.6,3.1-2c1.1-0.4,2.3-0.6,3.5-0.6
			c1.3,0,2.3,0.1,3.1,0.2c0.8,0.1,1.5,0.3,2,0.6l-0.6,2.3c-1-0.5-2.4-0.8-4.3-0.8c-0.9,0-1.7,0.2-2.6,0.5s-1.6,0.8-2.3,1.5
			c-0.7,0.7-1.2,1.6-1.6,2.8c-0.4,1.2-0.6,2.6-0.6,4.3c0,1.5,0.2,2.8,0.6,4c0.4,1.1,0.9,2.1,1.6,2.8c0.7,0.8,1.4,1.3,2.3,1.7
			s1.9,0.6,2.9,0.6c0.9,0,1.8-0.1,2.5-0.3c0.7-0.2,1.3-0.4,1.8-0.7L174.4,52.6z"/>
		<path class="st0" d="M189.6,47.4h-8.1l-2.2,6.1h-2.6l8.3-22.4h1.2l8.4,22.4h-2.8L189.6,47.4z M182.3,45.1h6.5l-2.4-6.7l-0.8-3.3h0
			l-0.8,3.4L182.3,45.1z"/>
		<path class="st0" d="M197.6,31.6c0.8-0.1,1.7-0.3,2.8-0.3c1-0.1,2-0.1,2.9-0.1c1,0,1.9,0.1,2.8,0.3c0.9,0.2,1.6,0.6,2.3,1
			c0.7,0.5,1.2,1.1,1.6,1.9c0.4,0.8,0.6,1.7,0.6,2.8c0,1.7-0.5,3.1-1.4,4.2c-0.9,1.1-2.1,1.8-3.6,2.1l1.5,1.2l5.5,8.7h-3.1l-6.1-9.5
			l-3.1-0.5v10h-2.6V31.6z M203.3,33.4c-0.3,0-0.6,0-0.9,0s-0.6,0-0.9,0c-0.3,0-0.5,0-0.8,0.1c-0.2,0-0.4,0.1-0.6,0.1v8.1h2.5
			c1.4,0,2.6-0.4,3.6-1.1c0.9-0.7,1.4-1.8,1.4-3.3c0-1.1-0.4-2.1-1.2-2.8C205.8,33.8,204.7,33.4,203.3,33.4z"/>
		<path class="st0" d="M216,31.4c0.4-0.1,0.8-0.1,1.3-0.1c0.5,0,1-0.1,1.5-0.1c0.5,0,1.1,0,1.6,0c0.5,0,1,0,1.4,0
			c1.8,0,3.3,0.3,4.6,0.8c1.3,0.5,2.4,1.3,3.2,2.3s1.5,2.1,1.9,3.5c0.4,1.4,0.6,2.9,0.6,4.5c0,1.5-0.2,2.9-0.6,4.3
			c-0.4,1.4-1,2.6-1.8,3.7s-1.9,1.9-3.3,2.6c-1.3,0.6-3,1-4.9,1c-0.3,0-0.8,0-1.3,0c-0.5,0-1.1,0-1.7-0.1c-0.6,0-1.1-0.1-1.6-0.1
			c-0.5,0-0.8-0.1-1-0.1V31.4z M221.9,33.5c-0.3,0-0.6,0-0.9,0c-0.3,0-0.6,0-1,0c-0.3,0-0.6,0-0.9,0.1c-0.3,0-0.5,0-0.6,0.1v17.6
			c0.1,0,0.3,0,0.6,0c0.3,0,0.6,0,0.9,0c0.3,0,0.6,0,0.9,0c0.3,0,0.5,0,0.6,0c1.5,0,2.7-0.3,3.7-0.8c1-0.5,1.8-1.2,2.4-2
			c0.6-0.9,1-1.8,1.3-2.9c0.3-1.1,0.4-2.2,0.4-3.4c0-1-0.1-2.1-0.3-3.1c-0.2-1-0.6-2-1.2-2.8c-0.6-0.8-1.3-1.5-2.3-2.1
			C224.6,33.8,223.4,33.5,221.9,33.5z"/>
		<path class="st0" d="M236.5,31.4h2.6v22h-2.6V31.4z"/>
		<path class="st0" d="M243.6,42.4c0-3.7,0.8-6.5,2.3-8.5c1.6-2,3.8-2.9,6.6-2.9c1.6,0,2.9,0.3,4,0.8c1.1,0.5,2.1,1.3,2.8,2.3
			c0.7,1,1.3,2.2,1.7,3.6c0.4,1.4,0.5,3,0.5,4.7c0,3.7-0.8,6.5-2.3,8.5c-1.6,2-3.8,2.9-6.7,2.9c-1.5,0-2.9-0.3-4-0.8
			c-1.1-0.5-2.1-1.3-2.8-2.3c-0.7-1-1.3-2.2-1.7-3.6C243.8,45.7,243.6,44.2,243.6,42.4z M246.4,42.4c0,1.2,0.1,2.4,0.4,3.5
			c0.2,1.1,0.6,2.1,1.1,2.9s1.1,1.5,1.9,2c0.8,0.5,1.7,0.7,2.8,0.7c2,0,3.5-0.7,4.6-2.2c1.1-1.5,1.7-3.8,1.7-6.9
			c0-1.2-0.1-2.3-0.4-3.4s-0.6-2.1-1.1-2.9s-1.2-1.5-2-2c-0.8-0.5-1.7-0.7-2.8-0.7c-1.9,0-3.4,0.7-4.6,2.2
			C247,37.1,246.4,39.4,246.4,42.4z"/>
		<path class="st0" d="M271.2,46.6l0.8,3.3h0l0.8-3.4l5.3-15.1h2.6l-8.3,22.4h-1.2l-8.5-22.4h2.9L271.2,46.6z"/>
		<path class="st0" d="M292.1,47.4h-8.1l-2.2,6.1h-2.6l8.3-22.4h1.2l8.4,22.4h-2.8L292.1,47.4z M284.9,45.1h6.5l-2.4-6.7l-0.8-3.3h0
			l-0.8,3.4L284.9,45.1z"/>
		<path class="st0" d="M310.7,47.9c0-0.9-0.3-1.6-0.8-2.2c-0.5-0.6-1.2-1-2-1.5c-0.8-0.4-1.6-0.8-2.6-1.2s-1.8-0.8-2.6-1.4
			c-0.8-0.5-1.4-1.2-2-2c-0.5-0.8-0.8-1.8-0.8-3c0-1.7,0.6-3.1,1.8-4.1c1.2-1,2.9-1.5,5.1-1.5c1.3,0,2.4,0.1,3.5,0.3
			c1,0.2,1.9,0.4,2.5,0.7l-0.8,2.3c-0.5-0.2-1.2-0.5-2.1-0.7c-0.9-0.2-2-0.3-3.2-0.3c-1.4,0-2.4,0.3-3.1,0.9c-0.7,0.6-1,1.3-1,2.2
			c0,0.8,0.3,1.5,0.8,2c0.5,0.5,1.2,1,2,1.5c0.8,0.4,1.6,0.9,2.6,1.3c0.9,0.4,1.8,0.9,2.6,1.5c0.8,0.6,1.4,1.2,2,2
			c0.5,0.8,0.8,1.7,0.8,2.9c0,0.9-0.2,1.8-0.5,2.6c-0.3,0.8-0.8,1.4-1.5,2c-0.7,0.5-1.4,1-2.4,1.3c-0.9,0.3-2,0.4-3.2,0.4
			c-1.6,0-2.9-0.1-3.9-0.4s-1.8-0.5-2.4-0.8l0.9-2.3c0.5,0.3,1.2,0.5,2.1,0.8c0.9,0.3,2,0.4,3.2,0.4c0.7,0,1.3-0.1,2-0.2
			c0.6-0.1,1.1-0.4,1.6-0.7c0.4-0.3,0.8-0.7,1.1-1.1C310.6,49,310.7,48.5,310.7,47.9z"/>
		<path class="st0" d="M331.4,52.6c-0.6,0.5-1.4,0.8-2.4,1c-1,0.2-2,0.3-3.1,0.3c-1.3,0-2.6-0.2-3.7-0.7c-1.2-0.5-2.2-1.1-3-2.1
			c-0.9-0.9-1.5-2.1-2-3.5c-0.5-1.4-0.8-3.1-0.8-5.1c0-2.1,0.3-3.8,0.8-5.2s1.3-2.6,2.2-3.5s1.9-1.6,3.1-2c1.1-0.4,2.3-0.6,3.5-0.6
			c1.3,0,2.3,0.1,3.1,0.2c0.8,0.1,1.5,0.3,2,0.6l-0.6,2.3c-1-0.5-2.4-0.8-4.3-0.8c-0.9,0-1.7,0.2-2.6,0.5s-1.6,0.8-2.3,1.5
			c-0.7,0.7-1.2,1.6-1.6,2.8c-0.4,1.2-0.6,2.6-0.6,4.3c0,1.5,0.2,2.8,0.6,4c0.4,1.1,0.9,2.1,1.6,2.8c0.7,0.8,1.4,1.3,2.3,1.7
			s1.9,0.6,2.9,0.6c0.9,0,1.8-0.1,2.5-0.3c0.7-0.2,1.3-0.4,1.8-0.7L331.4,52.6z"/>
		<path class="st0" d="M347.3,31.4h2.5v14.7c0,1.3-0.2,2.5-0.5,3.4s-0.8,1.8-1.5,2.4c-0.6,0.6-1.4,1.1-2.3,1.4
			c-0.9,0.3-1.9,0.4-3,0.4c-2.6,0-4.6-0.6-5.9-1.8c-1.3-1.2-2-3-2-5.4V31.4h2.6v14c0,1.1,0.1,2.1,0.3,2.8c0.2,0.8,0.6,1.4,1,1.9
			c0.4,0.5,1,0.8,1.7,1c0.7,0.2,1.4,0.3,2.3,0.3c1.7,0,2.9-0.5,3.7-1.4c0.7-0.9,1.1-2.5,1.1-4.6V31.4z"/>
		<path class="st0" d="M367.9,53.5h-13v-22h2.6v19.7h10.4V53.5z"/>
		<path class="st0" d="M382.8,47.4h-8.1l-2.2,6.1h-2.6l8.3-22.4h1.2l8.4,22.4h-2.8L382.8,47.4z M375.6,45.1h6.5l-2.4-6.7l-0.8-3.3h0
			l-0.8,3.4L375.6,45.1z"/>
		<path class="st0" d="M390.9,31.6c0.8-0.1,1.7-0.3,2.8-0.3c1-0.1,2-0.1,2.9-0.1c1,0,1.9,0.1,2.8,0.3c0.9,0.2,1.6,0.6,2.3,1
			c0.7,0.5,1.2,1.1,1.6,1.9c0.4,0.8,0.6,1.7,0.6,2.8c0,1.7-0.5,3.1-1.4,4.2c-0.9,1.1-2.1,1.8-3.6,2.1l1.5,1.2l5.5,8.7h-3.1l-6.1-9.5
			l-3.1-0.5v10h-2.6V31.6z M396.5,33.4c-0.3,0-0.6,0-0.9,0s-0.6,0-0.9,0c-0.3,0-0.5,0-0.8,0.1c-0.2,0-0.4,0.1-0.6,0.1v8.1h2.5
			c1.4,0,2.6-0.4,3.6-1.1c0.9-0.7,1.4-1.8,1.4-3.3c0-1.1-0.4-2.1-1.2-2.8C399,33.8,397.9,33.4,396.5,33.4z"/>
		<path class="st0" d="M160.3,63.4c0.4-0.1,0.8-0.1,1.3-0.1c0.5,0,1-0.1,1.5-0.1c0.5,0,1.1,0,1.6,0c0.5,0,1,0,1.4,0
			c1.8,0,3.3,0.3,4.6,0.8c1.3,0.5,2.4,1.3,3.2,2.3s1.5,2.1,1.9,3.5c0.4,1.4,0.6,2.9,0.6,4.5c0,1.5-0.2,2.9-0.6,4.3
			c-0.4,1.4-1,2.6-1.8,3.7s-1.9,1.9-3.3,2.6c-1.3,0.6-3,1-4.9,1c-0.3,0-0.8,0-1.3,0c-0.5,0-1.1,0-1.7-0.1c-0.6,0-1.1-0.1-1.6-0.1
			c-0.5,0-0.8-0.1-1-0.1V63.4z M166.3,65.5c-0.3,0-0.6,0-0.9,0c-0.3,0-0.6,0-1,0c-0.3,0-0.6,0-0.9,0.1c-0.3,0-0.5,0-0.6,0.1v17.6
			c0.1,0,0.3,0,0.6,0c0.3,0,0.6,0,0.9,0c0.3,0,0.6,0,0.9,0c0.3,0,0.5,0,0.6,0c1.5,0,2.7-0.3,3.7-0.8c1-0.5,1.8-1.2,2.4-2
			c0.6-0.9,1-1.8,1.3-2.9c0.3-1.1,0.4-2.2,0.4-3.4c0-1-0.1-2.1-0.3-3.1c-0.2-1-0.6-2-1.2-2.8c-0.6-0.8-1.3-1.5-2.3-2.1
			C168.9,65.8,167.7,65.5,166.3,65.5z"/>
		<path class="st0" d="M180.8,63.4h2.6v22h-2.6V63.4z"/>
		<path class="st0" d="M198.5,79.9c0-0.9-0.3-1.6-0.8-2.2c-0.5-0.6-1.2-1-2-1.5c-0.8-0.4-1.6-0.8-2.6-1.2s-1.8-0.8-2.6-1.4
			c-0.8-0.5-1.4-1.2-2-2c-0.5-0.8-0.8-1.8-0.8-3c0-1.7,0.6-3.1,1.8-4.1c1.2-1,2.9-1.5,5.1-1.5c1.3,0,2.4,0.1,3.5,0.3
			c1,0.2,1.9,0.4,2.5,0.7l-0.8,2.3c-0.5-0.2-1.2-0.5-2.1-0.7c-0.9-0.2-2-0.3-3.2-0.3c-1.4,0-2.4,0.3-3.1,0.9c-0.7,0.6-1,1.3-1,2.2
			c0,0.8,0.3,1.5,0.8,2c0.5,0.5,1.2,1,2,1.5c0.8,0.4,1.6,0.9,2.6,1.3c0.9,0.4,1.8,0.9,2.6,1.5c0.8,0.6,1.4,1.2,2,2
			c0.5,0.8,0.8,1.7,0.8,2.9c0,0.9-0.2,1.8-0.5,2.6c-0.3,0.8-0.8,1.4-1.5,2c-0.7,0.5-1.4,1-2.4,1.3c-0.9,0.3-2,0.4-3.2,0.4
			c-1.6,0-2.9-0.1-3.9-0.4s-1.8-0.5-2.4-0.8l0.9-2.3c0.5,0.3,1.2,0.5,2.1,0.8c0.9,0.3,2,0.4,3.2,0.4c0.7,0,1.3-0.1,2-0.2
			c0.6-0.1,1.1-0.4,1.6-0.7c0.4-0.3,0.8-0.7,1.1-1.1C198.4,81,198.5,80.5,198.5,79.9z"/>
		<path class="st0" d="M204.8,63.4h12v2.3h-9.4V73h8.6v2.3h-8.6v7.8h9.5v2.3h-12.2V63.4z"/>
		<path class="st0" d="M232.5,79.4h-8.1l-2.2,6.1h-2.6l8.3-22.4h1.2l8.4,22.4h-2.8L232.5,79.4z M225.3,77.1h6.5l-2.4-6.7l-0.8-3.3h0
			l-0.8,3.4L225.3,77.1z"/>
		<path class="st0" d="M251.1,79.9c0-0.9-0.3-1.6-0.8-2.2c-0.5-0.6-1.2-1-2-1.5c-0.8-0.4-1.6-0.8-2.6-1.2s-1.8-0.8-2.6-1.4
			c-0.8-0.5-1.4-1.2-2-2c-0.5-0.8-0.8-1.8-0.8-3c0-1.7,0.6-3.1,1.8-4.1c1.2-1,2.9-1.5,5.1-1.5c1.3,0,2.4,0.1,3.5,0.3
			c1,0.2,1.9,0.4,2.5,0.7l-0.8,2.3c-0.5-0.2-1.2-0.5-2.1-0.7c-0.9-0.2-2-0.3-3.2-0.3c-1.4,0-2.4,0.3-3.1,0.9c-0.7,0.6-1,1.3-1,2.2
			c0,0.8,0.3,1.5,0.8,2c0.5,0.5,1.2,1,2,1.5c0.8,0.4,1.6,0.9,2.6,1.3c0.9,0.4,1.8,0.9,2.6,1.5c0.8,0.6,1.4,1.2,2,2
			c0.5,0.8,0.8,1.7,0.8,2.9c0,0.9-0.2,1.8-0.5,2.6c-0.3,0.8-0.8,1.4-1.5,2c-0.7,0.5-1.4,1-2.4,1.3c-0.9,0.3-2,0.4-3.2,0.4
			c-1.6,0-2.9-0.1-3.9-0.4s-1.8-0.5-2.4-0.8l0.9-2.3c0.5,0.3,1.2,0.5,2.1,0.8c0.9,0.3,2,0.4,3.2,0.4c0.7,0,1.3-0.1,2-0.2
			c0.6-0.1,1.1-0.4,1.6-0.7c0.4-0.3,0.8-0.7,1.1-1.1C251,81,251.1,80.5,251.1,79.9z"/>
		<path class="st0" d="M257.4,63.4h12v2.3H260V73h8.6v2.3H260v7.8h9.5v2.3h-12.2V63.4z"/>
	</g>
	<g>
		<g>
			<path class="st0" d="M165.9,106.7h-1v8.1h-3.7V95.8h3.7v8.4l0.9-0.4l5.2-8h4.2l-5.5,7.9l-1.5,1l1.5,1.1l6.3,8.9h-4.6L165.9,106.7
				z"/>
			<path class="st0" d="M182.4,104.9l-1.5-3h-0.1l0.4,3v9.9h-3.5v-19h2.7l7.2,10.1l1.4,2.9h0.1l-0.4-2.9v-9.9h3.5v19h-2.7
				L182.4,104.9z"/>
			<path class="st0" d="M194.5,105.3c0-3.1,0.7-5.6,2.1-7.3c1.4-1.7,3.4-2.6,5.9-2.6c1.3,0,2.5,0.2,3.5,0.7c1,0.5,1.8,1.1,2.5,2
				c0.7,0.9,1.2,1.9,1.5,3.1c0.3,1.2,0.5,2.5,0.5,4c0,3.2-0.7,5.6-2.1,7.3c-1.4,1.7-3.4,2.6-5.9,2.6c-1.4,0-2.6-0.2-3.6-0.7
				c-1-0.5-1.8-1.1-2.5-2c-0.7-0.9-1.1-1.9-1.5-3.1C194.7,108.1,194.5,106.8,194.5,105.3z M198.4,105.3c0,1,0.1,1.8,0.2,2.6
				s0.4,1.5,0.7,2.1c0.3,0.6,0.8,1,1.3,1.4c0.5,0.3,1.1,0.5,1.9,0.5c1.3,0,2.3-0.5,3.1-1.5s1.1-2.7,1.1-5c0-0.9-0.1-1.8-0.2-2.6
				c-0.2-0.8-0.4-1.5-0.7-2.1c-0.3-0.6-0.7-1.1-1.3-1.4c-0.5-0.3-1.2-0.5-1.9-0.5c-1.3,0-2.3,0.5-3.1,1.6
				C198.7,101.4,198.4,103,198.4,105.3z"/>
			<path class="st0" d="M217.3,106.4l0.4,3.3h0.1l0.4-3.4l3.3-10.5h2.4l3.2,10.6l0.4,3.3h0.1l0.4-3.4l2.3-10.5h3.8l-5.2,19h-2.5
				l-3.4-10.5l-0.5-2.9h-0.1l-0.5,2.9l-3.3,10.5H216l-5.2-19h4L217.3,106.4z"/>
			<path class="st0" d="M247.5,114.7h-12V95.8h3.7v15.6h8.3V114.7z"/>
			<path class="st0" d="M249.1,95.8h11.2v3.3h-7.5v4.4h6.8v3.3h-6.8v4.6h7.6v3.3h-11.3V95.8z"/>
			<path class="st0" d="M262.9,95.8c0.4-0.1,0.8-0.1,1.3-0.1c0.5,0,1-0.1,1.5-0.1c0.5,0,1,0,1.5,0c0.5,0,0.9,0,1.3,0
				c1.7,0,3.1,0.2,4.3,0.7c1.2,0.5,2.2,1.1,2.9,2c0.7,0.8,1.3,1.9,1.6,3c0.3,1.2,0.5,2.5,0.5,3.9c0,1.3-0.2,2.5-0.5,3.7
				s-0.9,2.2-1.6,3.2s-1.8,1.7-3,2.2c-1.2,0.6-2.8,0.8-4.6,0.8c-0.3,0-0.7,0-1.1,0c-0.5,0-1,0-1.5-0.1c-0.5,0-1-0.1-1.5-0.1
				s-0.8-0.1-1.1-0.1V95.8z M268.7,98.9c-0.4,0-0.8,0-1.2,0c-0.4,0-0.7,0-0.9,0.1v12.7c0.1,0,0.2,0,0.4,0c0.2,0,0.4,0,0.6,0
				c0.2,0,0.4,0,0.6,0c0.2,0,0.3,0,0.4,0c1,0,1.9-0.2,2.6-0.6c0.7-0.4,1.2-0.9,1.6-1.5c0.4-0.6,0.7-1.3,0.8-2.1
				c0.2-0.8,0.2-1.6,0.2-2.5c0-0.7-0.1-1.5-0.2-2.2c-0.1-0.7-0.4-1.4-0.8-2c-0.4-0.6-0.9-1.1-1.6-1.5S269.7,98.9,268.7,98.9z"/>
			<path class="st0" d="M286.6,104.9h7v8.4c-0.8,0.6-1.7,1.1-2.7,1.4c-1.1,0.3-2.1,0.4-3.1,0.4c-1.2,0-2.3-0.2-3.4-0.6
				s-1.9-1-2.7-1.8c-0.8-0.8-1.3-1.8-1.8-3.1c-0.4-1.2-0.6-2.7-0.6-4.4c0-1.8,0.3-3.3,0.8-4.5c0.5-1.3,1.2-2.3,2-3.1
				c0.8-0.8,1.8-1.4,2.8-1.7s2.1-0.5,3.2-0.5s2,0.1,2.8,0.2c0.8,0.2,1.5,0.3,2,0.5l-0.8,3.1c-0.5-0.2-1-0.3-1.5-0.4
				c-0.6-0.1-1.3-0.1-2.1-0.1c-0.8,0-1.5,0.1-2.1,0.4c-0.6,0.2-1.2,0.6-1.7,1.1c-0.5,0.5-0.8,1.2-1.1,2c-0.3,0.8-0.4,1.8-0.4,3
				c0,1.1,0.1,2.1,0.4,2.9c0.3,0.8,0.6,1.5,1.1,2s1,0.9,1.6,1.2c0.6,0.3,1.2,0.4,1.9,0.4c0.5,0,0.9-0.1,1.4-0.2
				c0.4-0.1,0.8-0.3,1.1-0.5v-3.6l-4.1-0.4V104.9z"/>
			<path class="st0" d="M296.2,95.8h11.2v3.3h-7.5v4.4h6.8v3.3h-6.8v4.6h7.6v3.3h-11.3V95.8z"/>
			<path class="st0" d="M316.6,96c0.8-0.1,1.6-0.3,2.5-0.3s1.8-0.1,2.7-0.1c0.9,0,1.9,0.1,2.8,0.2s1.8,0.5,2.6,0.9s1.4,1.1,1.8,1.9
				c0.5,0.8,0.7,1.9,0.7,3.2c0,1.2-0.2,2.2-0.6,3c-0.4,0.8-1,1.5-1.6,2c-0.7,0.5-1.5,0.9-2.3,1.1c-0.9,0.2-1.8,0.4-2.7,0.4
				c-0.1,0-0.2,0-0.4,0s-0.4,0-0.6,0c-0.2,0-0.4,0-0.6,0c-0.2,0-0.4,0-0.4-0.1v6.5h-3.7V96z M322.1,98.7c-0.4,0-0.7,0-1,0
				c-0.3,0-0.6,0.1-0.8,0.1v6.1c0.1,0,0.2,0,0.3,0.1c0.1,0,0.3,0,0.5,0c0.2,0,0.3,0,0.5,0s0.3,0,0.3,0c0.5,0,1,0,1.4-0.1
				c0.5-0.1,0.9-0.3,1.3-0.5c0.4-0.2,0.7-0.6,0.9-1c0.2-0.4,0.3-1,0.3-1.7c0-0.6-0.1-1.1-0.3-1.5c-0.2-0.4-0.5-0.7-0.9-0.9
				c-0.4-0.2-0.8-0.4-1.2-0.5C323,98.8,322.6,98.7,322.1,98.7z"/>
			<path class="st0" d="M331.2,105.3c0-3.1,0.7-5.6,2.1-7.3c1.4-1.7,3.4-2.6,5.9-2.6c1.3,0,2.5,0.2,3.5,0.7c1,0.5,1.8,1.1,2.5,2
				c0.7,0.9,1.2,1.9,1.5,3.1c0.3,1.2,0.5,2.5,0.5,4c0,3.2-0.7,5.6-2.1,7.3c-1.4,1.7-3.4,2.6-5.9,2.6c-1.4,0-2.6-0.2-3.6-0.7
				c-1-0.5-1.8-1.1-2.5-2c-0.7-0.9-1.1-1.9-1.5-3.1C331.3,108.1,331.2,106.8,331.2,105.3z M335,105.3c0,1,0.1,1.8,0.2,2.6
				s0.4,1.5,0.7,2.1c0.3,0.6,0.8,1,1.3,1.4c0.5,0.3,1.1,0.5,1.9,0.5c1.3,0,2.3-0.5,3.1-1.5s1.1-2.7,1.1-5c0-0.9-0.1-1.8-0.2-2.6
				c-0.2-0.8-0.4-1.5-0.7-2.1c-0.3-0.6-0.7-1.1-1.3-1.4c-0.5-0.3-1.2-0.5-1.9-0.5c-1.3,0-2.3,0.5-3.1,1.6
				C335.4,101.4,335,103,335,105.3z"/>
			<path class="st0" d="M349.5,96c0.4-0.1,0.9-0.1,1.3-0.2c0.5-0.1,1-0.1,1.4-0.1c0.5,0,0.9-0.1,1.4-0.1c0.4,0,0.9,0,1.2,0
				c0.9,0,1.8,0.1,2.6,0.2c0.9,0.2,1.6,0.4,2.3,0.8c0.7,0.4,1.2,0.9,1.6,1.6c0.4,0.7,0.6,1.6,0.6,2.6c0,1.5-0.4,2.8-1.1,3.8
				c-0.7,1-1.7,1.6-2.9,2l1.3,0.8l4.3,7.2h-4.3l-4.3-7.4l-1.9-0.4v7.7h-3.7V96z M355.2,98.9c-0.4,0-0.8,0-1.1,0
				c-0.4,0-0.7,0.1-0.9,0.1v5.5h1.6c1,0,1.8-0.2,2.5-0.7c0.6-0.5,0.9-1.2,0.9-2.3c0-0.8-0.3-1.4-0.8-1.9S356.2,98.9,355.2,98.9z"/>
			<path class="st0" d="M378.6,99.1h-5.5v15.6h-3.7V99.1h-5.5v-3.3h14.7V99.1z"/>
			<path class="st0" d="M387.5,110.5h-5.8l-1.4,4.2h-3.7l6.8-19h2.7l6.8,19h-3.9L387.5,110.5z M382.7,107.6h4l-1.4-4.2l-0.6-3h-0.1
				l-0.6,3L382.7,107.6z"/>
			<path class="st0" d="M406.4,114.7h-12V95.8h3.7v15.6h8.3V114.7z"/>
		</g>
	</g>
</g>
<g>
	<g>
		<g>
			<circle class="st1" cx="90" cy="24.9" r="0.3"/>
			<circle class="st1" cx="97.4" cy="24.9" r="0.3"/>
			<circle class="st1" cx="104.7" cy="24.9" r="0.3"/>
			<circle class="st1" cx="75.2" cy="32.3" r="0.3"/>
			<circle class="st1" cx="82.6" cy="32.3" r="0.3"/>
			<circle class="st1" cx="90" cy="32.3" r="0.9"/>
			<circle class="st1" cx="97.4" cy="32.3" r="1.3"/>
			<circle class="st1" cx="104.7" cy="32.3" r="1.3"/>
			<circle class="st1" cx="112.1" cy="32.3" r="0.3"/>
			<circle class="st1" cx="119.5" cy="32.3" r="0.3"/>
			<circle class="st1" cx="75.2" cy="39.7" r="1.4"/>
			<circle class="st1" cx="82.6" cy="39.7" r="1.4"/>
			<circle class="st1" cx="90" cy="39.7" r="2.7"/>
			<circle class="st1" cx="97.4" cy="39.7" r="3.1"/>
			<circle class="st1" cx="104.7" cy="39.7" r="3.1"/>
			<circle class="st1" cx="112.1" cy="39.7" r="2.2"/>
			<circle class="st1" cx="119.5" cy="39.7" r="0.9"/>
			<circle class="st1" cx="126.9" cy="39.7" r="0.3"/>
			<circle class="st1" cx="75.2" cy="47.1" r="2.4"/>
			<circle class="st1" cx="82.6" cy="47.1" r="3.1"/>
			<circle class="st1" cx="90" cy="47.1" r="3.1"/>
			<circle class="st1" cx="97.4" cy="47.1" r="3.1"/>
			<circle class="st1" cx="104.7" cy="47.1" r="3.3"/>
			<circle class="st1" cx="112.1" cy="47.1" r="3.1"/>
			<circle class="st1" cx="119.5" cy="47.1" r="2.7"/>
			<circle class="st1" cx="126.9" cy="47.1" r="0.9"/>
			<circle class="st1" cx="134.3" cy="47.1" r="0.3"/>
			<circle class="st1" cx="75.2" cy="54.4" r="3.1"/>
			<circle class="st1" cx="82.6" cy="54.4" r="3.5"/>
			<circle class="st1" cx="90" cy="54.4" r="3.3"/>
			<circle class="st1" cx="97.4" cy="54.4" r="3.1"/>
			<circle class="st1" cx="104.7" cy="54.4" r="3.1"/>
			<circle class="st1" cx="112.1" cy="54.4" r="3.3"/>
			<circle class="st1" cx="119.5" cy="54.4" r="3.1"/>
			<circle class="st1" cx="126.9" cy="54.4" r="2.3"/>
			<circle class="st1" cx="134.3" cy="54.4" r="0.9"/>
			<circle class="st1" cx="75.2" cy="61.8" r="4.5"/>
			<circle class="st1" cx="82.6" cy="61.8" r="4.6"/>
			<circle class="st1" cx="90" cy="61.8" r="4.2"/>
			<circle class="st1" cx="97.4" cy="61.8" r="4.2"/>
			<circle class="st1" cx="104.7" cy="61.8" r="3.7"/>
			<circle class="st1" cx="112.1" cy="61.8" r="3.3"/>
			<circle class="st1" cx="119.5" cy="61.8" r="3.1"/>
			<circle class="st1" cx="126.9" cy="61.8" r="3.1"/>
			<circle class="st1" cx="134.3" cy="61.8" r="0.9"/>
			<circle class="st1" cx="141.6" cy="61.8" r="0.3"/>
			<circle class="st1" cx="75.2" cy="69.2" r="4.6"/>
			<circle class="st1" cx="82.6" cy="69.2" r="4.1"/>
			<circle class="st1" cx="90" cy="69.2" r="4.2"/>
			<circle class="st1" cx="97.4" cy="69.2" r="3.9"/>
			<circle class="st1" cx="104.7" cy="69.2" r="3.6"/>
			<circle class="st1" cx="112.1" cy="69.2" r="3.3"/>
			<circle class="st1" cx="119.5" cy="69.2" r="3.1"/>
			<circle class="st1" cx="126.9" cy="69.2" r="3.1"/>
			<circle class="st1" cx="134.3" cy="69.2" r="1.3"/>
			<circle class="st1" cx="141.6" cy="69.2" r="0.3"/>
			<circle class="st1" cx="75.2" cy="76.6" r="4.1"/>
			<circle class="st1" cx="82.6" cy="76.6" r="4.2"/>
			<circle class="st1" cx="90" cy="76.6" r="4.1"/>
			<circle class="st1" cx="97.4" cy="76.6" r="3.9"/>
			<circle class="st1" cx="104.7" cy="76.6" r="3.5"/>
			<circle class="st1" cx="112.1" cy="76.6" r="3.3"/>
			<circle class="st1" cx="119.5" cy="76.6" r="3.1"/>
			<circle class="st1" cx="126.9" cy="76.6" r="2.4"/>
			<circle class="st1" cx="134.3" cy="76.6" r="0.9"/>
			<circle class="st1" cx="75.2" cy="84" r="4.6"/>
			<circle class="st1" cx="82.6" cy="84" r="4.4"/>
			<circle class="st1" cx="90" cy="84" r="4.1"/>
			<circle class="st1" cx="97.4" cy="84" r="3.9"/>
			<circle class="st1" cx="104.7" cy="84" r="3.5"/>
			<circle class="st1" cx="112.1" cy="84" r="3.2"/>
			<circle class="st1" cx="119.5" cy="84" r="3.1"/>
			<circle class="st1" cx="126.9" cy="84" r="1.3"/>
			<circle class="st1" cx="134.3" cy="84" r="0.3"/>
			<circle class="st1" cx="75.2" cy="91.3" r="4.1"/>
			<circle class="st1" cx="82.6" cy="91.3" r="4.2"/>
			<circle class="st1" cx="90" cy="91.3" r="4.1"/>
			<circle class="st1" cx="97.4" cy="91.3" r="3.5"/>
			<circle class="st0" cx="97.4" cy="91.3" r="2.4"/>
			<circle class="st1" cx="104.7" cy="91.3" r="3.3"/>
			<circle class="st0" cx="104.7" cy="91.3" r="2.6"/>
			<circle class="st1" cx="112.1" cy="91.3" r="3.1"/>
			<circle class="st1" cx="119.5" cy="91.3" r="2.4"/>
			<circle class="st1" cx="126.9" cy="91.3" r="0.3"/>
			<circle class="st1" cx="134.3" cy="91.3" r="0.3"/>
			<circle class="st1" cx="75.2" cy="98.7" r="3.9"/>
			<circle class="st1" cx="82.6" cy="98.7" r="4.1"/>
			<circle class="st1" cx="90" cy="98.7" r="3.9"/>
			<circle class="st0" cx="90" cy="98.7" r="2.6"/>
			<circle class="st1" cx="97.4" cy="98.7" r="3.1"/>
			<circle class="st0" cx="97.4" cy="98.7" r="2.6"/>
			<circle class="st1" cx="104.7" cy="98.7" r="3.1"/>
			<circle class="st0" cx="104.7" cy="98.7" r="3.1"/>
			<circle class="st1" cx="112.1" cy="98.7" r="3.1"/>
			<circle class="st0" cx="112.1" cy="98.7" r="2.4"/>
			<circle class="st1" cx="119.5" cy="98.7" r="0.6"/>
			<circle class="st1" cx="126.9" cy="98.7" r="0.3"/>
			<circle class="st1" cx="75.2" cy="106.1" r="3.3"/>
			<circle class="st1" cx="82.6" cy="106.1" r="3.9"/>
			<circle class="st1" cx="90" cy="106.1" r="3.5"/>
			<circle class="st1" cx="97.4" cy="106.1" r="3.1"/>
			<circle class="st0" cx="97.4" cy="106.1" r="2.3"/>
			<circle class="st1" cx="104.7" cy="106.1" r="2.4"/>
			<circle class="st0" cx="104.7" cy="106.1" r="2.1"/>
			<circle class="st1" cx="112.1" cy="106.1" r="0.6"/>
			<circle class="st1" cx="119.5" cy="106.1" r="0.3"/>
			<circle class="st1" cx="75.2" cy="113.5" r="3.1"/>
			<circle class="st1" cx="82.6" cy="113.5" r="3.5"/>
			<circle class="st1" cx="90" cy="113.5" r="3.1"/>
			<circle class="st1" cx="97.4" cy="113.5" r="1.8"/>
			<circle class="st1" cx="104.7" cy="113.5" r="0.6"/>
			<circle class="st1" cx="112.1" cy="113.5" r="0.3"/>
			<circle class="st1" cx="75.2" cy="120.9" r="3.1"/>
			<circle class="st1" cx="82.6" cy="120.9" r="2.4"/>
			<circle class="st1" cx="90" cy="120.9" r="0.6"/>
			<circle class="st1" cx="97.4" cy="120.9" r="0.3"/>
			<circle class="st1" cx="75.2" cy="128.2" r="0.3"/>
			<circle class="st1" cx="82.6" cy="128.2" r="0.3"/>
		</g>
		<g>
			<circle class="st1" cx="60.5" cy="24.9" r="0.3"/>
			<circle class="st1" cx="53.1" cy="24.9" r="0.3"/>
			<circle class="st1" cx="45.7" cy="24.9" r="0.3"/>
			<circle class="st1" cx="67.9" cy="32.3" r="0.3"/>
			<circle class="st1" cx="60.5" cy="32.3" r="0.9"/>
			<circle class="st1" cx="53.1" cy="32.3" r="1.3"/>
			<circle class="st1" cx="45.7" cy="32.3" r="1.3"/>
			<circle class="st1" cx="38.3" cy="32.3" r="0.3"/>
			<circle class="st1" cx="31" cy="32.3" r="0.3"/>
			<circle class="st1" cx="67.9" cy="39.7" r="1.4"/>
			<circle class="st1" cx="60.5" cy="39.7" r="2.7"/>
			<circle class="st1" cx="53.1" cy="39.7" r="3.1"/>
			<circle class="st1" cx="45.7" cy="39.7" r="3.1"/>
			<circle class="st1" cx="38.3" cy="39.7" r="2.2"/>
			<circle class="st1" cx="31" cy="39.7" r="0.9"/>
			<circle class="st1" cx="23.6" cy="39.7" r="0.3"/>
			<circle class="st1" cx="67.9" cy="47.1" r="3.1"/>
			<circle class="st1" cx="60.5" cy="47.1" r="3.1"/>
			<circle class="st1" cx="53.1" cy="47.1" r="3.1"/>
			<circle class="st1" cx="45.7" cy="47.1" r="3.3"/>
			<circle class="st1" cx="38.3" cy="47.1" r="3.1"/>
			<circle class="st1" cx="31" cy="47.1" r="2.7"/>
			<circle class="st1" cx="23.6" cy="47.1" r="0.9"/>
			<circle class="st1" cx="16.2" cy="47.1" r="0.3"/>
			<circle class="st1" cx="67.9" cy="54.4" r="3.5"/>
			<circle class="st1" cx="60.5" cy="54.4" r="3.3"/>
			<circle class="st1" cx="53.1" cy="54.4" r="3.1"/>
			<circle class="st1" cx="45.7" cy="54.4" r="3.1"/>
			<circle class="st1" cx="38.3" cy="54.4" r="3.3"/>
			<circle class="st1" cx="31" cy="54.4" r="3.1"/>
			<circle class="st1" cx="23.6" cy="54.4" r="2.3"/>
			<circle class="st1" cx="16.2" cy="54.4" r="0.9"/>
			<circle class="st1" cx="67.9" cy="61.8" r="4.6"/>
			<circle class="st1" cx="60.5" cy="61.8" r="4.2"/>
			<circle class="st1" cx="53.1" cy="61.8" r="4.2"/>
			<circle class="st1" cx="45.7" cy="61.8" r="3.7"/>
			<circle class="st1" cx="38.3" cy="61.8" r="3.3"/>
			<circle class="st1" cx="31" cy="61.8" r="3.1"/>
			<circle class="st1" cx="23.6" cy="61.8" r="3.1"/>
			<circle class="st1" cx="16.2" cy="61.8" r="0.9"/>
			<circle class="st1" cx="8.8" cy="61.8" r="0.3"/>
			<circle class="st1" cx="67.9" cy="69.2" r="4.1"/>
			<circle class="st1" cx="60.5" cy="69.2" r="4.2"/>
			<circle class="st1" cx="53.1" cy="69.2" r="3.9"/>
			<circle class="st1" cx="45.7" cy="69.2" r="3.6"/>
			<circle class="st1" cx="38.3" cy="69.2" r="3.3"/>
			<circle class="st1" cx="31" cy="69.2" r="3.1"/>
			<circle class="st1" cx="23.6" cy="69.2" r="3.1"/>
			<circle class="st1" cx="16.2" cy="69.2" r="1.3"/>
			<circle class="st1" cx="8.8" cy="69.2" r="0.3"/>
			<circle class="st1" cx="67.9" cy="76.6" r="4.2"/>
			<circle class="st1" cx="60.5" cy="76.6" r="4.1"/>
			<circle class="st1" cx="53.1" cy="76.6" r="3.9"/>
			<circle class="st1" cx="45.7" cy="76.6" r="3.5"/>
			<circle class="st1" cx="38.3" cy="76.6" r="3.3"/>
			<circle class="st1" cx="31" cy="76.6" r="3.1"/>
			<circle class="st1" cx="23.6" cy="76.6" r="2.4"/>
			<circle class="st1" cx="16.2" cy="76.6" r="0.9"/>
			<circle class="st1" cx="67.9" cy="84" r="4.4"/>
			<circle class="st1" cx="60.5" cy="84" r="4.1"/>
			<circle class="st1" cx="53.1" cy="84" r="3.9"/>
			<circle class="st1" cx="45.7" cy="84" r="3.5"/>
			<circle class="st1" cx="38.3" cy="84" r="3.2"/>
			<circle class="st1" cx="31" cy="84" r="3.1"/>
			<circle class="st1" cx="23.6" cy="84" r="1.3"/>
			<circle class="st1" cx="16.2" cy="84" r="0.3"/>
			<circle class="st1" cx="67.9" cy="91.3" r="4.2"/>
			<circle class="st1" cx="60.5" cy="91.3" r="4.1"/>
			<circle class="st1" cx="53.1" cy="91.3" r="3.5"/>
			<circle class="st1" cx="45.7" cy="91.3" r="3.3"/>
			<circle class="st1" cx="38.3" cy="91.3" r="3.1"/>
			<circle class="st1" cx="31" cy="91.3" r="2.4"/>
			<circle class="st1" cx="23.6" cy="91.3" r="0.3"/>
			<circle class="st1" cx="16.2" cy="91.3" r="0.3"/>
			<circle class="st1" cx="67.9" cy="98.7" r="4.1"/>
			<circle class="st1" cx="60.5" cy="98.7" r="3.9"/>
			<circle class="st1" cx="53.1" cy="98.7" r="3.1"/>
			<circle class="st1" cx="45.7" cy="98.7" r="3.1"/>
			<circle class="st1" cx="38.3" cy="98.7" r="3.1"/>
			<circle class="st1" cx="31" cy="98.7" r="0.6"/>
			<circle class="st1" cx="23.6" cy="98.7" r="0.3"/>
			<circle class="st1" cx="67.9" cy="106.1" r="3.9"/>
			<circle class="st1" cx="60.5" cy="106.1" r="3.5"/>
			<circle class="st1" cx="53.1" cy="106.1" r="3.1"/>
			<circle class="st1" cx="45.7" cy="106.1" r="2.4"/>
			<circle class="st1" cx="38.3" cy="106.1" r="0.6"/>
			<circle class="st1" cx="31" cy="106.1" r="0.3"/>
			<circle class="st1" cx="67.9" cy="113.5" r="3.5"/>
			<circle class="st1" cx="60.5" cy="113.5" r="3.1"/>
			<circle class="st1" cx="53.1" cy="113.5" r="1.8"/>
			<circle class="st1" cx="45.7" cy="113.5" r="0.6"/>
			<circle class="st1" cx="38.3" cy="113.5" r="0.3"/>
			<circle class="st1" cx="67.9" cy="120.9" r="2.4"/>
			<circle class="st1" cx="60.5" cy="120.9" r="0.6"/>
			<circle class="st1" cx="53.1" cy="120.9" r="0.3"/>
			<circle class="st1" cx="67.9" cy="128.2" r="0.3"/>
		</g>
	</g>
</g>
<circle class="st2" cx="75.2" cy="74.4" r="67.4"/>
</svg>
