<?xml version="1.0" encoding="utf-8"?>
<!-- Generator: Adobe Illustrator 23.0.4, SVG Export Plug-In . SVG Version: 6.00 Build 0)  -->
<svg version="1.1" id="Layer_1" xmlns="http://www.w3.org/2000/svg" xmlns:xlink="http://www.w3.org/1999/xlink" x="0px" y="0px"
	 viewBox="0 0 119 46.8" style="enable-background:new 0 0 119 46.8;" xml:space="preserve">
<style type="text/css">
	.st0{fill:#FFFFFF;}
	.st1{fill:#E92629;}
	.st2{fill:none;stroke:#FFFFFF;stroke-width:1.1807;stroke-linejoin:round;stroke-miterlimit:10;}
</style>
<g>
	<g>
		<path class="st0" d="M110.1,19.5c-0.2-0.2-0.5-0.3-0.8-0.3c-0.3-0.1-0.6-0.1-0.9-0.1c-0.2,0-0.5,0-0.7,0c-0.2,0-0.4,0-0.5,0.1v4.1
			c0,0,0.1,0,0.2,0c0.1,0,0.2,0,0.3,0c0.1,0,0.2,0,0.3,0s0.2,0,0.2,0c0.3,0,0.6,0,1-0.1c0.3-0.1,0.6-0.2,0.9-0.3
			c0.3-0.2,0.5-0.4,0.6-0.7c0.2-0.3,0.2-0.7,0.2-1.1c0-0.4-0.1-0.7-0.2-1C110.6,19.8,110.4,19.6,110.1,19.5z"/>
		<path class="st0" d="M108.8,15.5C108.8,15.5,108.8,15.5,108.8,15.5L108.8,15.5H92.2v3.8v11.8l0,0h16.6v0c0,0,0,0,0,0
			c4.3,0,7.8-3.5,7.8-7.8S113.1,15.5,108.8,15.5z M101.2,29.7l-3.7-5.4h-0.6v5.4h-2.5V17.1h2.5v5.6l0.6-0.3l3.5-5.3h2.8l-3.7,5.3
			l-1,0.7l1,0.7l4.2,5.9H101.2z M113.1,23.1c-0.3,0.5-0.6,1-1.1,1.3c-0.5,0.3-1,0.6-1.6,0.8c-0.6,0.2-1.2,0.2-1.8,0.2
			c-0.1,0-0.2,0-0.3,0c-0.1,0-0.3,0-0.4,0c-0.1,0-0.3,0-0.4,0c-0.1,0-0.2,0-0.3,0v4.3h-2.5V17.2c0.5-0.1,1.1-0.2,1.7-0.2
			c0.6-0.1,1.2-0.1,1.8-0.1c0.6,0,1.3,0.1,1.9,0.2c0.6,0.1,1.2,0.3,1.7,0.6c0.5,0.3,0.9,0.7,1.2,1.3c0.3,0.5,0.5,1.3,0.5,2.1
			C113.5,21.9,113.4,22.6,113.1,23.1z"/>
	</g>
	<g>
		<path class="st0" d="M63.5,30.5c-0.4,0.3-1,0.6-1.7,0.7c-0.7,0.1-1.4,0.2-2.2,0.2c-0.9,0-1.8-0.2-2.7-0.5
			c-0.8-0.3-1.5-0.8-2.2-1.5c-0.6-0.7-1.1-1.5-1.5-2.5c-0.4-1-0.5-2.2-0.5-3.7c0-1.5,0.2-2.7,0.6-3.7s0.9-1.9,1.6-2.5
			c0.7-0.7,1.4-1.1,2.2-1.4s1.6-0.5,2.5-0.5c0.9,0,1.6,0,2.2,0.1s1.1,0.2,1.5,0.4l-0.5,1.7c-0.7-0.4-1.7-0.5-3.1-0.5
			c-0.6,0-1.2,0.1-1.8,0.3c-0.6,0.2-1.1,0.6-1.6,1.1c-0.5,0.5-0.9,1.2-1.1,2c-0.3,0.8-0.4,1.8-0.4,3c0,1.1,0.1,2,0.4,2.8
			c0.3,0.8,0.6,1.5,1.1,2s1,0.9,1.7,1.2s1.3,0.4,2.1,0.4c0.7,0,1.3-0.1,1.8-0.2c0.5-0.1,0.9-0.3,1.3-0.5L63.5,30.5z"/>
		<path class="st0" d="M70.3,26.3l0.5,2.4h0l0.6-2.4l3.8-10.8h1.9l-6,16h-0.8l-6.1-16h2L70.3,26.3z"/>
		<path class="st0" d="M78.5,15.4c0.3,0,0.6-0.1,1-0.1c0.4,0,0.7,0,1.1,0c0.4,0,0.8,0,1.1,0c0.4,0,0.7,0,1,0c1.3,0,2.4,0.2,3.3,0.6
			c0.9,0.4,1.7,0.9,2.3,1.6c0.6,0.7,1,1.5,1.3,2.5c0.3,1,0.4,2,0.4,3.2c0,1.1-0.1,2.1-0.4,3.1c-0.3,1-0.7,1.9-1.3,2.6
			c-0.6,0.8-1.4,1.4-2.3,1.8c-1,0.5-2.1,0.7-3.5,0.7c-0.2,0-0.6,0-0.9,0c-0.4,0-0.8,0-1.2,0c-0.4,0-0.8,0-1.1-0.1
			c-0.3,0-0.6,0-0.7-0.1V15.4z M82.7,16.9c-0.2,0-0.4,0-0.6,0s-0.5,0-0.7,0c-0.2,0-0.4,0-0.6,0c-0.2,0-0.3,0-0.4,0v12.6
			c0.1,0,0.2,0,0.4,0c0.2,0,0.4,0,0.7,0c0.2,0,0.4,0,0.7,0c0.2,0,0.4,0,0.4,0c1,0,1.9-0.2,2.6-0.5c0.7-0.4,1.3-0.8,1.7-1.5
			s0.7-1.3,0.9-2.1S88,24,88,23.2c0-0.7-0.1-1.5-0.2-2.2c-0.2-0.7-0.5-1.4-0.9-2c-0.4-0.6-0.9-1.1-1.6-1.5
			C84.6,17.1,83.8,16.9,82.7,16.9z"/>
	</g>
	<g>
		<g>
			<g>
				<g>
					<circle class="st1" cx="27.3" cy="8.7" r="0.1"/>
					<circle class="st1" cx="29.5" cy="8.7" r="0.1"/>
					<circle class="st1" cx="31.7" cy="8.7" r="0.1"/>
					<circle class="st1" cx="23" cy="10.9" r="0.1"/>
					<circle class="st1" cx="25.2" cy="10.9" r="0.1"/>
					<circle class="st1" cx="27.3" cy="10.9" r="0.3"/>
					<circle class="st1" cx="29.5" cy="10.9" r="0.4"/>
					<circle class="st1" cx="31.7" cy="10.9" r="0.4"/>
					<circle class="st1" cx="33.9" cy="10.9" r="0.1"/>
					<circle class="st1" cx="36" cy="10.9" r="0.1"/>
					<circle class="st1" cx="23" cy="13.1" r="0.4"/>
					<circle class="st1" cx="25.2" cy="13.1" r="0.4"/>
					<circle class="st1" cx="27.3" cy="13.1" r="0.8"/>
					<circle class="st1" cx="29.5" cy="13.1" r="0.9"/>
					<circle class="st1" cx="31.7" cy="13.1" r="0.9"/>
					<circle class="st1" cx="33.9" cy="13.1" r="0.6"/>
					<circle class="st1" cx="36" cy="13.1" r="0.3"/>
					<circle class="st1" cx="38.2" cy="13.1" r="0.1"/>
					<circle class="st1" cx="23" cy="15.2" r="0.7"/>
					<circle class="st1" cx="25.2" cy="15.2" r="0.9"/>
					<circle class="st1" cx="27.3" cy="15.2" r="0.9"/>
					<circle class="st1" cx="29.5" cy="15.2" r="0.9"/>
					<circle class="st1" cx="31.7" cy="15.2" r="1"/>
					<circle class="st1" cx="33.9" cy="15.2" r="0.9"/>
					<circle class="st1" cx="36" cy="15.2" r="0.8"/>
					<circle class="st1" cx="38.2" cy="15.2" r="0.3"/>
					<circle class="st1" cx="40.4" cy="15.2" r="0.1"/>
					<circle class="st1" cx="23" cy="17.4" r="0.9"/>
					<circle class="st1" cx="25.2" cy="17.4" r="1"/>
					<circle class="st1" cx="27.3" cy="17.4" r="1"/>
					<circle class="st1" cx="29.5" cy="17.4" r="0.9"/>
					<circle class="st1" cx="31.7" cy="17.4" r="0.9"/>
					<circle class="st1" cx="33.9" cy="17.4" r="1"/>
					<circle class="st1" cx="36" cy="17.4" r="0.9"/>
					<circle class="st1" cx="38.2" cy="17.4" r="0.7"/>
					<circle class="st1" cx="40.4" cy="17.4" r="0.3"/>
					<circle class="st1" cx="23" cy="19.6" r="1.3"/>
					<circle class="st1" cx="25.2" cy="19.6" r="1.4"/>
					<circle class="st1" cx="27.3" cy="19.6" r="1.3"/>
					<circle class="st1" cx="29.5" cy="19.6" r="1.3"/>
					<circle class="st1" cx="31.7" cy="19.6" r="1.1"/>
					<circle class="st1" cx="33.9" cy="19.6" r="1"/>
					<circle class="st1" cx="36" cy="19.6" r="0.9"/>
					<circle class="st1" cx="38.2" cy="19.6" r="0.9"/>
					<circle class="st1" cx="40.4" cy="19.6" r="0.3"/>
					<circle class="st1" cx="42.6" cy="19.6" r="0.1"/>
					<circle class="st1" cx="23" cy="21.8" r="1.4"/>
					<circle class="st1" cx="25.2" cy="21.8" r="1.2"/>
					<circle class="st1" cx="27.3" cy="21.8" r="1.3"/>
					<circle class="st1" cx="29.5" cy="21.8" r="1.1"/>
					<circle class="st1" cx="31.7" cy="21.8" r="1.1"/>
					<circle class="st1" cx="33.9" cy="21.8" r="1"/>
					<circle class="st1" cx="36" cy="21.8" r="0.9"/>
					<circle class="st1" cx="38.2" cy="21.8" r="0.9"/>
					<circle class="st1" cx="40.4" cy="21.8" r="0.4"/>
					<circle class="st1" cx="42.6" cy="21.8" r="0.1"/>
					<circle class="st1" cx="23" cy="23.9" r="1.2"/>
					<circle class="st1" cx="25.2" cy="23.9" r="1.3"/>
					<circle class="st1" cx="27.3" cy="23.9" r="1.2"/>
					<circle class="st1" cx="29.5" cy="23.9" r="1.1"/>
					<circle class="st1" cx="31.7" cy="23.9" r="1"/>
					<circle class="st1" cx="33.9" cy="23.9" r="1"/>
					<circle class="st1" cx="36" cy="23.9" r="0.9"/>
					<circle class="st1" cx="38.2" cy="23.9" r="0.7"/>
					<circle class="st1" cx="40.4" cy="23.9" r="0.3"/>
					<circle class="st1" cx="23" cy="26.1" r="1.4"/>
					<circle class="st1" cx="25.2" cy="26.1" r="1.3"/>
					<circle class="st1" cx="27.3" cy="26.1" r="1.2"/>
					<circle class="st1" cx="29.5" cy="26.1" r="1.1"/>
					<circle class="st1" cx="31.7" cy="26.1" r="1"/>
					<circle class="st1" cx="33.9" cy="26.1" r="1"/>
					<circle class="st1" cx="36" cy="26.1" r="0.9"/>
					<circle class="st1" cx="38.2" cy="26.1" r="0.4"/>
					<circle class="st1" cx="40.4" cy="26.1" r="0.1"/>
					<circle class="st1" cx="23" cy="28.3" r="1.2"/>
					<circle class="st1" cx="25.2" cy="28.3" r="1.3"/>
					<circle class="st1" cx="27.3" cy="28.3" r="1.2"/>
					<circle class="st1" cx="29.5" cy="28.3" r="1"/>
					<circle class="st0" cx="29.5" cy="28.3" r="0.7"/>
					<circle class="st1" cx="31.7" cy="28.3" r="1"/>
					<circle class="st0" cx="31.7" cy="28.3" r="0.8"/>
					<circle class="st1" cx="33.9" cy="28.3" r="0.9"/>
					<circle class="st1" cx="36" cy="28.3" r="0.7"/>
					<circle class="st1" cx="38.2" cy="28.3" r="0.1"/>
					<circle class="st1" cx="40.4" cy="28.3" r="0.1"/>
					<circle class="st1" cx="23" cy="30.5" r="1.1"/>
					<circle class="st1" cx="25.2" cy="30.5" r="1.2"/>
					<circle class="st1" cx="27.3" cy="30.5" r="1.1"/>
					<circle class="st0" cx="27.3" cy="30.5" r="0.8"/>
					<circle class="st1" cx="29.5" cy="30.5" r="0.9"/>
					<circle class="st0" cx="29.5" cy="30.5" r="0.8"/>
					<circle class="st1" cx="31.7" cy="30.5" r="0.9"/>
					<circle class="st0" cx="31.7" cy="30.5" r="0.9"/>
					<circle class="st1" cx="33.9" cy="30.5" r="0.9"/>
					<circle class="st0" cx="33.9" cy="30.5" r="0.7"/>
					<circle class="st1" cx="36" cy="30.5" r="0.2"/>
					<circle class="st1" cx="38.2" cy="30.5" r="0.1"/>
					<circle class="st1" cx="23" cy="32.6" r="1"/>
					<circle class="st1" cx="25.2" cy="32.6" r="1.1"/>
					<circle class="st1" cx="27.3" cy="32.6" r="1"/>
					<circle class="st1" cx="29.5" cy="32.6" r="0.9"/>
					<circle class="st0" cx="29.5" cy="32.6" r="0.7"/>
					<circle class="st1" cx="31.7" cy="32.6" r="0.7"/>
					<circle class="st0" cx="31.7" cy="32.6" r="0.6"/>
					<circle class="st1" cx="33.9" cy="32.6" r="0.2"/>
					<circle class="st1" cx="36" cy="32.6" r="0.1"/>
					<circle class="st1" cx="23" cy="34.8" r="0.9"/>
					<circle class="st1" cx="25.2" cy="34.8" r="1"/>
					<circle class="st1" cx="27.3" cy="34.8" r="0.9"/>
					<circle class="st1" cx="29.5" cy="34.8" r="0.5"/>
					<circle class="st1" cx="31.7" cy="34.8" r="0.2"/>
					<circle class="st1" cx="33.9" cy="34.8" r="0.1"/>
					<circle class="st1" cx="23" cy="37" r="0.9"/>
					<circle class="st1" cx="25.2" cy="37" r="0.7"/>
					<circle class="st1" cx="27.3" cy="37" r="0.2"/>
					<circle class="st1" cx="29.5" cy="37" r="0.1"/>
					<circle class="st1" cx="23" cy="39.2" r="0.1"/>
					<circle class="st1" cx="25.2" cy="39.2" r="0.1"/>
				</g>
				<g>
					<circle class="st1" cx="18.6" cy="8.7" r="0.1"/>
					<circle class="st1" cx="16.4" cy="8.7" r="0.1"/>
					<circle class="st1" cx="14.3" cy="8.7" r="0.1"/>
					<circle class="st1" cx="20.8" cy="10.9" r="0.1"/>
					<circle class="st1" cx="18.6" cy="10.9" r="0.3"/>
					<circle class="st1" cx="16.4" cy="10.9" r="0.4"/>
					<circle class="st1" cx="14.3" cy="10.9" r="0.4"/>
					<circle class="st1" cx="12.1" cy="10.9" r="0.1"/>
					<circle class="st1" cx="9.9" cy="10.9" r="0.1"/>
					<circle class="st1" cx="20.8" cy="13.1" r="0.4"/>
					<circle class="st1" cx="18.6" cy="13.1" r="0.8"/>
					<circle class="st1" cx="16.4" cy="13.1" r="0.9"/>
					<circle class="st1" cx="14.3" cy="13.1" r="0.9"/>
					<circle class="st1" cx="12.1" cy="13.1" r="0.6"/>
					<circle class="st1" cx="9.9" cy="13.1" r="0.3"/>
					<circle class="st1" cx="7.7" cy="13.1" r="0.1"/>
					<circle class="st1" cx="20.8" cy="15.2" r="0.9"/>
					<circle class="st1" cx="18.6" cy="15.2" r="0.9"/>
					<circle class="st1" cx="16.4" cy="15.2" r="0.9"/>
					<circle class="st1" cx="14.3" cy="15.2" r="1"/>
					<circle class="st1" cx="12.1" cy="15.2" r="0.9"/>
					<circle class="st1" cx="9.9" cy="15.2" r="0.8"/>
					<circle class="st1" cx="7.7" cy="15.2" r="0.3"/>
					<circle class="st1" cx="5.6" cy="15.2" r="0.1"/>
					<circle class="st1" cx="20.8" cy="17.4" r="1"/>
					<circle class="st1" cx="18.6" cy="17.4" r="1"/>
					<circle class="st1" cx="16.4" cy="17.4" r="0.9"/>
					<circle class="st1" cx="14.3" cy="17.4" r="0.9"/>
					<circle class="st1" cx="12.1" cy="17.4" r="1"/>
					<circle class="st1" cx="9.9" cy="17.4" r="0.9"/>
					<circle class="st1" cx="7.7" cy="17.4" r="0.7"/>
					<circle class="st1" cx="5.6" cy="17.4" r="0.3"/>
					<circle class="st1" cx="20.8" cy="19.6" r="1.4"/>
					<circle class="st1" cx="18.6" cy="19.6" r="1.3"/>
					<circle class="st1" cx="16.4" cy="19.6" r="1.3"/>
					<circle class="st1" cx="14.3" cy="19.6" r="1.1"/>
					<circle class="st1" cx="12.1" cy="19.6" r="1"/>
					<circle class="st1" cx="9.9" cy="19.6" r="0.9"/>
					<circle class="st1" cx="7.7" cy="19.6" r="0.9"/>
					<circle class="st1" cx="5.6" cy="19.6" r="0.3"/>
					<circle class="st1" cx="3.4" cy="19.6" r="0.1"/>
					<circle class="st1" cx="20.8" cy="21.8" r="1.2"/>
					<circle class="st1" cx="18.6" cy="21.8" r="1.3"/>
					<circle class="st1" cx="16.4" cy="21.8" r="1.1"/>
					<circle class="st1" cx="14.3" cy="21.8" r="1.1"/>
					<circle class="st1" cx="12.1" cy="21.8" r="1"/>
					<circle class="st1" cx="9.9" cy="21.8" r="0.9"/>
					<circle class="st1" cx="7.7" cy="21.8" r="0.9"/>
					<circle class="st1" cx="5.6" cy="21.8" r="0.4"/>
					<circle class="st1" cx="3.4" cy="21.8" r="0.1"/>
					<circle class="st1" cx="20.8" cy="23.9" r="1.3"/>
					<circle class="st1" cx="18.6" cy="23.9" r="1.2"/>
					<circle class="st1" cx="16.4" cy="23.9" r="1.1"/>
					<circle class="st1" cx="14.3" cy="23.9" r="1"/>
					<circle class="st1" cx="12.1" cy="23.9" r="1"/>
					<circle class="st1" cx="9.9" cy="23.9" r="0.9"/>
					<circle class="st1" cx="7.7" cy="23.9" r="0.7"/>
					<circle class="st1" cx="5.6" cy="23.9" r="0.3"/>
					<circle class="st1" cx="20.8" cy="26.1" r="1.3"/>
					<circle class="st1" cx="18.6" cy="26.1" r="1.2"/>
					<circle class="st1" cx="16.4" cy="26.1" r="1.1"/>
					<circle class="st1" cx="14.3" cy="26.1" r="1"/>
					<circle class="st1" cx="12.1" cy="26.1" r="1"/>
					<circle class="st1" cx="9.9" cy="26.1" r="0.9"/>
					<circle class="st1" cx="7.7" cy="26.1" r="0.4"/>
					<circle class="st1" cx="5.6" cy="26.1" r="0.1"/>
					<circle class="st1" cx="20.8" cy="28.3" r="1.3"/>
					<circle class="st1" cx="18.6" cy="28.3" r="1.2"/>
					<circle class="st1" cx="16.4" cy="28.3" r="1"/>
					<circle class="st1" cx="14.3" cy="28.3" r="1"/>
					<circle class="st1" cx="12.1" cy="28.3" r="0.9"/>
					<circle class="st1" cx="9.9" cy="28.3" r="0.7"/>
					<circle class="st1" cx="7.7" cy="28.3" r="0.1"/>
					<circle class="st1" cx="5.6" cy="28.3" r="0.1"/>
					<circle class="st1" cx="20.8" cy="30.5" r="1.2"/>
					<circle class="st1" cx="18.6" cy="30.5" r="1.1"/>
					<circle class="st1" cx="16.4" cy="30.5" r="0.9"/>
					<circle class="st1" cx="14.3" cy="30.5" r="0.9"/>
					<circle class="st1" cx="12.1" cy="30.5" r="0.9"/>
					<circle class="st1" cx="9.9" cy="30.5" r="0.2"/>
					<circle class="st1" cx="7.7" cy="30.5" r="0.1"/>
					<circle class="st1" cx="20.8" cy="32.6" r="1.1"/>
					<circle class="st1" cx="18.6" cy="32.6" r="1"/>
					<circle class="st1" cx="16.4" cy="32.6" r="0.9"/>
					<circle class="st1" cx="14.3" cy="32.6" r="0.7"/>
					<circle class="st1" cx="12.1" cy="32.6" r="0.2"/>
					<circle class="st1" cx="9.9" cy="32.6" r="0.1"/>
					<circle class="st1" cx="20.8" cy="34.8" r="1"/>
					<circle class="st1" cx="18.6" cy="34.8" r="0.9"/>
					<circle class="st1" cx="16.4" cy="34.8" r="0.5"/>
					<circle class="st1" cx="14.3" cy="34.8" r="0.2"/>
					<circle class="st1" cx="12.1" cy="34.8" r="0.1"/>
					<circle class="st1" cx="20.8" cy="37" r="0.7"/>
					<circle class="st1" cx="18.6" cy="37" r="0.2"/>
					<circle class="st1" cx="16.4" cy="37" r="0.1"/>
					<circle class="st1" cx="20.8" cy="39.2" r="0.1"/>
				</g>
			</g>
		</g>
		<circle class="st2" cx="23" cy="23.3" r="19.9"/>
	</g>
</g>
</svg>
