<?xml version="1.0" encoding="utf-8"?>
<!-- Generator: Adobe Illustrator 21.0.2, SVG Export Plug-In . SVG Version: 6.00 Build 0)  -->
<svg version="1.1" id="Layer_1" xmlns="http://www.w3.org/2000/svg" xmlns:xlink="http://www.w3.org/1999/xlink" x="0px" y="0px"
	 viewBox="0 0 422 299.3" style="enable-background:new 0 0 422 299.3;" xml:space="preserve">
<style type="text/css">
	.st0{fill:#ED1C24;}
	.st1{fill:#00B1F0;}
	.st2{fill:#FFFFFF;}
</style>
<g>
	<g>
		<circle class="st0" cx="177.9" cy="7.4" r="0.6"/>
		<circle class="st0" cx="193.3" cy="7.4" r="0.6"/>
		<circle class="st0" cx="208.6" cy="7.4" r="0.6"/>
		<circle class="st0" cx="147.2" cy="22.7" r="0.6"/>
		<circle class="st0" cx="162.5" cy="22.7" r="0.6"/>
		<circle class="st0" cx="177.9" cy="22.7" r="1.9"/>
		<circle class="st0" cx="193.3" cy="22.7" r="2.6"/>
		<circle class="st0" cx="208.6" cy="22.7" r="2.6"/>
		<circle class="st0" cx="224" cy="22.7" r="0.6"/>
		<circle class="st0" cx="239.3" cy="22.7" r="0.6"/>
		<circle class="st0" cx="147.2" cy="38.1" r="2.9"/>
		<circle class="st0" cx="162.5" cy="38.1" r="2.9"/>
		<circle class="st0" cx="177.9" cy="38.1" r="5.7"/>
		<circle class="st0" cx="193.3" cy="38.1" r="6.4"/>
		<circle class="st0" cx="208.6" cy="38.1" r="6.4"/>
		<circle class="st0" cx="224" cy="38.1" r="4.5"/>
		<circle class="st0" cx="239.3" cy="38.1" r="1.9"/>
		<circle class="st0" cx="254.7" cy="38.1" r="0.6"/>
		<circle class="st0" cx="147.2" cy="53.5" r="5.1"/>
		<circle class="st0" cx="162.5" cy="53.5" r="6.4"/>
		<circle class="st0" cx="177.9" cy="53.5" r="6.4"/>
		<circle class="st0" cx="193.3" cy="53.5" r="6.4"/>
		<circle class="st0" cx="208.6" cy="53.5" r="7"/>
		<circle class="st0" cx="224" cy="53.5" r="6.4"/>
		<circle class="st0" cx="239.3" cy="53.5" r="5.7"/>
		<circle class="st0" cx="254.7" cy="53.5" r="1.9"/>
		<circle class="st0" cx="270.1" cy="53.5" r="0.6"/>
		<circle class="st0" cx="147.2" cy="68.8" r="6.4"/>
		<circle class="st0" cx="162.5" cy="68.8" r="7.3"/>
		<circle class="st0" cx="177.9" cy="68.8" r="7"/>
		<circle class="st0" cx="193.3" cy="68.8" r="6.4"/>
		<circle class="st0" cx="208.6" cy="68.8" r="6.4"/>
		<circle class="st0" cx="224" cy="68.8" r="7"/>
		<circle class="st0" cx="239.3" cy="68.8" r="6.4"/>
		<circle class="st0" cx="254.7" cy="68.8" r="4.6"/>
		<circle class="st0" cx="270.1" cy="68.8" r="1.9"/>
		<circle class="st0" cx="147.2" cy="84.2" r="9.3"/>
		<circle class="st0" cx="162.5" cy="84.2" r="9.6"/>
		<circle class="st0" cx="177.9" cy="84.2" r="8.9"/>
		<circle class="st0" cx="193.3" cy="84.2" r="8.8"/>
		<circle class="st0" cx="208.6" cy="84.2" r="7.7"/>
		<circle class="st0" cx="224" cy="84.2" r="7"/>
		<circle class="st0" cx="239.3" cy="84.2" r="6.4"/>
		<circle class="st0" cx="254.7" cy="84.2" r="6.4"/>
		<circle class="st0" cx="270.1" cy="84.2" r="1.9"/>
		<circle class="st0" cx="285.4" cy="84.2" r="0.6"/>
		<circle class="st0" cx="147.2" cy="99.6" r="9.6"/>
		<circle class="st0" cx="162.5" cy="99.6" r="8.6"/>
		<circle class="st0" cx="177.9" cy="99.6" r="8.8"/>
		<circle class="st0" cx="193.3" cy="99.6" r="8.1"/>
		<circle class="st0" cx="208.6" cy="99.6" r="7.6"/>
		<circle class="st0" cx="224" cy="99.6" r="7"/>
		<circle class="st0" cx="239.3" cy="99.6" r="6.4"/>
		<circle class="st0" cx="254.7" cy="99.6" r="6.4"/>
		<circle class="st0" cx="270.1" cy="99.6" r="2.6"/>
		<circle class="st0" cx="285.4" cy="99.6" r="0.6"/>
		<circle class="st0" cx="147.2" cy="114.9" r="8.6"/>
		<circle class="st0" cx="162.5" cy="114.9" r="8.9"/>
		<circle class="st0" cx="177.9" cy="114.9" r="8.6"/>
		<circle class="st0" cx="193.3" cy="114.9" r="8"/>
		<circle class="st0" cx="208.6" cy="114.9" r="7.4"/>
		<circle class="st0" cx="224" cy="114.9" r="7"/>
		<circle class="st0" cx="239.3" cy="114.9" r="6.4"/>
		<circle class="st0" cx="254.7" cy="114.9" r="5.1"/>
		<circle class="st0" cx="270.1" cy="114.9" r="1.9"/>
		<circle class="st0" cx="147.2" cy="130.3" r="9.6"/>
		<circle class="st0" cx="162.5" cy="130.3" r="9.2"/>
		<circle class="st0" cx="177.9" cy="130.3" r="8.6"/>
		<circle class="st0" cx="193.3" cy="130.3" r="8"/>
		<circle class="st0" cx="208.6" cy="130.3" r="7.3"/>
		<circle class="st0" cx="224" cy="130.3" r="6.7"/>
		<circle class="st0" cx="239.3" cy="130.3" r="6.4"/>
		<circle class="st0" cx="254.7" cy="130.3" r="2.6"/>
		<circle class="st0" cx="270.1" cy="130.3" r="0.6"/>
		<circle class="st0" cx="147.2" cy="145.6" r="8.6"/>
		<circle class="st0" cx="162.5" cy="145.6" r="8.9"/>
		<circle class="st0" cx="177.9" cy="145.6" r="8.6"/>
		<circle class="st0" cx="193.3" cy="145.6" r="7.3"/>
		<circle class="st1" cx="193.3" cy="145.6" r="1.6"/>
		<circle class="st0" cx="208.6" cy="145.6" r="7"/>
		<circle class="st1" cx="208.6" cy="145.6" r="3.4"/>
		<circle class="st0" cx="224" cy="145.6" r="6.4"/>
		<circle class="st0" cx="239.3" cy="145.6" r="5.1"/>
		<circle class="st0" cx="254.7" cy="145.6" r="0.6"/>
		<circle class="st0" cx="270.1" cy="145.6" r="0.6"/>
		<circle class="st0" cx="147.2" cy="161" r="8"/>
		<circle class="st0" cx="162.5" cy="161" r="8.6"/>
		<circle class="st0" cx="177.9" cy="161" r="8"/>
		<circle class="st1" cx="177.9" cy="161" r="1.9"/>
		<circle class="st0" cx="193.3" cy="161" r="6.4"/>
		<circle class="st1" cx="193.3" cy="161" r="3.4"/>
		<circle class="st0" cx="208.6" cy="161" r="6.4"/>
		<circle class="st1" cx="208.6" cy="161" r="5.1"/>
		<circle class="st0" cx="224" cy="161" r="6.4"/>
		<circle class="st1" cx="224" cy="161" r="3.5"/>
		<circle class="st0" cx="239.3" cy="161" r="1.3"/>
		<circle class="st0" cx="254.7" cy="161" r="0.6"/>
		<circle class="st0" cx="147.2" cy="176.4" r="7"/>
		<circle class="st0" cx="162.5" cy="176.4" r="8"/>
		<circle class="st0" cx="177.9" cy="176.4" r="7.3"/>
		<circle class="st0" cx="193.3" cy="176.4" r="6.4"/>
		<circle class="st1" cx="193.3" cy="176.4" r="2.1"/>
		<circle class="st0" cx="208.6" cy="176.4" r="5.1"/>
		<circle class="st1" cx="208.6" cy="176.4" r="2.9"/>
		<circle class="st0" cx="224" cy="176.4" r="1.3"/>
		<circle class="st0" cx="239.3" cy="176.4" r="0.6"/>
		<circle class="st0" cx="147.2" cy="191.7" r="6.4"/>
		<circle class="st0" cx="162.5" cy="191.7" r="7.3"/>
		<circle class="st0" cx="177.9" cy="191.7" r="6.4"/>
		<circle class="st0" cx="193.3" cy="191.7" r="3.8"/>
		<circle class="st0" cx="208.6" cy="191.7" r="1.3"/>
		<circle class="st0" cx="224" cy="191.7" r="0.6"/>
		<circle class="st0" cx="147.2" cy="207.1" r="6.4"/>
		<circle class="st0" cx="162.5" cy="207.1" r="5.1"/>
		<circle class="st0" cx="177.9" cy="207.1" r="1.3"/>
		<circle class="st0" cx="193.3" cy="207.1" r="0.6"/>
		<circle class="st0" cx="147.2" cy="222.4" r="0.6"/>
		<circle class="st0" cx="162.5" cy="222.4" r="0.6"/>
	</g>
	<g>
		<circle class="st0" cx="116.5" cy="7.4" r="0.6"/>
		<circle class="st0" cx="101.1" cy="7.4" r="0.6"/>
		<circle class="st0" cx="85.8" cy="7.4" r="0.6"/>
		<circle class="st0" cx="131.9" cy="22.7" r="0.6"/>
		<circle class="st0" cx="116.5" cy="22.7" r="1.9"/>
		<circle class="st0" cx="101.1" cy="22.7" r="2.6"/>
		<circle class="st0" cx="85.8" cy="22.7" r="2.6"/>
		<circle class="st0" cx="70.4" cy="22.7" r="0.6"/>
		<circle class="st0" cx="55.1" cy="22.7" r="0.6"/>
		<circle class="st0" cx="131.9" cy="38.1" r="2.9"/>
		<circle class="st0" cx="116.5" cy="38.1" r="5.7"/>
		<circle class="st0" cx="101.1" cy="38.1" r="6.4"/>
		<circle class="st0" cx="85.8" cy="38.1" r="6.4"/>
		<circle class="st0" cx="70.4" cy="38.1" r="4.5"/>
		<circle class="st0" cx="55.1" cy="38.1" r="1.9"/>
		<circle class="st0" cx="39.7" cy="38.1" r="0.6"/>
		<circle class="st0" cx="131.9" cy="53.5" r="6.4"/>
		<circle class="st0" cx="116.5" cy="53.5" r="6.4"/>
		<circle class="st0" cx="101.1" cy="53.5" r="6.4"/>
		<circle class="st0" cx="85.8" cy="53.5" r="7"/>
		<circle class="st0" cx="70.4" cy="53.5" r="6.4"/>
		<circle class="st0" cx="55.1" cy="53.5" r="5.7"/>
		<circle class="st0" cx="39.7" cy="53.5" r="1.9"/>
		<circle class="st0" cx="24.3" cy="53.5" r="0.6"/>
		<circle class="st0" cx="131.9" cy="68.8" r="7.3"/>
		<circle class="st0" cx="116.5" cy="68.8" r="7"/>
		<circle class="st0" cx="101.1" cy="68.8" r="6.4"/>
		<circle class="st0" cx="85.8" cy="68.8" r="6.4"/>
		<circle class="st0" cx="70.4" cy="68.8" r="7"/>
		<circle class="st0" cx="55.1" cy="68.8" r="6.4"/>
		<circle class="st0" cx="39.7" cy="68.8" r="4.6"/>
		<circle class="st0" cx="24.3" cy="68.8" r="1.9"/>
		<circle class="st0" cx="131.9" cy="84.2" r="9.6"/>
		<circle class="st0" cx="116.5" cy="84.2" r="8.9"/>
		<circle class="st0" cx="101.1" cy="84.2" r="8.8"/>
		<circle class="st0" cx="85.8" cy="84.2" r="7.7"/>
		<circle class="st0" cx="70.4" cy="84.2" r="7"/>
		<circle class="st0" cx="55.1" cy="84.2" r="6.4"/>
		<circle class="st0" cx="39.7" cy="84.2" r="6.4"/>
		<circle class="st0" cx="24.3" cy="84.2" r="1.9"/>
		<circle class="st0" cx="9" cy="84.2" r="0.6"/>
		<circle class="st0" cx="131.9" cy="99.6" r="8.6"/>
		<circle class="st0" cx="116.5" cy="99.6" r="8.8"/>
		<circle class="st0" cx="101.1" cy="99.6" r="8.1"/>
		<circle class="st0" cx="85.8" cy="99.6" r="7.6"/>
		<circle class="st0" cx="70.4" cy="99.6" r="7"/>
		<circle class="st0" cx="55.1" cy="99.6" r="6.4"/>
		<circle class="st0" cx="39.7" cy="99.6" r="6.4"/>
		<circle class="st0" cx="24.3" cy="99.6" r="2.6"/>
		<circle class="st0" cx="9" cy="99.6" r="0.6"/>
		<circle class="st0" cx="131.9" cy="114.9" r="8.9"/>
		<circle class="st0" cx="116.5" cy="114.9" r="8.6"/>
		<circle class="st0" cx="101.1" cy="114.9" r="8"/>
		<circle class="st0" cx="85.8" cy="114.9" r="7.4"/>
		<circle class="st0" cx="70.4" cy="114.9" r="7"/>
		<circle class="st0" cx="55.1" cy="114.9" r="6.4"/>
		<circle class="st0" cx="39.7" cy="114.9" r="5.1"/>
		<circle class="st0" cx="24.3" cy="114.9" r="1.9"/>
		<circle class="st0" cx="131.9" cy="130.3" r="9.2"/>
		<circle class="st0" cx="116.5" cy="130.3" r="8.6"/>
		<circle class="st0" cx="101.1" cy="130.3" r="8"/>
		<circle class="st0" cx="85.8" cy="130.3" r="7.3"/>
		<circle class="st0" cx="70.4" cy="130.3" r="6.7"/>
		<circle class="st0" cx="55.1" cy="130.3" r="6.4"/>
		<circle class="st0" cx="39.7" cy="130.3" r="2.6"/>
		<circle class="st0" cx="24.3" cy="130.3" r="0.6"/>
		<circle class="st0" cx="131.9" cy="145.6" r="8.9"/>
		<circle class="st0" cx="116.5" cy="145.6" r="8.6"/>
		<circle class="st0" cx="101.1" cy="145.6" r="7.3"/>
		<circle class="st0" cx="85.8" cy="145.6" r="7"/>
		<circle class="st0" cx="70.4" cy="145.6" r="6.4"/>
		<circle class="st0" cx="55.1" cy="145.6" r="5.1"/>
		<circle class="st0" cx="39.7" cy="145.6" r="0.6"/>
		<circle class="st0" cx="24.3" cy="145.6" r="0.6"/>
		<circle class="st0" cx="131.9" cy="161" r="8.6"/>
		<circle class="st0" cx="116.5" cy="161" r="8"/>
		<circle class="st0" cx="101.1" cy="161" r="6.4"/>
		<circle class="st0" cx="85.8" cy="161" r="6.4"/>
		<circle class="st0" cx="70.4" cy="161" r="6.4"/>
		<circle class="st0" cx="55.1" cy="161" r="1.3"/>
		<circle class="st0" cx="39.7" cy="161" r="0.6"/>
		<circle class="st0" cx="131.9" cy="176.4" r="8"/>
		<circle class="st0" cx="116.5" cy="176.4" r="7.3"/>
		<circle class="st0" cx="101.1" cy="176.4" r="6.4"/>
		<circle class="st0" cx="85.8" cy="176.4" r="5.1"/>
		<circle class="st0" cx="70.4" cy="176.4" r="1.3"/>
		<circle class="st0" cx="55.1" cy="176.4" r="0.6"/>
		<circle class="st0" cx="131.9" cy="191.7" r="7.3"/>
		<circle class="st0" cx="116.5" cy="191.7" r="6.4"/>
		<circle class="st0" cx="101.1" cy="191.7" r="3.8"/>
		<circle class="st0" cx="85.8" cy="191.7" r="1.3"/>
		<circle class="st0" cx="70.4" cy="191.7" r="0.6"/>
		<circle class="st0" cx="131.9" cy="207.1" r="5.1"/>
		<circle class="st0" cx="116.5" cy="207.1" r="1.3"/>
		<circle class="st0" cx="101.1" cy="207.1" r="0.6"/>
		<circle class="st0" cx="131.9" cy="222.4" r="0.6"/>
	</g>
</g>
<g>
	<path class="st2" d="M53.3,265.5v-24.1h8.1l3.8,16.4h0.1l4-16.4h7.8v24.1h-4.9v-18.6h-0.1l-4.6,18.6h-4.8l-4.4-18.6h-0.1v18.6H53.3
		z"/>
	<path class="st2" d="M86.3,257.2l-6.3-15.8h5.5l3.6,10.2l3.8-10.2H98l-6.7,15.8v8.3h-5V257.2z"/>
	<path class="st2" d="M99.6,253.5c0-6.4,0-12.5,8.3-12.5c8.3,0,8.3,6.1,8.3,12.5c0,6.3,0,12.5-8.3,12.5
		C99.6,265.9,99.6,259.8,99.6,253.5z M111.1,253.5c0-6.2-0.4-8.8-3.2-8.8s-3.2,2.7-3.2,8.8c0,6.2,0.4,8.8,3.2,8.8
		S111.1,259.7,111.1,253.5z"/>
	<path class="st2" d="M119.7,253.5c0-6.4,0-12.5,8.3-12.5c5.1,0,7.2,2.8,7,8h-4.9c0-3.2-0.6-4.4-2.1-4.4c-2.8,0-3.2,2.7-3.2,8.8
		c0,6.2,0.4,8.8,3.2,8.8c2.3,0,2.2-3,2.3-4.9h5c0,6.4-2.6,8.5-7.3,8.5C119.7,265.9,119.7,259.8,119.7,253.5z"/>
	<path class="st2" d="M136.9,265.5l6.7-24.1h6.6l6.5,24.1h-5.3l-1.3-5.3h-6.9l-1.4,5.3H136.9z M146.6,246.1L146.6,246.1l-2.4,10.4
		h4.8L146.6,246.1z"/>
	<path class="st2" d="M164.6,265.5h-5v-24.1h9.3c3.4,0,5.6,2.2,5.6,6.3c0,3.1-1.2,5.4-4.5,5.9v0.1c1.1,0.1,4.4,0.4,4.4,4.7
		c0,1.5,0.1,6.1,0.6,7.1h-4.9c-0.7-1.5-0.5-3.1-0.5-4.7c0-2.9,0.3-5.3-3.6-5.3h-1.3V265.5z M164.6,251.8h2.2c2,0,2.6-2,2.6-3.5
		c0-2.3-1-3.2-2.6-3.2h-2.2V251.8z"/>
	<path class="st2" d="M178.3,241.4h8.4c6.6,0,7.8,4.4,7.8,11.9c0,3.7,0.6,12.2-8,12.2h-8.2V241.4z M183.4,261.8h2.4
		c3.1,0,3.7-2.3,3.7-8.3c0-4.4,0-8.3-3.5-8.3h-2.6V261.8z"/>
	<path class="st2" d="M198.3,265.5v-24.1h5v24.1H198.3z"/>
	<path class="st2" d="M206.1,265.5l6.7-24.1h6.6l6.5,24.1h-5.3l-1.3-5.3h-6.9l-1.4,5.3H206.1z M215.8,246.1L215.8,246.1l-2.4,10.4
		h4.8L215.8,246.1z"/>
	<path class="st2" d="M228.9,265.5v-24.1h5v20.1h7.5v4H228.9z"/>
	<path class="st2" d="M251.1,265.5v-24.1h5v24.1H251.1z"/>
	<path class="st2" d="M260.2,265.5v-24.1h6.8l6.4,16.7h0.1v-16.7h4.7v24.1h-6.6l-6.6-17.6h-0.1v17.6H260.2z"/>
	<path class="st2" d="M282.3,265.5v-24.1h12.5v3.7h-7.5v6.2h7.1v3.7h-7.1v10.5H282.3z"/>
	<path class="st2" d="M295.1,265.5l6.7-24.1h6.6l6.5,24.1h-5.3l-1.3-5.3h-6.9l-1.4,5.3H295.1z M304.9,246.1L304.9,246.1l-2.4,10.4
		h4.8L304.9,246.1z"/>
	<path class="st2" d="M322.9,265.5h-5v-24.1h9.3c3.4,0,5.6,2.2,5.6,6.3c0,3.1-1.2,5.4-4.5,5.9v0.1c1.1,0.1,4.4,0.4,4.4,4.7
		c0,1.5,0.1,6.1,0.6,7.1h-4.9c-0.7-1.5-0.5-3.1-0.5-4.7c0-2.9,0.3-5.3-3.6-5.3h-1.3V265.5z M322.9,251.8h2.2c2,0,2.6-2,2.6-3.5
		c0-2.3-1-3.2-2.6-3.2h-2.2V251.8z"/>
	<path class="st2" d="M336.1,253.5c0-6.4,0-12.5,8.3-12.5c5.1,0,7.2,2.8,7,8h-4.9c0-3.2-0.6-4.4-2.1-4.4c-2.8,0-3.2,2.7-3.2,8.8
		c0,6.2,0.4,8.8,3.2,8.8c2.3,0,2.2-3,2.3-4.9h5c0,6.4-2.6,8.5-7.3,8.5C336.1,265.9,336.1,259.8,336.1,253.5z"/>
	<path class="st2" d="M370,241.4v4h-5.6v20.1h-5v-20.1h-5.6v-4H370z"/>
	<path class="st2" d="M372.8,265.5v-24.1h5v24.1H372.8z"/>
	<path class="st2" d="M381.7,253.5c0-6.4,0-12.5,8.3-12.5c8.3,0,8.3,6.1,8.3,12.5c0,6.3,0,12.5-8.3,12.5
		C381.7,265.9,381.7,259.8,381.7,253.5z M393.2,253.5c0-6.2-0.4-8.8-3.2-8.8c-2.8,0-3.2,2.7-3.2,8.8c0,6.2,0.4,8.8,3.2,8.8
		C392.8,262.3,393.2,259.7,393.2,253.5z"/>
	<path class="st2" d="M402.1,265.5v-24.1h6.8l6.4,16.7h0.1v-16.7h4.7v24.1h-6.6l-6.6-17.6h-0.1v17.6H402.1z"/>
	<path class="st2" d="M53.9,298.7v-24.1h2.1v11.1h0.1l8.5-11.1h2.6l-9,11.3l9.3,12.9h-2.7l-8.7-12.4h-0.1v12.4H53.9z"/>
	<path class="st2" d="M70.8,298.7v-24.1h3.3l9.8,21.2l0.1-0.1v-21.1h2.1v24.1h-3.2L73,277.3l-0.1,0.1v21.3H70.8z"/>
	<path class="st2" d="M97.5,274.1c7.2,0,7.3,6,7.3,12.5c0,6.5-0.1,12.5-7.3,12.5s-7.3-6-7.3-12.5C90.2,280.1,90.3,274.1,97.5,274.1z
		 M97.5,297.4c5.1,0,5.1-4.3,5.1-10.7s-0.1-10.7-5.1-10.7s-5.1,4.3-5.1,10.7S92.4,297.4,97.5,297.4z"/>
	<path class="st2" d="M119.1,274.6h2.9l4.8,21.1h0.1l5.1-21.1h2.1l-6,24.1h-2.8l-4.8-21.4h-0.1l-5,21.4h-2.7l-5.8-24.1h2.3l4.9,21.3
		h0.1L119.1,274.6z"/>
	<path class="st2" d="M137.2,298.7v-24.1h2.1v22.3h8v1.8H137.2z"/>
	<path class="st2" d="M161.5,274.6v1.8h-8.8v9h8.4v1.8h-8.4v9.7h9v1.8h-11.2v-24.1H161.5z"/>
	<path class="st2" d="M165.3,274.6h6.4c6.7,0,7.6,3.9,7.6,12.2c0,8-1.2,12-8.4,12h-5.5V274.6z M167.4,296.9h2.6
		c6.4,0,7.1-1.7,7.1-11.6c0-6.9-0.9-8.9-6.9-8.9h-2.8V296.9z"/>
	<path class="st2" d="M194.8,287.9H190v-1.8h7v12.1c-2.1,0.7-4.4,1-6.6,1c-7.8,0-7.3-7.8-7.3-12.5c0-4.7-0.6-12.5,7.3-12.5
		c4.6,0,7,2,6.9,6.6h-2.1c0-3.2-1.4-4.8-4.7-4.8c-5.2,0-5.1,4.6-5.1,10.7c0,6.1-0.1,10.7,5.1,10.7c1.8,0,3.4-0.3,4.5-0.7V287.9z"/>
	<path class="st2" d="M212.4,274.6v1.8h-8.8v9h8.4v1.8h-8.4v9.7h9v1.8h-11.2v-24.1H212.4z"/>
	<path class="st2" d="M223.3,274.6h6.6c2,0,5.3,0.3,5.3,5.8c0,4.8-1.6,7-5.7,7h-4.1v11.2h-2.1V274.6z M225.5,285.7h4
		c2.2,0,3.7-1.1,3.7-4.8c0-4.1-1.8-4.4-3.7-4.4h-3.9V285.7z"/>
	<path class="st2" d="M245.6,274.1c7.2,0,7.3,6,7.3,12.5c0,6.5-0.1,12.5-7.3,12.5s-7.3-6-7.3-12.5
		C238.3,280.1,238.4,274.1,245.6,274.1z M245.6,297.4c5.1,0,5.1-4.3,5.1-10.7s-0.1-10.7-5.1-10.7s-5.1,4.3-5.1,10.7
		S240.5,297.4,245.6,297.4z"/>
	<path class="st2" d="M259,287v11.7h-2.1v-24.1h6.6c4.6,0,5.8,1.5,5.8,5.8c0,3-0.5,5-3.7,5.7v0.1c3.4,0.7,3.6,1.1,3.6,9.7
		c0,0.9,0.2,1.9,0.2,2.8h-2c-0.2-0.7-0.3-4.7-0.3-6c0-1,0.7-5.7-4-5.7H259z M259,285.2h3.5c3.2,0,4.7-0.8,4.7-4.9
		c0-3.3-1.3-3.9-3.8-3.9H259V285.2z"/>
	<path class="st2" d="M277.9,276.4H272v-1.8h13.9v1.8H280v22.3h-2.1V276.4z"/>
	<path class="st2" d="M295.2,274.6l7.5,24.1h-2.2l-1.9-6.3h-9.4l-1.9,6.3h-2.1l7.6-24.1H295.2z M298,290.5l-4.1-13.6h-0.1l-4.1,13.6
		H298z"/>
	<path class="st2" d="M305.9,298.7v-24.1h2.1v22.3h8v1.8H305.9z"/>
</g>
</svg>
