<?xml version="1.0" encoding="utf-8"?>
<!-- Generator: Adobe Illustrator 21.0.2, SVG Export Plug-In . SVG Version: 6.00 Build 0)  -->
<svg version="1.1" xmlns="http://www.w3.org/2000/svg" xmlns:xlink="http://www.w3.org/1999/xlink" x="0px" y="0px"
	 viewBox="0 0 450 299.3" style="enable-background:new 0 0 450 299.3;" xml:space="preserve">
<style type="text/css">
	.st0{fill:#ED1C24;}
	.st1{fill:#00B1F0;}
	.st2{fill:#FFFFFF;}
</style>
<g id="Layer_2">
</g>
<g id="Layer_1">
	<g>
		<g>
			<circle class="st0" cx="177.9" cy="7.4" r="0.6"/>
			<circle class="st0" cx="193.3" cy="7.4" r="0.6"/>
			<circle class="st0" cx="208.6" cy="7.4" r="0.6"/>
			<circle class="st0" cx="147.2" cy="22.7" r="0.6"/>
			<circle class="st0" cx="162.5" cy="22.7" r="0.6"/>
			<circle class="st0" cx="177.9" cy="22.7" r="1.9"/>
			<circle class="st0" cx="193.3" cy="22.7" r="2.6"/>
			<circle class="st0" cx="208.6" cy="22.7" r="2.6"/>
			<circle class="st0" cx="224" cy="22.7" r="0.6"/>
			<circle class="st0" cx="239.3" cy="22.7" r="0.6"/>
			<circle class="st0" cx="147.2" cy="38.1" r="2.9"/>
			<circle class="st0" cx="162.5" cy="38.1" r="2.9"/>
			<circle class="st0" cx="177.9" cy="38.1" r="5.7"/>
			<circle class="st0" cx="193.3" cy="38.1" r="6.4"/>
			<circle class="st0" cx="208.6" cy="38.1" r="6.4"/>
			<circle class="st0" cx="224" cy="38.1" r="4.5"/>
			<circle class="st0" cx="239.3" cy="38.1" r="1.9"/>
			<circle class="st0" cx="254.7" cy="38.1" r="0.6"/>
			<circle class="st0" cx="147.2" cy="53.5" r="5.1"/>
			<circle class="st0" cx="162.5" cy="53.5" r="6.4"/>
			<circle class="st0" cx="177.9" cy="53.5" r="6.4"/>
			<circle class="st0" cx="193.3" cy="53.5" r="6.4"/>
			<circle class="st0" cx="208.6" cy="53.5" r="7"/>
			<circle class="st0" cx="224" cy="53.5" r="6.4"/>
			<circle class="st0" cx="239.3" cy="53.5" r="5.7"/>
			<circle class="st0" cx="254.7" cy="53.5" r="1.9"/>
			<circle class="st0" cx="270.1" cy="53.5" r="0.6"/>
			<circle class="st0" cx="147.2" cy="68.8" r="6.4"/>
			<circle class="st0" cx="162.5" cy="68.8" r="7.3"/>
			<circle class="st0" cx="177.9" cy="68.8" r="7"/>
			<circle class="st0" cx="193.3" cy="68.8" r="6.4"/>
			<circle class="st0" cx="208.6" cy="68.8" r="6.4"/>
			<circle class="st0" cx="224" cy="68.8" r="7"/>
			<circle class="st0" cx="239.3" cy="68.8" r="6.4"/>
			<circle class="st0" cx="254.7" cy="68.8" r="4.6"/>
			<circle class="st0" cx="270.1" cy="68.8" r="1.9"/>
			<circle class="st0" cx="147.2" cy="84.2" r="9.3"/>
			<circle class="st0" cx="162.5" cy="84.2" r="9.6"/>
			<circle class="st0" cx="177.9" cy="84.2" r="8.9"/>
			<circle class="st0" cx="193.3" cy="84.2" r="8.8"/>
			<circle class="st0" cx="208.6" cy="84.2" r="7.7"/>
			<circle class="st0" cx="224" cy="84.2" r="7"/>
			<circle class="st0" cx="239.3" cy="84.2" r="6.4"/>
			<circle class="st0" cx="254.7" cy="84.2" r="6.4"/>
			<circle class="st0" cx="270.1" cy="84.2" r="1.9"/>
			<circle class="st0" cx="285.4" cy="84.2" r="0.6"/>
			<circle class="st0" cx="147.2" cy="99.6" r="9.6"/>
			<circle class="st0" cx="162.5" cy="99.6" r="8.6"/>
			<circle class="st0" cx="177.9" cy="99.6" r="8.8"/>
			<circle class="st0" cx="193.3" cy="99.6" r="8.1"/>
			<circle class="st0" cx="208.6" cy="99.6" r="7.6"/>
			<circle class="st0" cx="224" cy="99.6" r="7"/>
			<circle class="st0" cx="239.3" cy="99.6" r="6.4"/>
			<circle class="st0" cx="254.7" cy="99.6" r="6.4"/>
			<circle class="st0" cx="270.1" cy="99.6" r="2.6"/>
			<circle class="st0" cx="285.4" cy="99.6" r="0.6"/>
			<circle class="st0" cx="147.2" cy="114.9" r="8.6"/>
			<circle class="st0" cx="162.5" cy="114.9" r="8.9"/>
			<circle class="st0" cx="177.9" cy="114.9" r="8.6"/>
			<circle class="st0" cx="193.3" cy="114.9" r="8"/>
			<circle class="st0" cx="208.6" cy="114.9" r="7.4"/>
			<circle class="st0" cx="224" cy="114.9" r="7"/>
			<circle class="st0" cx="239.3" cy="114.9" r="6.4"/>
			<circle class="st0" cx="254.7" cy="114.9" r="5.1"/>
			<circle class="st0" cx="270.1" cy="114.9" r="1.9"/>
			<circle class="st0" cx="147.2" cy="130.3" r="9.6"/>
			<circle class="st0" cx="162.5" cy="130.3" r="9.2"/>
			<circle class="st0" cx="177.9" cy="130.3" r="8.6"/>
			<circle class="st0" cx="193.3" cy="130.3" r="8"/>
			<circle class="st0" cx="208.6" cy="130.3" r="7.3"/>
			<circle class="st0" cx="224" cy="130.3" r="6.7"/>
			<circle class="st0" cx="239.3" cy="130.3" r="6.4"/>
			<circle class="st0" cx="254.7" cy="130.3" r="2.6"/>
			<circle class="st0" cx="270.1" cy="130.3" r="0.6"/>
			<circle class="st0" cx="147.2" cy="145.6" r="8.6"/>
			<circle class="st0" cx="162.5" cy="145.6" r="8.9"/>
			<circle class="st0" cx="177.9" cy="145.6" r="8.6"/>
			<circle class="st0" cx="193.3" cy="145.6" r="7.3"/>
			<circle class="st1" cx="193.3" cy="145.6" r="1.6"/>
			<circle class="st0" cx="208.6" cy="145.6" r="7"/>
			<circle class="st1" cx="208.6" cy="145.6" r="3.4"/>
			<circle class="st0" cx="224" cy="145.6" r="6.4"/>
			<circle class="st0" cx="239.3" cy="145.6" r="5.1"/>
			<circle class="st0" cx="254.7" cy="145.6" r="0.6"/>
			<circle class="st0" cx="270.1" cy="145.6" r="0.6"/>
			<circle class="st0" cx="147.2" cy="161" r="8"/>
			<circle class="st0" cx="162.5" cy="161" r="8.6"/>
			<circle class="st0" cx="177.9" cy="161" r="8"/>
			<circle class="st1" cx="177.9" cy="161" r="1.9"/>
			<circle class="st0" cx="193.3" cy="161" r="6.4"/>
			<circle class="st1" cx="193.3" cy="161" r="3.4"/>
			<circle class="st0" cx="208.6" cy="161" r="6.4"/>
			<circle class="st1" cx="208.6" cy="161" r="5.1"/>
			<circle class="st0" cx="224" cy="161" r="6.4"/>
			<circle class="st1" cx="224" cy="161" r="3.5"/>
			<circle class="st0" cx="239.3" cy="161" r="1.3"/>
			<circle class="st0" cx="254.7" cy="161" r="0.6"/>
			<circle class="st0" cx="147.2" cy="176.4" r="7"/>
			<circle class="st0" cx="162.5" cy="176.4" r="8"/>
			<circle class="st0" cx="177.9" cy="176.4" r="7.3"/>
			<circle class="st0" cx="193.3" cy="176.4" r="6.4"/>
			<circle class="st1" cx="193.3" cy="176.4" r="2.1"/>
			<circle class="st0" cx="208.6" cy="176.4" r="5.1"/>
			<circle class="st1" cx="208.6" cy="176.4" r="2.9"/>
			<circle class="st0" cx="224" cy="176.4" r="1.3"/>
			<circle class="st0" cx="239.3" cy="176.4" r="0.6"/>
			<circle class="st0" cx="147.2" cy="191.7" r="6.4"/>
			<circle class="st0" cx="162.5" cy="191.7" r="7.3"/>
			<circle class="st0" cx="177.9" cy="191.7" r="6.4"/>
			<circle class="st0" cx="193.3" cy="191.7" r="3.8"/>
			<circle class="st0" cx="208.6" cy="191.7" r="1.3"/>
			<circle class="st0" cx="224" cy="191.7" r="0.6"/>
			<circle class="st0" cx="147.2" cy="207.1" r="6.4"/>
			<circle class="st0" cx="162.5" cy="207.1" r="5.1"/>
			<circle class="st0" cx="177.9" cy="207.1" r="1.3"/>
			<circle class="st0" cx="193.3" cy="207.1" r="0.6"/>
			<circle class="st0" cx="147.2" cy="222.4" r="0.6"/>
			<circle class="st0" cx="162.5" cy="222.4" r="0.6"/>
		</g>
		<g>
			<circle class="st0" cx="116.5" cy="7.4" r="0.6"/>
			<circle class="st0" cx="101.1" cy="7.4" r="0.6"/>
			<circle class="st0" cx="85.8" cy="7.4" r="0.6"/>
			<circle class="st0" cx="131.9" cy="22.7" r="0.6"/>
			<circle class="st0" cx="116.5" cy="22.7" r="1.9"/>
			<circle class="st0" cx="101.1" cy="22.7" r="2.6"/>
			<circle class="st0" cx="85.8" cy="22.7" r="2.6"/>
			<circle class="st0" cx="70.4" cy="22.7" r="0.6"/>
			<circle class="st0" cx="55.1" cy="22.7" r="0.6"/>
			<circle class="st0" cx="131.9" cy="38.1" r="2.9"/>
			<circle class="st0" cx="116.5" cy="38.1" r="5.7"/>
			<circle class="st0" cx="101.1" cy="38.1" r="6.4"/>
			<circle class="st0" cx="85.8" cy="38.1" r="6.4"/>
			<circle class="st0" cx="70.4" cy="38.1" r="4.5"/>
			<circle class="st0" cx="55.1" cy="38.1" r="1.9"/>
			<circle class="st0" cx="39.7" cy="38.1" r="0.6"/>
			<circle class="st0" cx="131.9" cy="53.5" r="6.4"/>
			<circle class="st0" cx="116.5" cy="53.5" r="6.4"/>
			<circle class="st0" cx="101.1" cy="53.5" r="6.4"/>
			<circle class="st0" cx="85.8" cy="53.5" r="7"/>
			<circle class="st0" cx="70.4" cy="53.5" r="6.4"/>
			<circle class="st0" cx="55.1" cy="53.5" r="5.7"/>
			<circle class="st0" cx="39.7" cy="53.5" r="1.9"/>
			<circle class="st0" cx="24.3" cy="53.5" r="0.6"/>
			<circle class="st0" cx="131.9" cy="68.8" r="7.3"/>
			<circle class="st0" cx="116.5" cy="68.8" r="7"/>
			<circle class="st0" cx="101.1" cy="68.8" r="6.4"/>
			<circle class="st0" cx="85.8" cy="68.8" r="6.4"/>
			<circle class="st0" cx="70.4" cy="68.8" r="7"/>
			<circle class="st0" cx="55.1" cy="68.8" r="6.4"/>
			<circle class="st0" cx="39.7" cy="68.8" r="4.6"/>
			<circle class="st0" cx="24.3" cy="68.8" r="1.9"/>
			<circle class="st0" cx="131.9" cy="84.2" r="9.6"/>
			<circle class="st0" cx="116.5" cy="84.2" r="8.9"/>
			<circle class="st0" cx="101.1" cy="84.2" r="8.8"/>
			<circle class="st0" cx="85.8" cy="84.2" r="7.7"/>
			<circle class="st0" cx="70.4" cy="84.2" r="7"/>
			<circle class="st0" cx="55.1" cy="84.2" r="6.4"/>
			<circle class="st0" cx="39.7" cy="84.2" r="6.4"/>
			<circle class="st0" cx="24.3" cy="84.2" r="1.9"/>
			<circle class="st0" cx="9" cy="84.2" r="0.6"/>
			<circle class="st0" cx="131.9" cy="99.6" r="8.6"/>
			<circle class="st0" cx="116.5" cy="99.6" r="8.8"/>
			<circle class="st0" cx="101.1" cy="99.6" r="8.1"/>
			<circle class="st0" cx="85.8" cy="99.6" r="7.6"/>
			<circle class="st0" cx="70.4" cy="99.6" r="7"/>
			<circle class="st0" cx="55.1" cy="99.6" r="6.4"/>
			<circle class="st0" cx="39.7" cy="99.6" r="6.4"/>
			<circle class="st0" cx="24.3" cy="99.6" r="2.6"/>
			<circle class="st0" cx="9" cy="99.6" r="0.6"/>
			<circle class="st0" cx="131.9" cy="114.9" r="8.9"/>
			<circle class="st0" cx="116.5" cy="114.9" r="8.6"/>
			<circle class="st0" cx="101.1" cy="114.9" r="8"/>
			<circle class="st0" cx="85.8" cy="114.9" r="7.4"/>
			<circle class="st0" cx="70.4" cy="114.9" r="7"/>
			<circle class="st0" cx="55.1" cy="114.9" r="6.4"/>
			<circle class="st0" cx="39.7" cy="114.9" r="5.1"/>
			<circle class="st0" cx="24.3" cy="114.9" r="1.9"/>
			<circle class="st0" cx="131.9" cy="130.3" r="9.2"/>
			<circle class="st0" cx="116.5" cy="130.3" r="8.6"/>
			<circle class="st0" cx="101.1" cy="130.3" r="8"/>
			<circle class="st0" cx="85.8" cy="130.3" r="7.3"/>
			<circle class="st0" cx="70.4" cy="130.3" r="6.7"/>
			<circle class="st0" cx="55.1" cy="130.3" r="6.4"/>
			<circle class="st0" cx="39.7" cy="130.3" r="2.6"/>
			<circle class="st0" cx="24.3" cy="130.3" r="0.6"/>
			<circle class="st0" cx="131.9" cy="145.6" r="8.9"/>
			<circle class="st0" cx="116.5" cy="145.6" r="8.6"/>
			<circle class="st0" cx="101.1" cy="145.6" r="7.3"/>
			<circle class="st0" cx="85.8" cy="145.6" r="7"/>
			<circle class="st0" cx="70.4" cy="145.6" r="6.4"/>
			<circle class="st0" cx="55.1" cy="145.6" r="5.1"/>
			<circle class="st0" cx="39.7" cy="145.6" r="0.6"/>
			<circle class="st0" cx="24.3" cy="145.6" r="0.6"/>
			<circle class="st0" cx="131.9" cy="161" r="8.6"/>
			<circle class="st0" cx="116.5" cy="161" r="8"/>
			<circle class="st0" cx="101.1" cy="161" r="6.4"/>
			<circle class="st0" cx="85.8" cy="161" r="6.4"/>
			<circle class="st0" cx="70.4" cy="161" r="6.4"/>
			<circle class="st0" cx="55.1" cy="161" r="1.3"/>
			<circle class="st0" cx="39.7" cy="161" r="0.6"/>
			<circle class="st0" cx="131.9" cy="176.4" r="8"/>
			<circle class="st0" cx="116.5" cy="176.4" r="7.3"/>
			<circle class="st0" cx="101.1" cy="176.4" r="6.4"/>
			<circle class="st0" cx="85.8" cy="176.4" r="5.1"/>
			<circle class="st0" cx="70.4" cy="176.4" r="1.3"/>
			<circle class="st0" cx="55.1" cy="176.4" r="0.6"/>
			<circle class="st0" cx="131.9" cy="191.7" r="7.3"/>
			<circle class="st0" cx="116.5" cy="191.7" r="6.4"/>
			<circle class="st0" cx="101.1" cy="191.7" r="3.8"/>
			<circle class="st0" cx="85.8" cy="191.7" r="1.3"/>
			<circle class="st0" cx="70.4" cy="191.7" r="0.6"/>
			<circle class="st0" cx="131.9" cy="207.1" r="5.1"/>
			<circle class="st0" cx="116.5" cy="207.1" r="1.3"/>
			<circle class="st0" cx="101.1" cy="207.1" r="0.6"/>
			<circle class="st0" cx="131.9" cy="222.4" r="0.6"/>
		</g>
	</g>
	<g>
		<path class="st2" d="M53.9,298.7v-24.1H56v11.1h0.1l8.5-11.1h2.6l-9,11.3l9.3,12.9h-2.7l-8.7-12.4H56v12.4L53.9,298.7L53.9,298.7z
			"/>
		<path class="st2" d="M70.8,298.7v-24.1h3.3l9.8,21.2l0.1-0.1v-21.1h2.1v24.1h-3.2L73,277.3l-0.1,0.1v21.3L70.8,298.7L70.8,298.7z"
			/>
		<path class="st2" d="M97.5,274.1c7.2,0,7.3,6,7.3,12.5s-0.1,12.5-7.3,12.5s-7.3-6-7.3-12.5S90.3,274.1,97.5,274.1z M97.5,297.4
			c5.1,0,5.1-4.3,5.1-10.7s-0.1-10.7-5.1-10.7s-5.1,4.3-5.1,10.7S92.4,297.4,97.5,297.4z"/>
		<path class="st2" d="M119.1,274.6h2.9l4.8,21.1h0.1l5.1-21.1h2.1l-6,24.1h-2.8l-4.8-21.4h-0.1l-5,21.4h-2.7l-5.8-24.1h2.3
			l4.9,21.3h0.1L119.1,274.6z"/>
		<path class="st2" d="M137.2,298.7v-24.1h2.1v22.3h8v1.8L137.2,298.7L137.2,298.7z"/>
		<path class="st2" d="M161.5,274.6v1.8h-8.8v9h8.4v1.8h-8.4v9.7h9v1.8h-11.2v-24.1L161.5,274.6L161.5,274.6z"/>
		<path class="st2" d="M165.3,274.6h6.4c6.7,0,7.6,3.9,7.6,12.2c0,8-1.2,12-8.4,12h-5.5v-24.2H165.3z M167.4,296.9h2.6
			c6.4,0,7.1-1.7,7.1-11.6c0-6.9-0.9-8.9-6.9-8.9h-2.8L167.4,296.9L167.4,296.9z"/>
		<path class="st2" d="M194.8,287.9H190v-1.8h7v12.1c-2.1,0.7-4.4,1-6.6,1c-7.8,0-7.3-7.8-7.3-12.5s-0.6-12.5,7.3-12.5
			c4.6,0,7,2,6.9,6.6h-2.1c0-3.2-1.4-4.8-4.7-4.8c-5.2,0-5.1,4.6-5.1,10.7s-0.1,10.7,5.1,10.7c1.8,0,3.4-0.3,4.5-0.7v-8.8H194.8z"/>
		<path class="st2" d="M212.4,274.6v1.8h-8.8v9h8.4v1.8h-8.4v9.7h9v1.8h-11.2v-24.1L212.4,274.6L212.4,274.6z"/>
		<path class="st2" d="M223.3,274.6h6.6c2,0,5.3,0.3,5.3,5.8c0,4.8-1.6,7-5.7,7h-4.1v11.2h-2.1V274.6z M225.5,285.7h4
			c2.2,0,3.7-1.1,3.7-4.8c0-4.1-1.8-4.4-3.7-4.4h-3.9v9.2H225.5z"/>
		<path class="st2" d="M245.6,274.1c7.2,0,7.3,6,7.3,12.5s-0.1,12.5-7.3,12.5s-7.3-6-7.3-12.5S238.4,274.1,245.6,274.1z
			 M245.6,297.4c5.1,0,5.1-4.3,5.1-10.7s-0.1-10.7-5.1-10.7s-5.1,4.3-5.1,10.7S240.5,297.4,245.6,297.4z"/>
		<path class="st2" d="M259,287v11.7h-2.1v-24.1h6.6c4.6,0,5.8,1.5,5.8,5.8c0,3-0.5,5-3.7,5.7v0.1c3.4,0.7,3.6,1.1,3.6,9.7
			c0,0.9,0.2,1.9,0.2,2.8h-2c-0.2-0.7-0.3-4.7-0.3-6c0-1,0.7-5.7-4-5.7H259z M259,285.2h3.5c3.2,0,4.7-0.8,4.7-4.9
			c0-3.3-1.3-3.9-3.8-3.9H259V285.2z"/>
		<path class="st2" d="M277.9,276.4H272v-1.8h13.9v1.8H280v22.3h-2.1V276.4z"/>
		<path class="st2" d="M295.2,274.6l7.5,24.1h-2.2l-1.9-6.3h-9.4l-1.9,6.3h-2.1l7.6-24.1H295.2z M298,290.5l-4.1-13.6h-0.1
			l-4.1,13.6H298z"/>
		<path class="st2" d="M305.9,298.7v-24.1h2.1v22.3h8v1.8L305.9,298.7L305.9,298.7z"/>
	</g>
	<g>
		<path class="st2" d="M53.2,253.9c0-6.5,0-12.7,8.5-12.7c5.2,0,7.3,2.9,7.1,8.2h-5c0-3.3-0.6-4.5-2.1-4.5c-2.9,0-3.3,2.7-3.3,9
			c0,6.3,0.4,9,3.3,9c2.4,0,2.3-3.1,2.3-5h5.1c0,6.6-2.6,8.7-7.4,8.7C53.2,266.6,53.2,260.3,53.2,253.9z"/>
		<path class="st2" d="M70.8,266.2l6.8-24.5h6.8l6.7,24.5h-5.4l-1.4-5.4h-7l-1.4,5.4H70.8z M80.7,246.3L80.7,246.3L78.2,257h4.9
			L80.7,246.3z"/>
		<path class="st2" d="M99,266.2h-5.1v-24.5h9.5c3.5,0,5.7,2.2,5.7,6.4c0,3.1-1.2,5.5-4.6,6v0.1c1.1,0.1,4.5,0.4,4.5,4.8
			c0,1.6,0.1,6.2,0.6,7.2h-5c-0.7-1.5-0.5-3.2-0.5-4.8c0-2.9,0.3-5.4-3.7-5.4H99V266.2z M99,252.2h2.3c2,0,2.6-2,2.6-3.6
			c0-2.3-1-3.2-2.6-3.2H99V252.2z"/>
		<path class="st2" d="M112.9,241.6h8.6c6.7,0,8,4.5,8,12.1c0,3.8,0.6,12.4-8.2,12.4h-8.4V241.6z M118,262.4h2.5
			c3.1,0,3.7-2.3,3.7-8.5c0-4.5,0-8.5-3.6-8.5H118V262.4z"/>
		<path class="st2" d="M133.2,266.2v-24.5h5.1v24.5H133.2z"/>
		<path class="st2" d="M142.2,253.9c0-6.5,0-12.7,8.5-12.7c8.5,0,8.5,6.2,8.5,12.7c0,6.4,0,12.7-8.5,12.7
			C142.2,266.6,142.2,260.3,142.2,253.9z M154,253.9c0-6.3-0.4-9-3.3-9c-2.9,0-3.3,2.7-3.3,9c0,6.3,0.4,9,3.3,9
			C153.6,262.9,154,260.2,154,253.9z"/>
		<path class="st2" d="M161.1,241.6h5.3l3.8,17.8h0.1l4.3-17.8h5.1l-6.5,24.5h-6L161.1,241.6z"/>
		<path class="st2" d="M178.7,266.2l6.8-24.5h6.8l6.7,24.5h-5.4l-1.4-5.4h-7l-1.4,5.4H178.7z M188.6,246.3L188.6,246.3l-2.4,10.6
			h4.9L188.6,246.3z"/>
		<path class="st2" d="M208.2,266.6c-6.4,0-7.5-3.7-7.3-8h5.1c0,2.3,0.1,4.3,2.9,4.3c1.7,0,2.6-1.1,2.6-2.8c0-4.4-10.3-4.7-10.3-12
			c0-3.8,1.8-6.9,8.1-6.9c5,0,7.5,2.2,7.1,7.4h-5c0-1.8-0.3-3.7-2.4-3.7c-1.7,0-2.7,0.9-2.7,2.6c0,4.7,10.3,4.2,10.3,12
			C216.8,265.8,212.1,266.6,208.2,266.6z"/>
		<path class="st2" d="M220.1,253.9c0-6.5,0-12.7,8.5-12.7c5.2,0,7.3,2.9,7.1,8.2h-5c0-3.3-0.6-4.5-2.1-4.5c-2.9,0-3.3,2.7-3.3,9
			c0,6.3,0.4,9,3.3,9c2.4,0,2.3-3.1,2.3-5h5.1c0,6.6-2.6,8.7-7.4,8.7C220.1,266.6,220.1,260.3,220.1,253.9z"/>
		<path class="st2" d="M255.9,241.6V259c0,3.7-2.1,7.5-8.3,7.5c-5.6,0-8.4-2.9-8.4-7.5v-17.4h5.1v17.1c0,3,1.3,4.2,3.2,4.2
			c2.2,0,3.3-1.5,3.3-4.2v-17.1H255.9z"/>
		<path class="st2" d="M260,266.2v-24.5h5.1v20.5h7.7v4.1H260z"/>
		<path class="st2" d="M274.7,266.2l6.8-24.5h6.8l6.7,24.5h-5.4l-1.4-5.4h-7l-1.4,5.4H274.7z M284.6,246.3L284.6,246.3l-2.4,10.6
			h4.9L284.6,246.3z"/>
		<path class="st2" d="M302.9,266.2h-5.1v-24.5h9.5c3.5,0,5.7,2.2,5.7,6.4c0,3.1-1.2,5.5-4.6,6v0.1c1.1,0.1,4.5,0.4,4.5,4.8
			c0,1.6,0.1,6.2,0.6,7.2h-5c-0.7-1.5-0.5-3.2-0.5-4.8c0-2.9,0.3-5.4-3.7-5.4h-1.3V266.2z M302.9,252.2h2.3c2,0,2.6-2,2.6-3.6
			c0-2.3-1-3.2-2.6-3.2h-2.3V252.2z"/>
		<path class="st2" d="M324.5,241.6h8.6c6.7,0,8,4.5,8,12.1c0,3.8,0.6,12.4-8.2,12.4h-8.4V241.6z M329.6,262.4h2.5
			c3.1,0,3.7-2.3,3.7-8.5c0-4.5,0-8.5-3.6-8.5h-2.7V262.4z"/>
		<path class="st2" d="M344.8,266.2v-24.5h5.1v24.5H344.8z"/>
		<path class="st2" d="M360.7,266.6c-6.4,0-7.5-3.7-7.3-8h5.1c0,2.3,0.1,4.3,2.9,4.3c1.7,0,2.6-1.1,2.6-2.8c0-4.4-10.3-4.7-10.3-12
			c0-3.8,1.8-6.9,8.1-6.9c5,0,7.5,2.2,7.1,7.4h-5c0-1.8-0.3-3.7-2.4-3.7c-1.7,0-2.7,0.9-2.7,2.6c0,4.7,10.3,4.2,10.3,12
			C369.2,265.8,364.6,266.6,360.7,266.6z"/>
		<path class="st2" d="M372.7,266.2v-24.5h13.4v3.8h-8.3v6.1h7.6v3.8h-7.6v7.2h8.5v3.8H372.7z"/>
		<path class="st2" d="M388.8,266.2l6.8-24.5h6.8l6.7,24.5h-5.4l-1.4-5.4h-7l-1.4,5.4H388.8z M398.7,246.3L398.7,246.3l-2.4,10.6
			h4.9L398.7,246.3z"/>
		<path class="st2" d="M418.3,266.6c-6.4,0-7.5-3.7-7.3-8h5.1c0,2.3,0.1,4.3,2.9,4.3c1.7,0,2.6-1.1,2.6-2.8c0-4.4-10.3-4.7-10.3-12
			c0-3.8,1.8-6.9,8.1-6.9c5,0,7.5,2.2,7.1,7.4h-5c0-1.8-0.3-3.7-2.4-3.7c-1.7,0-2.7,0.9-2.7,2.6c0,4.7,10.3,4.2,10.3,12
			C426.9,265.8,422.2,266.6,418.3,266.6z"/>
		<path class="st2" d="M430.4,266.2v-24.5h13.4v3.8h-8.3v6.1h7.6v3.8h-7.6v7.2h8.5v3.8H430.4z"/>
	</g>
</g>
</svg>
