<?xml version="1.0" encoding="utf-8"?>
<!-- Generator: Adobe Illustrator 21.0.2, SVG Export Plug-In . SVG Version: 6.00 Build 0)  -->
<svg version="1.1" id="Layer_1" xmlns="http://www.w3.org/2000/svg" xmlns:xlink="http://www.w3.org/1999/xlink" x="0px" y="0px"
	 viewBox="0 0 379.6 15.4" style="enable-background:new 0 0 379.6 15.4;" xml:space="preserve">
<style type="text/css">
	.st0{fill:#FFFFFF;}
</style>
<g>
	
		<image style="overflow:visible;opacity:0.15;" width="233" height="27" xlink:href="CF07C849A5F7A4F9.png"  transform="matrix(1 0 0 1 -6 -5.6)">
	</image>
	<g>
		<g>
			<g>
				<g>
					<g>
						<g>
							<path class="st0" d="M1,7.5c0-3.6,0-7.1,4.7-7.1c2.9,0,4.1,1.6,4,4.6H6.9c0-1.8-0.3-2.5-1.2-2.5C4.1,2.5,3.9,4,3.9,7.5
								c0,3.5,0.2,5.1,1.8,5.1c1.3,0,1.3-1.7,1.3-2.8h2.8c0,3.7-1.5,4.9-4.2,4.9C1,14.6,1,11.1,1,7.5z"/>
							<path class="st0" d="M10.8,14.4l3.8-13.8h3.8l3.7,13.8h-3l-0.8-3h-3.9l-0.8,3H10.8z M16.4,3.3L16.4,3.3L15,9.2h2.7L16.4,3.3z
								"/>
							<path class="st0" d="M26.6,14.4h-2.9V0.6h5.3c2,0,3.2,1.3,3.2,3.6c0,1.8-0.7,3.1-2.6,3.4v0c0.6,0.1,2.5,0.2,2.5,2.7
								c0,0.9,0.1,3.5,0.3,4h-2.8c-0.4-0.8-0.3-1.8-0.3-2.7c0-1.6,0.2-3-2.1-3h-0.7V14.4z M26.6,6.6h1.3c1.1,0,1.5-1.1,1.5-2
								c0-1.3-0.6-1.8-1.5-1.8h-1.3V6.6z"/>
							<path class="st0" d="M34.4,0.6h4.8c3.8,0,4.5,2.5,4.5,6.8c0,2.1,0.3,7-4.6,7h-4.7V0.6z M37.3,12.3h1.4c1.8,0,2.1-1.3,2.1-4.8
								c0-2.5,0-4.8-2-4.8h-1.5V12.3z"/>
							<path class="st0" d="M45.8,14.4V0.6h2.9v13.8H45.8z"/>
							<path class="st0" d="M50.9,7.5c0-3.6,0-7.1,4.7-7.1c4.7,0,4.7,3.5,4.7,7.1c0,3.6,0,7.1-4.7,7.1C50.9,14.6,50.9,11.1,50.9,7.5
								z M57.5,7.5c0-3.5-0.2-5.1-1.8-5.1c-1.6,0-1.8,1.5-1.8,5.1c0,3.5,0.2,5.1,1.8,5.1C57.2,12.6,57.5,11.1,57.5,7.5z"/>
							<path class="st0" d="M61.5,0.6h3l2.1,10h0l2.4-10h2.8l-3.6,13.8h-3.4L61.5,0.6z"/>
							<path class="st0" d="M71.3,14.4l3.8-13.8h3.8l3.7,13.8h-3l-0.8-3H75l-0.8,3H71.3z M76.9,3.3L76.9,3.3l-1.4,5.9h2.7L76.9,3.3z
								"/>
							<path class="st0" d="M87.9,14.6c-3.6,0-4.2-2.1-4.1-4.5h2.9c0,1.3,0.1,2.4,1.6,2.4c1,0,1.4-0.6,1.4-1.6
								c0-2.5-5.8-2.6-5.8-6.7c0-2.2,1-3.9,4.5-3.9c2.8,0,4.2,1.3,4,4.1h-2.8c0-1-0.2-2.1-1.3-2.1c-0.9,0-1.5,0.5-1.5,1.5
								c0,2.6,5.8,2.4,5.8,6.7C92.7,14.2,90.1,14.6,87.9,14.6z"/>
							<path class="st0" d="M94.5,7.5c0-3.6,0-7.1,4.7-7.1c2.9,0,4.1,1.6,4,4.6h-2.8c0-1.8-0.3-2.5-1.2-2.5c-1.6,0-1.8,1.5-1.8,5.1
								c0,3.5,0.2,5.1,1.8,5.1c1.3,0,1.3-1.7,1.3-2.8h2.8c0,3.7-1.5,4.9-4.2,4.9C94.5,14.6,94.5,11.1,94.5,7.5z"/>
							<path class="st0" d="M114.6,0.6v9.8c0,2.1-1.2,4.2-4.7,4.2c-3.2,0-4.7-1.6-4.7-4.2V0.6h2.9v9.6c0,1.7,0.7,2.4,1.8,2.4
								c1.3,0,1.8-0.8,1.8-2.4V0.6H114.6z"/>
							<path class="st0" d="M116.9,14.4V0.6h2.9v11.5h4.3v2.3H116.9z"/>
							<path class="st0" d="M125.2,14.4L129,0.6h3.8l3.7,13.8h-3l-0.8-3h-3.9l-0.8,3H125.2z M130.7,3.3L130.7,3.3l-1.4,5.9h2.7
								L130.7,3.3z"/>
							<path class="st0" d="M141,14.4h-2.9V0.6h5.3c2,0,3.2,1.3,3.2,3.6c0,1.8-0.7,3.1-2.6,3.4v0c0.6,0.1,2.5,0.2,2.5,2.7
								c0,0.9,0.1,3.5,0.3,4h-2.8c-0.4-0.8-0.3-1.8-0.3-2.7c0-1.6,0.2-3-2.1-3H141V14.4z M141,6.6h1.3c1.1,0,1.5-1.1,1.5-2
								c0-1.3-0.6-1.8-1.5-1.8H141V6.6z"/>
							<path class="st0" d="M153,0.6h4.8c3.8,0,4.5,2.5,4.5,6.8c0,2.1,0.3,7-4.6,7H153V0.6z M155.9,12.3h1.4c1.8,0,2.1-1.3,2.1-4.8
								c0-2.5,0-4.8-2-4.8h-1.5V12.3z"/>
							<path class="st0" d="M164.4,14.4V0.6h2.9v13.8H164.4z"/>
							<path class="st0" d="M173.3,14.6c-3.6,0-4.2-2.1-4.1-4.5h2.9c0,1.3,0.1,2.4,1.6,2.4c1,0,1.4-0.6,1.4-1.6
								c0-2.5-5.8-2.6-5.8-6.7c0-2.2,1-3.9,4.5-3.9c2.8,0,4.2,1.3,4,4.1h-2.8c0-1-0.2-2.1-1.3-2.1c-0.9,0-1.5,0.5-1.5,1.5
								c0,2.6,5.8,2.4,5.8,6.7C178.1,14.2,175.5,14.6,173.3,14.6z"/>
							<path class="st0" d="M180.1,14.4V0.6h7.5v2.1H183v3.4h4.3v2.1H183v4h4.8v2.1H180.1z"/>
							<path class="st0" d="M189.1,14.4l3.8-13.8h3.8l3.7,13.8h-3l-0.8-3h-3.9l-0.8,3H189.1z M194.7,3.3L194.7,3.3l-1.4,5.9h2.7
								L194.7,3.3z"/>
							<path class="st0" d="M205.7,14.6c-3.6,0-4.2-2.1-4.1-4.5h2.9c0,1.3,0.1,2.4,1.6,2.4c1,0,1.4-0.6,1.4-1.6
								c0-2.5-5.8-2.6-5.8-6.7c0-2.2,1-3.9,4.5-3.9c2.8,0,4.2,1.3,4,4.1h-2.8c0-1-0.2-2.1-1.3-2.1c-0.9,0-1.5,0.5-1.5,1.5
								c0,2.6,5.8,2.4,5.8,6.7C210.5,14.2,207.8,14.6,205.7,14.6z"/>
							<path class="st0" d="M212.4,14.4V0.6h7.5v2.1h-4.6v3.4h4.3v2.1h-4.3v4h4.8v2.1H212.4z"/>
						</g>
					</g>
				</g>
			</g>
		</g>
	</g>
</g>
<g>
	
		<image style="overflow:visible;opacity:0.15;" width="164" height="28" xlink:href="CF07C849A5F7A4FB.png"  transform="matrix(1 0 0 1 220 -6.6)">
	</image>
	<g>
		<g>
			<path class="st0" d="M226.8,14.2V0.4h1.2v6.3l0,0l4.9-6.3h1.5l-5.2,6.5l5.3,7.4H233l-5-7.1l0,0v7.1h-1.2V14.2z"/>
			<path class="st0" d="M236.5,14.2V0.4h1.9l5.6,12.1l0,0V0.4h1.2v13.8h-1.9L237.7,2l0,0v12.2H236.5z"/>
			<path class="st0" d="M251.8,0.1c4.1,0,4.2,3.4,4.2,7.2c0,3.7,0,7.2-4.2,7.2s-4.2-3.4-4.2-7.2C247.6,3.6,247.6,0.1,251.8,0.1z
				 M251.8,13.5c2.9,0,2.9-2.5,2.9-6.1s0-6.1-2.9-6.1s-2.9,2.5-2.9,6.1S248.9,13.5,251.8,13.5z"/>
			<path class="st0" d="M264.2,0.4h1.6l2.8,12.1l0,0l2.9-12.1h1.2l-3.4,13.8h-1.6l-2.8-12.3l0,0L262,14.2h-1.5l-3.3-13.8h1.3
				l2.8,12.2l0,0L264.2,0.4z"/>
			<path class="st0" d="M274.5,14.2V0.4h1.2v12.8h4.6v1H274.5z"/>
			<path class="st0" d="M288.5,0.4v1h-5v5.2h4.8v1h-4.8v5.6h5.2v1h-6.4V0.4H288.5z"/>
			<path class="st0" d="M290.7,0.4h3.7c3.9,0,4.3,2.3,4.3,7c0,4.6-0.7,6.9-4.8,6.9h-3.2V0.4z M291.9,13.2h1.5c3.7,0,4.1-1,4.1-6.6
				c0-4-0.5-5.1-3.9-5.1H292v11.7H291.9z"/>
			<path class="st0" d="M307.6,8h-2.8V7h4v6.9c-1.2,0.4-2.5,0.6-3.8,0.6c-4.5,0-4.2-4.5-4.2-7.2s-0.3-7.2,4.2-7.2
				c2.6,0,4,1.1,3.9,3.8h-1.2c0-1.8-0.8-2.8-2.7-2.8c-3,0-2.9,2.7-2.9,6.1c0,3.5,0,6.1,2.9,6.1c1.1,0,1.9-0.2,2.6-0.4V8z"/>
			<path class="st0" d="M317.7,0.4v1h-5v5.2h4.8v1h-4.8v5.6h5.2v1h-6.4V0.4H317.7z"/>
			<path class="st0" d="M323.9,0.4h3.8c1.1,0,3,0.2,3,3.4c0,2.8-0.9,4-3.3,4h-2.3v6.4h-1.2V0.4z M325.2,6.8h2.3
				c1.3,0,2.1-0.6,2.1-2.8c0-2.4-1-2.5-2.1-2.5h-2.3V6.8z"/>
			<path class="st0" d="M336.7,0.1c4.1,0,4.2,3.4,4.2,7.2c0,3.7,0,7.2-4.2,7.2s-4.2-3.5-4.2-7.2S332.6,0.1,336.7,0.1z M336.7,13.5
				c2.9,0,2.9-2.5,2.9-6.1s0-6.1-2.9-6.1s-2.9,2.5-2.9,6.1S333.8,13.5,336.7,13.5z"/>
			<path class="st0" d="M344.4,7.5v6.7h-1.2V0.4h3.8c2.7,0,3.3,0.9,3.3,3.3c0,1.7-0.3,2.9-2.1,3.3l0,0c1.9,0.4,2,0.6,2,5.6
				c0,0.5,0.1,1.1,0.1,1.6h-1.2c-0.1-0.4-0.2-2.7-0.2-3.4c0-0.6,0.4-3.3-2.3-3.3C346.6,7.5,344.4,7.5,344.4,7.5z M344.4,6.5h2
				c1.8,0,2.7-0.5,2.7-2.8c0-1.9-0.7-2.3-2.2-2.3h-2.5V6.5z"/>
			<path class="st0" d="M355.2,1.4h-3.4v-1h8v1h-3.3v12.8h-1.2L355.2,1.4L355.2,1.4z"/>
			<path class="st0" d="M365.2,0.4l4.3,13.8h-1.3l-1.1-3.6h-5.4l-1.1,3.6h-1.2l4.4-13.8C363.8,0.4,365.2,0.4,365.2,0.4z M366.8,9.6
				l-2.4-7.8l0,0l-2.3,7.8H366.8z"/>
			<path class="st0" d="M371.3,14.2V0.4h1.2v12.8h4.6v1H371.3z"/>
		</g>
	</g>
</g>
</svg>
