<?xml version="1.0" encoding="utf-8"?>
<!-- Generator: Adobe Illustrator 22.1.0, SVG Export Plug-In . SVG Version: 6.00 Build 0)  -->
<svg version="1.1" id="Layer_1" xmlns="http://www.w3.org/2000/svg" xmlns:xlink="http://www.w3.org/1999/xlink" x="0px" y="0px"
	 viewBox="0 0 280 22.4" style="enable-background:new 0 0 280 22.4;" xml:space="preserve">
<style type="text/css">
	.st0{fill:#FFFFFF;}
</style>
<path class="st0" d="M54.3,21.5V0.9h1.9v9.5h0.1l7.3-9.5h2.2l-7.7,9.6L66,21.4h-2.3l-7.4-10.5h-0.1v10.5L54.3,21.5L54.3,21.5z"/>
<path class="st0" d="M68.5,21.5V0.9h2.8l8.3,18l0.1-0.1v-18h1.9v20.5h-2.8L70.5,3l-0.1,0.1v18.1L68.5,21.5L68.5,21.5z"/>
<path class="st0" d="M91.5,0.6c6.2,0,6.3,5.1,6.3,10.6s-0.1,10.6-6.3,10.6s-6.3-5.1-6.3-10.6C85.5,5.7,85.5,0.6,91.5,0.6z
	 M91.5,20.4c4.4,0,4.4-3.8,4.4-9.2S95.8,2,91.5,2s-4.4,3.8-4.4,9.2S87.2,20.4,91.5,20.4z"/>
<path class="st0" d="M110.1,0.9h2.4l4.2,18h0.1l4.4-18h1.8l-5.1,20.5h-2.4l-4.2-18.3h-0.1l-4.3,18.3h-2.3L99.9,0.9h2l4.2,18.1l0,0
	L110.1,0.9z"/>
<path class="st0" d="M125.1,21.5V0.9h1.9v18.9h6.8v1.6h-8.7V21.5z"/>
<path class="st0" d="M145.7,0.9v1.6h-7.5v7.7h7.1v1.6h-7.1V20h7.7v1.6h-9.5V0.9H145.7z"/>
<path class="st0" d="M149,0.9h5.4c5.7,0,6.5,3.3,6.5,10.4c0,6.9-1,10.2-7.2,10.2H149V0.9z M150.9,19.9h2.2c5.4,0,6-1.5,6-9.9
	c0-5.9-0.8-7.6-5.8-7.6h-2.4V19.9z"/>
<path class="st0" d="M174.5,12.3h-4.2v-1.6h5.9V21c-1.9,0.5-3.8,0.8-5.6,0.8c-6.7,0-6.3-6.7-6.3-10.6s-0.4-10.6,6.3-10.6
	c3.9,0,5.9,1.7,5.8,5.6h-1.9c0-2.7-1.2-4.2-4.1-4.2c-4.5,0-4.4,4-4.4,9.2s-0.1,9.2,4.4,9.2c1.6,0,2.9-0.2,3.8-0.5v-7.5
	C174.2,12.3,174.5,12.3,174.5,12.3z"/>
<path class="st0" d="M190,0.9v1.6h-7.5v7.7h7.1v1.6h-7.1V20h7.7v1.6h-9.6V0.9H190z"/>
<path class="st0" d="M199.3,0.9h5.6c1.7,0,4.6,0.2,4.6,5c0,4.2-1.3,6-4.8,6h-3.4v9.6h-1.9L199.3,0.9C199.4,0.9,199.3,0.9,199.3,0.9z
	 M201.1,10.4h3.4c2,0,3.1-0.9,3.1-4.2c0-3.5-1.5-3.8-3.1-3.8h-3.3L201.1,10.4L201.1,10.4L201.1,10.4z"/>
<path class="st0" d="M218.1,0.6c6.2,0,6.3,5.1,6.3,10.6s-0.1,10.6-6.3,10.6s-6.3-5.1-6.3-10.6S211.9,0.6,218.1,0.6z M218.1,20.4
	c4.4,0,4.4-3.8,4.4-9.2S222.4,2,218.1,2c-4.4,0-4.4,3.8-4.4,9.2C213.6,16.7,213.7,20.4,218.1,20.4z"/>
<path class="st0" d="M229.8,11.5v9.9h-1.9V0.9h5.6c4,0,4.9,1.3,4.9,4.9c0,2.6-0.4,4.3-3.1,4.9v0.1c2.9,0.5,3,0.9,3,8.2
	c0,0.8,0.2,1.6,0.2,2.4h-1.8c-0.2-0.5-0.3-4-0.3-5.1c0-0.9,0.5-4.8-3.4-4.8L229.8,11.5L229.8,11.5z M229.8,10h2.9c2.7,0,4-0.7,4-4.2
	c0-2.8-1.1-3.3-3.2-3.3h-3.8L229.8,10L229.8,10z"/>
<path class="st0" d="M245.6,2.5h-5V0.9h11.9v1.6h-5v19h-1.9V2.5L245.6,2.5z"/>
<path class="st0" d="M260.5,0.9l6.4,20.5h-2l-1.7-5.4h-8l-1.6,5.4h-1.9l6.5-20.5C258.3,0.9,260.5,0.9,260.5,0.9z M262.7,14.5
	l-3.5-11.6h-0.1l-3.4,11.6H262.7z"/>
<path class="st0" d="M269.2,21.5V0.9h1.9v18.9h6.8v1.6h-8.7V21.5z"/>
<path class="st0" d="M0.7,21.6L6.6,0.4h5.9l5.8,21.2h-4.7l-1.2-4.7H6.3l-1.2,4.7H0.7z M9.2,4.4L9.2,4.4l-2.1,9.2h4.2L9.2,4.4z"/>
<path class="st0" d="M20.3,21.6V0.4h4.4v17.7h6.6v3.5H20.3z"/>
<path class="st0" d="M39.1,21.9c-5.5,0-6.5-3.2-6.3-6.9h4.4c0,2,0.1,3.7,2.5,3.7c1.5,0,2.2-1,2.2-2.4c0-3.8-8.9-4.1-8.9-10.4
	c0-3.3,1.6-6,7-6c4.3,0,6.5,1.9,6.2,6.4h-4.3c0-1.6-0.3-3.2-2.1-3.2c-1.4,0-2.3,0.8-2.3,2.3c0,4,8.9,3.7,8.9,10.4
	C46.5,21.3,42.5,21.9,39.1,21.9z"/>
</svg>
