<?xml version="1.0" encoding="utf-8"?>
<!-- Generator: Adobe Illustrator 22.1.0, SVG Export Plug-In . SVG Version: 6.00 Build 0)  -->
<svg version="1.1" id="Layer_1" xmlns="http://www.w3.org/2000/svg" xmlns:xlink="http://www.w3.org/1999/xlink" x="0px" y="0px"
	 viewBox="0 0 500 134" style="enable-background:new 0 0 500 134;" xml:space="preserve">
<style type="text/css">
	.st0{fill:#FFFFFF;}
	.st1{fill:none;stroke:#567BBD;stroke-width:2.6795;stroke-miterlimit:10;}
	.st2{fill:none;stroke:#8298CD;stroke-width:2.6795;stroke-miterlimit:10;}
	.st3{fill:none;stroke:#F065A5;stroke-width:2.6795;stroke-miterlimit:10;}
	.st4{fill:none;stroke:#39B54A;stroke-width:2.6795;stroke-miterlimit:10;}
	.st5{fill:none;stroke:#8DC63F;stroke-width:2.6795;stroke-miterlimit:10;}
	.st6{fill:none;stroke:#C786BA;stroke-width:2.6795;stroke-miterlimit:10;}
	.st7{fill:#8DC63F;}
	.st8{fill:#39B54A;}
	.st9{fill:#567BBD;}
	.st10{fill:#C778B2;}
	.st11{fill:#8298CD;}
	.st12{fill:#F065A5;}
</style>
<g>
	<g>
		<g>
			<g>
				<path class="st0" d="M132.2,104.6V81.2h2.1v10.7h0.1l8.3-10.7h2.5l-8.8,10.9l9,12.5h-2.6l-8.5-12h-0.1v12H132.2z"/>
				<path class="st0" d="M148.4,104.6V81.2h3.2l9.5,20.6l0.1-0.1V81.2h2.1v23.4h-3.2l-9.5-20.8l-0.1,0.1v20.7H148.4z"/>
				<path class="st0" d="M174.8,80.7c7,0,7.1,5.8,7.1,12.2c0,6.3-0.1,12.2-7.1,12.2s-7.1-5.8-7.1-12.2
					C167.7,86.6,167.8,80.7,174.8,80.7z M174.8,103.3c4.9,0,5-4.2,5-10.4s-0.1-10.4-5-10.4s-5,4.2-5,10.4S169.8,103.3,174.8,103.3z"
					/>
				<path class="st0" d="M195.9,81.2h2.8l4.7,20.6h0.1l5-20.6h2l-5.8,23.4H202l-4.7-20.8h-0.1l-4.8,20.8h-2.6l-5.7-23.4h2.2
					l4.7,20.7h0.1L195.9,81.2z"/>
				<path class="st0" d="M213,104.6V81.2h2.1v21.7h7.8v1.8H213z"/>
				<path class="st0" d="M236.5,81.2v1.8H228v8.8h8.1v1.8H228v9.4h8.8v1.8h-10.8V81.2H236.5z"/>
				<path class="st0" d="M240.3,81.2h6.2c6.6,0,7.4,3.8,7.4,11.8c0,7.8-1.1,11.6-8.2,11.6h-5.4V81.2z M242.4,102.9h2.5
					c6.3,0,6.9-1.7,6.9-11.3c0-6.7-0.9-8.7-6.7-8.7h-2.7V102.9z"/>
				<path class="st0" d="M269.4,94.1h-4.7v-1.8h6.8v11.7c-2.1,0.6-4.3,1-6.5,1c-7.6,0-7.1-7.6-7.1-12.2c0-4.5-0.6-12.2,7.1-12.2
					c4.5,0,6.8,1.9,6.7,6.5h-2.1c0-3.1-1.3-4.7-4.6-4.7c-5.1,0-5,4.5-5,10.4c0,5.9-0.1,10.4,5,10.4c1.8,0,3.3-0.3,4.4-0.7V94.1z"/>
				<path class="st0" d="M287.1,81.2v1.8h-8.5v8.8h8.1v1.8h-8.1v9.4h8.8v1.8h-10.8V81.2H287.1z"/>
			</g>
			<g>
				<path class="st0" d="M297.7,81.2h6.4c1.9,0,5.2,0.3,5.2,5.7c0,4.7-1.5,6.9-5.6,6.9h-4v10.9h-2.1V81.2z M299.8,92h3.9
					c2.2,0,3.6-1,3.6-4.7c0-4-1.7-4.3-3.6-4.3h-3.8V92z"/>
				<path class="st0" d="M319.1,80.7c7,0,7.1,5.8,7.1,12.2c0,6.3-0.1,12.2-7.1,12.2c-7,0-7.1-5.8-7.1-12.2
					C312,86.6,312.1,80.7,319.1,80.7z M319.1,103.3c4.9,0,5-4.2,5-10.4s-0.1-10.4-5-10.4c-4.9,0-5,4.2-5,10.4
					S314.1,103.3,319.1,103.3z"/>
				<path class="st0" d="M332.4,93.3v11.4h-2.1V81.2h6.5c4.5,0,5.6,1.5,5.6,5.6c0,2.9-0.5,4.9-3.6,5.6v0.1c3.3,0.7,3.5,1.1,3.5,9.4
					c0,0.9,0.2,1.8,0.2,2.7h-2c-0.2-0.7-0.3-4.6-0.3-5.8c0-1,0.6-5.5-3.9-5.5H332.4z M332.4,91.5h3.4c3.1,0,4.6-0.8,4.6-4.7
					c0-3.2-1.3-3.8-3.7-3.8h-4.3V91.5z"/>
				<path class="st0" d="M350.5,82.9h-5.7v-1.8h13.5v1.8h-5.7v21.7h-2.1V82.9z"/>
				<path class="st0" d="M367.4,81.2l7.3,23.4h-2.2l-1.9-6.2h-9.2l-1.8,6.2h-2.1l7.4-23.4H367.4z M370.1,96.7l-4-13.2H366l-4,13.2
					H370.1z"/>
				<path class="st0" d="M377.3,104.6V81.2h2.1v21.7h7.8v1.8H377.3z"/>
			</g>
		</g>
	</g>
	<g>
		<path class="st0" d="M130,72l11.2-40.5h11.2l11,40.5h-8.9l-2.2-9h-11.6l-2.3,9H130z M146.3,39.3h-0.1l-3.9,17.5h8.1L146.3,39.3z"
			/>
		<path class="st0" d="M167.4,72V31.5h8.5v33.8h12.7V72H167.4z"/>
		<path class="st0" d="M203.2,72.6c-10.5,0-12.5-6.2-12-13.2h8.5c0,3.9,0.2,7.1,4.8,7.1c2.9,0,4.3-1.9,4.3-4.6
			c0-7.3-17.1-7.7-17.1-19.8c0-6.3,3-11.4,13.4-11.4c8.2,0,12.3,3.7,11.8,12.2h-8.3c0-3-0.5-6.1-3.9-6.1c-2.8,0-4.4,1.5-4.4,4.3
			c0,7.7,17.1,7,17.1,19.8C217.4,71.4,209.7,72.6,203.2,72.6z"/>
	</g>
</g>
<g>
	<path class="st0" d="M1.4,39.5v52.8c0,4.4,2.3,8.5,6.1,10.7l45.7,26.4c3.8,2.2,8.5,2.2,12.3,0l45.7-26.4c3.8-2.2,6.1-6.3,6.1-10.7
		V39.5c0-4.4-2.3-8.5-6.1-10.7L65.6,2.5c-3.8-2.2-8.5-2.2-12.3,0L7.6,28.9C3.8,31.1,1.4,35.1,1.4,39.5z"/>
	<g>
		<g>
			<g>
				<line class="st1" x1="12.8" y1="39" x2="36.1" y2="52.5"/>
			</g>
			<g>
				<line class="st1" x1="36.1" y1="79.4" x2="36.1" y2="52.5"/>
				<line class="st2" x1="36.1" y1="79.4" x2="12.8" y2="92.8"/>
				<line class="st2" x1="36.1" y1="79.4" x2="59.4" y2="92.8"/>
			</g>
			<g>
				<line class="st3" x1="59.4" y1="119.7" x2="59.4" y2="92.8"/>
			</g>
			<g>
				<line class="st4" x1="59.4" y1="39" x2="59.4" y2="12.1"/>
				<line class="st4" x1="59.4" y1="39" x2="36.1" y2="52.5"/>
				<line class="st5" x1="59.4" y1="39" x2="82.8" y2="52.5"/>
			</g>
			<g>
				<line class="st6" x1="82.8" y1="79.4" x2="82.8" y2="52.5"/>
				<line class="st3" x1="82.8" y1="79.4" x2="59.4" y2="92.8"/>
				<line class="st6" x1="82.8" y1="79.4" x2="106.1" y2="92.8"/>
			</g>
			<g>
				<line class="st5" x1="106.1" y1="39" x2="82.8" y2="52.5"/>
			</g>
		</g>
		<circle class="st7" cx="59.4" cy="12.1" r="5.4"/>
		<circle class="st8" cx="12.8" cy="39" r="5.4"/>
		<circle class="st9" cx="36.1" cy="52.5" r="5.4"/>
		<circle class="st8" cx="59.4" cy="39" r="5.4"/>
		<circle class="st7" cx="82.8" cy="52.5" r="5.4"/>
		<circle class="st10" cx="106.1" cy="39" r="5.4"/>
		<circle class="st9" cx="12.8" cy="92.8" r="5.4"/>
		<circle class="st11" cx="36.1" cy="79.4" r="5.4"/>
		<circle class="st12" cx="59.4" cy="92.8" r="5.4"/>
		<circle class="st10" cx="82.8" cy="79.4" r="5.4"/>
		<circle class="st12" cx="106.1" cy="92.8" r="5.4"/>
		<circle class="st11" cx="59.4" cy="119.7" r="5.4"/>
	</g>
</g>
</svg>
