<?xml version="1.0" encoding="utf-8"?>
<!-- Generator: Adobe Illustrator 21.1.0, SVG Export Plug-In . SVG Version: 6.00 Build 0)  -->
<svg version="1.1" id="Layer_1" xmlns="http://www.w3.org/2000/svg" xmlns:xlink="http://www.w3.org/1999/xlink" x="0px" y="0px"
	 viewBox="0 0 693.9 39.4" style="enable-background:new 0 0 693.9 39.4;" xml:space="preserve">
<style type="text/css">
	.st0{fill:#FFFFFF;}
</style>
<g>
	
		<image style="overflow:visible;opacity:0.5;" width="411" height="38" xlink:href="D0C2C1DA24CA6E54.png"  transform="matrix(1 0 0 1 7 1.4)">
	</image>
	<g>
		<g>
			<g>
				<path class="st0" d="M160.9,31.8v-23h2.1v10.6h0.1l8.2-10.6h2.5l-8.6,10.7l8.8,12.2h-2.6l-8.3-11.8H163v11.8h-2.1V31.8z"/>
				<path class="st0" d="M176.8,31.8v-23h3.1l9.3,20.2l0.1-0.1V8.8h2.1v23h-3.1l-9.3-20.5l-0.1,0.1v20.3L176.8,31.8L176.8,31.8z"/>
				<path class="st0" d="M202.6,8.4c6.9,0,7,5.7,7,11.9s-0.1,11.9-7,11.9c-6.9,0-7-5.7-7-11.9C195.8,14.1,195.8,8.4,202.6,8.4z
					 M202.6,30.6c4.9,0,4.9-4.2,4.9-10.3S207.4,10,202.6,10c-4.8,0-4.9,4.2-4.9,10.3S197.8,30.6,202.6,30.6z"/>
				<path class="st0" d="M223.4,8.8h2.7l4.7,20.1h0.1l4.9-20.1h2l-5.7,23h-2.7l-4.7-20.5h-0.1l-4.8,20.5h-2.6l-5.3-23h2.2l4.7,20.3
					l0,0L223.4,8.8z"/>
				<path class="st0" d="M240.2,31.8v-23h2.1V30h7.6v1.8H240.2z"/>
				<path class="st0" d="M263.2,8.8v1.8h-8.4v8.6h8v1.8h-8v9.2h8.6v1.8h-10.6V8.8H263.2z"/>
				<path class="st0" d="M267,8.8h6.1c6.4,0,7.3,3.7,7.3,11.6c0,7.7-1.1,11.4-8.1,11.4H267V8.8z M269.1,30h2.5
					c6.1,0,6.7-1.7,6.7-11.1c0-6.6-0.9-8.5-6.5-8.5h-2.7V30z"/>
				<path class="st0" d="M295.5,21.5h-4.7v-1.8h6.6v11.5c-2.1,0.6-4.2,0.9-6.3,0.9c-7.5,0-7-7.5-7-11.9s-0.5-11.9,7-11.9
					c4.4,0,6.6,1.9,6.5,6.3h-2.1c0-3-1.3-4.7-4.6-4.7c-5,0-4.9,4.5-4.9,10.3c0,5.8-0.1,10.3,4.9,10.3c1.8,0,3.2-0.2,4.3-0.6v-8.4
					H295.5z"/>
				<path class="st0" d="M312.9,8.8v1.8h-8.4v8.6h8v1.8h-8v9.2h8.6v1.8h-10.7V8.8H312.9z"/>
				<path class="st0" d="M323.3,8.8h6.3c1.9,0,5.1,0.2,5.1,5.6c0,4.7-1.5,6.7-5.4,6.7h-3.8v10.7h-2.1v-23H323.3z M325.3,19.4h3.8
					c2.2,0,3.5-1,3.5-4.7c0-3.9-1.7-4.3-3.5-4.3h-3.7v8.9H325.3z"/>
				<path class="st0" d="M344.3,8.4c6.9,0,7,5.7,7,11.9s-0.1,11.9-7,11.9c-6.9,0-7-5.7-7-11.9S337.4,8.4,344.3,8.4z M344.3,30.6
					c4.9,0,4.9-4.2,4.9-10.3S349.1,10,344.3,10c-4.9,0-4.9,4.2-4.9,10.3C339.3,26.4,339.4,30.6,344.3,30.6z"/>
				<path class="st0" d="M357.4,20.6v11.1h-2.1V8.8h6.3c4.5,0,5.5,1.5,5.5,5.5c0,2.9-0.5,4.8-3.5,5.5v0.1c3.2,0.6,3.4,1,3.4,9.2
					c0,0.9,0.2,1.8,0.2,2.7h-2c-0.2-0.6-0.3-4.5-0.3-5.7c0-1,0.6-5.4-3.8-5.4h-3.7V20.6z M357.4,18.9h3.3c3,0,4.5-0.8,4.5-4.7
					c0-3.1-1.2-3.7-3.6-3.7h-4.2V18.9z"/>
				<path class="st0" d="M375.1,10.5h-5.6V8.8h13.3v1.8h-5.6v21.3h-2.1V10.5L375.1,10.5z"/>
				<path class="st0" d="M391.8,8.8l7.2,23h-2.2l-1.9-6h-9l-1.8,6H382l7.3-23H391.8z M394.3,24l-3.9-13h-0.1l-3.8,13H394.3z"/>
				<path class="st0" d="M401.5,31.8v-23h2.1V30h7.6v1.8H401.5z"/>
			</g>
			<g>
				<path class="st0" d="M13.3,32.4V8h13.3v3.8h-8.2v6H26v3.8h-7.6v7.1h8.5v3.8H13.3V32.4z"/>
				<path class="st0" d="M30.2,8h9.2c4.7,0,6.5,2.8,6.5,7.3c0,2.8-0.8,7.2-6.8,7.2h-3.8v9.9h-5.1C30.2,32.4,30.2,8,30.2,8z
					 M35.3,18.7h2.8c1.5,0,2.6-1.7,2.6-3.3c0-2-0.5-3.7-2.8-3.7h-2.6V18.7z"/>
				<path class="st0" d="M49,32.4V8h5.1v24.4H49z"/>
				<path class="st0" d="M58.4,32.4V8h5.1v20.3h7.6v4.1L58.4,32.4L58.4,32.4z"/>
				<path class="st0" d="M73.4,32.4V8h13.3v3.8h-8.2v6H86v3.8h-7.6v7.1h8.5v3.8H73.4V32.4z"/>
				<path class="st0" d="M90.3,8h9.2c4.7,0,6.5,2.8,6.5,7.3c0,2.8-0.8,7.2-6.8,7.2h-3.8v9.9h-5.1C90.3,32.4,90.3,8,90.3,8z
					 M95.4,18.7h2.8c1.5,0,2.6-1.7,2.6-3.3c0-2-0.5-3.7-2.8-3.7h-2.6V18.7z"/>
				<path class="st0" d="M115.7,32.8c-6.3,0-7.5-3.7-7.2-7.9h5.1c0,2.3,0.1,4.3,2.9,4.3c1.7,0,2.6-1.1,2.6-2.8
					c0-4.4-10.3-4.7-10.3-11.9c0-3.8,1.8-6.9,8-6.9c5,0,7.4,2.2,7.1,7.3h-5c0-1.8-0.3-3.7-2.4-3.7c-1.7,0-2.6,0.9-2.6,2.6
					c0,4.6,10.3,4.2,10.3,11.9C124.2,32,119.5,32.8,115.7,32.8z"/>
				<path class="st0" d="M132.3,23.9L125.9,8h5.6l3.6,10.3L139,8h5.2l-6.8,15.9v8.4h-5.1C132.3,32.3,132.3,23.9,132.3,23.9z"/>
			</g>
		</g>
	</g>
</g>
</svg>
