<?xml version="1.0" encoding="utf-8"?>
<!-- Generator: Adobe Illustrator 22.1.0, SVG Export Plug-In . SVG Version: 6.00 Build 0)  -->
<svg version="1.1" id="Layer_1" xmlns="http://www.w3.org/2000/svg" xmlns:xlink="http://www.w3.org/1999/xlink" x="0px" y="0px"
	 viewBox="0 0 399.7 22.4" style="enable-background:new 0 0 399.7 22.4;" xml:space="preserve">
<style type="text/css">
	.st0{fill:#FFFFFF;}
</style>
<g>
	<g>
		<g>
			<g>
				<path class="st0" d="M132.3,21.5V0.9h1.9v9.5h0.1l7.3-9.5h2.2l-7.7,9.6l7.9,10.9h-2.3l-7.4-10.5h-0.1v10.5L132.3,21.5
					L132.3,21.5z"/>
				<path class="st0" d="M146.5,21.5V0.9h2.8l8.3,18l0.1-0.1v-18h1.9v20.5h-2.8l-8.3-18.3l-0.1,0.1v18.1L146.5,21.5L146.5,21.5z"/>
				<path class="st0" d="M169.5,0.6c6.2,0,6.3,5.1,6.3,10.6s-0.1,10.6-6.3,10.6s-6.3-5.1-6.3-10.6C163.5,5.7,163.5,0.6,169.5,0.6z
					 M169.5,20.4c4.4,0,4.4-3.8,4.4-9.2S173.8,2,169.5,2c-4.3,0-4.4,3.8-4.4,9.2S165.2,20.4,169.5,20.4z"/>
				<path class="st0" d="M188.1,0.9h2.4l4.2,18h0.1l4.4-18h1.8l-5.1,20.5h-2.4l-4.2-18.3h-0.1l-4.3,18.3h-2.3l-4.7-20.5h2l4.2,18.1
					l0,0L188.1,0.9z"/>
				<path class="st0" d="M203.1,21.5V0.9h1.9v18.9h6.8v1.6H203.1z"/>
				<path class="st0" d="M223.7,0.9v1.6h-7.5v7.7h7.1v1.6h-7.1V20h7.7v1.6h-9.5V0.9H223.7z"/>
				<path class="st0" d="M227,0.9h5.4c5.7,0,6.5,3.3,6.5,10.4c0,6.9-1,10.2-7.2,10.2H227V0.9z M228.9,19.9h2.2c5.4,0,6-1.5,6-9.9
					c0-5.9-0.8-7.6-5.8-7.6h-2.4V19.9z"/>
				<path class="st0" d="M252.5,12.3h-4.2v-1.6h5.9v10.3c-1.9,0.5-3.8,0.8-5.6,0.8c-6.7,0-6.3-6.7-6.3-10.6s-0.4-10.6,6.3-10.6
					c3.9,0,5.9,1.7,5.8,5.6h-1.9c0-2.7-1.2-4.2-4.1-4.2c-4.5,0-4.4,4-4.4,9.2s-0.1,9.2,4.4,9.2c1.6,0,2.9-0.2,3.8-0.5v-7.5
					C252.2,12.3,252.5,12.3,252.5,12.3z"/>
				<path class="st0" d="M268,0.9v1.6h-7.5v7.7h7.1v1.6h-7.1V20h7.7v1.6h-9.6V0.9H268z"/>
				<path class="st0" d="M277.3,0.9h5.6c1.7,0,4.6,0.2,4.6,5c0,4.2-1.3,6-4.8,6h-3.4v9.6h-1.9L277.3,0.9
					C277.4,0.9,277.3,0.9,277.3,0.9z M279.1,10.4h3.4c2,0,3.1-0.9,3.1-4.2c0-3.5-1.5-3.8-3.1-3.8h-3.3L279.1,10.4L279.1,10.4
					L279.1,10.4z"/>
				<path class="st0" d="M296.1,0.6c6.2,0,6.3,5.1,6.3,10.6s-0.1,10.6-6.3,10.6s-6.3-5.1-6.3-10.6S289.9,0.6,296.1,0.6z M296.1,20.4
					c4.4,0,4.4-3.8,4.4-9.2S300.4,2,296.1,2c-4.4,0-4.4,3.8-4.4,9.2C291.6,16.7,291.7,20.4,296.1,20.4z"/>
				<path class="st0" d="M307.8,11.5v9.9h-1.9V0.9h5.6c4,0,4.9,1.3,4.9,4.9c0,2.6-0.4,4.3-3.1,4.9v0.1c2.9,0.5,3,0.9,3,8.2
					c0,0.8,0.2,1.6,0.2,2.4h-1.8c-0.2-0.5-0.3-4-0.3-5.1c0-0.9,0.5-4.8-3.4-4.8L307.8,11.5L307.8,11.5z M307.8,10h2.9
					c2.7,0,4-0.7,4-4.2c0-2.8-1.1-3.3-3.2-3.3h-3.8L307.8,10L307.8,10z"/>
				<path class="st0" d="M323.6,2.5h-5V0.9h11.9v1.6h-5v19h-1.9L323.6,2.5L323.6,2.5z"/>
				<path class="st0" d="M338.5,0.9l6.4,20.5h-2l-1.7-5.4h-8l-1.6,5.4h-1.9l6.5-20.5C336.3,0.9,338.5,0.9,338.5,0.9z M340.7,14.5
					l-3.5-11.6h-0.1l-3.4,11.6H340.7z"/>
				<path class="st0" d="M347.2,21.5V0.9h1.9v18.9h6.8v1.6H347.2z"/>
			</g>
			<g>
				<path class="st0" d="M0.5,22V0.2h11.9v3.4H5V9h6.8v3.4H5v6.3h7.6v3.4L0.5,22L0.5,22z"/>
				<path class="st0" d="M15.6,0.2h8.2c4.2,0,5.8,2.5,5.8,6.5c0,2.5-0.7,6.4-6.1,6.4h-3.4V22h-4.6C15.6,22,15.6,0.2,15.6,0.2z
					 M20.1,9.8h2.5c1.3,0,2.3-1.5,2.3-2.9c0-1.8-0.4-3.3-2.5-3.3h-2.3V9.8z"/>
				<path class="st0" d="M32.4,22V0.2h4.6V22H32.4z"/>
				<path class="st0" d="M40.7,22V0.2h4.6v18.1h6.8V22L40.7,22L40.7,22z"/>
				<path class="st0" d="M54.1,22V0.2H66v3.4h-7.3V9h6.7v3.4h-6.8v6.3h7.6v3.4L54.1,22L54.1,22z"/>
				<path class="st0" d="M69.2,0.2h8.2c4.2,0,5.8,2.5,5.8,6.5c0,2.5-0.7,6.4-6.1,6.4h-3.4V22h-4.6C69.2,22,69.2,0.2,69.2,0.2z
					 M73.8,9.8h2.5c1.3,0,2.3-1.5,2.3-2.9c0-1.8-0.4-3.3-2.5-3.3h-2.3V9.8z"/>
				<path class="st0" d="M91.9,22.4c-5.6,0-6.7-3.3-6.4-7.1H90c0,2.1,0.1,3.8,2.6,3.8c1.5,0,2.3-1,2.3-2.5c0-3.9-9.2-4.2-9.2-10.6
					c0-3.4,1.6-6.2,7.1-6.2c4.5,0,6.6,2,6.3,6.5h-4.5c0-1.6-0.3-3.3-2.1-3.3c-1.5,0-2.3,0.8-2.3,2.3c0,4.1,9.2,3.8,9.2,10.6
					C99.5,21.7,95.3,22.4,91.9,22.4z"/>
				<path class="st0" d="M106.7,14.4L101,0.2h5l3.2,9.2l3.5-9.2h4.6l-6.1,14.2v7.5h-4.6C106.7,21.9,106.7,14.4,106.7,14.4z"/>
			</g>
		</g>
	</g>
</g>
</svg>
